<svg class="main-svg" xmlns="http://www.w3.org/2000/svg" xmlns:xlink="http://www.w3.org/1999/xlink" width="1200" height="600" style="" viewBox="0 0 1200 600"><rect x="0" y="0" width="1200" height="600" style="fill: rgb(255, 255, 255); fill-opacity: 1;"/><defs id="defs-d1592d"><g class="clips"><clipPath id="clipd1592dxyplot" class="plotclip"><rect width="468" height="420"/></clipPath><clipPath id="clipd1592dx2y2plot" class="plotclip"><rect width="467.99999999999994" height="420"/></clipPath><clipPath class="axesclip" id="clipd1592dx"><rect x="80" y="0" width="468" height="600"/></clipPath><clipPath class="axesclip" id="clipd1592dy"><rect x="0" y="100" width="1200" height="420"/></clipPath><clipPath class="axesclip" id="clipd1592dxy"><rect x="80" y="100" width="468" height="420"/></clipPath><clipPath class="axesclip" id="clipd1592dy2"><rect x="0" y="100" width="1200" height="420"/></clipPath><clipPath class="axesclip" id="clipd1592dxy2"><rect x="80" y="100" width="468" height="420"/></clipPath><clipPath class="axesclip" id="clipd1592dx2"><rect x="652" y="0" width="467.99999999999994" height="600"/></clipPath><clipPath class="axesclip" id="clipd1592dx2y"><rect x="652" y="100" width="467.99999999999994" height="420"/></clipPath><clipPath class="axesclip" id="clipd1592dx2y2"><rect x="652" y="100" width="467.99999999999994" height="420"/></clipPath></g><g class="gradients"/><g class="patterns"/></defs><g class="bglayer"><rect class="bg" x="80" y="100" width="468" height="420" style="fill: rgb(229, 236, 246); fill-opacity: 1; stroke-width: 0;"/><rect class="bg" x="652" y="100" width="467.99999999999994" height="420" style="fill: rgb(229, 236, 246); fill-opacity: 1; stroke-width: 0;"/></g><g class="layer-below"><g class="imagelayer"/><g class="shapelayer"/></g><g class="cartesianlayer"><g class="subplot xy"><g class="layer-subplot"><g class="shapelayer"/><g class="imagelayer"/></g><g class="minor-gridlayer"><g class="x"/><g class="y"/></g><g class="gridlayer"><g class="x"/><g class="y"><path class="ygrid crisp" transform="translate(0,443.06)" d="M80,0h468" style="stroke: rgb(255, 255, 255); stroke-opacity: 1; stroke-width: 1px;"/><path class="ygrid crisp" transform="translate(0,376.38)" d="M80,0h468" style="stroke: rgb(255, 255, 255); stroke-opacity: 1; stroke-width: 1px;"/><path class="ygrid crisp" transform="translate(0,309.7)" d="M80,0h468" style="stroke: rgb(255, 255, 255); stroke-opacity: 1; stroke-width: 1px;"/><path class="ygrid crisp" transform="translate(0,243.01)" d="M80,0h468" style="stroke: rgb(255, 255, 255); stroke-opacity: 1; stroke-width: 1px;"/><path class="ygrid crisp" transform="translate(0,176.32999999999998)" d="M80,0h468" style="stroke: rgb(255, 255, 255); stroke-opacity: 1; stroke-width: 1px;"/><path class="ygrid crisp" transform="translate(0,109.65)" d="M80,0h468" style="stroke: rgb(255, 255, 255); stroke-opacity: 1; stroke-width: 1px;"/></g></g><g class="zerolinelayer"><path class="yzl zl crisp" transform="translate(0,509.75)" d="M80,0h468" style="stroke: rgb(255, 255, 255); stroke-opacity: 1; stroke-width: 2px;"/></g><path class="xlines-below"/><path class="ylines-below"/><g class="overlines-below"/><g class="xaxislayer-below"/><g class="yaxislayer-below"/><g class="overaxes-below"/><g class="plot" transform="translate(80,100)" clip-path="url(#clipd1592dxyplot)"><g class="violinlayer mlayer"><g class="trace violins" style="opacity: 1;"><path class="violin" d="M78.06,390.72Q78.09,386.52 78.12,384.42C78.14,382.32 78.17,380.23 78.21,378.13C78.25,376.03 78.29,373.93 78.34,371.83C78.39,369.73 78.45,367.64 78.51,365.54C78.57,363.44 78.63,361.34 78.69,359.24C78.75,357.14 78.82,355.05 78.87,352.95C78.92,350.85 78.97,348.75 79.01,346.65C79.05,344.55 79.08,342.46 79.1,340.36C79.12,338.26 79.12,336.16 79.12,334.06C79.12,331.96 79.1,329.86 79.08,327.76C79.06,325.66 79.02,323.57 78.98,321.47C78.94,319.37 78.9,317.27 78.86,315.17C78.82,313.07 78.77,310.98 78.73,308.88C78.69,306.78 78.65,304.68 78.61,302.58C78.57,300.48 78.53,298.39 78.51,296.29C78.49,294.19 78.47,292.09 78.47,289.99C78.47,287.89 78.47,285.8 78.49,283.7C78.51,281.6 78.54,279.5 78.58,277.4C78.62,275.3 78.67,273.2 78.74,271.1C78.8,269 78.88,266.91 78.97,264.81C79.07,262.71 79.18,260.61 79.31,258.51C79.44,256.41 79.59,254.32 79.77,252.22C79.95,250.12 80.15,248.02 80.38,245.92C80.61,243.82 80.87,241.73 81.13,239.63C81.4,237.53 81.69,235.43 81.97,233.33C82.25,231.23 82.53,229.14 82.8,227.04C83.07,224.94 83.33,222.84 83.58,220.74C83.83,218.64 84.06,216.55 84.29,214.45C84.52,212.35 84.73,210.25 84.96,208.15C85.19,206.05 85.43,203.95 85.68,201.85C85.93,199.75 86.21,197.66 86.48,195.56C86.76,193.46 87.05,191.36 87.33,189.26C87.61,187.16 87.91,185.07 88.18,182.97C88.45,180.87 88.71,178.77 88.96,176.67C89.2,174.57 89.43,172.48 89.65,170.38C89.87,168.28 90.07,166.18 90.29,164.08C90.51,161.98 90.73,159.89 90.98,157.79C91.23,155.69 91.5,153.59 91.81,151.49C92.12,149.39 92.46,147.29 92.84,145.2C93.22,143.1 93.66,141 94.11,138.9C94.57,136.8 95.06,134.7 95.57,132.6C96.08,130.5 96.62,128.4 97.17,126.31C97.73,124.21 98.28,122.1 98.9,120.01C99.52,117.91 100.14,115.8 100.88,113.72C101.63,111.61 102.44,109.5 103.38,107.42C104.34,105.3 105.45,103.21 106.61,101.13C107.79,99.01 109.16,96.94 110.4,94.83C111.63,92.74 113.03,90.68 114.01,88.54C114.95,86.48 115.92,84.37 116.22,82.24C116.51,80.17 116.44,77.99 115.86,75.95C115.24,73.78 113.9,71.66 112.45,69.65C110.85,67.44 108.63,65.4 106.51,63.35C104.28,61.2 101.7,59.17 99.34,57.06C97,54.97 94.54,52.91 92.39,50.76C90.35,48.71 88.36,46.64 86.72,44.47Q85.18,42.43 82.75,38.17L73.25,38.17Q70.82,42.43 69.28,44.47C67.64,46.64 65.65,48.71 63.61,50.76C61.46,52.91 59,54.97 56.66,57.06C54.3,59.17 51.72,61.2 49.49,63.35C47.37,65.4 45.15,67.44 43.55,69.65C42.1,71.66 40.76,73.78 40.14,75.95C39.56,77.99 39.49,80.17 39.78,82.24C40.08,84.37 41.05,86.48 41.99,88.54C42.97,90.68 44.37,92.74 45.6,94.83C46.84,96.94 48.21,99.01 49.39,101.13C50.55,103.21 51.66,105.3 52.62,107.42C53.56,109.5 54.37,111.61 55.12,113.72C55.86,115.8 56.48,117.91 57.1,120.01C57.72,122.1 58.27,124.21 58.83,126.31C59.38,128.4 59.92,130.5 60.43,132.6C60.94,134.7 61.43,136.8 61.89,138.9C62.34,141 62.78,143.1 63.16,145.2C63.54,147.29 63.88,149.39 64.19,151.49C64.5,153.59 64.77,155.69 65.02,157.79C65.27,159.89 65.49,161.98 65.71,164.08C65.93,166.18 66.13,168.28 66.35,170.38C66.57,172.48 66.8,174.57 67.04,176.67C67.29,178.77 67.55,180.87 67.82,182.97C68.09,185.07 68.39,187.16 68.67,189.26C68.95,191.36 69.24,193.46 69.52,195.56C69.79,197.66 70.07,199.75 70.32,201.85C70.57,203.95 70.81,206.05 71.04,208.15C71.27,210.25 71.48,212.35 71.71,214.45C71.94,216.55 72.17,218.64 72.42,220.74C72.67,222.84 72.93,224.94 73.2,227.04C73.47,229.14 73.75,231.23 74.03,233.33C74.31,235.43 74.6,237.53 74.87,239.63C75.13,241.73 75.39,243.82 75.62,245.92C75.85,248.02 76.05,250.12 76.23,252.22C76.41,254.32 76.56,256.41 76.69,258.51C76.82,260.61 76.93,262.71 77.03,264.81C77.12,266.91 77.2,269 77.26,271.1C77.33,273.2 77.38,275.3 77.42,277.4C77.46,279.5 77.49,281.6 77.51,283.7C77.53,285.8 77.53,287.89 77.53,289.99C77.53,292.09 77.51,294.19 77.49,296.29C77.47,298.39 77.43,300.48 77.39,302.58C77.35,304.68 77.31,306.78 77.27,308.88C77.23,310.98 77.18,313.07 77.14,315.17C77.1,317.27 77.06,319.37 77.02,321.47C76.98,323.57 76.94,325.66 76.92,327.76C76.9,329.86 76.88,331.96 76.88,334.06C76.88,336.16 76.88,338.26 76.9,340.36C76.92,342.46 76.95,344.55 76.99,346.65C77.03,348.75 77.08,350.85 77.13,352.95C77.18,355.05 77.25,357.14 77.31,359.24C77.37,361.34 77.43,363.44 77.49,365.54C77.55,367.64 77.61,369.73 77.66,371.83C77.71,373.93 77.75,376.03 77.79,378.13C77.83,380.23 77.86,382.32 77.88,384.42Q77.91,386.52 77.94,390.72Z" style="vector-effect: non-scaling-stroke; stroke-width: 2px; stroke: rgb(99, 110, 250); stroke-opacity: 1; fill: rgb(99, 110, 250); fill-opacity: 0.5;"/><path class="violin" d="M234.02,381.58Q234.03,378.13 234.04,376.4C234.05,374.67 234.06,372.95 234.07,371.22C234.08,369.49 234.1,367.77 234.11,366.04C234.13,364.31 234.14,362.59 234.16,360.86C234.17,359.13 234.19,357.41 234.2,355.68C234.21,353.95 234.21,352.23 234.22,350.5C234.22,348.77 234.23,347.05 234.23,345.32C234.23,343.59 234.22,341.87 234.21,340.14C234.2,338.41 234.18,336.69 234.17,334.96C234.16,333.23 234.14,331.51 234.13,329.78C234.12,328.05 234.1,326.33 234.09,324.6C234.08,322.87 234.07,321.15 234.06,319.42C234.05,317.69 234.04,315.97 234.04,314.24C234.04,312.51 234.05,310.79 234.05,309.06C234.06,307.33 234.06,305.61 234.07,303.88C234.08,302.15 234.1,300.43 234.12,298.7C234.14,296.97 234.17,295.25 234.2,293.52C234.24,291.79 234.28,290.07 234.33,288.34C234.38,286.61 234.44,284.89 234.51,283.16C234.59,281.43 234.67,279.71 234.78,277.98C234.89,276.25 235.01,274.53 235.17,272.8C235.33,271.07 235.5,269.34 235.72,267.62C235.94,265.89 236.18,264.16 236.47,262.44C236.76,260.71 237.08,258.98 237.45,257.26C237.82,255.53 238.22,253.8 238.67,252.08C239.12,250.35 239.63,248.62 240.16,246.9C240.7,245.17 241.28,243.44 241.88,241.72C242.48,239.99 243.13,238.26 243.77,236.54C244.41,234.81 245.09,233.09 245.73,231.36C246.37,229.64 247.02,227.91 247.61,226.18C248.2,224.46 248.77,222.73 249.28,221C249.78,219.28 250.24,217.55 250.64,215.82C251.03,214.1 251.37,212.37 251.66,210.64C251.95,208.92 252.17,207.19 252.37,205.46C252.57,203.74 252.72,202.01 252.86,200.28C253,198.55 253.11,196.83 253.21,195.1C253.31,193.37 253.4,191.65 253.48,189.92C253.56,188.19 253.63,186.47 253.69,184.74C253.75,183.01 253.8,181.29 253.83,179.56C253.86,177.83 253.88,176.11 253.87,174.38C253.86,172.65 253.83,170.93 253.79,169.2C253.75,167.48 253.69,165.75 253.61,164.03C253.53,162.3 253.44,160.58 253.33,158.85C253.22,157.12 253.11,155.4 252.97,153.67C252.83,151.94 252.68,150.22 252.5,148.49C252.32,146.76 252.12,145.04 251.9,143.31C251.68,141.58 251.43,139.86 251.18,138.13C250.93,136.4 250.67,134.68 250.42,132.95C250.17,131.22 249.92,129.5 249.7,127.77C249.48,126.04 249.27,124.32 249.1,122.59C248.93,120.86 248.79,119.14 248.7,117.41C248.61,115.68 248.53,113.96 248.58,112.23C248.63,110.5 248.72,108.77 248.99,107.05C249.27,105.31 249.66,103.57 250.23,101.87C250.82,100.12 251.63,98.39 252.52,96.69C253.44,94.93 254.6,93.23 255.67,91.51C256.75,89.78 258.02,88.09 258.97,86.33C259.88,84.64 260.86,82.92 261.3,81.15C261.72,79.46 261.9,77.67 261.62,75.97C261.33,74.21 260.47,72.45 259.49,70.79C258.42,68.98 256.82,67.29 255.29,65.61C253.68,63.84 251.77,62.16 250.02,60.43C248.28,58.71 246.44,57.02 244.84,55.25C243.31,53.56 241.82,51.85 240.59,50.07Q239.43,48.39 237.6,44.89L230.4,44.89Q228.57,48.39 227.41,50.07C226.18,51.85 224.69,53.56 223.16,55.25C221.56,57.02 219.72,58.71 217.98,60.43C216.23,62.16 214.32,63.84 212.71,65.61C211.18,67.29 209.58,68.98 208.51,70.79C207.53,72.45 206.67,74.21 206.38,75.97C206.1,77.67 206.28,79.46 206.7,81.15C207.14,82.92 208.12,84.64 209.03,86.33C209.98,88.09 211.25,89.78 212.33,91.51C213.4,93.23 214.56,94.93 215.48,96.69C216.37,98.39 217.18,100.12 217.77,101.87C218.34,103.57 218.73,105.31 219.01,107.05C219.28,108.77 219.37,110.5 219.42,112.23C219.47,113.96 219.39,115.68 219.3,117.41C219.21,119.14 219.07,120.86 218.9,122.59C218.73,124.32 218.52,126.04 218.3,127.77C218.08,129.5 217.83,131.22 217.58,132.95C217.33,134.68 217.07,136.4 216.82,138.13C216.57,139.86 216.32,141.58 216.1,143.31C215.88,145.04 215.68,146.76 215.5,148.49C215.32,150.22 215.17,151.94 215.03,153.67C214.89,155.4 214.78,157.12 214.67,158.85C214.56,160.58 214.47,162.3 214.39,164.03C214.31,165.75 214.25,167.48 214.21,169.2C214.17,170.93 214.14,172.65 214.13,174.38C214.12,176.11 214.14,177.83 214.17,179.56C214.2,181.29 214.25,183.01 214.31,184.74C214.37,186.47 214.44,188.19 214.52,189.92C214.6,191.65 214.69,193.37 214.79,195.1C214.89,196.83 215,198.55 215.14,200.28C215.28,202.01 215.43,203.74 215.63,205.46C215.83,207.19 216.05,208.92 216.34,210.64C216.63,212.37 216.97,214.1 217.36,215.82C217.76,217.55 218.22,219.28 218.72,221C219.23,222.73 219.8,224.46 220.39,226.18C220.98,227.91 221.63,229.64 222.27,231.36C222.91,233.09 223.59,234.81 224.23,236.54C224.87,238.26 225.52,239.99 226.12,241.72C226.72,243.44 227.3,245.17 227.84,246.9C228.37,248.62 228.88,250.35 229.33,252.08C229.78,253.8 230.18,255.53 230.55,257.26C230.92,258.98 231.24,260.71 231.53,262.44C231.82,264.16 232.06,265.89 232.28,267.62C232.5,269.34 232.67,271.07 232.83,272.8C232.99,274.53 233.11,276.25 233.22,277.98C233.33,279.71 233.41,281.43 233.49,283.16C233.56,284.89 233.62,286.61 233.67,288.34C233.72,290.07 233.76,291.79 233.8,293.52C233.83,295.25 233.86,296.97 233.88,298.7C233.9,300.43 233.92,302.15 233.93,303.88C233.94,305.61 233.94,307.33 233.95,309.06C233.95,310.79 233.96,312.51 233.96,314.24C233.96,315.97 233.95,317.69 233.94,319.42C233.93,321.15 233.92,322.87 233.91,324.6C233.9,326.33 233.88,328.05 233.87,329.78C233.86,331.51 233.84,333.23 233.83,334.96C233.82,336.69 233.8,338.41 233.79,340.14C233.78,341.87 233.77,343.59 233.77,345.32C233.77,347.05 233.78,348.77 233.78,350.5C233.79,352.23 233.79,353.95 233.8,355.68C233.81,357.41 233.83,359.13 233.84,360.86C233.86,362.59 233.87,364.31 233.89,366.04C233.9,367.77 233.92,369.49 233.93,371.22C233.94,372.95 233.95,374.67 233.96,376.4Q233.97,378.13 233.98,381.58Z" style="vector-effect: non-scaling-stroke; stroke-width: 2px; stroke: rgb(99, 110, 250); stroke-opacity: 1; fill: rgb(99, 110, 250); fill-opacity: 0.5;"/><path class="violin" d="M390.11,301.01Q390.18,296.32 390.24,293.97C390.3,291.62 390.38,289.28 390.49,286.93C390.6,284.59 390.73,282.24 390.91,279.9C391.09,277.55 391.31,275.2 391.59,272.86C391.87,270.51 392.2,268.16 392.61,265.82C393.02,263.47 393.49,261.12 394.04,258.78C394.59,256.43 395.22,254.08 395.91,251.74C396.6,249.39 397.38,247.05 398.17,244.71C398.97,242.36 399.85,240.02 400.69,237.67C401.53,235.32 402.42,232.98 403.22,230.63C404.01,228.29 404.81,225.95 405.46,223.59C406.11,221.26 406.69,218.91 407.12,216.55C407.55,214.22 407.86,211.87 408.05,209.52C408.24,207.18 408.27,204.83 408.27,202.48C408.27,200.13 408.13,197.79 408.02,195.44C407.91,193.09 407.72,190.75 407.61,188.4C407.5,186.05 407.39,183.71 407.36,181.36C407.33,179.01 407.35,176.66 407.43,174.32C407.51,171.97 407.68,169.63 407.85,167.29C408.02,164.94 408.25,162.6 408.43,160.25C408.61,157.9 408.82,155.56 408.91,153.21C409,150.86 409.06,148.52 409,146.17C408.94,143.82 408.77,141.47 408.53,139.13C408.29,136.78 407.9,134.44 407.54,132.1C407.17,129.75 406.69,127.41 406.34,125.06C405.99,122.72 405.59,120.37 405.42,118.02C405.25,115.68 405.17,113.32 405.31,110.98C405.45,108.63 405.8,106.27 406.28,103.94C406.77,101.58 407.52,99.24 408.22,96.9C408.92,94.55 409.82,92.23 410.47,89.87C411.11,87.54 411.8,85.19 412.08,82.83C412.36,80.5 412.45,78.12 412.17,75.79C411.89,73.42 411.22,71.05 410.38,68.75C409.51,66.36 408.22,64.03 406.97,61.71C405.69,59.34 404.15,57.03 402.76,54.68C401.37,52.34 399.89,50.01 398.63,47.64C397.39,45.32 396.22,42.98 395.25,40.6Q394.3,38.28 392.86,33.56L387.14,33.56Q385.7,38.28 384.75,40.6C383.78,42.98 382.61,45.32 381.37,47.64C380.11,50.01 378.63,52.34 377.24,54.68C375.85,57.03 374.31,59.34 373.03,61.71C371.78,64.03 370.49,66.36 369.62,68.75C368.78,71.05 368.11,73.42 367.83,75.79C367.55,78.12 367.64,80.5 367.92,82.83C368.2,85.19 368.89,87.54 369.53,89.87C370.18,92.23 371.08,94.55 371.78,96.9C372.48,99.24 373.23,101.58 373.72,103.94C374.2,106.27 374.55,108.63 374.69,110.98C374.83,113.32 374.75,115.68 374.58,118.02C374.41,120.37 374.01,122.72 373.66,125.06C373.31,127.41 372.83,129.75 372.46,132.1C372.1,134.44 371.71,136.78 371.47,139.13C371.23,141.47 371.06,143.82 371,146.17C370.94,148.52 371,150.86 371.09,153.21C371.18,155.56 371.39,157.9 371.57,160.25C371.75,162.6 371.98,164.94 372.15,167.29C372.32,169.63 372.49,171.97 372.57,174.32C372.65,176.66 372.67,179.01 372.64,181.36C372.61,183.71 372.5,186.05 372.39,188.4C372.28,190.75 372.09,193.09 371.98,195.44C371.87,197.79 371.73,200.13 371.73,202.48C371.73,204.83 371.76,207.18 371.95,209.52C372.14,211.87 372.45,214.22 372.88,216.55C373.31,218.91 373.89,221.26 374.54,223.59C375.19,225.95 375.99,228.29 376.78,230.63C377.58,232.98 378.47,235.32 379.31,237.67C380.15,240.02 381.03,242.36 381.83,244.71C382.62,247.05 383.4,249.39 384.09,251.74C384.78,254.08 385.41,256.43 385.96,258.78C386.51,261.12 386.98,263.47 387.39,265.82C387.8,268.16 388.13,270.51 388.41,272.86C388.69,275.2 388.91,277.55 389.09,279.9C389.27,282.24 389.4,284.59 389.51,286.93C389.62,289.28 389.7,291.62 389.76,293.97Q389.82,296.32 389.89,301.01Z" style="vector-effect: non-scaling-stroke; stroke-width: 2px; stroke: rgb(99, 110, 250); stroke-opacity: 1; fill: rgb(99, 110, 250); fill-opacity: 0.5;"/><path class="box" d="M68.45,108H87.56M68.45,146.66H87.56V76.33H68.45ZM78,146.66V249.89M78,76.33V76.33" style="vector-effect: non-scaling-stroke; stroke-width: 2px; stroke: rgb(99, 110, 250); stroke-opacity: 1; fill: rgb(99, 110, 250); fill-opacity: 0.5;"/><path class="box" d="M224.45,143.4H243.56M224.45,192.54H243.56V76.33H224.45ZM234,192.54V350.14M234,76.33V76.33" style="vector-effect: non-scaling-stroke; stroke-width: 2px; stroke: rgb(99, 110, 250); stroke-opacity: 1; fill: rgb(99, 110, 250); fill-opacity: 0.5;"/><path class="box" d="M380.45,143.93H399.55M380.45,201.8H399.55V76.33H380.45ZM390,201.8V258.24M390,76.33V76.33" style="vector-effect: non-scaling-stroke; stroke-width: 2px; stroke: rgb(99, 110, 250); stroke-opacity: 1; fill: rgb(99, 110, 250); fill-opacity: 0.5;"/><path class="mean" d="M68.45,119.57H87.56" style="fill: none; vector-effect: non-scaling-stroke; stroke-width: 2px; stroke-dasharray: 4px, 2px; stroke: rgb(99, 110, 250); stroke-opacity: 1;"/><path class="mean" d="M224.45,144.98H243.56" style="fill: none; vector-effect: non-scaling-stroke; stroke-width: 2px; stroke-dasharray: 4px, 2px; stroke: rgb(99, 110, 250); stroke-opacity: 1;"/><path class="mean" d="M380.45,144.67H399.55" style="fill: none; vector-effect: non-scaling-stroke; stroke-width: 2px; stroke-dasharray: 4px, 2px; stroke: rgb(99, 110, 250); stroke-opacity: 1;"/></g></g></g><g class="overplot"/><path class="xlines-above crisp" d="M0,0" style="fill: none;"/><path class="ylines-above crisp" d="M0,0" style="fill: none;"/><g class="overlines-above"/><g class="xaxislayer-above"><g class="xtick"><text text-anchor="middle" x="0" y="533" transform="translate(158,0)" style="font-family: 'Open Sans', verdana, arial, sans-serif; font-size: 12px; fill: rgb(42, 63, 95); fill-opacity: 1; white-space: pre; opacity: 1;">&#60;=1</text></g><g class="xtick"><text text-anchor="middle" x="0" y="533" transform="translate(314,0)" style="font-family: 'Open Sans', verdana, arial, sans-serif; font-size: 12px; fill: rgb(42, 63, 95); fill-opacity: 1; white-space: pre; opacity: 1;">(1, 2]</text></g><g class="xtick"><text text-anchor="middle" x="0" y="533" transform="translate(470,0)" style="font-family: 'Open Sans', verdana, arial, sans-serif; font-size: 12px; fill: rgb(42, 63, 95); fill-opacity: 1; white-space: pre; opacity: 1;">>2</text></g></g><g class="yaxislayer-above"><g class="ytick"><text text-anchor="end" x="79" y="4.199999999999999" transform="translate(0,509.75)" style="font-family: 'Open Sans', verdana, arial, sans-serif; font-size: 12px; fill: rgb(42, 63, 95); fill-opacity: 1; white-space: pre; opacity: 1;">0</text></g><g class="ytick"><text text-anchor="end" x="79" y="4.199999999999999" style="font-family: 'Open Sans', verdana, arial, sans-serif; font-size: 12px; fill: rgb(42, 63, 95); fill-opacity: 1; white-space: pre; opacity: 1;" transform="translate(0,443.06)">0.2</text></g><g class="ytick"><text text-anchor="end" x="79" y="4.199999999999999" style="font-family: 'Open Sans', verdana, arial, sans-serif; font-size: 12px; fill: rgb(42, 63, 95); fill-opacity: 1; white-space: pre; opacity: 1;" transform="translate(0,376.38)">0.4</text></g><g class="ytick"><text text-anchor="end" x="79" y="4.199999999999999" style="font-family: 'Open Sans', verdana, arial, sans-serif; font-size: 12px; fill: rgb(42, 63, 95); fill-opacity: 1; white-space: pre; opacity: 1;" transform="translate(0,309.7)">0.6</text></g><g class="ytick"><text text-anchor="end" x="79" y="4.199999999999999" style="font-family: 'Open Sans', verdana, arial, sans-serif; font-size: 12px; fill: rgb(42, 63, 95); fill-opacity: 1; white-space: pre; opacity: 1;" transform="translate(0,243.01)">0.8</text></g><g class="ytick"><text text-anchor="end" x="79" y="4.199999999999999" style="font-family: 'Open Sans', verdana, arial, sans-serif; font-size: 12px; fill: rgb(42, 63, 95); fill-opacity: 1; white-space: pre; opacity: 1;" transform="translate(0,176.32999999999998)">1</text></g><g class="ytick"><text text-anchor="end" x="79" y="4.199999999999999" style="font-family: 'Open Sans', verdana, arial, sans-serif; font-size: 12px; fill: rgb(42, 63, 95); fill-opacity: 1; white-space: pre; opacity: 1;" transform="translate(0,109.65)">1.2</text></g></g><g class="overaxes-above"/></g><g class="subplot x2y2"><g class="layer-subplot"><g class="shapelayer"/><g class="imagelayer"/></g><g class="minor-gridlayer"><g class="x2"/><g class="y2"/></g><g class="gridlayer"><g class="x2"/><g class="y2"><path class="y2grid crisp" transform="translate(0,443.06)" d="M652,0h467.99999999999994" style="stroke: rgb(255, 255, 255); stroke-opacity: 1; stroke-width: 1px;"/><path class="y2grid crisp" transform="translate(0,376.38)" d="M652,0h467.99999999999994" style="stroke: rgb(255, 255, 255); stroke-opacity: 1; stroke-width: 1px;"/><path class="y2grid crisp" transform="translate(0,309.7)" d="M652,0h467.99999999999994" style="stroke: rgb(255, 255, 255); stroke-opacity: 1; stroke-width: 1px;"/><path class="y2grid crisp" transform="translate(0,243.01)" d="M652,0h467.99999999999994" style="stroke: rgb(255, 255, 255); stroke-opacity: 1; stroke-width: 1px;"/><path class="y2grid crisp" transform="translate(0,176.32999999999998)" d="M652,0h467.99999999999994" style="stroke: rgb(255, 255, 255); stroke-opacity: 1; stroke-width: 1px;"/><path class="y2grid crisp" transform="translate(0,109.65)" d="M652,0h467.99999999999994" style="stroke: rgb(255, 255, 255); stroke-opacity: 1; stroke-width: 1px;"/></g></g><g class="zerolinelayer"><path class="y2zl zl crisp" transform="translate(0,509.75)" d="M652,0h467.99999999999994" style="stroke: rgb(255, 255, 255); stroke-opacity: 1; stroke-width: 2px;"/></g><path class="xlines-below"/><path class="ylines-below"/><g class="overlines-below"/><g class="xaxislayer-below"/><g class="yaxislayer-below"/><g class="overaxes-below"/><g class="plot" transform="translate(652,100)" clip-path="url(#clipd1592dx2y2plot)"><g class="violinlayer mlayer"><g class="trace violins" style="opacity: 1;"><path class="violin" d="M78.05,399Q78.08,392.85 78.1,389.78C78.12,386.71 78.15,383.63 78.18,380.56C78.22,377.49 78.26,374.41 78.31,371.34C78.37,368.27 78.43,365.19 78.51,362.12C78.59,359.05 78.67,355.97 78.78,352.9C78.89,349.83 79.01,346.75 79.16,343.68C79.31,340.61 79.48,337.53 79.69,334.46C79.9,331.39 80.12,328.31 80.41,325.24C80.7,322.16 81.02,319.09 81.41,316.02C81.8,312.94 82.23,309.87 82.75,306.8C83.27,303.72 83.85,300.65 84.54,297.59C85.23,294.51 86.01,291.43 86.88,288.37C87.76,285.28 88.75,282.21 89.81,279.15C90.88,276.06 92.09,272.99 93.3,269.93C94.52,266.85 95.87,263.79 97.12,260.71C98.36,257.64 99.68,254.58 100.77,251.49C101.84,248.44 102.9,245.37 103.6,242.27C104.29,239.22 104.81,236.13 104.96,233.05C105.1,229.98 104.93,226.88 104.48,223.83C104.02,220.73 103.17,217.65 102.21,214.61C101.23,211.51 99.92,208.45 98.65,205.39C97.36,202.3 95.87,199.25 94.52,196.17C93.17,193.1 91.77,190.04 90.54,186.95C89.33,183.89 88.18,180.82 87.2,177.73C86.23,174.68 85.4,171.6 84.7,168.51C84.01,165.45 83.47,162.37 83.04,159.29C82.61,156.23 82.31,153.15 82.12,150.07C81.93,147 81.85,143.92 81.88,140.85C81.91,137.78 82.05,134.7 82.32,131.63C82.6,128.55 83,125.47 83.53,122.41C84.06,119.33 84.75,116.26 85.49,113.2C86.23,110.12 87.15,107.05 87.98,103.98C88.81,100.91 89.76,97.85 90.49,94.76C91.21,91.7 91.94,88.63 92.35,85.54C92.75,82.48 93,79.39 92.94,76.32C92.88,73.24 92.53,70.16 92.01,67.1C91.49,64.01 90.64,60.94 89.8,57.88C88.95,54.79 87.87,51.73 86.91,48.66C85.95,45.59 84.91,42.52 84.03,39.44C83.16,36.38 82.33,33.31 81.65,30.22Q80.98,27.16 79.98,21L76.02,21Q75.02,27.16 74.35,30.22C73.67,33.31 72.84,36.38 71.97,39.44C71.09,42.52 70.05,45.59 69.09,48.66C68.13,51.73 67.05,54.79 66.2,57.88C65.36,60.94 64.51,64.01 63.99,67.1C63.47,70.16 63.12,73.24 63.06,76.32C63,79.39 63.25,82.48 63.65,85.54C64.06,88.63 64.79,91.7 65.51,94.76C66.24,97.85 67.19,100.91 68.02,103.98C68.85,107.05 69.77,110.12 70.51,113.2C71.25,116.26 71.94,119.33 72.47,122.41C73,125.47 73.4,128.55 73.68,131.63C73.95,134.7 74.09,137.78 74.12,140.85C74.15,143.92 74.07,147 73.88,150.07C73.69,153.15 73.39,156.23 72.96,159.29C72.53,162.37 71.99,165.45 71.3,168.51C70.6,171.6 69.77,174.68 68.8,177.73C67.82,180.82 66.67,183.89 65.46,186.95C64.23,190.04 62.83,193.1 61.48,196.17C60.13,199.25 58.64,202.3 57.35,205.39C56.08,208.45 54.77,211.51 53.79,214.61C52.83,217.65 51.98,220.73 51.52,223.83C51.07,226.88 50.9,229.98 51.04,233.05C51.19,236.13 51.71,239.22 52.4,242.27C53.1,245.37 54.16,248.44 55.23,251.49C56.32,254.58 57.64,257.64 58.88,260.71C60.13,263.79 61.48,266.85 62.7,269.93C63.91,272.99 65.12,276.06 66.19,279.15C67.25,282.21 68.24,285.28 69.12,288.37C69.99,291.43 70.77,294.51 71.46,297.59C72.15,300.65 72.73,303.72 73.25,306.8C73.77,309.87 74.2,312.94 74.59,316.02C74.98,319.09 75.3,322.16 75.59,325.24C75.88,328.31 76.1,331.39 76.31,334.46C76.52,337.53 76.69,340.61 76.84,343.68C76.99,346.75 77.11,349.83 77.22,352.9C77.33,355.97 77.41,359.05 77.49,362.12C77.57,365.19 77.63,368.27 77.69,371.34C77.74,374.41 77.78,377.49 77.82,380.56C77.85,383.63 77.88,386.71 77.9,389.78Q77.92,392.85 77.95,399Z" style="vector-effect: non-scaling-stroke; stroke-width: 2px; stroke: rgb(239, 85, 59); stroke-opacity: 1; fill: rgb(239, 85, 59); fill-opacity: 0.5;"/><path class="violin" d="M234.07,334.94Q234.1,331.68 234.13,330.05C234.16,328.42 234.2,326.8 234.24,325.17C234.29,323.54 234.34,321.91 234.4,320.28C234.46,318.65 234.53,317.02 234.61,315.39C234.69,313.76 234.77,312.13 234.86,310.5C234.95,308.87 235.04,307.24 235.13,305.61C235.22,303.98 235.3,302.35 235.38,300.72C235.46,299.09 235.54,297.46 235.61,295.83C235.68,294.2 235.75,292.57 235.82,290.94C235.89,289.31 235.95,287.69 236.04,286.06C236.13,284.43 236.22,282.8 236.36,281.17C236.5,279.54 236.64,277.9 236.89,276.28C237.14,274.64 237.43,273.01 237.84,271.39C238.26,269.75 238.76,268.11 239.4,266.5C240.06,264.85 240.85,263.21 241.78,261.61C242.75,259.94 243.88,258.32 245.11,256.72C246.39,255.05 247.85,253.43 249.35,251.83C250.9,250.17 252.61,248.57 254.29,246.95C256,245.31 257.81,243.7 259.51,242.06C261.19,240.44 262.92,238.84 264.44,237.17C265.9,235.57 267.34,233.97 268.49,232.28C269.57,230.7 270.56,229.07 271.18,227.39C271.77,225.8 272.15,224.14 272.22,222.5C272.29,220.88 272.05,219.21 271.64,217.61C271.22,215.95 270.48,214.32 269.7,212.72C268.89,211.06 267.86,209.45 266.86,207.84C265.84,206.2 264.69,204.58 263.61,202.95C262.53,201.32 261.42,199.7 260.4,198.06C259.39,196.44 258.4,194.82 257.5,193.17C256.62,191.56 255.8,189.93 255.06,188.28C254.34,186.66 253.69,185.03 253.11,183.39C252.53,181.77 252.04,180.14 251.58,178.5C251.12,176.88 250.73,175.24 250.34,173.61C249.96,171.99 249.62,170.36 249.27,168.73C248.92,167.1 248.58,165.47 248.22,163.84C247.86,162.21 247.5,160.58 247.11,158.95C246.72,157.32 246.31,155.69 245.9,154.06C245.48,152.43 245.04,150.8 244.62,149.17C244.2,147.54 243.77,145.91 243.38,144.28C242.99,142.65 242.62,141.02 242.3,139.39C241.98,137.76 241.69,136.13 241.45,134.5C241.21,132.88 241.02,131.25 240.87,129.62C240.72,127.99 240.62,126.36 240.53,124.73C240.44,123.1 240.39,121.47 240.35,119.84C240.31,118.21 240.29,116.58 240.3,114.95C240.31,113.32 240.33,111.69 240.42,110.06C240.51,108.43 240.62,106.79 240.85,105.17C241.08,103.53 241.38,101.9 241.78,100.28C242.19,98.64 242.72,97.01 243.29,95.39C243.87,93.75 244.6,92.14 245.25,90.51C245.91,88.88 246.66,87.27 247.22,85.62C247.77,84 248.33,82.38 248.59,80.73C248.85,79.11 248.96,77.46 248.81,75.84C248.66,74.2 248.22,72.55 247.67,70.95C247.1,69.29 246.25,67.67 245.42,66.06C244.57,64.41 243.52,62.8 242.59,61.17C241.66,59.54 240.67,57.93 239.82,56.28C238.99,54.67 238.19,53.05 237.54,51.4Q236.9,49.79 235.94,46.51L232.06,46.51Q231.1,49.79 230.46,51.4C229.81,53.05 229.01,54.67 228.18,56.28C227.33,57.93 226.34,59.54 225.41,61.17C224.48,62.8 223.43,64.41 222.58,66.06C221.75,67.67 220.9,69.29 220.33,70.95C219.78,72.55 219.34,74.2 219.19,75.84C219.04,77.46 219.15,79.11 219.41,80.73C219.67,82.38 220.23,84 220.78,85.62C221.34,87.27 222.09,88.88 222.75,90.51C223.4,92.14 224.13,93.75 224.71,95.39C225.28,97.01 225.81,98.64 226.22,100.28C226.62,101.9 226.92,103.53 227.15,105.17C227.38,106.79 227.49,108.43 227.58,110.06C227.67,111.69 227.69,113.32 227.7,114.95C227.71,116.58 227.69,118.21 227.65,119.84C227.61,121.47 227.56,123.1 227.47,124.73C227.38,126.36 227.28,127.99 227.13,129.62C226.98,131.25 226.79,132.88 226.55,134.5C226.31,136.13 226.02,137.76 225.7,139.39C225.38,141.02 225.01,142.65 224.62,144.28C224.23,145.91 223.8,147.54 223.38,149.17C222.96,150.8 222.52,152.43 222.1,154.06C221.69,155.69 221.28,157.32 220.89,158.95C220.5,160.58 220.14,162.21 219.78,163.84C219.42,165.47 219.08,167.1 218.73,168.73C218.38,170.36 218.04,171.99 217.66,173.61C217.27,175.24 216.88,176.88 216.42,178.5C215.96,180.14 215.47,181.77 214.89,183.39C214.31,185.03 213.66,186.66 212.94,188.28C212.2,189.93 211.38,191.56 210.5,193.17C209.6,194.82 208.61,196.44 207.6,198.06C206.58,199.7 205.47,201.32 204.39,202.95C203.31,204.58 202.16,206.2 201.14,207.84C200.14,209.45 199.11,211.06 198.3,212.72C197.52,214.32 196.78,215.95 196.36,217.61C195.95,219.21 195.71,220.88 195.78,222.5C195.85,224.14 196.23,225.8 196.82,227.39C197.44,229.07 198.43,230.7 199.51,232.28C200.66,233.97 202.1,235.57 203.56,237.17C205.08,238.84 206.81,240.44 208.49,242.06C210.19,243.7 212,245.31 213.71,246.95C215.39,248.57 217.1,250.17 218.65,251.83C220.15,253.43 221.61,255.05 222.89,256.72C224.12,258.32 225.25,259.94 226.22,261.61C227.15,263.21 227.94,264.85 228.6,266.5C229.24,268.11 229.74,269.75 230.16,271.39C230.57,273.01 230.86,274.64 231.11,276.28C231.36,277.9 231.5,279.54 231.64,281.17C231.78,282.8 231.87,284.43 231.96,286.06C232.05,287.69 232.11,289.31 232.18,290.94C232.25,292.57 232.32,294.2 232.39,295.83C232.46,297.46 232.54,299.09 232.62,300.72C232.7,302.35 232.78,303.98 232.87,305.61C232.96,307.24 233.05,308.87 233.14,310.5C233.23,312.13 233.31,313.76 233.39,315.39C233.47,317.02 233.54,318.65 233.6,320.28C233.66,321.91 233.71,323.54 233.76,325.17C233.8,326.8 233.84,328.42 233.87,330.05Q233.9,331.68 233.93,334.94Z" style="vector-effect: non-scaling-stroke; stroke-width: 2px; stroke: rgb(239, 85, 59); stroke-opacity: 1; fill: rgb(239, 85, 59); fill-opacity: 0.5;"/><path class="violin" d="M390.14,306.63Q390.22,302.1 390.27,299.84C390.33,297.58 390.39,295.31 390.47,293.05C390.55,290.79 390.65,288.52 390.76,286.26C390.87,284 390.99,281.73 391.12,279.47C391.26,277.21 391.41,274.94 391.57,272.68C391.73,270.42 391.91,268.15 392.1,265.89C392.29,263.63 392.49,261.36 392.73,259.1C392.97,256.84 393.23,254.57 393.53,252.31C393.84,250.04 394.17,247.78 394.56,245.52C394.95,243.25 395.38,240.99 395.86,238.73C396.34,236.46 396.88,234.2 397.43,231.94C397.98,229.67 398.58,227.41 399.16,225.15C399.75,222.89 400.36,220.63 400.94,218.36C401.51,216.1 402.08,213.84 402.61,211.57C403.14,209.31 403.65,207.05 404.11,204.78C404.57,202.52 404.99,200.26 405.38,197.99C405.77,195.73 406.13,193.47 406.45,191.2C406.77,188.94 407.06,186.68 407.32,184.41C407.58,182.15 407.8,179.88 407.99,177.62C408.18,175.36 408.34,173.09 408.45,170.83C408.56,168.57 408.64,166.3 408.67,164.04C408.7,161.78 408.69,159.51 408.64,157.25C408.59,154.99 408.49,152.72 408.35,150.46C408.21,148.2 408.03,145.93 407.82,143.67C407.61,141.41 407.34,139.14 407.1,136.88C406.86,134.62 406.57,132.36 406.38,130.09C406.19,127.83 405.99,125.56 405.97,123.3C405.95,121.04 405.99,118.76 406.28,116.51C406.57,114.24 407.04,111.96 407.7,109.72C408.38,107.43 409.33,105.17 410.33,102.93C411.36,100.64 412.65,98.4 413.81,96.14C414.97,93.88 416.31,91.65 417.27,89.35C418.2,87.12 419.14,84.85 419.51,82.56C419.87,80.33 419.93,78 419.53,75.77C419.12,73.47 418.13,71.18 416.99,68.98C415.78,66.64 414.04,64.41 412.37,62.19C410.63,59.88 408.58,57.67 406.73,55.4C404.89,53.14 402.95,50.91 401.28,48.61C399.67,46.39 398.12,44.13 396.84,41.82Q395.62,39.6 393.73,35.03L386.27,35.03Q384.38,39.6 383.16,41.82C381.88,44.13 380.33,46.39 378.72,48.61C377.05,50.91 375.11,53.14 373.27,55.4C371.42,57.67 369.37,59.88 367.63,62.19C365.96,64.41 364.22,66.64 363.01,68.98C361.87,71.18 360.88,73.47 360.47,75.77C360.07,78 360.13,80.33 360.49,82.56C360.86,84.85 361.8,87.12 362.73,89.35C363.69,91.65 365.03,93.88 366.19,96.14C367.35,98.4 368.64,100.64 369.67,102.93C370.67,105.17 371.62,107.43 372.3,109.72C372.96,111.96 373.43,114.24 373.72,116.51C374.01,118.76 374.05,121.04 374.03,123.3C374.01,125.56 373.81,127.83 373.62,130.09C373.43,132.36 373.14,134.62 372.9,136.88C372.66,139.14 372.39,141.41 372.18,143.67C371.97,145.93 371.79,148.2 371.65,150.46C371.51,152.72 371.41,154.99 371.36,157.25C371.31,159.51 371.3,161.78 371.33,164.04C371.36,166.3 371.44,168.57 371.55,170.83C371.66,173.09 371.82,175.36 372.01,177.62C372.2,179.88 372.42,182.15 372.68,184.41C372.94,186.68 373.23,188.94 373.55,191.2C373.87,193.47 374.23,195.73 374.62,197.99C375.01,200.26 375.43,202.52 375.89,204.78C376.35,207.05 376.86,209.31 377.39,211.57C377.92,213.84 378.49,216.1 379.06,218.36C379.64,220.63 380.25,222.89 380.84,225.15C381.42,227.41 382.02,229.67 382.57,231.94C383.12,234.2 383.66,236.46 384.14,238.73C384.62,240.99 385.05,243.25 385.44,245.52C385.83,247.78 386.16,250.04 386.47,252.31C386.77,254.57 387.03,256.84 387.27,259.1C387.51,261.36 387.71,263.63 387.9,265.89C388.09,268.15 388.27,270.42 388.43,272.68C388.59,274.94 388.74,277.21 388.88,279.47C389.01,281.73 389.13,284 389.24,286.26C389.35,288.52 389.45,290.79 389.53,293.05C389.61,295.31 389.67,297.58 389.73,299.84Q389.78,302.1 389.86,306.63Z" style="vector-effect: non-scaling-stroke; stroke-width: 2px; stroke: rgb(239, 85, 59); stroke-opacity: 1; fill: rgb(239, 85, 59); fill-opacity: 0.5;"/><path class="box" d="M68.44,221.06H87.55M68.44,237.56H87.55V76.33H68.44ZM78,237.56V343.67M78,76.33V76.33" style="vector-effect: non-scaling-stroke; stroke-width: 2px; stroke: rgb(239, 85, 59); stroke-opacity: 1; fill: rgb(239, 85, 59); fill-opacity: 0.5;"/><path class="box" d="M224.44,204.74H243.55M224.44,225.42H243.55V153.39H224.44ZM234,225.42V305.12M234,153.39V76.33" style="vector-effect: non-scaling-stroke; stroke-width: 2px; stroke: rgb(239, 85, 59); stroke-opacity: 1; fill: rgb(239, 85, 59); fill-opacity: 0.5;"/><path class="box" d="M380.44,132.9H399.55M380.44,177.5H399.55V76.33H380.44ZM390,177.5V265.33M390,76.33V76.33" style="vector-effect: non-scaling-stroke; stroke-width: 2px; stroke: rgb(239, 85, 59); stroke-opacity: 1; fill: rgb(239, 85, 59); fill-opacity: 0.5;"/><path class="mean" d="M68.44,187.94H87.55" style="fill: none; vector-effect: non-scaling-stroke; stroke-width: 2px; stroke-dasharray: 4px, 2px; stroke: rgb(239, 85, 59); stroke-opacity: 1;"/><path class="mean" d="M224.44,184.25H243.55" style="fill: none; vector-effect: non-scaling-stroke; stroke-width: 2px; stroke-dasharray: 4px, 2px; stroke: rgb(239, 85, 59); stroke-opacity: 1;"/><path class="mean" d="M380.44,132.42H399.55" style="fill: none; vector-effect: non-scaling-stroke; stroke-width: 2px; stroke-dasharray: 4px, 2px; stroke: rgb(239, 85, 59); stroke-opacity: 1;"/></g></g></g><g class="overplot"/><path class="xlines-above crisp" d="M0,0" style="fill: none;"/><path class="ylines-above crisp" d="M0,0" style="fill: none;"/><g class="overlines-above"/><g class="xaxislayer-above"><g class="x2tick"><text text-anchor="middle" x="0" y="533" transform="translate(730,0)" style="font-family: 'Open Sans', verdana, arial, sans-serif; font-size: 12px; fill: rgb(42, 63, 95); fill-opacity: 1; white-space: pre; opacity: 1;">&#60;=1</text></g><g class="x2tick"><text text-anchor="middle" x="0" y="533" transform="translate(886,0)" style="font-family: 'Open Sans', verdana, arial, sans-serif; font-size: 12px; fill: rgb(42, 63, 95); fill-opacity: 1; white-space: pre; opacity: 1;">(1, 2]</text></g><g class="x2tick"><text text-anchor="middle" x="0" y="533" transform="translate(1042,0)" style="font-family: 'Open Sans', verdana, arial, sans-serif; font-size: 12px; fill: rgb(42, 63, 95); fill-opacity: 1; white-space: pre; opacity: 1;">>2</text></g></g><g class="yaxislayer-above"><g class="y2tick"><text text-anchor="end" x="651" y="4.199999999999999" transform="translate(0,509.75)" style="font-family: 'Open Sans', verdana, arial, sans-serif; font-size: 12px; fill: rgb(42, 63, 95); fill-opacity: 1; white-space: pre; opacity: 1;">0</text></g><g class="y2tick"><text text-anchor="end" x="651" y="4.199999999999999" style="font-family: 'Open Sans', verdana, arial, sans-serif; font-size: 12px; fill: rgb(42, 63, 95); fill-opacity: 1; white-space: pre; opacity: 1;" transform="translate(0,443.06)">0.2</text></g><g class="y2tick"><text text-anchor="end" x="651" y="4.199999999999999" style="font-family: 'Open Sans', verdana, arial, sans-serif; font-size: 12px; fill: rgb(42, 63, 95); fill-opacity: 1; white-space: pre; opacity: 1;" transform="translate(0,376.38)">0.4</text></g><g class="y2tick"><text text-anchor="end" x="651" y="4.199999999999999" style="font-family: 'Open Sans', verdana, arial, sans-serif; font-size: 12px; fill: rgb(42, 63, 95); fill-opacity: 1; white-space: pre; opacity: 1;" transform="translate(0,309.7)">0.6</text></g><g class="y2tick"><text text-anchor="end" x="651" y="4.199999999999999" style="font-family: 'Open Sans', verdana, arial, sans-serif; font-size: 12px; fill: rgb(42, 63, 95); fill-opacity: 1; white-space: pre; opacity: 1;" transform="translate(0,243.01)">0.8</text></g><g class="y2tick"><text text-anchor="end" x="651" y="4.199999999999999" style="font-family: 'Open Sans', verdana, arial, sans-serif; font-size: 12px; fill: rgb(42, 63, 95); fill-opacity: 1; white-space: pre; opacity: 1;" transform="translate(0,176.32999999999998)">1</text></g><g class="y2tick"><text text-anchor="end" x="651" y="4.199999999999999" style="font-family: 'Open Sans', verdana, arial, sans-serif; font-size: 12px; fill: rgb(42, 63, 95); fill-opacity: 1; white-space: pre; opacity: 1;" transform="translate(0,109.65)">1.2</text></g></g><g class="overaxes-above"/></g></g><g class="polarlayer"/><g class="smithlayer"/><g class="ternarylayer"/><g class="geolayer"/><g class="funnelarealayer"/><g class="pielayer"/><g class="iciclelayer"/><g class="treemaplayer"/><g class="sunburstlayer"/><g class="glimages"/><defs id="topdefs-d1592d"><g class="clips"/></defs><g class="layer-above"><g class="imagelayer"/><g class="shapelayer"/></g><g class="infolayer"><g class="g-gtitle"><text class="gtitle" x="60" y="50" text-anchor="start" dy="0em" style="font-family: 'Open Sans', verdana, arial, sans-serif; font-size: 17px; fill: rgb(42, 63, 95); opacity: 1; font-weight: normal; white-space: pre;">discount_rate Distributions</text></g><g class="g-xtitle"><text class="xtitle" x="314" y="561.8" text-anchor="middle" style="font-family: 'Open Sans', verdana, arial, sans-serif; font-size: 14px; fill: rgb(42, 63, 95); opacity: 1; font-weight: normal; white-space: pre;">Hardcover over Paperback</text></g><g class="g-x2title"><text class="x2title" x="886" y="561.8" text-anchor="middle" style="font-family: 'Open Sans', verdana, arial, sans-serif; font-size: 14px; fill: rgb(42, 63, 95); opacity: 1; font-weight: normal; white-space: pre;">Hardcover over Paperback</text></g><g class="g-ytitle"><text class="ytitle" transform="rotate(-90,37.325,310)" x="37.325" y="310" text-anchor="middle" style="font-family: 'Open Sans', verdana, arial, sans-serif; font-size: 14px; fill: rgb(42, 63, 95); opacity: 1; font-weight: normal; white-space: pre;">discount_rate</text></g><g class="g-y2title"><text class="y2title" transform="rotate(-90,609.325,310)" x="609.325" y="310" text-anchor="middle" style="font-family: 'Open Sans', verdana, arial, sans-serif; font-size: 14px; fill: rgb(42, 63, 95); opacity: 1; font-weight: normal; white-space: pre;">discount_rate</text></g><g class="annotation" data-index="0" style="opacity: 1;"><g class="annotation-text-g" transform="rotate(0,314,87)"><g class="cursor-pointer" transform="translate(273,74)"><rect class="bg" x="0.5" y="0.5" width="82" height="25" style="stroke-width: 1px; stroke: rgb(0, 0, 0); stroke-opacity: 0; fill: rgb(0, 0, 0); fill-opacity: 0;"/><text class="annotation-text" text-anchor="middle" x="41.296875" y="19" style="font-family: 'Open Sans', verdana, arial, sans-serif; font-size: 16px; fill: rgb(42, 63, 95); fill-opacity: 1; white-space: pre;">Paperback</text></g></g></g><g class="annotation" data-index="1" style="opacity: 1;"><g class="annotation-text-g" transform="rotate(0,886,87)"><g class="cursor-pointer" transform="translate(845,74)"><rect class="bg" x="0.5" y="0.5" width="81" height="25" style="stroke-width: 1px; stroke: rgb(0, 0, 0); stroke-opacity: 0; fill: rgb(0, 0, 0); fill-opacity: 0;"/><text class="annotation-text" text-anchor="middle" x="40.921875" y="19" style="font-family: 'Open Sans', verdana, arial, sans-serif; font-size: 16px; fill: rgb(42, 63, 95); fill-opacity: 1; white-space: pre;">Hardcover</text></g></g></g></g></svg>