<svg class="main-svg" xmlns="http://www.w3.org/2000/svg" xmlns:xlink="http://www.w3.org/1999/xlink" width="1200" height="600" style="" viewBox="0 0 1200 600"><rect x="0" y="0" width="1200" height="600" style="fill: rgb(255, 255, 255); fill-opacity: 1;"/><defs id="defs-7535ad"><g class="clips"><clipPath id="clip7535adxyplot" class="plotclip"><rect width="468" height="420"/></clipPath><clipPath id="clip7535adx2y2plot" class="plotclip"><rect width="467.99999999999994" height="420"/></clipPath><clipPath class="axesclip" id="clip7535adx"><rect x="80" y="0" width="468" height="600"/></clipPath><clipPath class="axesclip" id="clip7535ady"><rect x="0" y="100" width="1200" height="420"/></clipPath><clipPath class="axesclip" id="clip7535adxy"><rect x="80" y="100" width="468" height="420"/></clipPath><clipPath class="axesclip" id="clip7535ady2"><rect x="0" y="100" width="1200" height="420"/></clipPath><clipPath class="axesclip" id="clip7535adxy2"><rect x="80" y="100" width="468" height="420"/></clipPath><clipPath class="axesclip" id="clip7535adx2"><rect x="652" y="0" width="467.99999999999994" height="600"/></clipPath><clipPath class="axesclip" id="clip7535adx2y"><rect x="652" y="100" width="467.99999999999994" height="420"/></clipPath><clipPath class="axesclip" id="clip7535adx2y2"><rect x="652" y="100" width="467.99999999999994" height="420"/></clipPath></g><g class="gradients"/><g class="patterns"/></defs><g class="bglayer"><rect class="bg" x="80" y="100" width="468" height="420" style="fill: rgb(229, 236, 246); fill-opacity: 1; stroke-width: 0;"/><rect class="bg" x="652" y="100" width="467.99999999999994" height="420" style="fill: rgb(229, 236, 246); fill-opacity: 1; stroke-width: 0;"/></g><g class="layer-below"><g class="imagelayer"/><g class="shapelayer"/></g><g class="cartesianlayer"><g class="subplot xy"><g class="layer-subplot"><g class="shapelayer"/><g class="imagelayer"/></g><g class="minor-gridlayer"><g class="x"/><g class="y"/></g><g class="gridlayer"><g class="x"/><g class="y"><path class="ygrid crisp" transform="translate(0,510.34)" d="M80,0h468" style="stroke: rgb(255, 255, 255); stroke-opacity: 1; stroke-width: 1px;"/><path class="ygrid crisp" transform="translate(0,420.36)" d="M80,0h468" style="stroke: rgb(255, 255, 255); stroke-opacity: 1; stroke-width: 1px;"/><path class="ygrid crisp" transform="translate(0,375.37)" d="M80,0h468" style="stroke: rgb(255, 255, 255); stroke-opacity: 1; stroke-width: 1px;"/><path class="ygrid crisp" transform="translate(0,330.38)" d="M80,0h468" style="stroke: rgb(255, 255, 255); stroke-opacity: 1; stroke-width: 1px;"/><path class="ygrid crisp" transform="translate(0,285.39)" d="M80,0h468" style="stroke: rgb(255, 255, 255); stroke-opacity: 1; stroke-width: 1px;"/><path class="ygrid crisp" transform="translate(0,240.4)" d="M80,0h468" style="stroke: rgb(255, 255, 255); stroke-opacity: 1; stroke-width: 1px;"/><path class="ygrid crisp" transform="translate(0,195.41)" d="M80,0h468" style="stroke: rgb(255, 255, 255); stroke-opacity: 1; stroke-width: 1px;"/><path class="ygrid crisp" transform="translate(0,150.42000000000002)" d="M80,0h468" style="stroke: rgb(255, 255, 255); stroke-opacity: 1; stroke-width: 1px;"/><path class="ygrid crisp" transform="translate(0,105.43)" d="M80,0h468" style="stroke: rgb(255, 255, 255); stroke-opacity: 1; stroke-width: 1px;"/></g></g><g class="zerolinelayer"><path class="yzl zl crisp" transform="translate(0,465.35)" d="M80,0h468" style="stroke: rgb(255, 255, 255); stroke-opacity: 1; stroke-width: 2px;"/></g><path class="xlines-below"/><path class="ylines-below"/><g class="overlines-below"/><g class="xaxislayer-below"/><g class="yaxislayer-below"/><g class="overaxes-below"/><g class="plot" transform="translate(80,100)" clip-path="url(#clip7535adxyplot)"><g class="violinlayer mlayer"><g class="trace violins" style="opacity: 1;"><path class="violin" d="M78.4,330.6Q78.62,327.49 78.8,325.94C78.98,324.38 79.19,322.82 79.46,321.27C79.74,319.71 80.06,318.15 80.45,316.6C80.84,315.04 81.3,313.48 81.79,311.93C82.29,310.37 82.85,308.82 83.43,307.27C84.01,305.71 84.64,304.15 85.27,302.6C85.9,301.04 86.56,299.49 87.2,297.93C87.84,296.38 88.5,294.83 89.11,293.27C89.72,291.72 90.32,290.16 90.88,288.6C91.44,287.05 91.97,285.49 92.46,283.93C92.94,282.38 93.39,280.82 93.79,279.26C94.19,277.71 94.54,276.16 94.86,274.6C95.18,273.05 95.45,271.49 95.73,269.93C96,268.37 96.24,266.82 96.51,265.26C96.78,263.7 97.05,262.14 97.36,260.59C97.67,259.03 98,257.48 98.36,255.93C98.73,254.37 99.13,252.81 99.55,251.26C99.97,249.7 100.43,248.14 100.9,246.59C101.37,245.03 101.87,243.48 102.35,241.93C102.84,240.37 103.33,238.82 103.81,237.26C104.29,235.7 104.77,234.15 105.23,232.59C105.69,231.04 106.12,229.48 106.55,227.92C106.98,226.37 107.38,224.81 107.81,223.26C108.24,221.7 108.65,220.14 109.12,218.59C109.59,217.03 110.09,215.47 110.62,213.92C111.16,212.36 111.75,210.8 112.33,209.25C112.91,207.69 113.56,206.15 114.1,204.59C114.64,203.04 115.22,201.49 115.57,199.92C115.92,198.38 116.22,196.81 116.22,195.25C116.22,193.7 116.02,192.11 115.56,190.59C115.08,189 114.28,187.43 113.34,185.92C112.34,184.3 111.01,182.77 109.65,181.25C108.21,179.65 106.54,178.12 104.9,176.58C103.22,175.01 101.41,173.48 99.69,171.92C97.97,170.37 96.21,168.83 94.58,167.25C92.99,165.72 91.43,164.17 90.01,162.58C88.65,161.05 87.35,159.5 86.21,157.91C85.11,156.39 84.11,154.83 83.26,153.25C82.44,151.72 81.74,150.16 81.15,148.58C80.57,147.04 80.12,145.48 79.74,143.91Q79.37,142.37 78.88,139.25L77.12,139.25Q76.63,142.37 76.26,143.91C75.88,145.48 75.43,147.04 74.85,148.58C74.26,150.16 73.56,151.72 72.74,153.25C71.89,154.83 70.89,156.39 69.79,157.91C68.65,159.5 67.35,161.05 65.99,162.58C64.57,164.17 63.01,165.72 61.42,167.25C59.79,168.83 58.03,170.37 56.31,171.92C54.59,173.48 52.78,175.01 51.1,176.58C49.46,178.12 47.79,179.65 46.35,181.25C44.99,182.77 43.66,184.3 42.66,185.92C41.72,187.43 40.92,189 40.44,190.59C39.98,192.11 39.78,193.7 39.78,195.25C39.78,196.81 40.08,198.38 40.43,199.92C40.78,201.49 41.36,203.04 41.9,204.59C42.44,206.15 43.09,207.69 43.67,209.25C44.25,210.8 44.84,212.36 45.38,213.92C45.91,215.47 46.41,217.03 46.88,218.59C47.35,220.14 47.76,221.7 48.19,223.26C48.62,224.81 49.02,226.37 49.45,227.92C49.88,229.48 50.31,231.04 50.77,232.59C51.23,234.15 51.71,235.7 52.19,237.26C52.67,238.82 53.16,240.37 53.65,241.93C54.13,243.48 54.63,245.03 55.1,246.59C55.57,248.14 56.03,249.7 56.45,251.26C56.87,252.81 57.27,254.37 57.64,255.93C58,257.48 58.33,259.03 58.64,260.59C58.95,262.14 59.22,263.7 59.49,265.26C59.76,266.82 60,268.37 60.27,269.93C60.55,271.49 60.82,273.05 61.14,274.6C61.46,276.16 61.81,277.71 62.21,279.26C62.61,280.82 63.06,282.38 63.54,283.93C64.03,285.49 64.56,287.05 65.12,288.6C65.68,290.16 66.28,291.72 66.89,293.27C67.5,294.83 68.16,296.38 68.8,297.93C69.44,299.49 70.1,301.04 70.73,302.6C71.36,304.15 71.99,305.71 72.57,307.27C73.15,308.82 73.71,310.37 74.21,311.93C74.7,313.48 75.16,315.04 75.55,316.6C75.94,318.15 76.26,319.71 76.54,321.27C76.81,322.82 77.02,324.38 77.2,325.94Q77.38,327.49 77.6,330.6Z" style="vector-effect: non-scaling-stroke; stroke-width: 2px; stroke: rgb(99, 110, 250); stroke-opacity: 1; fill: rgb(99, 110, 250); fill-opacity: 0.5;"/><path class="violin" d="M234.07,353.13Q234.12,350.55 234.15,349.26C234.19,347.97 234.22,346.67 234.28,345.38C234.34,344.09 234.4,342.8 234.49,341.51C234.58,340.22 234.68,338.93 234.8,337.64C234.92,336.35 235.06,335.06 235.21,333.77C235.37,332.48 235.54,331.19 235.73,329.9C235.92,328.61 236.13,327.32 236.37,326.03C236.61,324.74 236.86,323.45 237.15,322.16C237.44,320.87 237.76,319.57 238.13,318.29C238.51,316.99 238.9,315.69 239.4,314.41C239.91,313.1 240.48,311.81 241.16,310.54C241.87,309.23 242.68,307.93 243.61,306.67C244.59,305.34 245.7,304.05 246.91,302.8C248.19,301.47 249.63,300.19 251.11,298.93C252.65,297.61 254.34,296.34 255.99,295.06C257.66,293.76 259.44,292.5 261.07,291.19C262.65,289.92 264.28,288.66 265.63,287.31C266.87,286.07 268.11,284.8 268.92,283.44C269.65,282.21 270.25,280.88 270.42,279.57C270.59,278.3 270.38,276.96 270.01,275.7C269.62,274.37 268.82,273.09 268.05,271.83C267.24,270.51 266.17,269.25 265.21,267.96C264.24,266.67 263.18,265.4 262.26,264.09C261.37,262.82 260.49,261.53 259.76,260.22C259.05,258.95 258.45,257.65 257.91,256.34C257.38,255.06 256.98,253.76 256.56,252.47C256.14,251.18 255.79,249.89 255.38,248.6C254.97,247.31 254.56,246.02 254.12,244.73C253.68,243.44 253.18,242.15 252.72,240.86C252.26,239.57 251.77,238.29 251.38,236.99C251,235.71 250.62,234.42 250.4,233.12C250.18,231.84 250.04,230.53 250.06,229.24C250.08,227.95 250.25,226.64 250.55,225.37C250.86,224.06 251.34,222.77 251.92,221.5C252.52,220.18 253.29,218.9 254.1,217.63C254.94,216.32 255.93,215.04 256.91,213.76C257.92,212.46 259.03,211.18 260.08,209.89C261.13,208.6 262.25,207.33 263.23,206.02C264.18,204.75 265.15,203.47 265.88,202.14C266.58,200.88 267.24,199.59 267.57,198.27C267.89,197.01 268.04,195.68 267.9,194.4C267.75,193.1 267.29,191.77 266.67,190.53C266,189.19 264.98,187.91 263.93,186.66C262.8,185.32 261.41,184.05 260.04,182.79C258.61,181.47 257.03,180.21 255.51,178.92C253.99,177.63 252.4,176.36 250.92,175.05C249.48,173.77 248.05,172.49 246.74,171.17C245.49,169.9 244.29,168.62 243.21,167.3C242.18,166.04 241.24,164.75 240.4,163.43C239.59,162.16 238.88,160.87 238.26,159.56C237.65,158.29 237.14,156.99 236.69,155.69C236.25,154.41 235.9,153.12 235.6,151.82C235.3,150.54 235.07,149.24 234.88,147.95Q234.69,146.66 234.44,144.07L233.56,144.07Q233.31,146.66 233.12,147.95C232.93,149.24 232.7,150.54 232.4,151.82C232.1,153.12 231.75,154.41 231.31,155.69C230.86,156.99 230.35,158.29 229.74,159.56C229.12,160.87 228.41,162.16 227.6,163.43C226.76,164.75 225.82,166.04 224.79,167.3C223.71,168.62 222.51,169.9 221.26,171.17C219.95,172.49 218.52,173.77 217.08,175.05C215.6,176.36 214.01,177.63 212.49,178.92C210.97,180.21 209.39,181.47 207.96,182.79C206.59,184.05 205.2,185.32 204.07,186.66C203.02,187.91 202,189.19 201.33,190.53C200.71,191.77 200.25,193.1 200.1,194.4C199.96,195.68 200.11,197.01 200.43,198.27C200.76,199.59 201.42,200.88 202.12,202.14C202.85,203.47 203.82,204.75 204.77,206.02C205.75,207.33 206.87,208.6 207.92,209.89C208.97,211.18 210.08,212.46 211.09,213.76C212.07,215.04 213.06,216.32 213.9,217.63C214.71,218.9 215.48,220.18 216.08,221.5C216.66,222.77 217.14,224.06 217.45,225.37C217.75,226.64 217.92,227.95 217.94,229.24C217.96,230.53 217.82,231.84 217.6,233.12C217.38,234.42 217,235.71 216.62,236.99C216.23,238.29 215.74,239.57 215.28,240.86C214.82,242.15 214.32,243.44 213.88,244.73C213.44,246.02 213.03,247.31 212.62,248.6C212.21,249.89 211.86,251.18 211.44,252.47C211.02,253.76 210.62,255.06 210.09,256.34C209.55,257.65 208.95,258.95 208.24,260.22C207.51,261.53 206.63,262.82 205.74,264.09C204.82,265.4 203.76,266.67 202.79,267.96C201.83,269.25 200.76,270.51 199.95,271.83C199.18,273.09 198.38,274.37 197.99,275.7C197.62,276.96 197.41,278.3 197.58,279.57C197.75,280.88 198.35,282.21 199.08,283.44C199.89,284.8 201.13,286.07 202.37,287.31C203.72,288.66 205.35,289.92 206.93,291.19C208.56,292.5 210.34,293.76 212.01,295.06C213.66,296.34 215.35,297.61 216.89,298.93C218.37,300.19 219.81,301.47 221.09,302.8C222.3,304.05 223.41,305.34 224.39,306.67C225.32,307.93 226.13,309.23 226.84,310.54C227.52,311.81 228.09,313.1 228.6,314.41C229.1,315.69 229.49,316.99 229.87,318.29C230.24,319.57 230.56,320.87 230.85,322.16C231.14,323.45 231.39,324.74 231.63,326.03C231.87,327.32 232.08,328.61 232.27,329.9C232.46,331.19 232.63,332.48 232.79,333.77C232.94,335.06 233.08,336.35 233.2,337.64C233.32,338.93 233.42,340.22 233.51,341.51C233.6,342.8 233.66,344.09 233.72,345.38C233.78,346.67 233.81,347.97 233.85,349.26Q233.88,350.55 233.93,353.13Z" style="vector-effect: non-scaling-stroke; stroke-width: 2px; stroke: rgb(99, 110, 250); stroke-opacity: 1; fill: rgb(99, 110, 250); fill-opacity: 0.5;"/><path class="violin" d="M390.13,390.14Q390.21,386.12 390.27,384.11C390.33,382.1 390.41,380.09 390.51,378.08C390.61,376.07 390.73,374.07 390.88,372.06C391.03,370.05 391.2,368.04 391.42,366.03C391.64,364.02 391.88,362.01 392.19,360C392.5,357.99 392.84,355.97 393.26,353.97C393.69,351.95 394.16,349.94 394.74,347.94C395.33,345.92 396,343.9 396.8,341.91C397.61,339.88 398.54,337.86 399.59,335.88C400.67,333.84 401.9,331.83 403.21,329.85C404.56,327.81 406.06,325.82 407.57,323.83C409.11,321.8 410.77,319.81 412.36,317.8C413.95,315.79 415.61,313.81 417.1,311.77C418.55,309.78 420.02,307.79 421.21,305.74C422.35,303.77 423.42,301.76 424.15,299.71C424.85,297.74 425.37,295.7 425.55,293.68C425.73,291.68 425.61,289.64 425.26,287.65C424.9,285.62 424.19,283.59 423.38,281.62C422.54,279.58 421.41,277.58 420.28,275.6C419.13,273.57 417.78,271.58 416.52,269.57C415.26,267.56 413.91,265.57 412.7,263.54C411.51,261.55 410.33,259.54 409.31,257.51C408.31,255.52 407.4,253.51 406.62,251.48C405.86,249.49 405.21,247.47 404.67,245.45C404.13,243.45 403.72,241.44 403.37,239.42C403.03,237.42 402.77,235.4 402.59,233.39C402.41,231.39 402.31,229.38 402.27,227.37C402.23,225.36 402.27,223.35 402.36,221.34C402.45,219.33 402.64,217.32 402.84,215.31C403.04,213.3 403.32,211.29 403.56,209.28C403.81,207.27 404.1,205.26 404.31,203.25C404.52,201.24 404.72,199.23 404.8,197.22C404.88,195.21 404.9,193.2 404.79,191.19C404.68,189.18 404.45,187.16 404.12,185.16C403.79,183.14 403.33,181.13 402.81,179.13C402.28,177.11 401.63,175.11 400.98,173.11C400.32,171.09 399.59,169.09 398.88,167.08C398.17,165.07 397.42,163.06 396.73,161.05C396.05,159.04 395.37,157.04 394.77,155.02C394.17,153.02 393.62,151.01 393.14,148.99C392.67,146.99 392.26,144.98 391.91,142.96C391.57,140.96 391.3,138.94 391.07,136.93Q390.84,134.92 390.55,130.9L389.45,130.9Q389.16,134.92 388.93,136.93C388.7,138.94 388.43,140.96 388.09,142.96C387.74,144.98 387.33,146.99 386.86,148.99C386.38,151.01 385.83,153.02 385.23,155.02C384.63,157.04 383.95,159.04 383.27,161.05C382.58,163.06 381.83,165.07 381.12,167.08C380.41,169.09 379.68,171.09 379.02,173.11C378.37,175.11 377.72,177.11 377.19,179.13C376.67,181.13 376.21,183.14 375.88,185.16C375.55,187.16 375.32,189.18 375.21,191.19C375.1,193.2 375.12,195.21 375.2,197.22C375.28,199.23 375.48,201.24 375.69,203.25C375.9,205.26 376.19,207.27 376.44,209.28C376.68,211.29 376.96,213.3 377.16,215.31C377.36,217.32 377.55,219.33 377.64,221.34C377.73,223.35 377.77,225.36 377.73,227.37C377.69,229.38 377.59,231.39 377.41,233.39C377.23,235.4 376.97,237.42 376.63,239.42C376.28,241.44 375.87,243.45 375.33,245.45C374.79,247.47 374.14,249.49 373.38,251.48C372.6,253.51 371.69,255.52 370.69,257.51C369.67,259.54 368.49,261.55 367.3,263.54C366.09,265.57 364.74,267.56 363.48,269.57C362.22,271.58 360.87,273.57 359.72,275.6C358.59,277.58 357.46,279.58 356.62,281.62C355.81,283.59 355.1,285.62 354.74,287.65C354.39,289.64 354.27,291.68 354.45,293.68C354.63,295.7 355.15,297.74 355.85,299.71C356.58,301.76 357.65,303.77 358.79,305.74C359.98,307.79 361.45,309.78 362.9,311.77C364.39,313.81 366.05,315.79 367.64,317.8C369.23,319.81 370.89,321.8 372.43,323.83C373.94,325.82 375.44,327.81 376.79,329.85C378.1,331.83 379.33,333.84 380.41,335.88C381.46,337.86 382.39,339.88 383.2,341.91C384,343.9 384.67,345.92 385.26,347.94C385.84,349.94 386.31,351.95 386.74,353.97C387.16,355.97 387.5,357.99 387.81,360C388.12,362.01 388.36,364.02 388.58,366.03C388.8,368.04 388.97,370.05 389.12,372.06C389.27,374.07 389.39,376.07 389.49,378.08C389.59,380.09 389.67,382.1 389.73,384.11Q389.79,386.12 389.87,390.14Z" style="vector-effect: non-scaling-stroke; stroke-width: 2px; stroke: rgb(99, 110, 250); stroke-opacity: 1; fill: rgb(99, 110, 250); fill-opacity: 0.5;"/><path class="box" d="M68.45,215.76H87.56M68.45,248.65H87.56V192.5H68.45ZM78,248.65V302.45M78,192.5V167.39" style="vector-effect: non-scaling-stroke; stroke-width: 2px; stroke: rgb(99, 110, 250); stroke-opacity: 1; fill: rgb(99, 110, 250); fill-opacity: 0.5;"/><path class="box" d="M224.45,246.4H243.56M224.45,275.46H243.56V199.7H224.45ZM234,275.46V329.81M234,199.7V167.39" style="vector-effect: non-scaling-stroke; stroke-width: 2px; stroke: rgb(99, 110, 250); stroke-opacity: 1; fill: rgb(99, 110, 250); fill-opacity: 0.5;"/><path class="box" d="M380.45,284.46H399.55M380.45,302.45H399.55V230.38H380.45ZM390,302.45V353.65M390,230.38V167.39" style="vector-effect: non-scaling-stroke; stroke-width: 2px; stroke: rgb(99, 110, 250); stroke-opacity: 1; fill: rgb(99, 110, 250); fill-opacity: 0.5;"/><path class="mean" d="M68.45,222.35H87.56" style="fill: none; vector-effect: non-scaling-stroke; stroke-width: 2px; stroke-dasharray: 4px, 2px; stroke: rgb(99, 110, 250); stroke-opacity: 1;"/><path class="mean" d="M224.45,239.09H243.56" style="fill: none; vector-effect: non-scaling-stroke; stroke-width: 2px; stroke-dasharray: 4px, 2px; stroke: rgb(99, 110, 250); stroke-opacity: 1;"/><path class="mean" d="M380.45,263.42H399.55" style="fill: none; vector-effect: non-scaling-stroke; stroke-width: 2px; stroke-dasharray: 4px, 2px; stroke: rgb(99, 110, 250); stroke-opacity: 1;"/></g></g></g><g class="overplot"/><path class="xlines-above crisp" d="M0,0" style="fill: none;"/><path class="ylines-above crisp" d="M0,0" style="fill: none;"/><g class="overlines-above"/><g class="xaxislayer-above"><g class="xtick"><text text-anchor="middle" x="0" y="533" transform="translate(158,0)" style="font-family: 'Open Sans', verdana, arial, sans-serif; font-size: 12px; fill: rgb(42, 63, 95); fill-opacity: 1; white-space: pre; opacity: 1;">&#60;=1</text></g><g class="xtick"><text text-anchor="middle" x="0" y="533" transform="translate(314,0)" style="font-family: 'Open Sans', verdana, arial, sans-serif; font-size: 12px; fill: rgb(42, 63, 95); fill-opacity: 1; white-space: pre; opacity: 1;">(1, 2]</text></g><g class="xtick"><text text-anchor="middle" x="0" y="533" transform="translate(470,0)" style="font-family: 'Open Sans', verdana, arial, sans-serif; font-size: 12px; fill: rgb(42, 63, 95); fill-opacity: 1; white-space: pre; opacity: 1;">>2</text></g></g><g class="yaxislayer-above"><g class="ytick"><text text-anchor="end" x="79" y="4.199999999999999" transform="translate(0,510.34)" style="font-family: 'Open Sans', verdana, arial, sans-serif; font-size: 12px; fill: rgb(42, 63, 95); fill-opacity: 1; white-space: pre; opacity: 1;">−5</text></g><g class="ytick"><text text-anchor="end" x="79" y="4.199999999999999" style="font-family: 'Open Sans', verdana, arial, sans-serif; font-size: 12px; fill: rgb(42, 63, 95); fill-opacity: 1; white-space: pre; opacity: 1;" transform="translate(0,465.35)">0</text></g><g class="ytick"><text text-anchor="end" x="79" y="4.199999999999999" style="font-family: 'Open Sans', verdana, arial, sans-serif; font-size: 12px; fill: rgb(42, 63, 95); fill-opacity: 1; white-space: pre; opacity: 1;" transform="translate(0,420.36)">5</text></g><g class="ytick"><text text-anchor="end" x="79" y="4.199999999999999" style="font-family: 'Open Sans', verdana, arial, sans-serif; font-size: 12px; fill: rgb(42, 63, 95); fill-opacity: 1; white-space: pre; opacity: 1;" transform="translate(0,375.37)">10</text></g><g class="ytick"><text text-anchor="end" x="79" y="4.199999999999999" style="font-family: 'Open Sans', verdana, arial, sans-serif; font-size: 12px; fill: rgb(42, 63, 95); fill-opacity: 1; white-space: pre; opacity: 1;" transform="translate(0,330.38)">15</text></g><g class="ytick"><text text-anchor="end" x="79" y="4.199999999999999" style="font-family: 'Open Sans', verdana, arial, sans-serif; font-size: 12px; fill: rgb(42, 63, 95); fill-opacity: 1; white-space: pre; opacity: 1;" transform="translate(0,285.39)">20</text></g><g class="ytick"><text text-anchor="end" x="79" y="4.199999999999999" style="font-family: 'Open Sans', verdana, arial, sans-serif; font-size: 12px; fill: rgb(42, 63, 95); fill-opacity: 1; white-space: pre; opacity: 1;" transform="translate(0,240.4)">25</text></g><g class="ytick"><text text-anchor="end" x="79" y="4.199999999999999" style="font-family: 'Open Sans', verdana, arial, sans-serif; font-size: 12px; fill: rgb(42, 63, 95); fill-opacity: 1; white-space: pre; opacity: 1;" transform="translate(0,195.41)">30</text></g><g class="ytick"><text text-anchor="end" x="79" y="4.199999999999999" style="font-family: 'Open Sans', verdana, arial, sans-serif; font-size: 12px; fill: rgb(42, 63, 95); fill-opacity: 1; white-space: pre; opacity: 1;" transform="translate(0,150.42000000000002)">35</text></g><g class="ytick"><text text-anchor="end" x="79" y="4.199999999999999" style="font-family: 'Open Sans', verdana, arial, sans-serif; font-size: 12px; fill: rgb(42, 63, 95); fill-opacity: 1; white-space: pre; opacity: 1;" transform="translate(0,105.43)">40</text></g></g><g class="overaxes-above"/></g><g class="subplot x2y2"><g class="layer-subplot"><g class="shapelayer"/><g class="imagelayer"/></g><g class="minor-gridlayer"><g class="x2"/><g class="y2"/></g><g class="gridlayer"><g class="x2"/><g class="y2"><path class="y2grid crisp" transform="translate(0,510.34)" d="M652,0h467.99999999999994" style="stroke: rgb(255, 255, 255); stroke-opacity: 1; stroke-width: 1px;"/><path class="y2grid crisp" transform="translate(0,420.36)" d="M652,0h467.99999999999994" style="stroke: rgb(255, 255, 255); stroke-opacity: 1; stroke-width: 1px;"/><path class="y2grid crisp" transform="translate(0,375.37)" d="M652,0h467.99999999999994" style="stroke: rgb(255, 255, 255); stroke-opacity: 1; stroke-width: 1px;"/><path class="y2grid crisp" transform="translate(0,330.38)" d="M652,0h467.99999999999994" style="stroke: rgb(255, 255, 255); stroke-opacity: 1; stroke-width: 1px;"/><path class="y2grid crisp" transform="translate(0,285.39)" d="M652,0h467.99999999999994" style="stroke: rgb(255, 255, 255); stroke-opacity: 1; stroke-width: 1px;"/><path class="y2grid crisp" transform="translate(0,240.4)" d="M652,0h467.99999999999994" style="stroke: rgb(255, 255, 255); stroke-opacity: 1; stroke-width: 1px;"/><path class="y2grid crisp" transform="translate(0,195.41)" d="M652,0h467.99999999999994" style="stroke: rgb(255, 255, 255); stroke-opacity: 1; stroke-width: 1px;"/><path class="y2grid crisp" transform="translate(0,150.42000000000002)" d="M652,0h467.99999999999994" style="stroke: rgb(255, 255, 255); stroke-opacity: 1; stroke-width: 1px;"/><path class="y2grid crisp" transform="translate(0,105.43)" d="M652,0h467.99999999999994" style="stroke: rgb(255, 255, 255); stroke-opacity: 1; stroke-width: 1px;"/></g></g><g class="zerolinelayer"><path class="y2zl zl crisp" transform="translate(0,465.35)" d="M652,0h467.99999999999994" style="stroke: rgb(255, 255, 255); stroke-opacity: 1; stroke-width: 2px;"/></g><path class="xlines-below"/><path class="ylines-below"/><g class="overlines-below"/><g class="xaxislayer-below"/><g class="yaxislayer-below"/><g class="overaxes-below"/><g class="plot" transform="translate(652,100)" clip-path="url(#clip7535adx2y2plot)"><g class="violinlayer mlayer"><g class="trace violins" style="opacity: 1;"><path class="violin" d="M78.09,399Q78.14,393.27 78.18,390.41C78.22,387.55 78.27,384.68 78.34,381.82C78.41,378.96 78.49,376.09 78.59,373.23C78.69,370.37 78.82,367.5 78.96,364.64C79.1,361.78 79.26,358.91 79.45,356.05C79.64,353.18 79.85,350.31 80.09,347.45C80.33,344.58 80.59,341.72 80.88,338.86C81.17,336 81.49,333.13 81.83,330.27C82.18,327.4 82.55,324.54 82.95,321.68C83.35,318.81 83.79,315.95 84.22,313.09C84.66,310.23 85.12,307.36 85.56,304.5C86,301.64 86.46,298.77 86.88,295.91C87.3,293.05 87.7,290.19 88.06,287.32C88.42,284.46 88.74,281.6 89.02,278.73C89.3,275.87 89.52,273 89.73,270.14C89.94,267.28 90.1,264.41 90.27,261.55C90.45,258.68 90.59,255.81 90.78,252.95C90.98,250.08 91.17,247.22 91.44,244.36C91.71,241.49 92.03,238.63 92.39,235.77C92.76,232.9 93.19,230.04 93.63,227.18C94.07,224.31 94.58,221.46 95.02,218.59C95.46,215.73 95.93,212.87 96.26,210C96.59,207.14 96.87,204.28 96.98,201.41C97.09,198.55 97.08,195.68 96.95,192.82C96.82,189.95 96.52,187.09 96.2,184.23C95.88,181.36 95.41,178.5 95.05,175.64C94.69,172.78 94.26,169.92 94.04,167.05C93.82,164.19 93.66,161.31 93.73,158.45C93.8,155.58 94.05,152.71 94.46,149.86C94.87,146.99 95.51,144.12 96.18,141.27C96.85,138.4 97.73,135.55 98.47,132.68C99.21,129.82 100.05,126.97 100.61,124.09C101.17,121.24 101.67,118.37 101.84,115.5C102.01,112.64 101.97,109.76 101.66,106.91C101.35,104.03 100.72,101.16 99.96,98.32C99.19,95.43 98.12,92.57 97.03,89.73C95.93,86.85 94.62,84 93.39,81.14C92.16,78.27 90.83,75.42 89.63,72.55C88.44,69.69 87.25,66.83 86.21,63.95C85.18,61.1 84.23,58.24 83.41,55.36C82.6,52.51 81.91,49.64 81.32,46.77C80.74,43.92 80.28,41.05 79.89,38.18C79.5,35.32 79.23,32.46 78.99,29.59Q78.76,26.73 78.48,21L77.52,21Q77.24,26.73 77.01,29.59C76.77,32.46 76.5,35.32 76.11,38.18C75.72,41.05 75.26,43.92 74.68,46.77C74.09,49.64 73.4,52.51 72.59,55.36C71.77,58.24 70.82,61.1 69.79,63.95C68.75,66.83 67.56,69.69 66.37,72.55C65.17,75.42 63.84,78.27 62.61,81.14C61.38,84 60.07,86.85 58.97,89.73C57.88,92.57 56.81,95.43 56.04,98.32C55.28,101.16 54.65,104.03 54.34,106.91C54.03,109.76 53.99,112.64 54.16,115.5C54.33,118.37 54.83,121.24 55.39,124.09C55.95,126.97 56.79,129.82 57.53,132.68C58.27,135.55 59.15,138.4 59.82,141.27C60.49,144.12 61.13,146.99 61.54,149.86C61.95,152.71 62.2,155.58 62.27,158.45C62.34,161.31 62.18,164.19 61.96,167.05C61.74,169.92 61.31,172.78 60.95,175.64C60.59,178.5 60.12,181.36 59.8,184.23C59.48,187.09 59.18,189.95 59.05,192.82C58.92,195.68 58.91,198.55 59.02,201.41C59.13,204.28 59.41,207.14 59.74,210C60.07,212.87 60.54,215.73 60.98,218.59C61.42,221.46 61.93,224.31 62.37,227.18C62.81,230.04 63.24,232.9 63.61,235.77C63.97,238.63 64.29,241.49 64.56,244.36C64.83,247.22 65.02,250.08 65.22,252.95C65.41,255.81 65.55,258.68 65.73,261.55C65.9,264.41 66.06,267.28 66.27,270.14C66.48,273 66.7,275.87 66.98,278.73C67.26,281.6 67.58,284.46 67.94,287.32C68.3,290.19 68.7,293.05 69.12,295.91C69.54,298.77 70,301.64 70.44,304.5C70.88,307.36 71.34,310.23 71.78,313.09C72.21,315.95 72.65,318.81 73.05,321.68C73.45,324.54 73.82,327.4 74.17,330.27C74.51,333.13 74.83,336 75.12,338.86C75.41,341.72 75.67,344.58 75.91,347.45C76.15,350.31 76.36,353.18 76.55,356.05C76.74,358.91 76.9,361.78 77.04,364.64C77.18,367.5 77.31,370.37 77.41,373.23C77.51,376.09 77.59,378.96 77.66,381.82C77.73,384.68 77.78,387.55 77.82,390.41Q77.86,393.27 77.91,399Z" style="vector-effect: non-scaling-stroke; stroke-width: 2px; stroke: rgb(239, 85, 59); stroke-opacity: 1; fill: rgb(239, 85, 59); fill-opacity: 0.5;"/><path class="violin" d="M234.08,332.12Q234.12,328.79 234.16,327.12C234.19,325.46 234.24,323.79 234.29,322.13C234.34,320.47 234.41,318.8 234.48,317.14C234.55,315.47 234.63,313.81 234.73,312.14C234.82,310.48 234.94,308.81 235.05,307.15C235.16,305.49 235.29,303.82 235.41,302.16C235.53,300.5 235.66,298.83 235.79,297.17C235.92,295.5 236.04,293.84 236.17,292.17C236.29,290.51 236.42,288.84 236.54,287.18C236.66,285.52 236.77,283.85 236.89,282.19C237.01,280.52 237.12,278.86 237.24,277.19C237.36,275.53 237.49,273.86 237.63,272.2C237.77,270.54 237.93,268.87 238.1,267.21C238.27,265.55 238.47,263.88 238.67,262.22C238.88,260.55 239.1,258.88 239.33,257.22C239.56,255.55 239.81,253.89 240.07,252.23C240.33,250.57 240.6,248.9 240.9,247.24C241.21,245.57 241.51,243.91 241.9,242.25C242.29,240.58 242.7,238.9 243.23,237.25C243.76,235.57 244.36,233.9 245.08,232.26C245.82,230.57 246.68,228.91 247.64,227.27C248.64,225.58 249.78,223.91 250.98,222.27C252.22,220.58 253.62,218.93 255,217.28C256.41,215.6 257.93,213.96 259.35,212.29C260.75,210.64 262.23,209 263.47,207.3C264.66,205.67 265.85,204.02 266.68,202.3C267.46,200.68 268.13,199 268.37,197.31C268.6,195.67 268.51,193.95 268.15,192.32C267.77,190.62 266.95,188.95 266.07,187.33C265.13,185.61 263.85,183.97 262.61,182.33C261.34,180.64 259.86,179.01 258.53,177.34C257.21,175.68 255.82,174.05 254.65,172.35C253.52,170.72 252.44,169.05 251.59,167.35C250.78,165.72 250.11,164.05 249.63,162.36C249.16,160.72 248.89,159.04 248.73,157.37C248.58,155.71 248.6,154.04 248.69,152.38C248.78,150.71 249.01,149.04 249.28,147.38C249.55,145.71 249.91,144.04 250.33,142.39C250.75,140.72 251.25,139.05 251.82,137.4C252.4,135.72 253.05,134.05 253.77,132.4C254.5,130.72 255.33,129.06 256.2,127.41C257.08,125.73 258.07,124.08 259.03,122.42C260,120.75 261.05,119.1 261.99,117.43C262.92,115.77 263.9,114.12 264.67,112.43C265.41,110.79 266.14,109.13 266.55,107.44C266.95,105.8 267.21,104.11 267.15,102.45C267.09,100.78 266.73,99.09 266.17,97.46C265.58,95.75 264.63,94.08 263.61,92.46C262.53,90.75 261.15,89.11 259.79,87.47C258.38,85.78 256.79,84.14 255.27,82.48C253.74,80.81 252.12,79.16 250.62,77.48C249.14,75.83 247.66,74.18 246.32,72.49C245.02,70.85 243.77,69.19 242.66,67.5C241.59,65.86 240.6,64.2 239.75,62.51C238.92,60.87 238.21,59.19 237.59,57.51C236.99,55.86 236.49,54.19 236.08,52.52C235.67,50.87 235.38,49.2 235.12,47.53Q234.87,45.87 234.55,42.54L233.45,42.54Q233.13,45.87 232.88,47.53C232.62,49.2 232.33,50.87 231.92,52.52C231.51,54.19 231.01,55.86 230.41,57.51C229.79,59.19 229.08,60.87 228.25,62.51C227.4,64.2 226.41,65.86 225.34,67.5C224.23,69.19 222.98,70.85 221.68,72.49C220.34,74.18 218.86,75.83 217.38,77.48C215.88,79.16 214.26,80.81 212.73,82.48C211.21,84.14 209.62,85.78 208.21,87.47C206.85,89.11 205.47,90.75 204.39,92.46C203.37,94.08 202.42,95.75 201.83,97.46C201.27,99.09 200.91,100.78 200.85,102.45C200.79,104.11 201.05,105.8 201.45,107.44C201.86,109.13 202.59,110.79 203.33,112.43C204.1,114.12 205.08,115.77 206.01,117.43C206.95,119.1 208,120.75 208.97,122.42C209.93,124.08 210.92,125.73 211.8,127.41C212.67,129.06 213.5,130.72 214.23,132.4C214.95,134.05 215.6,135.72 216.18,137.4C216.75,139.05 217.25,140.72 217.67,142.39C218.09,144.04 218.45,145.71 218.72,147.38C218.99,149.04 219.22,150.71 219.31,152.38C219.4,154.04 219.42,155.71 219.27,157.37C219.11,159.04 218.84,160.72 218.37,162.36C217.89,164.05 217.22,165.72 216.41,167.35C215.56,169.05 214.48,170.72 213.35,172.35C212.18,174.05 210.79,175.68 209.47,177.34C208.14,179.01 206.66,180.64 205.39,182.33C204.15,183.97 202.87,185.61 201.93,187.33C201.05,188.95 200.23,190.62 199.85,192.32C199.49,193.95 199.4,195.67 199.63,197.31C199.87,199 200.54,200.68 201.32,202.3C202.15,204.02 203.34,205.67 204.53,207.3C205.77,209 207.25,210.64 208.65,212.29C210.07,213.96 211.59,215.6 213,217.28C214.38,218.93 215.78,220.58 217.02,222.27C218.22,223.91 219.36,225.58 220.36,227.27C221.32,228.91 222.18,230.57 222.92,232.26C223.64,233.9 224.24,235.57 224.77,237.25C225.3,238.9 225.71,240.58 226.1,242.25C226.49,243.91 226.79,245.57 227.1,247.24C227.4,248.9 227.67,250.57 227.93,252.23C228.19,253.89 228.44,255.55 228.67,257.22C228.9,258.88 229.12,260.55 229.33,262.22C229.53,263.88 229.73,265.55 229.9,267.21C230.07,268.87 230.23,270.54 230.37,272.2C230.51,273.86 230.64,275.53 230.76,277.19C230.88,278.86 230.99,280.52 231.11,282.19C231.23,283.85 231.34,285.52 231.46,287.18C231.58,288.84 231.71,290.51 231.83,292.17C231.96,293.84 232.08,295.5 232.21,297.17C232.34,298.83 232.47,300.5 232.59,302.16C232.71,303.82 232.84,305.49 232.95,307.15C233.06,308.81 233.18,310.48 233.27,312.14C233.37,313.81 233.45,315.47 233.52,317.14C233.59,318.8 233.66,320.47 233.71,322.13C233.76,323.79 233.81,325.46 233.84,327.12Q233.88,328.79 233.92,332.12Z" style="vector-effect: non-scaling-stroke; stroke-width: 2px; stroke: rgb(239, 85, 59); stroke-opacity: 1; fill: rgb(239, 85, 59); fill-opacity: 0.5;"/><path class="violin" d="M390.1,321.96Q390.14,317.81 390.18,315.73C390.22,313.65 390.27,311.58 390.32,309.5C390.37,307.42 390.43,305.35 390.5,303.27C390.57,301.19 390.65,299.12 390.74,297.04C390.84,294.96 390.94,292.89 391.07,290.81C391.2,288.73 391.34,286.65 391.53,284.58C391.72,282.5 391.94,280.42 392.22,278.35C392.5,276.27 392.83,274.19 393.23,272.12C393.63,270.04 394.1,267.97 394.64,265.9C395.18,263.82 395.81,261.74 396.47,259.67C397.14,257.59 397.88,255.51 398.64,253.44C399.41,251.36 400.22,249.28 401.06,247.21C401.91,245.13 402.78,243.05 403.7,240.98C404.63,238.89 405.59,236.81 406.63,234.75C407.69,232.66 408.8,230.58 410.01,228.52C411.24,226.42 412.59,224.35 413.97,222.29C415.38,220.2 416.91,218.14 418.38,216.06C419.85,213.98 421.43,211.94 422.77,209.83C424.07,207.78 425.41,205.73 426.33,203.6C427.2,201.57 427.96,199.47 428.22,197.37C428.48,195.32 428.36,193.19 427.94,191.15C427.51,189.04 426.57,186.95 425.59,184.92C424.56,182.8 423.15,180.75 421.86,178.69C420.55,176.6 419.05,174.56 417.77,172.46C416.52,170.4 415.25,168.34 414.25,166.23C413.28,164.19 412.44,162.1 411.82,160C411.22,157.95 410.83,155.86 410.55,153.77C410.27,151.7 410.19,149.62 410.12,147.54C410.05,145.46 410.09,143.39 410.1,141.31C410.11,139.23 410.16,137.16 410.16,135.08C410.16,133 410.16,130.93 410.13,128.85C410.1,126.77 410.07,124.7 410,122.62C409.94,120.55 409.86,118.47 409.74,116.4C409.61,114.32 409.48,112.24 409.25,110.17C409.02,108.09 408.74,106.01 408.36,103.94C407.97,101.86 407.5,99.77 406.93,97.71C406.36,95.62 405.67,93.55 404.94,91.48C404.2,89.39 403.36,87.32 402.53,85.25C401.69,83.17 400.79,81.1 399.94,79.02C399.09,76.95 398.23,74.87 397.44,72.79C396.66,70.72 395.9,68.65 395.23,66.56C394.57,64.49 393.97,62.42 393.45,60.33C392.94,58.26 392.5,56.18 392.13,54.1C391.76,52.03 391.46,49.96 391.21,47.88C390.96,45.81 390.79,43.73 390.64,41.65Q390.49,39.57 390.31,35.42L389.69,35.42Q389.51,39.57 389.36,41.65C389.21,43.73 389.04,45.81 388.79,47.88C388.54,49.96 388.24,52.03 387.87,54.1C387.5,56.18 387.06,58.26 386.55,60.33C386.03,62.42 385.43,64.49 384.77,66.56C384.1,68.65 383.34,70.72 382.56,72.79C381.77,74.87 380.91,76.95 380.06,79.02C379.21,81.1 378.31,83.17 377.47,85.25C376.64,87.32 375.8,89.39 375.06,91.48C374.33,93.55 373.64,95.62 373.07,97.71C372.5,99.77 372.03,101.86 371.64,103.94C371.26,106.01 370.98,108.09 370.75,110.17C370.52,112.24 370.39,114.32 370.26,116.4C370.14,118.47 370.06,120.55 370,122.62C369.93,124.7 369.9,126.77 369.87,128.85C369.84,130.93 369.84,133 369.84,135.08C369.84,137.16 369.89,139.23 369.9,141.31C369.91,143.39 369.95,145.46 369.88,147.54C369.81,149.62 369.73,151.7 369.45,153.77C369.17,155.86 368.78,157.95 368.18,160C367.56,162.1 366.72,164.19 365.75,166.23C364.75,168.34 363.48,170.4 362.23,172.46C360.95,174.56 359.45,176.6 358.14,178.69C356.85,180.75 355.44,182.8 354.41,184.92C353.43,186.95 352.49,189.04 352.06,191.15C351.64,193.19 351.52,195.32 351.78,197.37C352.04,199.47 352.8,201.57 353.67,203.6C354.59,205.73 355.93,207.78 357.23,209.83C358.57,211.94 360.15,213.98 361.62,216.06C363.09,218.14 364.62,220.2 366.03,222.29C367.41,224.35 368.76,226.42 369.99,228.52C371.2,230.58 372.31,232.66 373.37,234.75C374.41,236.81 375.37,238.89 376.3,240.98C377.22,243.05 378.09,245.13 378.94,247.21C379.78,249.28 380.59,251.36 381.36,253.44C382.12,255.51 382.86,257.59 383.53,259.67C384.19,261.74 384.82,263.82 385.36,265.9C385.9,267.97 386.37,270.04 386.77,272.12C387.17,274.19 387.5,276.27 387.78,278.35C388.06,280.42 388.28,282.5 388.47,284.58C388.66,286.65 388.8,288.73 388.93,290.81C389.06,292.89 389.16,294.96 389.26,297.04C389.35,299.12 389.43,301.19 389.5,303.27C389.57,305.35 389.63,307.42 389.68,309.5C389.73,311.58 389.78,313.65 389.82,315.73Q389.86,317.81 389.9,321.96Z" style="vector-effect: non-scaling-stroke; stroke-width: 2px; stroke: rgb(239, 85, 59); stroke-opacity: 1; fill: rgb(239, 85, 59); fill-opacity: 0.5;"/><path class="box" d="M68.44,176.48H87.55M68.44,230.7H87.55V113.41H68.44ZM78,230.7V347.08M78,113.41V72.92" style="vector-effect: non-scaling-stroke; stroke-width: 2px; stroke: rgb(239, 85, 59); stroke-opacity: 1; fill: rgb(239, 85, 59); fill-opacity: 0.5;"/><path class="box" d="M224.44,158.49H243.55M224.44,194.57H243.55V104.5H224.44ZM234,194.57V301.73M234,104.5V72.92" style="vector-effect: non-scaling-stroke; stroke-width: 2px; stroke: rgb(239, 85, 59); stroke-opacity: 1; fill: rgb(239, 85, 59); fill-opacity: 0.5;"/><path class="box" d="M380.44,185.48H399.55M380.44,203.48H399.55V140.45H380.44ZM390,203.48V284.46M390,140.45V72.92" style="vector-effect: non-scaling-stroke; stroke-width: 2px; stroke: rgb(239, 85, 59); stroke-opacity: 1; fill: rgb(239, 85, 59); fill-opacity: 0.5;"/><path class="mean" d="M68.44,177.66H87.55" style="fill: none; vector-effect: non-scaling-stroke; stroke-width: 2px; stroke-dasharray: 4px, 2px; stroke: rgb(239, 85, 59); stroke-opacity: 1;"/><path class="mean" d="M224.44,157.34H243.55" style="fill: none; vector-effect: non-scaling-stroke; stroke-width: 2px; stroke-dasharray: 4px, 2px; stroke: rgb(239, 85, 59); stroke-opacity: 1;"/><path class="mean" d="M380.44,170.93H399.55" style="fill: none; vector-effect: non-scaling-stroke; stroke-width: 2px; stroke-dasharray: 4px, 2px; stroke: rgb(239, 85, 59); stroke-opacity: 1;"/></g></g></g><g class="overplot"/><path class="xlines-above crisp" d="M0,0" style="fill: none;"/><path class="ylines-above crisp" d="M0,0" style="fill: none;"/><g class="overlines-above"/><g class="xaxislayer-above"><g class="x2tick"><text text-anchor="middle" x="0" y="533" transform="translate(730,0)" style="font-family: 'Open Sans', verdana, arial, sans-serif; font-size: 12px; fill: rgb(42, 63, 95); fill-opacity: 1; white-space: pre; opacity: 1;">&#60;=1</text></g><g class="x2tick"><text text-anchor="middle" x="0" y="533" transform="translate(886,0)" style="font-family: 'Open Sans', verdana, arial, sans-serif; font-size: 12px; fill: rgb(42, 63, 95); fill-opacity: 1; white-space: pre; opacity: 1;">(1, 2]</text></g><g class="x2tick"><text text-anchor="middle" x="0" y="533" transform="translate(1042,0)" style="font-family: 'Open Sans', verdana, arial, sans-serif; font-size: 12px; fill: rgb(42, 63, 95); fill-opacity: 1; white-space: pre; opacity: 1;">>2</text></g></g><g class="yaxislayer-above"><g class="y2tick"><text text-anchor="end" x="651" y="4.199999999999999" transform="translate(0,510.34)" style="font-family: 'Open Sans', verdana, arial, sans-serif; font-size: 12px; fill: rgb(42, 63, 95); fill-opacity: 1; white-space: pre; opacity: 1;">−5</text></g><g class="y2tick"><text text-anchor="end" x="651" y="4.199999999999999" style="font-family: 'Open Sans', verdana, arial, sans-serif; font-size: 12px; fill: rgb(42, 63, 95); fill-opacity: 1; white-space: pre; opacity: 1;" transform="translate(0,465.35)">0</text></g><g class="y2tick"><text text-anchor="end" x="651" y="4.199999999999999" style="font-family: 'Open Sans', verdana, arial, sans-serif; font-size: 12px; fill: rgb(42, 63, 95); fill-opacity: 1; white-space: pre; opacity: 1;" transform="translate(0,420.36)">5</text></g><g class="y2tick"><text text-anchor="end" x="651" y="4.199999999999999" style="font-family: 'Open Sans', verdana, arial, sans-serif; font-size: 12px; fill: rgb(42, 63, 95); fill-opacity: 1; white-space: pre; opacity: 1;" transform="translate(0,375.37)">10</text></g><g class="y2tick"><text text-anchor="end" x="651" y="4.199999999999999" style="font-family: 'Open Sans', verdana, arial, sans-serif; font-size: 12px; fill: rgb(42, 63, 95); fill-opacity: 1; white-space: pre; opacity: 1;" transform="translate(0,330.38)">15</text></g><g class="y2tick"><text text-anchor="end" x="651" y="4.199999999999999" style="font-family: 'Open Sans', verdana, arial, sans-serif; font-size: 12px; fill: rgb(42, 63, 95); fill-opacity: 1; white-space: pre; opacity: 1;" transform="translate(0,285.39)">20</text></g><g class="y2tick"><text text-anchor="end" x="651" y="4.199999999999999" style="font-family: 'Open Sans', verdana, arial, sans-serif; font-size: 12px; fill: rgb(42, 63, 95); fill-opacity: 1; white-space: pre; opacity: 1;" transform="translate(0,240.4)">25</text></g><g class="y2tick"><text text-anchor="end" x="651" y="4.199999999999999" style="font-family: 'Open Sans', verdana, arial, sans-serif; font-size: 12px; fill: rgb(42, 63, 95); fill-opacity: 1; white-space: pre; opacity: 1;" transform="translate(0,195.41)">30</text></g><g class="y2tick"><text text-anchor="end" x="651" y="4.199999999999999" style="font-family: 'Open Sans', verdana, arial, sans-serif; font-size: 12px; fill: rgb(42, 63, 95); fill-opacity: 1; white-space: pre; opacity: 1;" transform="translate(0,150.42000000000002)">35</text></g><g class="y2tick"><text text-anchor="end" x="651" y="4.199999999999999" style="font-family: 'Open Sans', verdana, arial, sans-serif; font-size: 12px; fill: rgb(42, 63, 95); fill-opacity: 1; white-space: pre; opacity: 1;" transform="translate(0,105.43)">40</text></g></g><g class="overaxes-above"/></g></g><g class="polarlayer"/><g class="smithlayer"/><g class="ternarylayer"/><g class="geolayer"/><g class="funnelarealayer"/><g class="pielayer"/><g class="iciclelayer"/><g class="treemaplayer"/><g class="sunburstlayer"/><g class="glimages"/><defs id="topdefs-7535ad"><g class="clips"/></defs><g class="layer-above"><g class="imagelayer"/><g class="shapelayer"/></g><g class="infolayer"><g class="g-gtitle"><text class="gtitle" x="60" y="50" text-anchor="start" dy="0em" style="font-family: 'Open Sans', verdana, arial, sans-serif; font-size: 17px; fill: rgb(42, 63, 95); opacity: 1; font-weight: normal; white-space: pre;">original_price Distributions</text></g><g class="g-xtitle"><text class="xtitle" x="314" y="561.8" text-anchor="middle" style="font-family: 'Open Sans', verdana, arial, sans-serif; font-size: 14px; fill: rgb(42, 63, 95); opacity: 1; font-weight: normal; white-space: pre;">Hardcover over Paperback</text></g><g class="g-x2title"><text class="x2title" x="886" y="561.8" text-anchor="middle" style="font-family: 'Open Sans', verdana, arial, sans-serif; font-size: 14px; fill: rgb(42, 63, 95); opacity: 1; font-weight: normal; white-space: pre;">Hardcover over Paperback</text></g><g class="g-ytitle"><text class="ytitle" transform="rotate(-90,40.465625,310)" x="40.465625" y="310" text-anchor="middle" style="font-family: 'Open Sans', verdana, arial, sans-serif; font-size: 14px; fill: rgb(42, 63, 95); opacity: 1; font-weight: normal; white-space: pre;">original_price</text></g><g class="g-y2title"><text class="y2title" transform="rotate(-90,612.465625,310)" x="612.465625" y="310" text-anchor="middle" style="font-family: 'Open Sans', verdana, arial, sans-serif; font-size: 14px; fill: rgb(42, 63, 95); opacity: 1; font-weight: normal; white-space: pre;">original_price</text></g><g class="annotation" data-index="0" style="opacity: 1;"><g class="annotation-text-g" transform="rotate(0,314,87)"><g class="cursor-pointer" transform="translate(273,74)"><rect class="bg" x="0.5" y="0.5" width="82" height="25" style="stroke-width: 1px; stroke: rgb(0, 0, 0); stroke-opacity: 0; fill: rgb(0, 0, 0); fill-opacity: 0;"/><text class="annotation-text" text-anchor="middle" x="41.296875" y="19" style="font-family: 'Open Sans', verdana, arial, sans-serif; font-size: 16px; fill: rgb(42, 63, 95); fill-opacity: 1; white-space: pre;">Paperback</text></g></g></g><g class="annotation" data-index="1" style="opacity: 1;"><g class="annotation-text-g" transform="rotate(0,886,87)"><g class="cursor-pointer" transform="translate(845,74)"><rect class="bg" x="0.5" y="0.5" width="81" height="25" style="stroke-width: 1px; stroke: rgb(0, 0, 0); stroke-opacity: 0; fill: rgb(0, 0, 0); fill-opacity: 0;"/><text class="annotation-text" text-anchor="middle" x="40.921875" y="19" style="font-family: 'Open Sans', verdana, arial, sans-serif; font-size: 16px; fill: rgb(42, 63, 95); fill-opacity: 1; white-space: pre;">Hardcover</text></g></g></g></g></svg>