<svg class="main-svg" xmlns="http://www.w3.org/2000/svg" xmlns:xlink="http://www.w3.org/1999/xlink" width="1200" height="600" style="" viewBox="0 0 1200 600"><rect x="0" y="0" width="1200" height="600" style="fill: rgb(255, 255, 255); fill-opacity: 1;"/><defs id="defs-a7c311"><g class="clips"><clipPath id="clipa7c311xyplot" class="plotclip"><rect width="468" height="420"/></clipPath><clipPath id="clipa7c311x2y2plot" class="plotclip"><rect width="467.99999999999994" height="420"/></clipPath><clipPath class="axesclip" id="clipa7c311x"><rect x="80" y="0" width="468" height="600"/></clipPath><clipPath class="axesclip" id="clipa7c311y"><rect x="0" y="100" width="1200" height="420"/></clipPath><clipPath class="axesclip" id="clipa7c311xy"><rect x="80" y="100" width="468" height="420"/></clipPath><clipPath class="axesclip" id="clipa7c311y2"><rect x="0" y="100" width="1200" height="420"/></clipPath><clipPath class="axesclip" id="clipa7c311xy2"><rect x="80" y="100" width="468" height="420"/></clipPath><clipPath class="axesclip" id="clipa7c311x2"><rect x="652" y="0" width="467.99999999999994" height="600"/></clipPath><clipPath class="axesclip" id="clipa7c311x2y"><rect x="652" y="100" width="467.99999999999994" height="420"/></clipPath><clipPath class="axesclip" id="clipa7c311x2y2"><rect x="652" y="100" width="467.99999999999994" height="420"/></clipPath></g><g class="gradients"/><g class="patterns"/></defs><g class="bglayer"><rect class="bg" x="80" y="100" width="468" height="420" style="fill: rgb(229, 236, 246); fill-opacity: 1; stroke-width: 0;"/><rect class="bg" x="652" y="100" width="467.99999999999994" height="420" style="fill: rgb(229, 236, 246); fill-opacity: 1; stroke-width: 0;"/></g><g class="layer-below"><g class="imagelayer"/><g class="shapelayer"/></g><g class="cartesianlayer"><g class="subplot xy"><g class="layer-subplot"><g class="shapelayer"/><g class="imagelayer"/></g><g class="minor-gridlayer"><g class="x"/><g class="y"/></g><g class="gridlayer"><g class="x"/><g class="y"><path class="ygrid crisp" transform="translate(0,492.41)" d="M80,0h468" style="stroke: rgb(255, 255, 255); stroke-opacity: 1; stroke-width: 1px;"/><path class="ygrid crisp" transform="translate(0,438.76)" d="M80,0h468" style="stroke: rgb(255, 255, 255); stroke-opacity: 1; stroke-width: 1px;"/><path class="ygrid crisp" transform="translate(0,385.11)" d="M80,0h468" style="stroke: rgb(255, 255, 255); stroke-opacity: 1; stroke-width: 1px;"/><path class="ygrid crisp" transform="translate(0,331.46000000000004)" d="M80,0h468" style="stroke: rgb(255, 255, 255); stroke-opacity: 1; stroke-width: 1px;"/><path class="ygrid crisp" transform="translate(0,277.81)" d="M80,0h468" style="stroke: rgb(255, 255, 255); stroke-opacity: 1; stroke-width: 1px;"/><path class="ygrid crisp" transform="translate(0,224.16)" d="M80,0h468" style="stroke: rgb(255, 255, 255); stroke-opacity: 1; stroke-width: 1px;"/><path class="ygrid crisp" transform="translate(0,170.51)" d="M80,0h468" style="stroke: rgb(255, 255, 255); stroke-opacity: 1; stroke-width: 1px;"/><path class="ygrid crisp" transform="translate(0,116.86)" d="M80,0h468" style="stroke: rgb(255, 255, 255); stroke-opacity: 1; stroke-width: 1px;"/></g></g><g class="zerolinelayer"/><path class="xlines-below"/><path class="ylines-below"/><g class="overlines-below"/><g class="xaxislayer-below"/><g class="yaxislayer-below"/><g class="overaxes-below"/><g class="plot" transform="translate(80,100)" clip-path="url(#clipa7c311xyplot)"><g class="violinlayer mlayer"><g class="trace violins" style="opacity: 1;"><path class="violin" d="M78.06,342.08Q78.1,338.21 78.12,336.27C78.15,334.33 78.17,332.4 78.21,330.46C78.25,328.52 78.29,326.58 78.34,324.64C78.39,322.7 78.45,320.77 78.52,318.83C78.59,316.89 78.66,314.96 78.74,313.02C78.82,311.08 78.92,309.15 79.02,307.21C79.12,305.27 79.24,303.34 79.36,301.4C79.48,299.46 79.61,297.53 79.74,295.59C79.87,293.65 80.02,291.72 80.15,289.78C80.28,287.84 80.42,285.91 80.54,283.97C80.66,282.03 80.78,280.1 80.88,278.16C80.98,276.22 81.07,274.29 81.14,272.35C81.21,270.41 81.25,268.48 81.3,266.54C81.34,264.6 81.37,262.67 81.41,260.73C81.45,258.79 81.47,256.86 81.52,254.92C81.57,252.98 81.63,251.05 81.7,249.11C81.78,247.17 81.87,245.24 81.97,243.3C82.07,241.36 82.2,239.42 82.32,237.48C82.44,235.54 82.58,233.61 82.71,231.67C82.84,229.73 82.96,227.8 83.08,225.86C83.2,223.92 83.3,221.99 83.41,220.05C83.51,218.11 83.61,216.18 83.71,214.24C83.81,212.3 83.9,210.37 84.01,208.43C84.13,206.49 84.24,204.56 84.4,202.62C84.56,200.68 84.74,198.74 84.98,196.81C85.23,194.87 85.5,192.93 85.87,191C86.24,189.06 86.67,187.12 87.19,185.19C87.71,183.24 88.33,181.31 89,179.38C89.68,177.43 90.47,175.5 91.26,173.57C92.06,171.63 92.94,169.7 93.78,167.76C94.62,165.82 95.51,163.9 96.3,161.95C97.08,160.02 97.85,158.09 98.49,156.14C99.12,154.21 99.69,152.27 100.12,150.32C100.55,148.39 100.85,146.45 101.08,144.51C101.31,142.58 101.39,140.64 101.5,138.7C101.61,136.76 101.61,134.83 101.72,132.89C101.83,130.95 101.91,129.01 102.15,127.08C102.39,125.14 102.7,123.19 103.16,121.27C103.62,119.32 104.25,117.38 104.93,115.46C105.62,113.51 106.5,111.58 107.3,109.65C108.1,107.71 109.04,105.8 109.74,103.84C110.43,101.92 111.15,99.99 111.49,98.03C111.82,96.11 112,94.14 111.76,92.22C111.52,90.26 110.88,88.29 110.02,86.41C109.1,84.41 107.71,82.48 106.28,80.6C104.76,78.6 102.89,76.7 101.09,74.79C99.25,72.83 97.21,70.93 95.34,68.98C93.49,67.05 91.59,65.14 89.92,63.16C88.32,61.26 86.78,59.34 85.48,57.35C84.24,55.46 83.16,53.51 82.27,51.54Q81.42,49.64 80.22,45.73L75.78,45.73Q74.58,49.64 73.73,51.54C72.84,53.51 71.76,55.46 70.52,57.35C69.22,59.34 67.68,61.26 66.08,63.16C64.41,65.14 62.51,67.05 60.66,68.98C58.79,70.93 56.75,72.83 54.91,74.79C53.11,76.7 51.24,78.6 49.72,80.6C48.29,82.48 46.9,84.41 45.98,86.41C45.12,88.29 44.48,90.26 44.24,92.22C44,94.14 44.18,96.11 44.51,98.03C44.85,99.99 45.57,101.92 46.26,103.84C46.96,105.8 47.9,107.71 48.7,109.65C49.5,111.58 50.38,113.51 51.07,115.46C51.75,117.38 52.38,119.32 52.84,121.27C53.3,123.19 53.61,125.14 53.85,127.08C54.09,129.01 54.17,130.95 54.28,132.89C54.39,134.83 54.39,136.76 54.5,138.7C54.61,140.64 54.69,142.58 54.92,144.51C55.15,146.45 55.45,148.39 55.88,150.32C56.31,152.27 56.88,154.21 57.51,156.14C58.15,158.09 58.92,160.02 59.7,161.95C60.49,163.9 61.38,165.82 62.22,167.76C63.06,169.7 63.94,171.63 64.74,173.57C65.53,175.5 66.32,177.43 67,179.38C67.67,181.31 68.29,183.24 68.81,185.19C69.33,187.12 69.76,189.06 70.13,191C70.5,192.93 70.77,194.87 71.02,196.81C71.26,198.74 71.44,200.68 71.6,202.62C71.76,204.56 71.87,206.49 71.99,208.43C72.1,210.37 72.19,212.3 72.29,214.24C72.39,216.18 72.49,218.11 72.59,220.05C72.7,221.99 72.8,223.92 72.92,225.86C73.04,227.8 73.16,229.73 73.29,231.67C73.42,233.61 73.56,235.54 73.68,237.48C73.8,239.42 73.93,241.36 74.03,243.3C74.13,245.24 74.22,247.17 74.3,249.11C74.37,251.05 74.43,252.98 74.48,254.92C74.53,256.86 74.55,258.79 74.59,260.73C74.63,262.67 74.66,264.6 74.7,266.54C74.75,268.48 74.79,270.41 74.86,272.35C74.93,274.29 75.02,276.22 75.12,278.16C75.22,280.1 75.34,282.03 75.46,283.97C75.58,285.91 75.72,287.84 75.85,289.78C75.98,291.72 76.13,293.65 76.26,295.59C76.39,297.53 76.52,299.46 76.64,301.4C76.76,303.34 76.88,305.27 76.98,307.21C77.08,309.15 77.18,311.08 77.26,313.02C77.34,314.96 77.41,316.89 77.48,318.83C77.55,320.77 77.61,322.7 77.66,324.64C77.71,326.58 77.75,328.52 77.79,330.46C77.83,332.4 77.85,334.33 77.88,336.27Q77.9,338.21 77.94,342.08Z" style="vector-effect: non-scaling-stroke; stroke-width: 2px; stroke: rgb(99, 110, 250); stroke-opacity: 1; fill: rgb(99, 110, 250); fill-opacity: 0.5;"/><path class="violin" d="M234.07,333.93Q234.11,330.92 234.14,329.41C234.17,327.9 234.21,326.4 234.25,324.89C234.3,323.38 234.35,321.88 234.41,320.37C234.47,318.87 234.55,317.36 234.62,315.86C234.7,314.35 234.77,312.85 234.86,311.34C234.95,309.83 235.05,308.33 235.15,306.82C235.25,305.32 235.36,303.81 235.48,302.31C235.6,300.8 235.73,299.3 235.87,297.79C236.02,296.28 236.18,294.77 236.35,293.27C236.53,291.76 236.72,290.26 236.92,288.76C237.12,287.25 237.34,285.75 237.56,284.24C237.78,282.73 238.02,281.23 238.23,279.72C238.44,278.22 238.65,276.72 238.83,275.21C239.01,273.71 239.17,272.2 239.29,270.69C239.41,269.18 239.51,267.68 239.56,266.17C239.61,264.67 239.63,263.16 239.62,261.66C239.61,260.15 239.56,258.65 239.52,257.14C239.47,255.63 239.41,254.13 239.35,252.62C239.3,251.12 239.22,249.61 239.19,248.11C239.16,246.6 239.14,245.1 239.16,243.59C239.18,242.08 239.23,240.57 239.31,239.07C239.39,237.56 239.52,236.06 239.65,234.56C239.79,233.05 239.96,231.55 240.12,230.04C240.28,228.53 240.47,227.03 240.63,225.52C240.79,224.02 240.96,222.52 241.09,221.01C241.22,219.51 241.33,218 241.43,216.49C241.53,214.98 241.6,213.48 241.67,211.97C241.74,210.47 241.78,208.96 241.83,207.46C241.88,205.95 241.92,204.45 241.96,202.94C242,201.43 242.03,199.93 242.07,198.42C242.11,196.91 242.15,195.41 242.19,193.9C242.23,192.4 242.27,190.89 242.33,189.39C242.39,187.88 242.45,186.38 242.55,184.87C242.65,183.36 242.76,181.85 242.92,180.35C243.08,178.84 243.28,177.34 243.53,175.84C243.78,174.33 244.08,172.82 244.42,171.32C244.76,169.81 245.16,168.3 245.59,166.8C246.02,165.29 246.51,163.79 247,162.29C247.5,160.78 248.03,159.27 248.57,157.77C249.11,156.26 249.67,154.75 250.24,153.25C250.81,151.74 251.39,150.24 252,148.74C252.61,147.23 253.24,145.72 253.89,144.22C254.55,142.71 255.23,141.2 255.94,139.7C256.66,138.19 257.42,136.69 258.19,135.19C258.97,133.68 259.78,132.18 260.58,130.67C261.38,129.16 262.21,127.66 263.01,126.15C263.81,124.65 264.62,123.15 265.4,121.64C266.17,120.14 266.94,118.63 267.65,117.12C268.36,115.62 269.06,114.12 269.67,112.6C270.27,111.11 270.85,109.61 271.28,108.09C271.7,106.6 272.08,105.08 272.22,103.57C272.36,102.07 272.38,100.54 272.14,99.05C271.9,97.53 271.42,96 270.74,94.54C270.02,92.98 268.98,91.48 267.85,90.02C266.63,88.45 265.14,86.97 263.61,85.5C262,83.95 260.17,82.48 258.39,80.99C256.57,79.47 254.63,77.99 252.8,76.47C251,74.97 249.16,73.49 247.48,71.95C245.87,70.47 244.3,68.98 242.93,67.43C241.64,65.97 240.45,64.47 239.45,62.92C238.5,61.45 237.71,59.93 237.05,58.4Q236.42,56.92 235.55,53.88L232.45,53.88Q231.58,56.92 230.95,58.4C230.29,59.93 229.5,61.45 228.55,62.92C227.55,64.47 226.36,65.97 225.07,67.43C223.7,68.98 222.13,70.47 220.52,71.95C218.84,73.49 217,74.97 215.2,76.47C213.37,77.99 211.43,79.47 209.61,80.99C207.83,82.48 206,83.95 204.39,85.5C202.86,86.97 201.37,88.45 200.15,90.02C199.02,91.48 197.98,92.98 197.26,94.54C196.58,96 196.1,97.53 195.86,99.05C195.62,100.54 195.64,102.07 195.78,103.57C195.92,105.08 196.3,106.6 196.72,108.09C197.15,109.61 197.73,111.11 198.33,112.6C198.94,114.12 199.64,115.62 200.35,117.12C201.06,118.63 201.83,120.14 202.6,121.64C203.38,123.15 204.19,124.65 204.99,126.15C205.79,127.66 206.62,129.16 207.42,130.67C208.22,132.18 209.03,133.68 209.81,135.19C210.58,136.69 211.34,138.19 212.06,139.7C212.77,141.2 213.45,142.71 214.11,144.22C214.76,145.72 215.39,147.23 216,148.74C216.61,150.24 217.19,151.74 217.76,153.25C218.33,154.75 218.89,156.26 219.43,157.77C219.97,159.27 220.5,160.78 221,162.29C221.49,163.79 221.98,165.29 222.41,166.8C222.84,168.3 223.24,169.81 223.58,171.32C223.92,172.82 224.22,174.33 224.47,175.84C224.72,177.34 224.92,178.84 225.08,180.35C225.24,181.85 225.35,183.36 225.45,184.87C225.55,186.38 225.61,187.88 225.67,189.39C225.73,190.89 225.77,192.4 225.81,193.9C225.85,195.41 225.89,196.91 225.93,198.42C225.97,199.93 226,201.43 226.04,202.94C226.08,204.45 226.12,205.95 226.17,207.46C226.22,208.96 226.26,210.47 226.33,211.97C226.4,213.48 226.47,214.98 226.57,216.49C226.67,218 226.78,219.51 226.91,221.01C227.04,222.52 227.21,224.02 227.37,225.52C227.53,227.03 227.72,228.53 227.88,230.04C228.04,231.55 228.21,233.05 228.35,234.56C228.48,236.06 228.61,237.56 228.69,239.07C228.77,240.57 228.82,242.08 228.84,243.59C228.86,245.1 228.84,246.6 228.81,248.11C228.78,249.61 228.7,251.12 228.65,252.62C228.59,254.13 228.53,255.63 228.48,257.14C228.44,258.65 228.39,260.15 228.38,261.66C228.37,263.16 228.39,264.67 228.44,266.17C228.49,267.68 228.59,269.18 228.71,270.69C228.83,272.2 228.99,273.71 229.17,275.21C229.35,276.72 229.56,278.22 229.77,279.72C229.98,281.23 230.22,282.73 230.44,284.24C230.66,285.75 230.88,287.25 231.08,288.76C231.28,290.26 231.47,291.76 231.65,293.27C231.82,294.77 231.98,296.28 232.13,297.79C232.27,299.3 232.4,300.8 232.52,302.31C232.64,303.81 232.75,305.32 232.85,306.82C232.95,308.33 233.05,309.83 233.14,311.34C233.23,312.85 233.3,314.35 233.38,315.86C233.45,317.36 233.53,318.87 233.59,320.37C233.65,321.88 233.7,323.38 233.75,324.89C233.79,326.4 233.83,327.9 233.86,329.41Q233.89,330.92 233.93,333.93Z" style="vector-effect: non-scaling-stroke; stroke-width: 2px; stroke: rgb(99, 110, 250); stroke-opacity: 1; fill: rgb(99, 110, 250); fill-opacity: 0.5;"/><path class="violin" d="M390.32,360.31Q390.5,354.47 390.63,351.55C390.76,348.63 390.91,345.71 391.11,342.79C391.31,339.87 391.54,336.95 391.81,334.03C392.08,331.11 392.39,328.2 392.73,325.28C393.07,322.36 393.46,319.44 393.86,316.52C394.26,313.6 394.69,310.68 395.12,307.76C395.55,304.84 396.01,301.92 396.44,299C396.87,296.08 397.32,293.16 397.72,290.24C398.12,287.32 398.5,284.41 398.83,281.49C399.16,278.57 399.46,275.65 399.71,272.73C399.96,269.81 400.15,266.89 400.31,263.97C400.47,261.05 400.58,258.13 400.68,255.21C400.78,252.29 400.85,249.37 400.91,246.45C400.97,243.53 401.02,240.62 401.06,237.7C401.11,234.78 401.15,231.86 401.18,228.94C401.21,226.02 401.23,223.1 401.24,220.18C401.25,217.26 401.24,214.34 401.23,211.42C401.22,208.5 401.19,205.58 401.19,202.66C401.19,199.74 401.19,196.82 401.26,193.9C401.33,190.98 401.42,188.07 401.6,185.15C401.78,182.23 402.02,179.31 402.35,176.39C402.68,173.47 403.1,170.54 403.57,167.63C404.04,164.7 404.62,161.79 405.19,158.87C405.77,155.95 406.42,153.03 407.02,150.11C407.62,147.19 408.25,144.28 408.79,141.36C409.33,138.45 409.85,135.53 410.25,132.6C410.64,129.69 410.98,126.76 411.16,123.84C411.34,120.92 411.43,118 411.35,115.08C411.27,112.16 411.06,109.23 410.69,106.32C410.32,103.39 409.79,100.47 409.14,97.57C408.49,94.64 407.66,91.72 406.78,88.81C405.89,85.88 404.84,82.96 403.82,80.05C402.79,77.12 401.66,74.21 400.62,71.29C399.58,68.37 398.51,65.46 397.56,62.53C396.62,59.62 395.72,56.71 394.95,53.78C394.19,50.87 393.52,47.95 392.97,45.02C392.42,42.11 391.99,39.19 391.63,36.26Q391.27,33.35 390.82,27.5L389.18,27.5Q388.73,33.35 388.37,36.26C388.01,39.19 387.58,42.11 387.03,45.02C386.48,47.95 385.81,50.87 385.05,53.78C384.28,56.71 383.38,59.62 382.44,62.53C381.49,65.46 380.42,68.37 379.38,71.29C378.34,74.21 377.21,77.12 376.18,80.05C375.16,82.96 374.11,85.88 373.22,88.81C372.34,91.72 371.51,94.64 370.86,97.57C370.21,100.47 369.68,103.39 369.31,106.32C368.94,109.23 368.73,112.16 368.65,115.08C368.57,118 368.66,120.92 368.84,123.84C369.02,126.76 369.36,129.69 369.75,132.6C370.15,135.53 370.67,138.45 371.21,141.36C371.75,144.28 372.38,147.19 372.98,150.11C373.58,153.03 374.23,155.95 374.81,158.87C375.38,161.79 375.96,164.7 376.43,167.63C376.9,170.54 377.32,173.47 377.65,176.39C377.98,179.31 378.22,182.23 378.4,185.15C378.58,188.07 378.67,190.98 378.74,193.9C378.81,196.82 378.81,199.74 378.81,202.66C378.81,205.58 378.78,208.5 378.77,211.42C378.76,214.34 378.75,217.26 378.76,220.18C378.77,223.1 378.79,226.02 378.82,228.94C378.85,231.86 378.89,234.78 378.94,237.7C378.98,240.62 379.03,243.53 379.09,246.45C379.15,249.37 379.22,252.29 379.32,255.21C379.42,258.13 379.53,261.05 379.69,263.97C379.85,266.89 380.04,269.81 380.29,272.73C380.54,275.65 380.84,278.57 381.17,281.49C381.5,284.41 381.88,287.32 382.28,290.24C382.68,293.16 383.13,296.08 383.56,299C383.99,301.92 384.45,304.84 384.88,307.76C385.31,310.68 385.74,313.6 386.14,316.52C386.54,319.44 386.93,322.36 387.27,325.28C387.61,328.2 387.92,331.11 388.19,334.03C388.46,336.95 388.69,339.87 388.89,342.79C389.09,345.71 389.24,348.63 389.37,351.55Q389.5,354.47 389.68,360.31Z" style="vector-effect: non-scaling-stroke; stroke-width: 2px; stroke: rgb(99, 110, 250); stroke-opacity: 1; fill: rgb(99, 110, 250); fill-opacity: 0.5;"/><path class="box" d="M68.45,124.16H87.56M68.45,156.35H87.56V91.97H68.45ZM78,156.35V252.92M78,91.97V81.24" style="vector-effect: non-scaling-stroke; stroke-width: 2px; stroke: rgb(99, 110, 250); stroke-opacity: 1; fill: rgb(99, 110, 250); fill-opacity: 0.5;"/><path class="box" d="M224.45,124.16H243.56M224.45,167.08H243.56V102.7H224.45ZM234,167.08V263.65M234,102.7V81.24" style="vector-effect: non-scaling-stroke; stroke-width: 2px; stroke: rgb(99, 110, 250); stroke-opacity: 1; fill: rgb(99, 110, 250); fill-opacity: 0.5;"/><path class="box" d="M380.45,145.62H399.55M380.45,220.73H399.55V113.43H380.45ZM390,220.73V306.57M390,113.43V81.24" style="vector-effect: non-scaling-stroke; stroke-width: 2px; stroke: rgb(99, 110, 250); stroke-opacity: 1; fill: rgb(99, 110, 250); fill-opacity: 0.5;"/><path class="mean" d="M68.45,133.34H87.56" style="fill: none; vector-effect: non-scaling-stroke; stroke-width: 2px; stroke-dasharray: 4px, 2px; stroke: rgb(99, 110, 250); stroke-opacity: 1;"/><path class="mean" d="M224.45,139.69H243.56" style="fill: none; vector-effect: non-scaling-stroke; stroke-width: 2px; stroke-dasharray: 4px, 2px; stroke: rgb(99, 110, 250); stroke-opacity: 1;"/><path class="mean" d="M380.45,169.15H399.55" style="fill: none; vector-effect: non-scaling-stroke; stroke-width: 2px; stroke-dasharray: 4px, 2px; stroke: rgb(99, 110, 250); stroke-opacity: 1;"/></g></g></g><g class="overplot"/><path class="xlines-above crisp" d="M0,0" style="fill: none;"/><path class="ylines-above crisp" d="M0,0" style="fill: none;"/><g class="overlines-above"/><g class="xaxislayer-above"><g class="xtick"><text text-anchor="middle" x="0" y="533" transform="translate(158,0)" style="font-family: 'Open Sans', verdana, arial, sans-serif; font-size: 12px; fill: rgb(42, 63, 95); fill-opacity: 1; white-space: pre; opacity: 1;">&#60;=1</text></g><g class="xtick"><text text-anchor="middle" x="0" y="533" transform="translate(314,0)" style="font-family: 'Open Sans', verdana, arial, sans-serif; font-size: 12px; fill: rgb(42, 63, 95); fill-opacity: 1; white-space: pre; opacity: 1;">(1, 2]</text></g><g class="xtick"><text text-anchor="middle" x="0" y="533" transform="translate(470,0)" style="font-family: 'Open Sans', verdana, arial, sans-serif; font-size: 12px; fill: rgb(42, 63, 95); fill-opacity: 1; white-space: pre; opacity: 1;">>2</text></g></g><g class="yaxislayer-above"><g class="ytick"><text text-anchor="end" x="79" y="4.199999999999999" transform="translate(0,492.41)" style="font-family: 'Open Sans', verdana, arial, sans-serif; font-size: 12px; fill: rgb(42, 63, 95); fill-opacity: 1; white-space: pre; opacity: 1;">1995</text></g><g class="ytick"><text text-anchor="end" x="79" y="4.199999999999999" style="font-family: 'Open Sans', verdana, arial, sans-serif; font-size: 12px; fill: rgb(42, 63, 95); fill-opacity: 1; white-space: pre; opacity: 1;" transform="translate(0,438.76)">2000</text></g><g class="ytick"><text text-anchor="end" x="79" y="4.199999999999999" style="font-family: 'Open Sans', verdana, arial, sans-serif; font-size: 12px; fill: rgb(42, 63, 95); fill-opacity: 1; white-space: pre; opacity: 1;" transform="translate(0,385.11)">2005</text></g><g class="ytick"><text text-anchor="end" x="79" y="4.199999999999999" style="font-family: 'Open Sans', verdana, arial, sans-serif; font-size: 12px; fill: rgb(42, 63, 95); fill-opacity: 1; white-space: pre; opacity: 1;" transform="translate(0,331.46000000000004)">2010</text></g><g class="ytick"><text text-anchor="end" x="79" y="4.199999999999999" style="font-family: 'Open Sans', verdana, arial, sans-serif; font-size: 12px; fill: rgb(42, 63, 95); fill-opacity: 1; white-space: pre; opacity: 1;" transform="translate(0,277.81)">2015</text></g><g class="ytick"><text text-anchor="end" x="79" y="4.199999999999999" style="font-family: 'Open Sans', verdana, arial, sans-serif; font-size: 12px; fill: rgb(42, 63, 95); fill-opacity: 1; white-space: pre; opacity: 1;" transform="translate(0,224.16)">2020</text></g><g class="ytick"><text text-anchor="end" x="79" y="4.199999999999999" style="font-family: 'Open Sans', verdana, arial, sans-serif; font-size: 12px; fill: rgb(42, 63, 95); fill-opacity: 1; white-space: pre; opacity: 1;" transform="translate(0,170.51)">2025</text></g><g class="ytick"><text text-anchor="end" x="79" y="4.199999999999999" style="font-family: 'Open Sans', verdana, arial, sans-serif; font-size: 12px; fill: rgb(42, 63, 95); fill-opacity: 1; white-space: pre; opacity: 1;" transform="translate(0,116.86)">2030</text></g></g><g class="overaxes-above"/></g><g class="subplot x2y2"><g class="layer-subplot"><g class="shapelayer"/><g class="imagelayer"/></g><g class="minor-gridlayer"><g class="x2"/><g class="y2"/></g><g class="gridlayer"><g class="x2"/><g class="y2"><path class="y2grid crisp" transform="translate(0,492.41)" d="M652,0h467.99999999999994" style="stroke: rgb(255, 255, 255); stroke-opacity: 1; stroke-width: 1px;"/><path class="y2grid crisp" transform="translate(0,438.76)" d="M652,0h467.99999999999994" style="stroke: rgb(255, 255, 255); stroke-opacity: 1; stroke-width: 1px;"/><path class="y2grid crisp" transform="translate(0,385.11)" d="M652,0h467.99999999999994" style="stroke: rgb(255, 255, 255); stroke-opacity: 1; stroke-width: 1px;"/><path class="y2grid crisp" transform="translate(0,331.46000000000004)" d="M652,0h467.99999999999994" style="stroke: rgb(255, 255, 255); stroke-opacity: 1; stroke-width: 1px;"/><path class="y2grid crisp" transform="translate(0,277.81)" d="M652,0h467.99999999999994" style="stroke: rgb(255, 255, 255); stroke-opacity: 1; stroke-width: 1px;"/><path class="y2grid crisp" transform="translate(0,224.16)" d="M652,0h467.99999999999994" style="stroke: rgb(255, 255, 255); stroke-opacity: 1; stroke-width: 1px;"/><path class="y2grid crisp" transform="translate(0,170.51)" d="M652,0h467.99999999999994" style="stroke: rgb(255, 255, 255); stroke-opacity: 1; stroke-width: 1px;"/><path class="y2grid crisp" transform="translate(0,116.86)" d="M652,0h467.99999999999994" style="stroke: rgb(255, 255, 255); stroke-opacity: 1; stroke-width: 1px;"/></g></g><g class="zerolinelayer"/><path class="xlines-below"/><path class="ylines-below"/><g class="overlines-below"/><g class="xaxislayer-below"/><g class="yaxislayer-below"/><g class="overaxes-below"/><g class="plot" transform="translate(652,100)" clip-path="url(#clipa7c311x2y2plot)"><g class="violinlayer mlayer"><g class="trace violins" style="opacity: 1;"><path class="violin" d="M78.06,377.66Q78.09,373.36 78.11,371.21C78.13,369.06 78.16,366.91 78.19,364.76C78.22,362.61 78.25,360.46 78.28,358.31C78.31,356.16 78.34,354.01 78.37,351.86C78.4,349.71 78.43,347.57 78.46,345.42C78.49,343.27 78.51,341.12 78.53,338.97C78.55,336.82 78.58,334.67 78.6,332.52C78.63,330.37 78.65,328.22 78.68,326.07C78.71,323.92 78.75,321.77 78.8,319.62C78.85,317.47 78.91,315.32 78.98,313.17C79.05,311.02 79.13,308.88 79.2,306.73C79.28,304.58 79.35,302.43 79.43,300.28C79.51,298.13 79.59,295.98 79.67,293.83C79.75,291.68 79.83,289.53 79.93,287.38C80.03,285.23 80.14,283.08 80.29,280.93C80.44,278.78 80.61,276.63 80.83,274.48C81.05,272.33 81.32,270.18 81.63,268.04C81.94,265.89 82.31,263.74 82.71,261.59C83.11,259.44 83.56,257.29 84.01,255.14C84.46,252.99 84.94,250.84 85.39,248.69C85.83,246.54 86.28,244.39 86.68,242.24C87.07,240.09 87.45,237.94 87.76,235.79C88.07,233.65 88.33,231.5 88.54,229.35C88.75,227.2 88.91,225.05 89.04,222.9C89.17,220.75 89.23,218.6 89.31,216.45C89.39,214.3 89.42,212.15 89.5,210C89.58,207.85 89.64,205.7 89.78,203.55C89.92,201.4 90.07,199.25 90.32,197.1C90.57,194.95 90.87,192.79 91.26,190.65C91.65,188.5 92.12,186.35 92.64,184.21C93.17,182.05 93.78,179.9 94.41,177.76C95.04,175.6 95.74,173.46 96.42,171.31C97.11,169.16 97.83,167.01 98.52,164.86C99.21,162.71 99.89,160.56 100.55,158.41C101.21,156.26 101.84,154.11 102.47,151.96C103.1,149.81 103.71,147.67 104.35,145.52C104.99,143.37 105.62,141.21 106.31,139.07C107.01,136.91 107.75,134.76 108.52,132.62C109.3,130.46 110.15,128.32 110.96,126.17C111.78,124.02 112.67,121.88 113.41,119.72C114.14,117.58 114.9,115.44 115.37,113.27C115.83,111.14 116.21,108.98 116.22,106.83C116.23,104.68 115.98,102.49 115.41,100.38C114.82,98.19 113.84,96.02 112.69,93.93C111.47,91.71 109.86,89.58 108.22,87.48C106.5,85.28 104.49,83.16 102.56,81.03C100.6,78.86 98.49,76.75 96.53,74.58C94.6,72.45 92.64,70.33 90.91,68.14C89.24,66.03 87.64,63.89 86.28,61.69C84.98,59.58 83.82,57.43 82.87,55.24C81.95,53.12 81.22,50.96 80.62,48.79Q80.03,46.66 79.28,42.34L76.72,42.34Q75.97,46.66 75.38,48.79C74.78,50.96 74.05,53.12 73.13,55.24C72.18,57.43 71.02,59.58 69.72,61.69C68.36,63.89 66.76,66.03 65.09,68.14C63.36,70.33 61.4,72.45 59.47,74.58C57.51,76.75 55.4,78.86 53.44,81.03C51.51,83.16 49.5,85.28 47.78,87.48C46.14,89.58 44.53,91.71 43.31,93.93C42.16,96.02 41.18,98.19 40.59,100.38C40.02,102.49 39.77,104.68 39.78,106.83C39.79,108.98 40.17,111.14 40.63,113.27C41.1,115.44 41.86,117.58 42.59,119.72C43.33,121.88 44.22,124.02 45.04,126.17C45.85,128.32 46.7,130.46 47.48,132.62C48.25,134.76 48.99,136.91 49.69,139.07C50.38,141.21 51.01,143.37 51.65,145.52C52.29,147.67 52.9,149.81 53.53,151.96C54.16,154.11 54.79,156.26 55.45,158.41C56.11,160.56 56.79,162.71 57.48,164.86C58.17,167.01 58.89,169.16 59.58,171.31C60.26,173.46 60.96,175.6 61.59,177.76C62.22,179.9 62.83,182.05 63.36,184.21C63.88,186.35 64.35,188.5 64.74,190.65C65.13,192.79 65.43,194.95 65.68,197.1C65.93,199.25 66.08,201.4 66.22,203.55C66.36,205.7 66.42,207.85 66.5,210C66.58,212.15 66.61,214.3 66.69,216.45C66.77,218.6 66.83,220.75 66.96,222.9C67.09,225.05 67.25,227.2 67.46,229.35C67.67,231.5 67.93,233.65 68.24,235.79C68.55,237.94 68.93,240.09 69.32,242.24C69.72,244.39 70.17,246.54 70.61,248.69C71.06,250.84 71.54,252.99 71.99,255.14C72.44,257.29 72.89,259.44 73.29,261.59C73.69,263.74 74.06,265.89 74.37,268.04C74.68,270.18 74.95,272.33 75.17,274.48C75.39,276.63 75.56,278.78 75.71,280.93C75.86,283.08 75.97,285.23 76.07,287.38C76.17,289.53 76.25,291.68 76.33,293.83C76.41,295.98 76.49,298.13 76.57,300.28C76.65,302.43 76.72,304.58 76.8,306.73C76.87,308.88 76.95,311.02 77.02,313.17C77.09,315.32 77.15,317.47 77.2,319.62C77.25,321.77 77.29,323.92 77.32,326.07C77.35,328.22 77.37,330.37 77.4,332.52C77.42,334.67 77.45,336.82 77.47,338.97C77.49,341.12 77.51,343.27 77.54,345.42C77.57,347.57 77.6,349.71 77.63,351.86C77.66,354.01 77.69,356.16 77.72,358.31C77.75,360.46 77.78,362.61 77.81,364.76C77.84,366.91 77.87,369.06 77.89,371.21Q77.91,373.36 77.94,377.66Z" style="vector-effect: non-scaling-stroke; stroke-width: 2px; stroke: rgb(239, 85, 59); stroke-opacity: 1; fill: rgb(239, 85, 59); fill-opacity: 0.5;"/><path class="violin" d="M234.18,374.41Q234.28,370.5 234.35,368.54C234.42,366.58 234.5,364.63 234.6,362.67C234.7,360.71 234.81,358.76 234.93,356.8C235.05,354.84 235.2,352.89 235.33,350.93C235.47,348.97 235.61,347.01 235.74,345.05C235.87,343.09 236,341.14 236.12,339.18C236.24,337.22 236.34,335.27 236.44,333.31C236.54,331.35 236.62,329.4 236.7,327.44C236.78,325.48 236.86,323.53 236.94,321.57C237.03,319.61 237.11,317.65 237.21,315.69C237.31,313.73 237.42,311.78 237.55,309.82C237.68,307.86 237.83,305.91 238,303.95C238.17,301.99 238.36,300.04 238.56,298.08C238.76,296.12 238.99,294.17 239.21,292.21C239.43,290.25 239.66,288.29 239.87,286.33C240.08,284.37 240.29,282.42 240.48,280.46C240.67,278.5 240.83,276.55 240.99,274.59C241.14,272.63 241.28,270.68 241.41,268.72C241.54,266.76 241.64,264.81 241.77,262.85C241.9,260.89 242.02,258.94 242.17,256.98C242.32,255.02 242.48,253.06 242.67,251.1C242.86,249.14 243.07,247.19 243.3,245.23C243.53,243.27 243.8,241.32 244.06,239.36C244.32,237.4 244.61,235.45 244.88,233.49C245.15,231.53 245.44,229.58 245.69,227.62C245.94,225.66 246.19,223.7 246.4,221.74C246.61,219.78 246.79,217.83 246.95,215.87C247.1,213.91 247.23,211.96 247.33,210C247.43,208.04 247.5,206.09 247.57,204.13C247.64,202.17 247.69,200.22 247.76,198.26C247.83,196.3 247.89,194.34 248,192.38C248.11,190.42 248.24,188.46 248.42,186.51C248.61,184.55 248.83,182.59 249.11,180.64C249.4,178.68 249.74,176.72 250.13,174.77C250.52,172.81 250.98,170.85 251.47,168.9C251.97,166.94 252.52,164.97 253.1,163.02C253.69,161.06 254.31,159.1 254.98,157.15C255.65,155.19 256.37,153.23 257.13,151.28C257.9,149.32 258.71,147.36 259.56,145.41C260.42,143.45 261.33,141.49 262.25,139.54C263.17,137.58 264.16,135.63 265.09,133.67C266.02,131.71 266.99,129.77 267.81,127.79C268.62,125.85 269.43,123.9 269.99,121.92C270.54,119.99 271,118.02 271.15,116.05C271.29,114.1 271.22,112.11 270.87,110.18C270.51,108.2 269.82,106.22 268.96,104.31C268.06,102.3 266.82,100.35 265.52,98.43C264.16,96.43 262.53,94.49 260.92,92.56C259.27,90.58 257.45,88.65 255.71,86.69C253.97,84.73 252.16,82.8 250.48,80.82C248.83,78.88 247.2,76.94 245.73,74.95C244.31,73.02 242.97,71.06 241.8,69.07C240.67,67.15 239.67,65.19 238.82,63.2C238,61.27 237.32,59.3 236.76,57.33C236.21,55.39 235.8,53.42 235.46,51.46Q235.12,49.51 234.71,45.59L233.29,45.59Q232.88,49.51 232.54,51.46C232.2,53.42 231.79,55.39 231.24,57.33C230.68,59.3 230,61.27 229.18,63.2C228.33,65.19 227.33,67.15 226.2,69.07C225.03,71.06 223.69,73.02 222.27,74.95C220.8,76.94 219.17,78.88 217.52,80.82C215.84,82.8 214.03,84.73 212.29,86.69C210.55,88.65 208.73,90.58 207.08,92.56C205.47,94.49 203.84,96.43 202.48,98.43C201.18,100.35 199.94,102.3 199.04,104.31C198.18,106.22 197.49,108.2 197.13,110.18C196.78,112.11 196.71,114.1 196.85,116.05C197,118.02 197.46,119.99 198.01,121.92C198.57,123.9 199.38,125.85 200.19,127.79C201.01,129.77 201.98,131.71 202.91,133.67C203.84,135.63 204.83,137.58 205.75,139.54C206.67,141.49 207.58,143.45 208.44,145.41C209.29,147.36 210.1,149.32 210.87,151.28C211.63,153.23 212.35,155.19 213.02,157.15C213.69,159.1 214.31,161.06 214.9,163.02C215.48,164.97 216.03,166.94 216.53,168.9C217.02,170.85 217.48,172.81 217.87,174.77C218.26,176.72 218.6,178.68 218.89,180.64C219.17,182.59 219.39,184.55 219.58,186.51C219.76,188.46 219.89,190.42 220,192.38C220.11,194.34 220.17,196.3 220.24,198.26C220.31,200.22 220.36,202.17 220.43,204.13C220.5,206.09 220.57,208.04 220.67,210C220.77,211.96 220.9,213.91 221.05,215.87C221.21,217.83 221.39,219.78 221.6,221.74C221.81,223.7 222.06,225.66 222.31,227.62C222.56,229.58 222.85,231.53 223.12,233.49C223.39,235.45 223.68,237.4 223.94,239.36C224.2,241.32 224.47,243.27 224.7,245.23C224.93,247.19 225.14,249.14 225.33,251.1C225.52,253.06 225.68,255.02 225.83,256.98C225.98,258.94 226.1,260.89 226.23,262.85C226.36,264.81 226.46,266.76 226.59,268.72C226.72,270.68 226.86,272.63 227.01,274.59C227.17,276.55 227.33,278.5 227.52,280.46C227.71,282.42 227.92,284.37 228.13,286.33C228.34,288.29 228.57,290.25 228.79,292.21C229.01,294.17 229.24,296.12 229.44,298.08C229.64,300.04 229.83,301.99 230,303.95C230.17,305.91 230.32,307.86 230.45,309.82C230.58,311.78 230.69,313.73 230.79,315.69C230.89,317.65 230.97,319.61 231.06,321.57C231.14,323.53 231.22,325.48 231.3,327.44C231.38,329.4 231.46,331.35 231.56,333.31C231.66,335.27 231.76,337.22 231.88,339.18C232,341.14 232.13,343.09 232.26,345.05C232.39,347.01 232.53,348.97 232.67,350.93C232.8,352.89 232.95,354.84 233.07,356.8C233.19,358.76 233.3,360.71 233.4,362.67C233.5,364.63 233.58,366.58 233.65,368.54Q233.72,370.5 233.82,374.41Z" style="vector-effect: non-scaling-stroke; stroke-width: 2px; stroke: rgb(239, 85, 59); stroke-opacity: 1; fill: rgb(239, 85, 59); fill-opacity: 0.5;"/><path class="violin" d="M390.27,399Q390.41,392.37 390.53,389.05C390.64,385.74 390.78,382.42 390.96,379.11C391.14,375.79 391.34,372.48 391.59,369.16C391.84,365.84 392.13,362.53 392.44,359.21C392.76,355.89 393.11,352.57 393.48,349.26C393.85,345.94 394.25,342.63 394.65,339.32C395.05,336 395.47,332.69 395.87,329.37C396.27,326.05 396.69,322.74 397.07,319.42C397.45,316.1 397.83,312.79 398.17,309.47C398.51,306.16 398.83,302.85 399.09,299.53C399.35,296.22 399.56,292.9 399.72,289.58C399.88,286.26 399.98,282.95 400.03,279.63C400.08,276.31 400.07,273 400.03,269.68C399.99,266.37 399.88,263.05 399.8,259.74C399.71,256.42 399.59,253.11 399.52,249.79C399.45,246.47 399.38,243.16 399.39,239.84C399.4,236.52 399.44,233.2 399.57,229.89C399.7,226.57 399.91,223.26 400.19,219.95C400.48,216.63 400.84,213.31 401.28,210C401.72,206.68 402.26,203.36 402.82,200.05C403.38,196.73 404.03,193.42 404.66,190.11C405.29,186.79 405.97,183.48 406.59,180.16C407.21,176.85 407.82,173.53 408.36,170.21C408.9,166.9 409.4,163.58 409.84,160.26C410.28,156.95 410.65,153.64 411.01,150.32C411.37,147.01 411.68,143.69 411.98,140.37C412.28,137.05 412.58,133.74 412.82,130.42C413.06,127.1 413.31,123.79 413.42,120.47C413.53,117.16 413.63,113.84 413.51,110.53C413.39,107.21 413.15,103.88 412.69,100.58C412.22,97.25 411.54,93.93 410.71,90.63C409.87,87.29 408.78,83.98 407.65,80.68C406.51,77.35 405.16,74.05 403.89,70.74C402.62,67.42 401.25,64.12 400.03,60.79C398.82,57.49 397.62,54.17 396.61,50.84C395.61,47.54 394.71,44.22 393.97,40.89C393.23,37.59 392.65,34.27 392.16,30.95Q391.68,27.64 391.06,21L388.94,21Q388.32,27.64 387.84,30.95C387.35,34.27 386.77,37.59 386.03,40.89C385.29,44.22 384.39,47.54 383.39,50.84C382.38,54.17 381.18,57.49 379.97,60.79C378.75,64.12 377.38,67.42 376.11,70.74C374.84,74.05 373.49,77.35 372.35,80.68C371.22,83.98 370.13,87.29 369.29,90.63C368.46,93.93 367.78,97.25 367.31,100.58C366.85,103.88 366.61,107.21 366.49,110.53C366.37,113.84 366.47,117.16 366.58,120.47C366.69,123.79 366.94,127.1 367.18,130.42C367.42,133.74 367.72,137.05 368.02,140.37C368.32,143.69 368.63,147.01 368.99,150.32C369.35,153.64 369.72,156.95 370.16,160.26C370.6,163.58 371.1,166.9 371.64,170.21C372.18,173.53 372.79,176.85 373.41,180.16C374.03,183.48 374.71,186.79 375.34,190.11C375.97,193.42 376.62,196.73 377.18,200.05C377.74,203.36 378.28,206.68 378.72,210C379.16,213.31 379.52,216.63 379.81,219.95C380.09,223.26 380.3,226.57 380.43,229.89C380.56,233.2 380.6,236.52 380.61,239.84C380.62,243.16 380.55,246.47 380.48,249.79C380.41,253.11 380.29,256.42 380.2,259.74C380.12,263.05 380.01,266.37 379.97,269.68C379.93,273 379.92,276.31 379.97,279.63C380.02,282.95 380.12,286.26 380.28,289.58C380.44,292.9 380.65,296.22 380.91,299.53C381.17,302.85 381.49,306.16 381.83,309.47C382.17,312.79 382.55,316.1 382.93,319.42C383.31,322.74 383.73,326.05 384.13,329.37C384.53,332.69 384.95,336 385.35,339.32C385.75,342.63 386.15,345.94 386.52,349.26C386.89,352.57 387.24,355.89 387.56,359.21C387.87,362.53 388.16,365.84 388.41,369.16C388.66,372.48 388.86,375.79 389.04,379.11C389.22,382.42 389.36,385.74 389.47,389.05Q389.59,392.37 389.73,399Z" style="vector-effect: non-scaling-stroke; stroke-width: 2px; stroke: rgb(239, 85, 59); stroke-opacity: 1; fill: rgb(239, 85, 59); fill-opacity: 0.5;"/><path class="box" d="M68.44,124.16H87.55M68.44,177.81H87.55V102.7H68.44ZM78,177.81V285.11M78,102.7V81.24" style="vector-effect: non-scaling-stroke; stroke-width: 2px; stroke: rgb(239, 85, 59); stroke-opacity: 1; fill: rgb(239, 85, 59); fill-opacity: 0.5;"/><path class="box" d="M224.44,134.89H243.55M224.44,199.27H243.55V113.43H224.44ZM234,199.27V328.03M234,113.43V81.24" style="vector-effect: non-scaling-stroke; stroke-width: 2px; stroke: rgb(239, 85, 59); stroke-opacity: 1; fill: rgb(239, 85, 59); fill-opacity: 0.5;"/><path class="box" d="M380.44,156.35H399.55M380.44,231.46H399.55V102.7H380.44ZM390,231.46V338.76M390,102.7V81.24" style="vector-effect: non-scaling-stroke; stroke-width: 2px; stroke: rgb(239, 85, 59); stroke-opacity: 1; fill: rgb(239, 85, 59); fill-opacity: 0.5;"/><path class="mean" d="M68.44,143.64H87.55" style="fill: none; vector-effect: non-scaling-stroke; stroke-width: 2px; stroke-dasharray: 4px, 2px; stroke: rgb(239, 85, 59); stroke-opacity: 1;"/><path class="mean" d="M224.44,159.91H243.55" style="fill: none; vector-effect: non-scaling-stroke; stroke-width: 2px; stroke-dasharray: 4px, 2px; stroke: rgb(239, 85, 59); stroke-opacity: 1;"/><path class="mean" d="M380.44,172.33H399.55" style="fill: none; vector-effect: non-scaling-stroke; stroke-width: 2px; stroke-dasharray: 4px, 2px; stroke: rgb(239, 85, 59); stroke-opacity: 1;"/></g></g></g><g class="overplot"/><path class="xlines-above crisp" d="M0,0" style="fill: none;"/><path class="ylines-above crisp" d="M0,0" style="fill: none;"/><g class="overlines-above"/><g class="xaxislayer-above"><g class="x2tick"><text text-anchor="middle" x="0" y="533" transform="translate(730,0)" style="font-family: 'Open Sans', verdana, arial, sans-serif; font-size: 12px; fill: rgb(42, 63, 95); fill-opacity: 1; white-space: pre; opacity: 1;">&#60;=1</text></g><g class="x2tick"><text text-anchor="middle" x="0" y="533" transform="translate(886,0)" style="font-family: 'Open Sans', verdana, arial, sans-serif; font-size: 12px; fill: rgb(42, 63, 95); fill-opacity: 1; white-space: pre; opacity: 1;">(1, 2]</text></g><g class="x2tick"><text text-anchor="middle" x="0" y="533" transform="translate(1042,0)" style="font-family: 'Open Sans', verdana, arial, sans-serif; font-size: 12px; fill: rgb(42, 63, 95); fill-opacity: 1; white-space: pre; opacity: 1;">>2</text></g></g><g class="yaxislayer-above"><g class="y2tick"><text text-anchor="end" x="651" y="4.199999999999999" transform="translate(0,492.41)" style="font-family: 'Open Sans', verdana, arial, sans-serif; font-size: 12px; fill: rgb(42, 63, 95); fill-opacity: 1; white-space: pre; opacity: 1;">1995</text></g><g class="y2tick"><text text-anchor="end" x="651" y="4.199999999999999" style="font-family: 'Open Sans', verdana, arial, sans-serif; font-size: 12px; fill: rgb(42, 63, 95); fill-opacity: 1; white-space: pre; opacity: 1;" transform="translate(0,438.76)">2000</text></g><g class="y2tick"><text text-anchor="end" x="651" y="4.199999999999999" style="font-family: 'Open Sans', verdana, arial, sans-serif; font-size: 12px; fill: rgb(42, 63, 95); fill-opacity: 1; white-space: pre; opacity: 1;" transform="translate(0,385.11)">2005</text></g><g class="y2tick"><text text-anchor="end" x="651" y="4.199999999999999" style="font-family: 'Open Sans', verdana, arial, sans-serif; font-size: 12px; fill: rgb(42, 63, 95); fill-opacity: 1; white-space: pre; opacity: 1;" transform="translate(0,331.46000000000004)">2010</text></g><g class="y2tick"><text text-anchor="end" x="651" y="4.199999999999999" style="font-family: 'Open Sans', verdana, arial, sans-serif; font-size: 12px; fill: rgb(42, 63, 95); fill-opacity: 1; white-space: pre; opacity: 1;" transform="translate(0,277.81)">2015</text></g><g class="y2tick"><text text-anchor="end" x="651" y="4.199999999999999" style="font-family: 'Open Sans', verdana, arial, sans-serif; font-size: 12px; fill: rgb(42, 63, 95); fill-opacity: 1; white-space: pre; opacity: 1;" transform="translate(0,224.16)">2020</text></g><g class="y2tick"><text text-anchor="end" x="651" y="4.199999999999999" style="font-family: 'Open Sans', verdana, arial, sans-serif; font-size: 12px; fill: rgb(42, 63, 95); fill-opacity: 1; white-space: pre; opacity: 1;" transform="translate(0,170.51)">2025</text></g><g class="y2tick"><text text-anchor="end" x="651" y="4.199999999999999" style="font-family: 'Open Sans', verdana, arial, sans-serif; font-size: 12px; fill: rgb(42, 63, 95); fill-opacity: 1; white-space: pre; opacity: 1;" transform="translate(0,116.86)">2030</text></g></g><g class="overaxes-above"/></g></g><g class="polarlayer"/><g class="smithlayer"/><g class="ternarylayer"/><g class="geolayer"/><g class="funnelarealayer"/><g class="pielayer"/><g class="iciclelayer"/><g class="treemaplayer"/><g class="sunburstlayer"/><g class="glimages"/><defs id="topdefs-a7c311"><g class="clips"/></defs><g class="layer-above"><g class="imagelayer"/><g class="shapelayer"/></g><g class="infolayer"><g class="g-gtitle"><text class="gtitle" x="60" y="50" text-anchor="start" dy="0em" style="font-family: 'Open Sans', verdana, arial, sans-serif; font-size: 17px; fill: rgb(42, 63, 95); opacity: 1; font-weight: normal; white-space: pre;">publish_year Distributions</text></g><g class="g-xtitle"><text class="xtitle" x="314" y="561.8" text-anchor="middle" style="font-family: 'Open Sans', verdana, arial, sans-serif; font-size: 14px; fill: rgb(42, 63, 95); opacity: 1; font-weight: normal; white-space: pre;">Hardcover over Paperback</text></g><g class="g-x2title"><text class="x2title" x="886" y="561.8" text-anchor="middle" style="font-family: 'Open Sans', verdana, arial, sans-serif; font-size: 14px; fill: rgb(42, 63, 95); opacity: 1; font-weight: normal; white-space: pre;">Hardcover over Paperback</text></g><g class="g-ytitle"><text class="ytitle" transform="rotate(-90,26.746875000000003,310)" x="26.746875000000003" y="310" text-anchor="middle" style="font-family: 'Open Sans', verdana, arial, sans-serif; font-size: 14px; fill: rgb(42, 63, 95); opacity: 1; font-weight: normal; white-space: pre;">publish_year</text></g><g class="g-y2title"><text class="y2title" transform="rotate(-90,598.746875,310)" x="598.746875" y="310" text-anchor="middle" style="font-family: 'Open Sans', verdana, arial, sans-serif; font-size: 14px; fill: rgb(42, 63, 95); opacity: 1; font-weight: normal; white-space: pre;">publish_year</text></g><g class="annotation" data-index="0" style="opacity: 1;"><g class="annotation-text-g" transform="rotate(0,314,87)"><g class="cursor-pointer" transform="translate(273,74)"><rect class="bg" x="0.5" y="0.5" width="82" height="25" style="stroke-width: 1px; stroke: rgb(0, 0, 0); stroke-opacity: 0; fill: rgb(0, 0, 0); fill-opacity: 0;"/><text class="annotation-text" text-anchor="middle" x="41.296875" y="19" style="font-family: 'Open Sans', verdana, arial, sans-serif; font-size: 16px; fill: rgb(42, 63, 95); fill-opacity: 1; white-space: pre;">Paperback</text></g></g></g><g class="annotation" data-index="1" style="opacity: 1;"><g class="annotation-text-g" transform="rotate(0,886,87)"><g class="cursor-pointer" transform="translate(845,74)"><rect class="bg" x="0.5" y="0.5" width="81" height="25" style="stroke-width: 1px; stroke: rgb(0, 0, 0); stroke-opacity: 0; fill: rgb(0, 0, 0); fill-opacity: 0;"/><text class="annotation-text" text-anchor="middle" x="40.921875" y="19" style="font-family: 'Open Sans', verdana, arial, sans-serif; font-size: 16px; fill: rgb(42, 63, 95); fill-opacity: 1; white-space: pre;">Hardcover</text></g></g></g></g></svg>