<svg class="main-svg" xmlns="http://www.w3.org/2000/svg" xmlns:xlink="http://www.w3.org/1999/xlink" width="1200" height="600" style="" viewBox="0 0 1200 600"><rect x="0" y="0" width="1200" height="600" style="fill: rgb(255, 255, 255); fill-opacity: 1;"/><defs id="defs-36be50"><g class="clips"><clipPath id="clip36be50xyplot" class="plotclip"><rect width="468" height="420"/></clipPath><clipPath id="clip36be50x2y2plot" class="plotclip"><rect width="467.99999999999994" height="420"/></clipPath><clipPath class="axesclip" id="clip36be50x"><rect x="80" y="0" width="468" height="600"/></clipPath><clipPath class="axesclip" id="clip36be50y"><rect x="0" y="100" width="1200" height="420"/></clipPath><clipPath class="axesclip" id="clip36be50xy"><rect x="80" y="100" width="468" height="420"/></clipPath><clipPath class="axesclip" id="clip36be50y2"><rect x="0" y="100" width="1200" height="420"/></clipPath><clipPath class="axesclip" id="clip36be50xy2"><rect x="80" y="100" width="468" height="420"/></clipPath><clipPath class="axesclip" id="clip36be50x2"><rect x="652" y="0" width="467.99999999999994" height="600"/></clipPath><clipPath class="axesclip" id="clip36be50x2y"><rect x="652" y="100" width="467.99999999999994" height="420"/></clipPath><clipPath class="axesclip" id="clip36be50x2y2"><rect x="652" y="100" width="467.99999999999994" height="420"/></clipPath></g><g class="gradients"/><g class="patterns"/></defs><g class="bglayer"><rect class="bg" x="80" y="100" width="468" height="420" style="fill: rgb(229, 236, 246); fill-opacity: 1; stroke-width: 0;"/><rect class="bg" x="652" y="100" width="467.99999999999994" height="420" style="fill: rgb(229, 236, 246); fill-opacity: 1; stroke-width: 0;"/></g><g class="layer-below"><g class="imagelayer"/><g class="shapelayer"/></g><g class="cartesianlayer"><g class="subplot xy"><g class="layer-subplot"><g class="shapelayer"/><g class="imagelayer"/></g><g class="minor-gridlayer"><g class="x"/><g class="y"/></g><g class="gridlayer"><g class="x"/><g class="y"><path class="ygrid crisp" transform="translate(0,414.42)" d="M80,0h468" style="stroke: rgb(255, 255, 255); stroke-opacity: 1; stroke-width: 1px;"/><path class="ygrid crisp" transform="translate(0,348.14)" d="M80,0h468" style="stroke: rgb(255, 255, 255); stroke-opacity: 1; stroke-width: 1px;"/><path class="ygrid crisp" transform="translate(0,281.86)" d="M80,0h468" style="stroke: rgb(255, 255, 255); stroke-opacity: 1; stroke-width: 1px;"/><path class="ygrid crisp" transform="translate(0,215.59)" d="M80,0h468" style="stroke: rgb(255, 255, 255); stroke-opacity: 1; stroke-width: 1px;"/><path class="ygrid crisp" transform="translate(0,149.31)" d="M80,0h468" style="stroke: rgb(255, 255, 255); stroke-opacity: 1; stroke-width: 1px;"/></g></g><g class="zerolinelayer"><path class="yzl zl crisp" transform="translate(0,480.69)" d="M80,0h468" style="stroke: rgb(255, 255, 255); stroke-opacity: 1; stroke-width: 2px;"/></g><path class="xlines-below"/><path class="ylines-below"/><g class="overlines-below"/><g class="xaxislayer-below"/><g class="yaxislayer-below"/><g class="overaxes-below"/><g class="plot" transform="translate(80,100)" clip-path="url(#clip36be50xyplot)"><g class="violinlayer mlayer"><g class="trace violins" style="opacity: 1;"><path class="violin" d="M78.14,341.43Q78.22,337.6 78.3,335.68C78.38,333.76 78.47,331.84 78.61,329.93C78.75,328.01 78.91,326.1 79.13,324.19C79.35,322.27 79.61,320.35 79.95,318.44C80.29,316.52 80.69,314.6 81.15,312.69C81.61,310.77 82.15,308.86 82.73,306.95C83.31,305.03 83.97,303.11 84.63,301.2C85.29,299.28 86,297.37 86.67,295.45C87.34,293.54 88.03,291.63 88.65,289.71C89.26,287.8 89.86,285.89 90.36,283.96C90.86,282.05 91.29,280.13 91.65,278.21C92,276.3 92.28,274.39 92.5,272.47C92.72,270.56 92.85,268.64 92.96,266.72C93.07,264.8 93.1,262.89 93.15,260.97C93.2,259.06 93.2,257.14 93.27,255.23C93.34,253.31 93.4,251.39 93.55,249.48C93.7,247.56 93.9,245.64 94.17,243.73C94.45,241.81 94.8,239.9 95.2,237.99C95.6,236.07 96.1,234.15 96.59,232.24C97.08,230.32 97.62,228.41 98.14,226.49C98.65,224.58 99.18,222.67 99.68,220.75C100.17,218.84 100.64,216.92 101.11,215C101.58,213.08 102.01,211.16 102.49,209.25C102.97,207.33 103.45,205.42 104,203.51C104.56,201.59 105.16,199.67 105.82,197.76C106.48,195.84 107.23,193.92 107.96,192.01C108.69,190.09 109.51,188.19 110.19,186.26C110.87,184.36 111.58,182.45 112.04,180.52C112.5,178.62 112.88,176.69 112.97,174.77C113.06,172.86 112.95,170.91 112.59,169.02C112.22,167.08 111.55,165.15 110.73,163.28C109.87,161.32 108.71,159.41 107.5,157.53C106.24,155.57 104.74,153.67 103.26,151.78C101.74,149.84 100.08,147.95 98.48,146.04C96.88,144.12 95.21,142.22 93.65,140.29C92.12,138.39 90.6,136.48 89.22,134.54C87.88,132.65 86.61,130.75 85.5,128.8C84.42,126.91 83.46,124.99 82.64,123.05C81.85,121.16 81.19,119.23 80.65,117.3C80.12,115.4 79.72,113.48 79.39,111.56Q79.06,109.65 78.66,105.81L77.34,105.81Q76.94,109.65 76.61,111.56C76.28,113.48 75.88,115.4 75.35,117.3C74.81,119.23 74.15,121.16 73.36,123.05C72.54,124.99 71.58,126.91 70.5,128.8C69.39,130.75 68.12,132.65 66.78,134.54C65.4,136.48 63.88,138.39 62.35,140.29C60.79,142.22 59.12,144.12 57.52,146.04C55.92,147.95 54.26,149.84 52.74,151.78C51.26,153.67 49.76,155.57 48.5,157.53C47.29,159.41 46.13,161.32 45.27,163.28C44.45,165.15 43.78,167.08 43.41,169.02C43.05,170.91 42.94,172.86 43.03,174.77C43.12,176.69 43.5,178.62 43.96,180.52C44.42,182.45 45.13,184.36 45.81,186.26C46.49,188.19 47.31,190.09 48.04,192.01C48.77,193.92 49.52,195.84 50.18,197.76C50.84,199.67 51.44,201.59 52,203.51C52.55,205.42 53.03,207.33 53.51,209.25C53.99,211.16 54.42,213.08 54.89,215C55.36,216.92 55.83,218.84 56.32,220.75C56.82,222.67 57.35,224.58 57.86,226.49C58.38,228.41 58.92,230.32 59.41,232.24C59.9,234.15 60.4,236.07 60.8,237.99C61.2,239.9 61.55,241.81 61.83,243.73C62.1,245.64 62.3,247.56 62.45,249.48C62.6,251.39 62.66,253.31 62.73,255.23C62.8,257.14 62.8,259.06 62.85,260.97C62.9,262.89 62.93,264.8 63.04,266.72C63.15,268.64 63.28,270.56 63.5,272.47C63.72,274.39 64,276.3 64.35,278.21C64.71,280.13 65.14,282.05 65.64,283.96C66.14,285.89 66.74,287.8 67.35,289.71C67.97,291.63 68.66,293.54 69.33,295.45C70,297.37 70.71,299.28 71.37,301.2C72.03,303.11 72.69,305.03 73.27,306.95C73.85,308.86 74.39,310.77 74.85,312.69C75.31,314.6 75.71,316.52 76.05,318.44C76.39,320.35 76.65,322.27 76.87,324.19C77.09,326.1 77.25,328.01 77.39,329.93C77.53,331.84 77.62,333.76 77.7,335.68Q77.78,337.6 77.86,341.43Z" style="vector-effect: non-scaling-stroke; stroke-width: 2px; stroke: rgb(99, 110, 250); stroke-opacity: 1; fill: rgb(99, 110, 250); fill-opacity: 0.5;"/><path class="violin" d="M234.07,351.39Q234.11,348.83 234.14,347.55C234.17,346.27 234.21,345 234.27,343.72C234.33,342.44 234.4,341.17 234.49,339.89C234.58,338.61 234.68,337.33 234.81,336.05C234.94,334.77 235.1,333.49 235.28,332.22C235.46,330.94 235.67,329.66 235.9,328.39C236.13,327.11 236.39,325.83 236.68,324.56C236.97,323.28 237.29,322 237.64,320.72C237.99,319.44 238.36,318.16 238.78,316.89C239.21,315.61 239.66,314.33 240.18,313.06C240.71,311.77 241.28,310.49 241.93,309.23C242.6,307.93 243.34,306.65 244.17,305.39C245.02,304.09 245.99,302.82 246.99,301.56C248.03,300.26 249.17,299 250.31,297.73C251.47,296.44 252.73,295.17 253.91,293.89C255.08,292.62 256.3,291.36 257.39,290.06C258.44,288.8 259.48,287.54 260.35,286.23C261.18,284.98 261.92,283.71 262.5,282.4C263.06,281.15 263.48,279.85 263.79,278.56C264.1,277.3 264.25,276.01 264.37,274.73C264.49,273.46 264.49,272.18 264.49,270.9C264.49,269.62 264.42,268.35 264.37,267.07C264.32,265.79 264.24,264.51 264.18,263.23C264.12,261.95 264.05,260.68 264,259.4C263.95,258.12 263.91,256.85 263.89,255.57C263.87,254.29 263.87,253.02 263.9,251.74C263.93,250.46 263.98,249.18 264.05,247.9C264.12,246.62 264.22,245.35 264.33,244.07C264.44,242.79 264.57,241.52 264.69,240.24C264.81,238.96 264.95,237.68 265.05,236.4C265.15,235.12 265.25,233.85 265.29,232.57C265.33,231.29 265.36,230.02 265.32,228.74C265.28,227.46 265.2,226.18 265.05,224.91C264.9,223.63 264.69,222.34 264.42,221.07C264.15,219.79 263.82,218.51 263.45,217.24C263.08,215.96 262.65,214.68 262.2,213.41C261.74,212.13 261.23,210.85 260.71,209.58C260.18,208.3 259.62,207.01 259.04,205.74C258.45,204.46 257.83,203.18 257.19,201.91C256.55,200.63 255.88,199.35 255.21,198.08C254.54,196.8 253.85,195.53 253.18,194.25C252.51,192.97 251.84,191.69 251.21,190.41C250.58,189.14 249.97,187.86 249.41,186.58C248.86,185.31 248.33,184.04 247.87,182.75C247.41,181.48 247,180.2 246.64,178.91C246.28,177.64 245.98,176.36 245.7,175.08C245.42,173.81 245.19,172.53 244.97,171.25C244.75,169.98 244.56,168.7 244.36,167.42C244.16,166.14 243.98,164.86 243.77,163.58C243.56,162.3 243.36,161.02 243.12,159.75C242.88,158.47 242.63,157.19 242.35,155.92C242.07,154.64 241.75,153.37 241.42,152.09C241.09,150.81 240.73,149.53 240.37,148.25C240.01,146.97 239.62,145.7 239.24,144.42C238.86,143.14 238.46,141.87 238.09,140.59C237.72,139.31 237.35,138.03 237.02,136.75C236.69,135.48 236.37,134.2 236.09,132.92C235.81,131.65 235.56,130.37 235.34,129.09C235.12,127.82 234.94,126.54 234.79,125.26C234.64,123.98 234.53,122.7 234.43,121.42Q234.33,120.14 234.21,117.59L233.79,117.59Q233.67,120.14 233.57,121.42C233.47,122.7 233.36,123.98 233.21,125.26C233.06,126.54 232.88,127.82 232.66,129.09C232.44,130.37 232.19,131.65 231.91,132.92C231.63,134.2 231.31,135.48 230.98,136.75C230.65,138.03 230.28,139.31 229.91,140.59C229.54,141.87 229.14,143.14 228.76,144.42C228.38,145.7 227.99,146.97 227.63,148.25C227.27,149.53 226.91,150.81 226.58,152.09C226.25,153.37 225.93,154.64 225.65,155.92C225.37,157.19 225.12,158.47 224.88,159.75C224.64,161.02 224.44,162.3 224.23,163.58C224.02,164.86 223.84,166.14 223.64,167.42C223.44,168.7 223.25,169.98 223.03,171.25C222.81,172.53 222.58,173.81 222.3,175.08C222.02,176.36 221.72,177.64 221.36,178.91C221,180.2 220.59,181.48 220.13,182.75C219.67,184.04 219.14,185.31 218.59,186.58C218.03,187.86 217.42,189.14 216.79,190.41C216.16,191.69 215.49,192.97 214.82,194.25C214.15,195.53 213.46,196.8 212.79,198.08C212.12,199.35 211.45,200.63 210.81,201.91C210.17,203.18 209.55,204.46 208.96,205.74C208.38,207.01 207.82,208.3 207.29,209.58C206.77,210.85 206.26,212.13 205.8,213.41C205.35,214.68 204.92,215.96 204.55,217.24C204.18,218.51 203.85,219.79 203.58,221.07C203.31,222.34 203.1,223.63 202.95,224.91C202.8,226.18 202.72,227.46 202.68,228.74C202.64,230.02 202.67,231.29 202.71,232.57C202.75,233.85 202.85,235.12 202.95,236.4C203.05,237.68 203.19,238.96 203.31,240.24C203.43,241.52 203.56,242.79 203.67,244.07C203.78,245.35 203.88,246.62 203.95,247.9C204.02,249.18 204.07,250.46 204.1,251.74C204.13,253.02 204.13,254.29 204.11,255.57C204.09,256.85 204.05,258.12 204,259.4C203.95,260.68 203.88,261.95 203.82,263.23C203.76,264.51 203.68,265.79 203.63,267.07C203.58,268.35 203.51,269.62 203.51,270.9C203.51,272.18 203.51,273.46 203.63,274.73C203.75,276.01 203.9,277.3 204.21,278.56C204.52,279.85 204.94,281.15 205.5,282.4C206.08,283.71 206.82,284.98 207.65,286.23C208.52,287.54 209.56,288.8 210.61,290.06C211.7,291.36 212.92,292.62 214.09,293.89C215.27,295.17 216.53,296.44 217.69,297.73C218.83,299 219.97,300.26 221.01,301.56C222.01,302.82 222.98,304.09 223.83,305.39C224.66,306.65 225.4,307.93 226.07,309.23C226.72,310.49 227.29,311.77 227.82,313.06C228.34,314.33 228.79,315.61 229.22,316.89C229.64,318.16 230.01,319.44 230.36,320.72C230.71,322 231.03,323.28 231.32,324.56C231.61,325.83 231.87,327.11 232.1,328.39C232.33,329.66 232.54,330.94 232.72,332.22C232.9,333.49 233.06,334.77 233.19,336.05C233.32,337.33 233.42,338.61 233.51,339.89C233.6,341.17 233.67,342.44 233.73,343.72C233.79,345 233.83,346.27 233.86,347.55Q233.89,348.83 233.93,351.39Z" style="vector-effect: non-scaling-stroke; stroke-width: 2px; stroke: rgb(99, 110, 250); stroke-opacity: 1; fill: rgb(99, 110, 250); fill-opacity: 0.5;"/><path class="violin" d="M390.11,399Q390.17,395.09 390.22,393.14C390.27,391.19 390.33,389.23 390.41,387.28C390.49,385.33 390.58,383.38 390.69,381.43C390.8,379.48 390.93,377.52 391.08,375.57C391.23,373.62 391.4,371.66 391.59,369.71C391.78,367.76 391.99,365.8 392.22,363.85C392.46,361.9 392.7,359.95 393,358C393.3,356.04 393.61,354.09 394,352.14C394.4,350.18 394.83,348.22 395.37,346.28C395.92,344.31 396.53,342.35 397.29,340.42C398.06,338.44 398.95,336.48 399.98,334.56C401.04,332.58 402.25,330.63 403.57,328.71C404.93,326.72 406.47,324.78 408.04,322.85C409.65,320.87 411.42,318.94 413.13,316.99C414.85,315.03 416.68,313.1 418.35,311.13C419.98,309.2 421.66,307.28 423.05,305.28C424.37,303.37 425.66,301.43 426.53,299.42C427.35,297.52 428,295.53 428.22,293.56C428.43,291.62 428.28,289.62 427.86,287.7C427.42,285.71 426.54,283.76 425.58,281.85C424.58,279.85 423.23,277.92 421.93,275.99C420.61,274.01 419.08,272.09 417.71,270.13C416.35,268.19 414.94,266.26 413.75,264.27C412.59,262.35 411.51,260.4 410.63,258.41C409.78,256.49 409.09,254.53 408.55,252.56C408.02,250.63 407.68,248.66 407.4,246.7C407.12,244.75 407.01,242.79 406.88,240.84C406.75,238.89 406.71,236.93 406.64,234.98C406.57,233.03 406.52,231.08 406.44,229.13C406.36,227.18 406.27,225.22 406.14,223.27C406.01,221.32 405.86,219.36 405.68,217.41C405.5,215.46 405.28,213.5 405.04,211.55C404.8,209.59 404.52,207.64 404.23,205.69C403.94,203.74 403.63,201.79 403.3,199.84C402.97,197.89 402.62,195.93 402.27,193.98C401.92,192.03 401.55,190.07 401.19,188.12C400.82,186.17 400.45,184.21 400.08,182.26C399.71,180.31 399.34,178.36 398.96,176.41C398.58,174.46 398.2,172.5 397.82,170.55C397.44,168.6 397.05,166.64 396.66,164.69C396.27,162.74 395.87,160.78 395.48,158.83C395.09,156.88 394.7,154.92 394.32,152.97C393.95,151.02 393.57,149.07 393.23,147.12C392.89,145.17 392.55,143.22 392.26,141.26C391.97,139.31 391.71,137.36 391.48,135.4C391.25,133.45 391.06,131.49 390.89,129.54C390.73,127.59 390.6,125.64 390.49,123.69Q390.38,121.74 390.25,117.83L389.75,117.83Q389.62,121.74 389.51,123.69C389.4,125.64 389.27,127.59 389.11,129.54C388.94,131.49 388.75,133.45 388.52,135.4C388.29,137.36 388.03,139.31 387.74,141.26C387.45,143.22 387.11,145.17 386.77,147.12C386.43,149.07 386.05,151.02 385.68,152.97C385.3,154.92 384.91,156.88 384.52,158.83C384.13,160.78 383.73,162.74 383.34,164.69C382.95,166.64 382.56,168.6 382.18,170.55C381.8,172.5 381.42,174.46 381.04,176.41C380.66,178.36 380.29,180.31 379.92,182.26C379.55,184.21 379.18,186.17 378.81,188.12C378.45,190.07 378.08,192.03 377.73,193.98C377.38,195.93 377.03,197.89 376.7,199.84C376.37,201.79 376.06,203.74 375.77,205.69C375.48,207.64 375.2,209.59 374.96,211.55C374.72,213.5 374.5,215.46 374.32,217.41C374.14,219.36 373.99,221.32 373.86,223.27C373.73,225.22 373.64,227.18 373.56,229.13C373.48,231.08 373.43,233.03 373.36,234.98C373.29,236.93 373.25,238.89 373.12,240.84C372.99,242.79 372.88,244.75 372.6,246.7C372.32,248.66 371.98,250.63 371.45,252.56C370.91,254.53 370.22,256.49 369.37,258.41C368.49,260.4 367.41,262.35 366.25,264.27C365.06,266.26 363.65,268.19 362.29,270.13C360.92,272.09 359.39,274.01 358.07,275.99C356.77,277.92 355.42,279.85 354.42,281.85C353.46,283.76 352.58,285.71 352.14,287.7C351.72,289.62 351.57,291.62 351.78,293.56C352,295.53 352.65,297.52 353.47,299.42C354.34,301.43 355.63,303.37 356.95,305.28C358.34,307.28 360.02,309.2 361.65,311.13C363.32,313.1 365.15,315.03 366.87,316.99C368.58,318.94 370.35,320.87 371.96,322.85C373.53,324.78 375.07,326.72 376.43,328.71C377.75,330.63 378.96,332.58 380.02,334.56C381.05,336.48 381.94,338.44 382.71,340.42C383.47,342.35 384.08,344.31 384.63,346.28C385.17,348.22 385.6,350.18 386,352.14C386.39,354.09 386.7,356.04 387,358C387.3,359.95 387.54,361.9 387.78,363.85C388.01,365.8 388.22,367.76 388.41,369.71C388.6,371.66 388.77,373.62 388.92,375.57C389.07,377.52 389.2,379.48 389.31,381.43C389.42,383.38 389.51,385.33 389.59,387.28C389.67,389.23 389.73,391.19 389.78,393.14Q389.83,395.09 389.89,399Z" style="vector-effect: non-scaling-stroke; stroke-width: 2px; stroke: rgb(99, 110, 250); stroke-opacity: 1; fill: rgb(99, 110, 250); fill-opacity: 0.5;"/><path class="box" d="M68.45,192.87H87.56M68.45,233.49H87.56V168.74H68.45ZM78,233.49V306.73M78,168.74V140.51" style="vector-effect: non-scaling-stroke; stroke-width: 2px; stroke: rgb(99, 110, 250); stroke-opacity: 1; fill: rgb(99, 110, 250); fill-opacity: 0.5;"/><path class="box" d="M224.45,239H243.56M224.45,273.46H243.56V208.51H224.45ZM234,273.46V328.34M234,208.51V140.64" style="vector-effect: non-scaling-stroke; stroke-width: 2px; stroke: rgb(99, 110, 250); stroke-opacity: 1; fill: rgb(99, 110, 250); fill-opacity: 0.5;"/><path class="box" d="M380.45,281.28H399.55M380.45,297.32H399.55V229.72H380.45ZM390,297.32V363.46M390,229.72V153.37" style="vector-effect: non-scaling-stroke; stroke-width: 2px; stroke: rgb(99, 110, 250); stroke-opacity: 1; fill: rgb(99, 110, 250); fill-opacity: 0.5;"/><path class="mean" d="M68.45,204.58H87.56" style="fill: none; vector-effect: non-scaling-stroke; stroke-width: 2px; stroke-dasharray: 4px, 2px; stroke: rgb(99, 110, 250); stroke-opacity: 1;"/><path class="mean" d="M224.45,237.63H243.56" style="fill: none; vector-effect: non-scaling-stroke; stroke-width: 2px; stroke-dasharray: 4px, 2px; stroke: rgb(99, 110, 250); stroke-opacity: 1;"/><path class="mean" d="M380.45,264.96H399.55" style="fill: none; vector-effect: non-scaling-stroke; stroke-width: 2px; stroke-dasharray: 4px, 2px; stroke: rgb(99, 110, 250); stroke-opacity: 1;"/></g></g></g><g class="overplot"/><path class="xlines-above crisp" d="M0,0" style="fill: none;"/><path class="ylines-above crisp" d="M0,0" style="fill: none;"/><g class="overlines-above"/><g class="xaxislayer-above"><g class="xtick"><text text-anchor="middle" x="0" y="533" transform="translate(158,0)" style="font-family: 'Open Sans', verdana, arial, sans-serif; font-size: 12px; fill: rgb(42, 63, 95); fill-opacity: 1; white-space: pre; opacity: 1;">&#60;=1</text></g><g class="xtick"><text text-anchor="middle" x="0" y="533" transform="translate(314,0)" style="font-family: 'Open Sans', verdana, arial, sans-serif; font-size: 12px; fill: rgb(42, 63, 95); fill-opacity: 1; white-space: pre; opacity: 1;">(1, 2]</text></g><g class="xtick"><text text-anchor="middle" x="0" y="533" transform="translate(470,0)" style="font-family: 'Open Sans', verdana, arial, sans-serif; font-size: 12px; fill: rgb(42, 63, 95); fill-opacity: 1; white-space: pre; opacity: 1;">>2</text></g></g><g class="yaxislayer-above"><g class="ytick"><text text-anchor="end" x="79" y="4.199999999999999" transform="translate(0,480.69)" style="font-family: 'Open Sans', verdana, arial, sans-serif; font-size: 12px; fill: rgb(42, 63, 95); fill-opacity: 1; white-space: pre; opacity: 1;">0</text></g><g class="ytick"><text text-anchor="end" x="79" y="4.199999999999999" style="font-family: 'Open Sans', verdana, arial, sans-serif; font-size: 12px; fill: rgb(42, 63, 95); fill-opacity: 1; white-space: pre; opacity: 1;" transform="translate(0,414.42)">5</text></g><g class="ytick"><text text-anchor="end" x="79" y="4.199999999999999" style="font-family: 'Open Sans', verdana, arial, sans-serif; font-size: 12px; fill: rgb(42, 63, 95); fill-opacity: 1; white-space: pre; opacity: 1;" transform="translate(0,348.14)">10</text></g><g class="ytick"><text text-anchor="end" x="79" y="4.199999999999999" style="font-family: 'Open Sans', verdana, arial, sans-serif; font-size: 12px; fill: rgb(42, 63, 95); fill-opacity: 1; white-space: pre; opacity: 1;" transform="translate(0,281.86)">15</text></g><g class="ytick"><text text-anchor="end" x="79" y="4.199999999999999" style="font-family: 'Open Sans', verdana, arial, sans-serif; font-size: 12px; fill: rgb(42, 63, 95); fill-opacity: 1; white-space: pre; opacity: 1;" transform="translate(0,215.59)">20</text></g><g class="ytick"><text text-anchor="end" x="79" y="4.199999999999999" style="font-family: 'Open Sans', verdana, arial, sans-serif; font-size: 12px; fill: rgb(42, 63, 95); fill-opacity: 1; white-space: pre; opacity: 1;" transform="translate(0,149.31)">25</text></g></g><g class="overaxes-above"/></g><g class="subplot x2y2"><g class="layer-subplot"><g class="shapelayer"/><g class="imagelayer"/></g><g class="minor-gridlayer"><g class="x2"/><g class="y2"/></g><g class="gridlayer"><g class="x2"/><g class="y2"><path class="y2grid crisp" transform="translate(0,414.42)" d="M652,0h467.99999999999994" style="stroke: rgb(255, 255, 255); stroke-opacity: 1; stroke-width: 1px;"/><path class="y2grid crisp" transform="translate(0,348.14)" d="M652,0h467.99999999999994" style="stroke: rgb(255, 255, 255); stroke-opacity: 1; stroke-width: 1px;"/><path class="y2grid crisp" transform="translate(0,281.86)" d="M652,0h467.99999999999994" style="stroke: rgb(255, 255, 255); stroke-opacity: 1; stroke-width: 1px;"/><path class="y2grid crisp" transform="translate(0,215.59)" d="M652,0h467.99999999999994" style="stroke: rgb(255, 255, 255); stroke-opacity: 1; stroke-width: 1px;"/><path class="y2grid crisp" transform="translate(0,149.31)" d="M652,0h467.99999999999994" style="stroke: rgb(255, 255, 255); stroke-opacity: 1; stroke-width: 1px;"/></g></g><g class="zerolinelayer"><path class="y2zl zl crisp" transform="translate(0,480.69)" d="M652,0h467.99999999999994" style="stroke: rgb(255, 255, 255); stroke-opacity: 1; stroke-width: 2px;"/></g><path class="xlines-below"/><path class="ylines-below"/><g class="overlines-below"/><g class="xaxislayer-below"/><g class="yaxislayer-below"/><g class="overaxes-below"/><g class="plot" transform="translate(652,100)" clip-path="url(#clip36be50x2y2plot)"><g class="violinlayer mlayer"><g class="trace violins" style="opacity: 1;"><path class="violin" d="M78.08,392.47Q78.12,388.17 78.16,386.02C78.19,383.87 78.24,381.73 78.29,379.58C78.34,377.43 78.41,375.28 78.48,373.13C78.56,370.98 78.64,368.83 78.74,366.68C78.84,364.53 78.95,362.39 79.08,360.24C79.21,358.09 79.34,355.94 79.5,353.79C79.66,351.64 79.82,349.5 80.02,347.35C80.22,345.2 80.43,343.05 80.68,340.9C80.93,338.75 81.2,336.6 81.53,334.46C81.86,332.31 82.22,330.15 82.65,328.01C83.08,325.86 83.55,323.71 84.09,321.57C84.63,319.41 85.25,317.26 85.89,315.12C86.54,312.97 87.25,310.82 87.97,308.68C88.69,306.53 89.46,304.38 90.19,302.23C90.92,300.08 91.66,297.94 92.33,295.79C93,293.65 93.65,291.5 94.21,289.34C94.77,287.2 95.26,285.05 95.7,282.9C96.14,280.76 96.49,278.6 96.83,276.45C97.16,274.31 97.44,272.16 97.71,270.01C97.98,267.86 98.21,265.71 98.47,263.56C98.73,261.41 98.98,259.27 99.26,257.12C99.54,254.97 99.82,252.82 100.13,250.67C100.44,248.52 100.76,246.38 101.12,244.23C101.48,242.08 101.86,239.93 102.27,237.78C102.69,235.63 103.12,233.48 103.61,231.34C104.1,229.19 104.61,227.03 105.19,224.89C105.77,222.74 106.41,220.59 107.09,218.45C107.78,216.29 108.53,214.14 109.3,212C110.07,209.85 110.91,207.71 111.69,205.56C112.46,203.41 113.29,201.27 113.95,199.11C114.6,196.98 115.24,194.83 115.62,192.67C115.99,190.54 116.24,188.37 116.22,186.22C116.2,184.07 115.93,181.91 115.47,179.78C115,177.61 114.24,175.45 113.39,173.33C112.51,171.15 111.39,169.02 110.26,166.89C109.11,164.72 107.8,162.58 106.53,160.44C105.25,158.29 103.9,156.15 102.61,154C101.32,151.85 100.02,149.71 98.77,147.55C97.53,145.41 96.31,143.27 95.15,141.11C94,138.97 92.88,136.82 91.83,134.66C90.79,132.52 89.8,130.38 88.89,128.22C87.99,126.08 87.15,123.93 86.4,121.77C85.66,119.64 85,117.49 84.42,115.33C83.84,113.19 83.36,111.04 82.93,108.88C82.51,106.74 82.18,104.59 81.87,102.44C81.57,100.29 81.33,98.14 81.1,95.99C80.88,93.84 80.7,91.7 80.52,89.55C80.34,87.4 80.19,85.25 80.03,83.1C79.87,80.95 79.72,78.81 79.57,76.66C79.42,74.51 79.28,72.36 79.15,70.21C79.02,68.06 78.9,65.92 78.79,63.77C78.68,61.62 78.59,59.47 78.5,57.32C78.42,55.17 78.34,53.03 78.28,50.88Q78.22,48.73 78.15,44.43L77.85,44.43Q77.78,48.73 77.72,50.88C77.66,53.03 77.58,55.17 77.5,57.32C77.41,59.47 77.32,61.62 77.21,63.77C77.1,65.92 76.98,68.06 76.85,70.21C76.72,72.36 76.58,74.51 76.43,76.66C76.28,78.81 76.13,80.95 75.97,83.1C75.81,85.25 75.66,87.4 75.48,89.55C75.3,91.7 75.12,93.84 74.9,95.99C74.67,98.14 74.43,100.29 74.13,102.44C73.82,104.59 73.49,106.74 73.07,108.88C72.64,111.04 72.16,113.19 71.58,115.33C71,117.49 70.34,119.64 69.6,121.77C68.85,123.93 68.01,126.08 67.11,128.22C66.2,130.38 65.21,132.52 64.17,134.66C63.12,136.82 62,138.97 60.85,141.11C59.69,143.27 58.47,145.41 57.23,147.55C55.98,149.71 54.68,151.85 53.39,154C52.1,156.15 50.75,158.29 49.47,160.44C48.2,162.58 46.89,164.72 45.74,166.89C44.61,169.02 43.49,171.15 42.61,173.33C41.76,175.45 41,177.61 40.53,179.78C40.07,181.91 39.8,184.07 39.78,186.22C39.76,188.37 40.01,190.54 40.38,192.67C40.76,194.83 41.4,196.98 42.05,199.11C42.71,201.27 43.54,203.41 44.31,205.56C45.09,207.71 45.93,209.85 46.7,212C47.47,214.14 48.22,216.29 48.91,218.45C49.59,220.59 50.23,222.74 50.81,224.89C51.39,227.03 51.9,229.19 52.39,231.34C52.88,233.48 53.31,235.63 53.73,237.78C54.14,239.93 54.52,242.08 54.88,244.23C55.24,246.38 55.56,248.52 55.87,250.67C56.18,252.82 56.46,254.97 56.74,257.12C57.02,259.27 57.27,261.41 57.53,263.56C57.79,265.71 58.02,267.86 58.29,270.01C58.56,272.16 58.84,274.31 59.17,276.45C59.51,278.6 59.86,280.76 60.3,282.9C60.74,285.05 61.23,287.2 61.79,289.34C62.35,291.5 63,293.65 63.67,295.79C64.34,297.94 65.08,300.08 65.81,302.23C66.54,304.38 67.31,306.53 68.03,308.68C68.75,310.82 69.46,312.97 70.11,315.12C70.75,317.26 71.37,319.41 71.91,321.57C72.45,323.71 72.92,325.86 73.35,328.01C73.78,330.15 74.14,332.31 74.47,334.46C74.8,336.6 75.07,338.75 75.32,340.9C75.57,343.05 75.78,345.2 75.98,347.35C76.18,349.5 76.34,351.64 76.5,353.79C76.66,355.94 76.79,358.09 76.92,360.24C77.05,362.39 77.16,364.53 77.26,366.68C77.36,368.83 77.44,370.98 77.52,373.13C77.59,375.28 77.66,377.43 77.71,379.58C77.76,381.73 77.81,383.87 77.84,386.02Q77.88,388.17 77.92,392.47Z" style="vector-effect: non-scaling-stroke; stroke-width: 2px; stroke: rgb(239, 85, 59); stroke-opacity: 1; fill: rgb(239, 85, 59); fill-opacity: 0.5;"/><path class="violin" d="M234.15,315.11Q234.25,312.02 234.32,310.47C234.4,308.92 234.48,307.38 234.6,305.83C234.72,304.28 234.86,302.73 235.04,301.19C235.22,299.64 235.43,298.09 235.68,296.55C235.93,295 236.21,293.46 236.53,291.92C236.85,290.37 237.21,288.82 237.6,287.28C237.99,285.73 238.42,284.18 238.88,282.64C239.35,281.09 239.84,279.54 240.39,278C240.94,276.45 241.53,274.9 242.17,273.36C242.82,271.81 243.51,270.26 244.25,268.73C245,267.17 245.82,265.63 246.67,264.09C247.53,262.53 248.44,260.99 249.37,259.45C250.3,257.9 251.29,256.36 252.25,254.81C253.21,253.26 254.2,251.72 255.14,250.17C256.07,248.63 257,247.1 257.86,245.54C258.7,244.01 259.51,242.46 260.24,240.9C260.95,239.37 261.61,237.82 262.19,236.26C262.76,234.73 263.25,233.18 263.67,231.62C264.08,230.08 264.42,228.53 264.69,226.98C264.96,225.44 265.14,223.9 265.29,222.35C265.44,220.81 265.52,219.26 265.58,217.71C265.64,216.16 265.64,214.62 265.65,213.07C265.66,211.52 265.64,209.98 265.67,208.43C265.7,206.88 265.73,205.33 265.83,203.79C265.93,202.24 266.07,200.7 266.28,199.16C266.5,197.61 266.79,196.06 267.12,194.52C267.46,192.97 267.88,191.42 268.3,189.88C268.72,188.33 269.21,186.79 269.64,185.24C270.07,183.7 270.54,182.15 270.89,180.6C271.24,179.06 271.57,177.52 271.76,175.97C271.95,174.43 272.05,172.88 272.02,171.33C271.99,169.78 271.83,168.23 271.55,166.69C271.27,165.13 270.84,163.58 270.32,162.05C269.79,160.49 269.12,158.94 268.4,157.41C267.66,155.85 266.81,154.31 265.93,152.78C265.03,151.22 264.04,149.68 263.05,148.14C262.05,146.59 260.99,145.05 259.97,143.5C258.95,141.95 257.9,140.42 256.91,138.86C255.93,137.32 254.97,135.78 254.08,134.22C253.21,132.69 252.37,131.15 251.63,129.59C250.9,128.06 250.23,126.51 249.65,124.95C249.08,123.42 248.6,121.87 248.18,120.31C247.77,118.77 247.43,117.22 247.15,115.67C246.87,114.13 246.67,112.58 246.49,111.03C246.31,109.49 246.2,107.94 246.08,106.39C245.96,104.85 245.88,103.3 245.78,101.76C245.68,100.21 245.59,98.67 245.47,97.12C245.34,95.57 245.21,94.02 245.03,92.48C244.85,90.93 244.63,89.38 244.38,87.84C244.12,86.29 243.83,84.74 243.5,83.2C243.17,81.65 242.8,80.11 242.42,78.57C242.04,77.02 241.62,75.48 241.21,73.93C240.8,72.38 240.37,70.84 239.95,69.29C239.53,67.74 239.1,66.2 238.7,64.65C238.3,63.11 237.91,61.56 237.55,60.01C237.19,58.47 236.84,56.93 236.53,55.38C236.22,53.84 235.94,52.29 235.69,50.74C235.45,49.2 235.24,47.65 235.06,46.1C234.88,44.56 234.73,43.01 234.61,41.46C234.49,39.91 234.4,38.37 234.32,36.82Q234.24,35.28 234.15,32.19L233.85,32.19Q233.76,35.28 233.68,36.82C233.6,38.37 233.51,39.91 233.39,41.46C233.27,43.01 233.12,44.56 232.94,46.1C232.76,47.65 232.55,49.2 232.31,50.74C232.06,52.29 231.78,53.84 231.47,55.38C231.16,56.93 230.81,58.47 230.45,60.01C230.09,61.56 229.7,63.11 229.3,64.65C228.9,66.2 228.47,67.74 228.05,69.29C227.63,70.84 227.2,72.38 226.79,73.93C226.38,75.48 225.96,77.02 225.58,78.57C225.2,80.11 224.83,81.65 224.5,83.2C224.17,84.74 223.88,86.29 223.62,87.84C223.37,89.38 223.15,90.93 222.97,92.48C222.79,94.02 222.66,95.57 222.53,97.12C222.41,98.67 222.32,100.21 222.22,101.76C222.12,103.3 222.04,104.85 221.92,106.39C221.8,107.94 221.69,109.49 221.51,111.03C221.33,112.58 221.13,114.13 220.85,115.67C220.57,117.22 220.23,118.77 219.82,120.31C219.4,121.87 218.92,123.42 218.35,124.95C217.77,126.51 217.1,128.06 216.37,129.59C215.63,131.15 214.79,132.69 213.92,134.22C213.03,135.78 212.07,137.32 211.09,138.86C210.1,140.42 209.05,141.95 208.03,143.5C207.01,145.05 205.95,146.59 204.95,148.14C203.96,149.68 202.97,151.22 202.07,152.78C201.19,154.31 200.34,155.85 199.6,157.41C198.88,158.94 198.21,160.49 197.68,162.05C197.16,163.58 196.73,165.13 196.45,166.69C196.17,168.23 196.01,169.78 195.98,171.33C195.95,172.88 196.05,174.43 196.24,175.97C196.43,177.52 196.76,179.06 197.11,180.6C197.46,182.15 197.93,183.7 198.36,185.24C198.79,186.79 199.28,188.33 199.7,189.88C200.12,191.42 200.54,192.97 200.88,194.52C201.21,196.06 201.5,197.61 201.72,199.16C201.93,200.7 202.07,202.24 202.17,203.79C202.27,205.33 202.3,206.88 202.33,208.43C202.36,209.98 202.34,211.52 202.35,213.07C202.36,214.62 202.36,216.16 202.42,217.71C202.48,219.26 202.56,220.81 202.71,222.35C202.86,223.9 203.04,225.44 203.31,226.98C203.58,228.53 203.92,230.08 204.33,231.62C204.75,233.18 205.24,234.73 205.81,236.26C206.39,237.82 207.05,239.37 207.76,240.9C208.49,242.46 209.3,244.01 210.14,245.54C211,247.1 211.93,248.63 212.86,250.17C213.8,251.72 214.79,253.26 215.75,254.81C216.71,256.36 217.7,257.9 218.63,259.45C219.56,260.99 220.47,262.53 221.33,264.09C222.18,265.63 223,267.17 223.75,268.73C224.49,270.26 225.18,271.81 225.83,273.36C226.47,274.9 227.06,276.45 227.61,278C228.16,279.54 228.65,281.09 229.12,282.64C229.58,284.18 230.01,285.73 230.4,287.28C230.79,288.82 231.15,290.37 231.47,291.92C231.79,293.46 232.07,295 232.32,296.55C232.57,298.09 232.78,299.64 232.96,301.19C233.14,302.73 233.28,304.28 233.4,305.83C233.52,307.38 233.6,308.92 233.68,310.47Q233.75,312.02 233.85,315.11Z" style="vector-effect: non-scaling-stroke; stroke-width: 2px; stroke: rgb(239, 85, 59); stroke-opacity: 1; fill: rgb(239, 85, 59); fill-opacity: 0.5;"/><path class="violin" d="M390.13,315.95Q390.2,311.38 390.26,309.09C390.32,306.81 390.38,304.52 390.48,302.24C390.58,299.95 390.69,297.67 390.84,295.38C390.99,293.09 391.17,290.8 391.4,288.52C391.64,286.23 391.9,283.94 392.25,281.66C392.6,279.37 392.99,277.08 393.49,274.8C393.99,272.5 394.57,270.21 395.25,267.94C395.93,265.64 396.71,263.35 397.58,261.08C398.46,258.78 399.46,256.49 400.51,254.22C401.58,251.92 402.75,249.64 403.95,247.36C405.16,245.06 406.45,242.78 407.73,240.5C409.02,238.21 410.36,235.93 411.67,233.64C412.98,231.35 414.3,229.07 415.57,226.78C416.83,224.5 418.09,222.22 419.25,219.92C420.4,217.65 421.51,215.36 422.51,213.06C423.49,210.79 424.42,208.51 425.19,206.2C425.94,203.93 426.61,201.64 427.09,199.34C427.57,197.07 427.92,194.77 428.09,192.48C428.26,190.2 428.26,187.91 428.1,185.63C427.94,183.34 427.59,181.04 427.13,178.77C426.67,176.47 426.02,174.18 425.32,171.91C424.62,169.61 423.77,167.33 422.92,165.05C422.07,162.75 421.11,160.48 420.21,158.19C419.3,155.9 418.36,153.62 417.49,151.33C416.62,149.05 415.78,146.77 415,144.47C414.23,142.19 413.51,139.9 412.85,137.61C412.19,135.33 411.6,133.04 411.05,130.75C410.5,128.47 410,126.18 409.53,123.89C409.06,121.61 408.63,119.32 408.23,117.03C407.83,114.75 407.46,112.46 407.12,110.17C406.78,107.89 406.48,105.6 406.2,103.31C405.92,101.03 405.69,98.74 405.45,96.45C405.21,94.16 405.01,91.88 404.76,89.59C404.51,87.3 404.26,85.01 403.93,82.73C403.6,80.44 403.22,78.16 402.76,75.88C402.29,73.59 401.74,71.3 401.14,69.02C400.54,66.73 399.83,64.44 399.14,62.16C398.45,59.87 397.69,57.59 396.98,55.3C396.28,53.02 395.55,50.73 394.91,48.44C394.28,46.16 393.69,43.87 393.18,41.58C392.68,39.3 392.24,37.01 391.88,34.72C391.52,32.44 391.25,30.15 391.02,27.86Q390.79,25.58 390.5,21L389.5,21Q389.21,25.58 388.98,27.86C388.75,30.15 388.48,32.44 388.12,34.72C387.76,37.01 387.32,39.3 386.82,41.58C386.31,43.87 385.72,46.16 385.09,48.44C384.45,50.73 383.72,53.02 383.02,55.3C382.31,57.59 381.55,59.87 380.86,62.16C380.17,64.44 379.46,66.73 378.86,69.02C378.26,71.3 377.71,73.59 377.24,75.88C376.78,78.16 376.4,80.44 376.07,82.73C375.74,85.01 375.49,87.3 375.24,89.59C374.99,91.88 374.79,94.16 374.55,96.45C374.31,98.74 374.08,101.03 373.8,103.31C373.52,105.6 373.22,107.89 372.88,110.17C372.54,112.46 372.17,114.75 371.77,117.03C371.37,119.32 370.94,121.61 370.47,123.89C370,126.18 369.5,128.47 368.95,130.75C368.4,133.04 367.81,135.33 367.15,137.61C366.49,139.9 365.77,142.19 365,144.47C364.22,146.77 363.38,149.05 362.51,151.33C361.64,153.62 360.7,155.9 359.79,158.19C358.89,160.48 357.93,162.75 357.08,165.05C356.23,167.33 355.38,169.61 354.68,171.91C353.98,174.18 353.33,176.47 352.87,178.77C352.41,181.04 352.06,183.34 351.9,185.63C351.74,187.91 351.74,190.2 351.91,192.48C352.08,194.77 352.43,197.07 352.91,199.34C353.39,201.64 354.06,203.93 354.81,206.2C355.58,208.51 356.51,210.79 357.49,213.06C358.49,215.36 359.6,217.65 360.75,219.92C361.91,222.22 363.17,224.5 364.43,226.78C365.7,229.07 367.02,231.35 368.33,233.64C369.64,235.93 370.98,238.21 372.27,240.5C373.55,242.78 374.84,245.06 376.05,247.36C377.25,249.64 378.42,251.92 379.49,254.22C380.54,256.49 381.54,258.78 382.42,261.08C383.29,263.35 384.07,265.64 384.75,267.94C385.43,270.21 386.01,272.5 386.51,274.8C387.01,277.08 387.4,279.37 387.75,281.66C388.1,283.94 388.36,286.23 388.6,288.52C388.83,290.8 389.01,293.09 389.16,295.38C389.31,297.67 389.42,299.95 389.52,302.24C389.62,304.52 389.68,306.81 389.74,309.09Q389.8,311.38 389.87,315.95Z" style="vector-effect: non-scaling-stroke; stroke-width: 2px; stroke: rgb(239, 85, 59); stroke-opacity: 1; fill: rgb(239, 85, 59); fill-opacity: 0.5;"/><path class="box" d="M68.44,203.47H87.55M68.44,249.2H87.55V175.9H68.44ZM78,249.2V353.79M78,175.9V83.11" style="vector-effect: non-scaling-stroke; stroke-width: 2px; stroke: rgb(239, 85, 59); stroke-opacity: 1; fill: rgb(239, 85, 59); fill-opacity: 0.5;"/><path class="box" d="M224.44,182.79H243.55M224.44,221.76H243.55V151.51H224.44ZM234,221.76V286.98M234,151.51V60.31" style="vector-effect: non-scaling-stroke; stroke-width: 2px; stroke: rgb(239, 85, 59); stroke-opacity: 1; fill: rgb(239, 85, 59); fill-opacity: 0.5;"/><path class="box" d="M380.44,177.23H399.55M380.44,208.18H399.55V133.35H380.44ZM390,208.18V274.78M390,133.35V62.17" style="vector-effect: non-scaling-stroke; stroke-width: 2px; stroke: rgb(239, 85, 59); stroke-opacity: 1; fill: rgb(239, 85, 59); fill-opacity: 0.5;"/><path class="mean" d="M68.44,211.2H87.55" style="fill: none; vector-effect: non-scaling-stroke; stroke-width: 2px; stroke-dasharray: 4px, 2px; stroke: rgb(239, 85, 59); stroke-opacity: 1;"/><path class="mean" d="M224.44,182.49H243.55" style="fill: none; vector-effect: non-scaling-stroke; stroke-width: 2px; stroke-dasharray: 4px, 2px; stroke: rgb(239, 85, 59); stroke-opacity: 1;"/><path class="mean" d="M380.44,168.54H399.55" style="fill: none; vector-effect: non-scaling-stroke; stroke-width: 2px; stroke-dasharray: 4px, 2px; stroke: rgb(239, 85, 59); stroke-opacity: 1;"/></g></g></g><g class="overplot"/><path class="xlines-above crisp" d="M0,0" style="fill: none;"/><path class="ylines-above crisp" d="M0,0" style="fill: none;"/><g class="overlines-above"/><g class="xaxislayer-above"><g class="x2tick"><text text-anchor="middle" x="0" y="533" transform="translate(730,0)" style="font-family: 'Open Sans', verdana, arial, sans-serif; font-size: 12px; fill: rgb(42, 63, 95); fill-opacity: 1; white-space: pre; opacity: 1;">&#60;=1</text></g><g class="x2tick"><text text-anchor="middle" x="0" y="533" transform="translate(886,0)" style="font-family: 'Open Sans', verdana, arial, sans-serif; font-size: 12px; fill: rgb(42, 63, 95); fill-opacity: 1; white-space: pre; opacity: 1;">(1, 2]</text></g><g class="x2tick"><text text-anchor="middle" x="0" y="533" transform="translate(1042,0)" style="font-family: 'Open Sans', verdana, arial, sans-serif; font-size: 12px; fill: rgb(42, 63, 95); fill-opacity: 1; white-space: pre; opacity: 1;">>2</text></g></g><g class="yaxislayer-above"><g class="y2tick"><text text-anchor="end" x="651" y="4.199999999999999" transform="translate(0,480.69)" style="font-family: 'Open Sans', verdana, arial, sans-serif; font-size: 12px; fill: rgb(42, 63, 95); fill-opacity: 1; white-space: pre; opacity: 1;">0</text></g><g class="y2tick"><text text-anchor="end" x="651" y="4.199999999999999" style="font-family: 'Open Sans', verdana, arial, sans-serif; font-size: 12px; fill: rgb(42, 63, 95); fill-opacity: 1; white-space: pre; opacity: 1;" transform="translate(0,414.42)">5</text></g><g class="y2tick"><text text-anchor="end" x="651" y="4.199999999999999" style="font-family: 'Open Sans', verdana, arial, sans-serif; font-size: 12px; fill: rgb(42, 63, 95); fill-opacity: 1; white-space: pre; opacity: 1;" transform="translate(0,348.14)">10</text></g><g class="y2tick"><text text-anchor="end" x="651" y="4.199999999999999" style="font-family: 'Open Sans', verdana, arial, sans-serif; font-size: 12px; fill: rgb(42, 63, 95); fill-opacity: 1; white-space: pre; opacity: 1;" transform="translate(0,281.86)">15</text></g><g class="y2tick"><text text-anchor="end" x="651" y="4.199999999999999" style="font-family: 'Open Sans', verdana, arial, sans-serif; font-size: 12px; fill: rgb(42, 63, 95); fill-opacity: 1; white-space: pre; opacity: 1;" transform="translate(0,215.59)">20</text></g><g class="y2tick"><text text-anchor="end" x="651" y="4.199999999999999" style="font-family: 'Open Sans', verdana, arial, sans-serif; font-size: 12px; fill: rgb(42, 63, 95); fill-opacity: 1; white-space: pre; opacity: 1;" transform="translate(0,149.31)">25</text></g></g><g class="overaxes-above"/></g></g><g class="polarlayer"/><g class="smithlayer"/><g class="ternarylayer"/><g class="geolayer"/><g class="funnelarealayer"/><g class="pielayer"/><g class="iciclelayer"/><g class="treemaplayer"/><g class="sunburstlayer"/><g class="glimages"/><defs id="topdefs-36be50"><g class="clips"/></defs><g class="layer-above"><g class="imagelayer"/><g class="shapelayer"/></g><g class="infolayer"><g class="g-gtitle"><text class="gtitle" x="60" y="50" text-anchor="start" dy="0em" style="font-family: 'Open Sans', verdana, arial, sans-serif; font-size: 17px; fill: rgb(42, 63, 95); opacity: 1; font-weight: normal; white-space: pre;">selling_price Distributions</text></g><g class="g-xtitle"><text class="xtitle" x="314" y="561.8" text-anchor="middle" style="font-family: 'Open Sans', verdana, arial, sans-serif; font-size: 14px; fill: rgb(42, 63, 95); opacity: 1; font-weight: normal; white-space: pre;">Hardcover over Paperback</text></g><g class="g-x2title"><text class="x2title" x="886" y="561.8" text-anchor="middle" style="font-family: 'Open Sans', verdana, arial, sans-serif; font-size: 14px; fill: rgb(42, 63, 95); opacity: 1; font-weight: normal; white-space: pre;">Hardcover over Paperback</text></g><g class="g-ytitle"><text class="ytitle" transform="rotate(-90,40.465625,310)" x="40.465625" y="310" text-anchor="middle" style="font-family: 'Open Sans', verdana, arial, sans-serif; font-size: 14px; fill: rgb(42, 63, 95); opacity: 1; font-weight: normal; white-space: pre;">selling_price</text></g><g class="g-y2title"><text class="y2title" transform="rotate(-90,612.465625,310)" x="612.465625" y="310" text-anchor="middle" style="font-family: 'Open Sans', verdana, arial, sans-serif; font-size: 14px; fill: rgb(42, 63, 95); opacity: 1; font-weight: normal; white-space: pre;">selling_price</text></g><g class="annotation" data-index="0" style="opacity: 1;"><g class="annotation-text-g" transform="rotate(0,314,87)"><g class="cursor-pointer" transform="translate(273,74)"><rect class="bg" x="0.5" y="0.5" width="82" height="25" style="stroke-width: 1px; stroke: rgb(0, 0, 0); stroke-opacity: 0; fill: rgb(0, 0, 0); fill-opacity: 0;"/><text class="annotation-text" text-anchor="middle" x="41.296875" y="19" style="font-family: 'Open Sans', verdana, arial, sans-serif; font-size: 16px; fill: rgb(42, 63, 95); fill-opacity: 1; white-space: pre;">Paperback</text></g></g></g><g class="annotation" data-index="1" style="opacity: 1;"><g class="annotation-text-g" transform="rotate(0,886,87)"><g class="cursor-pointer" transform="translate(845,74)"><rect class="bg" x="0.5" y="0.5" width="81" height="25" style="stroke-width: 1px; stroke: rgb(0, 0, 0); stroke-opacity: 0; fill: rgb(0, 0, 0); fill-opacity: 0;"/><text class="annotation-text" text-anchor="middle" x="40.921875" y="19" style="font-family: 'Open Sans', verdana, arial, sans-serif; font-size: 16px; fill: rgb(42, 63, 95); fill-opacity: 1; white-space: pre;">Hardcover</text></g></g></g></g></svg>