<svg class="main-svg" xmlns="http://www.w3.org/2000/svg" xmlns:xlink="http://www.w3.org/1999/xlink" width="1200" height="600" style="" viewBox="0 0 1200 600"><rect x="0" y="0" width="1200" height="600" style="fill: rgb(255, 255, 255); fill-opacity: 1;"/><defs id="defs-e07446"><g class="clips"><clipPath id="clipe07446xyplot" class="plotclip"><rect width="468" height="420"/></clipPath><clipPath id="clipe07446x2y2plot" class="plotclip"><rect width="467.99999999999994" height="420"/></clipPath><clipPath class="axesclip" id="clipe07446x"><rect x="80" y="0" width="468" height="600"/></clipPath><clipPath class="axesclip" id="clipe07446y"><rect x="0" y="100" width="1200" height="420"/></clipPath><clipPath class="axesclip" id="clipe07446xy"><rect x="80" y="100" width="468" height="420"/></clipPath><clipPath class="axesclip" id="clipe07446y2"><rect x="0" y="100" width="1200" height="420"/></clipPath><clipPath class="axesclip" id="clipe07446xy2"><rect x="80" y="100" width="468" height="420"/></clipPath><clipPath class="axesclip" id="clipe07446x2"><rect x="652" y="0" width="467.99999999999994" height="600"/></clipPath><clipPath class="axesclip" id="clipe07446x2y"><rect x="652" y="100" width="467.99999999999994" height="420"/></clipPath><clipPath class="axesclip" id="clipe07446x2y2"><rect x="652" y="100" width="467.99999999999994" height="420"/></clipPath></g><g class="gradients"/><g class="patterns"/></defs><g class="bglayer"><rect class="bg" x="80" y="100" width="468" height="420" style="fill: rgb(229, 236, 246); fill-opacity: 1; stroke-width: 0;"/><rect class="bg" x="652" y="100" width="467.99999999999994" height="420" style="fill: rgb(229, 236, 246); fill-opacity: 1; stroke-width: 0;"/></g><g class="layer-below"><g class="imagelayer"/><g class="shapelayer"/></g><g class="cartesianlayer"><g class="subplot xy"><g class="layer-subplot"><g class="shapelayer"/><g class="imagelayer"/></g><g class="minor-gridlayer"><g class="x"/><g class="y"/></g><g class="gridlayer"><g class="x"/><g class="y"><path class="ygrid crisp" transform="translate(0,502.71)" d="M80,0h468" style="stroke: rgb(255, 255, 255); stroke-opacity: 1; stroke-width: 1px;"/><path class="ygrid crisp" transform="translate(0,379.17)" d="M80,0h468" style="stroke: rgb(255, 255, 255); stroke-opacity: 1; stroke-width: 1px;"/><path class="ygrid crisp" transform="translate(0,317.39)" d="M80,0h468" style="stroke: rgb(255, 255, 255); stroke-opacity: 1; stroke-width: 1px;"/><path class="ygrid crisp" transform="translate(0,255.62)" d="M80,0h468" style="stroke: rgb(255, 255, 255); stroke-opacity: 1; stroke-width: 1px;"/><path class="ygrid crisp" transform="translate(0,193.85)" d="M80,0h468" style="stroke: rgb(255, 255, 255); stroke-opacity: 1; stroke-width: 1px;"/><path class="ygrid crisp" transform="translate(0,132.07999999999998)" d="M80,0h468" style="stroke: rgb(255, 255, 255); stroke-opacity: 1; stroke-width: 1px;"/></g></g><g class="zerolinelayer"><path class="yzl zl crisp" transform="translate(0,440.94)" d="M80,0h468" style="stroke: rgb(255, 255, 255); stroke-opacity: 1; stroke-width: 2px;"/></g><path class="xlines-below"/><path class="ylines-below"/><g class="overlines-below"/><g class="xaxislayer-below"/><g class="yaxislayer-below"/><g class="overaxes-below"/><g class="plot" transform="translate(80,100)" clip-path="url(#clipe07446xyplot)"><g class="violinlayer mlayer"><g class="trace violins" style="opacity: 1;"><path class="violin" d="M78.81,384.5Q79.27,379.49 79.64,377C80.01,374.5 80.45,371.99 81.03,369.51C81.61,367 82.31,364.49 83.12,362.01C83.94,359.5 84.9,357 85.9,354.52C86.91,352.01 88.06,349.52 89.17,347.02C90.28,344.52 91.48,342.04 92.55,339.53C93.61,337.04 94.68,334.55 95.55,332.03C96.41,329.55 97.19,327.06 97.76,324.54C98.32,322.06 98.73,319.55 98.97,317.04C99.21,314.55 99.26,312.05 99.23,309.55C99.2,307.05 99.01,304.55 98.81,302.05C98.61,299.55 98.3,297.05 98.01,294.55C97.71,292.05 97.37,289.56 97.04,287.06C96.71,284.56 96.37,282.06 96.02,279.56C95.67,277.06 95.31,274.57 94.93,272.07C94.55,269.57 94.16,267.07 93.75,264.57C93.33,262.07 92.89,259.58 92.44,257.08C91.99,254.58 91.52,252.08 91.05,249.58C90.59,247.08 90.1,244.59 89.65,242.09C89.2,239.59 88.75,237.09 88.35,234.59C87.95,232.09 87.57,229.6 87.24,227.1C86.91,224.6 86.62,222.1 86.38,219.6C86.14,217.1 85.95,214.61 85.8,212.11C85.65,209.61 85.54,207.11 85.46,204.61C85.38,202.11 85.33,199.61 85.3,197.11C85.27,194.61 85.27,192.12 85.27,189.62C85.27,187.12 85.29,184.62 85.3,182.12C85.31,179.62 85.32,177.13 85.31,174.63C85.3,172.13 85.3,169.63 85.26,167.13C85.22,164.63 85.16,162.14 85.05,159.64C84.94,157.14 84.81,154.64 84.62,152.14C84.43,149.64 84.19,147.15 83.93,144.65C83.66,142.15 83.35,139.65 83.03,137.15C82.71,134.65 82.34,132.16 81.99,129.66C81.64,127.16 81.27,124.66 80.94,122.16C80.61,119.66 80.29,117.16 80.01,114.66C79.73,112.16 79.48,109.67 79.27,107.17C79.06,104.67 78.88,102.17 78.73,99.67C78.58,97.17 78.48,94.68 78.39,92.18Q78.3,89.68 78.19,84.68L77.81,84.68Q77.7,89.68 77.61,92.18C77.52,94.68 77.42,97.17 77.27,99.67C77.12,102.17 76.94,104.67 76.73,107.17C76.52,109.67 76.27,112.16 75.99,114.66C75.71,117.16 75.39,119.66 75.06,122.16C74.73,124.66 74.36,127.16 74.01,129.66C73.66,132.16 73.29,134.65 72.97,137.15C72.65,139.65 72.34,142.15 72.07,144.65C71.81,147.15 71.57,149.64 71.38,152.14C71.19,154.64 71.06,157.14 70.95,159.64C70.84,162.14 70.78,164.63 70.74,167.13C70.7,169.63 70.7,172.13 70.69,174.63C70.68,177.13 70.69,179.62 70.7,182.12C70.71,184.62 70.73,187.12 70.73,189.62C70.73,192.12 70.73,194.61 70.7,197.11C70.67,199.61 70.62,202.11 70.54,204.61C70.46,207.11 70.35,209.61 70.2,212.11C70.05,214.61 69.86,217.1 69.62,219.6C69.38,222.1 69.09,224.6 68.76,227.1C68.43,229.6 68.05,232.09 67.65,234.59C67.25,237.09 66.8,239.59 66.35,242.09C65.9,244.59 65.41,247.08 64.95,249.58C64.48,252.08 64.01,254.58 63.56,257.08C63.11,259.58 62.67,262.07 62.25,264.57C61.84,267.07 61.45,269.57 61.07,272.07C60.69,274.57 60.33,277.06 59.98,279.56C59.63,282.06 59.29,284.56 58.96,287.06C58.63,289.56 58.29,292.05 57.99,294.55C57.7,297.05 57.39,299.55 57.19,302.05C56.99,304.55 56.8,307.05 56.77,309.55C56.74,312.05 56.79,314.55 57.03,317.04C57.27,319.55 57.68,322.06 58.24,324.54C58.81,327.06 59.59,329.55 60.45,332.03C61.32,334.55 62.39,337.04 63.45,339.53C64.52,342.04 65.72,344.52 66.83,347.02C67.94,349.52 69.09,352.01 70.1,354.52C71.1,357 72.06,359.5 72.88,362.01C73.69,364.49 74.39,367 74.97,369.51C75.55,371.99 75.99,374.5 76.36,377Q76.73,379.49 77.19,384.5Z" style="vector-effect: non-scaling-stroke; stroke-width: 2px; stroke: rgb(99, 110, 250); stroke-opacity: 1; fill: rgb(99, 110, 250); fill-opacity: 0.5;"/><path class="violin" d="M235.33,367.08Q236.14,364.15 236.77,362.73C237.42,361.25 238.23,359.79 239.2,358.38C240.24,356.88 241.51,355.42 242.88,354.02C244.36,352.51 246.07,351.09 247.82,349.67C249.65,348.18 251.69,346.76 253.65,345.32C255.63,343.86 257.74,342.45 259.66,340.97C261.51,339.55 263.41,338.14 264.99,336.62C266.44,335.22 267.86,333.79 268.84,332.26C269.73,330.87 270.45,329.39 270.78,327.91C271.09,326.49 271.07,324.99 270.85,323.56C270.63,322.09 270.03,320.63 269.41,319.21C268.77,317.73 267.89,316.29 267.04,314.85C266.18,313.38 265.19,311.95 264.27,310.5C263.34,309.05 262.39,307.61 261.49,306.15C260.6,304.71 259.73,303.26 258.91,301.8C258.1,300.36 257.33,298.9 256.59,297.44C255.86,296 255.17,294.55 254.51,293.09C253.85,291.65 253.23,290.19 252.62,288.74C252.02,287.29 251.44,285.84 250.89,284.39C250.34,282.94 249.81,281.49 249.3,280.03C248.79,278.58 248.31,277.13 247.85,275.68C247.39,274.23 246.96,272.78 246.55,271.33C246.14,269.88 245.76,268.43 245.41,266.98C245.06,265.53 244.73,264.08 244.44,262.63C244.15,261.18 243.89,259.72 243.65,258.27C243.41,256.82 243.2,255.37 243.01,253.92C242.82,252.47 242.66,251.02 242.5,249.57C242.35,248.12 242.21,246.67 242.08,245.22C241.95,243.77 241.83,242.31 241.7,240.86C241.57,239.41 241.45,237.96 241.32,236.51C241.19,235.06 241.06,233.61 240.92,232.16C240.78,230.71 240.64,229.26 240.5,227.81C240.36,226.36 240.21,224.9 240.07,223.45C239.93,222 239.79,220.55 239.66,219.1C239.53,217.65 239.4,216.2 239.28,214.75C239.16,213.3 239.05,211.85 238.96,210.4C238.86,208.95 238.79,207.49 238.71,206.04C238.64,204.59 238.57,203.14 238.51,201.69C238.45,200.24 238.41,198.79 238.36,197.34C238.31,195.89 238.27,194.44 238.23,192.99C238.18,191.54 238.14,190.09 238.09,188.64C238.04,187.19 238,185.73 237.95,184.28C237.91,182.83 237.86,181.38 237.82,179.93C237.78,178.48 237.75,177.03 237.73,175.58C237.71,174.13 237.71,172.68 237.72,171.23C237.73,169.78 237.76,168.32 237.8,166.87C237.84,165.42 237.9,163.97 237.95,162.52C238,161.07 238.06,159.62 238.1,158.17C238.14,156.72 238.18,155.27 238.18,153.82C238.18,152.37 238.16,150.91 238.1,149.46C238.04,148.01 237.95,146.56 237.84,145.11C237.73,143.66 237.58,142.21 237.43,140.76C237.27,139.31 237.09,137.86 236.91,136.41C236.73,134.96 236.54,133.5 236.35,132.05C236.17,130.6 235.98,129.15 235.8,127.7C235.63,126.25 235.45,124.8 235.3,123.35C235.15,121.9 235.01,120.45 234.88,119C234.76,117.55 234.64,116.1 234.55,114.65C234.46,113.2 234.38,111.74 234.32,110.29C234.26,108.84 234.21,107.39 234.17,105.94Q234.13,104.49 234.08,101.59L233.92,101.59Q233.87,104.49 233.83,105.94C233.79,107.39 233.74,108.84 233.68,110.29C233.62,111.74 233.54,113.2 233.45,114.65C233.36,116.1 233.24,117.55 233.12,119C232.99,120.45 232.85,121.9 232.7,123.35C232.55,124.8 232.37,126.25 232.2,127.7C232.02,129.15 231.83,130.6 231.65,132.05C231.46,133.5 231.27,134.96 231.09,136.41C230.91,137.86 230.73,139.31 230.57,140.76C230.42,142.21 230.27,143.66 230.16,145.11C230.05,146.56 229.96,148.01 229.9,149.46C229.84,150.91 229.82,152.37 229.82,153.82C229.82,155.27 229.86,156.72 229.9,158.17C229.94,159.62 230,161.07 230.05,162.52C230.1,163.97 230.16,165.42 230.2,166.87C230.24,168.32 230.27,169.78 230.28,171.23C230.29,172.68 230.29,174.13 230.27,175.58C230.25,177.03 230.22,178.48 230.18,179.93C230.14,181.38 230.09,182.83 230.05,184.28C230,185.73 229.96,187.19 229.91,188.64C229.86,190.09 229.82,191.54 229.77,192.99C229.73,194.44 229.69,195.89 229.64,197.34C229.59,198.79 229.55,200.24 229.49,201.69C229.43,203.14 229.36,204.59 229.29,206.04C229.21,207.49 229.14,208.95 229.04,210.4C228.95,211.85 228.84,213.3 228.72,214.75C228.6,216.2 228.47,217.65 228.34,219.1C228.21,220.55 228.07,222 227.93,223.45C227.79,224.9 227.64,226.36 227.5,227.81C227.36,229.26 227.22,230.71 227.08,232.16C226.94,233.61 226.81,235.06 226.68,236.51C226.55,237.96 226.43,239.41 226.3,240.86C226.17,242.31 226.05,243.77 225.92,245.22C225.79,246.67 225.65,248.12 225.5,249.57C225.34,251.02 225.18,252.47 224.99,253.92C224.8,255.37 224.59,256.82 224.35,258.27C224.11,259.72 223.85,261.18 223.56,262.63C223.27,264.08 222.94,265.53 222.59,266.98C222.24,268.43 221.86,269.88 221.45,271.33C221.04,272.78 220.61,274.23 220.15,275.68C219.69,277.13 219.21,278.58 218.7,280.03C218.19,281.49 217.66,282.94 217.11,284.39C216.56,285.84 215.98,287.29 215.38,288.74C214.77,290.19 214.15,291.65 213.49,293.09C212.83,294.55 212.14,296 211.41,297.44C210.67,298.9 209.9,300.36 209.09,301.8C208.27,303.26 207.4,304.71 206.51,306.15C205.61,307.61 204.66,309.05 203.73,310.5C202.81,311.95 201.82,313.38 200.96,314.85C200.11,316.29 199.23,317.73 198.59,319.21C197.97,320.63 197.37,322.09 197.15,323.56C196.93,324.99 196.91,326.49 197.22,327.91C197.55,329.39 198.27,330.87 199.16,332.26C200.14,333.79 201.56,335.22 203.01,336.62C204.59,338.14 206.49,339.55 208.34,340.97C210.26,342.45 212.37,343.86 214.35,345.32C216.31,346.76 218.35,348.18 220.18,349.67C221.93,351.09 223.64,352.51 225.12,354.02C226.49,355.42 227.76,356.88 228.8,358.38C229.77,359.79 230.58,361.25 231.23,362.73Q231.86,364.15 232.67,367.08Z" style="vector-effect: non-scaling-stroke; stroke-width: 2px; stroke: rgb(99, 110, 250); stroke-opacity: 1; fill: rgb(99, 110, 250); fill-opacity: 0.5;"/><path class="violin" d="M392.21,372.56Q393.47,368.96 394.39,367.22C395.35,365.39 396.55,363.6 397.91,361.88C399.36,360.04 401.1,358.27 402.91,356.54C404.82,354.71 407,352.96 409.13,351.2C411.31,349.4 413.68,347.67 415.84,345.86C417.94,344.1 420.14,342.38 421.94,340.52C423.6,338.81 425.24,337.06 426.3,335.18C427.26,333.48 428.01,331.64 428.22,329.83C428.43,328.07 428.13,326.23 427.64,324.49C427.12,322.67 426.1,320.89 425.1,319.15C424.05,317.33 422.7,315.58 421.44,313.81C420.16,312.02 418.76,310.26 417.47,308.47C416.2,306.7 414.92,304.93 413.77,303.13C412.65,301.37 411.58,299.59 410.64,297.79C409.72,296.03 408.89,294.25 408.16,292.45C407.45,290.69 406.85,288.9 406.32,287.11C405.8,285.34 405.38,283.56 405.01,281.77C404.64,280 404.36,278.21 404.08,276.43C403.81,274.65 403.59,272.87 403.36,271.09C403.13,269.31 402.92,267.53 402.68,265.75C402.44,263.97 402.19,262.18 401.92,260.4C401.65,258.62 401.36,256.84 401.05,255.06C400.74,253.28 400.4,251.5 400.05,249.72C399.7,247.94 399.31,246.16 398.93,244.38C398.55,242.6 398.14,240.82 397.75,239.04C397.35,237.26 396.94,235.48 396.56,233.7C396.18,231.92 395.8,230.14 395.45,228.36C395.1,226.58 394.77,224.8 394.48,223.02C394.19,221.24 393.94,219.46 393.72,217.68C393.5,215.9 393.31,214.12 393.15,212.34C392.99,210.56 392.87,208.78 392.75,207C392.63,205.22 392.54,203.44 392.44,201.66C392.34,199.88 392.25,198.1 392.16,196.32C392.07,194.54 391.98,192.76 391.89,190.98C391.8,189.2 391.71,187.41 391.63,185.63C391.55,183.85 391.46,182.07 391.4,180.29C391.34,178.51 391.29,176.73 391.27,174.95C391.25,173.17 391.24,171.39 391.25,169.61C391.26,167.83 391.31,166.05 391.36,164.27C391.41,162.49 391.47,160.71 391.53,158.93C391.59,157.15 391.66,155.37 391.71,153.59C391.75,151.81 391.79,150.03 391.8,148.25C391.81,146.47 391.79,144.69 391.75,142.91C391.71,141.13 391.64,139.35 391.56,137.57C391.48,135.79 391.37,134.01 391.26,132.23C391.15,130.45 391.03,128.67 390.92,126.89C390.81,125.11 390.71,123.33 390.62,121.55C390.53,119.77 390.44,117.99 390.37,116.21C390.3,114.43 390.25,112.64 390.2,110.86Q390.16,109.08 390.1,105.52L389.9,105.52Q389.84,109.08 389.8,110.86C389.75,112.64 389.7,114.43 389.63,116.21C389.56,117.99 389.47,119.77 389.38,121.55C389.29,123.33 389.19,125.11 389.08,126.89C388.97,128.67 388.85,130.45 388.74,132.23C388.63,134.01 388.52,135.79 388.44,137.57C388.36,139.35 388.29,141.13 388.25,142.91C388.21,144.69 388.19,146.47 388.2,148.25C388.21,150.03 388.25,151.81 388.29,153.59C388.34,155.37 388.41,157.15 388.47,158.93C388.53,160.71 388.59,162.49 388.64,164.27C388.69,166.05 388.74,167.83 388.75,169.61C388.76,171.39 388.75,173.17 388.73,174.95C388.71,176.73 388.66,178.51 388.6,180.29C388.54,182.07 388.45,183.85 388.37,185.63C388.29,187.41 388.2,189.2 388.11,190.98C388.02,192.76 387.93,194.54 387.84,196.32C387.75,198.1 387.66,199.88 387.56,201.66C387.46,203.44 387.37,205.22 387.25,207C387.13,208.78 387.01,210.56 386.85,212.34C386.69,214.12 386.5,215.9 386.28,217.68C386.06,219.46 385.81,221.24 385.52,223.02C385.23,224.8 384.9,226.58 384.55,228.36C384.2,230.14 383.82,231.92 383.44,233.7C383.06,235.48 382.65,237.26 382.25,239.04C381.86,240.82 381.45,242.6 381.07,244.38C380.69,246.16 380.3,247.94 379.95,249.72C379.6,251.5 379.26,253.28 378.95,255.06C378.64,256.84 378.35,258.62 378.08,260.4C377.81,262.18 377.56,263.97 377.32,265.75C377.08,267.53 376.87,269.31 376.64,271.09C376.41,272.87 376.19,274.65 375.92,276.43C375.64,278.21 375.36,280 374.99,281.77C374.62,283.56 374.2,285.34 373.68,287.11C373.15,288.9 372.55,290.69 371.84,292.45C371.11,294.25 370.28,296.03 369.36,297.79C368.42,299.59 367.35,301.37 366.23,303.13C365.08,304.93 363.8,306.7 362.53,308.47C361.24,310.26 359.84,312.02 358.56,313.81C357.3,315.58 355.95,317.33 354.9,319.15C353.9,320.89 352.88,322.67 352.36,324.49C351.87,326.23 351.57,328.07 351.78,329.83C351.99,331.64 352.74,333.48 353.7,335.18C354.76,337.06 356.4,338.81 358.06,340.52C359.86,342.38 362.06,344.1 364.16,345.86C366.32,347.67 368.69,349.4 370.87,351.2C373,352.96 375.18,354.71 377.09,356.54C378.9,358.27 380.64,360.04 382.09,361.88C383.45,363.6 384.65,365.39 385.61,367.22Q386.53,368.96 387.79,372.56Z" style="vector-effect: non-scaling-stroke; stroke-width: 2px; stroke: rgb(99, 110, 250); stroke-opacity: 1; fill: rgb(99, 110, 250); fill-opacity: 0.5;"/><path class="box" d="M68.45,281.44H87.56M68.45,318.02H87.56V227.88H68.45ZM78,318.02V338.4M78,227.88V130.79" style="vector-effect: non-scaling-stroke; stroke-width: 2px; stroke: rgb(99, 110, 250); stroke-opacity: 1; fill: rgb(99, 110, 250); fill-opacity: 0.5;"/><path class="box" d="M224.45,307.57H243.56M224.45,327.66H243.56V265.41H224.45ZM234,327.66V340.91M234,265.41V172.73" style="vector-effect: non-scaling-stroke; stroke-width: 2px; stroke: rgb(99, 110, 250); stroke-opacity: 1; fill: rgb(99, 110, 250); fill-opacity: 0.5;"/><path class="box" d="M380.45,320.03H399.55M380.45,333.53H399.55V276.93H380.45ZM390,333.53V340.28M390,276.93V194.33" style="vector-effect: non-scaling-stroke; stroke-width: 2px; stroke: rgb(99, 110, 250); stroke-opacity: 1; fill: rgb(99, 110, 250); fill-opacity: 0.5;"/><path class="mean" d="M68.45,265.92H87.56" style="fill: none; vector-effect: non-scaling-stroke; stroke-width: 2px; stroke-dasharray: 4px, 2px; stroke: rgb(99, 110, 250); stroke-opacity: 1;"/><path class="mean" d="M224.45,287.94H243.56" style="fill: none; vector-effect: non-scaling-stroke; stroke-width: 2px; stroke-dasharray: 4px, 2px; stroke: rgb(99, 110, 250); stroke-opacity: 1;"/><path class="mean" d="M380.45,300.59H399.55" style="fill: none; vector-effect: non-scaling-stroke; stroke-width: 2px; stroke-dasharray: 4px, 2px; stroke: rgb(99, 110, 250); stroke-opacity: 1;"/></g></g></g><g class="overplot"/><path class="xlines-above crisp" d="M0,0" style="fill: none;"/><path class="ylines-above crisp" d="M0,0" style="fill: none;"/><g class="overlines-above"/><g class="xaxislayer-above"><g class="xtick"><text text-anchor="middle" x="0" y="533" transform="translate(158,0)" style="font-family: 'Open Sans', verdana, arial, sans-serif; font-size: 12px; fill: rgb(42, 63, 95); fill-opacity: 1; white-space: pre; opacity: 1;">&#60;=1</text></g><g class="xtick"><text text-anchor="middle" x="0" y="533" transform="translate(314,0)" style="font-family: 'Open Sans', verdana, arial, sans-serif; font-size: 12px; fill: rgb(42, 63, 95); fill-opacity: 1; white-space: pre; opacity: 1;">(1, 2]</text></g><g class="xtick"><text text-anchor="middle" x="0" y="533" transform="translate(470,0)" style="font-family: 'Open Sans', verdana, arial, sans-serif; font-size: 12px; fill: rgb(42, 63, 95); fill-opacity: 1; white-space: pre; opacity: 1;">>2</text></g></g><g class="yaxislayer-above"><g class="ytick"><text text-anchor="end" x="79" y="4.199999999999999" transform="translate(0,502.71)" style="font-family: 'Open Sans', verdana, arial, sans-serif; font-size: 12px; fill: rgb(42, 63, 95); fill-opacity: 1; white-space: pre; opacity: 1;">−20k</text></g><g class="ytick"><text text-anchor="end" x="79" y="4.199999999999999" style="font-family: 'Open Sans', verdana, arial, sans-serif; font-size: 12px; fill: rgb(42, 63, 95); fill-opacity: 1; white-space: pre; opacity: 1;" transform="translate(0,440.94)">0</text></g><g class="ytick"><text text-anchor="end" x="79" y="4.199999999999999" style="font-family: 'Open Sans', verdana, arial, sans-serif; font-size: 12px; fill: rgb(42, 63, 95); fill-opacity: 1; white-space: pre; opacity: 1;" transform="translate(0,379.17)">20k</text></g><g class="ytick"><text text-anchor="end" x="79" y="4.199999999999999" style="font-family: 'Open Sans', verdana, arial, sans-serif; font-size: 12px; fill: rgb(42, 63, 95); fill-opacity: 1; white-space: pre; opacity: 1;" transform="translate(0,317.39)">40k</text></g><g class="ytick"><text text-anchor="end" x="79" y="4.199999999999999" style="font-family: 'Open Sans', verdana, arial, sans-serif; font-size: 12px; fill: rgb(42, 63, 95); fill-opacity: 1; white-space: pre; opacity: 1;" transform="translate(0,255.62)">60k</text></g><g class="ytick"><text text-anchor="end" x="79" y="4.199999999999999" style="font-family: 'Open Sans', verdana, arial, sans-serif; font-size: 12px; fill: rgb(42, 63, 95); fill-opacity: 1; white-space: pre; opacity: 1;" transform="translate(0,193.85)">80k</text></g><g class="ytick"><text text-anchor="end" x="79" y="4.199999999999999" style="font-family: 'Open Sans', verdana, arial, sans-serif; font-size: 12px; fill: rgb(42, 63, 95); fill-opacity: 1; white-space: pre; opacity: 1;" transform="translate(0,132.07999999999998)">100k</text></g></g><g class="overaxes-above"/></g><g class="subplot x2y2"><g class="layer-subplot"><g class="shapelayer"/><g class="imagelayer"/></g><g class="minor-gridlayer"><g class="x2"/><g class="y2"/></g><g class="gridlayer"><g class="x2"/><g class="y2"><path class="y2grid crisp" transform="translate(0,502.71)" d="M652,0h467.99999999999994" style="stroke: rgb(255, 255, 255); stroke-opacity: 1; stroke-width: 1px;"/><path class="y2grid crisp" transform="translate(0,379.17)" d="M652,0h467.99999999999994" style="stroke: rgb(255, 255, 255); stroke-opacity: 1; stroke-width: 1px;"/><path class="y2grid crisp" transform="translate(0,317.39)" d="M652,0h467.99999999999994" style="stroke: rgb(255, 255, 255); stroke-opacity: 1; stroke-width: 1px;"/><path class="y2grid crisp" transform="translate(0,255.62)" d="M652,0h467.99999999999994" style="stroke: rgb(255, 255, 255); stroke-opacity: 1; stroke-width: 1px;"/><path class="y2grid crisp" transform="translate(0,193.85)" d="M652,0h467.99999999999994" style="stroke: rgb(255, 255, 255); stroke-opacity: 1; stroke-width: 1px;"/><path class="y2grid crisp" transform="translate(0,132.07999999999998)" d="M652,0h467.99999999999994" style="stroke: rgb(255, 255, 255); stroke-opacity: 1; stroke-width: 1px;"/></g></g><g class="zerolinelayer"><path class="y2zl zl crisp" transform="translate(0,440.94)" d="M652,0h467.99999999999994" style="stroke: rgb(255, 255, 255); stroke-opacity: 1; stroke-width: 2px;"/></g><path class="xlines-below"/><path class="ylines-below"/><g class="overlines-below"/><g class="xaxislayer-below"/><g class="yaxislayer-below"/><g class="overaxes-below"/><g class="plot" transform="translate(652,100)" clip-path="url(#clipe07446x2y2plot)"><g class="violinlayer mlayer"><g class="trace violins" style="opacity: 1;"><path class="violin" d="M80.75,388.23Q82.3,382.95 83.41,380.38C84.57,377.72 85.99,375.1 87.61,372.54C89.31,369.86 91.34,367.26 93.42,364.69C95.58,362.03 98.03,359.46 100.36,356.85C102.69,354.23 105.24,351.67 107.4,349C109.47,346.44 111.61,343.87 113.1,341.16C114.49,338.63 115.72,335.98 116.22,333.31C116.7,330.74 116.64,328.04 116.17,325.47C115.69,322.81 114.5,320.18 113.27,317.62C111.99,314.94 110.21,312.37 108.57,309.78C106.9,307.14 105.01,304.57 103.34,301.93C101.7,299.34 100.04,296.74 98.64,294.09C97.27,291.51 96.03,288.89 95,286.24C93.99,283.66 93.18,281.03 92.5,278.4C91.82,275.8 91.34,273.17 90.91,270.55C90.48,267.94 90.2,265.33 89.92,262.71C89.64,260.1 89.45,257.48 89.25,254.86C89.05,252.25 88.88,249.63 88.71,247.02C88.54,244.4 88.38,241.79 88.22,239.17C88.06,236.56 87.91,233.94 87.77,231.33C87.63,228.71 87.5,226.1 87.37,223.48C87.25,220.87 87.13,218.25 87.02,215.64C86.9,213.02 86.81,210.41 86.68,207.79C86.56,205.18 86.43,202.56 86.27,199.95C86.1,197.33 85.92,194.71 85.69,192.1C85.46,189.48 85.2,186.87 84.91,184.26C84.62,181.64 84.28,179.03 83.95,176.41C83.62,173.8 83.25,171.19 82.92,168.57C82.59,165.96 82.25,163.34 81.97,160.72C81.69,158.11 81.43,155.5 81.24,152.88C81.05,150.27 80.91,147.65 80.82,145.03C80.73,142.42 80.71,139.8 80.7,137.19C80.69,134.57 80.74,131.96 80.79,129.34C80.83,126.73 80.92,124.11 80.97,121.5C81.02,118.88 81.09,116.27 81.11,113.65C81.13,111.04 81.14,108.42 81.12,105.81C81.1,103.19 81.04,100.58 80.96,97.96C80.88,95.35 80.77,92.73 80.64,90.12C80.51,87.5 80.36,84.89 80.2,82.27C80.04,79.66 79.86,77.04 79.7,74.43C79.54,71.81 79.37,69.2 79.22,66.58C79.07,63.97 78.93,61.35 78.81,58.74C78.69,56.12 78.58,53.51 78.49,50.89C78.4,48.28 78.33,45.66 78.27,43.05Q78.21,40.43 78.14,35.2L77.86,35.2Q77.79,40.43 77.73,43.05C77.67,45.66 77.6,48.28 77.51,50.89C77.42,53.51 77.31,56.12 77.19,58.74C77.07,61.35 76.93,63.97 76.78,66.58C76.63,69.2 76.46,71.81 76.3,74.43C76.14,77.04 75.96,79.66 75.8,82.27C75.64,84.89 75.49,87.5 75.36,90.12C75.23,92.73 75.12,95.35 75.04,97.96C74.96,100.58 74.9,103.19 74.88,105.81C74.86,108.42 74.87,111.04 74.89,113.65C74.91,116.27 74.98,118.88 75.03,121.5C75.08,124.11 75.17,126.73 75.21,129.34C75.26,131.96 75.31,134.57 75.3,137.19C75.29,139.8 75.27,142.42 75.18,145.03C75.09,147.65 74.95,150.27 74.76,152.88C74.57,155.5 74.31,158.11 74.03,160.72C73.75,163.34 73.41,165.96 73.08,168.57C72.75,171.19 72.38,173.8 72.05,176.41C71.72,179.03 71.38,181.64 71.09,184.26C70.8,186.87 70.54,189.48 70.31,192.1C70.08,194.71 69.9,197.33 69.73,199.95C69.57,202.56 69.44,205.18 69.32,207.79C69.19,210.41 69.1,213.02 68.98,215.64C68.87,218.25 68.75,220.87 68.63,223.48C68.5,226.1 68.37,228.71 68.23,231.33C68.09,233.94 67.94,236.56 67.78,239.17C67.62,241.79 67.46,244.4 67.29,247.02C67.12,249.63 66.95,252.25 66.75,254.86C66.55,257.48 66.36,260.1 66.08,262.71C65.8,265.33 65.52,267.94 65.09,270.55C64.66,273.17 64.18,275.8 63.5,278.4C62.82,281.03 62.01,283.66 61,286.24C59.97,288.89 58.73,291.51 57.36,294.09C55.96,296.74 54.3,299.34 52.66,301.93C50.99,304.57 49.1,307.14 47.43,309.78C45.79,312.37 44.01,314.94 42.73,317.62C41.5,320.18 40.31,322.81 39.83,325.47C39.36,328.04 39.3,330.74 39.78,333.31C40.28,335.98 41.51,338.63 42.9,341.16C44.39,343.87 46.53,346.44 48.6,349C50.76,351.67 53.31,354.23 55.64,356.85C57.97,359.46 60.42,362.03 62.58,364.69C64.66,367.26 66.69,369.86 68.39,372.54C70.01,375.1 71.43,377.72 72.59,380.38Q73.7,382.95 75.25,388.23Z" style="vector-effect: non-scaling-stroke; stroke-width: 2px; stroke: rgb(239, 85, 59); stroke-opacity: 1; fill: rgb(239, 85, 59); fill-opacity: 0.5;"/><path class="violin" d="M234.57,382.64Q234.9,377.96 235.17,375.63C235.44,373.29 235.77,370.94 236.2,368.61C236.63,366.26 237.16,363.93 237.77,361.6C238.39,359.25 239.12,356.91 239.9,354.58C240.69,352.23 241.59,349.9 242.48,347.57C243.38,345.23 244.36,342.89 245.27,340.55C246.18,338.22 247.13,335.89 247.96,333.54C248.79,331.21 249.58,328.87 250.25,326.52C250.91,324.2 251.49,321.86 251.96,319.51C252.42,317.18 252.78,314.83 253.05,312.49C253.32,310.16 253.49,307.82 253.6,305.48C253.71,303.14 253.73,300.8 253.72,298.46C253.71,296.12 253.63,293.79 253.54,291.45C253.45,289.11 253.32,286.77 253.19,284.43C253.06,282.09 252.9,279.76 252.74,277.42C252.58,275.08 252.4,272.74 252.22,270.4C252.04,268.06 251.86,265.73 251.66,263.39C251.46,261.05 251.26,258.71 251.04,256.37C250.82,254.03 250.59,251.7 250.36,249.36C250.13,247.02 249.9,244.68 249.66,242.34C249.43,240 249.18,237.67 248.95,235.33C248.72,232.99 248.49,230.65 248.29,228.31C248.09,225.97 247.9,223.64 247.74,221.3C247.58,218.96 247.44,216.62 247.34,214.28C247.24,211.94 247.17,209.61 247.12,207.27C247.07,204.93 247.06,202.59 247.06,200.25C247.06,197.91 247.1,195.58 247.13,193.24C247.16,190.9 247.22,188.56 247.26,186.22C247.3,183.88 247.36,181.55 247.39,179.21C247.42,176.87 247.45,174.53 247.46,172.19C247.47,169.85 247.46,167.52 247.44,165.18C247.42,162.84 247.39,160.5 247.34,158.16C247.29,155.82 247.23,153.49 247.16,151.15C247.09,148.81 247.01,146.47 246.92,144.13C246.83,141.79 246.72,139.46 246.61,137.12C246.49,134.78 246.38,132.44 246.23,130.1C246.08,127.76 245.91,125.43 245.72,123.09C245.52,120.75 245.31,118.41 245.06,116.07C244.8,113.73 244.52,111.39 244.19,109.06C243.86,106.72 243.49,104.38 243.09,102.04C242.69,99.7 242.25,97.37 241.8,95.03C241.35,92.69 240.85,90.35 240.37,88.01C239.89,85.67 239.4,83.34 238.93,81C238.47,78.66 238,76.32 237.58,73.98C237.16,71.65 236.77,69.31 236.43,66.97C236.09,64.63 235.79,62.29 235.53,59.95C235.27,57.61 235.06,55.28 234.88,52.94C234.7,50.6 234.58,48.26 234.47,45.92Q234.36,43.58 234.23,38.91L233.77,38.91Q233.64,43.58 233.53,45.92C233.42,48.26 233.3,50.6 233.12,52.94C232.94,55.28 232.73,57.61 232.47,59.95C232.21,62.29 231.91,64.63 231.57,66.97C231.23,69.31 230.84,71.65 230.42,73.98C230,76.32 229.53,78.66 229.07,81C228.6,83.34 228.11,85.67 227.63,88.01C227.15,90.35 226.65,92.69 226.2,95.03C225.75,97.37 225.31,99.7 224.91,102.04C224.51,104.38 224.14,106.72 223.81,109.06C223.48,111.39 223.2,113.73 222.94,116.07C222.69,118.41 222.48,120.75 222.28,123.09C222.09,125.43 221.92,127.76 221.77,130.1C221.62,132.44 221.51,134.78 221.39,137.12C221.28,139.46 221.17,141.79 221.08,144.13C220.99,146.47 220.91,148.81 220.84,151.15C220.77,153.49 220.71,155.82 220.66,158.16C220.61,160.5 220.58,162.84 220.56,165.18C220.54,167.52 220.53,169.85 220.54,172.19C220.55,174.53 220.58,176.87 220.61,179.21C220.64,181.55 220.7,183.88 220.74,186.22C220.78,188.56 220.84,190.9 220.87,193.24C220.9,195.58 220.94,197.91 220.94,200.25C220.94,202.59 220.93,204.93 220.88,207.27C220.83,209.61 220.76,211.94 220.66,214.28C220.56,216.62 220.42,218.96 220.26,221.3C220.1,223.64 219.91,225.97 219.71,228.31C219.51,230.65 219.28,232.99 219.05,235.33C218.82,237.67 218.57,240 218.34,242.34C218.1,244.68 217.87,247.02 217.64,249.36C217.41,251.7 217.18,254.03 216.96,256.37C216.74,258.71 216.54,261.05 216.34,263.39C216.14,265.73 215.96,268.06 215.78,270.4C215.6,272.74 215.42,275.08 215.26,277.42C215.1,279.76 214.94,282.09 214.81,284.43C214.68,286.77 214.55,289.11 214.46,291.45C214.37,293.79 214.29,296.12 214.28,298.46C214.27,300.8 214.29,303.14 214.4,305.48C214.51,307.82 214.68,310.16 214.95,312.49C215.22,314.83 215.58,317.18 216.04,319.51C216.51,321.86 217.09,324.2 217.75,326.52C218.42,328.87 219.21,331.21 220.04,333.54C220.87,335.89 221.82,338.22 222.73,340.55C223.64,342.89 224.62,345.23 225.52,347.57C226.41,349.9 227.31,352.23 228.1,354.58C228.88,356.91 229.61,359.25 230.23,361.6C230.84,363.93 231.37,366.26 231.8,368.61C232.23,370.94 232.56,373.29 232.83,375.63Q233.1,377.96 233.43,382.64Z" style="vector-effect: non-scaling-stroke; stroke-width: 2px; stroke: rgb(239, 85, 59); stroke-opacity: 1; fill: rgb(239, 85, 59); fill-opacity: 0.5;"/><path class="violin" d="M390.31,399Q390.49,392.54 390.63,389.31C390.77,386.08 390.93,382.85 391.15,379.62C391.37,376.39 391.64,373.15 391.96,369.92C392.28,366.69 392.65,363.46 393.06,360.23C393.48,357 393.95,353.77 394.45,350.54C394.95,347.31 395.5,344.08 396.04,340.85C396.58,337.62 397.15,334.38 397.69,331.15C398.23,327.92 398.77,324.69 399.27,321.46C399.77,318.23 400.24,315 400.67,311.77C401.09,308.54 401.48,305.31 401.82,302.08C402.16,298.85 402.45,295.61 402.69,292.38C402.93,289.15 403.13,285.92 403.28,282.69C403.43,279.46 403.55,276.23 403.61,273C403.67,269.77 403.68,266.54 403.65,263.31C403.62,260.08 403.54,256.85 403.44,253.62C403.34,250.39 403.17,247.15 403.03,243.92C402.89,240.69 402.71,237.46 402.58,234.23C402.46,231 402.32,227.77 402.28,224.54C402.24,221.31 402.25,218.08 402.34,214.85C402.43,211.62 402.6,208.38 402.83,205.15C403.07,201.92 403.4,198.69 403.75,195.46C404.1,192.23 404.52,189 404.93,185.77C405.34,182.54 405.79,179.31 406.19,176.08C406.59,172.85 406.99,169.61 407.33,166.38C407.66,163.15 407.97,159.92 408.2,156.69C408.43,153.46 408.6,150.23 408.7,147C408.8,143.77 408.83,140.54 408.78,137.31C408.73,134.08 408.59,130.85 408.37,127.62C408.14,124.38 407.83,121.15 407.43,117.92C407.03,114.68 406.54,111.45 405.97,108.23C405.4,104.99 404.73,101.76 404.02,98.54C403.31,95.3 402.52,92.08 401.73,88.85C400.94,85.61 400.09,82.38 399.28,79.15C398.47,75.92 397.64,72.69 396.89,69.46C396.14,66.23 395.41,63.01 394.77,59.77C394.13,56.55 393.56,53.32 393.07,50.08C392.58,46.85 392.17,43.62 391.82,40.38C391.47,37.15 391.21,33.92 390.99,30.69Q390.77,27.46 390.49,21L389.51,21Q389.23,27.46 389.01,30.69C388.79,33.92 388.53,37.15 388.18,40.38C387.83,43.62 387.42,46.85 386.93,50.08C386.44,53.32 385.87,56.55 385.23,59.77C384.59,63.01 383.86,66.23 383.11,69.46C382.36,72.69 381.53,75.92 380.72,79.15C379.91,82.38 379.06,85.61 378.27,88.85C377.48,92.08 376.69,95.3 375.98,98.54C375.27,101.76 374.6,104.99 374.03,108.23C373.46,111.45 372.97,114.68 372.57,117.92C372.17,121.15 371.86,124.38 371.63,127.62C371.41,130.85 371.27,134.08 371.22,137.31C371.17,140.54 371.2,143.77 371.3,147C371.4,150.23 371.57,153.46 371.8,156.69C372.03,159.92 372.34,163.15 372.67,166.38C373.01,169.61 373.41,172.85 373.81,176.08C374.21,179.31 374.66,182.54 375.07,185.77C375.48,189 375.9,192.23 376.25,195.46C376.6,198.69 376.93,201.92 377.17,205.15C377.4,208.38 377.57,211.62 377.66,214.85C377.75,218.08 377.76,221.31 377.72,224.54C377.68,227.77 377.54,231 377.42,234.23C377.29,237.46 377.11,240.69 376.97,243.92C376.83,247.15 376.66,250.39 376.56,253.62C376.46,256.85 376.38,260.08 376.35,263.31C376.32,266.54 376.33,269.77 376.39,273C376.45,276.23 376.57,279.46 376.72,282.69C376.87,285.92 377.07,289.15 377.31,292.38C377.55,295.61 377.84,298.85 378.18,302.08C378.52,305.31 378.91,308.54 379.33,311.77C379.76,315 380.23,318.23 380.73,321.46C381.23,324.69 381.77,327.92 382.31,331.15C382.85,334.38 383.42,337.62 383.96,340.85C384.5,344.08 385.05,347.31 385.55,350.54C386.05,353.77 386.52,357 386.94,360.23C387.35,363.46 387.72,366.69 388.04,369.92C388.36,373.15 388.63,376.39 388.85,379.62C389.07,382.85 389.23,386.08 389.37,389.31Q389.51,392.54 389.69,399Z" style="vector-effect: non-scaling-stroke; stroke-width: 2px; stroke: rgb(239, 85, 59); stroke-opacity: 1; fill: rgb(239, 85, 59); fill-opacity: 0.5;"/><path class="box" d="M68.44,320.73H87.55M68.44,334.57H87.55V248.43H68.44ZM78,334.57V340.93M78,248.43V128.62" style="vector-effect: non-scaling-stroke; stroke-width: 2px; stroke: rgb(239, 85, 59); stroke-opacity: 1; fill: rgb(239, 85, 59); fill-opacity: 0.5;"/><path class="box" d="M224.44,239.44H243.55M224.44,295.89H243.55V165.88H224.44ZM234,295.89V340.04M234,165.88V81.51" style="vector-effect: non-scaling-stroke; stroke-width: 2px; stroke: rgb(239, 85, 59); stroke-opacity: 1; fill: rgb(239, 85, 59); fill-opacity: 0.5;"/><path class="box" d="M380.44,183.58H399.55M380.44,262.97H399.55V133.56H380.44ZM390,262.97V339.32M390,133.56V80.68" style="vector-effect: non-scaling-stroke; stroke-width: 2px; stroke: rgb(239, 85, 59); stroke-opacity: 1; fill: rgb(239, 85, 59); fill-opacity: 0.5;"/><path class="mean" d="M68.44,286.43H87.55" style="fill: none; vector-effect: non-scaling-stroke; stroke-width: 2px; stroke-dasharray: 4px, 2px; stroke: rgb(239, 85, 59); stroke-opacity: 1;"/><path class="mean" d="M224.44,229.22H243.55" style="fill: none; vector-effect: non-scaling-stroke; stroke-width: 2px; stroke-dasharray: 4px, 2px; stroke: rgb(239, 85, 59); stroke-opacity: 1;"/><path class="mean" d="M380.44,197.07H399.55" style="fill: none; vector-effect: non-scaling-stroke; stroke-width: 2px; stroke-dasharray: 4px, 2px; stroke: rgb(239, 85, 59); stroke-opacity: 1;"/></g></g></g><g class="overplot"/><path class="xlines-above crisp" d="M0,0" style="fill: none;"/><path class="ylines-above crisp" d="M0,0" style="fill: none;"/><g class="overlines-above"/><g class="xaxislayer-above"><g class="x2tick"><text text-anchor="middle" x="0" y="533" transform="translate(730,0)" style="font-family: 'Open Sans', verdana, arial, sans-serif; font-size: 12px; fill: rgb(42, 63, 95); fill-opacity: 1; white-space: pre; opacity: 1;">&#60;=1</text></g><g class="x2tick"><text text-anchor="middle" x="0" y="533" transform="translate(886,0)" style="font-family: 'Open Sans', verdana, arial, sans-serif; font-size: 12px; fill: rgb(42, 63, 95); fill-opacity: 1; white-space: pre; opacity: 1;">(1, 2]</text></g><g class="x2tick"><text text-anchor="middle" x="0" y="533" transform="translate(1042,0)" style="font-family: 'Open Sans', verdana, arial, sans-serif; font-size: 12px; fill: rgb(42, 63, 95); fill-opacity: 1; white-space: pre; opacity: 1;">>2</text></g></g><g class="yaxislayer-above"><g class="y2tick"><text text-anchor="end" x="651" y="4.199999999999999" transform="translate(0,502.71)" style="font-family: 'Open Sans', verdana, arial, sans-serif; font-size: 12px; fill: rgb(42, 63, 95); fill-opacity: 1; white-space: pre; opacity: 1;">−20k</text></g><g class="y2tick"><text text-anchor="end" x="651" y="4.199999999999999" style="font-family: 'Open Sans', verdana, arial, sans-serif; font-size: 12px; fill: rgb(42, 63, 95); fill-opacity: 1; white-space: pre; opacity: 1;" transform="translate(0,440.94)">0</text></g><g class="y2tick"><text text-anchor="end" x="651" y="4.199999999999999" style="font-family: 'Open Sans', verdana, arial, sans-serif; font-size: 12px; fill: rgb(42, 63, 95); fill-opacity: 1; white-space: pre; opacity: 1;" transform="translate(0,379.17)">20k</text></g><g class="y2tick"><text text-anchor="end" x="651" y="4.199999999999999" style="font-family: 'Open Sans', verdana, arial, sans-serif; font-size: 12px; fill: rgb(42, 63, 95); fill-opacity: 1; white-space: pre; opacity: 1;" transform="translate(0,317.39)">40k</text></g><g class="y2tick"><text text-anchor="end" x="651" y="4.199999999999999" style="font-family: 'Open Sans', verdana, arial, sans-serif; font-size: 12px; fill: rgb(42, 63, 95); fill-opacity: 1; white-space: pre; opacity: 1;" transform="translate(0,255.62)">60k</text></g><g class="y2tick"><text text-anchor="end" x="651" y="4.199999999999999" style="font-family: 'Open Sans', verdana, arial, sans-serif; font-size: 12px; fill: rgb(42, 63, 95); fill-opacity: 1; white-space: pre; opacity: 1;" transform="translate(0,193.85)">80k</text></g><g class="y2tick"><text text-anchor="end" x="651" y="4.199999999999999" style="font-family: 'Open Sans', verdana, arial, sans-serif; font-size: 12px; fill: rgb(42, 63, 95); fill-opacity: 1; white-space: pre; opacity: 1;" transform="translate(0,132.07999999999998)">100k</text></g></g><g class="overaxes-above"/></g></g><g class="polarlayer"/><g class="smithlayer"/><g class="ternarylayer"/><g class="geolayer"/><g class="funnelarealayer"/><g class="pielayer"/><g class="iciclelayer"/><g class="treemaplayer"/><g class="sunburstlayer"/><g class="glimages"/><defs id="topdefs-e07446"><g class="clips"/></defs><g class="layer-above"><g class="imagelayer"/><g class="shapelayer"/></g><g class="infolayer"><g class="g-gtitle"><text class="gtitle" x="60" y="50" text-anchor="start" dy="0em" style="font-family: 'Open Sans', verdana, arial, sans-serif; font-size: 17px; fill: rgb(42, 63, 95); opacity: 1; font-weight: normal; white-space: pre;">whole_rank Distributions</text></g><g class="g-xtitle"><text class="xtitle" x="314" y="561.8" text-anchor="middle" style="font-family: 'Open Sans', verdana, arial, sans-serif; font-size: 14px; fill: rgb(42, 63, 95); opacity: 1; font-weight: normal; white-space: pre;">Hardcover over Paperback</text></g><g class="g-x2title"><text class="x2title" x="886" y="561.8" text-anchor="middle" style="font-family: 'Open Sans', verdana, arial, sans-serif; font-size: 14px; fill: rgb(42, 63, 95); opacity: 1; font-weight: normal; white-space: pre;">Hardcover over Paperback</text></g><g class="g-ytitle"><text class="ytitle" transform="rotate(-90,27.309375000000003,310)" x="27.309375000000003" y="310" text-anchor="middle" style="font-family: 'Open Sans', verdana, arial, sans-serif; font-size: 14px; fill: rgb(42, 63, 95); opacity: 1; font-weight: normal; white-space: pre;">whole_rank</text></g><g class="g-y2title"><text class="y2title" transform="rotate(-90,599.309375,310)" x="599.309375" y="310" text-anchor="middle" style="font-family: 'Open Sans', verdana, arial, sans-serif; font-size: 14px; fill: rgb(42, 63, 95); opacity: 1; font-weight: normal; white-space: pre;">whole_rank</text></g><g class="annotation" data-index="0" style="opacity: 1;"><g class="annotation-text-g" transform="rotate(0,314,87)"><g class="cursor-pointer" transform="translate(273,74)"><rect class="bg" x="0.5" y="0.5" width="82" height="25" style="stroke-width: 1px; stroke: rgb(0, 0, 0); stroke-opacity: 0; fill: rgb(0, 0, 0); fill-opacity: 0;"/><text class="annotation-text" text-anchor="middle" x="41.296875" y="19" style="font-family: 'Open Sans', verdana, arial, sans-serif; font-size: 16px; fill: rgb(42, 63, 95); fill-opacity: 1; white-space: pre;">Paperback</text></g></g></g><g class="annotation" data-index="1" style="opacity: 1;"><g class="annotation-text-g" transform="rotate(0,886,87)"><g class="cursor-pointer" transform="translate(845,74)"><rect class="bg" x="0.5" y="0.5" width="81" height="25" style="stroke-width: 1px; stroke: rgb(0, 0, 0); stroke-opacity: 0; fill: rgb(0, 0, 0); fill-opacity: 0;"/><text class="annotation-text" text-anchor="middle" x="40.921875" y="19" style="font-family: 'Open Sans', verdana, arial, sans-serif; font-size: 16px; fill: rgb(42, 63, 95); fill-opacity: 1; white-space: pre;">Hardcover</text></g></g></g></g></svg>