<svg class="main-svg" xmlns="http://www.w3.org/2000/svg" xmlns:xlink="http://www.w3.org/1999/xlink" width="1200" height="900" style="" viewBox="0 0 1200 900"><rect x="0" y="0" width="1200" height="900" style="fill: rgb(255, 255, 255); fill-opacity: 1;"/><defs id="defs-64408c"><g class="clips"><clipPath id="clip64408cxyplot" class="plotclip"><rect width="468" height="306.00000000000006"/></clipPath><clipPath id="clip64408cx2y2plot" class="plotclip"><rect width="467.99999999999994" height="306.00000000000006"/></clipPath><clipPath id="clip64408cx3y3plot" class="plotclip"><rect width="468" height="306"/></clipPath><clipPath id="clip64408cx4y4plot" class="plotclip"><rect width="467.99999999999994" height="306"/></clipPath><clipPath class="axesclip" id="clip64408cx"><rect x="80" y="0" width="468" height="900"/></clipPath><clipPath class="axesclip" id="clip64408cy"><rect x="0" y="100" width="1200" height="306.00000000000006"/></clipPath><clipPath class="axesclip" id="clip64408cxy"><rect x="80" y="100" width="468" height="306.00000000000006"/></clipPath><clipPath class="axesclip" id="clip64408cy2"><rect x="0" y="100" width="1200" height="306.00000000000006"/></clipPath><clipPath class="axesclip" id="clip64408cxy2"><rect x="80" y="100" width="468" height="306.00000000000006"/></clipPath><clipPath class="axesclip" id="clip64408cy3"><rect x="0" y="514" width="1200" height="306"/></clipPath><clipPath class="axesclip" id="clip64408cxy3"><rect x="80" y="514" width="468" height="306"/></clipPath><clipPath class="axesclip" id="clip64408cy4"><rect x="0" y="514" width="1200" height="306"/></clipPath><clipPath class="axesclip" id="clip64408cxy4"><rect x="80" y="514" width="468" height="306"/></clipPath><clipPath class="axesclip" id="clip64408cx2"><rect x="652" y="0" width="467.99999999999994" height="900"/></clipPath><clipPath class="axesclip" id="clip64408cx2y"><rect x="652" y="100" width="467.99999999999994" height="306.00000000000006"/></clipPath><clipPath class="axesclip" id="clip64408cx2y2"><rect x="652" y="100" width="467.99999999999994" height="306.00000000000006"/></clipPath><clipPath class="axesclip" id="clip64408cx2y3"><rect x="652" y="514" width="467.99999999999994" height="306"/></clipPath><clipPath class="axesclip" id="clip64408cx2y4"><rect x="652" y="514" width="467.99999999999994" height="306"/></clipPath><clipPath class="axesclip" id="clip64408cx3"><rect x="80" y="0" width="468" height="900"/></clipPath><clipPath class="axesclip" id="clip64408cx3y"><rect x="80" y="100" width="468" height="306.00000000000006"/></clipPath><clipPath class="axesclip" id="clip64408cx3y2"><rect x="80" y="100" width="468" height="306.00000000000006"/></clipPath><clipPath class="axesclip" id="clip64408cx3y3"><rect x="80" y="514" width="468" height="306"/></clipPath><clipPath class="axesclip" id="clip64408cx3y4"><rect x="80" y="514" width="468" height="306"/></clipPath><clipPath class="axesclip" id="clip64408cx4"><rect x="652" y="0" width="467.99999999999994" height="900"/></clipPath><clipPath class="axesclip" id="clip64408cx4y"><rect x="652" y="100" width="467.99999999999994" height="306.00000000000006"/></clipPath><clipPath class="axesclip" id="clip64408cx4y2"><rect x="652" y="100" width="467.99999999999994" height="306.00000000000006"/></clipPath><clipPath class="axesclip" id="clip64408cx4y3"><rect x="652" y="514" width="467.99999999999994" height="306"/></clipPath><clipPath class="axesclip" id="clip64408cx4y4"><rect x="652" y="514" width="467.99999999999994" height="306"/></clipPath></g><g class="gradients"/><g class="patterns"/></defs><g class="bglayer"><rect class="bg" x="80" y="100" width="468" height="306.00000000000006" style="fill: rgb(229, 236, 246); fill-opacity: 1; stroke-width: 0;"/><rect class="bg" x="652" y="100" width="467.99999999999994" height="306.00000000000006" style="fill: rgb(229, 236, 246); fill-opacity: 1; stroke-width: 0;"/><rect class="bg" x="80" y="514" width="468" height="306" style="fill: rgb(229, 236, 246); fill-opacity: 1; stroke-width: 0;"/><rect class="bg" x="652" y="514" width="467.99999999999994" height="306" style="fill: rgb(229, 236, 246); fill-opacity: 1; stroke-width: 0;"/></g><g class="layer-below"><g class="imagelayer"/><g class="shapelayer"/></g><g class="cartesianlayer"><g class="subplot xy"><g class="layer-subplot"><g class="shapelayer"/><g class="imagelayer"/></g><g class="minor-gridlayer"><g class="x"/><g class="y"/></g><g class="gridlayer"><g class="x"/><g class="y"><path class="ygrid crisp" transform="translate(0,304.66999999999996)" d="M80,0h468" style="stroke: rgb(255, 255, 255); stroke-opacity: 1; stroke-width: 1px;"/><path class="ygrid crisp" transform="translate(0,248.99)" d="M80,0h468" style="stroke: rgb(255, 255, 255); stroke-opacity: 1; stroke-width: 1px;"/><path class="ygrid crisp" transform="translate(0,193.31)" d="M80,0h468" style="stroke: rgb(255, 255, 255); stroke-opacity: 1; stroke-width: 1px;"/><path class="ygrid crisp" transform="translate(0,137.62)" d="M80,0h468" style="stroke: rgb(255, 255, 255); stroke-opacity: 1; stroke-width: 1px;"/></g></g><g class="zerolinelayer"><path class="yzl zl crisp" transform="translate(0,360.36)" d="M80,0h468" style="stroke: rgb(255, 255, 255); stroke-opacity: 1; stroke-width: 2px;"/></g><path class="xlines-below"/><path class="ylines-below"/><g class="overlines-below"/><g class="xaxislayer-below"/><g class="yaxislayer-below"/><g class="overaxes-below"/><g class="plot" transform="translate(80,100)" clip-path="url(#clip64408cxyplot)"><g class="violinlayer mlayer"><g class="trace violins" style="opacity: 1;"><path class="violin" d="M78.21,252.88Q78.34,250.62 78.45,249.5C78.57,248.37 78.7,247.24 78.9,246.12C79.1,244.99 79.34,243.85 79.66,242.73C79.99,241.59 80.38,240.46 80.86,239.35C81.36,238.21 81.95,237.07 82.63,235.97C83.34,234.82 84.17,233.69 85.07,232.59C86.01,231.43 87.09,230.32 88.19,229.21C89.34,228.06 90.6,226.94 91.85,225.82C93.12,224.68 94.48,223.58 95.76,222.44C97.02,221.32 98.33,220.22 99.46,219.06C100.53,217.96 101.61,216.86 102.41,215.68C103.14,214.6 103.81,213.46 104.14,212.3C104.45,211.2 104.54,210.03 104.4,208.91C104.26,207.77 103.79,206.63 103.27,205.53C102.72,204.37 101.9,203.26 101.13,202.15C100.33,201.01 99.39,199.9 98.54,198.77C97.7,197.65 96.81,196.54 96.05,195.39C95.31,194.28 94.61,193.15 94.04,192C93.49,190.89 93.03,189.76 92.69,188.62C92.36,187.51 92.13,186.37 92.02,185.24C91.91,184.12 91.91,182.98 92.03,181.86C92.15,180.73 92.4,179.59 92.76,178.48C93.14,177.33 93.66,176.19 94.28,175.09C94.93,173.93 95.74,172.81 96.58,171.71C97.46,170.56 98.48,169.45 99.46,168.33C100.45,167.2 101.54,166.1 102.48,164.95C103.39,163.84 104.34,162.74 105.01,161.57C105.63,160.48 106.21,159.33 106.41,158.18C106.6,157.07 106.54,155.89 106.23,154.8C105.9,153.63 105.17,152.5 104.38,151.42C103.5,150.23 102.3,149.13 101.11,148.04C99.84,146.88 98.38,145.78 96.98,144.66C95.55,143.52 94.03,142.41 92.61,141.27C91.22,140.15 89.83,139.05 88.56,137.89C87.35,136.79 86.19,135.67 85.17,134.51C84.21,133.41 83.33,132.29 82.58,131.13C81.87,130.03 81.26,128.9 80.75,127.75C80.25,126.64 79.87,125.5 79.54,124.36C79.22,123.24 79,122.11 78.81,120.98Q78.62,119.86 78.39,117.6L77.61,117.6Q77.38,119.86 77.19,120.98C77,122.11 76.78,123.24 76.46,124.36C76.13,125.5 75.75,126.64 75.25,127.75C74.74,128.9 74.13,130.03 73.42,131.13C72.67,132.29 71.79,133.41 70.83,134.51C69.81,135.67 68.65,136.79 67.44,137.89C66.17,139.05 64.78,140.15 63.39,141.27C61.97,142.41 60.45,143.52 59.02,144.66C57.62,145.78 56.16,146.88 54.89,148.04C53.7,149.13 52.5,150.23 51.62,151.42C50.83,152.5 50.1,153.63 49.77,154.8C49.46,155.89 49.4,157.07 49.59,158.18C49.79,159.33 50.37,160.48 50.99,161.57C51.66,162.74 52.61,163.84 53.52,164.95C54.46,166.1 55.55,167.2 56.54,168.33C57.52,169.45 58.54,170.56 59.42,171.71C60.26,172.81 61.07,173.93 61.72,175.09C62.34,176.19 62.86,177.33 63.24,178.48C63.6,179.59 63.85,180.73 63.97,181.86C64.09,182.98 64.09,184.12 63.98,185.24C63.87,186.37 63.64,187.51 63.31,188.62C62.97,189.76 62.51,190.89 61.96,192C61.39,193.15 60.69,194.28 59.95,195.39C59.19,196.54 58.3,197.65 57.46,198.77C56.61,199.9 55.67,201.01 54.87,202.15C54.1,203.26 53.28,204.37 52.73,205.53C52.21,206.63 51.74,207.77 51.6,208.91C51.46,210.03 51.55,211.2 51.86,212.3C52.19,213.46 52.86,214.6 53.59,215.68C54.39,216.86 55.47,217.96 56.54,219.06C57.67,220.22 58.98,221.32 60.24,222.44C61.52,223.58 62.88,224.68 64.15,225.82C65.4,226.94 66.66,228.06 67.81,229.21C68.91,230.32 69.99,231.43 70.93,232.59C71.83,233.69 72.66,234.82 73.37,235.97C74.05,237.07 74.64,238.21 75.14,239.35C75.62,240.46 76.01,241.59 76.34,242.73C76.66,243.85 76.9,244.99 77.1,246.12C77.3,247.24 77.43,248.37 77.55,249.5Q77.66,250.62 77.79,252.88Z" style="vector-effect: non-scaling-stroke; stroke-width: 2px; stroke: rgb(99, 110, 250); stroke-opacity: 1; fill: rgb(99, 110, 250); fill-opacity: 0.5;"/><path class="violin" d="M234.06,249.93Q234.09,248.66 234.12,248.03C234.15,247.39 234.18,246.76 234.22,246.12C234.26,245.49 234.31,244.85 234.37,244.22C234.43,243.59 234.5,242.95 234.58,242.32C234.67,241.69 234.76,241.05 234.88,240.42C235,239.79 235.13,239.15 235.28,238.52C235.43,237.88 235.6,237.25 235.8,236.62C236,235.98 236.22,235.35 236.46,234.72C236.71,234.08 236.98,233.45 237.28,232.82C237.58,232.18 237.91,231.54 238.26,230.91C238.61,230.27 238.99,229.64 239.39,229.01C239.79,228.37 240.22,227.74 240.67,227.11C241.13,226.47 241.61,225.83 242.13,225.21C242.66,224.57 243.21,223.93 243.81,223.31C244.44,222.66 245.1,222.02 245.82,221.41C246.59,220.76 247.43,220.12 248.32,219.51C249.27,218.85 250.3,218.22 251.37,217.6C252.5,216.95 253.72,216.33 254.93,215.7C256.17,215.06 257.48,214.44 258.72,213.8C259.92,213.17 261.18,212.57 262.26,211.9C263.25,211.29 264.26,210.7 264.98,210C265.59,209.41 266.2,208.77 266.39,208.1C266.56,207.5 266.48,206.8 266.23,206.2C265.94,205.52 265.25,204.9 264.59,204.3C263.84,203.62 262.84,203.01 261.91,202.39C260.94,201.74 259.84,201.14 258.86,200.49C257.92,199.87 256.94,199.26 256.16,198.59C255.47,197.99 254.77,197.37 254.36,196.69C254,196.09 253.77,195.43 253.73,194.79C253.69,194.16 253.91,193.51 254.12,192.89C254.34,192.24 254.75,191.62 255.06,190.99C255.37,190.36 255.76,189.74 255.97,189.09C256.17,188.47 256.33,187.81 256.31,187.18C256.29,186.54 256.11,185.9 255.87,185.28C255.61,184.63 255.18,184 254.77,183.38C254.35,182.73 253.82,182.12 253.37,181.48C252.93,180.85 252.46,180.23 252.12,179.58C251.8,178.96 251.5,178.32 251.38,177.68C251.26,177.06 251.25,176.4 251.36,175.78C251.47,175.14 251.76,174.49 252.08,173.88C252.43,173.22 252.91,172.59 253.41,171.97C253.94,171.32 254.57,170.69 255.2,170.07C255.85,169.43 256.55,168.8 257.24,168.17C257.94,167.53 258.67,166.91 259.37,166.27C260.07,165.64 260.78,165.01 261.44,164.37C262.09,163.74 262.73,163.12 263.31,162.47C263.86,161.85 264.4,161.22 264.83,160.57C265.23,159.95 265.61,159.32 265.84,158.67C266.05,158.05 266.2,157.39 266.18,156.76C266.16,156.12 265.98,155.46 265.69,154.86C265.36,154.19 264.82,153.56 264.23,152.96C263.56,152.28 262.7,151.66 261.8,151.06C260.81,150.39 259.66,149.77 258.5,149.16C257.27,148.51 255.93,147.89 254.62,147.26C253.28,146.62 251.89,146 250.56,145.36C249.26,144.73 247.94,144.11 246.72,143.46C245.57,142.84 244.44,142.21 243.42,141.55C242.47,140.94 241.58,140.31 240.78,139.65C240.05,139.04 239.38,138.41 238.79,137.75C238.24,137.14 237.74,136.5 237.31,135.85C236.9,135.23 236.55,134.59 236.23,133.95C235.92,133.33 235.66,132.69 235.43,132.05C235.21,131.42 235.03,130.79 234.87,130.15C234.71,129.52 234.59,128.89 234.49,128.25Q234.39,127.62 234.25,126.34L233.75,126.34Q233.61,127.62 233.51,128.25C233.41,128.89 233.29,129.52 233.13,130.15C232.97,130.79 232.79,131.42 232.57,132.05C232.34,132.69 232.08,133.33 231.77,133.95C231.45,134.59 231.1,135.23 230.69,135.85C230.26,136.5 229.76,137.14 229.21,137.75C228.62,138.41 227.95,139.04 227.22,139.65C226.42,140.31 225.53,140.94 224.58,141.55C223.56,142.21 222.43,142.84 221.28,143.46C220.06,144.11 218.74,144.73 217.44,145.36C216.11,146 214.72,146.62 213.38,147.26C212.07,147.89 210.73,148.51 209.5,149.16C208.34,149.77 207.19,150.39 206.2,151.06C205.3,151.66 204.44,152.28 203.77,152.96C203.18,153.56 202.64,154.19 202.31,154.86C202.02,155.46 201.84,156.12 201.82,156.76C201.8,157.39 201.95,158.05 202.16,158.67C202.39,159.32 202.77,159.95 203.17,160.57C203.6,161.22 204.14,161.85 204.69,162.47C205.27,163.12 205.91,163.74 206.56,164.37C207.22,165.01 207.93,165.64 208.63,166.27C209.33,166.91 210.06,167.53 210.76,168.17C211.45,168.8 212.15,169.43 212.8,170.07C213.43,170.69 214.06,171.32 214.59,171.97C215.09,172.59 215.57,173.22 215.92,173.88C216.24,174.49 216.53,175.14 216.64,175.78C216.75,176.4 216.74,177.06 216.62,177.68C216.5,178.32 216.2,178.96 215.88,179.58C215.54,180.23 215.07,180.85 214.63,181.48C214.18,182.12 213.65,182.73 213.23,183.38C212.82,184 212.39,184.63 212.13,185.28C211.89,185.9 211.71,186.54 211.69,187.18C211.67,187.81 211.83,188.47 212.03,189.09C212.24,189.74 212.63,190.36 212.94,190.99C213.25,191.62 213.66,192.24 213.88,192.89C214.09,193.51 214.31,194.16 214.27,194.79C214.23,195.43 214,196.09 213.64,196.69C213.23,197.37 212.53,197.99 211.84,198.59C211.06,199.26 210.08,199.87 209.14,200.49C208.16,201.14 207.06,201.74 206.09,202.39C205.16,203.01 204.16,203.62 203.41,204.3C202.75,204.9 202.06,205.52 201.77,206.2C201.52,206.8 201.44,207.5 201.61,208.1C201.8,208.77 202.41,209.41 203.02,210C203.74,210.7 204.75,211.29 205.74,211.9C206.82,212.57 208.08,213.17 209.28,213.8C210.52,214.44 211.83,215.06 213.07,215.7C214.28,216.33 215.5,216.95 216.63,217.6C217.7,218.22 218.73,218.85 219.68,219.51C220.57,220.12 221.41,220.76 222.18,221.41C222.9,222.02 223.56,222.66 224.19,223.31C224.79,223.93 225.34,224.57 225.87,225.21C226.39,225.83 226.87,226.47 227.33,227.11C227.78,227.74 228.21,228.37 228.61,229.01C229.01,229.64 229.39,230.27 229.74,230.91C230.09,231.54 230.42,232.18 230.72,232.82C231.02,233.45 231.29,234.08 231.54,234.72C231.78,235.35 232,235.98 232.2,236.62C232.4,237.25 232.57,237.88 232.72,238.52C232.87,239.15 233,239.79 233.12,240.42C233.24,241.05 233.33,241.69 233.42,242.32C233.5,242.95 233.57,243.59 233.63,244.22C233.69,244.85 233.74,245.49 233.78,246.12C233.82,246.76 233.85,247.39 233.88,248.03Q233.91,248.66 233.94,249.93Z" style="vector-effect: non-scaling-stroke; stroke-width: 2px; stroke: rgb(99, 110, 250); stroke-opacity: 1; fill: rgb(99, 110, 250); fill-opacity: 0.5;"/><path class="violin" d="M390.03,269.53Q390.05,267.93 390.06,267.13C390.07,266.33 390.09,265.54 390.11,264.74C390.13,263.94 390.15,263.14 390.18,262.34C390.21,261.54 390.24,260.74 390.27,259.94C390.3,259.14 390.34,258.35 390.38,257.55C390.43,256.75 390.47,255.95 390.54,255.15C390.61,254.35 390.68,253.56 390.78,252.76C390.88,251.96 390.99,251.16 391.15,250.36C391.31,249.56 391.5,248.76 391.75,247.97C392.01,247.16 392.31,246.36 392.69,245.57C393.09,244.75 393.55,243.95 394.1,243.17C394.68,242.35 395.35,241.55 396.09,240.78C396.88,239.95 397.79,239.15 398.74,238.38C399.76,237.55 400.89,236.77 402.03,235.99C403.23,235.17 404.51,234.38 405.77,233.59C407.05,232.79 408.39,232.01 409.66,231.2C410.9,230.41 412.15,229.62 413.28,228.8C414.35,228.02 415.39,227.24 416.29,226.41C417.12,225.64 417.89,224.84 418.52,224.01C419.11,223.24 419.6,222.43 420,221.61C420.38,220.83 420.67,220.03 420.91,219.22C421.14,218.43 421.3,217.62 421.42,216.82C421.54,216.03 421.62,215.23 421.62,214.43C421.62,213.63 421.58,212.82 421.42,212.03C421.25,211.22 420.98,210.42 420.61,209.64C420.21,208.82 419.67,208.01 419.07,207.24C418.42,206.41 417.62,205.62 416.81,204.84C415.97,204.02 415.01,203.25 414.1,202.45C413.19,201.65 412.22,200.86 411.34,200.05C410.49,199.27 409.65,198.48 408.92,197.66C408.23,196.88 407.59,196.08 407.07,195.26C406.58,194.48 406.18,193.68 405.84,192.87C405.51,192.08 405.28,191.27 405.05,190.47C404.83,189.68 404.67,188.88 404.49,188.08C404.31,187.28 404.15,186.48 403.98,185.68C403.81,184.88 403.63,184.08 403.45,183.28C403.27,182.48 403.08,181.69 402.92,180.89C402.76,180.09 402.6,179.29 402.5,178.49C402.4,177.69 402.31,176.9 402.31,176.1C402.31,175.3 402.36,174.49 402.5,173.7C402.65,172.89 402.88,172.09 403.19,171.31C403.51,170.49 403.95,169.69 404.42,168.91C404.91,168.09 405.51,167.3 406.09,166.51C406.68,165.7 407.35,164.92 407.95,164.12C408.54,163.33 409.17,162.54 409.66,161.72C410.13,160.94 410.59,160.15 410.86,159.33C411.12,158.55 411.29,157.73 411.28,156.93C411.27,156.13 411.09,155.32 410.81,154.54C410.51,153.72 410.01,152.91 409.47,152.14C408.89,151.31 408.15,150.53 407.41,149.75C406.63,148.93 405.74,148.14 404.87,147.35C403.99,146.54 403.05,145.75 402.15,144.95C401.26,144.16 400.36,143.37 399.52,142.56C398.71,141.77 397.92,140.98 397.2,140.16C396.51,139.38 395.85,138.58 395.26,137.77C394.7,136.99 394.19,136.18 393.73,135.37C393.29,134.58 392.89,133.79 392.54,132.98C392.2,132.19 391.91,131.39 391.65,130.58C391.4,129.79 391.19,128.98 391.01,128.18C390.83,127.39 390.69,126.59 390.57,125.79Q390.45,124.99 390.3,123.39L389.7,123.39Q389.55,124.99 389.43,125.79C389.31,126.59 389.17,127.39 388.99,128.18C388.81,128.98 388.6,129.79 388.35,130.58C388.09,131.39 387.8,132.19 387.46,132.98C387.11,133.79 386.71,134.58 386.27,135.37C385.81,136.18 385.3,136.99 384.74,137.77C384.15,138.58 383.49,139.38 382.8,140.16C382.08,140.98 381.29,141.77 380.48,142.56C379.64,143.37 378.74,144.16 377.85,144.95C376.95,145.75 376.01,146.54 375.13,147.35C374.26,148.14 373.37,148.93 372.59,149.75C371.85,150.53 371.11,151.31 370.53,152.14C369.99,152.91 369.49,153.72 369.19,154.54C368.91,155.32 368.73,156.13 368.72,156.93C368.71,157.73 368.88,158.55 369.14,159.33C369.41,160.15 369.87,160.94 370.34,161.72C370.83,162.54 371.46,163.33 372.05,164.12C372.65,164.92 373.32,165.7 373.91,166.51C374.49,167.3 375.09,168.09 375.58,168.91C376.05,169.69 376.49,170.49 376.81,171.31C377.12,172.09 377.35,172.89 377.5,173.7C377.64,174.49 377.69,175.3 377.69,176.1C377.69,176.9 377.6,177.69 377.5,178.49C377.4,179.29 377.24,180.09 377.08,180.89C376.92,181.69 376.73,182.48 376.55,183.28C376.37,184.08 376.19,184.88 376.02,185.68C375.85,186.48 375.69,187.28 375.51,188.08C375.33,188.88 375.17,189.68 374.95,190.47C374.72,191.27 374.49,192.08 374.16,192.87C373.82,193.68 373.42,194.48 372.93,195.26C372.41,196.08 371.77,196.88 371.08,197.66C370.35,198.48 369.51,199.27 368.66,200.05C367.78,200.86 366.81,201.65 365.9,202.45C364.99,203.25 364.03,204.02 363.19,204.84C362.38,205.62 361.58,206.41 360.93,207.24C360.33,208.01 359.79,208.82 359.39,209.64C359.02,210.42 358.75,211.22 358.58,212.03C358.42,212.82 358.38,213.63 358.38,214.43C358.38,215.23 358.46,216.03 358.58,216.82C358.7,217.62 358.86,218.43 359.09,219.22C359.33,220.03 359.62,220.83 360,221.61C360.4,222.43 360.89,223.24 361.48,224.01C362.11,224.84 362.88,225.64 363.71,226.41C364.61,227.24 365.65,228.02 366.72,228.8C367.85,229.62 369.1,230.41 370.34,231.2C371.61,232.01 372.95,232.79 374.23,233.59C375.49,234.38 376.77,235.17 377.97,235.99C379.11,236.77 380.24,237.55 381.26,238.38C382.21,239.15 383.12,239.95 383.91,240.78C384.65,241.55 385.32,242.35 385.9,243.17C386.45,243.95 386.91,244.75 387.31,245.57C387.69,246.36 387.99,247.16 388.25,247.97C388.5,248.76 388.69,249.56 388.85,250.36C389.01,251.16 389.12,251.96 389.22,252.76C389.32,253.56 389.39,254.35 389.46,255.15C389.53,255.95 389.57,256.75 389.62,257.55C389.66,258.35 389.7,259.14 389.73,259.94C389.76,260.74 389.79,261.54 389.82,262.34C389.85,263.14 389.87,263.94 389.89,264.74C389.91,265.54 389.93,266.33 389.94,267.13Q389.95,267.93 389.97,269.53Z" style="vector-effect: non-scaling-stroke; stroke-width: 2px; stroke: rgb(99, 110, 250); stroke-opacity: 1; fill: rgb(99, 110, 250); fill-opacity: 0.5;"/><path class="box" d="M68.45,182.46H87.56M68.45,210.3H87.56V159.85H68.45ZM78,210.3V232.57M78,159.85V137.91" style="vector-effect: non-scaling-stroke; stroke-width: 2px; stroke: rgb(99, 110, 250); stroke-opacity: 1; fill: rgb(99, 110, 250); fill-opacity: 0.5;"/><path class="box" d="M224.45,183.57H243.56M224.45,204.73H243.56V160.13H224.45ZM234,204.73V238.36M234,160.13V137.91" style="vector-effect: non-scaling-stroke; stroke-width: 2px; stroke: rgb(99, 110, 250); stroke-opacity: 1; fill: rgb(99, 110, 250); fill-opacity: 0.5;"/><path class="box" d="M380.45,204.73H399.55M380.45,217.54H399.55V165.7H380.45ZM390,217.54V255.01M390,165.7V137.91" style="vector-effect: non-scaling-stroke; stroke-width: 2px; stroke: rgb(99, 110, 250); stroke-opacity: 1; fill: rgb(99, 110, 250); fill-opacity: 0.5;"/><path class="mean" d="M68.45,182.89H87.56" style="fill: none; vector-effect: non-scaling-stroke; stroke-width: 2px; stroke-dasharray: 4px, 2px; stroke: rgb(99, 110, 250); stroke-opacity: 1;"/><path class="mean" d="M224.45,182.6H243.56" style="fill: none; vector-effect: non-scaling-stroke; stroke-width: 2px; stroke-dasharray: 4px, 2px; stroke: rgb(99, 110, 250); stroke-opacity: 1;"/><path class="mean" d="M380.45,194.34H399.55" style="fill: none; vector-effect: non-scaling-stroke; stroke-width: 2px; stroke-dasharray: 4px, 2px; stroke: rgb(99, 110, 250); stroke-opacity: 1;"/></g></g></g><g class="overplot"/><path class="xlines-above crisp" d="M0,0" style="fill: none;"/><path class="ylines-above crisp" d="M0,0" style="fill: none;"/><g class="overlines-above"/><g class="xaxislayer-above"><g class="xtick"><text text-anchor="middle" x="0" y="419.00000000000006" transform="translate(158,0)" style="font-family: 'Open Sans', verdana, arial, sans-serif; font-size: 12px; fill: rgb(42, 63, 95); fill-opacity: 1; white-space: pre; opacity: 1;">&#60;=1</text></g><g class="xtick"><text text-anchor="middle" x="0" y="419.00000000000006" transform="translate(314,0)" style="font-family: 'Open Sans', verdana, arial, sans-serif; font-size: 12px; fill: rgb(42, 63, 95); fill-opacity: 1; white-space: pre; opacity: 1;">(1, 2]</text></g><g class="xtick"><text text-anchor="middle" x="0" y="419.00000000000006" transform="translate(470,0)" style="font-family: 'Open Sans', verdana, arial, sans-serif; font-size: 12px; fill: rgb(42, 63, 95); fill-opacity: 1; white-space: pre; opacity: 1;">>2</text></g></g><g class="yaxislayer-above"><g class="ytick"><text text-anchor="end" x="79" y="4.199999999999999" transform="translate(0,360.36)" style="font-family: 'Open Sans', verdana, arial, sans-serif; font-size: 12px; fill: rgb(42, 63, 95); fill-opacity: 1; white-space: pre; opacity: 1;">0</text></g><g class="ytick"><text text-anchor="end" x="79" y="4.199999999999999" style="font-family: 'Open Sans', verdana, arial, sans-serif; font-size: 12px; fill: rgb(42, 63, 95); fill-opacity: 1; white-space: pre; opacity: 1;" transform="translate(0,304.66999999999996)">10</text></g><g class="ytick"><text text-anchor="end" x="79" y="4.199999999999999" style="font-family: 'Open Sans', verdana, arial, sans-serif; font-size: 12px; fill: rgb(42, 63, 95); fill-opacity: 1; white-space: pre; opacity: 1;" transform="translate(0,248.99)">20</text></g><g class="ytick"><text text-anchor="end" x="79" y="4.199999999999999" style="font-family: 'Open Sans', verdana, arial, sans-serif; font-size: 12px; fill: rgb(42, 63, 95); fill-opacity: 1; white-space: pre; opacity: 1;" transform="translate(0,193.31)">30</text></g><g class="ytick"><text text-anchor="end" x="79" y="4.199999999999999" style="font-family: 'Open Sans', verdana, arial, sans-serif; font-size: 12px; fill: rgb(42, 63, 95); fill-opacity: 1; white-space: pre; opacity: 1;" transform="translate(0,137.62)">40</text></g></g><g class="overaxes-above"/></g><g class="subplot x2y2"><g class="layer-subplot"><g class="shapelayer"/><g class="imagelayer"/></g><g class="minor-gridlayer"><g class="x2"/><g class="y2"/></g><g class="gridlayer"><g class="x2"/><g class="y2"><path class="y2grid crisp" transform="translate(0,304.66999999999996)" d="M652,0h467.99999999999994" style="stroke: rgb(255, 255, 255); stroke-opacity: 1; stroke-width: 1px;"/><path class="y2grid crisp" transform="translate(0,248.99)" d="M652,0h467.99999999999994" style="stroke: rgb(255, 255, 255); stroke-opacity: 1; stroke-width: 1px;"/><path class="y2grid crisp" transform="translate(0,193.31)" d="M652,0h467.99999999999994" style="stroke: rgb(255, 255, 255); stroke-opacity: 1; stroke-width: 1px;"/><path class="y2grid crisp" transform="translate(0,137.62)" d="M652,0h467.99999999999994" style="stroke: rgb(255, 255, 255); stroke-opacity: 1; stroke-width: 1px;"/></g></g><g class="zerolinelayer"><path class="y2zl zl crisp" transform="translate(0,360.36)" d="M652,0h467.99999999999994" style="stroke: rgb(255, 255, 255); stroke-opacity: 1; stroke-width: 2px;"/></g><path class="xlines-below"/><path class="ylines-below"/><g class="overlines-below"/><g class="xaxislayer-below"/><g class="yaxislayer-below"/><g class="overaxes-below"/><g class="plot" transform="translate(652,100)" clip-path="url(#clip64408cx2y2plot)"><g class="violinlayer mlayer"><g class="trace violins" style="opacity: 1;"><path class="violin" d="M78.41,290.7Q78.64,286.74 78.84,284.77C79.04,282.79 79.28,280.8 79.61,278.83C79.94,276.85 80.33,274.87 80.84,272.9C81.35,270.91 81.95,268.92 82.67,266.96C83.4,264.96 84.26,262.98 85.21,261.03C86.19,259.03 87.29,257.05 88.47,255.1C89.68,253.1 91.03,251.12 92.4,249.16C93.79,247.17 95.3,245.21 96.76,243.23C98.22,241.25 99.76,239.3 101.15,237.3C102.51,235.34 103.89,233.38 105.03,231.36C106.12,229.42 107.16,227.45 107.88,225.43C108.57,223.49 109.09,221.48 109.32,219.49C109.55,217.53 109.49,215.52 109.27,213.56C109.04,211.57 108.53,209.59 107.95,207.63C107.36,205.63 106.55,203.66 105.74,201.69C104.92,199.7 103.97,197.73 103.05,195.76C102.12,193.78 101.14,191.8 100.2,189.82C99.27,187.85 98.32,185.87 97.44,183.89C96.56,181.92 95.71,179.95 94.92,177.96C94.14,175.99 93.41,174.01 92.74,172.02C92.08,170.05 91.48,168.08 90.94,166.09C90.4,164.12 89.93,162.14 89.51,160.15C89.1,158.18 88.74,156.2 88.44,154.22C88.14,152.25 87.88,150.27 87.69,148.29C87.5,146.31 87.37,144.33 87.3,142.35C87.23,140.37 87.23,138.4 87.29,136.42C87.35,134.44 87.5,132.47 87.68,130.49C87.86,128.51 88.14,126.53 88.39,124.55C88.64,122.57 88.95,120.6 89.18,118.62C89.41,116.64 89.66,114.66 89.77,112.68C89.88,110.7 89.93,108.72 89.85,106.75C89.77,104.77 89.56,102.79 89.26,100.82C88.96,98.83 88.52,96.85 88.05,94.88C87.58,92.89 86.99,90.93 86.43,88.95C85.87,86.97 85.26,84.99 84.71,83.01C84.16,81.04 83.61,79.06 83.13,77.08C82.65,75.11 82.22,73.13 81.84,71.15C81.46,69.18 81.14,67.19 80.84,65.21C80.55,63.24 80.3,61.26 80.07,59.28C79.84,57.3 79.65,55.32 79.47,53.34C79.29,51.36 79.13,49.39 78.99,47.41C78.85,45.43 78.73,43.46 78.63,41.48C78.52,39.5 78.43,37.52 78.36,35.54Q78.29,33.56 78.19,29.61L77.81,29.61Q77.71,33.56 77.64,35.54C77.57,37.52 77.48,39.5 77.37,41.48C77.27,43.46 77.15,45.43 77.01,47.41C76.87,49.39 76.71,51.36 76.53,53.34C76.35,55.32 76.16,57.3 75.93,59.28C75.7,61.26 75.45,63.24 75.16,65.21C74.86,67.19 74.54,69.18 74.16,71.15C73.78,73.13 73.35,75.11 72.87,77.08C72.39,79.06 71.84,81.04 71.29,83.01C70.74,84.99 70.13,86.97 69.57,88.95C69.01,90.93 68.42,92.89 67.95,94.88C67.48,96.85 67.04,98.83 66.74,100.82C66.44,102.79 66.23,104.77 66.15,106.75C66.07,108.72 66.12,110.7 66.23,112.68C66.34,114.66 66.59,116.64 66.82,118.62C67.05,120.6 67.36,122.57 67.61,124.55C67.86,126.53 68.14,128.51 68.32,130.49C68.5,132.47 68.65,134.44 68.71,136.42C68.77,138.4 68.77,140.37 68.7,142.35C68.63,144.33 68.5,146.31 68.31,148.29C68.12,150.27 67.86,152.25 67.56,154.22C67.26,156.2 66.9,158.18 66.49,160.15C66.07,162.14 65.6,164.12 65.06,166.09C64.52,168.08 63.92,170.05 63.26,172.02C62.59,174.01 61.86,175.99 61.08,177.96C60.29,179.95 59.44,181.92 58.56,183.89C57.68,185.87 56.73,187.85 55.8,189.82C54.86,191.8 53.88,193.78 52.95,195.76C52.03,197.73 51.08,199.7 50.26,201.69C49.45,203.66 48.64,205.63 48.05,207.63C47.47,209.59 46.96,211.57 46.73,213.56C46.51,215.52 46.45,217.53 46.68,219.49C46.91,221.48 47.43,223.49 48.12,225.43C48.84,227.45 49.88,229.42 50.97,231.36C52.11,233.38 53.49,235.34 54.85,237.3C56.24,239.3 57.78,241.25 59.24,243.23C60.7,245.21 62.21,247.17 63.6,249.16C64.97,251.12 66.32,253.1 67.53,255.1C68.71,257.05 69.81,259.03 70.79,261.03C71.74,262.98 72.6,264.96 73.33,266.96C74.05,268.92 74.65,270.91 75.16,272.9C75.67,274.87 76.06,276.85 76.39,278.83C76.72,280.8 76.96,282.79 77.16,284.77Q77.36,286.74 77.59,290.7Z" style="vector-effect: non-scaling-stroke; stroke-width: 2px; stroke: rgb(239, 85, 59); stroke-opacity: 1; fill: rgb(239, 85, 59); fill-opacity: 0.5;"/><path class="violin" d="M234.1,246.6Q234.15,244.64 234.2,243.66C234.25,242.68 234.3,241.69 234.38,240.71C234.45,239.73 234.54,238.75 234.65,237.77C234.76,236.79 234.89,235.81 235.03,234.83C235.17,233.85 235.34,232.86 235.51,231.88C235.68,230.9 235.88,229.92 236.07,228.94C236.27,227.96 236.47,226.97 236.68,225.99C236.89,225.01 237.11,224.03 237.33,223.05C237.55,222.07 237.78,221.09 238,220.11C238.23,219.13 238.45,218.14 238.68,217.16C238.91,216.18 239.14,215.2 239.36,214.22C239.58,213.24 239.8,212.25 240,211.27C240.2,210.29 240.38,209.31 240.54,208.33C240.7,207.35 240.83,206.37 240.94,205.39C241.05,204.41 241.12,203.42 241.18,202.44C241.24,201.46 241.26,200.48 241.29,199.5C241.32,198.52 241.32,197.53 241.34,196.55C241.36,195.57 241.37,194.59 241.41,193.61C241.45,192.63 241.5,191.65 241.6,190.67C241.7,189.69 241.83,188.7 242.03,187.72C242.24,186.73 242.49,185.75 242.84,184.78C243.2,183.78 243.64,182.79 244.19,181.83C244.77,180.82 245.47,179.84 246.25,178.89C247.09,177.88 248.06,176.9 249.09,175.95C250.19,174.93 251.43,173.96 252.69,173C254.01,171.99 255.44,171.03 256.86,170.06C258.3,169.07 259.82,168.1 261.27,167.11C262.69,166.14 264.15,165.18 265.47,164.17C266.71,163.22 267.97,162.27 268.97,161.23C269.87,160.29 270.75,159.32 271.26,158.28C271.72,157.34 272.03,156.32 272.01,155.34C271.99,154.36 271.6,153.34 271.12,152.4C270.59,151.37 269.7,150.4 268.83,149.45C267.9,148.43 266.74,147.48 265.66,146.51C264.57,145.52 263.37,144.56 262.31,143.56C261.29,142.6 260.25,141.64 259.41,140.62C258.63,139.67 257.91,138.7 257.42,137.68C256.96,136.73 256.63,135.72 256.49,134.73C256.35,133.76 256.42,132.76 256.56,131.79C256.71,130.8 257.04,129.81 257.38,128.84C257.72,127.85 258.19,126.88 258.61,125.9C259.03,124.92 259.5,123.95 259.89,122.96C260.27,121.98 260.63,121 260.92,120.01C261.2,119.04 261.43,118.06 261.61,117.07C261.79,116.09 261.9,115.1 262,114.12C262.1,113.14 262.16,112.16 262.22,111.18C262.28,110.2 262.33,109.22 262.36,108.24C262.39,107.26 262.41,106.27 262.37,105.29C262.33,104.31 262.27,103.32 262.1,102.35C261.93,101.36 261.69,100.36 261.33,99.4C260.95,98.4 260.45,97.41 259.86,96.46C259.23,95.45 258.46,94.48 257.64,93.52C256.78,92.51 255.79,91.54 254.81,90.57C253.8,89.58 252.7,88.61 251.67,87.63C250.65,86.65 249.59,85.69 248.64,84.69C247.73,83.73 246.83,82.75 246.07,81.74C245.35,80.78 244.7,79.8 244.16,78.8C243.65,77.84 243.24,76.85 242.9,75.85C242.57,74.88 242.36,73.89 242.16,72.91C241.96,71.93 241.84,70.95 241.7,69.97C241.55,68.99 241.45,68 241.29,67.02C241.13,66.04 240.97,65.06 240.76,64.08C240.55,63.09 240.3,62.11 240.04,61.13C239.78,60.15 239.47,59.17 239.19,58.19C238.91,57.21 238.61,56.23 238.35,55.25C238.09,54.27 237.84,53.29 237.64,52.3C237.44,51.32 237.27,50.34 237.14,49.36C237.01,48.38 236.93,47.39 236.86,46.41C236.79,45.43 236.77,44.45 236.72,43.47C236.68,42.49 236.64,41.51 236.59,40.53C236.53,39.55 236.48,38.56 236.39,37.58C236.3,36.6 236.19,35.62 236.07,34.64C235.95,33.66 235.8,32.67 235.65,31.69C235.51,30.71 235.35,29.73 235.2,28.75C235.06,27.77 234.9,26.79 234.78,25.81C234.66,24.83 234.55,23.84 234.46,22.86Q234.37,21.88 234.25,19.92L233.75,19.92Q233.63,21.88 233.54,22.86C233.45,23.84 233.34,24.83 233.22,25.81C233.1,26.79 232.94,27.77 232.8,28.75C232.65,29.73 232.49,30.71 232.35,31.69C232.2,32.67 232.05,33.66 231.93,34.64C231.81,35.62 231.7,36.6 231.61,37.58C231.52,38.56 231.47,39.55 231.41,40.53C231.36,41.51 231.32,42.49 231.28,43.47C231.23,44.45 231.21,45.43 231.14,46.41C231.07,47.39 230.99,48.38 230.86,49.36C230.73,50.34 230.56,51.32 230.36,52.3C230.16,53.29 229.91,54.27 229.65,55.25C229.39,56.23 229.09,57.21 228.81,58.19C228.53,59.17 228.22,60.15 227.96,61.13C227.7,62.11 227.45,63.09 227.24,64.08C227.03,65.06 226.87,66.04 226.71,67.02C226.55,68 226.45,68.99 226.3,69.97C226.16,70.95 226.04,71.93 225.84,72.91C225.64,73.89 225.43,74.88 225.1,75.85C224.76,76.85 224.35,77.84 223.84,78.8C223.3,79.8 222.65,80.78 221.93,81.74C221.17,82.75 220.27,83.73 219.36,84.69C218.41,85.69 217.35,86.65 216.33,87.63C215.3,88.61 214.2,89.58 213.19,90.57C212.21,91.54 211.22,92.51 210.36,93.52C209.54,94.48 208.77,95.45 208.14,96.46C207.55,97.41 207.05,98.4 206.67,99.4C206.31,100.36 206.07,101.36 205.9,102.35C205.73,103.32 205.67,104.31 205.63,105.29C205.59,106.27 205.61,107.26 205.64,108.24C205.67,109.22 205.72,110.2 205.78,111.18C205.84,112.16 205.9,113.14 206,114.12C206.1,115.1 206.21,116.09 206.39,117.07C206.57,118.06 206.8,119.04 207.08,120.01C207.37,121 207.73,121.98 208.11,122.96C208.5,123.95 208.97,124.92 209.39,125.9C209.81,126.88 210.28,127.85 210.62,128.84C210.96,129.81 211.29,130.8 211.44,131.79C211.58,132.76 211.65,133.76 211.51,134.73C211.37,135.72 211.04,136.73 210.58,137.68C210.09,138.7 209.37,139.67 208.59,140.62C207.75,141.64 206.71,142.6 205.69,143.56C204.63,144.56 203.43,145.52 202.34,146.51C201.26,147.48 200.1,148.43 199.17,149.45C198.3,150.4 197.41,151.37 196.88,152.4C196.4,153.34 196.01,154.36 195.99,155.34C195.97,156.32 196.28,157.34 196.74,158.28C197.25,159.32 198.13,160.29 199.03,161.23C200.03,162.27 201.29,163.22 202.53,164.17C203.85,165.18 205.31,166.14 206.73,167.11C208.18,168.1 209.7,169.07 211.14,170.06C212.56,171.03 213.99,171.99 215.31,173C216.57,173.96 217.81,174.93 218.91,175.95C219.94,176.9 220.91,177.88 221.75,178.89C222.53,179.84 223.23,180.82 223.81,181.83C224.36,182.79 224.8,183.78 225.16,184.78C225.51,185.75 225.76,186.73 225.97,187.72C226.17,188.7 226.3,189.69 226.4,190.67C226.5,191.65 226.55,192.63 226.59,193.61C226.63,194.59 226.64,195.57 226.66,196.55C226.68,197.53 226.68,198.52 226.71,199.5C226.74,200.48 226.76,201.46 226.82,202.44C226.88,203.42 226.95,204.41 227.06,205.39C227.17,206.37 227.3,207.35 227.46,208.33C227.62,209.31 227.8,210.29 228,211.27C228.2,212.25 228.42,213.24 228.64,214.22C228.86,215.2 229.09,216.18 229.32,217.16C229.55,218.14 229.77,219.13 230,220.11C230.22,221.09 230.45,222.07 230.67,223.05C230.89,224.03 231.11,225.01 231.32,225.99C231.53,226.97 231.73,227.96 231.93,228.94C232.12,229.92 232.32,230.9 232.49,231.88C232.66,232.86 232.83,233.85 232.97,234.83C233.11,235.81 233.24,236.79 233.35,237.77C233.46,238.75 233.55,239.73 233.62,240.71C233.7,241.69 233.75,242.68 233.8,243.66Q233.85,244.64 233.9,246.6Z" style="vector-effect: non-scaling-stroke; stroke-width: 2px; stroke: rgb(239, 85, 59); stroke-opacity: 1; fill: rgb(239, 85, 59); fill-opacity: 0.5;"/><path class="violin" d="M390.02,240.58Q390.03,238.12 390.04,236.89C390.05,235.66 390.07,234.43 390.09,233.2C390.11,231.97 390.13,230.73 390.16,229.5C390.19,228.27 390.22,227.04 390.26,225.81C390.31,224.58 390.37,223.35 390.43,222.12C390.5,220.89 390.56,219.66 390.65,218.43C390.74,217.2 390.84,215.96 390.97,214.73C391.1,213.5 391.24,212.27 391.42,211.04C391.6,209.81 391.8,208.58 392.04,207.35C392.29,206.11 392.56,204.88 392.89,203.65C393.23,202.41 393.61,201.18 394.05,199.96C394.5,198.72 395.01,197.49 395.58,196.27C396.16,195.02 396.81,193.79 397.51,192.57C398.23,191.32 399.02,190.09 399.86,188.88C400.72,187.63 401.66,186.41 402.63,185.19C403.62,183.94 404.69,182.71 405.76,181.49C406.84,180.25 407.98,179.03 409.09,177.8C410.19,176.57 411.34,175.36 412.39,174.11C413.41,172.89 414.45,171.67 415.32,170.41C416.14,169.21 416.93,167.98 417.49,166.72C418.02,165.52 418.44,164.27 418.62,163.03C418.79,161.81 418.76,160.55 418.57,159.33C418.37,158.08 417.93,156.85 417.43,155.64C416.92,154.39 416.19,153.17 415.51,151.95C414.81,150.71 413.99,149.49 413.28,148.25C412.58,147.03 411.83,145.81 411.27,144.56C410.72,143.35 410.22,142.12 409.93,140.87C409.64,139.66 409.5,138.41 409.51,137.18C409.52,135.95 409.73,134.7 409.98,133.48C410.24,132.24 410.66,131.02 411.04,129.79C411.42,128.56 411.9,127.34 412.26,126.1C412.62,124.87 412.98,123.64 413.22,122.4C413.46,121.18 413.62,119.94 413.72,118.71C413.82,117.48 413.81,116.25 413.82,115.02C413.83,113.79 413.77,112.55 413.75,111.32C413.73,110.09 413.7,108.86 413.7,107.63C413.7,106.4 413.73,105.17 413.72,103.94C413.71,102.71 413.73,101.47 413.66,100.24C413.59,99.01 413.49,97.77 413.29,96.55C413.09,95.31 412.8,94.08 412.45,92.86C412.1,91.62 411.64,90.39 411.19,89.16C410.73,87.92 410.2,86.7 409.72,85.47C409.24,84.24 408.75,83.02 408.31,81.78C407.88,80.55 407.46,79.32 407.1,78.08C406.74,76.85 406.44,75.62 406.13,74.39C405.83,73.16 405.56,71.93 405.27,70.7C404.98,69.47 404.7,68.23 404.41,67C404.12,65.77 403.82,64.54 403.52,63.31C403.22,62.08 402.91,60.85 402.63,59.62C402.35,58.39 402.07,57.16 401.82,55.93C401.58,54.7 401.37,53.46 401.16,52.23C400.95,51 400.77,49.77 400.57,48.54C400.36,47.31 400.18,46.08 399.93,44.85C399.68,43.61 399.41,42.38 399.07,41.15C398.73,39.91 398.33,38.68 397.9,37.46C397.46,36.22 396.95,35 396.45,33.77C395.95,32.53 395.39,31.3 394.88,30.07C394.37,28.84 393.84,27.62 393.38,26.38C392.93,25.16 392.5,23.93 392.14,22.69C391.78,21.46 391.48,20.23 391.23,18.99Q390.98,17.76 390.64,15.3L389.36,15.3Q389.02,17.76 388.77,18.99C388.52,20.23 388.22,21.46 387.86,22.69C387.5,23.93 387.07,25.16 386.62,26.38C386.16,27.62 385.63,28.84 385.12,30.07C384.61,31.3 384.05,32.53 383.55,33.77C383.05,35 382.54,36.22 382.1,37.46C381.67,38.68 381.27,39.91 380.93,41.15C380.59,42.38 380.32,43.61 380.07,44.85C379.82,46.08 379.64,47.31 379.43,48.54C379.23,49.77 379.05,51 378.84,52.23C378.63,53.46 378.42,54.7 378.18,55.93C377.93,57.16 377.65,58.39 377.37,59.62C377.09,60.85 376.78,62.08 376.48,63.31C376.18,64.54 375.88,65.77 375.59,67C375.3,68.23 375.02,69.47 374.73,70.7C374.44,71.93 374.17,73.16 373.87,74.39C373.56,75.62 373.26,76.85 372.9,78.08C372.54,79.32 372.12,80.55 371.69,81.78C371.25,83.02 370.76,84.24 370.28,85.47C369.8,86.7 369.27,87.92 368.81,89.16C368.36,90.39 367.9,91.62 367.55,92.86C367.2,94.08 366.91,95.31 366.71,96.55C366.51,97.77 366.41,99.01 366.34,100.24C366.27,101.47 366.29,102.71 366.28,103.94C366.27,105.17 366.3,106.4 366.3,107.63C366.3,108.86 366.27,110.09 366.25,111.32C366.23,112.55 366.17,113.79 366.18,115.02C366.19,116.25 366.18,117.48 366.28,118.71C366.38,119.94 366.54,121.18 366.78,122.4C367.02,123.64 367.38,124.87 367.74,126.1C368.1,127.34 368.58,128.56 368.96,129.79C369.34,131.02 369.76,132.24 370.02,133.48C370.27,134.7 370.48,135.95 370.49,137.18C370.5,138.41 370.36,139.66 370.07,140.87C369.78,142.12 369.28,143.35 368.73,144.56C368.17,145.81 367.42,147.03 366.72,148.25C366.01,149.49 365.19,150.71 364.49,151.95C363.81,153.17 363.08,154.39 362.57,155.64C362.07,156.85 361.63,158.08 361.43,159.33C361.24,160.55 361.21,161.81 361.38,163.03C361.56,164.27 361.98,165.52 362.51,166.72C363.07,167.98 363.86,169.21 364.68,170.41C365.55,171.67 366.59,172.89 367.61,174.11C368.66,175.36 369.81,176.57 370.91,177.8C372.02,179.03 373.16,180.25 374.24,181.49C375.31,182.71 376.38,183.94 377.37,185.19C378.34,186.41 379.28,187.63 380.14,188.88C380.98,190.09 381.77,191.32 382.49,192.57C383.19,193.79 383.84,195.02 384.42,196.27C384.99,197.49 385.5,198.72 385.95,199.96C386.39,201.18 386.77,202.41 387.11,203.65C387.44,204.88 387.71,206.11 387.96,207.35C388.2,208.58 388.4,209.81 388.58,211.04C388.76,212.27 388.9,213.5 389.03,214.73C389.16,215.96 389.26,217.2 389.35,218.43C389.44,219.66 389.5,220.89 389.57,222.12C389.63,223.35 389.69,224.58 389.74,225.81C389.78,227.04 389.81,228.27 389.84,229.5C389.87,230.73 389.89,231.97 389.91,233.2C389.93,234.43 389.95,235.66 389.96,236.89Q389.97,238.12 389.98,240.58Z" style="vector-effect: non-scaling-stroke; stroke-width: 2px; stroke: rgb(239, 85, 59); stroke-opacity: 1; fill: rgb(239, 85, 59); fill-opacity: 0.5;"/><path class="box" d="M68.44,201.11H87.55M68.44,222.42H87.55V154.61H68.44ZM78,222.42V254.84M78,154.61V65.47" style="vector-effect: non-scaling-stroke; stroke-width: 2px; stroke: rgb(239, 85, 59); stroke-opacity: 1; fill: rgb(239, 85, 59); fill-opacity: 0.5;"/><path class="box" d="M224.44,134.9H243.55M224.44,160.18H243.55V104.46H224.44ZM234,160.18V228.9M234,104.46V37.62" style="vector-effect: non-scaling-stroke; stroke-width: 2px; stroke: rgb(239, 85, 59); stroke-opacity: 1; fill: rgb(239, 85, 59); fill-opacity: 0.5;"/><path class="box" d="M380.44,121.2H399.55M380.44,160.18H399.55V93.31H380.44ZM390,160.18V218.26M390,93.31V37.62" style="vector-effect: non-scaling-stroke; stroke-width: 2px; stroke: rgb(239, 85, 59); stroke-opacity: 1; fill: rgb(239, 85, 59); fill-opacity: 0.5;"/><path class="mean" d="M68.44,184.76H87.55" style="fill: none; vector-effect: non-scaling-stroke; stroke-width: 2px; stroke-dasharray: 4px, 2px; stroke: rgb(239, 85, 59); stroke-opacity: 1;"/><path class="mean" d="M224.44,133.36H243.55" style="fill: none; vector-effect: non-scaling-stroke; stroke-width: 2px; stroke-dasharray: 4px, 2px; stroke: rgb(239, 85, 59); stroke-opacity: 1;"/><path class="mean" d="M380.44,121.02H399.55" style="fill: none; vector-effect: non-scaling-stroke; stroke-width: 2px; stroke-dasharray: 4px, 2px; stroke: rgb(239, 85, 59); stroke-opacity: 1;"/></g></g></g><g class="overplot"/><path class="xlines-above crisp" d="M0,0" style="fill: none;"/><path class="ylines-above crisp" d="M0,0" style="fill: none;"/><g class="overlines-above"/><g class="xaxislayer-above"><g class="x2tick"><text text-anchor="middle" x="0" y="419.00000000000006" transform="translate(730,0)" style="font-family: 'Open Sans', verdana, arial, sans-serif; font-size: 12px; fill: rgb(42, 63, 95); fill-opacity: 1; white-space: pre; opacity: 1;">&#60;=1</text></g><g class="x2tick"><text text-anchor="middle" x="0" y="419.00000000000006" transform="translate(886,0)" style="font-family: 'Open Sans', verdana, arial, sans-serif; font-size: 12px; fill: rgb(42, 63, 95); fill-opacity: 1; white-space: pre; opacity: 1;">(1, 2]</text></g><g class="x2tick"><text text-anchor="middle" x="0" y="419.00000000000006" transform="translate(1042,0)" style="font-family: 'Open Sans', verdana, arial, sans-serif; font-size: 12px; fill: rgb(42, 63, 95); fill-opacity: 1; white-space: pre; opacity: 1;">>2</text></g></g><g class="yaxislayer-above"><g class="y2tick"><text text-anchor="end" x="651" y="4.199999999999999" transform="translate(0,360.36)" style="font-family: 'Open Sans', verdana, arial, sans-serif; font-size: 12px; fill: rgb(42, 63, 95); fill-opacity: 1; white-space: pre; opacity: 1;">0</text></g><g class="y2tick"><text text-anchor="end" x="651" y="4.199999999999999" style="font-family: 'Open Sans', verdana, arial, sans-serif; font-size: 12px; fill: rgb(42, 63, 95); fill-opacity: 1; white-space: pre; opacity: 1;" transform="translate(0,304.66999999999996)">10</text></g><g class="y2tick"><text text-anchor="end" x="651" y="4.199999999999999" style="font-family: 'Open Sans', verdana, arial, sans-serif; font-size: 12px; fill: rgb(42, 63, 95); fill-opacity: 1; white-space: pre; opacity: 1;" transform="translate(0,248.99)">20</text></g><g class="y2tick"><text text-anchor="end" x="651" y="4.199999999999999" style="font-family: 'Open Sans', verdana, arial, sans-serif; font-size: 12px; fill: rgb(42, 63, 95); fill-opacity: 1; white-space: pre; opacity: 1;" transform="translate(0,193.31)">30</text></g><g class="y2tick"><text text-anchor="end" x="651" y="4.199999999999999" style="font-family: 'Open Sans', verdana, arial, sans-serif; font-size: 12px; fill: rgb(42, 63, 95); fill-opacity: 1; white-space: pre; opacity: 1;" transform="translate(0,137.62)">40</text></g></g><g class="overaxes-above"/></g><g class="subplot x3y3"><g class="layer-subplot"><g class="shapelayer"/><g class="imagelayer"/></g><g class="minor-gridlayer"><g class="x3"/><g class="y3"/></g><g class="gridlayer"><g class="x3"/><g class="y3"><path class="y3grid crisp" transform="translate(0,718.67)" d="M80,0h468" style="stroke: rgb(255, 255, 255); stroke-opacity: 1; stroke-width: 1px;"/><path class="y3grid crisp" transform="translate(0,662.99)" d="M80,0h468" style="stroke: rgb(255, 255, 255); stroke-opacity: 1; stroke-width: 1px;"/><path class="y3grid crisp" transform="translate(0,607.31)" d="M80,0h468" style="stroke: rgb(255, 255, 255); stroke-opacity: 1; stroke-width: 1px;"/><path class="y3grid crisp" transform="translate(0,551.62)" d="M80,0h468" style="stroke: rgb(255, 255, 255); stroke-opacity: 1; stroke-width: 1px;"/></g></g><g class="zerolinelayer"><path class="y3zl zl crisp" transform="translate(0,774.36)" d="M80,0h468" style="stroke: rgb(255, 255, 255); stroke-opacity: 1; stroke-width: 2px;"/></g><path class="xlines-below"/><path class="ylines-below"/><g class="overlines-below"/><g class="xaxislayer-below"/><g class="yaxislayer-below"/><g class="overaxes-below"/><g class="plot" transform="translate(80,514)" clip-path="url(#clip64408cx3y3plot)"><g class="violinlayer mlayer"><g class="trace violins" style="opacity: 1;"><path class="violin" d="M78.02,251.95Q78.04,250.2 78.05,249.32C78.06,248.44 78.06,247.56 78.08,246.68C78.09,245.8 78.12,244.93 78.14,244.05C78.16,243.17 78.19,242.29 78.22,241.41C78.25,240.53 78.29,239.66 78.33,238.78C78.37,237.9 78.42,237.02 78.47,236.14C78.52,235.26 78.58,234.39 78.65,233.51C78.72,232.63 78.8,231.76 78.89,230.88C78.98,230 79.09,229.12 79.21,228.24C79.33,227.36 79.47,226.49 79.63,225.61C79.79,224.73 79.96,223.85 80.15,222.97C80.35,222.09 80.57,221.22 80.8,220.34C81.04,219.46 81.29,218.58 81.56,217.7C81.83,216.82 82.13,215.95 82.43,215.07C82.74,214.19 83.06,213.31 83.39,212.43C83.72,211.55 84.07,210.68 84.42,209.8C84.77,208.92 85.14,208.04 85.5,207.16C85.86,206.28 86.22,205.41 86.59,204.53C86.96,203.65 87.33,202.77 87.7,201.89C88.08,201.01 88.45,200.13 88.84,199.26C89.24,198.38 89.64,197.5 90.07,196.62C90.5,195.74 90.95,194.86 91.41,193.99C91.88,193.11 92.38,192.23 92.87,191.35C93.37,190.47 93.88,189.6 94.38,188.72C94.88,187.84 95.4,186.96 95.89,186.08C96.37,185.21 96.85,184.33 97.3,183.45C97.75,182.58 98.18,181.69 98.59,180.81C98.99,179.94 99.37,179.06 99.72,178.18C100.07,177.31 100.4,176.42 100.7,175.54C101,174.67 101.28,173.79 101.54,172.91C101.8,172.03 102.02,171.15 102.24,170.27C102.46,169.39 102.65,168.52 102.85,167.64C103.05,166.76 103.24,165.89 103.44,165.01C103.64,164.13 103.84,163.25 104.06,162.37C104.28,161.49 104.53,160.62 104.76,159.74C105,158.86 105.27,157.98 105.47,157.1C105.67,156.23 105.89,155.35 105.98,154.47C106.07,153.59 106.12,152.7 106,151.83C105.88,150.94 105.62,150.05 105.25,149.2C104.85,148.29 104.28,147.41 103.65,146.56C102.98,145.65 102.15,144.79 101.32,143.93C100.46,143.03 99.5,142.17 98.59,141.29C97.68,140.41 96.73,139.55 95.85,138.66C95,137.79 94.15,136.92 93.4,136.02C92.68,135.16 92.01,134.29 91.43,133.39C90.87,132.53 90.38,131.64 89.96,130.75C89.55,129.89 89.22,129.01 88.93,128.12C88.64,127.25 88.42,126.36 88.22,125.48C88.02,124.61 87.87,123.73 87.71,122.85C87.55,121.97 87.43,121.09 87.28,120.21C87.14,119.33 86.99,118.46 86.84,117.58C86.69,116.7 86.53,115.82 86.36,114.94C86.19,114.06 86.01,113.19 85.84,112.31C85.67,111.43 85.49,110.55 85.32,109.67C85.15,108.79 84.98,107.92 84.82,107.04C84.66,106.16 84.5,105.29 84.37,104.41C84.24,103.53 84.12,102.65 84.02,101.77C83.92,100.89 83.84,100.02 83.77,99.14C83.7,98.26 83.66,97.38 83.62,96.5C83.59,95.62 83.57,94.75 83.56,93.87C83.55,92.99 83.56,92.11 83.54,91.23C83.52,90.35 83.51,89.48 83.47,88.6C83.43,87.72 83.37,86.84 83.29,85.96C83.2,85.08 83.1,84.21 82.96,83.33C82.82,82.45 82.64,81.57 82.44,80.69C82.24,79.81 82.01,78.94 81.77,78.06C81.53,77.18 81.27,76.3 81.01,75.42C80.75,74.54 80.48,73.67 80.23,72.79C79.99,71.91 79.75,71.03 79.54,70.15C79.33,69.27 79.14,68.4 78.98,67.52C78.82,66.64 78.68,65.76 78.57,64.88C78.46,64 78.37,63.13 78.3,62.25Q78.23,61.37 78.15,59.61L77.85,59.61Q77.77,61.37 77.7,62.25C77.63,63.13 77.54,64 77.43,64.88C77.32,65.76 77.18,66.64 77.02,67.52C76.86,68.4 76.67,69.27 76.46,70.15C76.25,71.03 76.01,71.91 75.77,72.79C75.52,73.67 75.25,74.54 74.99,75.42C74.73,76.3 74.47,77.18 74.23,78.06C73.99,78.94 73.76,79.81 73.56,80.69C73.36,81.57 73.18,82.45 73.04,83.33C72.9,84.21 72.8,85.08 72.71,85.96C72.63,86.84 72.57,87.72 72.53,88.6C72.49,89.48 72.48,90.35 72.46,91.23C72.44,92.11 72.45,92.99 72.44,93.87C72.43,94.75 72.41,95.62 72.38,96.5C72.34,97.38 72.3,98.26 72.23,99.14C72.16,100.02 72.08,100.89 71.98,101.77C71.88,102.65 71.76,103.53 71.63,104.41C71.5,105.29 71.34,106.16 71.18,107.04C71.02,107.92 70.85,108.79 70.68,109.67C70.51,110.55 70.33,111.43 70.16,112.31C69.99,113.19 69.81,114.06 69.64,114.94C69.47,115.82 69.31,116.7 69.16,117.58C69.01,118.46 68.86,119.33 68.72,120.21C68.57,121.09 68.45,121.97 68.29,122.85C68.13,123.73 67.98,124.61 67.78,125.48C67.58,126.36 67.36,127.25 67.07,128.12C66.78,129.01 66.45,129.89 66.04,130.75C65.62,131.64 65.13,132.53 64.57,133.39C63.99,134.29 63.32,135.16 62.6,136.02C61.85,136.92 61,137.79 60.15,138.66C59.27,139.55 58.32,140.41 57.41,141.29C56.5,142.17 55.54,143.03 54.68,143.93C53.85,144.79 53.02,145.65 52.35,146.56C51.72,147.41 51.15,148.29 50.75,149.2C50.38,150.05 50.12,150.94 50,151.83C49.88,152.7 49.93,153.59 50.02,154.47C50.11,155.35 50.33,156.23 50.53,157.1C50.73,157.98 51,158.86 51.24,159.74C51.47,160.62 51.72,161.49 51.94,162.37C52.16,163.25 52.36,164.13 52.56,165.01C52.76,165.89 52.95,166.76 53.15,167.64C53.35,168.52 53.54,169.39 53.76,170.27C53.98,171.15 54.2,172.03 54.46,172.91C54.72,173.79 55,174.67 55.3,175.54C55.6,176.42 55.93,177.31 56.28,178.18C56.63,179.06 57.01,179.94 57.41,180.81C57.82,181.69 58.25,182.58 58.7,183.45C59.15,184.33 59.63,185.21 60.11,186.08C60.6,186.96 61.12,187.84 61.62,188.72C62.12,189.6 62.63,190.47 63.13,191.35C63.62,192.23 64.12,193.11 64.59,193.99C65.05,194.86 65.5,195.74 65.93,196.62C66.36,197.5 66.76,198.38 67.16,199.26C67.55,200.13 67.92,201.01 68.3,201.89C68.67,202.77 69.04,203.65 69.41,204.53C69.78,205.41 70.14,206.28 70.5,207.16C70.86,208.04 71.23,208.92 71.58,209.8C71.93,210.68 72.28,211.55 72.61,212.43C72.94,213.31 73.26,214.19 73.57,215.07C73.87,215.95 74.17,216.82 74.44,217.7C74.71,218.58 74.96,219.46 75.2,220.34C75.43,221.22 75.65,222.09 75.85,222.97C76.04,223.85 76.21,224.73 76.37,225.61C76.53,226.49 76.67,227.36 76.79,228.24C76.91,229.12 77.02,230 77.11,230.88C77.2,231.76 77.28,232.63 77.35,233.51C77.42,234.39 77.48,235.26 77.53,236.14C77.58,237.02 77.63,237.9 77.67,238.78C77.71,239.66 77.75,240.53 77.78,241.41C77.81,242.29 77.84,243.17 77.86,244.05C77.88,244.93 77.91,245.8 77.92,246.68C77.94,247.56 77.94,248.44 77.95,249.32Q77.96,250.2 77.98,251.95Z" style="vector-effect: non-scaling-stroke; stroke-width: 2px; stroke: rgb(99, 110, 250); stroke-opacity: 1; fill: rgb(99, 110, 250); fill-opacity: 0.5;"/><path class="violin" d="M234.12,257.55Q234.2,255.36 234.27,254.26C234.34,253.17 234.42,252.07 234.55,250.98C234.68,249.88 234.83,248.78 235.04,247.69C235.25,246.59 235.51,245.49 235.83,244.4C236.16,243.29 236.54,242.19 236.99,241.11C237.45,240 237.99,238.9 238.58,237.82C239.18,236.71 239.86,235.61 240.58,234.53C241.32,233.42 242.13,232.32 242.97,231.24C243.83,230.13 244.74,229.04 245.66,227.95C246.6,226.84 247.58,225.75 248.56,224.66C249.55,223.56 250.57,222.47 251.56,221.37C252.55,220.27 253.57,219.19 254.52,218.08C255.45,216.99 256.39,215.91 257.21,214.79C258,213.71 258.78,212.63 259.37,211.5C259.93,210.43 260.43,209.33 260.72,208.21C261,207.13 261.13,206.01 261.09,204.92C261.05,203.82 260.8,202.72 260.47,201.64C260.13,200.52 259.6,199.43 259.05,198.35C258.49,197.24 257.79,196.15 257.13,195.06C256.46,193.96 255.73,192.87 255.06,191.77C254.4,190.68 253.73,189.59 253.14,188.48C252.56,187.39 252.02,186.3 251.56,185.19C251.11,184.11 250.72,183.01 250.42,181.9C250.12,180.81 249.9,179.71 249.74,178.61C249.58,177.52 249.5,176.42 249.48,175.32C249.46,174.22 249.51,173.12 249.6,172.03C249.69,170.93 249.86,169.83 250.04,168.74C250.23,167.64 250.48,166.55 250.71,165.45C250.95,164.35 251.23,163.26 251.45,162.16C251.67,161.07 251.91,159.97 252.04,158.87C252.17,157.78 252.27,156.67 252.24,155.58C252.21,154.48 252.09,153.38 251.86,152.3C251.63,151.19 251.27,150.09 250.85,149.01C250.42,147.9 249.85,146.81 249.28,145.72C248.7,144.61 248.03,143.52 247.39,142.43C246.75,141.33 246.05,140.24 245.42,139.14C244.79,138.05 244.17,136.96 243.6,135.85C243.04,134.76 242.52,133.66 242.04,132.56C241.57,131.47 241.15,130.37 240.75,129.27C240.36,128.18 240.01,127.08 239.68,125.98C239.35,124.89 239.04,123.79 238.75,122.69C238.46,121.6 238.19,120.5 237.93,119.4C237.67,118.3 237.42,117.21 237.19,116.11C236.97,115.02 236.76,113.92 236.58,112.82C236.4,111.73 236.24,110.63 236.11,109.53C235.98,108.43 235.88,107.34 235.8,106.24C235.72,105.15 235.66,104.05 235.62,102.96C235.57,101.86 235.55,100.77 235.53,99.67C235.51,98.57 235.5,97.48 235.48,96.38C235.46,95.28 235.44,94.19 235.41,93.09C235.38,91.99 235.35,90.9 235.31,89.8C235.27,88.7 235.21,87.61 235.16,86.51C235.11,85.41 235.05,84.32 234.99,83.22C234.93,82.12 234.86,81.03 234.79,79.93C234.73,78.83 234.66,77.74 234.6,76.64C234.54,75.54 234.48,74.45 234.43,73.35C234.38,72.25 234.33,71.16 234.29,70.06C234.25,68.96 234.2,67.87 234.17,66.77C234.14,65.67 234.12,64.58 234.1,63.48Q234.08,62.38 234.05,60.19L233.95,60.19Q233.92,62.38 233.9,63.48C233.88,64.58 233.86,65.67 233.83,66.77C233.8,67.87 233.75,68.96 233.71,70.06C233.67,71.16 233.62,72.25 233.57,73.35C233.52,74.45 233.46,75.54 233.4,76.64C233.34,77.74 233.27,78.83 233.21,79.93C233.14,81.03 233.07,82.12 233.01,83.22C232.95,84.32 232.89,85.41 232.84,86.51C232.79,87.61 232.73,88.7 232.69,89.8C232.65,90.9 232.62,91.99 232.59,93.09C232.56,94.19 232.54,95.28 232.52,96.38C232.5,97.48 232.49,98.57 232.47,99.67C232.45,100.77 232.43,101.86 232.38,102.96C232.34,104.05 232.28,105.15 232.2,106.24C232.12,107.34 232.02,108.43 231.89,109.53C231.76,110.63 231.6,111.73 231.42,112.82C231.24,113.92 231.03,115.02 230.81,116.11C230.58,117.21 230.33,118.3 230.07,119.4C229.81,120.5 229.54,121.6 229.25,122.69C228.96,123.79 228.65,124.89 228.32,125.98C227.99,127.08 227.64,128.18 227.25,129.27C226.85,130.37 226.43,131.47 225.96,132.56C225.48,133.66 224.96,134.76 224.4,135.85C223.83,136.96 223.21,138.05 222.58,139.14C221.95,140.24 221.25,141.33 220.61,142.43C219.97,143.52 219.3,144.61 218.72,145.72C218.15,146.81 217.58,147.9 217.15,149.01C216.73,150.09 216.37,151.19 216.14,152.3C215.91,153.38 215.79,154.48 215.76,155.58C215.73,156.67 215.83,157.78 215.96,158.87C216.09,159.97 216.33,161.07 216.55,162.16C216.77,163.26 217.05,164.35 217.29,165.45C217.52,166.55 217.77,167.64 217.96,168.74C218.14,169.83 218.31,170.93 218.4,172.03C218.49,173.12 218.54,174.22 218.52,175.32C218.5,176.42 218.42,177.52 218.26,178.61C218.1,179.71 217.88,180.81 217.58,181.9C217.28,183.01 216.89,184.11 216.44,185.19C215.98,186.3 215.44,187.39 214.86,188.48C214.27,189.59 213.6,190.68 212.94,191.77C212.27,192.87 211.54,193.96 210.87,195.06C210.21,196.15 209.51,197.24 208.95,198.35C208.4,199.43 207.87,200.52 207.53,201.64C207.2,202.72 206.95,203.82 206.91,204.92C206.87,206.01 207,207.13 207.28,208.21C207.57,209.33 208.07,210.43 208.63,211.5C209.22,212.63 210,213.71 210.79,214.79C211.61,215.91 212.55,216.99 213.48,218.08C214.43,219.19 215.45,220.27 216.44,221.37C217.43,222.47 218.45,223.56 219.44,224.66C220.42,225.75 221.4,226.84 222.34,227.95C223.26,229.04 224.17,230.13 225.03,231.24C225.87,232.32 226.68,233.42 227.42,234.53C228.14,235.61 228.82,236.71 229.42,237.82C230.01,238.9 230.55,240 231.01,241.11C231.46,242.19 231.84,243.29 232.17,244.4C232.49,245.49 232.75,246.59 232.96,247.69C233.17,248.78 233.32,249.88 233.45,250.98C233.58,252.07 233.66,253.17 233.73,254.26Q233.8,255.36 233.88,257.55Z" style="vector-effect: non-scaling-stroke; stroke-width: 2px; stroke: rgb(99, 110, 250); stroke-opacity: 1; fill: rgb(99, 110, 250); fill-opacity: 0.5;"/><path class="violin" d="M390.36,280.6Q390.56,278.38 390.74,277.27C390.92,276.16 391.13,275.04 391.42,273.94C391.72,272.82 392.07,271.7 392.51,270.61C392.96,269.49 393.5,268.38 394.11,267.29C394.75,266.16 395.49,265.05 396.28,263.96C397.1,262.83 398.02,261.72 398.97,260.63C399.95,259.5 401.02,258.4 402.1,257.3C403.2,256.18 404.34,255.08 405.49,253.98C406.65,252.87 407.84,251.76 409.02,250.65C410.2,249.54 411.39,248.43 412.58,247.32C413.77,246.21 414.96,245.1 416.14,243.99C417.32,242.88 418.52,241.79 419.67,240.67C420.81,239.57 421.97,238.47 423.02,237.34C424.03,236.25 425.06,235.16 425.87,234.01C426.62,232.94 427.37,231.83 427.76,230.68C428.12,229.61 428.33,228.45 428.22,227.36C428.11,226.24 427.63,225.09 427.04,224.03C426.39,222.86 425.38,221.77 424.37,220.7C423.29,219.55 421.98,218.47 420.72,217.37C419.43,216.25 418.04,215.17 416.73,214.05C415.44,212.95 414.15,211.85 412.94,210.72C411.78,209.63 410.65,208.52 409.61,207.39C408.61,206.3 407.67,205.19 406.79,204.06C405.94,202.97 405.15,201.86 404.42,200.74C403.71,199.65 403.05,198.53 402.44,197.41C401.84,196.31 401.29,195.2 400.8,194.08C400.32,192.98 399.89,191.87 399.51,190.75C399.14,189.65 398.82,188.53 398.54,187.42C398.26,186.32 398.04,185.21 397.82,184.1C397.6,182.99 397.43,181.88 397.24,180.77C397.05,179.66 396.89,178.55 396.7,177.44C396.51,176.33 396.32,175.22 396.12,174.11C395.91,173 395.69,171.9 395.47,170.79C395.25,169.68 395.01,168.57 394.78,167.46C394.55,166.35 394.3,165.24 394.07,164.13C393.84,163.02 393.62,161.91 393.4,160.8C393.19,159.69 392.98,158.59 392.78,157.48C392.59,156.37 392.41,155.26 392.23,154.15C392.05,153.04 391.88,151.93 391.72,150.82C391.56,149.71 391.42,148.6 391.29,147.49C391.16,146.38 391.04,145.28 390.95,144.17C390.86,143.06 390.78,141.95 390.73,140.84C390.68,139.73 390.67,138.62 390.67,137.51C390.67,136.4 390.7,135.29 390.74,134.18C390.78,133.07 390.85,131.97 390.91,130.86C390.97,129.75 391.06,128.64 391.12,127.53C391.18,126.42 391.24,125.31 391.27,124.2C391.3,123.09 391.33,121.98 391.32,120.87C391.31,119.76 391.29,118.66 391.24,117.55C391.19,116.44 391.11,115.33 391.04,114.22C390.96,113.11 390.87,112 390.79,110.89C390.7,109.78 390.61,108.67 390.53,107.56C390.45,106.45 390.39,105.35 390.33,104.24Q390.27,103.13 390.18,100.91L389.82,100.91Q389.73,103.13 389.67,104.24C389.61,105.35 389.55,106.45 389.47,107.56C389.39,108.67 389.3,109.78 389.21,110.89C389.13,112 389.04,113.11 388.96,114.22C388.89,115.33 388.81,116.44 388.76,117.55C388.71,118.66 388.69,119.76 388.68,120.87C388.67,121.98 388.7,123.09 388.73,124.2C388.76,125.31 388.82,126.42 388.88,127.53C388.94,128.64 389.03,129.75 389.09,130.86C389.15,131.97 389.22,133.07 389.26,134.18C389.3,135.29 389.33,136.4 389.33,137.51C389.33,138.62 389.32,139.73 389.27,140.84C389.22,141.95 389.14,143.06 389.05,144.17C388.96,145.28 388.84,146.38 388.71,147.49C388.58,148.6 388.44,149.71 388.28,150.82C388.12,151.93 387.95,153.04 387.77,154.15C387.59,155.26 387.41,156.37 387.22,157.48C387.02,158.59 386.81,159.69 386.6,160.8C386.38,161.91 386.16,163.02 385.93,164.13C385.7,165.24 385.45,166.35 385.22,167.46C384.99,168.57 384.75,169.68 384.53,170.79C384.31,171.9 384.09,173 383.88,174.11C383.68,175.22 383.49,176.33 383.3,177.44C383.11,178.55 382.95,179.66 382.76,180.77C382.57,181.88 382.4,182.99 382.18,184.1C381.96,185.21 381.74,186.32 381.46,187.42C381.18,188.53 380.86,189.65 380.49,190.75C380.11,191.87 379.68,192.98 379.2,194.08C378.71,195.2 378.16,196.31 377.56,197.41C376.95,198.53 376.29,199.65 375.58,200.74C374.85,201.86 374.06,202.97 373.21,204.06C372.33,205.19 371.39,206.3 370.39,207.39C369.35,208.52 368.22,209.63 367.06,210.72C365.85,211.85 364.56,212.95 363.27,214.05C361.96,215.17 360.57,216.25 359.28,217.37C358.02,218.47 356.71,219.55 355.63,220.7C354.62,221.77 353.61,222.86 352.96,224.03C352.37,225.09 351.89,226.24 351.78,227.36C351.67,228.45 351.88,229.61 352.24,230.68C352.63,231.83 353.38,232.94 354.13,234.01C354.94,235.16 355.97,236.25 356.98,237.34C358.03,238.47 359.19,239.57 360.33,240.67C361.48,241.79 362.68,242.88 363.86,243.99C365.04,245.1 366.23,246.21 367.42,247.32C368.61,248.43 369.8,249.54 370.98,250.65C372.16,251.76 373.35,252.87 374.51,253.98C375.66,255.08 376.8,256.18 377.9,257.3C378.98,258.4 380.05,259.5 381.03,260.63C381.98,261.72 382.9,262.83 383.72,263.96C384.51,265.05 385.25,266.16 385.89,267.29C386.5,268.38 387.04,269.49 387.49,270.61C387.93,271.7 388.28,272.82 388.58,273.94C388.87,275.04 389.08,276.16 389.26,277.27Q389.44,278.38 389.64,280.6Z" style="vector-effect: non-scaling-stroke; stroke-width: 2px; stroke: rgb(99, 110, 250); stroke-opacity: 1; fill: rgb(99, 110, 250); fill-opacity: 0.5;"/><path class="box" d="M68.45,157.62H87.56M68.45,177.44H87.56V138.13H68.45ZM78,177.44V236.02M78,138.13V80.67" style="vector-effect: non-scaling-stroke; stroke-width: 2px; stroke: rgb(99, 110, 250); stroke-opacity: 1; fill: rgb(99, 110, 250); fill-opacity: 0.5;"/><path class="box" d="M224.45,188.53H243.56M224.45,206.68H243.56V154.84H224.45ZM234,206.68V237.58M234,154.84V80.17" style="vector-effect: non-scaling-stroke; stroke-width: 2px; stroke: rgb(99, 110, 250); stroke-opacity: 1; fill: rgb(99, 110, 250); fill-opacity: 0.5;"/><path class="box" d="M380.45,227H399.55M380.45,237.92H399.55V208.6H380.45ZM390,237.92V260.3M390,208.6V167.76" style="vector-effect: non-scaling-stroke; stroke-width: 2px; stroke: rgb(99, 110, 250); stroke-opacity: 1; fill: rgb(99, 110, 250); fill-opacity: 0.5;"/><path class="mean" d="M68.45,155.82H87.56" style="fill: none; vector-effect: non-scaling-stroke; stroke-width: 2px; stroke-dasharray: 4px, 2px; stroke: rgb(99, 110, 250); stroke-opacity: 1;"/><path class="mean" d="M224.45,181.97H243.56" style="fill: none; vector-effect: non-scaling-stroke; stroke-width: 2px; stroke-dasharray: 4px, 2px; stroke: rgb(99, 110, 250); stroke-opacity: 1;"/><path class="mean" d="M380.45,220.58H399.55" style="fill: none; vector-effect: non-scaling-stroke; stroke-width: 2px; stroke-dasharray: 4px, 2px; stroke: rgb(99, 110, 250); stroke-opacity: 1;"/></g></g></g><g class="overplot"/><path class="xlines-above crisp" d="M0,0" style="fill: none;"/><path class="ylines-above crisp" d="M0,0" style="fill: none;"/><g class="overlines-above"/><g class="xaxislayer-above"><g class="x3tick"><text text-anchor="middle" x="0" y="833" transform="translate(158,0)" style="font-family: 'Open Sans', verdana, arial, sans-serif; font-size: 12px; fill: rgb(42, 63, 95); fill-opacity: 1; white-space: pre; opacity: 1;">&#60;=1</text></g><g class="x3tick"><text text-anchor="middle" x="0" y="833" transform="translate(314,0)" style="font-family: 'Open Sans', verdana, arial, sans-serif; font-size: 12px; fill: rgb(42, 63, 95); fill-opacity: 1; white-space: pre; opacity: 1;">(1, 2]</text></g><g class="x3tick"><text text-anchor="middle" x="0" y="833" transform="translate(470,0)" style="font-family: 'Open Sans', verdana, arial, sans-serif; font-size: 12px; fill: rgb(42, 63, 95); fill-opacity: 1; white-space: pre; opacity: 1;">>2</text></g></g><g class="yaxislayer-above"><g class="y3tick"><text text-anchor="end" x="79" y="4.199999999999999" transform="translate(0,774.36)" style="font-family: 'Open Sans', verdana, arial, sans-serif; font-size: 12px; fill: rgb(42, 63, 95); fill-opacity: 1; white-space: pre; opacity: 1;">0</text></g><g class="y3tick"><text text-anchor="end" x="79" y="4.199999999999999" style="font-family: 'Open Sans', verdana, arial, sans-serif; font-size: 12px; fill: rgb(42, 63, 95); fill-opacity: 1; white-space: pre; opacity: 1;" transform="translate(0,718.67)">10</text></g><g class="y3tick"><text text-anchor="end" x="79" y="4.199999999999999" style="font-family: 'Open Sans', verdana, arial, sans-serif; font-size: 12px; fill: rgb(42, 63, 95); fill-opacity: 1; white-space: pre; opacity: 1;" transform="translate(0,662.99)">20</text></g><g class="y3tick"><text text-anchor="end" x="79" y="4.199999999999999" style="font-family: 'Open Sans', verdana, arial, sans-serif; font-size: 12px; fill: rgb(42, 63, 95); fill-opacity: 1; white-space: pre; opacity: 1;" transform="translate(0,607.31)">30</text></g><g class="y3tick"><text text-anchor="end" x="79" y="4.199999999999999" style="font-family: 'Open Sans', verdana, arial, sans-serif; font-size: 12px; fill: rgb(42, 63, 95); fill-opacity: 1; white-space: pre; opacity: 1;" transform="translate(0,551.62)">40</text></g></g><g class="overaxes-above"/></g><g class="subplot x4y4"><g class="layer-subplot"><g class="shapelayer"/><g class="imagelayer"/></g><g class="minor-gridlayer"><g class="x4"/><g class="y4"/></g><g class="gridlayer"><g class="x4"/><g class="y4"><path class="y4grid crisp" transform="translate(0,718.67)" d="M652,0h467.99999999999994" style="stroke: rgb(255, 255, 255); stroke-opacity: 1; stroke-width: 1px;"/><path class="y4grid crisp" transform="translate(0,662.99)" d="M652,0h467.99999999999994" style="stroke: rgb(255, 255, 255); stroke-opacity: 1; stroke-width: 1px;"/><path class="y4grid crisp" transform="translate(0,607.31)" d="M652,0h467.99999999999994" style="stroke: rgb(255, 255, 255); stroke-opacity: 1; stroke-width: 1px;"/><path class="y4grid crisp" transform="translate(0,551.62)" d="M652,0h467.99999999999994" style="stroke: rgb(255, 255, 255); stroke-opacity: 1; stroke-width: 1px;"/></g></g><g class="zerolinelayer"><path class="y4zl zl crisp" transform="translate(0,774.36)" d="M652,0h467.99999999999994" style="stroke: rgb(255, 255, 255); stroke-opacity: 1; stroke-width: 2px;"/></g><path class="xlines-below"/><path class="ylines-below"/><g class="overlines-below"/><g class="xaxislayer-below"/><g class="yaxislayer-below"/><g class="overaxes-below"/><g class="plot" transform="translate(652,514)" clip-path="url(#clip64408cx4y4plot)"><g class="violinlayer mlayer"><g class="trace violins" style="opacity: 1;"><path class="violin" d="M78.02,275.08Q78.04,272.7 78.05,271.51C78.06,270.32 78.07,269.12 78.09,267.93C78.11,266.74 78.13,265.55 78.15,264.36C78.18,263.17 78.21,261.97 78.24,260.78C78.28,259.59 78.31,258.39 78.36,257.2C78.41,256.01 78.47,254.82 78.54,253.63C78.61,252.44 78.69,251.24 78.79,250.05C78.89,248.86 79.01,247.67 79.15,246.48C79.29,245.29 79.44,244.09 79.63,242.9C79.82,241.71 80.04,240.52 80.27,239.33C80.51,238.14 80.76,236.94 81.04,235.75C81.32,234.55 81.62,233.36 81.95,232.17C82.28,230.98 82.62,229.79 83,228.6C83.38,227.4 83.79,226.2 84.25,225.02C84.71,223.82 85.22,222.63 85.77,221.45C86.33,220.25 86.96,219.05 87.61,217.87C88.27,216.67 88.99,215.49 89.68,214.3C90.38,213.11 91.12,211.92 91.78,210.72C92.43,209.54 93.08,208.35 93.61,207.14C94.12,205.96 94.58,204.77 94.92,203.57C95.25,202.39 95.47,201.19 95.64,199.99C95.81,198.8 95.86,197.61 95.94,196.42C96.02,195.23 96.03,194.03 96.11,192.84C96.2,191.65 96.28,190.46 96.45,189.27C96.62,188.07 96.85,186.87 97.15,185.69C97.46,184.49 97.84,183.29 98.29,182.11C98.75,180.91 99.29,179.71 99.89,178.54C100.51,177.33 101.22,176.13 101.98,174.96C102.77,173.75 103.66,172.57 104.56,171.39C105.49,170.18 106.51,169 107.48,167.81C108.45,166.62 109.5,165.46 110.38,164.24C111.22,163.07 112.11,161.9 112.65,160.66C113.16,159.5 113.59,158.27 113.6,157.08C113.61,155.89 113.28,154.65 112.73,153.51C112.12,152.25 111.04,151.07 109.95,149.93C108.74,148.67 107.19,147.53 105.71,146.36C104.16,145.14 102.42,143.98 100.82,142.78C99.25,141.6 97.61,140.44 96.19,139.21C94.87,138.06 93.56,136.88 92.55,135.63C91.63,134.49 90.8,133.29 90.29,132.05C89.81,130.9 89.53,129.68 89.48,128.48C89.43,127.29 89.65,126.07 89.98,124.9C90.33,123.68 90.92,122.49 91.57,121.33C92.25,120.11 93.12,118.92 94.01,117.75C94.93,116.53 96,115.36 97.03,114.18C98.08,112.98 99.22,111.8 100.27,110.6C101.3,109.42 102.38,108.25 103.26,107.02C104.1,105.86 104.94,104.68 105.46,103.45C105.95,102.29 106.32,101.07 106.35,99.87C106.38,98.68 106.1,97.45 105.63,96.3C105.12,95.06 104.23,93.87 103.3,92.72C102.29,91.47 101,90.3 99.73,89.14C98.4,87.92 96.9,86.76 95.47,85.57C94.04,84.38 92.55,83.2 91.16,81.99C89.82,80.82 88.47,79.64 87.27,78.42C86.13,77.26 85.06,76.07 84.12,74.84C83.23,73.68 82.44,72.49 81.77,71.27C81.13,70.1 80.6,68.9 80.16,67.69C79.73,66.51 79.42,65.31 79.15,64.11Q78.89,62.93 78.57,60.54L77.43,60.54Q77.11,62.93 76.85,64.11C76.58,65.31 76.27,66.51 75.84,67.69C75.4,68.9 74.87,70.1 74.23,71.27C73.56,72.49 72.77,73.68 71.88,74.84C70.94,76.07 69.87,77.26 68.73,78.42C67.53,79.64 66.18,80.82 64.84,81.99C63.45,83.2 61.96,84.38 60.53,85.57C59.1,86.76 57.6,87.92 56.27,89.14C55,90.3 53.71,91.47 52.7,92.72C51.77,93.87 50.88,95.06 50.37,96.3C49.9,97.45 49.62,98.68 49.65,99.87C49.68,101.07 50.05,102.29 50.54,103.45C51.06,104.68 51.9,105.86 52.74,107.02C53.62,108.25 54.7,109.42 55.73,110.6C56.78,111.8 57.92,112.98 58.97,114.18C60,115.36 61.07,116.53 61.99,117.75C62.88,118.92 63.75,120.11 64.43,121.33C65.08,122.49 65.67,123.68 66.02,124.9C66.35,126.07 66.57,127.29 66.52,128.48C66.47,129.68 66.19,130.9 65.71,132.05C65.2,133.29 64.37,134.49 63.45,135.63C62.44,136.88 61.13,138.06 59.81,139.21C58.39,140.44 56.75,141.6 55.18,142.78C53.58,143.98 51.84,145.14 50.29,146.36C48.81,147.53 47.26,148.67 46.05,149.93C44.96,151.07 43.88,152.25 43.27,153.51C42.72,154.65 42.39,155.89 42.4,157.08C42.41,158.27 42.84,159.5 43.35,160.66C43.89,161.9 44.78,163.07 45.62,164.24C46.5,165.46 47.55,166.62 48.52,167.81C49.49,169 50.51,170.18 51.44,171.39C52.34,172.57 53.23,173.75 54.02,174.96C54.78,176.13 55.49,177.33 56.11,178.54C56.71,179.71 57.25,180.91 57.71,182.11C58.16,183.29 58.54,184.49 58.85,185.69C59.15,186.87 59.38,188.07 59.55,189.27C59.72,190.46 59.8,191.65 59.89,192.84C59.97,194.03 59.98,195.23 60.06,196.42C60.14,197.61 60.19,198.8 60.36,199.99C60.53,201.19 60.75,202.39 61.08,203.57C61.42,204.77 61.88,205.96 62.39,207.14C62.92,208.35 63.57,209.54 64.22,210.72C64.88,211.92 65.62,213.11 66.32,214.3C67.01,215.49 67.73,216.67 68.39,217.87C69.04,219.05 69.67,220.25 70.23,221.45C70.78,222.63 71.29,223.82 71.75,225.02C72.21,226.2 72.62,227.4 73,228.6C73.38,229.79 73.72,230.98 74.05,232.17C74.38,233.36 74.68,234.55 74.96,235.75C75.24,236.94 75.49,238.14 75.73,239.33C75.96,240.52 76.18,241.71 76.37,242.9C76.56,244.09 76.71,245.29 76.85,246.48C76.99,247.67 77.11,248.86 77.21,250.05C77.31,251.24 77.39,252.44 77.46,253.63C77.53,254.82 77.59,256.01 77.64,257.2C77.69,258.39 77.72,259.59 77.76,260.78C77.79,261.97 77.82,263.17 77.85,264.36C77.87,265.55 77.89,266.74 77.91,267.93C77.93,269.12 77.94,270.32 77.95,271.51Q77.96,272.7 77.98,275.08Z" style="vector-effect: non-scaling-stroke; stroke-width: 2px; stroke: rgb(239, 85, 59); stroke-opacity: 1; fill: rgb(239, 85, 59); fill-opacity: 0.5;"/><path class="violin" d="M234.09,247Q234.14,244.5 234.18,243.25C234.22,242 234.28,240.74 234.35,239.49C234.42,238.24 234.51,236.99 234.62,235.74C234.73,234.49 234.85,233.24 235,231.99C235.15,230.74 235.33,229.49 235.52,228.24C235.71,226.99 235.93,225.74 236.16,224.49C236.39,223.24 236.64,221.99 236.9,220.74C237.16,219.49 237.44,218.24 237.72,216.99C238,215.74 238.29,214.49 238.58,213.24C238.87,211.99 239.17,210.74 239.47,209.49C239.77,208.24 240.07,206.99 240.37,205.74C240.67,204.49 240.97,203.23 241.28,201.98C241.59,200.73 241.89,199.48 242.21,198.23C242.53,196.98 242.85,195.73 243.2,194.48C243.55,193.23 243.9,191.97 244.31,190.73C244.73,189.47 245.17,188.22 245.7,186.98C246.25,185.72 246.84,184.46 247.56,183.23C248.3,181.95 249.15,180.7 250.1,179.48C251.1,178.2 252.25,176.95 253.46,175.73C254.74,174.45 256.17,173.21 257.61,171.98C259.1,170.71 260.72,169.48 262.26,168.23C263.78,166.98 265.4,165.77 266.79,164.48C268.1,163.26 269.46,162.05 270.39,160.72C271.22,159.53 272,158.25 272.22,156.97C272.43,155.75 272.24,154.41 271.77,153.22C271.25,151.9 270.16,150.66 269.06,149.47C267.83,148.14 266.21,146.94 264.66,145.72C263.04,144.44 261.2,143.23 259.52,141.97C257.87,140.73 256.14,139.51 254.65,138.22C253.25,137.01 251.88,135.78 250.8,134.47C249.82,133.27 248.93,132.02 248.38,130.72C247.87,129.51 247.56,128.22 247.53,126.97C247.5,125.72 247.77,124.43 248.2,123.21C248.66,121.92 249.43,120.66 250.29,119.46C251.22,118.16 252.41,116.92 253.65,115.71C254.97,114.42 256.5,113.19 258.01,111.96C259.57,110.69 261.29,109.47 262.88,108.21C264.44,106.97 266.11,105.76 267.48,104.46C268.75,103.26 270.09,102.05 270.88,100.71C271.58,99.53 272.18,98.21 272.17,96.96C272.16,95.71 271.56,94.38 270.8,93.21C269.91,91.85 268.37,90.65 266.87,89.46C265.18,88.13 263.1,86.93 261.1,85.7C259.01,84.42 256.71,83.21 254.57,81.95C252.47,80.71 250.31,79.49 248.37,78.2C246.55,76.99 244.77,75.76 243.24,74.45C241.84,73.25 240.55,72.01 239.48,70.7C238.49,69.5 237.66,68.24 236.99,66.95C236.35,65.73 235.89,64.47 235.51,63.2Q235.14,61.97 234.7,59.45L233.3,59.45Q232.86,61.97 232.49,63.2C232.11,64.47 231.65,65.73 231.01,66.95C230.34,68.24 229.51,69.5 228.52,70.7C227.45,72.01 226.16,73.25 224.76,74.45C223.23,75.76 221.45,76.99 219.63,78.2C217.69,79.49 215.53,80.71 213.43,81.95C211.29,83.21 208.99,84.42 206.9,85.7C204.9,86.93 202.82,88.13 201.13,89.46C199.63,90.65 198.09,91.85 197.2,93.21C196.44,94.38 195.84,95.71 195.83,96.96C195.82,98.21 196.42,99.53 197.12,100.71C197.91,102.05 199.25,103.26 200.52,104.46C201.89,105.76 203.56,106.97 205.12,108.21C206.71,109.47 208.43,110.69 209.99,111.96C211.5,113.19 213.03,114.42 214.35,115.71C215.59,116.92 216.78,118.16 217.71,119.46C218.57,120.66 219.34,121.92 219.8,123.21C220.23,124.43 220.5,125.72 220.47,126.97C220.44,128.22 220.13,129.51 219.62,130.72C219.07,132.02 218.18,133.27 217.2,134.47C216.12,135.78 214.75,137.01 213.35,138.22C211.86,139.51 210.13,140.73 208.48,141.97C206.8,143.23 204.96,144.44 203.34,145.72C201.79,146.94 200.17,148.14 198.94,149.47C197.84,150.66 196.75,151.9 196.23,153.22C195.76,154.41 195.57,155.75 195.78,156.97C196,158.25 196.78,159.53 197.61,160.72C198.54,162.05 199.9,163.26 201.21,164.48C202.6,165.77 204.22,166.98 205.74,168.23C207.28,169.48 208.9,170.71 210.39,171.98C211.83,173.21 213.26,174.45 214.54,175.73C215.75,176.95 216.9,178.2 217.9,179.48C218.85,180.7 219.7,181.95 220.44,183.23C221.16,184.46 221.75,185.72 222.3,186.98C222.83,188.22 223.27,189.47 223.69,190.73C224.1,191.97 224.45,193.23 224.8,194.48C225.15,195.73 225.47,196.98 225.79,198.23C226.11,199.48 226.41,200.73 226.72,201.98C227.03,203.23 227.33,204.49 227.63,205.74C227.93,206.99 228.23,208.24 228.53,209.49C228.83,210.74 229.13,211.99 229.42,213.24C229.71,214.49 230,215.74 230.28,216.99C230.56,218.24 230.84,219.49 231.1,220.74C231.36,221.99 231.61,223.24 231.84,224.49C232.07,225.74 232.29,226.99 232.48,228.24C232.67,229.49 232.85,230.74 233,231.99C233.15,233.24 233.27,234.49 233.38,235.74C233.49,236.99 233.58,238.24 233.65,239.49C233.72,240.74 233.78,242 233.82,243.25Q233.86,244.5 233.91,247Z" style="vector-effect: non-scaling-stroke; stroke-width: 2px; stroke: rgb(239, 85, 59); stroke-opacity: 1; fill: rgb(239, 85, 59); fill-opacity: 0.5;"/><path class="violin" d="M390.24,260.04Q390.38,256.45 390.49,254.65C390.6,252.85 390.73,251.05 390.92,249.25C391.11,247.45 391.34,245.64 391.64,243.85C391.94,242.04 392.29,240.24 392.74,238.45C393.19,236.64 393.72,234.84 394.34,233.05C394.97,231.23 395.71,229.43 396.52,227.65C397.34,225.83 398.28,224.04 399.24,222.25C400.22,220.44 401.3,218.65 402.34,216.85C403.39,215.05 404.5,213.26 405.52,211.45C406.53,209.66 407.54,207.87 408.41,206.05C409.27,204.27 410.05,202.47 410.72,200.65C411.38,198.87 411.92,197.06 412.43,195.25C412.93,193.46 413.31,191.65 413.76,189.85C414.21,188.05 414.62,186.24 415.13,184.45C415.65,182.64 416.22,180.84 416.86,179.05C417.5,177.24 418.26,175.45 418.98,173.65C419.7,171.85 420.53,170.06 421.17,168.25C421.8,166.46 422.47,164.67 422.82,162.85C423.17,161.07 423.38,159.24 423.29,157.45C423.2,155.65 422.83,153.83 422.28,152.06C421.71,150.23 420.81,148.43 419.9,146.66C418.96,144.83 417.79,143.06 416.72,141.26C415.64,139.46 414.47,137.68 413.45,135.86C412.45,134.08 411.47,132.28 410.65,130.46C409.85,128.68 409.16,126.88 408.57,125.06C407.99,123.28 407.55,121.47 407.15,119.66C406.75,117.87 406.47,116.06 406.16,114.26C405.86,112.46 405.62,110.66 405.32,108.86C405.02,107.06 404.73,105.25 404.36,103.46C403.99,101.65 403.57,99.85 403.08,98.06C402.58,96.25 402.01,94.45 401.39,92.66C400.76,90.85 400.04,89.06 399.33,87.26C398.61,85.46 397.83,83.66 397.11,81.86C396.39,80.06 395.64,78.27 394.99,76.46C394.34,74.67 393.72,72.87 393.2,71.06C392.68,69.27 392.24,67.47 391.87,65.66Q391.5,63.87 390.99,60.26L389.01,60.26Q388.5,63.87 388.13,65.66C387.76,67.47 387.32,69.27 386.8,71.06C386.28,72.87 385.66,74.67 385.01,76.46C384.36,78.27 383.61,80.06 382.89,81.86C382.17,83.66 381.39,85.46 380.67,87.26C379.96,89.06 379.24,90.85 378.61,92.66C377.99,94.45 377.42,96.25 376.92,98.06C376.43,99.85 376.01,101.65 375.64,103.46C375.27,105.25 374.98,107.06 374.68,108.86C374.38,110.66 374.14,112.46 373.84,114.26C373.53,116.06 373.25,117.87 372.85,119.66C372.45,121.47 372.01,123.28 371.43,125.06C370.84,126.88 370.15,128.68 369.35,130.46C368.53,132.28 367.55,134.08 366.55,135.86C365.53,137.68 364.36,139.46 363.28,141.26C362.21,143.06 361.04,144.83 360.1,146.66C359.19,148.43 358.29,150.23 357.72,152.06C357.17,153.83 356.8,155.65 356.71,157.45C356.62,159.24 356.83,161.07 357.18,162.85C357.53,164.67 358.2,166.46 358.83,168.25C359.47,170.06 360.3,171.85 361.02,173.65C361.74,175.45 362.5,177.24 363.14,179.05C363.78,180.84 364.35,182.64 364.87,184.45C365.38,186.24 365.79,188.05 366.24,189.85C366.69,191.65 367.07,193.46 367.57,195.25C368.08,197.06 368.62,198.87 369.28,200.65C369.95,202.47 370.73,204.27 371.59,206.05C372.46,207.87 373.47,209.66 374.48,211.45C375.5,213.26 376.61,215.05 377.66,216.85C378.7,218.65 379.78,220.44 380.76,222.25C381.72,224.04 382.66,225.83 383.48,227.65C384.29,229.43 385.03,231.23 385.66,233.05C386.28,234.84 386.81,236.64 387.26,238.45C387.71,240.24 388.06,242.04 388.36,243.85C388.66,245.64 388.89,247.45 389.08,249.25C389.27,251.05 389.4,252.85 389.51,254.65Q389.62,256.45 389.76,260.04Z" style="vector-effect: non-scaling-stroke; stroke-width: 2px; stroke: rgb(239, 85, 59); stroke-opacity: 1; fill: rgb(239, 85, 59); fill-opacity: 0.5;"/><path class="box" d="M68.44,154.61H87.55M68.44,176.89H87.55V104.72H68.44ZM78,176.89V253.45M78,104.72V82.17" style="vector-effect: non-scaling-stroke; stroke-width: 2px; stroke: rgb(239, 85, 59); stroke-opacity: 1; fill: rgb(239, 85, 59); fill-opacity: 0.5;"/><path class="box" d="M224.44,149.05H243.55M224.44,160.18H243.55V98.88H224.44ZM234,160.18V224.27M234,98.88V82.17" style="vector-effect: non-scaling-stroke; stroke-width: 2px; stroke: rgb(239, 85, 59); stroke-opacity: 1; fill: rgb(239, 85, 59); fill-opacity: 0.5;"/><path class="box" d="M380.44,155.17H399.55M380.44,185.25H399.55V132.3H380.44ZM390,185.25V227M390,132.3V93.31" style="vector-effect: non-scaling-stroke; stroke-width: 2px; stroke: rgb(239, 85, 59); stroke-opacity: 1; fill: rgb(239, 85, 59); fill-opacity: 0.5;"/><path class="mean" d="M68.44,148.94H87.55" style="fill: none; vector-effect: non-scaling-stroke; stroke-width: 2px; stroke-dasharray: 4px, 2px; stroke: rgb(239, 85, 59); stroke-opacity: 1;"/><path class="mean" d="M224.44,134.91H243.55" style="fill: none; vector-effect: non-scaling-stroke; stroke-width: 2px; stroke-dasharray: 4px, 2px; stroke: rgb(239, 85, 59); stroke-opacity: 1;"/><path class="mean" d="M380.44,157.36H399.55" style="fill: none; vector-effect: non-scaling-stroke; stroke-width: 2px; stroke-dasharray: 4px, 2px; stroke: rgb(239, 85, 59); stroke-opacity: 1;"/></g></g></g><g class="overplot"/><path class="xlines-above crisp" d="M0,0" style="fill: none;"/><path class="ylines-above crisp" d="M0,0" style="fill: none;"/><g class="overlines-above"/><g class="xaxislayer-above"><g class="x4tick"><text text-anchor="middle" x="0" y="833" transform="translate(730,0)" style="font-family: 'Open Sans', verdana, arial, sans-serif; font-size: 12px; fill: rgb(42, 63, 95); fill-opacity: 1; white-space: pre; opacity: 1;">&#60;=1</text></g><g class="x4tick"><text text-anchor="middle" x="0" y="833" transform="translate(886,0)" style="font-family: 'Open Sans', verdana, arial, sans-serif; font-size: 12px; fill: rgb(42, 63, 95); fill-opacity: 1; white-space: pre; opacity: 1;">(1, 2]</text></g><g class="x4tick"><text text-anchor="middle" x="0" y="833" transform="translate(1042,0)" style="font-family: 'Open Sans', verdana, arial, sans-serif; font-size: 12px; fill: rgb(42, 63, 95); fill-opacity: 1; white-space: pre; opacity: 1;">>2</text></g></g><g class="yaxislayer-above"><g class="y4tick"><text text-anchor="end" x="651" y="4.199999999999999" transform="translate(0,774.36)" style="font-family: 'Open Sans', verdana, arial, sans-serif; font-size: 12px; fill: rgb(42, 63, 95); fill-opacity: 1; white-space: pre; opacity: 1;">0</text></g><g class="y4tick"><text text-anchor="end" x="651" y="4.199999999999999" style="font-family: 'Open Sans', verdana, arial, sans-serif; font-size: 12px; fill: rgb(42, 63, 95); fill-opacity: 1; white-space: pre; opacity: 1;" transform="translate(0,718.67)">10</text></g><g class="y4tick"><text text-anchor="end" x="651" y="4.199999999999999" style="font-family: 'Open Sans', verdana, arial, sans-serif; font-size: 12px; fill: rgb(42, 63, 95); fill-opacity: 1; white-space: pre; opacity: 1;" transform="translate(0,662.99)">20</text></g><g class="y4tick"><text text-anchor="end" x="651" y="4.199999999999999" style="font-family: 'Open Sans', verdana, arial, sans-serif; font-size: 12px; fill: rgb(42, 63, 95); fill-opacity: 1; white-space: pre; opacity: 1;" transform="translate(0,607.31)">30</text></g><g class="y4tick"><text text-anchor="end" x="651" y="4.199999999999999" style="font-family: 'Open Sans', verdana, arial, sans-serif; font-size: 12px; fill: rgb(42, 63, 95); fill-opacity: 1; white-space: pre; opacity: 1;" transform="translate(0,551.62)">40</text></g></g><g class="overaxes-above"/></g></g><g class="polarlayer"/><g class="smithlayer"/><g class="ternarylayer"/><g class="geolayer"/><g class="funnelarealayer"/><g class="pielayer"/><g class="iciclelayer"/><g class="treemaplayer"/><g class="sunburstlayer"/><g class="glimages"/><defs id="topdefs-64408c"><g class="clips"/></defs><g class="layer-above"><g class="imagelayer"/><g class="shapelayer"/></g><g class="infolayer"><g class="g-gtitle"><text class="gtitle" x="60" y="50" text-anchor="start" dy="0em" style="font-family: 'Open Sans', verdana, arial, sans-serif; font-size: 17px; fill: rgb(42, 63, 95); opacity: 1; font-weight: normal; white-space: pre;">original_price Distributions</text></g><g class="g-xtitle"><text class="xtitle" x="314" y="447.8" text-anchor="middle" style="font-family: 'Open Sans', verdana, arial, sans-serif; font-size: 14px; fill: rgb(42, 63, 95); opacity: 1; font-weight: normal; white-space: pre;">Hardcover over Paperback</text></g><g class="g-x2title"><text class="x2title" x="886" y="447.8" text-anchor="middle" style="font-family: 'Open Sans', verdana, arial, sans-serif; font-size: 14px; fill: rgb(42, 63, 95); opacity: 1; font-weight: normal; white-space: pre;">Hardcover over Paperback</text></g><g class="g-x3title"><text class="x3title" x="314" y="861.8" text-anchor="middle" style="font-family: 'Open Sans', verdana, arial, sans-serif; font-size: 14px; fill: rgb(42, 63, 95); opacity: 1; font-weight: normal; white-space: pre;">Hardcover over Paperback</text></g><g class="g-x4title"><text class="x4title" x="886" y="861.8" text-anchor="middle" style="font-family: 'Open Sans', verdana, arial, sans-serif; font-size: 14px; fill: rgb(42, 63, 95); opacity: 1; font-weight: normal; white-space: pre;">Hardcover over Paperback</text></g><g class="g-ytitle"><text class="ytitle" transform="rotate(-90,40.465625,253.00000000000003)" x="40.465625" y="253.00000000000003" text-anchor="middle" style="font-family: 'Open Sans', verdana, arial, sans-serif; font-size: 14px; fill: rgb(42, 63, 95); opacity: 1; font-weight: normal; white-space: pre;">original_price</text></g><g class="g-y2title"><text class="y2title" transform="rotate(-90,612.465625,253.00000000000003)" x="612.465625" y="253.00000000000003" text-anchor="middle" style="font-family: 'Open Sans', verdana, arial, sans-serif; font-size: 14px; fill: rgb(42, 63, 95); opacity: 1; font-weight: normal; white-space: pre;">original_price</text></g><g class="g-y3title"><text class="y3title" transform="rotate(-90,40.465625,667)" x="40.465625" y="667" text-anchor="middle" style="font-family: 'Open Sans', verdana, arial, sans-serif; font-size: 14px; fill: rgb(42, 63, 95); opacity: 1; font-weight: normal; white-space: pre;">original_price</text></g><g class="g-y4title"><text class="y4title" transform="rotate(-90,612.465625,667)" x="612.465625" y="667" text-anchor="middle" style="font-family: 'Open Sans', verdana, arial, sans-serif; font-size: 14px; fill: rgb(42, 63, 95); opacity: 1; font-weight: normal; white-space: pre;">original_price</text></g><g class="annotation" data-index="0" style="opacity: 1;"><g class="annotation-text-g" transform="rotate(0,314,87)"><g class="cursor-pointer" transform="translate(202,74)"><rect class="bg" x="0.5" y="0.5" width="224" height="25" style="stroke-width: 1px; stroke: rgb(0, 0, 0); stroke-opacity: 0; fill: rgb(0, 0, 0); fill-opacity: 0;"/><text class="annotation-text" text-anchor="middle" x="112.578125" y="19" style="font-family: 'Open Sans', verdana, arial, sans-serif; font-size: 16px; fill: rgb(42, 63, 95); fill-opacity: 1; white-space: pre;">Paperback (Paperback Better)</text></g></g></g><g class="annotation" data-index="1" style="opacity: 1;"><g class="annotation-text-g" transform="rotate(0,886,87)"><g class="cursor-pointer" transform="translate(774,74)"><rect class="bg" x="0.5" y="0.5" width="223" height="25" style="stroke-width: 1px; stroke: rgb(0, 0, 0); stroke-opacity: 0; fill: rgb(0, 0, 0); fill-opacity: 0;"/><text class="annotation-text" text-anchor="middle" x="112.203125" y="19" style="font-family: 'Open Sans', verdana, arial, sans-serif; font-size: 16px; fill: rgb(42, 63, 95); fill-opacity: 1; white-space: pre;">Hardcover (Paperback Better)</text></g></g></g><g class="annotation" data-index="2" style="opacity: 1;"><g class="annotation-text-g" transform="rotate(0,314,501)"><g class="cursor-pointer" transform="translate(202,488)"><rect class="bg" x="0.5" y="0.5" width="223" height="25" style="stroke-width: 1px; stroke: rgb(0, 0, 0); stroke-opacity: 0; fill: rgb(0, 0, 0); fill-opacity: 0;"/><text class="annotation-text" text-anchor="middle" x="112.203125" y="19" style="font-family: 'Open Sans', verdana, arial, sans-serif; font-size: 16px; fill: rgb(42, 63, 95); fill-opacity: 1; white-space: pre;">Paperback (Hardcover Better)</text></g></g></g><g class="annotation" data-index="3" style="opacity: 1;"><g class="annotation-text-g" transform="rotate(0,886,501)"><g class="cursor-pointer" transform="translate(774,488)"><rect class="bg" x="0.5" y="0.5" width="223" height="25" style="stroke-width: 1px; stroke: rgb(0, 0, 0); stroke-opacity: 0; fill: rgb(0, 0, 0); fill-opacity: 0;"/><text class="annotation-text" text-anchor="middle" x="111.828125" y="19" style="font-family: 'Open Sans', verdana, arial, sans-serif; font-size: 16px; fill: rgb(42, 63, 95); fill-opacity: 1; white-space: pre;">Hardcover (Hardcover Better)</text></g></g></g></g></svg>