<svg class="main-svg" xmlns="http://www.w3.org/2000/svg" xmlns:xlink="http://www.w3.org/1999/xlink" width="1200" height="900" style="" viewBox="0 0 1200 900"><rect x="0" y="0" width="1200" height="900" style="fill: rgb(255, 255, 255); fill-opacity: 1;"/><defs id="defs-a4b03a"><g class="clips"><clipPath id="clipa4b03axyplot" class="plotclip"><rect width="468" height="306.00000000000006"/></clipPath><clipPath id="clipa4b03ax2y2plot" class="plotclip"><rect width="467.99999999999994" height="306.00000000000006"/></clipPath><clipPath id="clipa4b03ax3y3plot" class="plotclip"><rect width="468" height="306"/></clipPath><clipPath id="clipa4b03ax4y4plot" class="plotclip"><rect width="467.99999999999994" height="306"/></clipPath><clipPath class="axesclip" id="clipa4b03ax"><rect x="80" y="0" width="468" height="900"/></clipPath><clipPath class="axesclip" id="clipa4b03ay"><rect x="0" y="100" width="1200" height="306.00000000000006"/></clipPath><clipPath class="axesclip" id="clipa4b03axy"><rect x="80" y="100" width="468" height="306.00000000000006"/></clipPath><clipPath class="axesclip" id="clipa4b03ay2"><rect x="0" y="100" width="1200" height="306.00000000000006"/></clipPath><clipPath class="axesclip" id="clipa4b03axy2"><rect x="80" y="100" width="468" height="306.00000000000006"/></clipPath><clipPath class="axesclip" id="clipa4b03ay3"><rect x="0" y="514" width="1200" height="306"/></clipPath><clipPath class="axesclip" id="clipa4b03axy3"><rect x="80" y="514" width="468" height="306"/></clipPath><clipPath class="axesclip" id="clipa4b03ay4"><rect x="0" y="514" width="1200" height="306"/></clipPath><clipPath class="axesclip" id="clipa4b03axy4"><rect x="80" y="514" width="468" height="306"/></clipPath><clipPath class="axesclip" id="clipa4b03ax2"><rect x="652" y="0" width="467.99999999999994" height="900"/></clipPath><clipPath class="axesclip" id="clipa4b03ax2y"><rect x="652" y="100" width="467.99999999999994" height="306.00000000000006"/></clipPath><clipPath class="axesclip" id="clipa4b03ax2y2"><rect x="652" y="100" width="467.99999999999994" height="306.00000000000006"/></clipPath><clipPath class="axesclip" id="clipa4b03ax2y3"><rect x="652" y="514" width="467.99999999999994" height="306"/></clipPath><clipPath class="axesclip" id="clipa4b03ax2y4"><rect x="652" y="514" width="467.99999999999994" height="306"/></clipPath><clipPath class="axesclip" id="clipa4b03ax3"><rect x="80" y="0" width="468" height="900"/></clipPath><clipPath class="axesclip" id="clipa4b03ax3y"><rect x="80" y="100" width="468" height="306.00000000000006"/></clipPath><clipPath class="axesclip" id="clipa4b03ax3y2"><rect x="80" y="100" width="468" height="306.00000000000006"/></clipPath><clipPath class="axesclip" id="clipa4b03ax3y3"><rect x="80" y="514" width="468" height="306"/></clipPath><clipPath class="axesclip" id="clipa4b03ax3y4"><rect x="80" y="514" width="468" height="306"/></clipPath><clipPath class="axesclip" id="clipa4b03ax4"><rect x="652" y="0" width="467.99999999999994" height="900"/></clipPath><clipPath class="axesclip" id="clipa4b03ax4y"><rect x="652" y="100" width="467.99999999999994" height="306.00000000000006"/></clipPath><clipPath class="axesclip" id="clipa4b03ax4y2"><rect x="652" y="100" width="467.99999999999994" height="306.00000000000006"/></clipPath><clipPath class="axesclip" id="clipa4b03ax4y3"><rect x="652" y="514" width="467.99999999999994" height="306"/></clipPath><clipPath class="axesclip" id="clipa4b03ax4y4"><rect x="652" y="514" width="467.99999999999994" height="306"/></clipPath></g><g class="gradients"/><g class="patterns"/></defs><g class="bglayer"><rect class="bg" x="80" y="100" width="468" height="306.00000000000006" style="fill: rgb(229, 236, 246); fill-opacity: 1; stroke-width: 0;"/><rect class="bg" x="652" y="100" width="467.99999999999994" height="306.00000000000006" style="fill: rgb(229, 236, 246); fill-opacity: 1; stroke-width: 0;"/><rect class="bg" x="80" y="514" width="468" height="306" style="fill: rgb(229, 236, 246); fill-opacity: 1; stroke-width: 0;"/><rect class="bg" x="652" y="514" width="467.99999999999994" height="306" style="fill: rgb(229, 236, 246); fill-opacity: 1; stroke-width: 0;"/></g><g class="layer-below"><g class="imagelayer"/><g class="shapelayer"/></g><g class="cartesianlayer"><g class="subplot xy"><g class="layer-subplot"><g class="shapelayer"/><g class="imagelayer"/></g><g class="minor-gridlayer"><g class="x"/><g class="y"/></g><g class="gridlayer"><g class="x"/><g class="y"><path class="ygrid crisp" transform="translate(0,397.6)" d="M80,0h468" style="stroke: rgb(255, 255, 255); stroke-opacity: 1; stroke-width: 1px;"/><path class="ygrid crisp" transform="translate(0,328.13)" d="M80,0h468" style="stroke: rgb(255, 255, 255); stroke-opacity: 1; stroke-width: 1px;"/><path class="ygrid crisp" transform="translate(0,258.66999999999996)" d="M80,0h468" style="stroke: rgb(255, 255, 255); stroke-opacity: 1; stroke-width: 1px;"/><path class="ygrid crisp" transform="translate(0,189.2)" d="M80,0h468" style="stroke: rgb(255, 255, 255); stroke-opacity: 1; stroke-width: 1px;"/><path class="ygrid crisp" transform="translate(0,119.74)" d="M80,0h468" style="stroke: rgb(255, 255, 255); stroke-opacity: 1; stroke-width: 1px;"/></g></g><g class="zerolinelayer"/><path class="xlines-below"/><path class="ylines-below"/><g class="overlines-below"/><g class="xaxislayer-below"/><g class="yaxislayer-below"/><g class="overaxes-below"/><g class="plot" transform="translate(80,100)" clip-path="url(#clipa4b03axyplot)"><g class="violinlayer mlayer"><g class="trace violins" style="opacity: 1;"><path class="violin" d="M78.09,241Q78.15,238.07 78.19,236.61C78.23,235.15 78.28,233.68 78.34,232.22C78.4,230.76 78.48,229.29 78.57,227.83C78.66,226.37 78.77,224.9 78.88,223.44C78.99,221.98 79.12,220.51 79.24,219.05C79.37,217.59 79.5,216.12 79.63,214.66C79.76,213.2 79.89,211.73 80.01,210.27C80.13,208.81 80.25,207.34 80.36,205.88C80.47,204.42 80.57,202.95 80.68,201.49C80.78,200.03 80.89,198.56 80.99,197.1C81.1,195.64 81.2,194.17 81.31,192.71C81.43,191.25 81.55,189.78 81.68,188.32C81.81,186.86 81.95,185.39 82.1,183.93C82.25,182.47 82.42,181 82.6,179.54C82.78,178.08 82.99,176.61 83.2,175.15C83.41,173.68 83.65,172.22 83.88,170.75C84.11,169.29 84.36,167.82 84.58,166.36C84.8,164.9 85.02,163.43 85.21,161.97C85.4,160.51 85.57,159.04 85.7,157.58C85.83,156.12 85.92,154.65 86.01,153.19C86.1,151.73 86.15,150.26 86.23,148.8C86.31,147.34 86.37,145.87 86.51,144.41C86.65,142.94 86.81,141.48 87.07,140.02C87.34,138.55 87.68,137.08 88.11,135.63C88.55,134.15 89.08,132.69 89.67,131.24C90.27,129.76 90.98,128.3 91.7,126.85C92.42,125.38 93.22,123.92 93.99,122.46C94.76,121 95.56,119.54 96.3,118.07C97.03,116.61 97.75,115.16 98.38,113.68C99,112.23 99.57,110.77 100.03,109.29C100.49,107.84 100.86,106.37 101.15,104.9C101.44,103.44 101.63,101.98 101.79,100.51C101.94,99.05 102.01,97.58 102.08,96.12C102.15,94.66 102.17,93.19 102.21,91.73C102.24,90.27 102.28,88.8 102.29,87.34C102.3,85.88 102.33,84.41 102.27,82.95C102.21,81.49 102.16,80.02 101.94,78.56C101.72,77.09 101.43,75.61 100.96,74.17C100.48,72.68 99.82,71.21 99.06,69.78C98.26,68.28 97.27,66.83 96.24,65.39C95.17,63.9 93.93,62.45 92.74,61C91.53,59.53 90.23,58.09 89.03,56.61C87.85,55.16 86.66,53.71 85.61,52.22C84.59,50.78 83.63,49.32 82.81,47.83C82.02,46.39 81.34,44.92 80.78,43.44C80.23,42 79.82,40.52 79.47,39.05Q79.13,37.6 78.7,34.66L77.3,34.66Q76.87,37.6 76.53,39.05C76.18,40.52 75.77,42 75.22,43.44C74.66,44.92 73.98,46.39 73.19,47.83C72.37,49.32 71.41,50.78 70.39,52.22C69.34,53.71 68.15,55.16 66.97,56.61C65.77,58.09 64.47,59.53 63.26,61C62.07,62.45 60.83,63.9 59.76,65.39C58.73,66.83 57.74,68.28 56.94,69.78C56.18,71.21 55.52,72.68 55.04,74.17C54.57,75.61 54.28,77.09 54.06,78.56C53.84,80.02 53.79,81.49 53.73,82.95C53.67,84.41 53.7,85.88 53.71,87.34C53.72,88.8 53.76,90.27 53.79,91.73C53.83,93.19 53.85,94.66 53.92,96.12C53.99,97.58 54.06,99.05 54.21,100.51C54.37,101.98 54.56,103.44 54.85,104.9C55.14,106.37 55.51,107.84 55.97,109.29C56.43,110.77 57,112.23 57.62,113.68C58.25,115.16 58.97,116.61 59.7,118.07C60.44,119.54 61.24,121 62.01,122.46C62.78,123.92 63.58,125.38 64.3,126.85C65.02,128.3 65.73,129.76 66.33,131.24C66.92,132.69 67.45,134.15 67.89,135.63C68.32,137.08 68.66,138.55 68.93,140.02C69.19,141.48 69.35,142.94 69.49,144.41C69.63,145.87 69.69,147.34 69.77,148.8C69.85,150.26 69.9,151.73 69.99,153.19C70.08,154.65 70.17,156.12 70.3,157.58C70.43,159.04 70.6,160.51 70.79,161.97C70.98,163.43 71.2,164.9 71.42,166.36C71.64,167.82 71.89,169.29 72.12,170.75C72.35,172.22 72.59,173.68 72.8,175.15C73.01,176.61 73.22,178.08 73.4,179.54C73.58,181 73.75,182.47 73.9,183.93C74.05,185.39 74.19,186.86 74.32,188.32C74.45,189.78 74.57,191.25 74.69,192.71C74.8,194.17 74.9,195.64 75.01,197.1C75.11,198.56 75.22,200.03 75.32,201.49C75.43,202.95 75.53,204.42 75.64,205.88C75.75,207.34 75.87,208.81 75.99,210.27C76.11,211.73 76.24,213.2 76.37,214.66C76.5,216.12 76.63,217.59 76.76,219.05C76.88,220.51 77.01,221.98 77.12,223.44C77.23,224.9 77.34,226.37 77.43,227.83C77.52,229.29 77.6,230.76 77.66,232.22C77.72,233.68 77.77,235.15 77.81,236.61Q77.85,238.07 77.91,241Z" style="vector-effect: non-scaling-stroke; stroke-width: 2px; stroke: rgb(99, 110, 250); stroke-opacity: 1; fill: rgb(99, 110, 250); fill-opacity: 0.5;"/><path class="violin" d="M234.16,228.72Q234.25,227.13 234.31,226.33C234.37,225.53 234.44,224.74 234.52,223.94C234.6,223.14 234.71,222.35 234.81,221.55C234.91,220.75 235.03,219.96 235.14,219.16C235.25,218.36 235.38,217.56 235.49,216.76C235.6,215.96 235.71,215.17 235.8,214.37C235.89,213.57 235.96,212.78 236.03,211.98C236.09,211.18 236.15,210.39 236.19,209.59C236.23,208.79 236.25,208 236.28,207.2C236.31,206.4 236.32,205.6 236.35,204.8C236.37,204 236.4,203.21 236.43,202.41C236.47,201.61 236.5,200.82 236.56,200.02C236.62,199.22 236.69,198.43 236.78,197.63C236.87,196.83 236.97,196.04 237.08,195.24C237.19,194.44 237.32,193.64 237.44,192.84C237.56,192.04 237.7,191.25 237.82,190.45C237.94,189.65 238.06,188.86 238.17,188.06C238.27,187.26 238.37,186.47 238.45,185.67C238.53,184.87 238.6,184.08 238.65,183.28C238.71,182.48 238.75,181.68 238.78,180.88C238.81,180.08 238.82,179.29 238.84,178.49C238.85,177.69 238.87,176.9 238.87,176.1C238.87,175.3 238.87,174.51 238.87,173.71C238.87,172.91 238.86,172.12 238.86,171.32C238.86,170.52 238.86,169.72 238.87,168.92C238.88,168.12 238.9,167.33 238.94,166.53C238.98,165.73 239.03,164.94 239.09,164.14C239.16,163.34 239.24,162.55 239.33,161.75C239.42,160.95 239.53,160.16 239.63,159.36C239.73,158.56 239.84,157.76 239.94,156.96C240.04,156.16 240.14,155.37 240.23,154.57C240.32,153.77 240.4,152.98 240.48,152.18C240.56,151.38 240.63,150.59 240.71,149.79C240.78,148.99 240.85,148.2 240.93,147.4C241.01,146.6 241.09,145.8 241.17,145C241.25,144.2 241.33,143.41 241.41,142.61C241.49,141.81 241.57,141.02 241.64,140.22C241.71,139.42 241.78,138.63 241.83,137.83C241.88,137.03 241.92,136.24 241.95,135.44C241.98,134.64 242,133.84 242.01,133.04C242.02,132.24 242.02,131.45 242.03,130.65C242.04,129.85 242.05,129.06 242.07,128.26C242.1,127.46 242.12,126.67 242.18,125.87C242.24,125.07 242.31,124.27 242.43,123.48C242.55,122.68 242.7,121.87 242.89,121.08C243.08,120.28 243.31,119.48 243.58,118.69C243.85,117.89 244.16,117.09 244.5,116.3C244.84,115.5 245.23,114.7 245.62,113.91C246.02,113.11 246.45,112.31 246.88,111.52C247.32,110.72 247.77,109.92 248.23,109.12C248.69,108.32 249.16,107.52 249.64,106.73C250.13,105.93 250.62,105.13 251.13,104.34C251.65,103.54 252.18,102.74 252.74,101.95C253.31,101.15 253.89,100.35 254.51,99.56C255.14,98.75 255.81,97.95 256.49,97.16C257.19,96.35 257.92,95.56 258.65,94.77C259.39,93.97 260.16,93.18 260.9,92.38C261.64,91.58 262.39,90.79 263.11,89.99C263.82,89.2 264.52,88.41 265.19,87.6C265.85,86.81 266.48,86.01 267.09,85.2C267.69,84.41 268.26,83.61 268.8,82.81C269.33,82.02 269.85,81.23 270.31,80.42C270.76,79.63 271.2,78.84 271.52,78.03C271.83,77.25 272.13,76.45 272.22,75.64C272.31,74.85 272.31,74.02 272.09,73.24C271.86,72.42 271.4,71.6 270.82,70.85C270.15,69.99 269.2,69.21 268.2,68.46C267.06,67.61 265.68,66.84 264.29,66.07C262.77,65.24 261.08,64.46 259.41,63.68C257.68,62.87 255.84,62.08 254.07,61.28C252.32,60.49 250.54,59.71 248.87,58.89C247.28,58.11 245.71,57.33 244.29,56.5C242.98,55.73 241.72,54.95 240.62,54.11C239.62,53.35 238.71,52.56 237.94,51.72C237.24,50.95 236.64,50.15 236.16,49.32Q235.71,48.55 235.09,46.93L232.91,46.93Q232.29,48.55 231.84,49.32C231.36,50.15 230.76,50.95 230.06,51.72C229.29,52.56 228.38,53.35 227.38,54.11C226.28,54.95 225.02,55.73 223.71,56.5C222.29,57.33 220.72,58.11 219.13,58.89C217.46,59.71 215.68,60.49 213.93,61.28C212.16,62.08 210.32,62.87 208.59,63.68C206.92,64.46 205.23,65.24 203.71,66.07C202.32,66.84 200.94,67.61 199.8,68.46C198.8,69.21 197.85,69.99 197.18,70.85C196.6,71.6 196.14,72.42 195.91,73.24C195.69,74.02 195.69,74.85 195.78,75.64C195.87,76.45 196.17,77.25 196.48,78.03C196.8,78.84 197.24,79.63 197.69,80.42C198.15,81.23 198.67,82.02 199.2,82.81C199.74,83.61 200.31,84.41 200.91,85.2C201.52,86.01 202.15,86.81 202.81,87.6C203.48,88.41 204.18,89.2 204.89,89.99C205.61,90.79 206.36,91.58 207.1,92.38C207.84,93.18 208.61,93.97 209.35,94.77C210.08,95.56 210.81,96.35 211.51,97.16C212.19,97.95 212.86,98.75 213.49,99.56C214.11,100.35 214.69,101.15 215.26,101.95C215.82,102.74 216.35,103.54 216.87,104.34C217.38,105.13 217.87,105.93 218.36,106.73C218.84,107.52 219.31,108.32 219.77,109.12C220.23,109.92 220.68,110.72 221.12,111.52C221.55,112.31 221.98,113.11 222.38,113.91C222.77,114.7 223.16,115.5 223.5,116.3C223.84,117.09 224.15,117.89 224.42,118.69C224.69,119.48 224.92,120.28 225.11,121.08C225.3,121.87 225.45,122.68 225.57,123.48C225.69,124.27 225.76,125.07 225.82,125.87C225.88,126.67 225.9,127.46 225.93,128.26C225.95,129.06 225.96,129.85 225.97,130.65C225.98,131.45 225.98,132.24 225.99,133.04C226,133.84 226.02,134.64 226.05,135.44C226.08,136.24 226.12,137.03 226.17,137.83C226.22,138.63 226.29,139.42 226.36,140.22C226.43,141.02 226.51,141.81 226.59,142.61C226.67,143.41 226.75,144.2 226.83,145C226.91,145.8 226.99,146.6 227.07,147.4C227.15,148.2 227.22,148.99 227.29,149.79C227.37,150.59 227.44,151.38 227.52,152.18C227.6,152.98 227.68,153.77 227.77,154.57C227.86,155.37 227.96,156.16 228.06,156.96C228.16,157.76 228.27,158.56 228.37,159.36C228.47,160.16 228.58,160.95 228.67,161.75C228.76,162.55 228.84,163.34 228.91,164.14C228.97,164.94 229.02,165.73 229.06,166.53C229.1,167.33 229.12,168.12 229.13,168.92C229.14,169.72 229.14,170.52 229.14,171.32C229.14,172.12 229.13,172.91 229.13,173.71C229.13,174.51 229.13,175.3 229.13,176.1C229.13,176.9 229.15,177.69 229.16,178.49C229.18,179.29 229.19,180.08 229.22,180.88C229.25,181.68 229.29,182.48 229.35,183.28C229.4,184.08 229.47,184.87 229.55,185.67C229.63,186.47 229.73,187.26 229.83,188.06C229.94,188.86 230.06,189.65 230.18,190.45C230.3,191.25 230.44,192.04 230.56,192.84C230.68,193.64 230.81,194.44 230.92,195.24C231.03,196.04 231.13,196.83 231.22,197.63C231.31,198.43 231.38,199.22 231.44,200.02C231.5,200.82 231.53,201.61 231.57,202.41C231.6,203.21 231.63,204 231.65,204.8C231.68,205.6 231.69,206.4 231.72,207.2C231.75,208 231.77,208.79 231.81,209.59C231.85,210.39 231.91,211.18 231.97,211.98C232.04,212.78 232.11,213.57 232.2,214.37C232.29,215.17 232.4,215.96 232.51,216.76C232.62,217.56 232.75,218.36 232.86,219.16C232.97,219.96 233.09,220.75 233.19,221.55C233.29,222.35 233.4,223.14 233.48,223.94C233.56,224.74 233.63,225.53 233.69,226.33Q233.75,227.13 233.84,228.72Z" style="vector-effect: non-scaling-stroke; stroke-width: 2px; stroke: rgb(99, 110, 250); stroke-opacity: 1; fill: rgb(99, 110, 250); fill-opacity: 0.5;"/><path class="violin" d="M390.17,234.99Q390.26,232.72 390.33,231.58C390.4,230.45 390.48,229.31 390.58,228.18C390.68,227.04 390.8,225.91 390.94,224.77C391.08,223.63 391.24,222.5 391.41,221.36C391.58,220.22 391.77,219.09 391.96,217.95C392.15,216.81 392.35,215.68 392.55,214.54C392.75,213.4 392.95,212.27 393.14,211.13C393.33,209.99 393.52,208.86 393.71,207.72C393.9,206.58 394.08,205.45 394.26,204.31C394.44,203.17 394.62,202.04 394.8,200.9C394.98,199.76 395.16,198.63 395.34,197.49C395.52,196.35 395.7,195.22 395.87,194.08C396.04,192.94 396.2,191.81 396.35,190.67C396.5,189.53 396.64,188.4 396.75,187.26C396.86,186.12 396.95,184.99 397.02,183.85C397.09,182.71 397.13,181.58 397.16,180.44C397.19,179.31 397.19,178.17 397.21,177.04C397.23,175.9 397.23,174.77 397.26,173.63C397.29,172.49 397.32,171.36 397.39,170.22C397.46,169.08 397.56,167.94 397.7,166.81C397.84,165.67 398.02,164.53 398.22,163.4C398.42,162.26 398.68,161.13 398.92,159.99C399.16,158.85 399.43,157.72 399.68,156.58C399.92,155.44 400.18,154.31 400.39,153.17C400.6,152.04 400.78,150.9 400.92,149.76C401.06,148.63 401.16,147.49 401.23,146.35C401.3,145.21 401.32,144.08 401.34,142.94C401.36,141.8 401.33,140.67 401.33,139.53C401.33,138.39 401.32,137.26 401.34,136.12C401.36,134.98 401.39,133.85 401.47,132.71C401.55,131.57 401.66,130.43 401.8,129.3C401.95,128.16 402.12,127.03 402.34,125.9C402.56,124.76 402.83,123.62 403.12,122.49C403.41,121.35 403.74,120.21 404.1,119.08C404.46,117.94 404.86,116.8 405.27,115.67C405.69,114.53 406.14,113.39 406.6,112.26C407.06,111.12 407.55,109.99 408.04,108.85C408.53,107.71 409.04,106.58 409.52,105.44C410,104.31 410.48,103.17 410.92,102.03C411.36,100.9 411.78,99.76 412.15,98.62C412.52,97.49 412.86,96.35 413.15,95.21C413.43,94.08 413.67,92.94 413.86,91.8C414.05,90.67 414.18,89.53 414.27,88.39C414.36,87.26 414.4,86.12 414.38,84.98C414.36,83.84 414.3,82.7 414.16,81.57C414.02,80.43 413.83,79.29 413.56,78.16C413.28,77.01 412.93,75.87 412.49,74.75C412.04,73.6 411.49,72.46 410.87,71.35C410.22,70.19 409.47,69.06 408.67,67.94C407.84,66.78 406.9,65.65 405.95,64.53C404.98,63.38 403.92,62.25 402.9,61.12C401.87,59.98 400.8,58.86 399.8,57.71C398.82,56.58 397.83,55.46 396.94,54.3C396.08,53.18 395.26,52.05 394.55,50.89C393.87,49.77 393.26,48.63 392.75,47.48C392.26,46.36 391.85,45.22 391.52,44.07Q391.19,42.94 390.77,40.66L389.23,40.66Q388.81,42.94 388.48,44.07C388.15,45.22 387.74,46.36 387.25,47.48C386.74,48.63 386.13,49.77 385.45,50.89C384.74,52.05 383.92,53.18 383.06,54.3C382.17,55.46 381.18,56.58 380.2,57.71C379.2,58.86 378.13,59.98 377.1,61.12C376.08,62.25 375.02,63.38 374.05,64.53C373.1,65.65 372.16,66.78 371.33,67.94C370.53,69.06 369.78,70.19 369.13,71.35C368.51,72.46 367.96,73.6 367.51,74.75C367.07,75.87 366.72,77.01 366.44,78.16C366.17,79.29 365.98,80.43 365.84,81.57C365.7,82.7 365.64,83.84 365.62,84.98C365.6,86.12 365.64,87.26 365.73,88.39C365.82,89.53 365.95,90.67 366.14,91.8C366.33,92.94 366.57,94.08 366.85,95.21C367.14,96.35 367.48,97.49 367.85,98.62C368.22,99.76 368.64,100.9 369.08,102.03C369.52,103.17 370,104.31 370.48,105.44C370.96,106.58 371.47,107.71 371.96,108.85C372.45,109.99 372.94,111.12 373.4,112.26C373.86,113.39 374.31,114.53 374.73,115.67C375.14,116.8 375.54,117.94 375.9,119.08C376.26,120.21 376.59,121.35 376.88,122.49C377.17,123.62 377.44,124.76 377.66,125.9C377.88,127.03 378.05,128.16 378.2,129.3C378.34,130.43 378.45,131.57 378.53,132.71C378.61,133.85 378.64,134.98 378.66,136.12C378.68,137.26 378.67,138.39 378.67,139.53C378.67,140.67 378.64,141.8 378.66,142.94C378.68,144.08 378.7,145.21 378.77,146.35C378.84,147.49 378.94,148.63 379.08,149.76C379.22,150.9 379.4,152.04 379.61,153.17C379.82,154.31 380.08,155.44 380.32,156.58C380.57,157.72 380.84,158.85 381.08,159.99C381.32,161.13 381.58,162.26 381.78,163.4C381.98,164.53 382.16,165.67 382.3,166.81C382.44,167.94 382.54,169.08 382.61,170.22C382.68,171.36 382.71,172.49 382.74,173.63C382.77,174.77 382.77,175.9 382.79,177.04C382.81,178.17 382.81,179.31 382.84,180.44C382.87,181.58 382.91,182.71 382.98,183.85C383.05,184.99 383.14,186.12 383.25,187.26C383.36,188.4 383.5,189.53 383.65,190.67C383.8,191.81 383.96,192.94 384.13,194.08C384.3,195.22 384.48,196.35 384.66,197.49C384.84,198.63 385.02,199.76 385.2,200.9C385.38,202.04 385.56,203.17 385.74,204.31C385.92,205.45 386.1,206.58 386.29,207.72C386.48,208.86 386.67,209.99 386.86,211.13C387.05,212.27 387.25,213.4 387.45,214.54C387.65,215.68 387.85,216.81 388.04,217.95C388.23,219.09 388.42,220.22 388.59,221.36C388.76,222.5 388.92,223.63 389.06,224.77C389.2,225.91 389.32,227.04 389.42,228.18C389.52,229.31 389.6,230.45 389.67,231.58Q389.74,232.72 389.83,234.99Z" style="vector-effect: non-scaling-stroke; stroke-width: 2px; stroke: rgb(99, 110, 250); stroke-opacity: 1; fill: rgb(99, 110, 250); fill-opacity: 0.5;"/><path class="box" d="M68.45,103.1H87.56M68.45,123.93H87.56V75.31H68.45ZM78,123.93V193.4M78,75.31V61.42" style="vector-effect: non-scaling-stroke; stroke-width: 2px; stroke: rgb(99, 110, 250); stroke-opacity: 1; fill: rgb(99, 110, 250); fill-opacity: 0.5;"/><path class="box" d="M224.45,89.2H243.56M224.45,116.99H243.56V75.31H224.45ZM234,116.99V179.51M234,75.31V61.42" style="vector-effect: non-scaling-stroke; stroke-width: 2px; stroke: rgb(99, 110, 250); stroke-opacity: 1; fill: rgb(99, 110, 250); fill-opacity: 0.5;"/><path class="box" d="M380.45,103.1H399.55M380.45,144.77H399.55V82.26H380.45ZM390,144.77V214.24M390,82.26V61.42" style="vector-effect: non-scaling-stroke; stroke-width: 2px; stroke: rgb(99, 110, 250); stroke-opacity: 1; fill: rgb(99, 110, 250); fill-opacity: 0.5;"/><path class="mean" d="M68.45,107.65H87.56" style="fill: none; vector-effect: non-scaling-stroke; stroke-width: 2px; stroke-dasharray: 4px, 2px; stroke: rgb(99, 110, 250); stroke-opacity: 1;"/><path class="mean" d="M224.45,101.49H243.56" style="fill: none; vector-effect: non-scaling-stroke; stroke-width: 2px; stroke-dasharray: 4px, 2px; stroke: rgb(99, 110, 250); stroke-opacity: 1;"/><path class="mean" d="M380.45,114.55H399.55" style="fill: none; vector-effect: non-scaling-stroke; stroke-width: 2px; stroke-dasharray: 4px, 2px; stroke: rgb(99, 110, 250); stroke-opacity: 1;"/></g></g></g><g class="overplot"/><path class="xlines-above crisp" d="M0,0" style="fill: none;"/><path class="ylines-above crisp" d="M0,0" style="fill: none;"/><g class="overlines-above"/><g class="xaxislayer-above"><g class="xtick"><text text-anchor="middle" x="0" y="419.00000000000006" transform="translate(158,0)" style="font-family: 'Open Sans', verdana, arial, sans-serif; font-size: 12px; fill: rgb(42, 63, 95); fill-opacity: 1; white-space: pre; opacity: 1;">&#60;=1</text></g><g class="xtick"><text text-anchor="middle" x="0" y="419.00000000000006" transform="translate(314,0)" style="font-family: 'Open Sans', verdana, arial, sans-serif; font-size: 12px; fill: rgb(42, 63, 95); fill-opacity: 1; white-space: pre; opacity: 1;">(1, 2]</text></g><g class="xtick"><text text-anchor="middle" x="0" y="419.00000000000006" transform="translate(470,0)" style="font-family: 'Open Sans', verdana, arial, sans-serif; font-size: 12px; fill: rgb(42, 63, 95); fill-opacity: 1; white-space: pre; opacity: 1;">>2</text></g></g><g class="yaxislayer-above"><g class="ytick"><text text-anchor="end" x="79" y="4.199999999999999" transform="translate(0,397.6)" style="font-family: 'Open Sans', verdana, arial, sans-serif; font-size: 12px; fill: rgb(42, 63, 95); fill-opacity: 1; white-space: pre; opacity: 1;">1990</text></g><g class="ytick"><text text-anchor="end" x="79" y="4.199999999999999" style="font-family: 'Open Sans', verdana, arial, sans-serif; font-size: 12px; fill: rgb(42, 63, 95); fill-opacity: 1; white-space: pre; opacity: 1;" transform="translate(0,328.13)">2000</text></g><g class="ytick"><text text-anchor="end" x="79" y="4.199999999999999" style="font-family: 'Open Sans', verdana, arial, sans-serif; font-size: 12px; fill: rgb(42, 63, 95); fill-opacity: 1; white-space: pre; opacity: 1;" transform="translate(0,258.66999999999996)">2010</text></g><g class="ytick"><text text-anchor="end" x="79" y="4.199999999999999" style="font-family: 'Open Sans', verdana, arial, sans-serif; font-size: 12px; fill: rgb(42, 63, 95); fill-opacity: 1; white-space: pre; opacity: 1;" transform="translate(0,189.2)">2020</text></g><g class="ytick"><text text-anchor="end" x="79" y="4.199999999999999" style="font-family: 'Open Sans', verdana, arial, sans-serif; font-size: 12px; fill: rgb(42, 63, 95); fill-opacity: 1; white-space: pre; opacity: 1;" transform="translate(0,119.74)">2030</text></g></g><g class="overaxes-above"/></g><g class="subplot x2y2"><g class="layer-subplot"><g class="shapelayer"/><g class="imagelayer"/></g><g class="minor-gridlayer"><g class="x2"/><g class="y2"/></g><g class="gridlayer"><g class="x2"/><g class="y2"><path class="y2grid crisp" transform="translate(0,397.6)" d="M652,0h467.99999999999994" style="stroke: rgb(255, 255, 255); stroke-opacity: 1; stroke-width: 1px;"/><path class="y2grid crisp" transform="translate(0,328.13)" d="M652,0h467.99999999999994" style="stroke: rgb(255, 255, 255); stroke-opacity: 1; stroke-width: 1px;"/><path class="y2grid crisp" transform="translate(0,258.66999999999996)" d="M652,0h467.99999999999994" style="stroke: rgb(255, 255, 255); stroke-opacity: 1; stroke-width: 1px;"/><path class="y2grid crisp" transform="translate(0,189.2)" d="M652,0h467.99999999999994" style="stroke: rgb(255, 255, 255); stroke-opacity: 1; stroke-width: 1px;"/><path class="y2grid crisp" transform="translate(0,119.74)" d="M652,0h467.99999999999994" style="stroke: rgb(255, 255, 255); stroke-opacity: 1; stroke-width: 1px;"/></g></g><g class="zerolinelayer"/><path class="xlines-below"/><path class="ylines-below"/><g class="overlines-below"/><g class="xaxislayer-below"/><g class="yaxislayer-below"/><g class="overaxes-below"/><g class="plot" transform="translate(652,100)" clip-path="url(#clipa4b03ax2y2plot)"><g class="violinlayer mlayer"><g class="trace violins" style="opacity: 1;"><path class="violin" d="M78.25,290.7Q78.38,286.87 78.48,284.96C78.58,283.05 78.7,281.13 78.83,279.22C78.96,277.31 79.12,275.39 79.28,273.48C79.44,271.57 79.63,269.65 79.81,267.74C79.99,265.83 80.18,263.91 80.34,262C80.5,260.09 80.65,258.17 80.76,256.26C80.87,254.35 80.96,252.43 81.01,250.52C81.06,248.61 81.07,246.69 81.06,244.78C81.05,242.87 81,240.95 80.96,239.04C80.91,237.12 80.84,235.21 80.79,233.29C80.74,231.38 80.68,229.46 80.66,227.55C80.64,225.64 80.63,223.72 80.66,221.81C80.69,219.9 80.76,217.98 80.85,216.07C80.94,214.16 81.07,212.24 81.21,210.33C81.35,208.42 81.53,206.5 81.71,204.59C81.89,202.68 82.1,200.76 82.3,198.85C82.5,196.94 82.72,195.02 82.93,193.11C83.14,191.2 83.36,189.28 83.58,187.37C83.8,185.46 84.03,183.54 84.25,181.63C84.47,179.72 84.69,177.8 84.91,175.89C85.12,173.98 85.34,172.06 85.54,170.15C85.74,168.24 85.93,166.32 86.12,164.41C86.31,162.5 86.49,160.58 86.69,158.67C86.89,156.76 87.08,154.84 87.32,152.93C87.56,151.01 87.81,149.1 88.13,147.19C88.45,145.27 88.81,143.36 89.24,141.45C89.67,139.53 90.16,137.62 90.7,135.71C91.24,133.79 91.86,131.87 92.49,129.96C93.13,128.04 93.82,126.13 94.52,124.22C95.22,122.3 95.95,120.39 96.67,118.48C97.39,116.57 98.14,114.66 98.85,112.74C99.56,110.83 100.28,108.92 100.95,107C101.61,105.09 102.28,103.18 102.84,101.26C103.39,99.36 103.94,97.44 104.3,95.52C104.66,93.62 104.96,91.7 105.02,89.78C105.08,87.87 104.99,85.94 104.66,84.04C104.32,82.11 103.74,80.18 102.99,78.3C102.21,76.35 101.16,74.44 100.04,72.56C98.88,70.61 97.49,68.72 96.14,66.82C94.76,64.89 93.24,63 91.84,61.08C90.45,59.17 89.02,57.28 87.75,55.34C86.51,53.45 85.32,51.54 84.31,49.6C83.33,47.72 82.46,45.8 81.74,43.86C81.04,41.97 80.49,40.05 80.03,38.12C79.58,36.22 79.26,34.3 79,32.38Q78.74,30.47 78.45,26.63L77.55,26.63Q77.26,30.47 77,32.38C76.74,34.3 76.42,36.22 75.97,38.12C75.51,40.05 74.96,41.97 74.26,43.86C73.54,45.8 72.67,47.72 71.69,49.6C70.68,51.54 69.49,53.45 68.25,55.34C66.98,57.28 65.55,59.17 64.16,61.08C62.76,63 61.24,64.89 59.86,66.82C58.51,68.72 57.12,70.61 55.96,72.56C54.84,74.44 53.79,76.35 53.01,78.3C52.26,80.18 51.68,82.11 51.34,84.04C51.01,85.94 50.92,87.87 50.98,89.78C51.04,91.7 51.34,93.62 51.7,95.52C52.06,97.44 52.61,99.36 53.16,101.26C53.72,103.18 54.39,105.09 55.05,107C55.72,108.92 56.44,110.83 57.15,112.74C57.86,114.66 58.61,116.57 59.33,118.48C60.05,120.39 60.78,122.3 61.48,124.22C62.18,126.13 62.87,128.04 63.51,129.96C64.14,131.87 64.76,133.79 65.3,135.71C65.84,137.62 66.33,139.53 66.76,141.45C67.19,143.36 67.55,145.27 67.87,147.19C68.19,149.1 68.44,151.01 68.68,152.93C68.92,154.84 69.11,156.76 69.31,158.67C69.51,160.58 69.69,162.5 69.88,164.41C70.07,166.32 70.26,168.24 70.46,170.15C70.66,172.06 70.88,173.98 71.09,175.89C71.31,177.8 71.53,179.72 71.75,181.63C71.97,183.54 72.2,185.46 72.42,187.37C72.64,189.28 72.86,191.2 73.07,193.11C73.28,195.02 73.5,196.94 73.7,198.85C73.9,200.76 74.11,202.68 74.29,204.59C74.47,206.5 74.65,208.42 74.79,210.33C74.93,212.24 75.06,214.16 75.15,216.07C75.24,217.98 75.31,219.9 75.34,221.81C75.37,223.72 75.36,225.64 75.34,227.55C75.32,229.46 75.26,231.38 75.21,233.29C75.16,235.21 75.09,237.12 75.04,239.04C75,240.95 74.95,242.87 74.94,244.78C74.93,246.69 74.94,248.61 74.99,250.52C75.04,252.43 75.13,254.35 75.24,256.26C75.35,258.17 75.5,260.09 75.66,262C75.82,263.91 76.01,265.83 76.19,267.74C76.37,269.65 76.56,271.57 76.72,273.48C76.88,275.39 77.04,277.31 77.17,279.22C77.3,281.13 77.42,283.05 77.52,284.96Q77.62,286.87 77.75,290.7Z" style="vector-effect: non-scaling-stroke; stroke-width: 2px; stroke: rgb(239, 85, 59); stroke-opacity: 1; fill: rgb(239, 85, 59); fill-opacity: 0.5;"/><path class="violin" d="M234.12,275.19Q234.18,273.06 234.23,272C234.28,270.94 234.33,269.87 234.4,268.81C234.47,267.75 234.56,266.68 234.65,265.62C234.74,264.55 234.85,263.49 234.96,262.42C235.07,261.36 235.19,260.29 235.31,259.23C235.43,258.17 235.55,257.1 235.66,256.04C235.77,254.98 235.88,253.91 235.97,252.85C236.06,251.78 236.15,250.72 236.22,249.65C236.29,248.59 236.35,247.52 236.4,246.46C236.45,245.4 236.48,244.33 236.51,243.27C236.54,242.21 236.57,241.14 236.59,240.08C236.61,239.01 236.63,237.95 236.65,236.88C236.67,235.82 236.69,234.75 236.71,233.69C236.73,232.63 236.75,231.56 236.77,230.5C236.79,229.44 236.81,228.37 236.83,227.31C236.85,226.24 236.86,225.18 236.88,224.11C236.9,223.05 236.91,221.98 236.93,220.92C236.95,219.86 236.98,218.79 237,217.73C237.03,216.67 237.05,215.6 237.08,214.54C237.11,213.47 237.15,212.41 237.2,211.34C237.25,210.28 237.29,209.21 237.36,208.15C237.43,207.09 237.51,206.02 237.6,204.96C237.69,203.9 237.79,202.83 237.9,201.77C238.01,200.7 238.14,199.64 238.27,198.57C238.4,197.51 238.54,196.44 238.67,195.38C238.8,194.32 238.94,193.25 239.06,192.19C239.18,191.13 239.29,190.06 239.37,189C239.46,187.93 239.52,186.87 239.57,185.8C239.62,184.74 239.65,183.67 239.68,182.61C239.7,181.55 239.71,180.48 239.72,179.42C239.73,178.36 239.73,177.29 239.75,176.23C239.77,175.16 239.79,174.1 239.84,173.03C239.89,171.97 239.95,170.9 240.03,169.84C240.11,168.78 240.22,167.71 240.34,166.65C240.46,165.59 240.61,164.52 240.76,163.46C240.91,162.39 241.08,161.33 241.24,160.26C241.4,159.2 241.58,158.13 241.73,157.07C241.88,156.01 242.03,154.94 242.16,153.88C242.29,152.82 242.41,151.76 242.51,150.69C242.61,149.63 242.68,148.56 242.74,147.49C242.8,146.43 242.84,145.36 242.88,144.3C242.92,143.24 242.94,142.17 242.97,141.11C243.01,140.05 243.04,138.98 243.09,137.92C243.15,136.85 243.21,135.78 243.3,134.72C243.4,133.65 243.51,132.59 243.66,131.53C243.81,130.46 243.99,129.4 244.2,128.34C244.41,127.27 244.66,126.21 244.93,125.15C245.2,124.08 245.51,123.01 245.83,121.95C246.15,120.88 246.5,119.82 246.87,118.76C247.24,117.69 247.63,116.63 248.04,115.57C248.45,114.5 248.88,113.44 249.33,112.38C249.79,111.31 250.27,110.24 250.78,109.18C251.3,108.11 251.84,107.04 252.43,105.99C253.03,104.92 253.67,103.85 254.36,102.8C255.06,101.72 255.81,100.66 256.61,99.61C257.43,98.53 258.31,97.46 259.21,96.41C260.13,95.33 261.11,94.28 262.09,93.22C263.08,92.15 264.13,91.1 265.12,90.03C266.1,88.97 267.11,87.92 268,86.84C268.86,85.79 269.73,84.74 270.4,83.64C271.03,82.61 271.62,81.54 271.92,80.45C272.21,79.41 272.35,78.31 272.22,77.26C272.09,76.18 271.66,75.09 271.09,74.07C270.46,72.95 269.5,71.89 268.48,70.87C267.35,69.74 265.96,68.71 264.54,67.68C263.02,66.58 261.31,65.54 259.62,64.49C257.88,63.41 256.03,62.37 254.25,61.3C252.48,60.24 250.68,59.19 248.99,58.1C247.38,57.06 245.77,56.01 244.33,54.91C242.99,53.88 241.71,52.83 240.6,51.72C239.58,50.7 238.66,49.63 237.89,48.53C237.17,47.5 236.58,46.42 236.1,45.33Q235.64,44.29 235.04,42.14L232.96,42.14Q232.36,44.29 231.9,45.33C231.42,46.42 230.83,47.5 230.11,48.53C229.34,49.63 228.42,50.7 227.4,51.72C226.29,52.83 225.01,53.88 223.67,54.91C222.23,56.01 220.62,57.06 219.01,58.1C217.32,59.19 215.52,60.24 213.75,61.3C211.97,62.37 210.12,63.41 208.38,64.49C206.69,65.54 204.98,66.58 203.46,67.68C202.04,68.71 200.65,69.74 199.52,70.87C198.5,71.89 197.54,72.95 196.91,74.07C196.34,75.09 195.91,76.18 195.78,77.26C195.65,78.31 195.79,79.41 196.08,80.45C196.38,81.54 196.97,82.61 197.6,83.64C198.27,84.74 199.14,85.79 200,86.84C200.89,87.92 201.9,88.97 202.88,90.03C203.87,91.1 204.92,92.15 205.91,93.22C206.89,94.28 207.87,95.33 208.79,96.41C209.69,97.46 210.57,98.53 211.39,99.61C212.19,100.66 212.94,101.72 213.64,102.8C214.33,103.85 214.97,104.92 215.57,105.99C216.16,107.04 216.7,108.11 217.22,109.18C217.73,110.24 218.21,111.31 218.67,112.38C219.12,113.44 219.55,114.5 219.96,115.57C220.37,116.63 220.76,117.69 221.13,118.76C221.5,119.82 221.85,120.88 222.17,121.95C222.49,123.01 222.8,124.08 223.07,125.15C223.34,126.21 223.59,127.27 223.8,128.34C224.01,129.4 224.19,130.46 224.34,131.53C224.49,132.59 224.6,133.65 224.7,134.72C224.79,135.78 224.85,136.85 224.91,137.92C224.96,138.98 224.99,140.05 225.03,141.11C225.06,142.17 225.08,143.24 225.12,144.3C225.16,145.36 225.2,146.43 225.26,147.49C225.32,148.56 225.39,149.63 225.49,150.69C225.59,151.76 225.71,152.82 225.84,153.88C225.97,154.94 226.12,156.01 226.27,157.07C226.42,158.13 226.6,159.2 226.76,160.26C226.92,161.33 227.09,162.39 227.24,163.46C227.39,164.52 227.54,165.59 227.66,166.65C227.78,167.71 227.89,168.78 227.97,169.84C228.05,170.9 228.11,171.97 228.16,173.03C228.21,174.1 228.23,175.16 228.25,176.23C228.27,177.29 228.27,178.36 228.28,179.42C228.29,180.48 228.3,181.55 228.32,182.61C228.35,183.67 228.38,184.74 228.43,185.8C228.48,186.87 228.54,187.93 228.63,189C228.71,190.06 228.82,191.13 228.94,192.19C229.06,193.25 229.2,194.32 229.33,195.38C229.46,196.44 229.6,197.51 229.73,198.57C229.86,199.64 229.99,200.7 230.1,201.77C230.21,202.83 230.31,203.9 230.4,204.96C230.49,206.02 230.57,207.09 230.64,208.15C230.71,209.21 230.75,210.28 230.8,211.34C230.85,212.41 230.89,213.47 230.92,214.54C230.95,215.6 230.97,216.67 231,217.73C231.02,218.79 231.05,219.86 231.07,220.92C231.09,221.98 231.1,223.05 231.12,224.11C231.14,225.18 231.15,226.24 231.17,227.31C231.19,228.37 231.21,229.44 231.23,230.5C231.25,231.56 231.27,232.63 231.29,233.69C231.31,234.75 231.33,235.82 231.35,236.88C231.37,237.95 231.39,239.01 231.41,240.08C231.43,241.14 231.46,242.21 231.49,243.27C231.52,244.33 231.55,245.4 231.6,246.46C231.65,247.52 231.71,248.59 231.78,249.65C231.85,250.72 231.94,251.78 232.03,252.85C232.12,253.91 232.23,254.98 232.34,256.04C232.45,257.1 232.57,258.17 232.69,259.23C232.81,260.29 232.93,261.36 233.04,262.42C233.15,263.49 233.26,264.55 233.35,265.62C233.44,266.68 233.53,267.75 233.6,268.81C233.67,269.87 233.72,270.94 233.77,272Q233.82,273.06 233.88,275.19Z" style="vector-effect: non-scaling-stroke; stroke-width: 2px; stroke: rgb(239, 85, 59); stroke-opacity: 1; fill: rgb(239, 85, 59); fill-opacity: 0.5;"/><path class="violin" d="M390.15,282.38Q390.24,279.49 390.3,278.04C390.37,276.59 390.44,275.15 390.54,273.7C390.64,272.25 390.76,270.81 390.9,269.36C391.04,267.91 391.19,266.47 391.36,265.02C391.53,263.57 391.73,262.13 391.91,260.68C392.1,259.23 392.29,257.79 392.47,256.34C392.65,254.89 392.83,253.45 392.98,252C393.13,250.55 393.27,249.11 393.39,247.66C393.51,246.21 393.6,244.76 393.68,243.31C393.76,241.86 393.82,240.42 393.88,238.97C393.94,237.52 393.97,236.08 394.02,234.63C394.06,233.18 394.11,231.74 394.15,230.29C394.2,228.84 394.24,227.4 394.29,225.95C394.34,224.5 394.4,223.06 394.47,221.61C394.54,220.16 394.62,218.72 394.7,217.27C394.78,215.82 394.87,214.38 394.96,212.93C395.05,211.48 395.15,210.04 395.25,208.59C395.35,207.14 395.45,205.7 395.55,204.25C395.65,202.8 395.75,201.36 395.84,199.91C395.93,198.46 396.02,197.01 396.1,195.56C396.18,194.11 396.26,192.67 396.34,191.22C396.41,189.77 396.48,188.33 396.55,186.88C396.62,185.43 396.7,183.99 396.78,182.54C396.86,181.09 396.94,179.65 397.03,178.2C397.12,176.75 397.22,175.31 397.33,173.86C397.44,172.41 397.56,170.97 397.68,169.52C397.8,168.07 397.93,166.63 398.06,165.18C398.19,163.73 398.31,162.29 398.44,160.84C398.56,159.39 398.69,157.95 398.81,156.5C398.93,155.05 399.05,153.61 399.17,152.16C399.3,150.71 399.42,149.27 399.56,147.82C399.7,146.37 399.84,144.92 400.02,143.47C400.2,142.02 400.39,140.57 400.62,139.13C400.85,137.68 401.12,136.23 401.42,134.79C401.72,133.34 402.06,131.89 402.44,130.45C402.82,129 403.25,127.55 403.7,126.11C404.15,124.66 404.65,123.21 405.15,121.77C405.66,120.32 406.2,118.88 406.73,117.43C407.26,115.98 407.82,114.54 408.35,113.09C408.88,111.65 409.4,110.2 409.89,108.75C410.38,107.31 410.85,105.86 411.29,104.41C411.73,102.97 412.13,101.52 412.52,100.07C412.91,98.62 413.27,97.17 413.62,95.72C413.97,94.27 414.3,92.83 414.61,91.38C414.91,89.94 415.22,88.49 415.45,87.04C415.68,85.6 415.91,84.15 415.99,82.7C416.07,81.26 416.1,79.8 415.95,78.36C415.79,76.91 415.51,75.44 415.05,74.02C414.57,72.55 413.88,71.09 413.09,69.68C412.26,68.2 411.21,66.76 410.13,65.34C409.01,63.86 407.71,62.44 406.45,61C405.17,59.54 403.8,58.12 402.52,56.66C401.26,55.22 399.97,53.79 398.82,52.32C397.71,50.89 396.65,49.45 395.73,47.97C394.85,46.55 394.06,45.1 393.41,43.63C392.78,42.21 392.28,40.75 391.86,39.29Q391.45,37.86 390.93,34.95L389.07,34.95Q388.55,37.86 388.14,39.29C387.72,40.75 387.22,42.21 386.59,43.63C385.94,45.1 385.15,46.55 384.27,47.97C383.35,49.45 382.29,50.89 381.18,52.32C380.03,53.79 378.74,55.22 377.48,56.66C376.2,58.12 374.83,59.54 373.55,61C372.29,62.44 370.99,63.86 369.87,65.34C368.79,66.76 367.74,68.2 366.91,69.68C366.12,71.09 365.43,72.55 364.95,74.02C364.49,75.44 364.21,76.91 364.05,78.36C363.9,79.8 363.93,81.26 364.01,82.7C364.09,84.15 364.32,85.6 364.55,87.04C364.78,88.49 365.09,89.94 365.39,91.38C365.7,92.83 366.03,94.27 366.38,95.72C366.73,97.17 367.09,98.62 367.48,100.07C367.87,101.52 368.27,102.97 368.71,104.41C369.15,105.86 369.62,107.31 370.11,108.75C370.6,110.2 371.12,111.65 371.65,113.09C372.18,114.54 372.74,115.98 373.27,117.43C373.8,118.88 374.34,120.32 374.85,121.77C375.35,123.21 375.85,124.66 376.3,126.11C376.75,127.55 377.18,129 377.56,130.45C377.94,131.89 378.28,133.34 378.58,134.79C378.88,136.23 379.15,137.68 379.38,139.13C379.61,140.57 379.8,142.02 379.98,143.47C380.16,144.92 380.3,146.37 380.44,147.82C380.58,149.27 380.7,150.71 380.83,152.16C380.95,153.61 381.07,155.05 381.19,156.5C381.31,157.95 381.44,159.39 381.56,160.84C381.69,162.29 381.81,163.73 381.94,165.18C382.07,166.63 382.2,168.07 382.32,169.52C382.44,170.97 382.56,172.41 382.67,173.86C382.78,175.31 382.88,176.75 382.97,178.2C383.06,179.65 383.14,181.09 383.22,182.54C383.3,183.99 383.38,185.43 383.45,186.88C383.52,188.33 383.59,189.77 383.66,191.22C383.74,192.67 383.82,194.11 383.9,195.56C383.98,197.01 384.07,198.46 384.16,199.91C384.25,201.36 384.35,202.8 384.45,204.25C384.55,205.7 384.65,207.14 384.75,208.59C384.85,210.04 384.95,211.48 385.04,212.93C385.13,214.38 385.22,215.82 385.3,217.27C385.38,218.72 385.46,220.16 385.53,221.61C385.6,223.06 385.66,224.5 385.71,225.95C385.76,227.4 385.8,228.84 385.85,230.29C385.89,231.74 385.94,233.18 385.98,234.63C386.03,236.08 386.06,237.52 386.12,238.97C386.18,240.42 386.24,241.86 386.32,243.31C386.4,244.76 386.49,246.21 386.61,247.66C386.73,249.11 386.87,250.55 387.02,252C387.17,253.45 387.35,254.89 387.53,256.34C387.71,257.79 387.9,259.23 388.09,260.68C388.27,262.13 388.47,263.57 388.64,265.02C388.81,266.47 388.96,267.91 389.1,269.36C389.24,270.81 389.36,272.25 389.46,273.7C389.56,275.15 389.63,276.59 389.7,278.04Q389.76,279.49 389.85,282.38Z" style="vector-effect: non-scaling-stroke; stroke-width: 2px; stroke: rgb(239, 85, 59); stroke-opacity: 1; fill: rgb(239, 85, 59); fill-opacity: 0.5;"/><path class="box" d="M68.44,103.1H87.55M68.44,144.77H87.55V82.26H68.44ZM78,144.77V228.13M78,82.26V61.42" style="vector-effect: non-scaling-stroke; stroke-width: 2px; stroke: rgb(239, 85, 59); stroke-opacity: 1; fill: rgb(239, 85, 59); fill-opacity: 0.5;"/><path class="box" d="M224.44,92.68H243.55M224.44,130.88H243.55V75.31H224.44ZM234,130.88V214.24M234,75.31V61.42" style="vector-effect: non-scaling-stroke; stroke-width: 2px; stroke: rgb(239, 85, 59); stroke-opacity: 1; fill: rgb(239, 85, 59); fill-opacity: 0.5;"/><path class="box" d="M380.44,103.1H399.55M380.44,151.72H399.55V82.26H380.44ZM390,151.72V255.92M390,82.26V61.42" style="vector-effect: non-scaling-stroke; stroke-width: 2px; stroke: rgb(239, 85, 59); stroke-opacity: 1; fill: rgb(239, 85, 59); fill-opacity: 0.5;"/><path class="mean" d="M68.44,119.05H87.55" style="fill: none; vector-effect: non-scaling-stroke; stroke-width: 2px; stroke-dasharray: 4px, 2px; stroke: rgb(239, 85, 59); stroke-opacity: 1;"/><path class="mean" d="M224.44,110.58H243.55" style="fill: none; vector-effect: non-scaling-stroke; stroke-width: 2px; stroke-dasharray: 4px, 2px; stroke: rgb(239, 85, 59); stroke-opacity: 1;"/><path class="mean" d="M380.44,120.54H399.55" style="fill: none; vector-effect: non-scaling-stroke; stroke-width: 2px; stroke-dasharray: 4px, 2px; stroke: rgb(239, 85, 59); stroke-opacity: 1;"/></g></g></g><g class="overplot"/><path class="xlines-above crisp" d="M0,0" style="fill: none;"/><path class="ylines-above crisp" d="M0,0" style="fill: none;"/><g class="overlines-above"/><g class="xaxislayer-above"><g class="x2tick"><text text-anchor="middle" x="0" y="419.00000000000006" transform="translate(730,0)" style="font-family: 'Open Sans', verdana, arial, sans-serif; font-size: 12px; fill: rgb(42, 63, 95); fill-opacity: 1; white-space: pre; opacity: 1;">&#60;=1</text></g><g class="x2tick"><text text-anchor="middle" x="0" y="419.00000000000006" transform="translate(886,0)" style="font-family: 'Open Sans', verdana, arial, sans-serif; font-size: 12px; fill: rgb(42, 63, 95); fill-opacity: 1; white-space: pre; opacity: 1;">(1, 2]</text></g><g class="x2tick"><text text-anchor="middle" x="0" y="419.00000000000006" transform="translate(1042,0)" style="font-family: 'Open Sans', verdana, arial, sans-serif; font-size: 12px; fill: rgb(42, 63, 95); fill-opacity: 1; white-space: pre; opacity: 1;">>2</text></g></g><g class="yaxislayer-above"><g class="y2tick"><text text-anchor="end" x="651" y="4.199999999999999" transform="translate(0,397.6)" style="font-family: 'Open Sans', verdana, arial, sans-serif; font-size: 12px; fill: rgb(42, 63, 95); fill-opacity: 1; white-space: pre; opacity: 1;">1990</text></g><g class="y2tick"><text text-anchor="end" x="651" y="4.199999999999999" style="font-family: 'Open Sans', verdana, arial, sans-serif; font-size: 12px; fill: rgb(42, 63, 95); fill-opacity: 1; white-space: pre; opacity: 1;" transform="translate(0,328.13)">2000</text></g><g class="y2tick"><text text-anchor="end" x="651" y="4.199999999999999" style="font-family: 'Open Sans', verdana, arial, sans-serif; font-size: 12px; fill: rgb(42, 63, 95); fill-opacity: 1; white-space: pre; opacity: 1;" transform="translate(0,258.66999999999996)">2010</text></g><g class="y2tick"><text text-anchor="end" x="651" y="4.199999999999999" style="font-family: 'Open Sans', verdana, arial, sans-serif; font-size: 12px; fill: rgb(42, 63, 95); fill-opacity: 1; white-space: pre; opacity: 1;" transform="translate(0,189.2)">2020</text></g><g class="y2tick"><text text-anchor="end" x="651" y="4.199999999999999" style="font-family: 'Open Sans', verdana, arial, sans-serif; font-size: 12px; fill: rgb(42, 63, 95); fill-opacity: 1; white-space: pre; opacity: 1;" transform="translate(0,119.74)">2030</text></g></g><g class="overaxes-above"/></g><g class="subplot x3y3"><g class="layer-subplot"><g class="shapelayer"/><g class="imagelayer"/></g><g class="minor-gridlayer"><g class="x3"/><g class="y3"/></g><g class="gridlayer"><g class="x3"/><g class="y3"><path class="y3grid crisp" transform="translate(0,811.6)" d="M80,0h468" style="stroke: rgb(255, 255, 255); stroke-opacity: 1; stroke-width: 1px;"/><path class="y3grid crisp" transform="translate(0,742.13)" d="M80,0h468" style="stroke: rgb(255, 255, 255); stroke-opacity: 1; stroke-width: 1px;"/><path class="y3grid crisp" transform="translate(0,672.67)" d="M80,0h468" style="stroke: rgb(255, 255, 255); stroke-opacity: 1; stroke-width: 1px;"/><path class="y3grid crisp" transform="translate(0,603.2)" d="M80,0h468" style="stroke: rgb(255, 255, 255); stroke-opacity: 1; stroke-width: 1px;"/><path class="y3grid crisp" transform="translate(0,533.74)" d="M80,0h468" style="stroke: rgb(255, 255, 255); stroke-opacity: 1; stroke-width: 1px;"/></g></g><g class="zerolinelayer"/><path class="xlines-below"/><path class="ylines-below"/><g class="overlines-below"/><g class="xaxislayer-below"/><g class="yaxislayer-below"/><g class="overaxes-below"/><g class="plot" transform="translate(80,514)" clip-path="url(#clipa4b03ax3y3plot)"><g class="violinlayer mlayer"><g class="trace violins" style="opacity: 1;"><path class="violin" d="M78.13,259.7Q78.19,257.01 78.24,255.67C78.29,254.33 78.35,252.98 78.42,251.64C78.49,250.29 78.57,248.95 78.65,247.6C78.73,246.26 78.83,244.91 78.92,243.57C79.02,242.23 79.12,240.88 79.22,239.54C79.32,238.2 79.41,236.85 79.5,235.51C79.59,234.16 79.68,232.82 79.77,231.47C79.85,230.13 79.93,228.78 80.01,227.44C80.09,226.1 80.16,224.75 80.24,223.41C80.32,222.07 80.4,220.72 80.48,219.38C80.56,218.03 80.65,216.69 80.73,215.34C80.81,214 80.9,212.65 80.98,211.31C81.06,209.97 81.14,208.62 81.21,207.28C81.28,205.94 81.35,204.59 81.41,203.25C81.47,201.9 81.53,200.56 81.59,199.21C81.65,197.87 81.71,196.52 81.77,195.18C81.84,193.84 81.9,192.49 81.98,191.15C82.06,189.81 82.15,188.46 82.24,187.12C82.34,185.77 82.44,184.43 82.55,183.08C82.66,181.74 82.78,180.39 82.91,179.05C83.04,177.71 83.17,176.36 83.31,175.02C83.45,173.68 83.59,172.33 83.73,170.99C83.87,169.64 84.01,168.3 84.16,166.95C84.31,165.61 84.47,164.26 84.62,162.92C84.78,161.58 84.93,160.23 85.09,158.89C85.24,157.55 85.4,156.2 85.55,154.86C85.7,153.51 85.85,152.17 85.98,150.82C86.11,149.48 86.24,148.13 86.35,146.79C86.46,145.45 86.55,144.1 86.65,142.76C86.75,141.42 86.83,140.07 86.93,138.73C87.03,137.38 87.11,136.04 87.23,134.69C87.35,133.35 87.48,132 87.64,130.66C87.81,129.31 87.99,127.97 88.22,126.63C88.45,125.28 88.72,123.94 89.02,122.6C89.32,121.25 89.67,119.9 90.03,118.56C90.4,117.21 90.8,115.87 91.21,114.53C91.62,113.18 92.06,111.84 92.48,110.5C92.91,109.16 93.34,107.81 93.76,106.47C94.18,105.12 94.6,103.78 95.01,102.43C95.42,101.09 95.81,99.74 96.2,98.4C96.59,97.06 96.97,95.71 97.37,94.37C97.77,93.03 98.16,91.68 98.58,90.34C99,88.99 99.44,87.64 99.9,86.3C100.36,84.95 100.85,83.61 101.32,82.27C101.79,80.93 102.3,79.59 102.7,78.24C103.1,76.9 103.52,75.56 103.73,74.21C103.94,72.87 104.09,71.51 103.98,70.17C103.87,68.82 103.57,67.45 103.07,66.14C102.54,64.76 101.72,63.41 100.82,62.11C99.85,60.72 98.62,59.4 97.39,58.08C96.11,56.7 94.65,55.38 93.26,54.04C91.87,52.69 90.4,51.37 89.06,50.01C87.76,48.69 86.47,47.36 85.34,45.98C84.27,44.67 83.27,43.33 82.44,41.95C81.65,40.64 80.99,39.28 80.45,37.91C79.93,36.59 79.55,35.23 79.23,33.88Q78.92,32.55 78.56,29.85L77.44,29.85Q77.08,32.55 76.77,33.88C76.45,35.23 76.07,36.59 75.55,37.91C75.01,39.28 74.35,40.64 73.56,41.95C72.73,43.33 71.73,44.67 70.66,45.98C69.53,47.36 68.24,48.69 66.94,50.01C65.6,51.37 64.13,52.69 62.74,54.04C61.35,55.38 59.89,56.7 58.61,58.08C57.38,59.4 56.15,60.72 55.18,62.11C54.28,63.41 53.46,64.76 52.93,66.14C52.43,67.45 52.13,68.82 52.02,70.17C51.91,71.51 52.06,72.87 52.27,74.21C52.48,75.56 52.9,76.9 53.3,78.24C53.7,79.59 54.21,80.93 54.68,82.27C55.15,83.61 55.64,84.95 56.1,86.3C56.56,87.64 57,88.99 57.42,90.34C57.84,91.68 58.23,93.03 58.63,94.37C59.03,95.71 59.41,97.06 59.8,98.4C60.19,99.74 60.58,101.09 60.99,102.43C61.4,103.78 61.82,105.12 62.24,106.47C62.66,107.81 63.09,109.16 63.52,110.5C63.94,111.84 64.38,113.18 64.79,114.53C65.2,115.87 65.6,117.21 65.97,118.56C66.33,119.9 66.68,121.25 66.98,122.6C67.28,123.94 67.55,125.28 67.78,126.63C68.01,127.97 68.19,129.31 68.36,130.66C68.52,132 68.65,133.35 68.77,134.69C68.89,136.04 68.97,137.38 69.07,138.73C69.17,140.07 69.25,141.42 69.35,142.76C69.45,144.1 69.54,145.45 69.65,146.79C69.76,148.13 69.89,149.48 70.02,150.82C70.15,152.17 70.3,153.51 70.45,154.86C70.6,156.2 70.76,157.55 70.91,158.89C71.07,160.23 71.22,161.58 71.38,162.92C71.53,164.26 71.69,165.61 71.84,166.95C71.99,168.3 72.13,169.64 72.27,170.99C72.41,172.33 72.55,173.68 72.69,175.02C72.83,176.36 72.96,177.71 73.09,179.05C73.22,180.39 73.34,181.74 73.45,183.08C73.56,184.43 73.66,185.77 73.76,187.12C73.85,188.46 73.94,189.81 74.02,191.15C74.1,192.49 74.16,193.84 74.23,195.18C74.29,196.52 74.35,197.87 74.41,199.21C74.47,200.56 74.53,201.9 74.59,203.25C74.65,204.59 74.72,205.94 74.79,207.28C74.86,208.62 74.94,209.97 75.02,211.31C75.1,212.65 75.19,214 75.27,215.34C75.35,216.69 75.44,218.03 75.52,219.38C75.6,220.72 75.68,222.07 75.76,223.41C75.84,224.75 75.91,226.1 75.99,227.44C76.07,228.78 76.15,230.13 76.23,231.47C76.32,232.82 76.41,234.16 76.5,235.51C76.59,236.85 76.68,238.2 76.78,239.54C76.88,240.88 76.98,242.23 77.08,243.57C77.17,244.91 77.27,246.26 77.35,247.6C77.43,248.95 77.51,250.29 77.58,251.64C77.65,252.98 77.71,254.33 77.76,255.67Q77.81,257.01 77.87,259.7Z" style="vector-effect: non-scaling-stroke; stroke-width: 2px; stroke: rgb(99, 110, 250); stroke-opacity: 1; fill: rgb(99, 110, 250); fill-opacity: 0.5;"/><path class="violin" d="M234.06,254.99Q234.1,252.8 234.13,251.7C234.16,250.6 234.21,249.51 234.26,248.41C234.32,247.31 234.38,246.22 234.46,245.12C234.54,244.02 234.64,242.93 234.75,241.83C234.86,240.73 235,239.64 235.14,238.54C235.28,237.44 235.43,236.35 235.58,235.25C235.73,234.15 235.9,233.06 236.05,231.96C236.2,230.86 236.35,229.77 236.48,228.67C236.61,227.57 236.72,226.48 236.81,225.38C236.9,224.28 236.97,223.19 237.03,222.09C237.08,220.99 237.12,219.9 237.14,218.8C237.16,217.7 237.15,216.61 237.15,215.51C237.15,214.41 237.13,213.32 237.11,212.22C237.09,211.12 237.06,210.03 237.04,208.93C237.02,207.83 236.99,206.74 236.98,205.64C236.97,204.54 236.96,203.45 236.96,202.35C236.96,201.25 236.97,200.16 236.99,199.06C237.01,197.96 237.04,196.87 237.08,195.77C237.12,194.67 237.17,193.58 237.22,192.48C237.27,191.38 237.32,190.29 237.37,189.19C237.42,188.09 237.47,187 237.51,185.9C237.55,184.8 237.59,183.71 237.61,182.61C237.63,181.51 237.64,180.42 237.65,179.32C237.66,178.22 237.66,177.13 237.67,176.03C237.68,174.93 237.68,173.84 237.69,172.74C237.7,171.64 237.71,170.55 237.74,169.45C237.77,168.35 237.81,167.26 237.85,166.16C237.89,165.06 237.95,163.97 238,162.87C238.05,161.77 238.11,160.68 238.16,159.58C238.21,158.48 238.26,157.39 238.31,156.29C238.36,155.19 238.41,154.1 238.46,153C238.52,151.9 238.57,150.81 238.64,149.71C238.71,148.61 238.79,147.52 238.89,146.42C238.99,145.32 239.11,144.23 239.23,143.13C239.35,142.03 239.5,140.94 239.63,139.84C239.76,138.74 239.9,137.65 240.02,136.55C240.14,135.45 240.25,134.36 240.35,133.26C240.45,132.16 240.53,131.07 240.62,129.97C240.71,128.87 240.78,127.78 240.88,126.68C240.98,125.58 241.08,124.48 241.23,123.39C241.38,122.29 241.55,121.19 241.77,120.1C241.99,119 242.25,117.9 242.55,116.81C242.85,115.71 243.21,114.61 243.59,113.52C243.97,112.42 244.4,111.32 244.84,110.23C245.28,109.13 245.75,108.03 246.23,106.94C246.71,105.84 247.21,104.75 247.7,103.65C248.19,102.55 248.68,101.46 249.18,100.36C249.68,99.26 250.18,98.16 250.7,97.07C251.22,95.97 251.75,94.87 252.32,93.78C252.89,92.68 253.48,91.58 254.13,90.49C254.79,89.38 255.5,88.28 256.26,87.2C257.04,86.09 257.87,84.99 258.76,83.91C259.68,82.8 260.68,81.71 261.68,80.62C262.7,79.51 263.8,78.43 264.85,77.33C265.89,76.24 267.01,75.17 267.94,74.04C268.82,72.97 269.77,71.9 270.33,70.75C270.85,69.7 271.31,68.55 271.3,67.46C271.29,66.36 270.87,65.2 270.25,64.17C269.53,62.98 268.26,61.91 266.98,60.88C265.51,59.7 263.65,58.65 261.84,57.59C259.9,56.45 257.72,55.4 255.66,54.3C253.6,53.2 251.44,52.14 249.46,51.01C247.59,49.94 245.72,48.87 244.09,47.72C242.6,46.67 241.19,45.58 240.01,44.42C238.94,43.37 238.01,42.27 237.26,41.13C236.57,40.07 236.04,38.96 235.61,37.84Q235.2,36.76 234.72,34.55L233.28,34.55Q232.8,36.76 232.39,37.84C231.96,38.96 231.43,40.07 230.74,41.13C229.99,42.27 229.06,43.37 227.99,44.42C226.81,45.58 225.4,46.67 223.91,47.72C222.28,48.87 220.41,49.94 218.54,51.01C216.56,52.14 214.4,53.2 212.34,54.3C210.28,55.4 208.1,56.45 206.16,57.59C204.35,58.65 202.49,59.7 201.02,60.88C199.74,61.91 198.47,62.98 197.75,64.17C197.13,65.2 196.71,66.36 196.7,67.46C196.69,68.55 197.15,69.7 197.67,70.75C198.23,71.9 199.18,72.97 200.06,74.04C200.99,75.17 202.11,76.24 203.15,77.33C204.2,78.43 205.3,79.51 206.32,80.62C207.32,81.71 208.32,82.8 209.24,83.91C210.13,84.99 210.96,86.09 211.74,87.2C212.5,88.28 213.21,89.38 213.87,90.49C214.52,91.58 215.11,92.68 215.68,93.78C216.25,94.87 216.78,95.97 217.3,97.07C217.82,98.16 218.32,99.26 218.82,100.36C219.32,101.46 219.81,102.55 220.3,103.65C220.79,104.75 221.29,105.84 221.77,106.94C222.25,108.03 222.72,109.13 223.16,110.23C223.6,111.32 224.03,112.42 224.41,113.52C224.79,114.61 225.15,115.71 225.45,116.81C225.75,117.9 226.01,119 226.23,120.1C226.45,121.19 226.62,122.29 226.77,123.39C226.92,124.48 227.02,125.58 227.12,126.68C227.22,127.78 227.29,128.87 227.38,129.97C227.47,131.07 227.55,132.16 227.65,133.26C227.75,134.36 227.86,135.45 227.98,136.55C228.1,137.65 228.24,138.74 228.37,139.84C228.5,140.94 228.65,142.03 228.77,143.13C228.89,144.23 229.01,145.32 229.11,146.42C229.21,147.52 229.29,148.61 229.36,149.71C229.43,150.81 229.48,151.9 229.54,153C229.59,154.1 229.64,155.19 229.69,156.29C229.74,157.39 229.79,158.48 229.84,159.58C229.89,160.68 229.95,161.77 230,162.87C230.05,163.97 230.11,165.06 230.15,166.16C230.19,167.26 230.23,168.35 230.26,169.45C230.29,170.55 230.3,171.64 230.31,172.74C230.32,173.84 230.32,174.93 230.33,176.03C230.34,177.13 230.34,178.22 230.35,179.32C230.36,180.42 230.37,181.51 230.39,182.61C230.41,183.71 230.45,184.8 230.49,185.9C230.53,187 230.58,188.09 230.63,189.19C230.68,190.29 230.73,191.38 230.78,192.48C230.83,193.58 230.88,194.67 230.92,195.77C230.96,196.87 230.99,197.96 231.01,199.06C231.03,200.16 231.04,201.25 231.04,202.35C231.04,203.45 231.03,204.54 231.02,205.64C231.01,206.74 230.98,207.83 230.96,208.93C230.94,210.03 230.91,211.12 230.89,212.22C230.87,213.32 230.85,214.41 230.85,215.51C230.85,216.61 230.84,217.7 230.86,218.8C230.88,219.9 230.92,220.99 230.97,222.09C231.03,223.19 231.1,224.28 231.19,225.38C231.28,226.48 231.39,227.57 231.52,228.67C231.65,229.77 231.8,230.86 231.95,231.96C232.1,233.06 232.27,234.15 232.42,235.25C232.57,236.35 232.72,237.44 232.86,238.54C233,239.64 233.14,240.73 233.25,241.83C233.36,242.93 233.46,244.02 233.54,245.12C233.62,246.22 233.68,247.31 233.74,248.41C233.79,249.51 233.84,250.6 233.87,251.7Q233.9,252.8 233.94,254.99Z" style="vector-effect: non-scaling-stroke; stroke-width: 2px; stroke: rgb(99, 110, 250); stroke-opacity: 1; fill: rgb(99, 110, 250); fill-opacity: 0.5;"/><path class="violin" d="M390.19,281.2Q390.3,276.13 390.39,273.6C390.48,271.07 390.58,268.53 390.72,266C390.86,263.47 391.03,260.93 391.23,258.4C391.43,255.87 391.66,253.34 391.9,250.81C392.15,248.28 392.43,245.74 392.7,243.21C392.97,240.68 393.25,238.14 393.51,235.61C393.76,233.08 394.02,230.55 394.23,228.02C394.44,225.49 394.62,222.95 394.76,220.42C394.9,217.89 395,215.35 395.07,212.82C395.14,210.29 395.16,207.76 395.19,205.23C395.22,202.7 395.22,200.16 395.25,197.63C395.28,195.1 395.29,192.56 395.35,190.03C395.41,187.5 395.49,184.96 395.6,182.43C395.71,179.9 395.86,177.37 396.03,174.84C396.2,172.31 396.42,169.77 396.64,167.24C396.86,164.71 397.1,162.17 397.35,159.64C397.59,157.11 397.86,154.58 398.11,152.05C398.37,149.52 398.61,146.98 398.88,144.45C399.15,141.92 399.41,139.38 399.73,136.85C400.05,134.32 400.37,131.79 400.78,129.26C401.19,126.72 401.65,124.19 402.18,121.66C402.72,119.12 403.34,116.59 403.99,114.06C404.64,111.52 405.39,108.99 406.08,106.46C406.76,103.93 407.52,101.41 408.1,98.87C408.68,96.35 409.26,93.81 409.57,91.27C409.88,88.75 410.06,86.2 409.97,83.67C409.88,81.14 409.54,78.59 409.01,76.08C408.47,73.53 407.65,70.99 406.76,68.48C405.85,65.92 404.7,63.4 403.6,60.88C402.49,58.34 401.25,55.83 400.13,53.29C399.02,50.77 397.89,48.24 396.91,45.69C395.95,43.17 395.06,40.64 394.31,38.09C393.57,35.57 392.96,33.03 392.45,30.49C391.95,27.97 391.58,25.44 391.27,22.9Q390.96,20.37 390.6,15.3L389.4,15.3Q389.04,20.37 388.73,22.9C388.42,25.44 388.05,27.97 387.55,30.49C387.04,33.03 386.43,35.57 385.69,38.09C384.94,40.64 384.05,43.17 383.09,45.69C382.11,48.24 380.98,50.77 379.87,53.29C378.75,55.83 377.51,58.34 376.4,60.88C375.3,63.4 374.15,65.92 373.24,68.48C372.35,70.99 371.53,73.53 370.99,76.08C370.46,78.59 370.12,81.14 370.03,83.67C369.94,86.2 370.12,88.75 370.43,91.27C370.74,93.81 371.32,96.35 371.9,98.87C372.48,101.41 373.24,103.93 373.92,106.46C374.61,108.99 375.36,111.52 376.01,114.06C376.66,116.59 377.28,119.12 377.82,121.66C378.35,124.19 378.81,126.72 379.22,129.26C379.63,131.79 379.95,134.32 380.27,136.85C380.59,139.38 380.85,141.92 381.12,144.45C381.39,146.98 381.63,149.52 381.89,152.05C382.14,154.58 382.41,157.11 382.65,159.64C382.9,162.17 383.14,164.71 383.36,167.24C383.58,169.77 383.8,172.31 383.97,174.84C384.14,177.37 384.29,179.9 384.4,182.43C384.51,184.96 384.59,187.5 384.65,190.03C384.71,192.56 384.72,195.1 384.75,197.63C384.78,200.16 384.78,202.7 384.81,205.23C384.84,207.76 384.86,210.29 384.93,212.82C385,215.35 385.1,217.89 385.24,220.42C385.38,222.95 385.56,225.49 385.77,228.02C385.98,230.55 386.24,233.08 386.49,235.61C386.75,238.14 387.03,240.68 387.3,243.21C387.57,245.74 387.85,248.28 388.1,250.81C388.34,253.34 388.57,255.87 388.77,258.4C388.97,260.93 389.14,263.47 389.28,266C389.42,268.53 389.52,271.07 389.61,273.6Q389.7,276.13 389.81,281.2Z" style="vector-effect: non-scaling-stroke; stroke-width: 2px; stroke: rgb(99, 110, 250); stroke-opacity: 1; fill: rgb(99, 110, 250); fill-opacity: 0.5;"/><path class="box" d="M68.45,96.15H87.56M68.45,130.88H87.56V68.36H68.45ZM78,130.88V221.19M78,68.36V54.47" style="vector-effect: non-scaling-stroke; stroke-width: 2px; stroke: rgb(99, 110, 250); stroke-opacity: 1; fill: rgb(99, 110, 250); fill-opacity: 0.5;"/><path class="box" d="M224.45,82.26H243.56M224.45,110.04H243.56V68.36H224.45ZM234,110.04V172.56M234,68.36V54.47" style="vector-effect: non-scaling-stroke; stroke-width: 2px; stroke: rgb(99, 110, 250); stroke-opacity: 1; fill: rgb(99, 110, 250); fill-opacity: 0.5;"/><path class="box" d="M380.45,99.62H399.55M380.45,151.72H399.55V82.26H380.45ZM390,151.72V235.08M390,82.26V61.42" style="vector-effect: non-scaling-stroke; stroke-width: 2px; stroke: rgb(99, 110, 250); stroke-opacity: 1; fill: rgb(99, 110, 250); fill-opacity: 0.5;"/><path class="mean" d="M68.45,106.51H87.56" style="fill: none; vector-effect: non-scaling-stroke; stroke-width: 2px; stroke-dasharray: 4px, 2px; stroke: rgb(99, 110, 250); stroke-opacity: 1;"/><path class="mean" d="M224.45,97.64H243.56" style="fill: none; vector-effect: non-scaling-stroke; stroke-width: 2px; stroke-dasharray: 4px, 2px; stroke: rgb(99, 110, 250); stroke-opacity: 1;"/><path class="mean" d="M380.45,118.51H399.55" style="fill: none; vector-effect: non-scaling-stroke; stroke-width: 2px; stroke-dasharray: 4px, 2px; stroke: rgb(99, 110, 250); stroke-opacity: 1;"/></g></g></g><g class="overplot"/><path class="xlines-above crisp" d="M0,0" style="fill: none;"/><path class="ylines-above crisp" d="M0,0" style="fill: none;"/><g class="overlines-above"/><g class="xaxislayer-above"><g class="x3tick"><text text-anchor="middle" x="0" y="833" transform="translate(158,0)" style="font-family: 'Open Sans', verdana, arial, sans-serif; font-size: 12px; fill: rgb(42, 63, 95); fill-opacity: 1; white-space: pre; opacity: 1;">&#60;=1</text></g><g class="x3tick"><text text-anchor="middle" x="0" y="833" transform="translate(314,0)" style="font-family: 'Open Sans', verdana, arial, sans-serif; font-size: 12px; fill: rgb(42, 63, 95); fill-opacity: 1; white-space: pre; opacity: 1;">(1, 2]</text></g><g class="x3tick"><text text-anchor="middle" x="0" y="833" transform="translate(470,0)" style="font-family: 'Open Sans', verdana, arial, sans-serif; font-size: 12px; fill: rgb(42, 63, 95); fill-opacity: 1; white-space: pre; opacity: 1;">>2</text></g></g><g class="yaxislayer-above"><g class="y3tick"><text text-anchor="end" x="79" y="4.199999999999999" transform="translate(0,811.6)" style="font-family: 'Open Sans', verdana, arial, sans-serif; font-size: 12px; fill: rgb(42, 63, 95); fill-opacity: 1; white-space: pre; opacity: 1;">1990</text></g><g class="y3tick"><text text-anchor="end" x="79" y="4.199999999999999" style="font-family: 'Open Sans', verdana, arial, sans-serif; font-size: 12px; fill: rgb(42, 63, 95); fill-opacity: 1; white-space: pre; opacity: 1;" transform="translate(0,742.13)">2000</text></g><g class="y3tick"><text text-anchor="end" x="79" y="4.199999999999999" style="font-family: 'Open Sans', verdana, arial, sans-serif; font-size: 12px; fill: rgb(42, 63, 95); fill-opacity: 1; white-space: pre; opacity: 1;" transform="translate(0,672.67)">2010</text></g><g class="y3tick"><text text-anchor="end" x="79" y="4.199999999999999" style="font-family: 'Open Sans', verdana, arial, sans-serif; font-size: 12px; fill: rgb(42, 63, 95); fill-opacity: 1; white-space: pre; opacity: 1;" transform="translate(0,603.2)">2020</text></g><g class="y3tick"><text text-anchor="end" x="79" y="4.199999999999999" style="font-family: 'Open Sans', verdana, arial, sans-serif; font-size: 12px; fill: rgb(42, 63, 95); fill-opacity: 1; white-space: pre; opacity: 1;" transform="translate(0,533.74)">2030</text></g></g><g class="overaxes-above"/></g><g class="subplot x4y4"><g class="layer-subplot"><g class="shapelayer"/><g class="imagelayer"/></g><g class="minor-gridlayer"><g class="x4"/><g class="y4"/></g><g class="gridlayer"><g class="x4"/><g class="y4"><path class="y4grid crisp" transform="translate(0,811.6)" d="M652,0h467.99999999999994" style="stroke: rgb(255, 255, 255); stroke-opacity: 1; stroke-width: 1px;"/><path class="y4grid crisp" transform="translate(0,742.13)" d="M652,0h467.99999999999994" style="stroke: rgb(255, 255, 255); stroke-opacity: 1; stroke-width: 1px;"/><path class="y4grid crisp" transform="translate(0,672.67)" d="M652,0h467.99999999999994" style="stroke: rgb(255, 255, 255); stroke-opacity: 1; stroke-width: 1px;"/><path class="y4grid crisp" transform="translate(0,603.2)" d="M652,0h467.99999999999994" style="stroke: rgb(255, 255, 255); stroke-opacity: 1; stroke-width: 1px;"/><path class="y4grid crisp" transform="translate(0,533.74)" d="M652,0h467.99999999999994" style="stroke: rgb(255, 255, 255); stroke-opacity: 1; stroke-width: 1px;"/></g></g><g class="zerolinelayer"/><path class="xlines-below"/><path class="ylines-below"/><g class="overlines-below"/><g class="xaxislayer-below"/><g class="yaxislayer-below"/><g class="overaxes-below"/><g class="plot" transform="translate(652,514)" clip-path="url(#clipa4b03ax4y4plot)"><g class="violinlayer mlayer"><g class="trace violins" style="opacity: 1;"><path class="violin" d="M78.2,243.31Q78.3,240.88 78.38,239.66C78.45,238.45 78.54,237.23 78.65,236.02C78.76,234.81 78.9,233.59 79.04,232.38C79.19,231.17 79.35,229.95 79.52,228.74C79.69,227.52 79.87,226.31 80.05,225.09C80.23,223.88 80.42,222.66 80.6,221.45C80.78,220.24 80.95,219.03 81.11,217.81C81.26,216.6 81.41,215.38 81.53,214.16C81.65,212.95 81.76,211.73 81.84,210.52C81.92,209.31 81.99,208.09 82.03,206.88C82.07,205.66 82.09,204.45 82.1,203.23C82.11,202.02 82.1,200.8 82.1,199.59C82.1,198.38 82.09,197.16 82.12,195.95C82.15,194.73 82.18,193.51 82.26,192.3C82.34,191.08 82.45,189.87 82.6,188.66C82.75,187.44 82.95,186.23 83.16,185.02C83.38,183.8 83.63,182.59 83.89,181.38C84.15,180.16 84.44,178.95 84.71,177.73C84.98,176.52 85.26,175.3 85.53,174.09C85.79,172.88 86.05,171.67 86.3,170.45C86.54,169.24 86.77,168.02 87,166.8C87.23,165.59 87.45,164.37 87.66,163.16C87.87,161.95 88.08,160.73 88.28,159.52C88.49,158.3 88.69,157.09 88.89,155.87C89.09,154.66 89.27,153.44 89.46,152.23C89.64,151.02 89.83,149.8 90,148.59C90.17,147.37 90.34,146.16 90.5,144.94C90.66,143.73 90.82,142.51 90.98,141.3C91.14,140.09 91.31,138.87 91.48,137.66C91.65,136.44 91.82,135.23 92,134.01C92.18,132.8 92.37,131.58 92.57,130.37C92.77,129.16 92.98,127.94 93.19,126.73C93.41,125.52 93.63,124.3 93.86,123.09C94.09,121.87 94.33,120.65 94.58,119.44C94.83,118.22 95.1,117.01 95.38,115.8C95.66,114.59 95.94,113.37 96.24,112.16C96.54,110.94 96.85,109.73 97.16,108.51C97.47,107.3 97.79,106.08 98.11,104.87C98.43,103.66 98.75,102.44 99.1,101.23C99.45,100.01 99.79,98.79 100.19,97.58C100.59,96.36 101.02,95.15 101.49,93.94C101.97,92.72 102.5,91.51 103.06,90.3C103.63,89.08 104.28,87.86 104.9,86.65C105.52,85.43 106.21,84.23 106.8,83.01C107.38,81.81 108,80.6 108.39,79.37C108.77,78.18 109.11,76.95 109.13,75.73C109.15,74.52 108.97,73.26 108.54,72.08C108.08,70.82 107.26,69.6 106.35,68.44C105.34,67.16 104,65.98 102.66,64.8C101.22,63.54 99.56,62.35 97.96,61.15C96.32,59.92 94.57,58.74 92.94,57.51C91.35,56.31 89.74,55.12 88.3,53.87C86.94,52.69 85.64,51.48 84.52,50.22C83.48,49.05 82.55,47.83 81.78,46.58C81.06,45.4 80.47,44.18 80,42.94Q79.54,41.74 78.97,39.29L77.03,39.29Q76.46,41.74 76,42.94C75.53,44.18 74.94,45.4 74.22,46.58C73.45,47.83 72.52,49.05 71.48,50.22C70.36,51.48 69.06,52.69 67.7,53.87C66.26,55.12 64.65,56.31 63.06,57.51C61.43,58.74 59.68,59.92 58.04,61.15C56.44,62.35 54.78,63.54 53.34,64.8C52,65.98 50.66,67.16 49.65,68.44C48.74,69.6 47.92,70.82 47.46,72.08C47.03,73.26 46.85,74.52 46.87,75.73C46.89,76.95 47.23,78.18 47.61,79.37C48,80.6 48.62,81.81 49.2,83.01C49.79,84.23 50.48,85.43 51.1,86.65C51.72,87.86 52.37,89.08 52.94,90.3C53.5,91.51 54.03,92.72 54.51,93.94C54.98,95.15 55.41,96.36 55.81,97.58C56.21,98.79 56.55,100.01 56.9,101.23C57.25,102.44 57.57,103.66 57.89,104.87C58.21,106.08 58.53,107.3 58.84,108.51C59.15,109.73 59.46,110.94 59.76,112.16C60.06,113.37 60.34,114.59 60.62,115.8C60.9,117.01 61.17,118.22 61.42,119.44C61.67,120.65 61.91,121.87 62.14,123.09C62.37,124.3 62.59,125.52 62.81,126.73C63.02,127.94 63.23,129.16 63.43,130.37C63.63,131.58 63.82,132.8 64,134.01C64.18,135.23 64.35,136.44 64.52,137.66C64.69,138.87 64.86,140.09 65.02,141.3C65.18,142.51 65.34,143.73 65.5,144.94C65.66,146.16 65.83,147.37 66,148.59C66.17,149.8 66.36,151.02 66.54,152.23C66.73,153.44 66.91,154.66 67.11,155.87C67.31,157.09 67.51,158.3 67.72,159.52C67.92,160.73 68.13,161.95 68.34,163.16C68.55,164.37 68.77,165.59 69,166.8C69.23,168.02 69.46,169.24 69.7,170.45C69.95,171.67 70.21,172.88 70.47,174.09C70.74,175.3 71.02,176.52 71.29,177.73C71.56,178.95 71.85,180.16 72.11,181.38C72.37,182.59 72.62,183.8 72.84,185.02C73.05,186.23 73.25,187.44 73.4,188.66C73.55,189.87 73.66,191.08 73.74,192.3C73.82,193.51 73.85,194.73 73.88,195.95C73.91,197.16 73.9,198.38 73.9,199.59C73.9,200.8 73.89,202.02 73.9,203.23C73.91,204.45 73.93,205.66 73.97,206.88C74.01,208.09 74.08,209.31 74.16,210.52C74.24,211.73 74.35,212.95 74.47,214.16C74.59,215.38 74.74,216.6 74.89,217.81C75.05,219.03 75.22,220.24 75.4,221.45C75.58,222.66 75.77,223.88 75.95,225.09C76.13,226.31 76.31,227.52 76.48,228.74C76.65,229.95 76.81,231.17 76.96,232.38C77.1,233.59 77.24,234.81 77.35,236.02C77.46,237.23 77.55,238.45 77.62,239.66Q77.7,240.88 77.8,243.31Z" style="vector-effect: non-scaling-stroke; stroke-width: 2px; stroke: rgb(239, 85, 59); stroke-opacity: 1; fill: rgb(239, 85, 59); fill-opacity: 0.5;"/><path class="violin" d="M234.08,244.08Q234.12,241.55 234.15,240.28C234.18,239.01 234.23,237.74 234.28,236.47C234.33,235.2 234.39,233.93 234.47,232.66C234.54,231.39 234.63,230.13 234.73,228.86C234.83,227.59 234.94,226.32 235.06,225.05C235.18,223.78 235.3,222.51 235.43,221.24C235.56,219.97 235.7,218.71 235.84,217.44C235.98,216.17 236.11,214.9 236.25,213.63C236.38,212.36 236.52,211.09 236.65,209.82C236.78,208.55 236.92,207.29 237.05,206.02C237.18,204.75 237.32,203.48 237.45,202.21C237.59,200.94 237.73,199.67 237.86,198.4C237.99,197.13 238.13,195.87 238.25,194.6C238.38,193.33 238.5,192.06 238.61,190.79C238.72,189.52 238.82,188.25 238.91,186.98C239,185.71 239.07,184.45 239.13,183.18C239.19,181.91 239.24,180.64 239.28,179.37C239.32,178.1 239.34,176.83 239.35,175.56C239.36,174.29 239.35,173.03 239.35,171.76C239.35,170.49 239.33,169.22 239.32,167.95C239.31,166.68 239.28,165.41 239.29,164.14C239.3,162.87 239.3,161.6 239.36,160.33C239.42,159.06 239.49,157.79 239.63,156.53C239.77,155.26 239.95,153.98 240.2,152.72C240.45,151.44 240.76,150.17 241.12,148.91C241.48,147.64 241.91,146.37 242.36,145.11C242.82,143.83 243.34,142.57 243.86,141.3C244.38,140.03 244.93,138.76 245.46,137.49C245.99,136.22 246.53,134.96 247.03,133.69C247.53,132.43 248,131.16 248.44,129.88C248.87,128.62 249.28,127.34 249.64,126.07C250,124.81 250.32,123.54 250.62,122.27C250.92,121 251.18,119.73 251.45,118.46C251.71,117.19 251.95,115.92 252.21,114.65C252.47,113.38 252.72,112.12 253,110.85C253.28,109.58 253.57,108.31 253.9,107.04C254.24,105.77 254.59,104.49 255.01,103.23C255.44,101.95 255.91,100.68 256.45,99.43C257.01,98.15 257.63,96.87 258.32,95.62C259.03,94.33 259.84,93.07 260.67,91.81C261.52,90.53 262.46,89.27 263.38,88.01C264.3,86.74 265.31,85.49 266.19,84.2C267.05,82.95 267.95,81.69 268.6,80.39C269.21,79.15 269.81,77.88 270.01,76.59C270.2,75.34 270.17,74.01 269.82,72.78C269.44,71.46 268.63,70.17 267.69,68.97C266.63,67.62 265.15,66.39 263.66,65.17C262.04,63.84 260.12,62.61 258.27,61.36C256.35,60.07 254.28,58.83 252.34,57.55C250.44,56.29 248.49,55.06 246.74,53.75C245.09,52.52 243.48,51.27 242.1,49.94C240.83,48.72 239.67,47.45 238.71,46.13C237.82,44.91 237.09,43.63 236.5,42.33Q235.93,41.09 235.2,38.52L232.8,38.52Q232.07,41.09 231.5,42.33C230.91,43.63 230.18,44.91 229.29,46.13C228.33,47.45 227.17,48.72 225.9,49.94C224.52,51.27 222.91,52.52 221.26,53.75C219.51,55.06 217.56,56.29 215.66,57.55C213.72,58.83 211.65,60.07 209.73,61.36C207.88,62.61 205.96,63.84 204.34,65.17C202.85,66.39 201.37,67.62 200.31,68.97C199.37,70.17 198.56,71.46 198.18,72.78C197.83,74.01 197.8,75.34 197.99,76.59C198.19,77.88 198.79,79.15 199.4,80.39C200.05,81.69 200.95,82.95 201.81,84.2C202.69,85.49 203.7,86.74 204.62,88.01C205.54,89.27 206.48,90.53 207.33,91.81C208.16,93.07 208.97,94.33 209.68,95.62C210.37,96.87 210.99,98.15 211.55,99.43C212.09,100.68 212.56,101.95 212.99,103.23C213.41,104.49 213.76,105.77 214.1,107.04C214.43,108.31 214.72,109.58 215,110.85C215.28,112.12 215.53,113.38 215.79,114.65C216.05,115.92 216.29,117.19 216.55,118.46C216.82,119.73 217.08,121 217.38,122.27C217.68,123.54 218,124.81 218.36,126.07C218.72,127.34 219.13,128.62 219.56,129.88C220,131.16 220.47,132.43 220.97,133.69C221.47,134.96 222.01,136.22 222.54,137.49C223.07,138.76 223.62,140.03 224.14,141.3C224.66,142.57 225.18,143.83 225.64,145.11C226.09,146.37 226.52,147.64 226.88,148.91C227.24,150.17 227.55,151.44 227.8,152.72C228.05,153.98 228.23,155.26 228.37,156.53C228.51,157.79 228.58,159.06 228.64,160.33C228.7,161.6 228.7,162.87 228.71,164.14C228.72,165.41 228.69,166.68 228.68,167.95C228.67,169.22 228.65,170.49 228.65,171.76C228.65,173.03 228.64,174.29 228.65,175.56C228.66,176.83 228.68,178.1 228.72,179.37C228.76,180.64 228.81,181.91 228.87,183.18C228.93,184.45 229,185.71 229.09,186.98C229.18,188.25 229.28,189.52 229.39,190.79C229.5,192.06 229.62,193.33 229.75,194.6C229.87,195.87 230.01,197.13 230.14,198.4C230.27,199.67 230.41,200.94 230.55,202.21C230.68,203.48 230.82,204.75 230.95,206.02C231.08,207.29 231.22,208.55 231.35,209.82C231.48,211.09 231.62,212.36 231.75,213.63C231.89,214.9 232.02,216.17 232.16,217.44C232.3,218.71 232.44,219.97 232.57,221.24C232.7,222.51 232.82,223.78 232.94,225.05C233.06,226.32 233.17,227.59 233.27,228.86C233.37,230.13 233.46,231.39 233.53,232.66C233.61,233.93 233.67,235.2 233.72,236.47C233.77,237.74 233.82,239.01 233.85,240.28Q233.88,241.55 233.92,244.08Z" style="vector-effect: non-scaling-stroke; stroke-width: 2px; stroke: rgb(239, 85, 59); stroke-opacity: 1; fill: rgb(239, 85, 59); fill-opacity: 0.5;"/><path class="violin" d="M390.19,256.71Q390.29,252.78 390.37,250.82C390.45,248.86 390.54,246.89 390.65,244.93C390.76,242.97 390.89,241 391.03,239.04C391.17,237.08 391.35,235.11 391.51,233.15C391.68,231.19 391.85,229.22 392.02,227.26C392.18,225.3 392.35,223.33 392.5,221.37C392.65,219.4 392.79,217.44 392.91,215.47C393.03,213.51 393.13,211.54 393.22,209.58C393.31,207.62 393.39,205.65 393.47,203.69C393.55,201.73 393.62,199.76 393.71,197.8C393.8,195.84 393.88,193.87 394,191.91C394.12,189.95 394.25,187.98 394.42,186.02C394.59,184.05 394.77,182.08 395.01,180.12C395.25,178.15 395.53,176.19 395.85,174.23C396.17,172.26 396.53,170.3 396.93,168.34C397.33,166.37 397.79,164.41 398.27,162.45C398.75,160.48 399.28,158.52 399.82,156.56C400.37,154.59 400.94,152.63 401.54,150.67C402.14,148.7 402.77,146.73 403.41,144.77C404.05,142.8 404.73,140.84 405.4,138.88C406.07,136.92 406.77,134.95 407.45,132.99C408.13,131.03 408.83,129.07 409.47,127.1C410.11,125.14 410.75,123.18 411.31,121.21C411.87,119.25 412.39,117.29 412.85,115.32C413.3,113.36 413.69,111.39 414.04,109.42C414.39,107.46 414.69,105.5 414.96,103.53C415.23,101.57 415.46,99.61 415.64,97.64C415.82,95.68 415.99,93.71 416.02,91.75C416.05,89.79 416.04,87.82 415.83,85.86C415.62,83.89 415.28,81.91 414.73,79.97C414.17,77.98 413.38,76.01 412.47,74.08C411.52,72.08 410.33,70.12 409.11,68.18C407.86,66.19 406.43,64.25 405.07,62.29C403.7,60.32 402.24,58.38 400.92,56.4C399.63,54.45 398.34,52.5 397.24,50.51C396.17,48.57 395.19,46.61 394.38,44.62C393.59,42.68 392.93,40.71 392.4,38.73Q391.88,36.78 391.2,32.83L388.8,32.83Q388.12,36.78 387.6,38.73C387.07,40.71 386.41,42.68 385.62,44.62C384.81,46.61 383.83,48.57 382.76,50.51C381.66,52.5 380.37,54.45 379.08,56.4C377.76,58.38 376.3,60.32 374.93,62.29C373.57,64.25 372.14,66.19 370.89,68.18C369.67,70.12 368.48,72.08 367.53,74.08C366.62,76.01 365.83,77.98 365.27,79.97C364.72,81.91 364.38,83.89 364.17,85.86C363.96,87.82 363.95,89.79 363.98,91.75C364.01,93.71 364.18,95.68 364.36,97.64C364.54,99.61 364.77,101.57 365.04,103.53C365.31,105.5 365.61,107.46 365.96,109.42C366.31,111.39 366.7,113.36 367.15,115.32C367.61,117.29 368.13,119.25 368.69,121.21C369.25,123.18 369.89,125.14 370.53,127.1C371.17,129.07 371.87,131.03 372.55,132.99C373.23,134.95 373.93,136.92 374.6,138.88C375.27,140.84 375.95,142.8 376.59,144.77C377.23,146.73 377.86,148.7 378.46,150.67C379.06,152.63 379.63,154.59 380.18,156.56C380.72,158.52 381.25,160.48 381.73,162.45C382.21,164.41 382.67,166.37 383.07,168.34C383.47,170.3 383.83,172.26 384.15,174.23C384.47,176.19 384.75,178.15 384.99,180.12C385.23,182.08 385.41,184.05 385.58,186.02C385.75,187.98 385.88,189.95 386,191.91C386.12,193.87 386.2,195.84 386.29,197.8C386.38,199.76 386.45,201.73 386.53,203.69C386.61,205.65 386.69,207.62 386.78,209.58C386.87,211.54 386.97,213.51 387.09,215.47C387.21,217.44 387.35,219.4 387.5,221.37C387.65,223.33 387.82,225.3 387.98,227.26C388.15,229.22 388.32,231.19 388.49,233.15C388.65,235.11 388.83,237.08 388.97,239.04C389.11,241 389.24,242.97 389.35,244.93C389.46,246.89 389.55,248.86 389.63,250.82Q389.71,252.78 389.81,256.71Z" style="vector-effect: non-scaling-stroke; stroke-width: 2px; stroke: rgb(239, 85, 59); stroke-opacity: 1; fill: rgb(239, 85, 59); fill-opacity: 0.5;"/><path class="box" d="M68.44,103.1H87.55M68.44,137.83H87.55V75.31H68.44ZM78,137.83V221.19M78,75.31V61.42" style="vector-effect: non-scaling-stroke; stroke-width: 2px; stroke: rgb(239, 85, 59); stroke-opacity: 1; fill: rgb(239, 85, 59); fill-opacity: 0.5;"/><path class="box" d="M224.44,89.2H243.55M224.44,123.93H243.55V75.31H224.44ZM234,123.93V193.4M234,75.31V61.42" style="vector-effect: non-scaling-stroke; stroke-width: 2px; stroke: rgb(239, 85, 59); stroke-opacity: 1; fill: rgb(239, 85, 59); fill-opacity: 0.5;"/><path class="box" d="M380.44,110.04H399.55M380.44,136.09H399.55V82.26H380.44ZM390,136.09V214.24M390,82.26V68.36" style="vector-effect: non-scaling-stroke; stroke-width: 2px; stroke: rgb(239, 85, 59); stroke-opacity: 1; fill: rgb(239, 85, 59); fill-opacity: 0.5;"/><path class="mean" d="M68.44,110.88H87.55" style="fill: none; vector-effect: non-scaling-stroke; stroke-width: 2px; stroke-dasharray: 4px, 2px; stroke: rgb(239, 85, 59); stroke-opacity: 1;"/><path class="mean" d="M224.44,103.23H243.55" style="fill: none; vector-effect: non-scaling-stroke; stroke-width: 2px; stroke-dasharray: 4px, 2px; stroke: rgb(239, 85, 59); stroke-opacity: 1;"/><path class="mean" d="M380.44,112.75H399.55" style="fill: none; vector-effect: non-scaling-stroke; stroke-width: 2px; stroke-dasharray: 4px, 2px; stroke: rgb(239, 85, 59); stroke-opacity: 1;"/></g></g></g><g class="overplot"/><path class="xlines-above crisp" d="M0,0" style="fill: none;"/><path class="ylines-above crisp" d="M0,0" style="fill: none;"/><g class="overlines-above"/><g class="xaxislayer-above"><g class="x4tick"><text text-anchor="middle" x="0" y="833" transform="translate(730,0)" style="font-family: 'Open Sans', verdana, arial, sans-serif; font-size: 12px; fill: rgb(42, 63, 95); fill-opacity: 1; white-space: pre; opacity: 1;">&#60;=1</text></g><g class="x4tick"><text text-anchor="middle" x="0" y="833" transform="translate(886,0)" style="font-family: 'Open Sans', verdana, arial, sans-serif; font-size: 12px; fill: rgb(42, 63, 95); fill-opacity: 1; white-space: pre; opacity: 1;">(1, 2]</text></g><g class="x4tick"><text text-anchor="middle" x="0" y="833" transform="translate(1042,0)" style="font-family: 'Open Sans', verdana, arial, sans-serif; font-size: 12px; fill: rgb(42, 63, 95); fill-opacity: 1; white-space: pre; opacity: 1;">>2</text></g></g><g class="yaxislayer-above"><g class="y4tick"><text text-anchor="end" x="651" y="4.199999999999999" transform="translate(0,811.6)" style="font-family: 'Open Sans', verdana, arial, sans-serif; font-size: 12px; fill: rgb(42, 63, 95); fill-opacity: 1; white-space: pre; opacity: 1;">1990</text></g><g class="y4tick"><text text-anchor="end" x="651" y="4.199999999999999" style="font-family: 'Open Sans', verdana, arial, sans-serif; font-size: 12px; fill: rgb(42, 63, 95); fill-opacity: 1; white-space: pre; opacity: 1;" transform="translate(0,742.13)">2000</text></g><g class="y4tick"><text text-anchor="end" x="651" y="4.199999999999999" style="font-family: 'Open Sans', verdana, arial, sans-serif; font-size: 12px; fill: rgb(42, 63, 95); fill-opacity: 1; white-space: pre; opacity: 1;" transform="translate(0,672.67)">2010</text></g><g class="y4tick"><text text-anchor="end" x="651" y="4.199999999999999" style="font-family: 'Open Sans', verdana, arial, sans-serif; font-size: 12px; fill: rgb(42, 63, 95); fill-opacity: 1; white-space: pre; opacity: 1;" transform="translate(0,603.2)">2020</text></g><g class="y4tick"><text text-anchor="end" x="651" y="4.199999999999999" style="font-family: 'Open Sans', verdana, arial, sans-serif; font-size: 12px; fill: rgb(42, 63, 95); fill-opacity: 1; white-space: pre; opacity: 1;" transform="translate(0,533.74)">2030</text></g></g><g class="overaxes-above"/></g></g><g class="polarlayer"/><g class="smithlayer"/><g class="ternarylayer"/><g class="geolayer"/><g class="funnelarealayer"/><g class="pielayer"/><g class="iciclelayer"/><g class="treemaplayer"/><g class="sunburstlayer"/><g class="glimages"/><defs id="topdefs-a4b03a"><g class="clips"/></defs><g class="layer-above"><g class="imagelayer"/><g class="shapelayer"/></g><g class="infolayer"><g class="g-gtitle"><text class="gtitle" x="60" y="50" text-anchor="start" dy="0em" style="font-family: 'Open Sans', verdana, arial, sans-serif; font-size: 17px; fill: rgb(42, 63, 95); opacity: 1; font-weight: normal; white-space: pre;">publish_year Distributions</text></g><g class="g-xtitle"><text class="xtitle" x="314" y="447.8" text-anchor="middle" style="font-family: 'Open Sans', verdana, arial, sans-serif; font-size: 14px; fill: rgb(42, 63, 95); opacity: 1; font-weight: normal; white-space: pre;">Hardcover over Paperback</text></g><g class="g-x2title"><text class="x2title" x="886" y="447.8" text-anchor="middle" style="font-family: 'Open Sans', verdana, arial, sans-serif; font-size: 14px; fill: rgb(42, 63, 95); opacity: 1; font-weight: normal; white-space: pre;">Hardcover over Paperback</text></g><g class="g-x3title"><text class="x3title" x="314" y="861.8" text-anchor="middle" style="font-family: 'Open Sans', verdana, arial, sans-serif; font-size: 14px; fill: rgb(42, 63, 95); opacity: 1; font-weight: normal; white-space: pre;">Hardcover over Paperback</text></g><g class="g-x4title"><text class="x4title" x="886" y="861.8" text-anchor="middle" style="font-family: 'Open Sans', verdana, arial, sans-serif; font-size: 14px; fill: rgb(42, 63, 95); opacity: 1; font-weight: normal; white-space: pre;">Hardcover over Paperback</text></g><g class="g-ytitle"><text class="ytitle" transform="rotate(-90,26.746875000000003,253.00000000000003)" x="26.746875000000003" y="253.00000000000003" text-anchor="middle" style="font-family: 'Open Sans', verdana, arial, sans-serif; font-size: 14px; fill: rgb(42, 63, 95); opacity: 1; font-weight: normal; white-space: pre;">publish_year</text></g><g class="g-y2title"><text class="y2title" transform="rotate(-90,598.746875,253.00000000000003)" x="598.746875" y="253.00000000000003" text-anchor="middle" style="font-family: 'Open Sans', verdana, arial, sans-serif; font-size: 14px; fill: rgb(42, 63, 95); opacity: 1; font-weight: normal; white-space: pre;">publish_year</text></g><g class="g-y3title"><text class="y3title" transform="rotate(-90,26.746875000000003,667)" x="26.746875000000003" y="667" text-anchor="middle" style="font-family: 'Open Sans', verdana, arial, sans-serif; font-size: 14px; fill: rgb(42, 63, 95); opacity: 1; font-weight: normal; white-space: pre;">publish_year</text></g><g class="g-y4title"><text class="y4title" transform="rotate(-90,598.746875,667)" x="598.746875" y="667" text-anchor="middle" style="font-family: 'Open Sans', verdana, arial, sans-serif; font-size: 14px; fill: rgb(42, 63, 95); opacity: 1; font-weight: normal; white-space: pre;">publish_year</text></g><g class="annotation" data-index="0" style="opacity: 1;"><g class="annotation-text-g" transform="rotate(0,314,87)"><g class="cursor-pointer" transform="translate(202,74)"><rect class="bg" x="0.5" y="0.5" width="224" height="25" style="stroke-width: 1px; stroke: rgb(0, 0, 0); stroke-opacity: 0; fill: rgb(0, 0, 0); fill-opacity: 0;"/><text class="annotation-text" text-anchor="middle" x="112.578125" y="19" style="font-family: 'Open Sans', verdana, arial, sans-serif; font-size: 16px; fill: rgb(42, 63, 95); fill-opacity: 1; white-space: pre;">Paperback (Paperback Better)</text></g></g></g><g class="annotation" data-index="1" style="opacity: 1;"><g class="annotation-text-g" transform="rotate(0,886,87)"><g class="cursor-pointer" transform="translate(774,74)"><rect class="bg" x="0.5" y="0.5" width="223" height="25" style="stroke-width: 1px; stroke: rgb(0, 0, 0); stroke-opacity: 0; fill: rgb(0, 0, 0); fill-opacity: 0;"/><text class="annotation-text" text-anchor="middle" x="112.203125" y="19" style="font-family: 'Open Sans', verdana, arial, sans-serif; font-size: 16px; fill: rgb(42, 63, 95); fill-opacity: 1; white-space: pre;">Hardcover (Paperback Better)</text></g></g></g><g class="annotation" data-index="2" style="opacity: 1;"><g class="annotation-text-g" transform="rotate(0,314,501)"><g class="cursor-pointer" transform="translate(202,488)"><rect class="bg" x="0.5" y="0.5" width="223" height="25" style="stroke-width: 1px; stroke: rgb(0, 0, 0); stroke-opacity: 0; fill: rgb(0, 0, 0); fill-opacity: 0;"/><text class="annotation-text" text-anchor="middle" x="112.203125" y="19" style="font-family: 'Open Sans', verdana, arial, sans-serif; font-size: 16px; fill: rgb(42, 63, 95); fill-opacity: 1; white-space: pre;">Paperback (Hardcover Better)</text></g></g></g><g class="annotation" data-index="3" style="opacity: 1;"><g class="annotation-text-g" transform="rotate(0,886,501)"><g class="cursor-pointer" transform="translate(774,488)"><rect class="bg" x="0.5" y="0.5" width="223" height="25" style="stroke-width: 1px; stroke: rgb(0, 0, 0); stroke-opacity: 0; fill: rgb(0, 0, 0); fill-opacity: 0;"/><text class="annotation-text" text-anchor="middle" x="111.828125" y="19" style="font-family: 'Open Sans', verdana, arial, sans-serif; font-size: 16px; fill: rgb(42, 63, 95); fill-opacity: 1; white-space: pre;">Hardcover (Hardcover Better)</text></g></g></g></g></svg>