<svg class="main-svg" xmlns="http://www.w3.org/2000/svg" xmlns:xlink="http://www.w3.org/1999/xlink" width="1200" height="900" style="" viewBox="0 0 1200 900"><rect x="0" y="0" width="1200" height="900" style="fill: rgb(255, 255, 255); fill-opacity: 1;"/><defs id="defs-347531"><g class="clips"><clipPath id="clip347531xyplot" class="plotclip"><rect width="468" height="306.00000000000006"/></clipPath><clipPath id="clip347531x2y2plot" class="plotclip"><rect width="467.99999999999994" height="306.00000000000006"/></clipPath><clipPath id="clip347531x3y3plot" class="plotclip"><rect width="468" height="306"/></clipPath><clipPath id="clip347531x4y4plot" class="plotclip"><rect width="467.99999999999994" height="306"/></clipPath><clipPath class="axesclip" id="clip347531x"><rect x="80" y="0" width="468" height="900"/></clipPath><clipPath class="axesclip" id="clip347531y"><rect x="0" y="100" width="1200" height="306.00000000000006"/></clipPath><clipPath class="axesclip" id="clip347531xy"><rect x="80" y="100" width="468" height="306.00000000000006"/></clipPath><clipPath class="axesclip" id="clip347531y2"><rect x="0" y="100" width="1200" height="306.00000000000006"/></clipPath><clipPath class="axesclip" id="clip347531xy2"><rect x="80" y="100" width="468" height="306.00000000000006"/></clipPath><clipPath class="axesclip" id="clip347531y3"><rect x="0" y="514" width="1200" height="306"/></clipPath><clipPath class="axesclip" id="clip347531xy3"><rect x="80" y="514" width="468" height="306"/></clipPath><clipPath class="axesclip" id="clip347531y4"><rect x="0" y="514" width="1200" height="306"/></clipPath><clipPath class="axesclip" id="clip347531xy4"><rect x="80" y="514" width="468" height="306"/></clipPath><clipPath class="axesclip" id="clip347531x2"><rect x="652" y="0" width="467.99999999999994" height="900"/></clipPath><clipPath class="axesclip" id="clip347531x2y"><rect x="652" y="100" width="467.99999999999994" height="306.00000000000006"/></clipPath><clipPath class="axesclip" id="clip347531x2y2"><rect x="652" y="100" width="467.99999999999994" height="306.00000000000006"/></clipPath><clipPath class="axesclip" id="clip347531x2y3"><rect x="652" y="514" width="467.99999999999994" height="306"/></clipPath><clipPath class="axesclip" id="clip347531x2y4"><rect x="652" y="514" width="467.99999999999994" height="306"/></clipPath><clipPath class="axesclip" id="clip347531x3"><rect x="80" y="0" width="468" height="900"/></clipPath><clipPath class="axesclip" id="clip347531x3y"><rect x="80" y="100" width="468" height="306.00000000000006"/></clipPath><clipPath class="axesclip" id="clip347531x3y2"><rect x="80" y="100" width="468" height="306.00000000000006"/></clipPath><clipPath class="axesclip" id="clip347531x3y3"><rect x="80" y="514" width="468" height="306"/></clipPath><clipPath class="axesclip" id="clip347531x3y4"><rect x="80" y="514" width="468" height="306"/></clipPath><clipPath class="axesclip" id="clip347531x4"><rect x="652" y="0" width="467.99999999999994" height="900"/></clipPath><clipPath class="axesclip" id="clip347531x4y"><rect x="652" y="100" width="467.99999999999994" height="306.00000000000006"/></clipPath><clipPath class="axesclip" id="clip347531x4y2"><rect x="652" y="100" width="467.99999999999994" height="306.00000000000006"/></clipPath><clipPath class="axesclip" id="clip347531x4y3"><rect x="652" y="514" width="467.99999999999994" height="306"/></clipPath><clipPath class="axesclip" id="clip347531x4y4"><rect x="652" y="514" width="467.99999999999994" height="306"/></clipPath></g><g class="gradients"/><g class="patterns"/></defs><g class="bglayer"><rect class="bg" x="80" y="100" width="468" height="306.00000000000006" style="fill: rgb(229, 236, 246); fill-opacity: 1; stroke-width: 0;"/><rect class="bg" x="652" y="100" width="467.99999999999994" height="306.00000000000006" style="fill: rgb(229, 236, 246); fill-opacity: 1; stroke-width: 0;"/><rect class="bg" x="80" y="514" width="468" height="306" style="fill: rgb(229, 236, 246); fill-opacity: 1; stroke-width: 0;"/><rect class="bg" x="652" y="514" width="467.99999999999994" height="306" style="fill: rgb(229, 236, 246); fill-opacity: 1; stroke-width: 0;"/></g><g class="layer-below"><g class="imagelayer"/><g class="shapelayer"/></g><g class="cartesianlayer"><g class="subplot xy"><g class="layer-subplot"><g class="shapelayer"/><g class="imagelayer"/></g><g class="minor-gridlayer"><g class="x"/><g class="y"/></g><g class="gridlayer"><g class="x"/><g class="y"><path class="ygrid crisp" transform="translate(0,311.8)" d="M80,0h468" style="stroke: rgb(255, 255, 255); stroke-opacity: 1; stroke-width: 1px;"/><path class="ygrid crisp" transform="translate(0,252.19)" d="M80,0h468" style="stroke: rgb(255, 255, 255); stroke-opacity: 1; stroke-width: 1px;"/><path class="ygrid crisp" transform="translate(0,192.57999999999998)" d="M80,0h468" style="stroke: rgb(255, 255, 255); stroke-opacity: 1; stroke-width: 1px;"/><path class="ygrid crisp" transform="translate(0,132.97)" d="M80,0h468" style="stroke: rgb(255, 255, 255); stroke-opacity: 1; stroke-width: 1px;"/></g></g><g class="zerolinelayer"><path class="yzl zl crisp" transform="translate(0,371.41)" d="M80,0h468" style="stroke: rgb(255, 255, 255); stroke-opacity: 1; stroke-width: 2px;"/></g><path class="xlines-below"/><path class="ylines-below"/><g class="overlines-below"/><g class="xaxislayer-below"/><g class="yaxislayer-below"/><g class="overaxes-below"/><g class="plot" transform="translate(80,100)" clip-path="url(#clip347531xyplot)"><g class="violinlayer mlayer"><g class="trace violins" style="opacity: 1;"><path class="violin" d="M78.08,265.13Q78.13,263.53 78.16,262.73C78.19,261.93 78.22,261.14 78.27,260.34C78.32,259.54 78.38,258.75 78.45,257.95C78.52,257.15 78.61,256.35 78.71,255.55C78.82,254.75 78.93,253.95 79.08,253.16C79.23,252.36 79.4,251.55 79.63,250.76C79.86,249.96 80.13,249.15 80.48,248.37C80.84,247.56 81.25,246.76 81.76,245.98C82.3,245.16 82.94,244.35 83.67,243.58C84.46,242.75 85.37,241.96 86.35,241.19C87.42,240.35 88.63,239.56 89.88,238.79C91.23,237.96 92.71,237.18 94.19,236.4C95.73,235.59 97.38,234.81 98.97,234.01C100.56,233.21 102.21,232.43 103.72,231.61C105.15,230.83 106.59,230.07 107.81,229.22C108.89,228.46 109.97,227.69 110.71,226.82C111.34,226.07 111.89,225.26 112.09,224.43C112.28,223.66 112.18,222.81 111.97,222.04C111.74,221.21 111.21,220.42 110.7,219.64C110.16,218.82 109.43,218.04 108.78,217.25C108.13,216.45 107.41,215.67 106.79,214.86C106.19,214.07 105.59,213.28 105.12,212.46C104.67,211.68 104.29,210.88 104.01,210.07C103.74,209.28 103.56,208.47 103.44,207.67C103.32,206.88 103.3,206.08 103.28,205.28C103.26,204.48 103.29,203.69 103.32,202.89C103.35,202.09 103.4,201.29 103.44,200.49C103.48,199.69 103.53,198.9 103.57,198.1C103.62,197.3 103.66,196.5 103.71,195.7C103.75,194.9 103.8,194.11 103.84,193.31C103.87,192.51 103.92,191.72 103.92,190.92C103.92,190.12 103.92,189.32 103.85,188.52C103.78,187.72 103.68,186.92 103.5,186.13C103.31,185.32 103.07,184.51 102.74,183.73C102.4,182.92 101.96,182.12 101.45,181.34C100.91,180.52 100.26,179.73 99.56,178.95C98.82,178.13 97.97,177.33 97.09,176.55C96.17,175.73 95.16,174.95 94.15,174.16C93.12,173.35 92.02,172.56 90.96,171.76C89.9,170.96 88.8,170.18 87.78,169.37C86.79,168.59 85.79,167.8 84.9,166.98C84.05,166.2 83.24,165.4 82.53,164.58C81.86,163.8 81.26,163.01 80.75,162.19C80.27,161.41 79.87,160.6 79.54,159.79C79.22,159.01 78.99,158.2 78.79,157.4Q78.6,156.61 78.37,155.01L77.63,155.01Q77.4,156.61 77.21,157.4C77.01,158.2 76.78,159.01 76.46,159.79C76.13,160.6 75.73,161.41 75.25,162.19C74.74,163.01 74.14,163.8 73.47,164.58C72.76,165.4 71.95,166.2 71.1,166.98C70.21,167.8 69.21,168.59 68.22,169.37C67.2,170.18 66.1,170.96 65.04,171.76C63.98,172.56 62.88,173.35 61.85,174.16C60.84,174.95 59.83,175.73 58.91,176.55C58.03,177.33 57.18,178.13 56.44,178.95C55.74,179.73 55.09,180.52 54.55,181.34C54.04,182.12 53.6,182.92 53.26,183.73C52.93,184.51 52.69,185.32 52.5,186.13C52.32,186.92 52.22,187.72 52.15,188.52C52.08,189.32 52.08,190.12 52.08,190.92C52.08,191.72 52.13,192.51 52.16,193.31C52.2,194.11 52.25,194.9 52.29,195.7C52.34,196.5 52.38,197.3 52.43,198.1C52.47,198.9 52.52,199.69 52.56,200.49C52.6,201.29 52.65,202.09 52.68,202.89C52.71,203.69 52.74,204.48 52.72,205.28C52.7,206.08 52.68,206.88 52.56,207.67C52.44,208.47 52.26,209.28 51.99,210.07C51.71,210.88 51.33,211.68 50.88,212.46C50.41,213.28 49.81,214.07 49.21,214.86C48.59,215.67 47.87,216.45 47.22,217.25C46.57,218.04 45.84,218.82 45.3,219.64C44.79,220.42 44.26,221.21 44.03,222.04C43.82,222.81 43.72,223.66 43.91,224.43C44.11,225.26 44.66,226.07 45.29,226.82C46.03,227.69 47.11,228.46 48.19,229.22C49.41,230.07 50.85,230.83 52.28,231.61C53.79,232.43 55.44,233.21 57.03,234.01C58.62,234.81 60.27,235.59 61.81,236.4C63.29,237.18 64.77,237.96 66.12,238.79C67.37,239.56 68.58,240.35 69.65,241.19C70.63,241.96 71.54,242.75 72.33,243.58C73.06,244.35 73.7,245.16 74.24,245.98C74.75,246.76 75.16,247.56 75.52,248.37C75.87,249.15 76.14,249.96 76.37,250.76C76.6,251.55 76.77,252.36 76.92,253.16C77.07,253.95 77.18,254.75 77.29,255.55C77.39,256.35 77.48,257.15 77.55,257.95C77.62,258.75 77.68,259.54 77.73,260.34C77.78,261.14 77.81,261.93 77.84,262.73Q77.87,263.53 77.92,265.13Z" style="vector-effect: non-scaling-stroke; stroke-width: 2px; stroke: rgb(99, 110, 250); stroke-opacity: 1; fill: rgb(99, 110, 250); fill-opacity: 0.5;"/><path class="violin" d="M234.09,256.56Q234.14,255.59 234.18,255.11C234.22,254.63 234.26,254.15 234.32,253.67C234.38,253.19 234.46,252.71 234.55,252.23C234.64,251.75 234.75,251.27 234.87,250.79C235,250.31 235.14,249.82 235.3,249.34C235.47,248.86 235.65,248.38 235.86,247.9C236.07,247.42 236.31,246.94 236.56,246.46C236.82,245.97 237.09,245.49 237.38,245.01C237.67,244.52 237.98,244.05 238.31,243.57C238.64,243.09 238.99,242.61 239.35,242.13C239.72,241.65 240.1,241.16 240.51,240.69C240.93,240.2 241.38,239.71 241.86,239.24C242.37,238.75 242.91,238.26 243.5,237.8C244.13,237.3 244.83,236.82 245.56,236.36C246.35,235.86 247.21,235.38 248.11,234.91C249.07,234.41 250.1,233.94 251.14,233.47C252.22,232.98 253.37,232.51 254.49,232.03C255.61,231.55 256.77,231.07 257.87,230.58C258.92,230.11 259.98,229.64 260.94,229.14C261.82,228.68 262.68,228.21 263.41,227.7C264.05,227.25 264.66,226.78 265.12,226.26C265.53,225.8 265.86,225.31 266.09,224.81C266.3,224.35 266.41,223.85 266.48,223.37C266.55,222.89 266.53,222.41 266.52,221.93C266.51,221.45 266.45,220.96 266.41,220.48C266.37,220 266.32,219.52 266.29,219.04C266.26,218.56 266.23,218.08 266.23,217.6C266.23,217.12 266.24,216.64 266.28,216.16C266.32,215.68 266.4,215.19 266.47,214.71C266.54,214.23 266.64,213.75 266.72,213.27C266.8,212.79 266.9,212.31 266.95,211.83C267,211.35 267.04,210.86 267.04,210.38C267.04,209.9 266.99,209.42 266.93,208.94C266.87,208.46 266.77,207.98 266.68,207.5C266.59,207.02 266.47,206.54 266.37,206.06C266.27,205.58 266.17,205.09 266.08,204.61C265.99,204.13 265.92,203.65 265.84,203.17C265.77,202.69 265.7,202.21 265.63,201.73C265.56,201.25 265.49,200.76 265.41,200.28C265.34,199.8 265.26,199.32 265.18,198.84C265.1,198.36 265.01,197.88 264.92,197.4C264.83,196.92 264.74,196.43 264.62,195.95C264.5,195.47 264.38,194.98 264.21,194.51C264.04,194.02 263.84,193.54 263.59,193.07C263.34,192.58 263.03,192.1 262.7,191.63C262.35,191.14 261.95,190.65 261.52,190.18C261.08,189.69 260.58,189.21 260.08,188.74C259.57,188.25 259.03,187.78 258.49,187.3C257.95,186.82 257.39,186.34 256.85,185.85C256.32,185.37 255.79,184.9 255.3,184.41C254.82,183.94 254.36,183.46 253.94,182.97C253.54,182.5 253.16,182.02 252.82,181.53C252.49,181.06 252.21,180.57 251.94,180.08C251.68,179.61 251.46,179.12 251.24,178.64C251.02,178.16 250.83,177.68 250.61,177.2C250.39,176.72 250.19,176.23 249.94,175.75C249.68,175.26 249.41,174.78 249.09,174.31C248.75,173.82 248.36,173.33 247.93,172.87C247.47,172.37 246.94,171.9 246.38,171.43C245.79,170.93 245.13,170.45 244.47,169.98C243.78,169.49 243.04,169.02 242.32,168.54C241.6,168.06 240.86,167.59 240.16,167.1C239.48,166.63 238.81,166.15 238.2,165.65C237.63,165.18 237.09,164.71 236.63,164.21C236.2,163.75 235.81,163.27 235.5,162.77C235.2,162.3 234.97,161.81 234.78,161.32Q234.6,160.85 234.37,159.88L233.63,159.88Q233.4,160.85 233.22,161.32C233.03,161.81 232.8,162.3 232.5,162.77C232.19,163.27 231.8,163.75 231.37,164.21C230.91,164.71 230.37,165.18 229.8,165.65C229.19,166.15 228.52,166.63 227.84,167.1C227.14,167.59 226.4,168.06 225.68,168.54C224.96,169.02 224.22,169.49 223.53,169.98C222.87,170.45 222.21,170.93 221.62,171.43C221.06,171.9 220.53,172.37 220.07,172.87C219.64,173.33 219.25,173.82 218.91,174.31C218.59,174.78 218.32,175.26 218.06,175.75C217.81,176.23 217.61,176.72 217.39,177.2C217.17,177.68 216.98,178.16 216.76,178.64C216.54,179.12 216.32,179.61 216.06,180.08C215.79,180.57 215.51,181.06 215.18,181.53C214.84,182.02 214.46,182.5 214.06,182.97C213.64,183.46 213.18,183.94 212.7,184.41C212.21,184.9 211.68,185.37 211.15,185.85C210.61,186.34 210.05,186.82 209.51,187.3C208.97,187.78 208.43,188.25 207.92,188.74C207.42,189.21 206.92,189.69 206.48,190.18C206.05,190.65 205.65,191.14 205.3,191.63C204.97,192.1 204.66,192.58 204.41,193.07C204.16,193.54 203.96,194.02 203.79,194.51C203.62,194.98 203.5,195.47 203.38,195.95C203.26,196.43 203.17,196.92 203.08,197.4C202.99,197.88 202.9,198.36 202.82,198.84C202.74,199.32 202.66,199.8 202.59,200.28C202.51,200.76 202.44,201.25 202.37,201.73C202.3,202.21 202.23,202.69 202.16,203.17C202.08,203.65 202.01,204.13 201.92,204.61C201.83,205.09 201.73,205.58 201.63,206.06C201.53,206.54 201.41,207.02 201.32,207.5C201.23,207.98 201.13,208.46 201.07,208.94C201.01,209.42 200.96,209.9 200.96,210.38C200.96,210.86 201,211.35 201.05,211.83C201.1,212.31 201.2,212.79 201.28,213.27C201.36,213.75 201.46,214.23 201.53,214.71C201.6,215.19 201.68,215.68 201.72,216.16C201.76,216.64 201.77,217.12 201.77,217.6C201.77,218.08 201.74,218.56 201.71,219.04C201.68,219.52 201.63,220 201.59,220.48C201.55,220.96 201.49,221.45 201.48,221.93C201.47,222.41 201.45,222.89 201.52,223.37C201.59,223.85 201.7,224.35 201.91,224.81C202.14,225.31 202.47,225.8 202.88,226.26C203.34,226.78 203.95,227.25 204.59,227.7C205.32,228.21 206.18,228.68 207.06,229.14C208.02,229.64 209.08,230.11 210.13,230.58C211.23,231.07 212.39,231.55 213.51,232.03C214.63,232.51 215.78,232.98 216.86,233.47C217.9,233.94 218.93,234.41 219.89,234.91C220.79,235.38 221.65,235.86 222.44,236.36C223.17,236.82 223.87,237.3 224.5,237.8C225.09,238.26 225.63,238.75 226.14,239.24C226.62,239.71 227.07,240.2 227.49,240.69C227.9,241.16 228.28,241.65 228.65,242.13C229.01,242.61 229.36,243.09 229.69,243.57C230.02,244.05 230.33,244.52 230.62,245.01C230.91,245.49 231.18,245.97 231.44,246.46C231.69,246.94 231.93,247.42 232.14,247.9C232.35,248.38 232.53,248.86 232.7,249.34C232.86,249.82 233,250.31 233.13,250.79C233.25,251.27 233.36,251.75 233.45,252.23C233.54,252.71 233.62,253.19 233.68,253.67C233.74,254.15 233.78,254.63 233.82,255.11Q233.86,255.59 233.91,256.56Z" style="vector-effect: non-scaling-stroke; stroke-width: 2px; stroke: rgb(99, 110, 250); stroke-opacity: 1; fill: rgb(99, 110, 250); fill-opacity: 0.5;"/><path class="violin" d="M390.05,275.86Q390.08,274.74 390.1,274.18C390.12,273.62 390.14,273.06 390.17,272.5C390.2,271.94 390.24,271.38 390.28,270.82C390.32,270.26 390.35,269.7 390.39,269.14C390.43,268.58 390.47,268.03 390.51,267.47C390.55,266.91 390.59,266.35 390.62,265.79C390.65,265.23 390.67,264.67 390.7,264.11C390.73,263.55 390.75,262.99 390.79,262.43C390.83,261.87 390.87,261.32 390.93,260.76C390.99,260.2 391.06,259.64 391.16,259.08C391.27,258.52 391.39,257.95 391.56,257.4C391.73,256.83 391.94,256.27 392.19,255.72C392.45,255.15 392.75,254.59 393.11,254.04C393.48,253.47 393.91,252.91 394.39,252.37C394.9,251.79 395.48,251.23 396.1,250.69C396.77,250.11 397.51,249.55 398.29,249.01C399.12,248.43 400.02,247.88 400.94,247.33C401.9,246.76 402.92,246.2 403.93,245.65C404.96,245.09 406.02,244.54 407.06,243.98C408.09,243.42 409.14,242.87 410.15,242.3C411.14,241.75 412.1,241.19 413.05,240.62C413.97,240.07 414.86,239.5 415.75,238.94C416.62,238.39 417.47,237.83 418.32,237.27C419.16,236.71 420,236.15 420.83,235.59C421.64,235.03 422.46,234.48 423.24,233.91C423.99,233.36 424.76,232.81 425.42,232.23C426.04,231.69 426.65,231.14 427.11,230.55C427.52,230.02 427.92,229.46 428.1,228.88C428.27,228.34 428.32,227.75 428.22,227.2C428.12,226.63 427.81,226.05 427.46,225.52C427.08,224.93 426.51,224.38 425.96,223.84C425.37,223.26 424.66,222.71 423.99,222.16C423.3,221.6 422.56,221.05 421.87,220.49C421.2,219.94 420.52,219.39 419.91,218.81C419.34,218.26 418.79,217.71 418.32,217.13C417.88,216.59 417.49,216.02 417.17,215.45C416.86,214.91 416.63,214.34 416.42,213.78C416.22,213.23 416.08,212.66 415.93,212.1C415.78,211.54 415.66,210.98 415.53,210.42C415.39,209.86 415.27,209.3 415.12,208.74C414.97,208.18 414.8,207.62 414.63,207.06C414.45,206.5 414.26,205.95 414.07,205.39C413.88,204.83 413.68,204.27 413.5,203.71C413.32,203.15 413.14,202.59 412.98,202.03C412.82,201.47 412.69,200.91 412.56,200.35C412.44,199.79 412.33,199.23 412.23,198.67C412.13,198.11 412.04,197.56 411.94,197C411.83,196.44 411.73,195.88 411.6,195.32C411.47,194.76 411.32,194.2 411.14,193.64C410.95,193.08 410.74,192.51 410.49,191.96C410.24,191.4 409.94,190.84 409.63,190.29C409.31,189.72 408.95,189.16 408.58,188.61C408.2,188.04 407.79,187.49 407.37,186.93C406.95,186.37 406.51,185.81 406.07,185.25C405.63,184.69 405.18,184.13 404.74,183.57C404.3,183.01 403.85,182.46 403.41,181.9C402.97,181.34 402.54,180.78 402.12,180.22C401.7,179.66 401.28,179.1 400.87,178.54C400.46,177.98 400.06,177.42 399.66,176.86C399.26,176.3 398.88,175.74 398.49,175.18C398.1,174.62 397.72,174.07 397.34,173.51C396.96,172.95 396.58,172.39 396.2,171.83C395.82,171.27 395.44,170.71 395.06,170.15C394.68,169.59 394.3,169.03 393.94,168.47C393.58,167.92 393.24,167.36 392.91,166.8C392.59,166.25 392.27,165.69 392,165.12C391.73,164.57 391.49,164.01 391.28,163.44C391.07,162.89 390.9,162.32 390.75,161.76C390.6,161.2 390.49,160.64 390.4,160.08Q390.31,159.52 390.2,158.41L389.8,158.41Q389.69,159.52 389.6,160.08C389.51,160.64 389.4,161.2 389.25,161.76C389.1,162.32 388.93,162.89 388.72,163.44C388.51,164.01 388.27,164.57 388,165.12C387.73,165.69 387.41,166.25 387.09,166.8C386.76,167.36 386.42,167.92 386.06,168.47C385.7,169.03 385.32,169.59 384.94,170.15C384.56,170.71 384.18,171.27 383.8,171.83C383.42,172.39 383.04,172.95 382.66,173.51C382.28,174.07 381.9,174.62 381.51,175.18C381.12,175.74 380.74,176.3 380.34,176.86C379.94,177.42 379.54,177.98 379.13,178.54C378.72,179.1 378.3,179.66 377.88,180.22C377.46,180.78 377.03,181.34 376.59,181.9C376.15,182.46 375.7,183.01 375.26,183.57C374.82,184.13 374.37,184.69 373.93,185.25C373.49,185.81 373.05,186.37 372.63,186.93C372.21,187.49 371.8,188.04 371.42,188.61C371.05,189.16 370.69,189.72 370.37,190.29C370.06,190.84 369.76,191.4 369.51,191.96C369.26,192.51 369.05,193.08 368.86,193.64C368.68,194.2 368.53,194.76 368.4,195.32C368.27,195.88 368.17,196.44 368.06,197C367.96,197.56 367.87,198.11 367.77,198.67C367.67,199.23 367.56,199.79 367.44,200.35C367.31,200.91 367.18,201.47 367.02,202.03C366.86,202.59 366.68,203.15 366.5,203.71C366.32,204.27 366.12,204.83 365.93,205.39C365.74,205.95 365.55,206.5 365.37,207.06C365.2,207.62 365.03,208.18 364.88,208.74C364.73,209.3 364.61,209.86 364.47,210.42C364.34,210.98 364.22,211.54 364.07,212.1C363.92,212.66 363.78,213.23 363.58,213.78C363.37,214.34 363.14,214.91 362.83,215.45C362.51,216.02 362.12,216.59 361.68,217.13C361.21,217.71 360.66,218.26 360.09,218.81C359.48,219.39 358.8,219.94 358.13,220.49C357.44,221.05 356.7,221.6 356.01,222.16C355.34,222.71 354.63,223.26 354.04,223.84C353.49,224.38 352.92,224.93 352.54,225.52C352.19,226.05 351.88,226.63 351.78,227.2C351.68,227.75 351.73,228.34 351.9,228.88C352.08,229.46 352.48,230.02 352.89,230.55C353.35,231.14 353.96,231.69 354.58,232.23C355.24,232.81 356.01,233.36 356.76,233.91C357.54,234.48 358.36,235.03 359.17,235.59C360,236.15 360.84,236.71 361.68,237.27C362.53,237.83 363.38,238.39 364.25,238.94C365.14,239.5 366.03,240.07 366.95,240.62C367.9,241.19 368.86,241.75 369.85,242.3C370.86,242.87 371.91,243.42 372.94,243.98C373.98,244.54 375.04,245.09 376.07,245.65C377.08,246.2 378.1,246.76 379.06,247.33C379.98,247.88 380.88,248.43 381.71,249.01C382.49,249.55 383.23,250.11 383.9,250.69C384.52,251.23 385.1,251.79 385.61,252.37C386.09,252.91 386.52,253.47 386.89,254.04C387.25,254.59 387.55,255.15 387.81,255.72C388.06,256.27 388.27,256.83 388.44,257.4C388.61,257.95 388.73,258.52 388.84,259.08C388.94,259.64 389.01,260.2 389.07,260.76C389.13,261.32 389.17,261.87 389.21,262.43C389.25,262.99 389.27,263.55 389.3,264.11C389.33,264.67 389.35,265.23 389.38,265.79C389.41,266.35 389.45,266.91 389.49,267.47C389.53,268.03 389.57,268.58 389.61,269.14C389.65,269.7 389.68,270.26 389.72,270.82C389.76,271.38 389.8,271.94 389.83,272.5C389.86,273.06 389.88,273.62 389.9,274.18Q389.92,274.74 389.95,275.86Z" style="vector-effect: non-scaling-stroke; stroke-width: 2px; stroke: rgb(99, 110, 250); stroke-opacity: 1; fill: rgb(99, 110, 250); fill-opacity: 0.5;"/><path class="box" d="M68.45,206.85H87.56M68.45,223.78H87.56V189.2H68.45ZM78,223.78V250.6M78,189.2V169.53" style="vector-effect: non-scaling-stroke; stroke-width: 2px; stroke: rgb(99, 110, 250); stroke-opacity: 1; fill: rgb(99, 110, 250); fill-opacity: 0.5;"/><path class="box" d="M224.45,206.43H243.56M224.45,220.8H243.56V192.18H224.45ZM234,220.8V247.86M234,192.18V168.58" style="vector-effect: non-scaling-stroke; stroke-width: 2px; stroke: rgb(99, 110, 250); stroke-opacity: 1; fill: rgb(99, 110, 250); fill-opacity: 0.5;"/><path class="box" d="M380.45,217.82H399.55M380.45,229.74H399.55V199.87H380.45ZM390,229.74V265.68M390,199.87V168.58" style="vector-effect: non-scaling-stroke; stroke-width: 2px; stroke: rgb(99, 110, 250); stroke-opacity: 1; fill: rgb(99, 110, 250); fill-opacity: 0.5;"/><path class="mean" d="M68.45,206.43H87.56" style="fill: none; vector-effect: non-scaling-stroke; stroke-width: 2px; stroke-dasharray: 4px, 2px; stroke: rgb(99, 110, 250); stroke-opacity: 1;"/><path class="mean" d="M224.45,205.97H243.56" style="fill: none; vector-effect: non-scaling-stroke; stroke-width: 2px; stroke-dasharray: 4px, 2px; stroke: rgb(99, 110, 250); stroke-opacity: 1;"/><path class="mean" d="M380.45,215.09H399.55" style="fill: none; vector-effect: non-scaling-stroke; stroke-width: 2px; stroke-dasharray: 4px, 2px; stroke: rgb(99, 110, 250); stroke-opacity: 1;"/></g></g></g><g class="overplot"/><path class="xlines-above crisp" d="M0,0" style="fill: none;"/><path class="ylines-above crisp" d="M0,0" style="fill: none;"/><g class="overlines-above"/><g class="xaxislayer-above"><g class="xtick"><text text-anchor="middle" x="0" y="419.00000000000006" transform="translate(158,0)" style="font-family: 'Open Sans', verdana, arial, sans-serif; font-size: 12px; fill: rgb(42, 63, 95); fill-opacity: 1; white-space: pre; opacity: 1;">&#60;=1</text></g><g class="xtick"><text text-anchor="middle" x="0" y="419.00000000000006" transform="translate(314,0)" style="font-family: 'Open Sans', verdana, arial, sans-serif; font-size: 12px; fill: rgb(42, 63, 95); fill-opacity: 1; white-space: pre; opacity: 1;">(1, 2]</text></g><g class="xtick"><text text-anchor="middle" x="0" y="419.00000000000006" transform="translate(470,0)" style="font-family: 'Open Sans', verdana, arial, sans-serif; font-size: 12px; fill: rgb(42, 63, 95); fill-opacity: 1; white-space: pre; opacity: 1;">>2</text></g></g><g class="yaxislayer-above"><g class="ytick"><text text-anchor="end" x="79" y="4.199999999999999" transform="translate(0,371.41)" style="font-family: 'Open Sans', verdana, arial, sans-serif; font-size: 12px; fill: rgb(42, 63, 95); fill-opacity: 1; white-space: pre; opacity: 1;">0</text></g><g class="ytick"><text text-anchor="end" x="79" y="4.199999999999999" style="font-family: 'Open Sans', verdana, arial, sans-serif; font-size: 12px; fill: rgb(42, 63, 95); fill-opacity: 1; white-space: pre; opacity: 1;" transform="translate(0,311.8)">10</text></g><g class="ytick"><text text-anchor="end" x="79" y="4.199999999999999" style="font-family: 'Open Sans', verdana, arial, sans-serif; font-size: 12px; fill: rgb(42, 63, 95); fill-opacity: 1; white-space: pre; opacity: 1;" transform="translate(0,252.19)">20</text></g><g class="ytick"><text text-anchor="end" x="79" y="4.199999999999999" style="font-family: 'Open Sans', verdana, arial, sans-serif; font-size: 12px; fill: rgb(42, 63, 95); fill-opacity: 1; white-space: pre; opacity: 1;" transform="translate(0,192.57999999999998)">30</text></g><g class="ytick"><text text-anchor="end" x="79" y="4.199999999999999" style="font-family: 'Open Sans', verdana, arial, sans-serif; font-size: 12px; fill: rgb(42, 63, 95); fill-opacity: 1; white-space: pre; opacity: 1;" transform="translate(0,132.97)">40</text></g></g><g class="overaxes-above"/></g><g class="subplot x2y2"><g class="layer-subplot"><g class="shapelayer"/><g class="imagelayer"/></g><g class="minor-gridlayer"><g class="x2"/><g class="y2"/></g><g class="gridlayer"><g class="x2"/><g class="y2"><path class="y2grid crisp" transform="translate(0,311.8)" d="M652,0h467.99999999999994" style="stroke: rgb(255, 255, 255); stroke-opacity: 1; stroke-width: 1px;"/><path class="y2grid crisp" transform="translate(0,252.19)" d="M652,0h467.99999999999994" style="stroke: rgb(255, 255, 255); stroke-opacity: 1; stroke-width: 1px;"/><path class="y2grid crisp" transform="translate(0,192.57999999999998)" d="M652,0h467.99999999999994" style="stroke: rgb(255, 255, 255); stroke-opacity: 1; stroke-width: 1px;"/><path class="y2grid crisp" transform="translate(0,132.97)" d="M652,0h467.99999999999994" style="stroke: rgb(255, 255, 255); stroke-opacity: 1; stroke-width: 1px;"/></g></g><g class="zerolinelayer"><path class="y2zl zl crisp" transform="translate(0,371.41)" d="M652,0h467.99999999999994" style="stroke: rgb(255, 255, 255); stroke-opacity: 1; stroke-width: 2px;"/></g><path class="xlines-below"/><path class="ylines-below"/><g class="overlines-below"/><g class="xaxislayer-below"/><g class="yaxislayer-below"/><g class="overaxes-below"/><g class="plot" transform="translate(652,100)" clip-path="url(#clip347531x2y2plot)"><g class="violinlayer mlayer"><g class="trace violins" style="opacity: 1;"><path class="violin" d="M78.35,284.58Q78.54,282.47 78.68,281.41C78.82,280.35 79,279.29 79.21,278.23C79.43,277.17 79.68,276.1 79.97,275.05C80.26,273.98 80.61,272.93 80.97,271.87C81.33,270.81 81.73,269.75 82.15,268.69C82.57,267.63 83.02,266.57 83.48,265.51C83.94,264.45 84.42,263.4 84.91,262.34C85.4,261.28 85.89,260.21 86.42,259.16C86.95,258.09 87.5,257.03 88.1,255.98C88.71,254.91 89.35,253.84 90.07,252.8C90.82,251.72 91.62,250.65 92.53,249.62C93.49,248.53 94.55,247.47 95.69,246.44C96.9,245.35 98.23,244.3 99.59,243.26C101,242.18 102.54,241.15 104.01,240.09C105.49,239.03 107.05,238 108.44,236.91C109.76,235.88 111.13,234.85 112.19,233.73C113.15,232.72 114.07,231.67 114.62,230.55C115.12,229.54 115.42,228.43 115.46,227.37C115.5,226.31 115.21,225.23 114.87,224.19C114.52,223.11 113.9,222.06 113.34,221.02C112.76,219.95 112.06,218.9 111.43,217.84C110.8,216.78 110.17,215.73 109.58,214.66C109,213.61 108.46,212.55 107.94,211.48C107.43,210.43 106.96,209.36 106.49,208.3C106.02,207.24 105.58,206.18 105.13,205.12C104.68,204.06 104.22,203.01 103.77,201.95C103.31,200.89 102.86,199.83 102.4,198.77C101.94,197.71 101.48,196.65 101.01,195.59C100.54,194.53 100.08,193.47 99.59,192.41C99.1,191.35 98.61,190.29 98.09,189.23C97.56,188.17 97.02,187.1 96.45,186.05C95.87,184.98 95.26,183.92 94.63,182.87C93.99,181.81 93.32,180.76 92.65,179.7C91.98,178.64 91.28,177.58 90.62,176.52C89.96,175.46 89.3,174.41 88.7,173.34C88.11,172.29 87.53,171.23 87.03,170.16C86.54,169.11 86.09,168.05 85.7,166.98C85.31,165.93 84.99,164.86 84.69,163.8C84.39,162.75 84.15,161.69 83.91,160.63C83.67,159.57 83.45,158.51 83.23,157.45C83.01,156.39 82.8,155.33 82.59,154.27C82.38,153.21 82.17,152.15 81.96,151.09C81.75,150.03 81.53,148.97 81.32,147.91C81.11,146.85 80.91,145.79 80.72,144.73C80.53,143.67 80.34,142.62 80.16,141.56C79.98,140.5 79.81,139.44 79.65,138.38C79.49,137.32 79.35,136.26 79.22,135.2C79.09,134.14 78.97,133.08 78.86,132.02C78.75,130.96 78.66,129.9 78.57,128.84C78.49,127.78 78.41,126.72 78.35,125.66C78.29,124.6 78.25,123.54 78.21,122.48C78.17,121.42 78.14,120.37 78.12,119.31C78.1,118.25 78.08,117.19 78.08,116.13C78.08,115.07 78.08,114.01 78.09,112.95C78.1,111.89 78.11,110.83 78.13,109.77C78.15,108.71 78.17,107.65 78.2,106.59C78.23,105.53 78.26,104.47 78.29,103.41C78.32,102.35 78.35,101.3 78.38,100.24C78.41,99.18 78.44,98.12 78.45,97.06C78.46,96 78.47,94.94 78.47,93.88C78.47,92.82 78.46,91.76 78.45,90.7C78.44,89.64 78.41,88.58 78.38,87.52C78.35,86.46 78.32,85.4 78.29,84.34C78.26,83.28 78.22,82.23 78.19,81.17C78.16,80.11 78.14,79.05 78.12,77.99Q78.1,76.93 78.06,74.81L77.94,74.81Q77.9,76.93 77.88,77.99C77.86,79.05 77.84,80.11 77.81,81.17C77.78,82.23 77.74,83.28 77.71,84.34C77.68,85.4 77.65,86.46 77.62,87.52C77.59,88.58 77.56,89.64 77.55,90.7C77.54,91.76 77.53,92.82 77.53,93.88C77.53,94.94 77.54,96 77.55,97.06C77.56,98.12 77.59,99.18 77.62,100.24C77.65,101.3 77.68,102.35 77.71,103.41C77.74,104.47 77.77,105.53 77.8,106.59C77.83,107.65 77.85,108.71 77.87,109.77C77.89,110.83 77.9,111.89 77.91,112.95C77.92,114.01 77.92,115.07 77.92,116.13C77.92,117.19 77.9,118.25 77.88,119.31C77.86,120.37 77.83,121.42 77.79,122.48C77.75,123.54 77.71,124.6 77.65,125.66C77.59,126.72 77.51,127.78 77.43,128.84C77.34,129.9 77.25,130.96 77.14,132.02C77.03,133.08 76.91,134.14 76.78,135.2C76.65,136.26 76.51,137.32 76.35,138.38C76.19,139.44 76.02,140.5 75.84,141.56C75.66,142.62 75.47,143.67 75.28,144.73C75.09,145.79 74.89,146.85 74.68,147.91C74.47,148.97 74.25,150.03 74.04,151.09C73.83,152.15 73.62,153.21 73.41,154.27C73.2,155.33 72.99,156.39 72.77,157.45C72.55,158.51 72.33,159.57 72.09,160.63C71.85,161.69 71.61,162.75 71.31,163.8C71.01,164.86 70.69,165.93 70.3,166.98C69.91,168.05 69.46,169.11 68.97,170.16C68.47,171.23 67.89,172.29 67.3,173.34C66.7,174.41 66.04,175.46 65.38,176.52C64.72,177.58 64.02,178.64 63.35,179.7C62.68,180.76 62.01,181.81 61.37,182.87C60.74,183.92 60.13,184.98 59.55,186.05C58.98,187.1 58.44,188.17 57.91,189.23C57.39,190.29 56.9,191.35 56.41,192.41C55.92,193.47 55.46,194.53 54.99,195.59C54.52,196.65 54.06,197.71 53.6,198.77C53.14,199.83 52.69,200.89 52.23,201.95C51.78,203.01 51.32,204.06 50.87,205.12C50.42,206.18 49.98,207.24 49.51,208.3C49.04,209.36 48.57,210.43 48.06,211.48C47.54,212.55 47,213.61 46.42,214.66C45.83,215.73 45.2,216.78 44.57,217.84C43.94,218.9 43.24,219.95 42.66,221.02C42.1,222.06 41.48,223.11 41.13,224.19C40.79,225.23 40.5,226.31 40.54,227.37C40.58,228.43 40.88,229.54 41.38,230.55C41.93,231.67 42.85,232.72 43.81,233.73C44.87,234.85 46.24,235.88 47.56,236.91C48.95,238 50.51,239.03 51.99,240.09C53.46,241.15 55,242.18 56.41,243.26C57.77,244.3 59.1,245.35 60.31,246.44C61.45,247.47 62.51,248.53 63.47,249.62C64.38,250.65 65.18,251.72 65.93,252.8C66.65,253.84 67.29,254.91 67.9,255.98C68.5,257.03 69.05,258.09 69.58,259.16C70.11,260.21 70.6,261.28 71.09,262.34C71.58,263.4 72.06,264.45 72.52,265.51C72.98,266.57 73.43,267.63 73.85,268.69C74.27,269.75 74.67,270.81 75.03,271.87C75.39,272.93 75.74,273.98 76.03,275.05C76.32,276.1 76.57,277.17 76.79,278.23C77,279.29 77.18,280.35 77.32,281.41Q77.46,282.47 77.65,284.58Z" style="vector-effect: non-scaling-stroke; stroke-width: 2px; stroke: rgb(239, 85, 59); stroke-opacity: 1; fill: rgb(239, 85, 59); fill-opacity: 0.5;"/><path class="violin" d="M234.07,254.68Q234.11,252.81 234.15,251.87C234.19,250.94 234.23,250 234.29,249.07C234.35,248.14 234.43,247.2 234.52,246.27C234.61,245.33 234.72,244.39 234.85,243.46C234.98,242.52 235.13,241.59 235.31,240.66C235.49,239.72 235.69,238.79 235.92,237.86C236.15,236.92 236.4,235.98 236.68,235.05C236.96,234.11 237.27,233.18 237.61,232.25C237.96,231.31 238.34,230.37 238.75,229.44C239.17,228.5 239.62,227.56 240.11,226.64C240.61,225.7 241.15,224.76 241.72,223.84C242.31,222.89 242.94,221.96 243.59,221.03C244.25,220.09 244.95,219.16 245.65,218.23C246.36,217.29 247.09,216.37 247.81,215.43C248.52,214.5 249.25,213.56 249.94,212.62C250.61,211.69 251.28,210.76 251.89,209.82C252.48,208.9 253.05,207.97 253.54,207.02C254.02,206.1 254.46,205.16 254.82,204.21C255.18,203.29 255.47,202.35 255.71,201.41C255.95,200.48 256.12,199.54 256.27,198.6C256.41,197.67 256.49,196.73 256.58,195.8C256.66,194.87 256.71,193.93 256.78,193C256.85,192.06 256.9,191.13 256.99,190.19C257.07,189.26 257.17,188.32 257.29,187.39C257.41,186.46 257.55,185.52 257.71,184.59C257.87,183.65 258.06,182.72 258.24,181.78C258.42,180.85 258.63,179.91 258.81,178.98C258.99,178.05 259.17,177.12 259.32,176.18C259.47,175.25 259.6,174.31 259.69,173.37C259.78,172.44 259.83,171.5 259.84,170.57C259.85,169.64 259.81,168.7 259.73,167.77C259.65,166.83 259.52,165.89 259.35,164.96C259.18,164.02 258.96,163.09 258.71,162.16C258.46,161.22 258.17,160.28 257.86,159.35C257.54,158.41 257.19,157.48 256.82,156.55C256.45,155.61 256.05,154.68 255.64,153.75C255.23,152.81 254.8,151.87 254.37,150.94C253.94,150 253.49,149.07 253.06,148.14C252.63,147.21 252.19,146.28 251.78,145.34C251.37,144.41 250.96,143.47 250.58,142.53C250.2,141.6 249.84,140.67 249.49,139.73C249.14,138.8 248.81,137.87 248.5,136.93C248.19,136 247.9,135.06 247.63,134.12C247.36,133.19 247.12,132.26 246.88,131.32C246.65,130.39 246.43,129.45 246.22,128.51C246.01,127.58 245.82,126.64 245.62,125.71C245.42,124.78 245.22,123.84 245.01,122.91C244.79,121.97 244.57,121.03 244.33,120.1C244.09,119.16 243.84,118.23 243.59,117.3C243.34,116.37 243.07,115.43 242.81,114.5C242.55,113.56 242.29,112.63 242.05,111.69C241.81,110.76 241.57,109.83 241.36,108.89C241.15,107.96 240.96,107.03 240.78,106.09C240.6,105.16 240.44,104.22 240.29,103.28C240.14,102.35 240,101.41 239.86,100.48C239.72,99.54 239.58,98.61 239.43,97.67C239.28,96.74 239.12,95.8 238.95,94.87C238.78,93.94 238.58,93 238.39,92.07C238.19,91.13 237.98,90.2 237.78,89.26C237.58,88.33 237.36,87.39 237.17,86.46C236.98,85.53 236.8,84.6 236.64,83.66C236.48,82.73 236.34,81.79 236.22,80.85C236.11,79.92 236.02,78.98 235.95,78.05C235.88,77.12 235.84,76.18 235.81,75.25C235.78,74.31 235.77,73.38 235.76,72.44C235.75,71.51 235.75,70.57 235.75,69.64C235.74,68.71 235.74,67.77 235.73,66.84C235.72,65.9 235.71,64.97 235.68,64.03C235.66,63.1 235.62,62.16 235.58,61.23C235.54,60.29 235.49,59.36 235.44,58.42C235.39,57.49 235.32,56.55 235.26,55.62C235.2,54.69 235.13,53.75 235.07,52.82C235.01,51.88 234.94,50.95 234.88,50.01C234.82,49.08 234.76,48.14 234.71,47.21C234.66,46.28 234.61,45.34 234.57,44.41C234.53,43.47 234.49,42.54 234.45,41.6C234.41,40.67 234.38,39.73 234.35,38.8C234.32,37.87 234.29,36.93 234.26,36C234.23,35.06 234.21,34.13 234.19,33.19C234.17,32.26 234.15,31.32 234.13,30.39C234.11,29.45 234.09,28.52 234.08,27.58C234.07,26.65 234.06,25.71 234.05,24.78Q234.04,23.85 234.02,21.98L233.98,21.98Q233.96,23.85 233.95,24.78C233.94,25.71 233.93,26.65 233.92,27.58C233.91,28.52 233.89,29.45 233.87,30.39C233.85,31.32 233.83,32.26 233.81,33.19C233.79,34.13 233.77,35.06 233.74,36C233.71,36.93 233.68,37.87 233.65,38.8C233.62,39.73 233.59,40.67 233.55,41.6C233.51,42.54 233.47,43.47 233.43,44.41C233.39,45.34 233.34,46.28 233.29,47.21C233.24,48.14 233.18,49.08 233.12,50.01C233.06,50.95 232.99,51.88 232.93,52.82C232.87,53.75 232.8,54.69 232.74,55.62C232.68,56.55 232.61,57.49 232.56,58.42C232.51,59.36 232.46,60.29 232.42,61.23C232.38,62.16 232.34,63.1 232.32,64.03C232.29,64.97 232.28,65.9 232.27,66.84C232.26,67.77 232.26,68.71 232.25,69.64C232.25,70.57 232.25,71.51 232.24,72.44C232.23,73.38 232.22,74.31 232.19,75.25C232.16,76.18 232.12,77.12 232.05,78.05C231.98,78.98 231.89,79.92 231.78,80.85C231.66,81.79 231.52,82.73 231.36,83.66C231.2,84.6 231.02,85.53 230.83,86.46C230.64,87.39 230.42,88.33 230.22,89.26C230.02,90.2 229.81,91.13 229.61,92.07C229.42,93 229.22,93.94 229.05,94.87C228.88,95.8 228.72,96.74 228.57,97.67C228.42,98.61 228.28,99.54 228.14,100.48C228,101.41 227.86,102.35 227.71,103.28C227.56,104.22 227.4,105.16 227.22,106.09C227.04,107.03 226.85,107.96 226.64,108.89C226.43,109.83 226.19,110.76 225.95,111.69C225.71,112.63 225.45,113.56 225.19,114.5C224.93,115.43 224.66,116.37 224.41,117.3C224.16,118.23 223.91,119.16 223.67,120.1C223.43,121.03 223.21,121.97 222.99,122.91C222.78,123.84 222.58,124.78 222.38,125.71C222.18,126.64 221.99,127.58 221.78,128.51C221.57,129.45 221.35,130.39 221.12,131.32C220.88,132.26 220.64,133.19 220.37,134.12C220.1,135.06 219.81,136 219.5,136.93C219.19,137.87 218.86,138.8 218.51,139.73C218.16,140.67 217.8,141.6 217.42,142.53C217.04,143.47 216.63,144.41 216.22,145.34C215.81,146.28 215.37,147.21 214.94,148.14C214.51,149.07 214.06,150 213.63,150.94C213.2,151.87 212.77,152.81 212.36,153.75C211.95,154.68 211.55,155.61 211.18,156.55C210.81,157.48 210.46,158.41 210.14,159.35C209.83,160.28 209.54,161.22 209.29,162.16C209.04,163.09 208.82,164.02 208.65,164.96C208.48,165.89 208.35,166.83 208.27,167.77C208.19,168.7 208.15,169.64 208.16,170.57C208.17,171.5 208.22,172.44 208.31,173.37C208.4,174.31 208.53,175.25 208.68,176.18C208.83,177.12 209.01,178.05 209.19,178.98C209.37,179.91 209.58,180.85 209.76,181.78C209.94,182.72 210.13,183.65 210.29,184.59C210.45,185.52 210.59,186.46 210.71,187.39C210.83,188.32 210.93,189.26 211.01,190.19C211.1,191.13 211.15,192.06 211.22,193C211.29,193.93 211.34,194.87 211.42,195.8C211.51,196.73 211.59,197.67 211.73,198.6C211.88,199.54 212.05,200.48 212.29,201.41C212.53,202.35 212.82,203.29 213.18,204.21C213.54,205.16 213.98,206.1 214.46,207.02C214.95,207.97 215.52,208.9 216.11,209.82C216.72,210.76 217.39,211.69 218.06,212.62C218.75,213.56 219.48,214.5 220.19,215.43C220.91,216.37 221.64,217.29 222.35,218.23C223.05,219.16 223.75,220.09 224.41,221.03C225.06,221.96 225.69,222.89 226.28,223.84C226.85,224.76 227.39,225.7 227.89,226.64C228.38,227.56 228.83,228.5 229.25,229.44C229.66,230.37 230.04,231.31 230.39,232.25C230.73,233.18 231.04,234.11 231.32,235.05C231.6,235.98 231.85,236.92 232.08,237.86C232.31,238.79 232.51,239.72 232.69,240.66C232.87,241.59 233.02,242.52 233.15,243.46C233.28,244.39 233.39,245.33 233.48,246.27C233.57,247.2 233.65,248.14 233.71,249.07C233.77,250 233.81,250.94 233.85,251.87Q233.89,252.81 233.93,254.68Z" style="vector-effect: non-scaling-stroke; stroke-width: 2px; stroke: rgb(239, 85, 59); stroke-opacity: 1; fill: rgb(239, 85, 59); fill-opacity: 0.5;"/><path class="violin" d="M390.03,249.97Q390.05,247.36 390.06,246.06C390.08,244.76 390.09,243.45 390.12,242.15C390.15,240.85 390.18,239.54 390.23,238.24C390.28,236.93 390.34,235.63 390.42,234.32C390.5,233.02 390.59,231.71 390.71,230.41C390.83,229.11 390.97,227.8 391.14,226.5C391.31,225.19 391.51,223.89 391.75,222.59C391.99,221.28 392.25,219.98 392.56,218.68C392.87,217.37 393.21,216.07 393.6,214.77C393.99,213.46 394.43,212.16 394.91,210.86C395.4,209.55 395.92,208.24 396.5,206.95C397.09,205.64 397.73,204.33 398.41,203.04C399.1,201.72 399.85,200.42 400.61,199.12C401.38,197.81 402.2,196.51 403.01,195.21C403.82,193.9 404.67,192.61 405.47,191.3C406.26,190 407.08,188.71 407.79,187.39C408.49,186.1 409.16,184.8 409.71,183.48C410.24,182.19 410.72,180.89 411.04,179.57C411.35,178.28 411.56,176.97 411.63,175.66C411.7,174.36 411.63,173.05 411.48,171.75C411.33,170.44 411.03,169.13 410.71,167.83C410.39,166.52 409.95,165.22 409.54,163.92C409.13,162.61 408.66,161.32 408.23,160.01C407.81,158.71 407.36,157.41 406.99,156.1C406.62,154.8 406.28,153.5 406,152.19C405.72,150.89 405.49,149.59 405.32,148.28C405.15,146.98 405.04,145.67 404.96,144.37C404.88,143.07 404.85,141.76 404.82,140.46C404.79,139.16 404.81,137.85 404.8,136.55C404.79,135.24 404.8,133.94 404.78,132.63C404.76,131.33 404.74,130.02 404.69,128.72C404.64,127.42 404.57,126.11 404.5,124.81C404.43,123.51 404.34,122.2 404.27,120.9C404.2,119.6 404.13,118.29 404.09,116.99C404.05,115.69 404.02,114.38 404.03,113.08C404.04,111.78 404.07,110.47 404.13,109.17C404.19,107.87 404.29,106.56 404.37,105.26C404.45,103.96 404.56,102.65 404.61,101.35C404.66,100.04 404.71,98.74 404.67,97.43C404.63,96.13 404.54,94.82 404.39,93.52C404.24,92.21 404.01,90.91 403.75,89.61C403.49,88.3 403.14,87 402.81,85.7C402.47,84.39 402.09,83.09 401.74,81.79C401.39,80.49 401.03,79.19 400.71,77.88C400.39,76.58 400.11,75.28 399.84,73.97C399.58,72.67 399.34,71.37 399.12,70.06C398.9,68.76 398.7,67.45 398.5,66.14C398.3,64.84 398.1,63.53 397.9,62.23C397.69,60.93 397.49,59.62 397.27,58.32C397.05,57.02 396.81,55.71 396.57,54.41C396.33,53.11 396.08,51.8 395.82,50.5C395.56,49.2 395.29,47.89 395.01,46.59C394.73,45.29 394.44,43.98 394.16,42.68C393.88,41.38 393.59,40.07 393.31,38.77C393.03,37.47 392.75,36.17 392.49,34.86C392.23,33.56 391.98,32.25 391.76,30.94C391.54,29.64 391.33,28.34 391.15,27.03C390.97,25.73 390.82,24.42 390.69,23.12C390.56,21.82 390.46,20.51 390.38,19.21Q390.3,17.91 390.19,15.3L389.81,15.3Q389.7,17.91 389.62,19.21C389.54,20.51 389.44,21.82 389.31,23.12C389.18,24.42 389.03,25.73 388.85,27.03C388.67,28.34 388.46,29.64 388.24,30.94C388.02,32.25 387.77,33.56 387.51,34.86C387.25,36.17 386.97,37.47 386.69,38.77C386.41,40.07 386.12,41.38 385.84,42.68C385.56,43.98 385.27,45.29 384.99,46.59C384.71,47.89 384.44,49.2 384.18,50.5C383.92,51.8 383.67,53.11 383.43,54.41C383.19,55.71 382.95,57.02 382.73,58.32C382.51,59.62 382.31,60.93 382.1,62.23C381.9,63.53 381.7,64.84 381.5,66.14C381.3,67.45 381.1,68.76 380.88,70.06C380.66,71.37 380.42,72.67 380.16,73.97C379.89,75.28 379.61,76.58 379.29,77.88C378.97,79.19 378.61,80.49 378.26,81.79C377.91,83.09 377.53,84.39 377.19,85.7C376.86,87 376.51,88.3 376.25,89.61C375.99,90.91 375.76,92.21 375.61,93.52C375.46,94.82 375.37,96.13 375.33,97.43C375.29,98.74 375.34,100.04 375.39,101.35C375.44,102.65 375.55,103.96 375.63,105.26C375.71,106.56 375.81,107.87 375.87,109.17C375.93,110.47 375.96,111.78 375.97,113.08C375.98,114.38 375.95,115.69 375.91,116.99C375.87,118.29 375.8,119.6 375.73,120.9C375.66,122.2 375.57,123.51 375.5,124.81C375.43,126.11 375.36,127.42 375.31,128.72C375.26,130.02 375.24,131.33 375.22,132.63C375.2,133.94 375.21,135.24 375.2,136.55C375.19,137.85 375.21,139.16 375.18,140.46C375.15,141.76 375.12,143.07 375.04,144.37C374.96,145.67 374.85,146.98 374.68,148.28C374.51,149.59 374.28,150.89 374,152.19C373.72,153.5 373.38,154.8 373.01,156.1C372.64,157.41 372.19,158.71 371.77,160.01C371.34,161.32 370.87,162.61 370.46,163.92C370.05,165.22 369.61,166.52 369.29,167.83C368.97,169.13 368.67,170.44 368.52,171.75C368.37,173.05 368.3,174.36 368.37,175.66C368.44,176.97 368.65,178.28 368.96,179.57C369.28,180.89 369.76,182.19 370.29,183.48C370.84,184.8 371.51,186.1 372.21,187.39C372.92,188.71 373.74,190 374.53,191.3C375.33,192.61 376.18,193.9 376.99,195.21C377.8,196.51 378.62,197.81 379.39,199.12C380.15,200.42 380.9,201.72 381.59,203.04C382.27,204.33 382.91,205.64 383.5,206.95C384.08,208.24 384.6,209.55 385.09,210.86C385.57,212.16 386.01,213.46 386.4,214.77C386.79,216.07 387.13,217.37 387.44,218.68C387.75,219.98 388.01,221.28 388.25,222.59C388.49,223.89 388.69,225.19 388.86,226.5C389.03,227.8 389.17,229.11 389.29,230.41C389.41,231.71 389.5,233.02 389.58,234.32C389.66,235.63 389.72,236.93 389.77,238.24C389.82,239.54 389.85,240.85 389.88,242.15C389.91,243.45 389.92,244.76 389.94,246.06Q389.95,247.36 389.97,249.97Z" style="vector-effect: non-scaling-stroke; stroke-width: 2px; stroke: rgb(239, 85, 59); stroke-opacity: 1; fill: rgb(239, 85, 59); fill-opacity: 0.5;"/><path class="box" d="M68.44,217.79H87.55M68.44,231.77H87.55V196.36H68.44ZM78,231.77V265.5M78,196.36V145.93" style="vector-effect: non-scaling-stroke; stroke-width: 2px; stroke: rgb(239, 85, 59); stroke-opacity: 1; fill: rgb(239, 85, 59); fill-opacity: 0.5;"/><path class="box" d="M224.44,169.95H243.55M224.44,194.12H243.55V143.45H224.44ZM234,194.12V237.73M234,143.45V67.6" style="vector-effect: non-scaling-stroke; stroke-width: 2px; stroke: rgb(239, 85, 59); stroke-opacity: 1; fill: rgb(239, 85, 59); fill-opacity: 0.5;"/><path class="box" d="M380.44,138.24H399.55M380.44,175.08H399.55V97.69H380.44ZM390,175.08V226.34M390,97.69V38.93" style="vector-effect: non-scaling-stroke; stroke-width: 2px; stroke: rgb(239, 85, 59); stroke-opacity: 1; fill: rgb(239, 85, 59); fill-opacity: 0.5;"/><path class="mean" d="M68.44,213.48H87.55" style="fill: none; vector-effect: non-scaling-stroke; stroke-width: 2px; stroke-dasharray: 4px, 2px; stroke: rgb(239, 85, 59); stroke-opacity: 1;"/><path class="mean" d="M224.44,165.65H243.55" style="fill: none; vector-effect: non-scaling-stroke; stroke-width: 2px; stroke-dasharray: 4px, 2px; stroke: rgb(239, 85, 59); stroke-opacity: 1;"/><path class="mean" d="M380.44,135.3H399.55" style="fill: none; vector-effect: non-scaling-stroke; stroke-width: 2px; stroke-dasharray: 4px, 2px; stroke: rgb(239, 85, 59); stroke-opacity: 1;"/></g></g></g><g class="overplot"/><path class="xlines-above crisp" d="M0,0" style="fill: none;"/><path class="ylines-above crisp" d="M0,0" style="fill: none;"/><g class="overlines-above"/><g class="xaxislayer-above"><g class="x2tick"><text text-anchor="middle" x="0" y="419.00000000000006" transform="translate(730,0)" style="font-family: 'Open Sans', verdana, arial, sans-serif; font-size: 12px; fill: rgb(42, 63, 95); fill-opacity: 1; white-space: pre; opacity: 1;">&#60;=1</text></g><g class="x2tick"><text text-anchor="middle" x="0" y="419.00000000000006" transform="translate(886,0)" style="font-family: 'Open Sans', verdana, arial, sans-serif; font-size: 12px; fill: rgb(42, 63, 95); fill-opacity: 1; white-space: pre; opacity: 1;">(1, 2]</text></g><g class="x2tick"><text text-anchor="middle" x="0" y="419.00000000000006" transform="translate(1042,0)" style="font-family: 'Open Sans', verdana, arial, sans-serif; font-size: 12px; fill: rgb(42, 63, 95); fill-opacity: 1; white-space: pre; opacity: 1;">>2</text></g></g><g class="yaxislayer-above"><g class="y2tick"><text text-anchor="end" x="651" y="4.199999999999999" transform="translate(0,371.41)" style="font-family: 'Open Sans', verdana, arial, sans-serif; font-size: 12px; fill: rgb(42, 63, 95); fill-opacity: 1; white-space: pre; opacity: 1;">0</text></g><g class="y2tick"><text text-anchor="end" x="651" y="4.199999999999999" style="font-family: 'Open Sans', verdana, arial, sans-serif; font-size: 12px; fill: rgb(42, 63, 95); fill-opacity: 1; white-space: pre; opacity: 1;" transform="translate(0,311.8)">10</text></g><g class="y2tick"><text text-anchor="end" x="651" y="4.199999999999999" style="font-family: 'Open Sans', verdana, arial, sans-serif; font-size: 12px; fill: rgb(42, 63, 95); fill-opacity: 1; white-space: pre; opacity: 1;" transform="translate(0,252.19)">20</text></g><g class="y2tick"><text text-anchor="end" x="651" y="4.199999999999999" style="font-family: 'Open Sans', verdana, arial, sans-serif; font-size: 12px; fill: rgb(42, 63, 95); fill-opacity: 1; white-space: pre; opacity: 1;" transform="translate(0,192.57999999999998)">30</text></g><g class="y2tick"><text text-anchor="end" x="651" y="4.199999999999999" style="font-family: 'Open Sans', verdana, arial, sans-serif; font-size: 12px; fill: rgb(42, 63, 95); fill-opacity: 1; white-space: pre; opacity: 1;" transform="translate(0,132.97)">40</text></g></g><g class="overaxes-above"/></g><g class="subplot x3y3"><g class="layer-subplot"><g class="shapelayer"/><g class="imagelayer"/></g><g class="minor-gridlayer"><g class="x3"/><g class="y3"/></g><g class="gridlayer"><g class="x3"/><g class="y3"><path class="y3grid crisp" transform="translate(0,725.8)" d="M80,0h468" style="stroke: rgb(255, 255, 255); stroke-opacity: 1; stroke-width: 1px;"/><path class="y3grid crisp" transform="translate(0,666.19)" d="M80,0h468" style="stroke: rgb(255, 255, 255); stroke-opacity: 1; stroke-width: 1px;"/><path class="y3grid crisp" transform="translate(0,606.58)" d="M80,0h468" style="stroke: rgb(255, 255, 255); stroke-opacity: 1; stroke-width: 1px;"/><path class="y3grid crisp" transform="translate(0,546.97)" d="M80,0h468" style="stroke: rgb(255, 255, 255); stroke-opacity: 1; stroke-width: 1px;"/></g></g><g class="zerolinelayer"><path class="y3zl zl crisp" transform="translate(0,785.4100000000001)" d="M80,0h468" style="stroke: rgb(255, 255, 255); stroke-opacity: 1; stroke-width: 2px;"/></g><path class="xlines-below"/><path class="ylines-below"/><g class="overlines-below"/><g class="xaxislayer-below"/><g class="yaxislayer-below"/><g class="overaxes-below"/><g class="plot" transform="translate(80,514)" clip-path="url(#clip347531x3y3plot)"><g class="violinlayer mlayer"><g class="trace violins" style="opacity: 1;"><path class="violin" d="M78.02,259.62Q78.03,258.05 78.04,257.26C78.05,256.48 78.07,255.69 78.08,254.91C78.1,254.12 78.11,253.34 78.13,252.55C78.15,251.77 78.17,250.98 78.2,250.2C78.23,249.41 78.25,248.63 78.29,247.84C78.32,247.06 78.36,246.27 78.41,245.49C78.46,244.7 78.51,243.92 78.57,243.13C78.63,242.35 78.69,241.56 78.77,240.78C78.85,239.99 78.93,239.21 79.03,238.42C79.13,237.64 79.24,236.85 79.36,236.07C79.48,235.28 79.61,234.49 79.76,233.71C79.91,232.92 80.07,232.14 80.24,231.36C80.41,230.57 80.59,229.78 80.78,229C80.97,228.21 81.17,227.43 81.38,226.65C81.59,225.86 81.82,225.07 82.05,224.29C82.28,223.5 82.52,222.72 82.77,221.94C83.02,221.15 83.28,220.37 83.53,219.58C83.78,218.8 84.04,218.01 84.29,217.23C84.54,216.44 84.78,215.66 85.02,214.87C85.26,214.09 85.48,213.3 85.71,212.52C85.94,211.73 86.16,210.94 86.39,210.16C86.62,209.37 86.85,208.59 87.11,207.81C87.38,207.02 87.66,206.23 87.99,205.45C88.32,204.66 88.68,203.87 89.09,203.1C89.51,202.3 89.98,201.52 90.47,200.74C90.97,199.95 91.52,199.17 92.08,198.39C92.64,197.6 93.25,196.82 93.83,196.03C94.41,195.25 95.01,194.47 95.58,193.68C96.14,192.9 96.7,192.11 97.22,191.32C97.73,190.54 98.21,189.76 98.67,188.97C99.12,188.19 99.55,187.4 99.95,186.61C100.35,185.83 100.72,185.05 101.08,184.26C101.44,183.48 101.78,182.69 102.09,181.9C102.4,181.12 102.71,180.34 102.96,179.55C103.21,178.77 103.44,177.98 103.6,177.19C103.76,176.41 103.88,175.63 103.93,174.84C103.98,174.06 103.95,173.26 103.88,172.48C103.81,171.69 103.66,170.91 103.5,170.13C103.34,169.34 103.12,168.56 102.93,167.77C102.74,166.99 102.52,166.21 102.36,165.42C102.2,164.64 102.06,163.85 101.98,163.06C101.9,162.28 101.87,161.49 101.86,160.71C101.85,159.92 101.9,159.14 101.9,158.35C101.9,157.57 101.93,156.78 101.86,156C101.79,155.21 101.68,154.41 101.45,153.64C101.22,152.84 100.87,152.05 100.46,151.29C100.02,150.48 99.46,149.7 98.88,148.93C98.27,148.13 97.55,147.36 96.86,146.58C96.15,145.79 95.39,145.01 94.68,144.22C93.98,143.44 93.26,142.67 92.61,141.87C91.98,141.1 91.37,140.32 90.82,139.52C90.29,138.75 89.81,137.96 89.37,137.16C88.95,136.39 88.57,135.6 88.24,134.81C87.91,134.03 87.63,133.24 87.38,132.45C87.13,131.67 86.92,130.89 86.74,130.1C86.56,129.32 86.41,128.53 86.28,127.74C86.15,126.96 86.05,126.18 85.96,125.39C85.87,124.61 85.8,123.82 85.73,123.03C85.66,122.25 85.6,121.46 85.52,120.68C85.44,119.89 85.36,119.11 85.26,118.32C85.16,117.54 85.05,116.75 84.93,115.97C84.81,115.18 84.67,114.39 84.52,113.61C84.37,112.82 84.21,112.04 84.05,111.26C83.89,110.47 83.73,109.69 83.56,108.9C83.4,108.12 83.23,107.33 83.06,106.55C82.89,105.76 82.71,104.98 82.52,104.19C82.33,103.41 82.14,102.62 81.94,101.84C81.74,101.05 81.53,100.27 81.31,99.48C81.1,98.7 80.87,97.91 80.65,97.13C80.43,96.34 80.21,95.56 80,94.77C79.8,93.99 79.6,93.21 79.42,92.42C79.24,91.64 79.07,90.85 78.93,90.06C78.79,89.28 78.67,88.5 78.57,87.71C78.47,86.93 78.39,86.14 78.32,85.35C78.25,84.57 78.2,83.78 78.16,83Q78.12,82.21 78.08,80.64L77.92,80.64Q77.88,82.21 77.84,83C77.8,83.78 77.75,84.57 77.68,85.35C77.61,86.14 77.53,86.93 77.43,87.71C77.33,88.5 77.21,89.28 77.07,90.06C76.93,90.85 76.76,91.64 76.58,92.42C76.4,93.21 76.2,93.99 76,94.77C75.79,95.56 75.57,96.34 75.35,97.13C75.13,97.91 74.9,98.7 74.69,99.48C74.47,100.27 74.26,101.05 74.06,101.84C73.86,102.62 73.67,103.41 73.48,104.19C73.29,104.98 73.11,105.76 72.94,106.55C72.77,107.33 72.6,108.12 72.44,108.9C72.27,109.69 72.11,110.47 71.95,111.26C71.79,112.04 71.63,112.82 71.48,113.61C71.33,114.39 71.19,115.18 71.07,115.97C70.95,116.75 70.84,117.54 70.74,118.32C70.64,119.11 70.56,119.89 70.48,120.68C70.4,121.46 70.34,122.25 70.27,123.03C70.2,123.82 70.13,124.61 70.04,125.39C69.95,126.18 69.85,126.96 69.72,127.74C69.59,128.53 69.44,129.32 69.26,130.1C69.08,130.89 68.87,131.67 68.62,132.45C68.37,133.24 68.09,134.03 67.76,134.81C67.43,135.6 67.05,136.39 66.63,137.16C66.19,137.96 65.71,138.75 65.18,139.52C64.63,140.32 64.02,141.1 63.39,141.87C62.74,142.67 62.02,143.44 61.32,144.22C60.61,145.01 59.85,145.79 59.14,146.58C58.45,147.36 57.73,148.13 57.12,148.93C56.54,149.7 55.98,150.48 55.54,151.29C55.13,152.05 54.78,152.84 54.55,153.64C54.32,154.41 54.21,155.21 54.14,156C54.07,156.78 54.1,157.57 54.1,158.35C54.1,159.14 54.15,159.92 54.14,160.71C54.13,161.49 54.1,162.28 54.02,163.06C53.94,163.85 53.8,164.64 53.64,165.42C53.48,166.21 53.26,166.99 53.07,167.77C52.88,168.56 52.66,169.34 52.5,170.13C52.34,170.91 52.19,171.69 52.12,172.48C52.05,173.26 52.02,174.06 52.07,174.84C52.12,175.63 52.24,176.41 52.4,177.19C52.56,177.98 52.79,178.77 53.04,179.55C53.29,180.34 53.6,181.12 53.91,181.9C54.22,182.69 54.56,183.48 54.92,184.26C55.28,185.05 55.65,185.83 56.05,186.61C56.45,187.4 56.88,188.19 57.33,188.97C57.79,189.76 58.27,190.54 58.78,191.32C59.3,192.11 59.86,192.9 60.42,193.68C60.99,194.47 61.59,195.25 62.17,196.03C62.75,196.82 63.36,197.6 63.92,198.39C64.48,199.17 65.03,199.95 65.53,200.74C66.02,201.52 66.49,202.3 66.91,203.1C67.32,203.87 67.68,204.66 68.01,205.45C68.34,206.23 68.62,207.02 68.89,207.81C69.15,208.59 69.38,209.37 69.61,210.16C69.84,210.94 70.06,211.73 70.29,212.52C70.52,213.3 70.74,214.09 70.98,214.87C71.22,215.66 71.46,216.44 71.71,217.23C71.96,218.01 72.22,218.8 72.47,219.58C72.72,220.37 72.98,221.15 73.23,221.94C73.48,222.72 73.72,223.5 73.95,224.29C74.18,225.07 74.41,225.86 74.62,226.65C74.83,227.43 75.03,228.21 75.22,229C75.41,229.78 75.59,230.57 75.76,231.36C75.93,232.14 76.09,232.92 76.24,233.71C76.39,234.49 76.52,235.28 76.64,236.07C76.76,236.85 76.87,237.64 76.97,238.42C77.07,239.21 77.15,239.99 77.23,240.78C77.31,241.56 77.37,242.35 77.43,243.13C77.49,243.92 77.54,244.7 77.59,245.49C77.64,246.27 77.68,247.06 77.71,247.84C77.75,248.63 77.77,249.41 77.8,250.2C77.83,250.98 77.85,251.77 77.87,252.55C77.89,253.34 77.9,254.12 77.92,254.91C77.93,255.69 77.95,256.48 77.96,257.26Q77.97,258.05 77.98,259.62Z" style="vector-effect: non-scaling-stroke; stroke-width: 2px; stroke: rgb(99, 110, 250); stroke-opacity: 1; fill: rgb(99, 110, 250); fill-opacity: 0.5;"/><path class="violin" d="M234.11,265.61Q234.19,263.55 234.26,262.52C234.33,261.49 234.4,260.45 234.53,259.42C234.66,258.39 234.81,257.36 235.03,256.33C235.25,255.29 235.5,254.26 235.83,253.24C236.16,252.2 236.56,251.16 237.02,250.14C237.5,249.09 238.05,248.06 238.66,247.05C239.29,246 239.99,244.98 240.73,243.96C241.49,242.91 242.32,241.88 243.15,240.86C243.99,239.82 244.89,238.8 245.76,237.77C246.64,236.74 247.54,235.72 248.4,234.68C249.26,233.65 250.11,232.62 250.92,231.58C251.71,230.56 252.49,229.53 253.21,228.49C253.91,227.47 254.58,226.44 255.18,225.4C255.77,224.38 256.32,223.35 256.79,222.3C257.25,221.28 257.66,220.25 257.99,219.21C258.31,218.19 258.56,217.16 258.74,216.12C258.92,215.09 259.02,214.05 259.07,213.02C259.12,211.99 259.09,210.96 259.03,209.93C258.97,208.9 258.85,207.87 258.71,206.84C258.57,205.81 258.4,204.77 258.2,203.74C258,202.71 257.77,201.68 257.52,200.65C257.27,199.62 256.99,198.59 256.69,197.56C256.39,196.52 256.05,195.49 255.7,194.46C255.35,193.43 254.97,192.4 254.59,191.37C254.21,190.34 253.81,189.31 253.42,188.28C253.03,187.25 252.63,186.21 252.24,185.18C251.85,184.15 251.47,183.12 251.1,182.09C250.73,181.06 250.36,180.03 250,179C249.64,177.97 249.28,176.93 248.93,175.9C248.58,174.87 248.24,173.84 247.91,172.81C247.58,171.78 247.25,170.75 246.94,169.72C246.63,168.69 246.33,167.65 246.05,166.62C245.77,165.59 245.5,164.56 245.25,163.53C245,162.5 244.76,161.47 244.53,160.44C244.3,159.41 244.08,158.38 243.87,157.35C243.65,156.32 243.45,155.28 243.24,154.25C243.03,153.22 242.81,152.19 242.59,151.16C242.37,150.13 242.14,149.1 241.91,148.07C241.67,147.04 241.43,146 241.18,144.97C240.93,143.94 240.67,142.91 240.42,141.88C240.16,140.85 239.9,139.82 239.65,138.79C239.4,137.76 239.15,136.72 238.9,135.69C238.66,134.66 238.41,133.63 238.18,132.6C237.95,131.57 237.74,130.54 237.53,129.51C237.32,128.48 237.12,127.44 236.94,126.41C236.76,125.38 236.59,124.35 236.44,123.32C236.29,122.29 236.15,121.26 236.03,120.23C235.91,119.2 235.8,118.16 235.7,117.13C235.6,116.1 235.52,115.07 235.45,114.04C235.38,113.01 235.32,111.98 235.26,110.95C235.2,109.92 235.16,108.88 235.11,107.85C235.06,106.82 235.02,105.79 234.98,104.76C234.93,103.73 234.89,102.7 234.84,101.67C234.79,100.64 234.75,99.6 234.7,98.57C234.65,97.54 234.6,96.51 234.55,95.48C234.5,94.45 234.45,93.42 234.4,92.39C234.35,91.36 234.31,90.32 234.27,89.29C234.23,88.26 234.19,87.23 234.16,86.2C234.13,85.17 234.11,84.14 234.09,83.11Q234.07,82.08 234.05,80.01L233.95,80.01Q233.93,82.08 233.91,83.11C233.89,84.14 233.87,85.17 233.84,86.2C233.81,87.23 233.77,88.26 233.73,89.29C233.69,90.32 233.65,91.36 233.6,92.39C233.55,93.42 233.5,94.45 233.45,95.48C233.4,96.51 233.35,97.54 233.3,98.57C233.25,99.6 233.21,100.64 233.16,101.67C233.11,102.7 233.07,103.73 233.02,104.76C232.98,105.79 232.94,106.82 232.89,107.85C232.84,108.88 232.8,109.92 232.74,110.95C232.68,111.98 232.62,113.01 232.55,114.04C232.48,115.07 232.4,116.1 232.3,117.13C232.2,118.16 232.09,119.2 231.97,120.23C231.85,121.26 231.71,122.29 231.56,123.32C231.41,124.35 231.24,125.38 231.06,126.41C230.88,127.44 230.68,128.48 230.47,129.51C230.26,130.54 230.05,131.57 229.82,132.6C229.59,133.63 229.34,134.66 229.1,135.69C228.85,136.72 228.6,137.76 228.35,138.79C228.1,139.82 227.84,140.85 227.58,141.88C227.33,142.91 227.07,143.94 226.82,144.97C226.57,146 226.33,147.04 226.09,148.07C225.86,149.1 225.63,150.13 225.41,151.16C225.19,152.19 224.97,153.22 224.76,154.25C224.55,155.28 224.35,156.32 224.13,157.35C223.92,158.38 223.7,159.41 223.47,160.44C223.24,161.47 223,162.5 222.75,163.53C222.5,164.56 222.23,165.59 221.95,166.62C221.67,167.65 221.37,168.69 221.06,169.72C220.75,170.75 220.42,171.78 220.09,172.81C219.76,173.84 219.42,174.87 219.07,175.9C218.72,176.93 218.36,177.97 218,179C217.64,180.03 217.27,181.06 216.9,182.09C216.53,183.12 216.15,184.15 215.76,185.18C215.37,186.21 214.97,187.25 214.58,188.28C214.19,189.31 213.79,190.34 213.41,191.37C213.03,192.4 212.65,193.43 212.3,194.46C211.95,195.49 211.61,196.52 211.31,197.56C211.01,198.59 210.73,199.62 210.48,200.65C210.23,201.68 210,202.71 209.8,203.74C209.6,204.77 209.43,205.81 209.29,206.84C209.15,207.87 209.03,208.9 208.97,209.93C208.91,210.96 208.88,211.99 208.93,213.02C208.98,214.05 209.08,215.09 209.26,216.12C209.44,217.16 209.69,218.19 210.01,219.21C210.34,220.25 210.75,221.28 211.21,222.3C211.68,223.35 212.23,224.38 212.82,225.4C213.42,226.44 214.09,227.47 214.79,228.49C215.51,229.53 216.29,230.56 217.08,231.58C217.89,232.62 218.74,233.65 219.6,234.68C220.46,235.72 221.36,236.74 222.24,237.77C223.11,238.8 224.01,239.82 224.85,240.86C225.68,241.88 226.51,242.91 227.27,243.96C228.01,244.98 228.71,246 229.34,247.05C229.95,248.06 230.5,249.09 230.98,250.14C231.44,251.16 231.84,252.2 232.17,253.24C232.5,254.26 232.75,255.29 232.97,256.33C233.19,257.36 233.34,258.39 233.47,259.42C233.6,260.45 233.67,261.49 233.74,262.52Q233.81,263.55 233.89,265.61Z" style="vector-effect: non-scaling-stroke; stroke-width: 2px; stroke: rgb(99, 110, 250); stroke-opacity: 1; fill: rgb(99, 110, 250); fill-opacity: 0.5;"/><path class="violin" d="M390.31,290.7Q390.49,288.55 390.64,287.48C390.79,286.41 390.97,285.33 391.22,284.27C391.47,283.19 391.77,282.11 392.15,281.05C392.54,279.96 393,278.89 393.52,277.83C394.06,276.74 394.68,275.67 395.35,274.62C396.04,273.53 396.82,272.46 397.62,271.4C398.44,270.31 399.33,269.24 400.24,268.18C401.16,267.1 402.13,266.04 403.11,264.97C404.1,263.89 405.11,262.82 406.13,261.75C407.16,260.67 408.2,259.6 409.26,258.53C410.34,257.45 411.43,256.37 412.55,255.31C413.69,254.23 414.86,253.17 416.03,252.1C417.22,251.02 418.45,249.96 419.63,248.88C420.79,247.81 422,246.76 423.05,245.66C424.04,244.62 425.07,243.58 425.76,242.45C426.39,241.42 426.97,240.32 427.13,239.23C427.28,238.18 427.12,237.04 426.74,236.01C426.32,234.89 425.45,233.82 424.57,232.8C423.6,231.67 422.31,230.63 421.08,229.58C419.78,228.48 418.33,227.43 416.96,226.36C415.6,225.29 414.18,224.24 412.88,223.15C411.62,222.1 410.38,221.03 409.26,219.93C408.19,218.88 407.19,217.81 406.28,216.71C405.41,215.66 404.62,214.59 403.91,213.5C403.22,212.45 402.61,211.37 402.06,210.28C401.52,209.22 401.06,208.14 400.64,207.06C400.22,206 399.87,204.93 399.54,203.85C399.21,202.78 398.93,201.71 398.66,200.63C398.39,199.56 398.15,198.49 397.93,197.41C397.71,196.34 397.51,195.26 397.32,194.19C397.13,193.12 396.96,192.05 396.81,190.98C396.66,189.91 396.52,188.83 396.4,187.76C396.28,186.69 396.18,185.61 396.07,184.54C395.96,183.47 395.86,182.4 395.74,181.33C395.62,180.26 395.5,179.18 395.35,178.11C395.2,177.04 395.04,175.96 394.86,174.89C394.68,173.82 394.49,172.75 394.29,171.68C394.09,170.61 393.88,169.53 393.68,168.46C393.48,167.39 393.28,166.31 393.09,165.24C392.9,164.17 392.73,163.1 392.56,162.03C392.39,160.96 392.23,159.88 392.08,158.81C391.93,157.74 391.79,156.66 391.65,155.59C391.51,154.52 391.37,153.45 391.24,152.38C391.11,151.31 390.98,150.23 390.87,149.16C390.76,148.09 390.65,147.01 390.56,145.94C390.47,144.87 390.39,143.8 390.33,142.73Q390.27,141.66 390.18,139.51L389.82,139.51Q389.73,141.66 389.67,142.73C389.61,143.8 389.53,144.87 389.44,145.94C389.35,147.01 389.24,148.09 389.13,149.16C389.02,150.23 388.89,151.31 388.76,152.38C388.63,153.45 388.49,154.52 388.35,155.59C388.21,156.66 388.07,157.74 387.92,158.81C387.77,159.88 387.61,160.96 387.44,162.03C387.27,163.1 387.1,164.17 386.91,165.24C386.72,166.31 386.52,167.39 386.32,168.46C386.12,169.53 385.91,170.61 385.71,171.68C385.51,172.75 385.32,173.82 385.14,174.89C384.96,175.96 384.8,177.04 384.65,178.11C384.5,179.18 384.38,180.26 384.26,181.33C384.14,182.4 384.04,183.47 383.93,184.54C383.82,185.61 383.72,186.69 383.6,187.76C383.48,188.83 383.34,189.91 383.19,190.98C383.04,192.05 382.87,193.12 382.68,194.19C382.49,195.26 382.29,196.34 382.07,197.41C381.85,198.49 381.61,199.56 381.34,200.63C381.07,201.71 380.79,202.78 380.46,203.85C380.13,204.93 379.78,206 379.36,207.06C378.94,208.14 378.48,209.22 377.94,210.28C377.39,211.37 376.78,212.45 376.09,213.5C375.38,214.59 374.59,215.66 373.72,216.71C372.81,217.81 371.81,218.88 370.74,219.93C369.62,221.03 368.38,222.1 367.12,223.15C365.82,224.24 364.4,225.29 363.04,226.36C361.67,227.43 360.22,228.48 358.92,229.58C357.69,230.63 356.4,231.67 355.43,232.8C354.55,233.82 353.68,234.89 353.26,236.01C352.88,237.04 352.72,238.18 352.87,239.23C353.03,240.32 353.61,241.42 354.24,242.45C354.93,243.58 355.96,244.62 356.95,245.66C358,246.76 359.21,247.81 360.37,248.88C361.55,249.96 362.78,251.02 363.97,252.1C365.14,253.17 366.31,254.23 367.45,255.31C368.57,256.37 369.66,257.45 370.74,258.53C371.8,259.6 372.84,260.67 373.87,261.75C374.89,262.82 375.9,263.89 376.89,264.97C377.87,266.04 378.84,267.1 379.76,268.18C380.67,269.24 381.56,270.31 382.38,271.4C383.18,272.46 383.96,273.53 384.65,274.62C385.32,275.67 385.94,276.74 386.48,277.83C387,278.89 387.46,279.96 387.85,281.05C388.23,282.11 388.53,283.19 388.78,284.27C389.03,285.33 389.21,286.41 389.36,287.48Q389.51,288.55 389.69,290.7Z" style="vector-effect: non-scaling-stroke; stroke-width: 2px; stroke: rgb(99, 110, 250); stroke-opacity: 1; fill: rgb(99, 110, 250); fill-opacity: 0.5;"/><path class="box" d="M68.45,169.29H87.56M68.45,186.83H87.56V151.68H68.45ZM78,186.83V235.7M78,151.68V99.79" style="vector-effect: non-scaling-stroke; stroke-width: 2px; stroke: rgb(99, 110, 250); stroke-opacity: 1; fill: rgb(99, 110, 250); fill-opacity: 0.5;"/><path class="box" d="M224.45,199.93H243.56M224.45,217.82H243.56V176.09H224.45ZM234,217.82V247.03M234,176.09V118.03" style="vector-effect: non-scaling-stroke; stroke-width: 2px; stroke: rgb(99, 110, 250); stroke-opacity: 1; fill: rgb(99, 110, 250); fill-opacity: 0.5;"/><path class="box" d="M380.45,236H399.55M380.45,247.38H399.55V219.43H380.45ZM390,247.38V271.35M390,219.43V178.12" style="vector-effect: non-scaling-stroke; stroke-width: 2px; stroke: rgb(99, 110, 250); stroke-opacity: 1; fill: rgb(99, 110, 250); fill-opacity: 0.5;"/><path class="mean" d="M68.45,166.87H87.56" style="fill: none; vector-effect: non-scaling-stroke; stroke-width: 2px; stroke-dasharray: 4px, 2px; stroke: rgb(99, 110, 250); stroke-opacity: 1;"/><path class="mean" d="M224.45,195.16H243.56" style="fill: none; vector-effect: non-scaling-stroke; stroke-width: 2px; stroke-dasharray: 4px, 2px; stroke: rgb(99, 110, 250); stroke-opacity: 1;"/><path class="mean" d="M380.45,231.32H399.55" style="fill: none; vector-effect: non-scaling-stroke; stroke-width: 2px; stroke-dasharray: 4px, 2px; stroke: rgb(99, 110, 250); stroke-opacity: 1;"/></g></g></g><g class="overplot"/><path class="xlines-above crisp" d="M0,0" style="fill: none;"/><path class="ylines-above crisp" d="M0,0" style="fill: none;"/><g class="overlines-above"/><g class="xaxislayer-above"><g class="x3tick"><text text-anchor="middle" x="0" y="833" transform="translate(158,0)" style="font-family: 'Open Sans', verdana, arial, sans-serif; font-size: 12px; fill: rgb(42, 63, 95); fill-opacity: 1; white-space: pre; opacity: 1;">&#60;=1</text></g><g class="x3tick"><text text-anchor="middle" x="0" y="833" transform="translate(314,0)" style="font-family: 'Open Sans', verdana, arial, sans-serif; font-size: 12px; fill: rgb(42, 63, 95); fill-opacity: 1; white-space: pre; opacity: 1;">(1, 2]</text></g><g class="x3tick"><text text-anchor="middle" x="0" y="833" transform="translate(470,0)" style="font-family: 'Open Sans', verdana, arial, sans-serif; font-size: 12px; fill: rgb(42, 63, 95); fill-opacity: 1; white-space: pre; opacity: 1;">>2</text></g></g><g class="yaxislayer-above"><g class="y3tick"><text text-anchor="end" x="79" y="4.199999999999999" transform="translate(0,785.4100000000001)" style="font-family: 'Open Sans', verdana, arial, sans-serif; font-size: 12px; fill: rgb(42, 63, 95); fill-opacity: 1; white-space: pre; opacity: 1;">0</text></g><g class="y3tick"><text text-anchor="end" x="79" y="4.199999999999999" style="font-family: 'Open Sans', verdana, arial, sans-serif; font-size: 12px; fill: rgb(42, 63, 95); fill-opacity: 1; white-space: pre; opacity: 1;" transform="translate(0,725.8)">10</text></g><g class="y3tick"><text text-anchor="end" x="79" y="4.199999999999999" style="font-family: 'Open Sans', verdana, arial, sans-serif; font-size: 12px; fill: rgb(42, 63, 95); fill-opacity: 1; white-space: pre; opacity: 1;" transform="translate(0,666.19)">20</text></g><g class="y3tick"><text text-anchor="end" x="79" y="4.199999999999999" style="font-family: 'Open Sans', verdana, arial, sans-serif; font-size: 12px; fill: rgb(42, 63, 95); fill-opacity: 1; white-space: pre; opacity: 1;" transform="translate(0,606.58)">30</text></g><g class="y3tick"><text text-anchor="end" x="79" y="4.199999999999999" style="font-family: 'Open Sans', verdana, arial, sans-serif; font-size: 12px; fill: rgb(42, 63, 95); fill-opacity: 1; white-space: pre; opacity: 1;" transform="translate(0,546.97)">40</text></g></g><g class="overaxes-above"/></g><g class="subplot x4y4"><g class="layer-subplot"><g class="shapelayer"/><g class="imagelayer"/></g><g class="minor-gridlayer"><g class="x4"/><g class="y4"/></g><g class="gridlayer"><g class="x4"/><g class="y4"><path class="y4grid crisp" transform="translate(0,725.8)" d="M652,0h467.99999999999994" style="stroke: rgb(255, 255, 255); stroke-opacity: 1; stroke-width: 1px;"/><path class="y4grid crisp" transform="translate(0,666.19)" d="M652,0h467.99999999999994" style="stroke: rgb(255, 255, 255); stroke-opacity: 1; stroke-width: 1px;"/><path class="y4grid crisp" transform="translate(0,606.58)" d="M652,0h467.99999999999994" style="stroke: rgb(255, 255, 255); stroke-opacity: 1; stroke-width: 1px;"/><path class="y4grid crisp" transform="translate(0,546.97)" d="M652,0h467.99999999999994" style="stroke: rgb(255, 255, 255); stroke-opacity: 1; stroke-width: 1px;"/></g></g><g class="zerolinelayer"><path class="y4zl zl crisp" transform="translate(0,785.4100000000001)" d="M652,0h467.99999999999994" style="stroke: rgb(255, 255, 255); stroke-opacity: 1; stroke-width: 2px;"/></g><path class="xlines-below"/><path class="ylines-below"/><g class="overlines-below"/><g class="xaxislayer-below"/><g class="yaxislayer-below"/><g class="overaxes-below"/><g class="plot" transform="translate(652,514)" clip-path="url(#clip347531x4y4plot)"><g class="violinlayer mlayer"><g class="trace violins" style="opacity: 1;"><path class="violin" d="M78.03,276.63Q78.05,275.24 78.06,274.54C78.07,273.84 78.09,273.14 78.11,272.44C78.13,271.74 78.15,271.04 78.18,270.34C78.21,269.64 78.24,268.94 78.28,268.24C78.32,267.54 78.36,266.85 78.4,266.15C78.44,265.45 78.49,264.75 78.53,264.05C78.58,263.35 78.62,262.65 78.67,261.95C78.72,261.25 78.78,260.55 78.84,259.85C78.9,259.15 78.97,258.46 79.05,257.76C79.13,257.06 79.22,256.36 79.33,255.66C79.44,254.96 79.56,254.26 79.71,253.56C79.86,252.86 80.04,252.16 80.24,251.46C80.44,250.76 80.66,250.06 80.92,249.37C81.18,248.67 81.47,247.96 81.79,247.27C82.12,246.56 82.47,245.86 82.86,245.17C83.25,244.46 83.68,243.76 84.13,243.07C84.59,242.36 85.09,241.67 85.61,240.98C86.14,240.27 86.71,239.57 87.29,238.88C87.88,238.17 88.5,237.47 89.13,236.78C89.77,236.07 90.43,235.38 91.1,234.68C91.77,233.98 92.46,233.28 93.15,232.58C93.83,231.88 94.53,231.19 95.21,230.49C95.89,229.79 96.57,229.09 97.24,228.39C97.9,227.69 98.55,226.99 99.19,226.29C99.83,225.59 100.46,224.89 101.09,224.19C101.71,223.49 102.33,222.8 102.95,222.1C103.56,221.4 104.18,220.7 104.78,220C105.38,219.3 105.99,218.6 106.57,217.9C107.14,217.2 107.71,216.5 108.25,215.8C108.78,215.11 109.3,214.42 109.78,213.71C110.25,213.02 110.71,212.32 111.12,211.61C111.52,210.92 111.9,210.22 112.22,209.51C112.53,208.82 112.81,208.12 113,207.41C113.18,206.72 113.31,206.02 113.33,205.32C113.35,204.62 113.27,203.91 113.11,203.22C112.95,202.51 112.66,201.81 112.36,201.12C112.05,200.41 111.63,199.72 111.24,199.02C110.85,198.32 110.4,197.63 110.03,196.92C109.67,196.23 109.31,195.54 109.06,194.83C108.82,194.14 108.63,193.43 108.56,192.73C108.49,192.03 108.52,191.32 108.63,190.63C108.74,189.92 108.97,189.22 109.21,188.53C109.46,187.82 109.81,187.14 110.11,186.44C110.42,185.74 110.78,185.05 111.04,184.34C111.3,183.65 111.56,182.95 111.67,182.24C111.78,181.55 111.82,180.83 111.71,180.14C111.59,179.43 111.32,178.72 110.96,178.05C110.57,177.32 110,176.62 109.4,175.95C108.75,175.22 107.95,174.53 107.15,173.85C106.31,173.13 105.37,172.44 104.45,171.75C103.51,171.05 102.53,170.36 101.58,169.66C100.64,168.96 99.68,168.27 98.77,167.56C97.89,166.87 97.02,166.17 96.21,165.46C95.43,164.77 94.68,164.07 93.98,163.36C93.31,162.68 92.69,161.98 92.11,161.27C91.55,160.58 91.04,159.88 90.55,159.17C90.07,158.48 89.63,157.77 89.2,157.07C88.77,156.37 88.38,155.67 87.98,154.97C87.59,154.27 87.21,153.57 86.83,152.87C86.45,152.17 86.08,151.48 85.71,150.78C85.34,150.08 84.98,149.38 84.63,148.68C84.28,147.98 83.95,147.28 83.62,146.58C83.29,145.88 82.97,145.18 82.66,144.48C82.35,143.78 82.05,143.09 81.76,142.39C81.47,141.69 81.18,140.99 80.91,140.29C80.64,139.59 80.37,138.89 80.13,138.19C79.89,137.49 79.66,136.79 79.46,136.09C79.26,135.4 79.07,134.7 78.92,134C78.77,133.3 78.65,132.6 78.54,131.9C78.44,131.2 78.36,130.5 78.29,129.8Q78.22,129.1 78.14,127.7L77.86,127.7Q77.78,129.1 77.71,129.8C77.64,130.5 77.56,131.2 77.46,131.9C77.35,132.6 77.23,133.3 77.08,134C76.93,134.7 76.74,135.4 76.54,136.09C76.34,136.79 76.11,137.49 75.87,138.19C75.63,138.89 75.36,139.59 75.09,140.29C74.82,140.99 74.53,141.69 74.24,142.39C73.95,143.09 73.65,143.78 73.34,144.48C73.03,145.18 72.71,145.88 72.38,146.58C72.05,147.28 71.72,147.98 71.37,148.68C71.02,149.38 70.66,150.08 70.29,150.78C69.92,151.48 69.55,152.17 69.17,152.87C68.79,153.57 68.41,154.27 68.02,154.97C67.62,155.67 67.23,156.37 66.8,157.07C66.37,157.77 65.93,158.48 65.45,159.17C64.96,159.88 64.45,160.58 63.89,161.27C63.31,161.98 62.69,162.68 62.02,163.36C61.32,164.07 60.57,164.77 59.79,165.46C58.98,166.17 58.11,166.87 57.23,167.56C56.32,168.27 55.36,168.96 54.42,169.66C53.47,170.36 52.49,171.05 51.55,171.75C50.63,172.44 49.69,173.13 48.85,173.85C48.05,174.53 47.25,175.22 46.6,175.95C46,176.62 45.43,177.32 45.04,178.05C44.68,178.72 44.41,179.43 44.29,180.14C44.18,180.83 44.22,181.55 44.33,182.24C44.44,182.95 44.7,183.65 44.96,184.34C45.22,185.05 45.58,185.74 45.89,186.44C46.19,187.14 46.54,187.82 46.79,188.53C47.03,189.22 47.26,189.92 47.37,190.63C47.48,191.32 47.51,192.03 47.44,192.73C47.37,193.43 47.18,194.14 46.94,194.83C46.69,195.54 46.33,196.23 45.97,196.92C45.6,197.63 45.15,198.32 44.76,199.02C44.37,199.72 43.95,200.41 43.64,201.12C43.34,201.81 43.05,202.51 42.89,203.22C42.73,203.91 42.65,204.62 42.67,205.32C42.69,206.02 42.82,206.72 43,207.41C43.19,208.12 43.47,208.82 43.78,209.51C44.1,210.22 44.48,210.92 44.88,211.61C45.29,212.32 45.75,213.02 46.22,213.71C46.7,214.42 47.22,215.11 47.75,215.8C48.29,216.5 48.86,217.2 49.43,217.9C50.01,218.6 50.62,219.3 51.22,220C51.82,220.7 52.44,221.4 53.05,222.1C53.67,222.8 54.29,223.49 54.91,224.19C55.54,224.89 56.17,225.59 56.81,226.29C57.45,226.99 58.1,227.69 58.76,228.39C59.43,229.09 60.11,229.79 60.79,230.49C61.47,231.19 62.17,231.88 62.85,232.58C63.54,233.28 64.23,233.98 64.9,234.68C65.57,235.38 66.23,236.07 66.87,236.78C67.5,237.47 68.12,238.17 68.71,238.88C69.29,239.57 69.86,240.27 70.39,240.98C70.91,241.67 71.41,242.36 71.87,243.07C72.32,243.76 72.75,244.46 73.14,245.17C73.53,245.86 73.88,246.56 74.21,247.27C74.53,247.96 74.82,248.67 75.08,249.37C75.34,250.06 75.56,250.76 75.76,251.46C75.96,252.16 76.14,252.86 76.29,253.56C76.44,254.26 76.56,254.96 76.67,255.66C76.78,256.36 76.87,257.06 76.95,257.76C77.03,258.46 77.1,259.15 77.16,259.85C77.22,260.55 77.28,261.25 77.33,261.95C77.38,262.65 77.42,263.35 77.47,264.05C77.51,264.75 77.56,265.45 77.6,266.15C77.64,266.85 77.68,267.54 77.72,268.24C77.76,268.94 77.79,269.64 77.82,270.34C77.85,271.04 77.87,271.74 77.89,272.44C77.91,273.14 77.93,273.84 77.94,274.54Q77.95,275.24 77.97,276.63Z" style="vector-effect: non-scaling-stroke; stroke-width: 2px; stroke: rgb(239, 85, 59); stroke-opacity: 1; fill: rgb(239, 85, 59); fill-opacity: 0.5;"/><path class="violin" d="M234.07,255.84Q234.11,254.27 234.14,253.48C234.17,252.7 234.21,251.91 234.26,251.13C234.31,250.34 234.38,249.56 234.46,248.77C234.54,247.98 234.64,247.2 234.75,246.41C234.86,245.62 234.99,244.83 235.14,244.05C235.29,243.26 235.46,242.47 235.66,241.69C235.86,240.9 236.08,240.11 236.32,239.33C236.57,238.54 236.83,237.76 237.13,236.98C237.44,236.19 237.77,235.4 238.14,234.62C238.52,233.83 238.94,233.04 239.39,232.26C239.85,231.46 240.36,230.68 240.9,229.9C241.45,229.1 242.04,228.32 242.65,227.54C243.28,226.75 243.94,225.97 244.62,225.19C245.31,224.4 246.03,223.61 246.76,222.83C247.49,222.04 248.24,221.25 249,220.47C249.76,219.68 250.54,218.9 251.31,218.11C252.08,217.32 252.86,216.54 253.64,215.75C254.42,214.96 255.19,214.17 255.98,213.39C256.77,212.6 257.56,211.82 258.36,211.04C259.17,210.25 259.99,209.46 260.83,208.68C261.67,207.89 262.54,207.11 263.4,206.32C264.26,205.53 265.16,204.75 266,203.96C266.83,203.18 267.67,202.4 268.42,201.6C269.13,200.83 269.84,200.06 270.39,199.25C270.91,198.49 271.37,197.7 271.68,196.89C271.97,196.12 272.15,195.32 272.22,194.53C272.29,193.75 272.21,192.95 272.12,192.17C272.03,191.38 271.82,190.6 271.66,189.81C271.5,189.02 271.29,188.24 271.15,187.45C271.02,186.67 270.91,185.89 270.85,185.1C270.79,184.32 270.78,183.53 270.77,182.74C270.76,181.95 270.8,181.17 270.76,180.38C270.72,179.59 270.69,178.8 270.53,178.02C270.37,177.23 270.14,176.43 269.8,175.66C269.44,174.85 268.95,174.07 268.39,173.31C267.79,172.5 267.05,171.72 266.29,170.95C265.49,170.14 264.58,169.36 263.67,168.59C262.73,167.79 261.72,167.02 260.75,166.23C259.78,165.44 258.78,164.67 257.85,163.87C256.94,163.1 256.03,162.33 255.22,161.52C254.45,160.75 253.71,159.97 253.07,159.16C252.47,158.4 251.93,157.61 251.49,156.8C251.07,156.03 250.75,155.24 250.46,154.44C250.18,153.66 249.99,152.87 249.76,152.08C249.53,151.29 249.36,150.5 249.1,149.72C248.83,148.93 248.54,148.14 248.16,147.37C247.76,146.57 247.29,145.78 246.75,145.01C246.19,144.2 245.52,143.42 244.85,142.65C244.16,141.85 243.38,141.08 242.64,140.29C241.9,139.5 241.11,138.73 240.39,137.93C239.69,137.15 238.99,136.38 238.37,135.58C237.78,134.81 237.22,134.02 236.75,133.22C236.3,132.45 235.91,131.66 235.59,130.86C235.28,130.09 235.05,129.29 234.85,128.5Q234.66,127.72 234.41,126.14L233.59,126.14Q233.34,127.72 233.15,128.5C232.95,129.29 232.72,130.09 232.41,130.86C232.09,131.66 231.7,132.45 231.25,133.22C230.78,134.02 230.22,134.81 229.63,135.58C229.01,136.38 228.31,137.15 227.61,137.93C226.89,138.73 226.1,139.5 225.36,140.29C224.62,141.08 223.84,141.85 223.15,142.65C222.48,143.42 221.81,144.2 221.25,145.01C220.71,145.78 220.24,146.57 219.84,147.37C219.46,148.14 219.17,148.93 218.9,149.72C218.64,150.5 218.47,151.29 218.24,152.08C218.01,152.87 217.82,153.66 217.54,154.44C217.25,155.24 216.93,156.03 216.51,156.8C216.07,157.61 215.53,158.4 214.93,159.16C214.29,159.97 213.55,160.75 212.78,161.52C211.97,162.33 211.06,163.1 210.15,163.87C209.22,164.67 208.22,165.44 207.25,166.23C206.28,167.02 205.27,167.79 204.33,168.59C203.42,169.36 202.51,170.14 201.71,170.95C200.95,171.72 200.21,172.5 199.61,173.31C199.05,174.07 198.56,174.85 198.2,175.66C197.86,176.43 197.63,177.23 197.47,178.02C197.31,178.8 197.28,179.59 197.24,180.38C197.2,181.17 197.24,181.95 197.23,182.74C197.22,183.53 197.21,184.32 197.15,185.1C197.09,185.89 196.98,186.67 196.85,187.45C196.71,188.24 196.5,189.02 196.34,189.81C196.18,190.6 195.97,191.38 195.88,192.17C195.79,192.95 195.71,193.75 195.78,194.53C195.85,195.32 196.03,196.12 196.32,196.89C196.63,197.7 197.09,198.49 197.61,199.25C198.16,200.06 198.87,200.83 199.58,201.6C200.33,202.4 201.17,203.18 202,203.96C202.84,204.75 203.74,205.53 204.6,206.32C205.46,207.11 206.33,207.89 207.17,208.68C208.01,209.46 208.83,210.25 209.64,211.04C210.44,211.82 211.23,212.6 212.02,213.39C212.81,214.17 213.58,214.96 214.36,215.75C215.14,216.54 215.92,217.32 216.69,218.11C217.46,218.9 218.24,219.68 219,220.47C219.76,221.25 220.51,222.04 221.24,222.83C221.97,223.61 222.69,224.4 223.38,225.19C224.06,225.97 224.72,226.75 225.35,227.54C225.96,228.32 226.55,229.1 227.1,229.9C227.64,230.68 228.15,231.46 228.61,232.26C229.06,233.04 229.48,233.83 229.86,234.62C230.23,235.4 230.56,236.19 230.87,236.98C231.17,237.76 231.43,238.54 231.68,239.33C231.92,240.11 232.14,240.9 232.34,241.69C232.54,242.47 232.71,243.26 232.86,244.05C233.01,244.83 233.14,245.62 233.25,246.41C233.36,247.2 233.46,247.98 233.54,248.77C233.62,249.56 233.69,250.34 233.74,251.13C233.79,251.91 233.83,252.7 233.86,253.48Q233.89,254.27 233.93,255.84Z" style="vector-effect: non-scaling-stroke; stroke-width: 2px; stroke: rgb(239, 85, 59); stroke-opacity: 1; fill: rgb(239, 85, 59); fill-opacity: 0.5;"/><path class="violin" d="M390.31,263.34Q390.48,260.94 390.62,259.75C390.76,258.55 390.93,257.35 391.17,256.16C391.41,254.96 391.69,253.76 392.05,252.57C392.42,251.37 392.85,250.17 393.36,248.99C393.89,247.78 394.5,246.58 395.19,245.4C395.9,244.18 396.72,242.99 397.59,241.81C398.5,240.59 399.51,239.4 400.55,238.22C401.62,237.01 402.78,235.82 403.92,234.63C405.07,233.43 406.29,232.24 407.43,231.04C408.55,229.85 409.7,228.68 410.72,227.46C411.7,226.29 412.65,225.1 413.46,223.87C414.23,222.7 414.9,221.5 415.47,220.28C416.02,219.1 416.43,217.9 416.83,216.69C417.22,215.5 417.5,214.3 417.85,213.1C418.2,211.9 418.51,210.7 418.92,209.51C419.33,208.3 419.8,207.11 420.32,205.92C420.84,204.72 421.47,203.53 422.05,202.34C422.64,201.14 423.3,199.96 423.83,198.75C424.35,197.57 424.88,196.37 425.19,195.16C425.49,193.98 425.7,192.77 425.69,191.57C425.68,190.37 425.46,189.15 425.1,187.98C424.73,186.76 424.12,185.56 423.47,184.39C422.78,183.17 421.91,181.99 421.05,180.81C420.16,179.6 419.17,178.41 418.21,177.22C417.25,176.02 416.24,174.83 415.28,173.63C414.33,172.44 413.38,171.25 412.48,170.04C411.59,168.85 410.74,167.65 409.92,166.45C409.11,165.26 408.34,164.06 407.57,162.86C406.81,161.67 406.07,160.47 405.32,159.27C404.57,158.08 403.83,156.88 403.06,155.69C402.29,154.49 401.5,153.3 400.71,152.1C399.92,150.9 399.11,149.71 398.33,148.51C397.56,147.32 396.78,146.13 396.07,144.92C395.37,143.73 394.69,142.54 394.1,141.33C393.52,140.15 392.99,138.95 392.54,137.74C392.1,136.56 391.74,135.35 391.44,134.15Q391.14,132.96 390.74,130.57L389.26,130.57Q388.86,132.96 388.56,134.15C388.26,135.35 387.9,136.56 387.46,137.74C387.01,138.95 386.48,140.15 385.9,141.33C385.31,142.54 384.63,143.73 383.93,144.92C383.22,146.13 382.44,147.32 381.67,148.51C380.89,149.71 380.08,150.9 379.29,152.1C378.5,153.3 377.71,154.49 376.94,155.69C376.17,156.88 375.43,158.08 374.68,159.27C373.93,160.47 373.19,161.67 372.43,162.86C371.66,164.06 370.89,165.26 370.08,166.45C369.26,167.65 368.41,168.85 367.52,170.04C366.62,171.25 365.67,172.44 364.72,173.63C363.76,174.83 362.75,176.02 361.79,177.22C360.83,178.41 359.84,179.6 358.95,180.81C358.09,181.99 357.22,183.17 356.53,184.39C355.88,185.56 355.27,186.76 354.9,187.98C354.54,189.15 354.32,190.37 354.31,191.57C354.3,192.77 354.51,193.98 354.81,195.16C355.12,196.37 355.65,197.57 356.17,198.75C356.7,199.96 357.36,201.14 357.95,202.34C358.53,203.53 359.16,204.72 359.68,205.92C360.2,207.11 360.67,208.3 361.08,209.51C361.49,210.7 361.8,211.9 362.15,213.1C362.5,214.3 362.78,215.5 363.17,216.69C363.57,217.9 363.98,219.1 364.53,220.28C365.1,221.5 365.77,222.7 366.54,223.87C367.35,225.1 368.3,226.29 369.28,227.46C370.3,228.68 371.45,229.85 372.57,231.04C373.71,232.24 374.93,233.43 376.08,234.63C377.22,235.82 378.38,237.01 379.45,238.22C380.49,239.4 381.5,240.59 382.41,241.81C383.28,242.99 384.1,244.18 384.81,245.4C385.5,246.58 386.11,247.78 386.64,248.99C387.15,250.17 387.58,251.37 387.95,252.57C388.31,253.76 388.59,254.96 388.83,256.16C389.07,257.35 389.24,258.55 389.38,259.75Q389.52,260.94 389.69,263.34Z" style="vector-effect: non-scaling-stroke; stroke-width: 2px; stroke: rgb(239, 85, 59); stroke-opacity: 1; fill: rgb(239, 85, 59); fill-opacity: 0.5;"/><path class="box" d="M68.44,197.55H87.55M68.44,214.24H87.55V178.68H68.44ZM78,214.24V264.01M78,178.68V140.32" style="vector-effect: non-scaling-stroke; stroke-width: 2px; stroke: rgb(239, 85, 59); stroke-opacity: 1; fill: rgb(239, 85, 59); fill-opacity: 0.5;"/><path class="box" d="M224.44,186.1H243.55M224.44,201.19H243.55V170.71H224.44ZM234,201.19V241.66M234,170.71V140.32" style="vector-effect: non-scaling-stroke; stroke-width: 2px; stroke: rgb(239, 85, 59); stroke-opacity: 1; fill: rgb(239, 85, 59); fill-opacity: 0.5;"/><path class="box" d="M380.44,193.82H399.55M380.44,212.45H399.55V177.97H380.44ZM390,212.45V241.66M390,177.97V152.25" style="vector-effect: non-scaling-stroke; stroke-width: 2px; stroke: rgb(239, 85, 59); stroke-opacity: 1; fill: rgb(239, 85, 59); fill-opacity: 0.5;"/><path class="mean" d="M68.44,196.44H87.55" style="fill: none; vector-effect: non-scaling-stroke; stroke-width: 2px; stroke-dasharray: 4px, 2px; stroke: rgb(239, 85, 59); stroke-opacity: 1;"/><path class="mean" d="M224.44,185.94H243.55" style="fill: none; vector-effect: non-scaling-stroke; stroke-width: 2px; stroke-dasharray: 4px, 2px; stroke: rgb(239, 85, 59); stroke-opacity: 1;"/><path class="mean" d="M380.44,195.37H399.55" style="fill: none; vector-effect: non-scaling-stroke; stroke-width: 2px; stroke-dasharray: 4px, 2px; stroke: rgb(239, 85, 59); stroke-opacity: 1;"/></g></g></g><g class="overplot"/><path class="xlines-above crisp" d="M0,0" style="fill: none;"/><path class="ylines-above crisp" d="M0,0" style="fill: none;"/><g class="overlines-above"/><g class="xaxislayer-above"><g class="x4tick"><text text-anchor="middle" x="0" y="833" transform="translate(730,0)" style="font-family: 'Open Sans', verdana, arial, sans-serif; font-size: 12px; fill: rgb(42, 63, 95); fill-opacity: 1; white-space: pre; opacity: 1;">&#60;=1</text></g><g class="x4tick"><text text-anchor="middle" x="0" y="833" transform="translate(886,0)" style="font-family: 'Open Sans', verdana, arial, sans-serif; font-size: 12px; fill: rgb(42, 63, 95); fill-opacity: 1; white-space: pre; opacity: 1;">(1, 2]</text></g><g class="x4tick"><text text-anchor="middle" x="0" y="833" transform="translate(1042,0)" style="font-family: 'Open Sans', verdana, arial, sans-serif; font-size: 12px; fill: rgb(42, 63, 95); fill-opacity: 1; white-space: pre; opacity: 1;">>2</text></g></g><g class="yaxislayer-above"><g class="y4tick"><text text-anchor="end" x="651" y="4.199999999999999" transform="translate(0,785.4100000000001)" style="font-family: 'Open Sans', verdana, arial, sans-serif; font-size: 12px; fill: rgb(42, 63, 95); fill-opacity: 1; white-space: pre; opacity: 1;">0</text></g><g class="y4tick"><text text-anchor="end" x="651" y="4.199999999999999" style="font-family: 'Open Sans', verdana, arial, sans-serif; font-size: 12px; fill: rgb(42, 63, 95); fill-opacity: 1; white-space: pre; opacity: 1;" transform="translate(0,725.8)">10</text></g><g class="y4tick"><text text-anchor="end" x="651" y="4.199999999999999" style="font-family: 'Open Sans', verdana, arial, sans-serif; font-size: 12px; fill: rgb(42, 63, 95); fill-opacity: 1; white-space: pre; opacity: 1;" transform="translate(0,666.19)">20</text></g><g class="y4tick"><text text-anchor="end" x="651" y="4.199999999999999" style="font-family: 'Open Sans', verdana, arial, sans-serif; font-size: 12px; fill: rgb(42, 63, 95); fill-opacity: 1; white-space: pre; opacity: 1;" transform="translate(0,606.58)">30</text></g><g class="y4tick"><text text-anchor="end" x="651" y="4.199999999999999" style="font-family: 'Open Sans', verdana, arial, sans-serif; font-size: 12px; fill: rgb(42, 63, 95); fill-opacity: 1; white-space: pre; opacity: 1;" transform="translate(0,546.97)">40</text></g></g><g class="overaxes-above"/></g></g><g class="polarlayer"/><g class="smithlayer"/><g class="ternarylayer"/><g class="geolayer"/><g class="funnelarealayer"/><g class="pielayer"/><g class="iciclelayer"/><g class="treemaplayer"/><g class="sunburstlayer"/><g class="glimages"/><defs id="topdefs-347531"><g class="clips"/></defs><g class="layer-above"><g class="imagelayer"/><g class="shapelayer"/></g><g class="infolayer"><g class="g-gtitle"><text class="gtitle" x="60" y="50" text-anchor="start" dy="0em" style="font-family: 'Open Sans', verdana, arial, sans-serif; font-size: 17px; fill: rgb(42, 63, 95); opacity: 1; font-weight: normal; white-space: pre;">selling_price Distributions</text></g><g class="g-xtitle"><text class="xtitle" x="314" y="447.8" text-anchor="middle" style="font-family: 'Open Sans', verdana, arial, sans-serif; font-size: 14px; fill: rgb(42, 63, 95); opacity: 1; font-weight: normal; white-space: pre;">Hardcover over Paperback</text></g><g class="g-x2title"><text class="x2title" x="886" y="447.8" text-anchor="middle" style="font-family: 'Open Sans', verdana, arial, sans-serif; font-size: 14px; fill: rgb(42, 63, 95); opacity: 1; font-weight: normal; white-space: pre;">Hardcover over Paperback</text></g><g class="g-x3title"><text class="x3title" x="314" y="861.8" text-anchor="middle" style="font-family: 'Open Sans', verdana, arial, sans-serif; font-size: 14px; fill: rgb(42, 63, 95); opacity: 1; font-weight: normal; white-space: pre;">Hardcover over Paperback</text></g><g class="g-x4title"><text class="x4title" x="886" y="861.8" text-anchor="middle" style="font-family: 'Open Sans', verdana, arial, sans-serif; font-size: 14px; fill: rgb(42, 63, 95); opacity: 1; font-weight: normal; white-space: pre;">Hardcover over Paperback</text></g><g class="g-ytitle"><text class="ytitle" transform="rotate(-90,40.465625,253.00000000000003)" x="40.465625" y="253.00000000000003" text-anchor="middle" style="font-family: 'Open Sans', verdana, arial, sans-serif; font-size: 14px; fill: rgb(42, 63, 95); opacity: 1; font-weight: normal; white-space: pre;">selling_price</text></g><g class="g-y2title"><text class="y2title" transform="rotate(-90,612.465625,253.00000000000003)" x="612.465625" y="253.00000000000003" text-anchor="middle" style="font-family: 'Open Sans', verdana, arial, sans-serif; font-size: 14px; fill: rgb(42, 63, 95); opacity: 1; font-weight: normal; white-space: pre;">selling_price</text></g><g class="g-y3title"><text class="y3title" transform="rotate(-90,40.465625,667)" x="40.465625" y="667" text-anchor="middle" style="font-family: 'Open Sans', verdana, arial, sans-serif; font-size: 14px; fill: rgb(42, 63, 95); opacity: 1; font-weight: normal; white-space: pre;">selling_price</text></g><g class="g-y4title"><text class="y4title" transform="rotate(-90,612.465625,667)" x="612.465625" y="667" text-anchor="middle" style="font-family: 'Open Sans', verdana, arial, sans-serif; font-size: 14px; fill: rgb(42, 63, 95); opacity: 1; font-weight: normal; white-space: pre;">selling_price</text></g><g class="annotation" data-index="0" style="opacity: 1;"><g class="annotation-text-g" transform="rotate(0,314,87)"><g class="cursor-pointer" transform="translate(202,74)"><rect class="bg" x="0.5" y="0.5" width="224" height="25" style="stroke-width: 1px; stroke: rgb(0, 0, 0); stroke-opacity: 0; fill: rgb(0, 0, 0); fill-opacity: 0;"/><text class="annotation-text" text-anchor="middle" x="112.578125" y="19" style="font-family: 'Open Sans', verdana, arial, sans-serif; font-size: 16px; fill: rgb(42, 63, 95); fill-opacity: 1; white-space: pre;">Paperback (Paperback Better)</text></g></g></g><g class="annotation" data-index="1" style="opacity: 1;"><g class="annotation-text-g" transform="rotate(0,886,87)"><g class="cursor-pointer" transform="translate(774,74)"><rect class="bg" x="0.5" y="0.5" width="223" height="25" style="stroke-width: 1px; stroke: rgb(0, 0, 0); stroke-opacity: 0; fill: rgb(0, 0, 0); fill-opacity: 0;"/><text class="annotation-text" text-anchor="middle" x="112.203125" y="19" style="font-family: 'Open Sans', verdana, arial, sans-serif; font-size: 16px; fill: rgb(42, 63, 95); fill-opacity: 1; white-space: pre;">Hardcover (Paperback Better)</text></g></g></g><g class="annotation" data-index="2" style="opacity: 1;"><g class="annotation-text-g" transform="rotate(0,314,501)"><g class="cursor-pointer" transform="translate(202,488)"><rect class="bg" x="0.5" y="0.5" width="223" height="25" style="stroke-width: 1px; stroke: rgb(0, 0, 0); stroke-opacity: 0; fill: rgb(0, 0, 0); fill-opacity: 0;"/><text class="annotation-text" text-anchor="middle" x="112.203125" y="19" style="font-family: 'Open Sans', verdana, arial, sans-serif; font-size: 16px; fill: rgb(42, 63, 95); fill-opacity: 1; white-space: pre;">Paperback (Hardcover Better)</text></g></g></g><g class="annotation" data-index="3" style="opacity: 1;"><g class="annotation-text-g" transform="rotate(0,886,501)"><g class="cursor-pointer" transform="translate(774,488)"><rect class="bg" x="0.5" y="0.5" width="223" height="25" style="stroke-width: 1px; stroke: rgb(0, 0, 0); stroke-opacity: 0; fill: rgb(0, 0, 0); fill-opacity: 0;"/><text class="annotation-text" text-anchor="middle" x="111.828125" y="19" style="font-family: 'Open Sans', verdana, arial, sans-serif; font-size: 16px; fill: rgb(42, 63, 95); fill-opacity: 1; white-space: pre;">Hardcover (Hardcover Better)</text></g></g></g></g></svg>