<svg class="main-svg" xmlns="http://www.w3.org/2000/svg" xmlns:xlink="http://www.w3.org/1999/xlink" width="1200" height="900" style="" viewBox="0 0 1200 900"><rect x="0" y="0" width="1200" height="900" style="fill: rgb(255, 255, 255); fill-opacity: 1;"/><defs id="defs-f9898d"><g class="clips"><clipPath id="clipf9898dxyplot" class="plotclip"><rect width="468" height="306.00000000000006"/></clipPath><clipPath id="clipf9898dx2y2plot" class="plotclip"><rect width="467.99999999999994" height="306.00000000000006"/></clipPath><clipPath id="clipf9898dx3y3plot" class="plotclip"><rect width="468" height="306"/></clipPath><clipPath id="clipf9898dx4y4plot" class="plotclip"><rect width="467.99999999999994" height="306"/></clipPath><clipPath class="axesclip" id="clipf9898dx"><rect x="80" y="0" width="468" height="900"/></clipPath><clipPath class="axesclip" id="clipf9898dy"><rect x="0" y="100" width="1200" height="306.00000000000006"/></clipPath><clipPath class="axesclip" id="clipf9898dxy"><rect x="80" y="100" width="468" height="306.00000000000006"/></clipPath><clipPath class="axesclip" id="clipf9898dy2"><rect x="0" y="100" width="1200" height="306.00000000000006"/></clipPath><clipPath class="axesclip" id="clipf9898dxy2"><rect x="80" y="100" width="468" height="306.00000000000006"/></clipPath><clipPath class="axesclip" id="clipf9898dy3"><rect x="0" y="514" width="1200" height="306"/></clipPath><clipPath class="axesclip" id="clipf9898dxy3"><rect x="80" y="514" width="468" height="306"/></clipPath><clipPath class="axesclip" id="clipf9898dy4"><rect x="0" y="514" width="1200" height="306"/></clipPath><clipPath class="axesclip" id="clipf9898dxy4"><rect x="80" y="514" width="468" height="306"/></clipPath><clipPath class="axesclip" id="clipf9898dx2"><rect x="652" y="0" width="467.99999999999994" height="900"/></clipPath><clipPath class="axesclip" id="clipf9898dx2y"><rect x="652" y="100" width="467.99999999999994" height="306.00000000000006"/></clipPath><clipPath class="axesclip" id="clipf9898dx2y2"><rect x="652" y="100" width="467.99999999999994" height="306.00000000000006"/></clipPath><clipPath class="axesclip" id="clipf9898dx2y3"><rect x="652" y="514" width="467.99999999999994" height="306"/></clipPath><clipPath class="axesclip" id="clipf9898dx2y4"><rect x="652" y="514" width="467.99999999999994" height="306"/></clipPath><clipPath class="axesclip" id="clipf9898dx3"><rect x="80" y="0" width="468" height="900"/></clipPath><clipPath class="axesclip" id="clipf9898dx3y"><rect x="80" y="100" width="468" height="306.00000000000006"/></clipPath><clipPath class="axesclip" id="clipf9898dx3y2"><rect x="80" y="100" width="468" height="306.00000000000006"/></clipPath><clipPath class="axesclip" id="clipf9898dx3y3"><rect x="80" y="514" width="468" height="306"/></clipPath><clipPath class="axesclip" id="clipf9898dx3y4"><rect x="80" y="514" width="468" height="306"/></clipPath><clipPath class="axesclip" id="clipf9898dx4"><rect x="652" y="0" width="467.99999999999994" height="900"/></clipPath><clipPath class="axesclip" id="clipf9898dx4y"><rect x="652" y="100" width="467.99999999999994" height="306.00000000000006"/></clipPath><clipPath class="axesclip" id="clipf9898dx4y2"><rect x="652" y="100" width="467.99999999999994" height="306.00000000000006"/></clipPath><clipPath class="axesclip" id="clipf9898dx4y3"><rect x="652" y="514" width="467.99999999999994" height="306"/></clipPath><clipPath class="axesclip" id="clipf9898dx4y4"><rect x="652" y="514" width="467.99999999999994" height="306"/></clipPath></g><g class="gradients"/><g class="patterns"/></defs><g class="bglayer"><rect class="bg" x="80" y="100" width="468" height="306.00000000000006" style="fill: rgb(229, 236, 246); fill-opacity: 1; stroke-width: 0;"/><rect class="bg" x="652" y="100" width="467.99999999999994" height="306.00000000000006" style="fill: rgb(229, 236, 246); fill-opacity: 1; stroke-width: 0;"/><rect class="bg" x="80" y="514" width="468" height="306" style="fill: rgb(229, 236, 246); fill-opacity: 1; stroke-width: 0;"/><rect class="bg" x="652" y="514" width="467.99999999999994" height="306" style="fill: rgb(229, 236, 246); fill-opacity: 1; stroke-width: 0;"/></g><g class="layer-below"><g class="imagelayer"/><g class="shapelayer"/></g><g class="cartesianlayer"><g class="subplot xy"><g class="layer-subplot"><g class="shapelayer"/><g class="imagelayer"/></g><g class="minor-gridlayer"><g class="x"/><g class="y"/></g><g class="gridlayer"><g class="x"/><g class="y"><path class="ygrid crisp" transform="translate(0,400.37)" d="M80,0h468" style="stroke: rgb(255, 255, 255); stroke-opacity: 1; stroke-width: 1px;"/><path class="ygrid crisp" transform="translate(0,305.28)" d="M80,0h468" style="stroke: rgb(255, 255, 255); stroke-opacity: 1; stroke-width: 1px;"/><path class="ygrid crisp" transform="translate(0,257.73)" d="M80,0h468" style="stroke: rgb(255, 255, 255); stroke-opacity: 1; stroke-width: 1px;"/><path class="ygrid crisp" transform="translate(0,210.18)" d="M80,0h468" style="stroke: rgb(255, 255, 255); stroke-opacity: 1; stroke-width: 1px;"/><path class="ygrid crisp" transform="translate(0,162.63)" d="M80,0h468" style="stroke: rgb(255, 255, 255); stroke-opacity: 1; stroke-width: 1px;"/><path class="ygrid crisp" transform="translate(0,115.08)" d="M80,0h468" style="stroke: rgb(255, 255, 255); stroke-opacity: 1; stroke-width: 1px;"/></g></g><g class="zerolinelayer"><path class="yzl zl crisp" transform="translate(0,352.82)" d="M80,0h468" style="stroke: rgb(255, 255, 255); stroke-opacity: 1; stroke-width: 2px;"/></g><path class="xlines-below"/><path class="ylines-below"/><g class="overlines-below"/><g class="xaxislayer-below"/><g class="yaxislayer-below"/><g class="overaxes-below"/><g class="plot" transform="translate(80,100)" clip-path="url(#clipf9898dxyplot)"><g class="violinlayer mlayer"><g class="trace violins" style="opacity: 1;"><path class="violin" d="M79.03,254.38Q79.7,254.19 80.11,254.11C80.64,254.01 81.26,253.92 81.93,253.84C82.74,253.74 83.67,253.65 84.63,253.56C85.74,253.46 86.97,253.38 88.21,253.29C89.55,253.19 90.98,253.1 92.38,253.01C93.79,252.92 95.27,252.83 96.65,252.74C97.94,252.65 99.25,252.57 100.41,252.47C101.42,252.38 102.41,252.3 103.22,252.19C103.85,252.11 104.47,252.04 104.88,251.92C105.14,251.84 105.45,251.76 105.5,251.64C105.53,251.56 105.45,251.45 105.38,251.37C105.28,251.26 105.05,251.19 104.88,251.1C104.69,251.01 104.48,250.92 104.3,250.82C104.13,250.73 103.96,250.65 103.83,250.55C103.72,250.47 103.62,250.38 103.55,250.28C103.49,250.19 103.46,250.09 103.43,250C103.4,249.91 103.4,249.82 103.37,249.73C103.34,249.64 103.32,249.54 103.27,249.45C103.21,249.35 103.13,249.26 103.03,249.18C102.91,249.08 102.74,248.99 102.57,248.91C102.36,248.81 102.11,248.72 101.85,248.63C101.55,248.53 101.22,248.45 100.88,248.36C100.51,248.27 100.11,248.18 99.71,248.09C99.3,248 98.87,247.9 98.45,247.81C98.04,247.72 97.61,247.63 97.21,247.54C96.83,247.45 96.45,247.35 96.09,247.26C95.75,247.17 95.43,247.08 95.12,246.99C94.83,246.9 94.57,246.81 94.3,246.72C94.04,246.63 93.79,246.53 93.53,246.44C93.26,246.35 92.99,246.26 92.69,246.17C92.36,246.07 92,245.99 91.62,245.9C91.18,245.8 90.7,245.71 90.2,245.62C89.64,245.52 89.03,245.44 88.42,245.35C87.76,245.26 87.07,245.16 86.38,245.07C85.68,244.98 84.96,244.89 84.27,244.8C83.61,244.71 82.95,244.63 82.34,244.53C81.79,244.44 81.24,244.35 80.76,244.25C80.34,244.16 79.94,244.08 79.6,243.98C79.32,243.9 79.06,243.81 78.85,243.71Q78.68,243.63 78.41,243.43L77.59,243.43Q77.32,243.63 77.15,243.71C76.94,243.81 76.68,243.9 76.4,243.98C76.06,244.08 75.66,244.16 75.24,244.25C74.76,244.35 74.21,244.44 73.66,244.53C73.05,244.63 72.39,244.71 71.73,244.8C71.04,244.89 70.32,244.98 69.62,245.07C68.93,245.16 68.24,245.26 67.58,245.35C66.97,245.44 66.36,245.52 65.8,245.62C65.3,245.71 64.82,245.8 64.38,245.9C64,245.99 63.64,246.07 63.31,246.17C63.01,246.26 62.74,246.35 62.47,246.44C62.21,246.53 61.96,246.63 61.7,246.72C61.43,246.81 61.17,246.9 60.88,246.99C60.57,247.08 60.25,247.17 59.91,247.26C59.55,247.35 59.17,247.45 58.79,247.54C58.39,247.63 57.96,247.72 57.55,247.81C57.13,247.9 56.7,248 56.29,248.09C55.89,248.18 55.49,248.27 55.12,248.36C54.78,248.45 54.45,248.53 54.15,248.63C53.89,248.72 53.64,248.81 53.43,248.91C53.26,248.99 53.09,249.08 52.97,249.18C52.87,249.26 52.79,249.35 52.73,249.45C52.68,249.54 52.66,249.64 52.63,249.73C52.6,249.82 52.6,249.91 52.57,250C52.54,250.09 52.51,250.19 52.45,250.28C52.38,250.38 52.28,250.47 52.17,250.55C52.04,250.65 51.87,250.73 51.7,250.82C51.52,250.92 51.31,251.01 51.12,251.1C50.95,251.19 50.72,251.26 50.62,251.37C50.55,251.45 50.47,251.56 50.5,251.64C50.55,251.76 50.86,251.84 51.12,251.92C51.53,252.04 52.15,252.11 52.78,252.19C53.59,252.3 54.58,252.38 55.59,252.47C56.75,252.57 58.06,252.65 59.35,252.74C60.73,252.83 62.21,252.92 63.62,253.01C65.02,253.1 66.45,253.19 67.79,253.29C69.03,253.38 70.26,253.46 71.37,253.56C72.33,253.65 73.26,253.74 74.07,253.84C74.74,253.92 75.36,254.01 75.89,254.11Q76.3,254.19 76.97,254.38Z" style="vector-effect: non-scaling-stroke; stroke-width: 2px; stroke: rgb(99, 110, 250); stroke-opacity: 1; fill: rgb(99, 110, 250); fill-opacity: 0.5;"/><path class="violin" d="M235.16,253.86Q235.94,253.74 236.41,253.69C237.03,253.62 237.77,253.57 238.57,253.52C239.55,253.45 240.68,253.39 241.87,253.34C243.25,253.28 244.8,253.22 246.37,253.17C248.1,253.11 249.98,253.06 251.83,253C253.75,252.94 255.77,252.89 257.7,252.83C259.57,252.77 261.48,252.71 263.22,252.65C264.79,252.59 266.36,252.54 267.7,252.48C268.8,252.43 269.88,252.38 270.7,252.31C271.26,252.26 271.94,252.27 272.13,252.14C272.2,252.09 272.24,252.02 272.22,251.97C272.17,251.87 271.69,251.84 271.37,251.79C270.97,251.72 270.48,251.67 270.01,251.62C269.51,251.56 268.98,251.51 268.46,251.45C267.95,251.39 267.43,251.34 266.92,251.28C266.42,251.22 265.92,251.17 265.43,251.11C264.95,251.05 264.48,250.99 264,250.93C263.52,250.87 263.04,250.82 262.57,250.76C262.1,250.7 261.63,250.65 261.17,250.59C260.72,250.53 260.26,250.48 259.82,250.42C259.41,250.36 259,250.3 258.61,250.24C258.26,250.18 257.91,250.13 257.59,250.07C257.31,250.02 257.04,249.96 256.79,249.9C256.57,249.85 256.38,249.79 256.19,249.73C256.03,249.68 255.87,249.62 255.73,249.56C255.6,249.5 255.49,249.44 255.38,249.38C255.28,249.32 255.18,249.27 255.08,249.21C254.98,249.15 254.89,249.1 254.79,249.04C254.69,248.98 254.59,248.92 254.48,248.87C254.36,248.81 254.22,248.76 254.08,248.7C253.92,248.64 253.74,248.58 253.56,248.52C253.36,248.46 253.14,248.41 252.92,248.35C252.69,248.29 252.45,248.24 252.21,248.18C251.97,248.12 251.72,248.07 251.48,248.01C251.26,247.95 251.03,247.89 250.83,247.83C250.65,247.77 250.47,247.72 250.32,247.66C250.19,247.61 250.06,247.55 249.96,247.49C249.87,247.44 249.8,247.38 249.73,247.32C249.67,247.27 249.61,247.21 249.56,247.15C249.5,247.09 249.46,247.03 249.4,246.97C249.34,246.91 249.27,246.85 249.2,246.8C249.12,246.74 249.04,246.68 248.95,246.63C248.85,246.57 248.75,246.52 248.64,246.46C248.52,246.4 248.39,246.34 248.25,246.28C248.1,246.22 247.93,246.16 247.75,246.11C247.54,246.05 247.32,245.99 247.07,245.94C246.79,245.88 246.47,245.82 246.14,245.77C245.76,245.71 245.35,245.66 244.92,245.6C244.45,245.54 243.95,245.48 243.44,245.42C242.9,245.36 242.33,245.31 241.77,245.25C241.2,245.19 240.61,245.14 240.04,245.08C239.49,245.02 238.93,244.97 238.4,244.91C237.91,244.86 237.42,244.8 236.98,244.74C236.59,244.68 236.21,244.62 235.87,244.56C235.58,244.51 235.31,244.45 235.07,244.39C234.88,244.34 234.7,244.29 234.56,244.22Q234.45,244.17 234.27,244.05L233.73,244.05Q233.55,244.17 233.44,244.22C233.3,244.29 233.12,244.34 232.93,244.39C232.69,244.45 232.42,244.51 232.13,244.56C231.79,244.62 231.41,244.68 231.02,244.74C230.58,244.8 230.09,244.86 229.6,244.91C229.07,244.97 228.51,245.02 227.96,245.08C227.39,245.14 226.8,245.19 226.23,245.25C225.67,245.31 225.1,245.36 224.56,245.42C224.05,245.48 223.55,245.54 223.08,245.6C222.65,245.66 222.24,245.71 221.86,245.77C221.53,245.82 221.21,245.88 220.93,245.94C220.68,245.99 220.46,246.05 220.25,246.11C220.07,246.16 219.9,246.22 219.75,246.28C219.61,246.34 219.48,246.4 219.36,246.46C219.25,246.52 219.15,246.57 219.05,246.63C218.96,246.68 218.88,246.74 218.8,246.8C218.73,246.85 218.66,246.91 218.6,246.97C218.54,247.03 218.5,247.09 218.44,247.15C218.39,247.21 218.33,247.27 218.27,247.32C218.2,247.38 218.13,247.44 218.04,247.49C217.94,247.55 217.81,247.61 217.68,247.66C217.53,247.72 217.35,247.77 217.17,247.83C216.97,247.89 216.74,247.95 216.52,248.01C216.28,248.07 216.03,248.12 215.79,248.18C215.55,248.24 215.31,248.29 215.08,248.35C214.86,248.41 214.64,248.46 214.44,248.52C214.26,248.58 214.08,248.64 213.92,248.7C213.78,248.76 213.64,248.81 213.52,248.87C213.41,248.92 213.31,248.98 213.21,249.04C213.11,249.1 213.02,249.15 212.92,249.21C212.82,249.27 212.72,249.32 212.62,249.38C212.51,249.44 212.4,249.5 212.27,249.56C212.13,249.62 211.97,249.68 211.81,249.73C211.62,249.79 211.43,249.85 211.21,249.9C210.96,249.96 210.69,250.02 210.41,250.07C210.09,250.13 209.74,250.18 209.39,250.24C209,250.3 208.59,250.36 208.18,250.42C207.74,250.48 207.28,250.53 206.83,250.59C206.37,250.65 205.9,250.7 205.43,250.76C204.96,250.82 204.48,250.87 204,250.93C203.52,250.99 203.05,251.05 202.57,251.11C202.08,251.17 201.58,251.22 201.08,251.28C200.57,251.34 200.05,251.39 199.54,251.45C199.02,251.51 198.49,251.56 197.99,251.62C197.52,251.67 197.03,251.72 196.63,251.79C196.31,251.84 195.83,251.87 195.78,251.97C195.76,252.02 195.8,252.09 195.87,252.14C196.06,252.27 196.74,252.26 197.3,252.31C198.12,252.38 199.2,252.43 200.3,252.48C201.64,252.54 203.21,252.59 204.78,252.65C206.52,252.71 208.43,252.77 210.3,252.83C212.23,252.89 214.25,252.94 216.17,253C218.02,253.06 219.9,253.11 221.63,253.17C223.2,253.22 224.75,253.28 226.13,253.34C227.32,253.39 228.45,253.45 229.43,253.52C230.23,253.57 230.97,253.62 231.59,253.69Q232.06,253.74 232.84,253.86Z" style="vector-effect: non-scaling-stroke; stroke-width: 2px; stroke: rgb(99, 110, 250); stroke-opacity: 1; fill: rgb(99, 110, 250); fill-opacity: 0.5;"/><path class="violin" d="M390.99,253.92Q391.64,253.79 392.04,253.73C392.55,253.66 393.16,253.61 393.82,253.55C394.63,253.48 395.57,253.42 396.56,253.36C397.71,253.29 399,253.24 400.32,253.18C401.78,253.12 403.37,253.06 404.95,253C406.62,252.94 408.38,252.87 410.09,252.81C411.79,252.75 413.54,252.69 415.18,252.63C416.72,252.57 418.26,252.51 419.66,252.44C420.89,252.38 422.09,252.33 423.11,252.26C423.92,252.21 424.72,252.16 425.29,252.08C425.66,252.03 426.17,251.99 426.2,251.89C426.22,251.84 426.12,251.76 426.02,251.71C425.83,251.61 425.4,251.58 425.04,251.52C424.61,251.45 424.11,251.4 423.62,251.34C423.11,251.28 422.56,251.22 422.04,251.16C421.53,251.1 421.01,251.03 420.52,250.97C420.05,250.91 419.58,250.85 419.14,250.79C418.72,250.73 418.32,250.66 417.93,250.6C417.56,250.54 417.2,250.48 416.86,250.42C416.54,250.36 416.22,250.3 415.92,250.24C415.64,250.18 415.37,250.11 415.1,250.05C414.85,249.99 414.6,249.93 414.36,249.87C414.12,249.81 413.9,249.74 413.66,249.68C413.42,249.62 413.18,249.56 412.93,249.5C412.67,249.44 412.41,249.38 412.15,249.32C411.88,249.26 411.59,249.19 411.32,249.13C411.05,249.07 410.78,249.01 410.53,248.95C410.29,248.89 410.05,248.84 409.84,248.77C409.66,248.71 409.48,248.65 409.34,248.58C409.22,248.52 409.11,248.47 409.03,248.4C408.96,248.34 408.91,248.27 408.86,248.21C408.82,248.15 408.79,248.09 408.75,248.03C408.71,247.97 408.68,247.91 408.63,247.85C408.58,247.78 408.51,247.72 408.44,247.66C408.37,247.6 408.28,247.54 408.2,247.48C408.11,247.42 408.02,247.35 407.93,247.29C407.83,247.23 407.73,247.17 407.63,247.11C407.52,247.05 407.4,246.99 407.28,246.93C407.14,246.87 407,246.8 406.85,246.74C406.68,246.67 406.49,246.62 406.29,246.56C406.06,246.49 405.81,246.43 405.55,246.37C405.26,246.3 404.96,246.25 404.64,246.19C404.29,246.13 403.92,246.07 403.54,246.01C403.13,245.95 402.71,245.88 402.28,245.82C401.82,245.76 401.35,245.7 400.87,245.64C400.37,245.58 399.85,245.51 399.32,245.45C398.78,245.39 398.21,245.33 397.66,245.27C397.1,245.21 396.54,245.15 395.99,245.09C395.45,245.03 394.91,244.96 394.4,244.9C393.92,244.84 393.45,244.79 393.02,244.72C392.63,244.66 392.25,244.6 391.91,244.53C391.62,244.47 391.35,244.42 391.11,244.35C390.92,244.29 390.74,244.24 390.59,244.17Q390.47,244.11 390.29,243.98L389.71,243.98Q389.53,244.11 389.41,244.17C389.26,244.24 389.08,244.29 388.89,244.35C388.65,244.42 388.38,244.47 388.09,244.53C387.75,244.6 387.37,244.66 386.98,244.72C386.55,244.79 386.08,244.84 385.6,244.9C385.09,244.96 384.55,245.03 384.01,245.09C383.46,245.15 382.9,245.21 382.34,245.27C381.79,245.33 381.22,245.39 380.68,245.45C380.15,245.51 379.63,245.58 379.13,245.64C378.65,245.7 378.18,245.76 377.72,245.82C377.29,245.88 376.87,245.95 376.46,246.01C376.08,246.07 375.71,246.13 375.36,246.19C375.04,246.25 374.74,246.3 374.45,246.37C374.19,246.43 373.94,246.49 373.71,246.56C373.51,246.62 373.32,246.67 373.15,246.74C373,246.8 372.86,246.87 372.72,246.93C372.6,246.99 372.48,247.05 372.37,247.11C372.27,247.17 372.17,247.23 372.07,247.29C371.98,247.35 371.89,247.42 371.8,247.48C371.72,247.54 371.63,247.6 371.56,247.66C371.49,247.72 371.42,247.78 371.37,247.85C371.32,247.91 371.29,247.97 371.25,248.03C371.21,248.09 371.18,248.15 371.14,248.21C371.09,248.27 371.04,248.34 370.97,248.4C370.89,248.47 370.78,248.52 370.66,248.58C370.52,248.65 370.34,248.71 370.16,248.77C369.95,248.84 369.71,248.89 369.47,248.95C369.22,249.01 368.95,249.07 368.68,249.13C368.41,249.19 368.12,249.26 367.85,249.32C367.59,249.38 367.33,249.44 367.07,249.5C366.82,249.56 366.58,249.62 366.34,249.68C366.1,249.74 365.88,249.81 365.64,249.87C365.4,249.93 365.15,249.99 364.9,250.05C364.63,250.11 364.36,250.18 364.08,250.24C363.78,250.3 363.46,250.36 363.14,250.42C362.8,250.48 362.44,250.54 362.07,250.6C361.68,250.66 361.28,250.73 360.86,250.79C360.42,250.85 359.95,250.91 359.48,250.97C358.99,251.03 358.47,251.1 357.96,251.16C357.44,251.22 356.89,251.28 356.38,251.34C355.89,251.4 355.39,251.45 354.96,251.52C354.6,251.58 354.17,251.61 353.98,251.71C353.88,251.76 353.78,251.84 353.8,251.89C353.83,251.99 354.34,252.03 354.71,252.08C355.28,252.16 356.08,252.21 356.89,252.26C357.91,252.33 359.11,252.38 360.34,252.44C361.74,252.51 363.28,252.57 364.82,252.63C366.46,252.69 368.21,252.75 369.91,252.81C371.62,252.87 373.38,252.94 375.05,253C376.63,253.06 378.22,253.12 379.68,253.18C381,253.24 382.29,253.29 383.44,253.36C384.43,253.42 385.37,253.48 386.18,253.55C386.84,253.61 387.45,253.66 387.96,253.73Q388.36,253.79 389.01,253.92Z" style="vector-effect: non-scaling-stroke; stroke-width: 2px; stroke: rgb(99, 110, 250); stroke-opacity: 1; fill: rgb(99, 110, 250); fill-opacity: 0.5;"/><path class="box" d="M68.45,249.64H87.56M68.45,251.41H87.56V247.96H68.45ZM78,251.41V252.73M78,247.96V245.08" style="vector-effect: non-scaling-stroke; stroke-width: 2px; stroke: rgb(99, 110, 250); stroke-opacity: 1; fill: rgb(99, 110, 250); fill-opacity: 0.5;"/><path class="box" d="M224.45,250.39H243.56M224.45,251.86H243.56V248.2H224.45ZM234,251.86V252.82M234,248.2V245.08" style="vector-effect: non-scaling-stroke; stroke-width: 2px; stroke: rgb(99, 110, 250); stroke-opacity: 1; fill: rgb(99, 110, 250); fill-opacity: 0.5;"/><path class="box" d="M380.45,250.17H399.55M380.45,251.67H399.55V247.98H380.45ZM390,251.67V252.8M390,247.98V245.09" style="vector-effect: non-scaling-stroke; stroke-width: 2px; stroke: rgb(99, 110, 250); stroke-opacity: 1; fill: rgb(99, 110, 250); fill-opacity: 0.5;"/><path class="mean" d="M68.45,249.51H87.56" style="fill: none; vector-effect: non-scaling-stroke; stroke-width: 2px; stroke-dasharray: 4px, 2px; stroke: rgb(99, 110, 250); stroke-opacity: 1;"/><path class="mean" d="M224.45,249.89H243.56" style="fill: none; vector-effect: non-scaling-stroke; stroke-width: 2px; stroke-dasharray: 4px, 2px; stroke: rgb(99, 110, 250); stroke-opacity: 1;"/><path class="mean" d="M380.45,249.77H399.55" style="fill: none; vector-effect: non-scaling-stroke; stroke-width: 2px; stroke-dasharray: 4px, 2px; stroke: rgb(99, 110, 250); stroke-opacity: 1;"/></g></g></g><g class="overplot"/><path class="xlines-above crisp" d="M0,0" style="fill: none;"/><path class="ylines-above crisp" d="M0,0" style="fill: none;"/><g class="overlines-above"/><g class="xaxislayer-above"><g class="xtick"><text text-anchor="middle" x="0" y="419.00000000000006" transform="translate(158,0)" style="font-family: 'Open Sans', verdana, arial, sans-serif; font-size: 12px; fill: rgb(42, 63, 95); fill-opacity: 1; white-space: pre; opacity: 1;">&#60;=1</text></g><g class="xtick"><text text-anchor="middle" x="0" y="419.00000000000006" transform="translate(314,0)" style="font-family: 'Open Sans', verdana, arial, sans-serif; font-size: 12px; fill: rgb(42, 63, 95); fill-opacity: 1; white-space: pre; opacity: 1;">(1, 2]</text></g><g class="xtick"><text text-anchor="middle" x="0" y="419.00000000000006" transform="translate(470,0)" style="font-family: 'Open Sans', verdana, arial, sans-serif; font-size: 12px; fill: rgb(42, 63, 95); fill-opacity: 1; white-space: pre; opacity: 1;">>2</text></g></g><g class="yaxislayer-above"><g class="ytick"><text text-anchor="end" x="79" y="4.199999999999999" transform="translate(0,400.37)" style="font-family: 'Open Sans', verdana, arial, sans-serif; font-size: 12px; fill: rgb(42, 63, 95); fill-opacity: 1; white-space: pre; opacity: 1;">−0.5M</text></g><g class="ytick"><text text-anchor="end" x="79" y="4.199999999999999" style="font-family: 'Open Sans', verdana, arial, sans-serif; font-size: 12px; fill: rgb(42, 63, 95); fill-opacity: 1; white-space: pre; opacity: 1;" transform="translate(0,352.82)">0</text></g><g class="ytick"><text text-anchor="end" x="79" y="4.199999999999999" style="font-family: 'Open Sans', verdana, arial, sans-serif; font-size: 12px; fill: rgb(42, 63, 95); fill-opacity: 1; white-space: pre; opacity: 1;" transform="translate(0,305.28)">0.5M</text></g><g class="ytick"><text text-anchor="end" x="79" y="4.199999999999999" style="font-family: 'Open Sans', verdana, arial, sans-serif; font-size: 12px; fill: rgb(42, 63, 95); fill-opacity: 1; white-space: pre; opacity: 1;" transform="translate(0,257.73)">1M</text></g><g class="ytick"><text text-anchor="end" x="79" y="4.199999999999999" style="font-family: 'Open Sans', verdana, arial, sans-serif; font-size: 12px; fill: rgb(42, 63, 95); fill-opacity: 1; white-space: pre; opacity: 1;" transform="translate(0,210.18)">1.5M</text></g><g class="ytick"><text text-anchor="end" x="79" y="4.199999999999999" style="font-family: 'Open Sans', verdana, arial, sans-serif; font-size: 12px; fill: rgb(42, 63, 95); fill-opacity: 1; white-space: pre; opacity: 1;" transform="translate(0,162.63)">2M</text></g><g class="ytick"><text text-anchor="end" x="79" y="4.199999999999999" style="font-family: 'Open Sans', verdana, arial, sans-serif; font-size: 12px; fill: rgb(42, 63, 95); fill-opacity: 1; white-space: pre; opacity: 1;" transform="translate(0,115.08)">2.5M</text></g></g><g class="overaxes-above"/></g><g class="subplot x2y2"><g class="layer-subplot"><g class="shapelayer"/><g class="imagelayer"/></g><g class="minor-gridlayer"><g class="x2"/><g class="y2"/></g><g class="gridlayer"><g class="x2"/><g class="y2"><path class="y2grid crisp" transform="translate(0,400.37)" d="M652,0h467.99999999999994" style="stroke: rgb(255, 255, 255); stroke-opacity: 1; stroke-width: 1px;"/><path class="y2grid crisp" transform="translate(0,305.28)" d="M652,0h467.99999999999994" style="stroke: rgb(255, 255, 255); stroke-opacity: 1; stroke-width: 1px;"/><path class="y2grid crisp" transform="translate(0,257.73)" d="M652,0h467.99999999999994" style="stroke: rgb(255, 255, 255); stroke-opacity: 1; stroke-width: 1px;"/><path class="y2grid crisp" transform="translate(0,210.18)" d="M652,0h467.99999999999994" style="stroke: rgb(255, 255, 255); stroke-opacity: 1; stroke-width: 1px;"/><path class="y2grid crisp" transform="translate(0,162.63)" d="M652,0h467.99999999999994" style="stroke: rgb(255, 255, 255); stroke-opacity: 1; stroke-width: 1px;"/><path class="y2grid crisp" transform="translate(0,115.08)" d="M652,0h467.99999999999994" style="stroke: rgb(255, 255, 255); stroke-opacity: 1; stroke-width: 1px;"/></g></g><g class="zerolinelayer"><path class="y2zl zl crisp" transform="translate(0,352.82)" d="M652,0h467.99999999999994" style="stroke: rgb(255, 255, 255); stroke-opacity: 1; stroke-width: 2px;"/></g><path class="xlines-below"/><path class="ylines-below"/><g class="overlines-below"/><g class="xaxislayer-below"/><g class="yaxislayer-below"/><g class="overaxes-below"/><g class="plot" transform="translate(652,100)" clip-path="url(#clipf9898dx2y2plot)"><g class="violinlayer mlayer"><g class="trace violins" style="opacity: 1;"><path class="violin" d="M78.1,275.09Q78.16,272.58 78.21,271.33C78.26,270.08 78.32,268.83 78.4,267.58C78.48,266.33 78.57,265.08 78.67,263.83C78.78,262.58 78.9,261.32 79.03,260.07C79.16,258.82 79.3,257.57 79.43,256.32C79.56,255.07 79.71,253.82 79.83,252.57C79.95,251.32 80.06,250.06 80.14,248.81C80.22,247.56 80.29,246.31 80.33,245.06C80.37,243.81 80.37,242.55 80.35,241.3C80.33,240.05 80.29,238.8 80.24,237.55C80.19,236.3 80.12,235.05 80.05,233.8C79.98,232.55 79.9,231.29 79.82,230.04C79.75,228.79 79.67,227.54 79.6,226.29C79.53,225.04 79.47,223.78 79.42,222.53C79.37,221.28 79.32,220.03 79.28,218.78C79.24,217.53 79.19,216.28 79.16,215.03C79.12,213.78 79.1,212.52 79.07,211.27C79.04,210.02 79.01,208.77 78.98,207.52C78.95,206.27 78.94,205.01 78.91,203.76C78.89,202.51 78.85,201.26 78.83,200.01C78.81,198.76 78.79,197.51 78.77,196.26C78.75,195.01 78.74,193.75 78.72,192.5C78.7,191.25 78.69,190 78.67,188.75C78.65,187.5 78.64,186.25 78.62,185C78.6,183.75 78.59,182.49 78.57,181.24C78.55,179.99 78.54,178.74 78.52,177.49C78.5,176.24 78.49,174.98 78.47,173.73C78.45,172.48 78.44,171.23 78.42,169.98C78.41,168.73 78.39,167.48 78.38,166.23C78.37,164.98 78.35,163.72 78.34,162.47C78.33,161.22 78.33,159.97 78.32,158.72C78.31,157.47 78.31,156.21 78.3,154.96C78.29,153.71 78.29,152.46 78.28,151.21C78.28,149.96 78.27,148.71 78.27,147.46C78.27,146.21 78.27,144.95 78.26,143.7C78.26,142.45 78.25,141.2 78.24,139.95C78.23,138.7 78.23,137.45 78.22,136.2C78.21,134.95 78.2,133.69 78.19,132.44C78.18,131.19 78.18,129.94 78.17,128.69C78.16,127.44 78.15,126.18 78.14,124.93C78.13,123.68 78.12,122.43 78.11,121.18C78.1,119.93 78.09,118.68 78.08,117.43C78.07,116.18 78.07,114.92 78.06,113.67C78.05,112.42 78.04,111.17 78.04,109.92C78.03,108.67 78.03,107.41 78.03,106.16C78.03,104.91 78.02,103.66 78.02,102.41C78.02,101.16 78.01,99.91 78.01,98.66C78.01,97.41 78.01,96.15 78.01,94.9Q78.01,93.65 78,91.15L78,91.15Q77.99,93.65 77.99,94.9C77.99,96.15 77.99,97.41 77.99,98.66C77.99,99.91 77.98,101.16 77.98,102.41C77.98,103.66 77.97,104.91 77.97,106.16C77.97,107.41 77.97,108.67 77.96,109.92C77.96,111.17 77.95,112.42 77.94,113.67C77.93,114.92 77.93,116.18 77.92,117.43C77.91,118.68 77.9,119.93 77.89,121.18C77.88,122.43 77.87,123.68 77.86,124.93C77.85,126.18 77.84,127.44 77.83,128.69C77.82,129.94 77.82,131.19 77.81,132.44C77.8,133.69 77.79,134.95 77.78,136.2C77.77,137.45 77.77,138.7 77.76,139.95C77.75,141.2 77.74,142.45 77.74,143.7C77.73,144.95 77.73,146.21 77.73,147.46C77.73,148.71 77.72,149.96 77.72,151.21C77.71,152.46 77.71,153.71 77.7,154.96C77.69,156.21 77.69,157.47 77.68,158.72C77.67,159.97 77.67,161.22 77.66,162.47C77.65,163.72 77.63,164.98 77.62,166.23C77.61,167.48 77.59,168.73 77.58,169.98C77.56,171.23 77.55,172.48 77.53,173.73C77.51,174.98 77.5,176.24 77.48,177.49C77.46,178.74 77.45,179.99 77.43,181.24C77.41,182.49 77.4,183.75 77.38,185C77.36,186.25 77.35,187.5 77.33,188.75C77.31,190 77.3,191.25 77.28,192.5C77.26,193.75 77.25,195.01 77.23,196.26C77.21,197.51 77.19,198.76 77.17,200.01C77.15,201.26 77.11,202.51 77.09,203.76C77.06,205.01 77.05,206.27 77.02,207.52C76.99,208.77 76.96,210.02 76.93,211.27C76.9,212.52 76.88,213.78 76.84,215.03C76.81,216.28 76.76,217.53 76.72,218.78C76.68,220.03 76.63,221.28 76.58,222.53C76.53,223.78 76.47,225.04 76.4,226.29C76.33,227.54 76.25,228.79 76.18,230.04C76.1,231.29 76.02,232.55 75.95,233.8C75.88,235.05 75.81,236.3 75.76,237.55C75.71,238.8 75.67,240.05 75.65,241.3C75.63,242.55 75.63,243.81 75.67,245.06C75.71,246.31 75.78,247.56 75.86,248.81C75.94,250.06 76.05,251.32 76.17,252.57C76.29,253.82 76.44,255.07 76.57,256.32C76.7,257.57 76.84,258.82 76.97,260.07C77.1,261.32 77.22,262.58 77.33,263.83C77.43,265.08 77.52,266.33 77.6,267.58C77.68,268.83 77.74,270.08 77.79,271.33Q77.84,272.58 77.9,275.09Z" style="vector-effect: non-scaling-stroke; stroke-width: 2px; stroke: rgb(239, 85, 59); stroke-opacity: 1; fill: rgb(239, 85, 59); fill-opacity: 0.5;"/><path class="violin" d="M234.11,266.97Q234.19,265.4 234.24,264.62C234.3,263.84 234.35,263.05 234.44,262.27C234.53,261.49 234.64,260.7 234.76,259.92C234.88,259.14 235.03,258.35 235.18,257.57C235.33,256.79 235.51,256 235.68,255.22C235.85,254.43 236.04,253.65 236.2,252.86C236.36,252.08 236.52,251.3 236.65,250.51C236.78,249.73 236.88,248.94 236.96,248.16C237.03,247.38 237.09,246.59 237.1,245.81C237.11,245.03 237.09,244.24 237.05,243.46C237.01,242.67 236.95,241.89 236.87,241.1C236.8,240.32 236.69,239.53 236.6,238.75C236.5,237.97 236.4,237.18 236.3,236.4C236.21,235.62 236.11,234.83 236.03,234.05C235.95,233.27 235.87,232.48 235.8,231.7C235.73,230.91 235.68,230.13 235.63,229.34C235.58,228.56 235.54,227.77 235.5,226.99C235.46,226.21 235.43,225.42 235.4,224.64C235.37,223.86 235.34,223.07 235.31,222.29C235.28,221.51 235.25,220.72 235.23,219.94C235.2,219.15 235.19,218.37 235.16,217.58C235.14,216.8 235.1,216.01 235.08,215.23C235.06,214.45 235.04,213.66 235.02,212.88C235,212.1 234.97,211.31 234.95,210.53C234.93,209.75 234.91,208.96 234.89,208.18C234.87,207.4 234.84,206.61 234.82,205.83C234.8,205.04 234.78,204.26 234.76,203.47C234.74,202.69 234.72,201.9 234.7,201.12C234.68,200.34 234.67,199.55 234.65,198.77C234.63,197.99 234.62,197.2 234.6,196.42C234.59,195.64 234.57,194.85 234.56,194.07C234.55,193.28 234.55,192.5 234.54,191.71C234.53,190.93 234.53,190.14 234.52,189.36C234.52,188.58 234.51,187.79 234.51,187.01C234.51,186.23 234.5,185.44 234.5,184.66C234.5,183.88 234.49,183.09 234.49,182.31C234.48,181.52 234.48,180.74 234.47,179.95C234.46,179.17 234.46,178.38 234.45,177.6C234.44,176.82 234.44,176.03 234.43,175.25C234.42,174.47 234.42,173.68 234.41,172.9C234.41,172.12 234.4,171.33 234.4,170.55C234.4,169.77 234.39,168.98 234.39,168.2C234.39,167.41 234.38,166.63 234.38,165.84C234.38,165.06 234.37,164.27 234.37,163.49C234.37,162.71 234.36,161.92 234.36,161.14C234.36,160.36 234.35,159.57 234.35,158.79C234.35,158.01 234.34,157.22 234.34,156.44C234.34,155.65 234.34,154.87 234.33,154.08C234.33,153.3 234.32,152.51 234.31,151.73C234.3,150.95 234.3,150.16 234.29,149.38C234.28,148.6 234.28,147.81 234.27,147.03C234.26,146.25 234.26,145.46 234.25,144.68C234.24,143.89 234.24,143.11 234.23,142.32C234.22,141.54 234.22,140.75 234.21,139.97C234.21,139.19 234.2,138.4 234.2,137.62C234.2,136.84 234.19,136.05 234.19,135.27C234.19,134.49 234.18,133.7 234.18,132.92C234.18,132.14 234.17,131.35 234.17,130.57C234.17,129.78 234.16,129 234.16,128.21C234.16,127.43 234.15,126.64 234.15,125.86C234.15,125.08 234.14,124.29 234.14,123.51C234.14,122.73 234.13,121.94 234.13,121.16C234.13,120.38 234.13,119.59 234.13,118.81C234.13,118.02 234.13,117.24 234.13,116.45C234.13,115.67 234.13,114.88 234.13,114.1C234.13,113.32 234.12,112.53 234.12,111.75C234.12,110.97 234.12,110.18 234.12,109.4C234.12,108.62 234.12,107.83 234.12,107.05C234.12,106.26 234.11,105.48 234.11,104.69C234.11,103.91 234.1,103.12 234.1,102.34C234.09,101.56 234.09,100.77 234.08,99.99C234.08,99.21 234.07,98.42 234.07,97.64C234.06,96.86 234.06,96.07 234.05,95.29C234.05,94.51 234.04,93.72 234.04,92.94C234.03,92.15 234.03,91.37 234.02,90.58C234.02,89.8 234.01,89.01 234.01,88.23C234.01,87.45 234.01,86.66 234.01,85.88Q234.01,85.1 234,83.53L234,83.53Q233.99,85.1 233.99,85.88C233.99,86.66 233.99,87.45 233.99,88.23C233.99,89.01 233.98,89.8 233.98,90.58C233.97,91.37 233.97,92.15 233.96,92.94C233.96,93.72 233.95,94.51 233.95,95.29C233.94,96.07 233.94,96.86 233.93,97.64C233.93,98.42 233.92,99.21 233.92,99.99C233.91,100.77 233.91,101.56 233.9,102.34C233.9,103.12 233.89,103.91 233.89,104.69C233.89,105.48 233.88,106.26 233.88,107.05C233.88,107.83 233.88,108.62 233.88,109.4C233.88,110.18 233.88,110.97 233.88,111.75C233.88,112.53 233.87,113.32 233.87,114.1C233.87,114.88 233.87,115.67 233.87,116.45C233.87,117.24 233.87,118.02 233.87,118.81C233.87,119.59 233.87,120.38 233.87,121.16C233.87,121.94 233.86,122.73 233.86,123.51C233.86,124.29 233.85,125.08 233.85,125.86C233.85,126.64 233.84,127.43 233.84,128.21C233.84,129 233.83,129.78 233.83,130.57C233.83,131.35 233.82,132.14 233.82,132.92C233.82,133.7 233.81,134.49 233.81,135.27C233.81,136.05 233.8,136.84 233.8,137.62C233.8,138.4 233.79,139.19 233.79,139.97C233.78,140.75 233.78,141.54 233.77,142.32C233.76,143.11 233.76,143.89 233.75,144.68C233.74,145.46 233.74,146.25 233.73,147.03C233.72,147.81 233.72,148.6 233.71,149.38C233.7,150.16 233.7,150.95 233.69,151.73C233.68,152.51 233.67,153.3 233.67,154.08C233.66,154.87 233.66,155.65 233.66,156.44C233.66,157.22 233.65,158.01 233.65,158.79C233.65,159.57 233.64,160.36 233.64,161.14C233.64,161.92 233.63,162.71 233.63,163.49C233.63,164.27 233.62,165.06 233.62,165.84C233.62,166.63 233.61,167.41 233.61,168.2C233.61,168.98 233.6,169.77 233.6,170.55C233.6,171.33 233.59,172.12 233.59,172.9C233.58,173.68 233.58,174.47 233.57,175.25C233.56,176.03 233.56,176.82 233.55,177.6C233.54,178.38 233.54,179.17 233.53,179.95C233.52,180.74 233.52,181.52 233.51,182.31C233.51,183.09 233.5,183.88 233.5,184.66C233.5,185.44 233.49,186.23 233.49,187.01C233.49,187.79 233.48,188.58 233.48,189.36C233.47,190.14 233.47,190.93 233.46,191.71C233.45,192.5 233.45,193.28 233.44,194.07C233.43,194.85 233.41,195.64 233.4,196.42C233.38,197.2 233.37,197.99 233.35,198.77C233.33,199.55 233.32,200.34 233.3,201.12C233.28,201.9 233.26,202.69 233.24,203.47C233.22,204.26 233.2,205.04 233.18,205.83C233.16,206.61 233.13,207.4 233.11,208.18C233.09,208.96 233.07,209.75 233.05,210.53C233.03,211.31 233,212.1 232.98,212.88C232.96,213.66 232.94,214.45 232.92,215.23C232.9,216.01 232.86,216.8 232.84,217.58C232.81,218.37 232.8,219.15 232.77,219.94C232.75,220.72 232.72,221.51 232.69,222.29C232.66,223.07 232.63,223.86 232.6,224.64C232.57,225.42 232.54,226.21 232.5,226.99C232.46,227.77 232.42,228.56 232.37,229.34C232.32,230.13 232.27,230.91 232.2,231.7C232.13,232.48 232.05,233.27 231.97,234.05C231.89,234.83 231.79,235.62 231.7,236.4C231.6,237.18 231.5,237.97 231.4,238.75C231.31,239.53 231.2,240.32 231.13,241.1C231.05,241.89 230.99,242.67 230.95,243.46C230.91,244.24 230.89,245.03 230.9,245.81C230.91,246.59 230.97,247.38 231.04,248.16C231.12,248.94 231.22,249.73 231.35,250.51C231.48,251.3 231.64,252.08 231.8,252.86C231.96,253.65 232.15,254.43 232.32,255.22C232.49,256 232.67,256.79 232.82,257.57C232.97,258.35 233.12,259.14 233.24,259.92C233.36,260.7 233.47,261.49 233.56,262.27C233.65,263.05 233.7,263.84 233.76,264.62Q233.81,265.4 233.89,266.97Z" style="vector-effect: non-scaling-stroke; stroke-width: 2px; stroke: rgb(239, 85, 59); stroke-opacity: 1; fill: rgb(239, 85, 59); fill-opacity: 0.5;"/><path class="violin" d="M390.04,273.92Q390.07,271.52 390.09,270.32C390.11,269.12 390.14,267.93 390.18,266.73C390.22,265.53 390.26,264.33 390.31,263.13C390.36,261.93 390.43,260.74 390.5,259.54C390.57,258.34 390.65,257.14 390.73,255.94C390.81,254.74 390.89,253.55 390.97,252.35C391.05,251.15 391.14,249.95 391.21,248.75C391.28,247.55 391.35,246.36 391.4,245.16C391.45,243.96 391.49,242.76 391.52,241.56C391.55,240.36 391.55,239.17 391.56,237.97C391.57,236.77 391.56,235.57 391.55,234.37C391.54,233.17 391.5,231.98 391.48,230.78C391.45,229.58 391.43,228.38 391.4,227.18C391.37,225.98 391.33,224.78 391.3,223.58C391.27,222.38 391.24,221.19 391.21,219.99C391.18,218.79 391.16,217.59 391.14,216.39C391.12,215.19 391.1,214 391.09,212.8C391.08,211.6 391.07,210.4 391.06,209.2C391.05,208 391.05,206.81 391.04,205.61C391.03,204.41 391.02,203.21 391.01,202.01C391,200.81 390.99,199.62 390.98,198.42C390.97,197.22 390.96,196.02 390.95,194.82C390.94,193.62 390.92,192.43 390.91,191.23C390.9,190.03 390.88,188.83 390.87,187.63C390.86,186.43 390.84,185.24 390.83,184.04C390.82,182.84 390.8,181.64 390.79,180.44C390.78,179.24 390.78,178.04 390.77,176.84C390.76,175.64 390.76,174.45 390.75,173.25C390.74,172.05 390.74,170.85 390.73,169.65C390.73,168.45 390.72,167.26 390.72,166.06C390.71,164.86 390.71,163.66 390.7,162.46C390.69,161.26 390.68,160.07 390.67,158.87C390.66,157.67 390.65,156.47 390.64,155.27C390.63,154.07 390.62,152.88 390.61,151.68C390.6,150.48 390.58,149.28 390.57,148.08C390.56,146.88 390.54,145.69 390.53,144.49C390.52,143.29 390.51,142.09 390.5,140.89C390.49,139.69 390.49,138.5 390.48,137.3C390.47,136.1 390.47,134.9 390.46,133.7C390.45,132.5 390.45,131.3 390.44,130.1C390.43,128.9 390.43,127.71 390.42,126.51C390.41,125.31 390.41,124.11 390.4,122.91C390.39,121.71 390.39,120.52 390.38,119.32C390.37,118.12 390.36,116.92 390.35,115.72C390.34,114.52 390.33,113.33 390.32,112.13C390.31,110.93 390.29,109.73 390.28,108.53C390.27,107.33 390.25,106.14 390.24,104.94C390.22,103.74 390.21,102.54 390.19,101.34C390.18,100.14 390.16,98.95 390.15,97.75C390.14,96.55 390.12,95.35 390.11,94.15C390.1,92.95 390.08,91.76 390.07,90.56C390.06,89.36 390.06,88.16 390.05,86.96C390.04,85.76 390.04,84.56 390.03,83.36C390.02,82.16 390.01,80.97 390.01,79.77Q390.01,78.57 390.01,76.17L389.99,76.17Q389.99,78.57 389.99,79.77C389.99,80.97 389.98,82.16 389.97,83.36C389.96,84.56 389.96,85.76 389.95,86.96C389.94,88.16 389.94,89.36 389.93,90.56C389.92,91.76 389.9,92.95 389.89,94.15C389.88,95.35 389.86,96.55 389.85,97.75C389.84,98.95 389.82,100.14 389.81,101.34C389.79,102.54 389.78,103.74 389.76,104.94C389.75,106.14 389.73,107.33 389.72,108.53C389.71,109.73 389.69,110.93 389.68,112.13C389.67,113.33 389.66,114.52 389.65,115.72C389.64,116.92 389.63,118.12 389.62,119.32C389.61,120.52 389.61,121.71 389.6,122.91C389.59,124.11 389.59,125.31 389.58,126.51C389.57,127.71 389.57,128.9 389.56,130.1C389.55,131.3 389.55,132.5 389.54,133.7C389.53,134.9 389.53,136.1 389.52,137.3C389.51,138.5 389.51,139.69 389.5,140.89C389.49,142.09 389.48,143.29 389.47,144.49C389.46,145.69 389.44,146.88 389.43,148.08C389.42,149.28 389.4,150.48 389.39,151.68C389.38,152.88 389.37,154.07 389.36,155.27C389.35,156.47 389.34,157.67 389.33,158.87C389.32,160.07 389.31,161.26 389.3,162.46C389.29,163.66 389.29,164.86 389.28,166.06C389.28,167.26 389.27,168.45 389.27,169.65C389.26,170.85 389.26,172.05 389.25,173.25C389.24,174.45 389.24,175.64 389.23,176.84C389.22,178.04 389.22,179.24 389.21,180.44C389.2,181.64 389.18,182.84 389.17,184.04C389.16,185.24 389.14,186.43 389.13,187.63C389.12,188.83 389.1,190.03 389.09,191.23C389.08,192.43 389.06,193.62 389.05,194.82C389.04,196.02 389.03,197.22 389.02,198.42C389.01,199.62 389,200.81 388.99,202.01C388.98,203.21 388.97,204.41 388.96,205.61C388.95,206.81 388.95,208 388.94,209.2C388.93,210.4 388.92,211.6 388.91,212.8C388.9,214 388.88,215.19 388.86,216.39C388.84,217.59 388.82,218.79 388.79,219.99C388.76,221.19 388.73,222.38 388.7,223.58C388.67,224.78 388.63,225.98 388.6,227.18C388.57,228.38 388.55,229.58 388.52,230.78C388.5,231.98 388.46,233.17 388.45,234.37C388.44,235.57 388.43,236.77 388.44,237.97C388.45,239.17 388.45,240.36 388.48,241.56C388.51,242.76 388.55,243.96 388.6,245.16C388.65,246.36 388.72,247.55 388.79,248.75C388.86,249.95 388.95,251.15 389.03,252.35C389.11,253.55 389.19,254.74 389.27,255.94C389.35,257.14 389.43,258.34 389.5,259.54C389.57,260.74 389.64,261.93 389.69,263.13C389.74,264.33 389.78,265.53 389.82,266.73C389.86,267.93 389.89,269.12 389.91,270.32Q389.93,271.52 389.96,273.92Z" style="vector-effect: non-scaling-stroke; stroke-width: 2px; stroke: rgb(239, 85, 59); stroke-opacity: 1; fill: rgb(239, 85, 59); fill-opacity: 0.5;"/><path class="box" d="M68.44,231.13H87.55M68.44,244.87H87.55V203.3H68.44ZM78,244.87V252.52M78,203.3V143.87" style="vector-effect: non-scaling-stroke; stroke-width: 2px; stroke: rgb(239, 85, 59); stroke-opacity: 1; fill: rgb(239, 85, 59); fill-opacity: 0.5;"/><path class="box" d="M224.44,233.52H243.55M224.44,245.93H243.55V204.83H224.44ZM234,245.93V252.79M234,204.83V143.37" style="vector-effect: non-scaling-stroke; stroke-width: 2px; stroke: rgb(239, 85, 59); stroke-opacity: 1; fill: rgb(239, 85, 59); fill-opacity: 0.5;"/><path class="box" d="M380.44,206.82H399.55M380.44,235.56H399.55V168.23H380.44ZM390,235.56V252.29M390,168.23V97.8" style="vector-effect: non-scaling-stroke; stroke-width: 2px; stroke: rgb(239, 85, 59); stroke-opacity: 1; fill: rgb(239, 85, 59); fill-opacity: 0.5;"/><path class="mean" d="M68.44,220.15H87.55" style="fill: none; vector-effect: non-scaling-stroke; stroke-width: 2px; stroke-dasharray: 4px, 2px; stroke: rgb(239, 85, 59); stroke-opacity: 1;"/><path class="mean" d="M224.44,219.59H243.55" style="fill: none; vector-effect: non-scaling-stroke; stroke-width: 2px; stroke-dasharray: 4px, 2px; stroke: rgb(239, 85, 59); stroke-opacity: 1;"/><path class="mean" d="M380.44,198.85H399.55" style="fill: none; vector-effect: non-scaling-stroke; stroke-width: 2px; stroke-dasharray: 4px, 2px; stroke: rgb(239, 85, 59); stroke-opacity: 1;"/></g></g></g><g class="overplot"/><path class="xlines-above crisp" d="M0,0" style="fill: none;"/><path class="ylines-above crisp" d="M0,0" style="fill: none;"/><g class="overlines-above"/><g class="xaxislayer-above"><g class="x2tick"><text text-anchor="middle" x="0" y="419.00000000000006" transform="translate(730,0)" style="font-family: 'Open Sans', verdana, arial, sans-serif; font-size: 12px; fill: rgb(42, 63, 95); fill-opacity: 1; white-space: pre; opacity: 1;">&#60;=1</text></g><g class="x2tick"><text text-anchor="middle" x="0" y="419.00000000000006" transform="translate(886,0)" style="font-family: 'Open Sans', verdana, arial, sans-serif; font-size: 12px; fill: rgb(42, 63, 95); fill-opacity: 1; white-space: pre; opacity: 1;">(1, 2]</text></g><g class="x2tick"><text text-anchor="middle" x="0" y="419.00000000000006" transform="translate(1042,0)" style="font-family: 'Open Sans', verdana, arial, sans-serif; font-size: 12px; fill: rgb(42, 63, 95); fill-opacity: 1; white-space: pre; opacity: 1;">>2</text></g></g><g class="yaxislayer-above"><g class="y2tick"><text text-anchor="end" x="651" y="4.199999999999999" transform="translate(0,400.37)" style="font-family: 'Open Sans', verdana, arial, sans-serif; font-size: 12px; fill: rgb(42, 63, 95); fill-opacity: 1; white-space: pre; opacity: 1;">−0.5M</text></g><g class="y2tick"><text text-anchor="end" x="651" y="4.199999999999999" style="font-family: 'Open Sans', verdana, arial, sans-serif; font-size: 12px; fill: rgb(42, 63, 95); fill-opacity: 1; white-space: pre; opacity: 1;" transform="translate(0,352.82)">0</text></g><g class="y2tick"><text text-anchor="end" x="651" y="4.199999999999999" style="font-family: 'Open Sans', verdana, arial, sans-serif; font-size: 12px; fill: rgb(42, 63, 95); fill-opacity: 1; white-space: pre; opacity: 1;" transform="translate(0,305.28)">0.5M</text></g><g class="y2tick"><text text-anchor="end" x="651" y="4.199999999999999" style="font-family: 'Open Sans', verdana, arial, sans-serif; font-size: 12px; fill: rgb(42, 63, 95); fill-opacity: 1; white-space: pre; opacity: 1;" transform="translate(0,257.73)">1M</text></g><g class="y2tick"><text text-anchor="end" x="651" y="4.199999999999999" style="font-family: 'Open Sans', verdana, arial, sans-serif; font-size: 12px; fill: rgb(42, 63, 95); fill-opacity: 1; white-space: pre; opacity: 1;" transform="translate(0,210.18)">1.5M</text></g><g class="y2tick"><text text-anchor="end" x="651" y="4.199999999999999" style="font-family: 'Open Sans', verdana, arial, sans-serif; font-size: 12px; fill: rgb(42, 63, 95); fill-opacity: 1; white-space: pre; opacity: 1;" transform="translate(0,162.63)">2M</text></g><g class="y2tick"><text text-anchor="end" x="651" y="4.199999999999999" style="font-family: 'Open Sans', verdana, arial, sans-serif; font-size: 12px; fill: rgb(42, 63, 95); fill-opacity: 1; white-space: pre; opacity: 1;" transform="translate(0,115.08)">2.5M</text></g></g><g class="overaxes-above"/></g><g class="subplot x3y3"><g class="layer-subplot"><g class="shapelayer"/><g class="imagelayer"/></g><g class="minor-gridlayer"><g class="x3"/><g class="y3"/></g><g class="gridlayer"><g class="x3"/><g class="y3"><path class="y3grid crisp" transform="translate(0,814.37)" d="M80,0h468" style="stroke: rgb(255, 255, 255); stroke-opacity: 1; stroke-width: 1px;"/><path class="y3grid crisp" transform="translate(0,719.28)" d="M80,0h468" style="stroke: rgb(255, 255, 255); stroke-opacity: 1; stroke-width: 1px;"/><path class="y3grid crisp" transform="translate(0,671.73)" d="M80,0h468" style="stroke: rgb(255, 255, 255); stroke-opacity: 1; stroke-width: 1px;"/><path class="y3grid crisp" transform="translate(0,624.1800000000001)" d="M80,0h468" style="stroke: rgb(255, 255, 255); stroke-opacity: 1; stroke-width: 1px;"/><path class="y3grid crisp" transform="translate(0,576.63)" d="M80,0h468" style="stroke: rgb(255, 255, 255); stroke-opacity: 1; stroke-width: 1px;"/><path class="y3grid crisp" transform="translate(0,529.08)" d="M80,0h468" style="stroke: rgb(255, 255, 255); stroke-opacity: 1; stroke-width: 1px;"/></g></g><g class="zerolinelayer"><path class="y3zl zl crisp" transform="translate(0,766.8199999999999)" d="M80,0h468" style="stroke: rgb(255, 255, 255); stroke-opacity: 1; stroke-width: 2px;"/></g><path class="xlines-below"/><path class="ylines-below"/><g class="overlines-below"/><g class="xaxislayer-below"/><g class="yaxislayer-below"/><g class="overaxes-below"/><g class="plot" transform="translate(80,514)" clip-path="url(#clipf9898dx3y3plot)"><g class="violinlayer mlayer"><g class="trace violins" style="opacity: 1;"><path class="violin" d="M78.07,280.18Q78.12,277.13 78.15,275.61C78.18,274.09 78.22,272.56 78.27,271.04C78.32,269.52 78.39,268 78.46,266.48C78.53,264.96 78.61,263.43 78.7,261.91C78.79,260.39 78.89,258.86 78.98,257.34C79.07,255.82 79.17,254.29 79.26,252.77C79.35,251.25 79.44,249.73 79.51,248.21C79.58,246.69 79.64,245.16 79.68,243.64C79.72,242.12 79.75,240.59 79.77,239.07C79.79,237.55 79.79,236.03 79.79,234.51C79.79,232.99 79.77,231.46 79.76,229.94C79.75,228.42 79.73,226.89 79.71,225.37C79.69,223.85 79.66,222.33 79.64,220.81C79.62,219.29 79.59,217.76 79.57,216.24C79.55,214.72 79.53,213.19 79.5,211.67C79.47,210.15 79.44,208.63 79.41,207.11C79.38,205.59 79.36,204.06 79.33,202.54C79.3,201.02 79.27,199.49 79.24,197.97C79.21,196.45 79.18,194.93 79.15,193.41C79.12,191.89 79.1,190.36 79.07,188.84C79.05,187.32 79.02,185.79 79,184.27C78.98,182.75 78.95,181.23 78.93,179.71C78.91,178.19 78.9,176.66 78.88,175.14C78.86,173.62 78.85,172.09 78.83,170.57C78.82,169.05 78.8,167.53 78.79,166.01C78.78,164.49 78.78,162.96 78.77,161.44C78.76,159.92 78.75,158.39 78.74,156.87C78.73,155.35 78.72,153.82 78.71,152.3C78.7,150.78 78.7,149.26 78.69,147.74C78.68,146.22 78.66,144.69 78.65,143.17C78.64,141.65 78.63,140.12 78.62,138.6C78.61,137.08 78.59,135.56 78.58,134.04C78.57,132.52 78.56,130.99 78.55,129.47C78.54,127.95 78.52,126.42 78.51,124.9C78.5,123.38 78.49,121.86 78.48,120.34C78.47,118.82 78.47,117.29 78.46,115.77C78.45,114.25 78.43,112.72 78.42,111.2C78.41,109.68 78.4,108.16 78.39,106.64C78.38,105.12 78.37,103.59 78.36,102.07C78.35,100.55 78.33,99.02 78.32,97.5C78.31,95.98 78.3,94.46 78.29,92.94C78.28,91.42 78.27,89.89 78.26,88.37C78.25,86.85 78.25,85.32 78.24,83.8C78.23,82.28 78.23,80.76 78.22,79.24C78.21,77.72 78.21,76.19 78.2,74.67C78.2,73.15 78.2,71.62 78.19,70.1C78.19,68.58 78.17,67.06 78.17,65.54C78.16,64.02 78.16,62.49 78.16,60.97C78.15,59.45 78.15,57.92 78.14,56.4C78.13,54.88 78.13,53.35 78.12,51.83C78.11,50.31 78.11,48.79 78.1,47.27C78.09,45.75 78.09,44.22 78.08,42.7C78.07,41.18 78.06,39.65 78.05,38.13C78.04,36.61 78.04,35.09 78.04,33.57C78.03,32.05 78.03,30.52 78.02,29C78.02,27.48 78.01,25.95 78.01,24.43C78.01,22.91 78.01,21.39 78.01,19.87Q78.01,18.35 78,15.3L78,15.3Q77.99,18.35 77.99,19.87C77.99,21.39 77.99,22.91 77.99,24.43C77.99,25.95 77.98,27.48 77.98,29C77.97,30.52 77.97,32.05 77.96,33.57C77.96,35.09 77.96,36.61 77.95,38.13C77.94,39.65 77.93,41.18 77.92,42.7C77.91,44.22 77.91,45.75 77.9,47.27C77.89,48.79 77.89,50.31 77.88,51.83C77.87,53.35 77.87,54.88 77.86,56.4C77.85,57.92 77.85,59.45 77.84,60.97C77.84,62.49 77.84,64.02 77.83,65.54C77.83,67.06 77.81,68.58 77.81,70.1C77.8,71.62 77.8,73.15 77.8,74.67C77.79,76.19 77.79,77.72 77.78,79.24C77.77,80.76 77.77,82.28 77.76,83.8C77.75,85.32 77.75,86.85 77.74,88.37C77.73,89.89 77.72,91.42 77.71,92.94C77.7,94.46 77.69,95.98 77.68,97.5C77.67,99.02 77.65,100.55 77.64,102.07C77.63,103.59 77.62,105.12 77.61,106.64C77.6,108.16 77.59,109.68 77.58,111.2C77.57,112.72 77.55,114.25 77.54,115.77C77.53,117.29 77.53,118.82 77.52,120.34C77.51,121.86 77.5,123.38 77.49,124.9C77.48,126.42 77.46,127.95 77.45,129.47C77.44,130.99 77.43,132.52 77.42,134.04C77.41,135.56 77.39,137.08 77.38,138.6C77.37,140.12 77.36,141.65 77.35,143.17C77.34,144.69 77.32,146.22 77.31,147.74C77.3,149.26 77.3,150.78 77.29,152.3C77.28,153.82 77.27,155.35 77.26,156.87C77.25,158.39 77.24,159.92 77.23,161.44C77.22,162.96 77.22,164.49 77.21,166.01C77.2,167.53 77.18,169.05 77.17,170.57C77.15,172.09 77.14,173.62 77.12,175.14C77.1,176.66 77.09,178.19 77.07,179.71C77.05,181.23 77.02,182.75 77,184.27C76.98,185.79 76.95,187.32 76.93,188.84C76.9,190.36 76.88,191.89 76.85,193.41C76.82,194.93 76.79,196.45 76.76,197.97C76.73,199.49 76.7,201.02 76.67,202.54C76.64,204.06 76.62,205.59 76.59,207.11C76.56,208.63 76.53,210.15 76.5,211.67C76.47,213.19 76.45,214.72 76.43,216.24C76.41,217.76 76.38,219.29 76.36,220.81C76.34,222.33 76.31,223.85 76.29,225.37C76.27,226.89 76.25,228.42 76.24,229.94C76.23,231.46 76.21,232.99 76.21,234.51C76.21,236.03 76.21,237.55 76.23,239.07C76.25,240.59 76.28,242.12 76.32,243.64C76.36,245.16 76.42,246.69 76.49,248.21C76.56,249.73 76.65,251.25 76.74,252.77C76.83,254.29 76.93,255.82 77.02,257.34C77.11,258.86 77.21,260.39 77.3,261.91C77.39,263.43 77.47,264.96 77.54,266.48C77.61,268 77.68,269.52 77.73,271.04C77.78,272.56 77.82,274.09 77.85,275.61Q77.88,277.13 77.93,280.18Z" style="vector-effect: non-scaling-stroke; stroke-width: 2px; stroke: rgb(99, 110, 250); stroke-opacity: 1; fill: rgb(99, 110, 250); fill-opacity: 0.5;"/><path class="violin" d="M234.16,274.27Q234.26,271.87 234.33,270.67C234.41,269.47 234.5,268.27 234.61,267.07C234.73,265.87 234.86,264.66 235.02,263.46C235.18,262.26 235.37,261.06 235.56,259.86C235.75,258.66 235.97,257.45 236.17,256.25C236.37,255.05 236.58,253.85 236.76,252.65C236.93,251.45 237.1,250.25 237.22,249.05C237.33,247.85 237.42,246.64 237.45,245.44C237.48,244.24 237.47,243.04 237.43,241.84C237.39,240.64 237.28,239.43 237.18,238.23C237.07,237.03 236.93,235.83 236.8,234.63C236.67,233.43 236.51,232.23 236.38,231.03C236.25,229.83 236.12,228.62 236,227.42C235.89,226.22 235.78,225.02 235.69,223.82C235.6,222.62 235.53,221.41 235.47,220.21C235.41,219.01 235.36,217.81 235.31,216.61C235.26,215.41 235.23,214.21 235.19,213.01C235.15,211.81 235.11,210.6 235.08,209.4C235.05,208.2 235.02,207 234.99,205.8C234.96,204.6 234.94,203.39 234.91,202.19C234.88,200.99 234.86,199.79 234.83,198.59C234.81,197.39 234.78,196.19 234.76,194.99C234.74,193.79 234.72,192.58 234.7,191.38C234.68,190.18 234.66,188.98 234.64,187.78C234.62,186.58 234.61,185.37 234.6,184.17C234.59,182.97 234.57,181.77 234.56,180.57C234.55,179.37 234.54,178.17 234.53,176.97C234.52,175.77 234.51,174.56 234.5,173.36C234.49,172.16 234.49,170.96 234.48,169.76C234.47,168.56 234.47,167.35 234.46,166.15C234.45,164.95 234.45,163.75 234.44,162.55C234.43,161.35 234.43,160.15 234.42,158.95C234.41,157.75 234.41,156.54 234.4,155.34C234.4,154.14 234.39,152.94 234.39,151.74C234.39,150.54 234.38,149.33 234.38,148.13C234.38,146.93 234.37,145.73 234.37,144.53C234.37,143.33 234.36,142.13 234.36,140.93C234.36,139.73 234.36,138.52 234.36,137.32C234.36,136.12 234.35,134.92 234.35,133.72C234.34,132.52 234.34,131.31 234.33,130.11C234.33,128.91 234.33,127.71 234.32,126.51C234.31,125.31 234.3,124.11 234.29,122.91C234.28,121.71 234.28,120.5 234.27,119.3C234.26,118.1 234.25,116.9 234.24,115.7C234.23,114.5 234.23,113.29 234.22,112.09C234.21,110.89 234.2,109.69 234.19,108.49C234.18,107.29 234.17,106.09 234.17,104.89C234.16,103.69 234.16,102.48 234.16,101.28C234.16,100.08 234.15,98.88 234.15,97.68C234.14,96.48 234.14,95.27 234.13,94.07C234.13,92.87 234.12,91.67 234.12,90.47C234.12,89.27 234.11,88.07 234.11,86.87C234.11,85.67 234.1,84.46 234.1,83.26C234.1,82.06 234.09,80.86 234.09,79.66C234.09,78.46 234.08,77.26 234.08,76.06C234.08,74.86 234.07,73.65 234.07,72.45C234.07,71.25 234.06,70.05 234.06,68.85C234.06,67.65 234.06,66.44 234.06,65.24C234.06,64.04 234.05,62.84 234.05,61.64C234.05,60.44 234.05,59.24 234.05,58.04C234.05,56.84 234.04,55.63 234.04,54.43C234.04,53.23 234.03,52.03 234.03,50.83C234.03,49.63 234.02,48.42 234.02,47.22C234.02,46.02 234.01,44.82 234.01,43.62C234.01,42.42 234.01,41.22 234.01,40.02Q234.01,38.82 234,36.41L234,36.41Q233.99,38.82 233.99,40.02C233.99,41.22 233.99,42.42 233.99,43.62C233.99,44.82 233.98,46.02 233.98,47.22C233.98,48.42 233.97,49.63 233.97,50.83C233.97,52.03 233.96,53.23 233.96,54.43C233.96,55.63 233.95,56.84 233.95,58.04C233.95,59.24 233.95,60.44 233.95,61.64C233.95,62.84 233.94,64.04 233.94,65.24C233.94,66.44 233.94,67.65 233.94,68.85C233.94,70.05 233.93,71.25 233.93,72.45C233.93,73.65 233.92,74.86 233.92,76.06C233.92,77.26 233.91,78.46 233.91,79.66C233.91,80.86 233.9,82.06 233.9,83.26C233.9,84.46 233.89,85.67 233.89,86.87C233.89,88.07 233.88,89.27 233.88,90.47C233.88,91.67 233.87,92.87 233.87,94.07C233.86,95.27 233.86,96.48 233.85,97.68C233.85,98.88 233.84,100.08 233.84,101.28C233.84,102.48 233.84,103.69 233.83,104.89C233.83,106.09 233.82,107.29 233.81,108.49C233.8,109.69 233.79,110.89 233.78,112.09C233.77,113.29 233.77,114.5 233.76,115.7C233.75,116.9 233.74,118.1 233.73,119.3C233.72,120.5 233.72,121.71 233.71,122.91C233.7,124.11 233.69,125.31 233.68,126.51C233.67,127.71 233.67,128.91 233.67,130.11C233.66,131.31 233.66,132.52 233.65,133.72C233.65,134.92 233.64,136.12 233.64,137.32C233.64,138.52 233.64,139.73 233.64,140.93C233.64,142.13 233.63,143.33 233.63,144.53C233.63,145.73 233.62,146.93 233.62,148.13C233.62,149.33 233.61,150.54 233.61,151.74C233.61,152.94 233.6,154.14 233.6,155.34C233.59,156.54 233.59,157.75 233.58,158.95C233.57,160.15 233.57,161.35 233.56,162.55C233.55,163.75 233.55,164.95 233.54,166.15C233.53,167.35 233.53,168.56 233.52,169.76C233.51,170.96 233.51,172.16 233.5,173.36C233.49,174.56 233.48,175.77 233.47,176.97C233.46,178.17 233.45,179.37 233.44,180.57C233.43,181.77 233.41,182.97 233.4,184.17C233.39,185.37 233.38,186.58 233.36,187.78C233.34,188.98 233.32,190.18 233.3,191.38C233.28,192.58 233.26,193.79 233.24,194.99C233.22,196.19 233.19,197.39 233.17,198.59C233.14,199.79 233.12,200.99 233.09,202.19C233.06,203.39 233.04,204.6 233.01,205.8C232.98,207 232.95,208.2 232.92,209.4C232.89,210.6 232.85,211.81 232.81,213.01C232.77,214.21 232.74,215.41 232.69,216.61C232.64,217.81 232.59,219.01 232.53,220.21C232.47,221.41 232.4,222.62 232.31,223.82C232.22,225.02 232.11,226.22 232,227.42C231.88,228.62 231.75,229.83 231.62,231.03C231.49,232.23 231.33,233.43 231.2,234.63C231.07,235.83 230.93,237.03 230.82,238.23C230.72,239.43 230.61,240.64 230.57,241.84C230.53,243.04 230.52,244.24 230.55,245.44C230.58,246.64 230.67,247.85 230.78,249.05C230.9,250.25 231.07,251.45 231.24,252.65C231.42,253.85 231.63,255.05 231.83,256.25C232.03,257.45 232.25,258.66 232.44,259.86C232.63,261.06 232.82,262.26 232.98,263.46C233.14,264.66 233.27,265.87 233.39,267.07C233.5,268.27 233.59,269.47 233.67,270.67Q233.74,271.87 233.84,274.27Z" style="vector-effect: non-scaling-stroke; stroke-width: 2px; stroke: rgb(99, 110, 250); stroke-opacity: 1; fill: rgb(99, 110, 250); fill-opacity: 0.5;"/><path class="violin" d="M390.11,290.7Q390.17,286.48 390.22,284.37C390.27,282.26 390.32,280.14 390.39,278.03C390.46,275.92 390.55,273.81 390.64,271.7C390.74,269.59 390.85,267.47 390.96,265.36C391.07,263.25 391.2,261.14 391.31,259.03C391.42,256.92 391.54,254.81 391.63,252.7C391.72,250.59 391.81,248.47 391.87,246.36C391.93,244.25 391.98,242.14 392,240.03C392.02,237.92 392.02,235.8 392.01,233.69C392,231.58 391.96,229.47 391.92,227.36C391.88,225.25 391.84,223.14 391.79,221.03C391.74,218.92 391.68,216.8 391.63,214.69C391.58,212.58 391.53,210.47 391.48,208.36C391.43,206.25 391.39,204.13 391.35,202.02C391.31,199.91 391.27,197.8 391.23,195.69C391.19,193.58 391.14,191.47 391.1,189.36C391.06,187.25 391.01,185.13 390.97,183.02C390.93,180.91 390.88,178.8 390.84,176.69C390.79,174.58 390.74,172.46 390.7,170.35C390.66,168.24 390.62,166.13 390.58,164.02C390.55,161.91 390.52,159.8 390.49,157.69C390.46,155.58 390.44,153.46 390.42,151.35C390.4,149.24 390.38,147.13 390.37,145.02C390.36,142.91 390.36,140.79 390.35,138.68C390.34,136.57 390.34,134.46 390.33,132.35C390.32,130.24 390.32,128.13 390.31,126.02C390.3,123.91 390.3,121.79 390.29,119.68C390.28,117.57 390.28,115.46 390.27,113.35C390.26,111.24 390.24,109.12 390.23,107.01C390.22,104.9 390.2,102.79 390.19,100.68C390.18,98.57 390.16,96.46 390.15,94.35C390.14,92.24 390.13,90.12 390.12,88.01C390.11,85.9 390.1,83.79 390.09,81.68C390.08,79.57 390.07,77.45 390.07,75.34C390.07,73.23 390.07,71.12 390.07,69.01C390.07,66.9 390.07,64.79 390.07,62.68C390.07,60.57 390.06,58.45 390.06,56.34C390.06,54.23 390.06,52.12 390.06,50.01C390.06,47.9 390.05,45.78 390.05,43.67C390.05,41.56 390.04,39.45 390.04,37.34C390.03,35.23 390.02,33.12 390.02,31.01C390.01,28.9 390.01,26.78 390.01,24.67Q390.01,22.56 390.01,18.34L389.99,18.34Q389.99,22.56 389.99,24.67C389.99,26.78 389.99,28.9 389.98,31.01C389.98,33.12 389.97,35.23 389.96,37.34C389.96,39.45 389.95,41.56 389.95,43.67C389.95,45.78 389.94,47.9 389.94,50.01C389.94,52.12 389.94,54.23 389.94,56.34C389.94,58.45 389.93,60.57 389.93,62.68C389.93,64.79 389.93,66.9 389.93,69.01C389.93,71.12 389.93,73.23 389.93,75.34C389.93,77.45 389.92,79.57 389.91,81.68C389.9,83.79 389.89,85.9 389.88,88.01C389.87,90.12 389.86,92.24 389.85,94.35C389.84,96.46 389.82,98.57 389.81,100.68C389.8,102.79 389.78,104.9 389.77,107.01C389.76,109.12 389.74,111.24 389.73,113.35C389.72,115.46 389.72,117.57 389.71,119.68C389.7,121.79 389.7,123.91 389.69,126.02C389.68,128.13 389.68,130.24 389.67,132.35C389.66,134.46 389.66,136.57 389.65,138.68C389.64,140.79 389.64,142.91 389.63,145.02C389.62,147.13 389.6,149.24 389.58,151.35C389.56,153.46 389.54,155.58 389.51,157.69C389.48,159.8 389.45,161.91 389.42,164.02C389.38,166.13 389.34,168.24 389.3,170.35C389.26,172.46 389.21,174.58 389.16,176.69C389.12,178.8 389.07,180.91 389.03,183.02C388.99,185.13 388.94,187.25 388.9,189.36C388.86,191.47 388.81,193.58 388.77,195.69C388.73,197.8 388.69,199.91 388.65,202.02C388.61,204.13 388.57,206.25 388.52,208.36C388.47,210.47 388.42,212.58 388.37,214.69C388.32,216.8 388.26,218.92 388.21,221.03C388.16,223.14 388.12,225.25 388.08,227.36C388.04,229.47 388,231.58 387.99,233.69C387.98,235.8 387.98,237.92 388,240.03C388.02,242.14 388.07,244.25 388.13,246.36C388.19,248.47 388.28,250.59 388.37,252.7C388.46,254.81 388.58,256.92 388.69,259.03C388.8,261.14 388.93,263.25 389.04,265.36C389.15,267.47 389.26,269.59 389.36,271.7C389.45,273.81 389.54,275.92 389.61,278.03C389.68,280.14 389.73,282.26 389.78,284.37Q389.83,286.48 389.89,290.7Z" style="vector-effect: non-scaling-stroke; stroke-width: 2px; stroke: rgb(99, 110, 250); stroke-opacity: 1; fill: rgb(99, 110, 250); fill-opacity: 0.5;"/><path class="box" d="M68.45,207.46H87.56M68.45,235.43H87.56V161.07H68.45ZM78,235.43V252.75M78,161.07V51.51" style="vector-effect: non-scaling-stroke; stroke-width: 2px; stroke: rgb(99, 110, 250); stroke-opacity: 1; fill: rgb(99, 110, 250); fill-opacity: 0.5;"/><path class="box" d="M224.45,236.4H243.56M224.45,246.45H243.56V199.46H224.45ZM234,246.45V252.48M234,199.46V130.12" style="vector-effect: non-scaling-stroke; stroke-width: 2px; stroke: rgb(99, 110, 250); stroke-opacity: 1; fill: rgb(99, 110, 250); fill-opacity: 0.5;"/><path class="box" d="M380.45,222.83H399.55M380.45,244.3H399.55V188.24H380.45ZM390,244.3V252.39M390,188.24V105.86" style="vector-effect: non-scaling-stroke; stroke-width: 2px; stroke: rgb(99, 110, 250); stroke-opacity: 1; fill: rgb(99, 110, 250); fill-opacity: 0.5;"/><path class="mean" d="M68.45,193.35H87.56" style="fill: none; vector-effect: non-scaling-stroke; stroke-width: 2px; stroke-dasharray: 4px, 2px; stroke: rgb(99, 110, 250); stroke-opacity: 1;"/><path class="mean" d="M224.45,216.61H243.56" style="fill: none; vector-effect: non-scaling-stroke; stroke-width: 2px; stroke-dasharray: 4px, 2px; stroke: rgb(99, 110, 250); stroke-opacity: 1;"/><path class="mean" d="M380.45,209.85H399.55" style="fill: none; vector-effect: non-scaling-stroke; stroke-width: 2px; stroke-dasharray: 4px, 2px; stroke: rgb(99, 110, 250); stroke-opacity: 1;"/></g></g></g><g class="overplot"/><path class="xlines-above crisp" d="M0,0" style="fill: none;"/><path class="ylines-above crisp" d="M0,0" style="fill: none;"/><g class="overlines-above"/><g class="xaxislayer-above"><g class="x3tick"><text text-anchor="middle" x="0" y="833" transform="translate(158,0)" style="font-family: 'Open Sans', verdana, arial, sans-serif; font-size: 12px; fill: rgb(42, 63, 95); fill-opacity: 1; white-space: pre; opacity: 1;">&#60;=1</text></g><g class="x3tick"><text text-anchor="middle" x="0" y="833" transform="translate(314,0)" style="font-family: 'Open Sans', verdana, arial, sans-serif; font-size: 12px; fill: rgb(42, 63, 95); fill-opacity: 1; white-space: pre; opacity: 1;">(1, 2]</text></g><g class="x3tick"><text text-anchor="middle" x="0" y="833" transform="translate(470,0)" style="font-family: 'Open Sans', verdana, arial, sans-serif; font-size: 12px; fill: rgb(42, 63, 95); fill-opacity: 1; white-space: pre; opacity: 1;">>2</text></g></g><g class="yaxislayer-above"><g class="y3tick"><text text-anchor="end" x="79" y="4.199999999999999" transform="translate(0,814.37)" style="font-family: 'Open Sans', verdana, arial, sans-serif; font-size: 12px; fill: rgb(42, 63, 95); fill-opacity: 1; white-space: pre; opacity: 1;">−0.5M</text></g><g class="y3tick"><text text-anchor="end" x="79" y="4.199999999999999" style="font-family: 'Open Sans', verdana, arial, sans-serif; font-size: 12px; fill: rgb(42, 63, 95); fill-opacity: 1; white-space: pre; opacity: 1;" transform="translate(0,766.8199999999999)">0</text></g><g class="y3tick"><text text-anchor="end" x="79" y="4.199999999999999" style="font-family: 'Open Sans', verdana, arial, sans-serif; font-size: 12px; fill: rgb(42, 63, 95); fill-opacity: 1; white-space: pre; opacity: 1;" transform="translate(0,719.28)">0.5M</text></g><g class="y3tick"><text text-anchor="end" x="79" y="4.199999999999999" style="font-family: 'Open Sans', verdana, arial, sans-serif; font-size: 12px; fill: rgb(42, 63, 95); fill-opacity: 1; white-space: pre; opacity: 1;" transform="translate(0,671.73)">1M</text></g><g class="y3tick"><text text-anchor="end" x="79" y="4.199999999999999" style="font-family: 'Open Sans', verdana, arial, sans-serif; font-size: 12px; fill: rgb(42, 63, 95); fill-opacity: 1; white-space: pre; opacity: 1;" transform="translate(0,624.1800000000001)">1.5M</text></g><g class="y3tick"><text text-anchor="end" x="79" y="4.199999999999999" style="font-family: 'Open Sans', verdana, arial, sans-serif; font-size: 12px; fill: rgb(42, 63, 95); fill-opacity: 1; white-space: pre; opacity: 1;" transform="translate(0,576.63)">2M</text></g><g class="y3tick"><text text-anchor="end" x="79" y="4.199999999999999" style="font-family: 'Open Sans', verdana, arial, sans-serif; font-size: 12px; fill: rgb(42, 63, 95); fill-opacity: 1; white-space: pre; opacity: 1;" transform="translate(0,529.08)">2.5M</text></g></g><g class="overaxes-above"/></g><g class="subplot x4y4"><g class="layer-subplot"><g class="shapelayer"/><g class="imagelayer"/></g><g class="minor-gridlayer"><g class="x4"/><g class="y4"/></g><g class="gridlayer"><g class="x4"/><g class="y4"><path class="y4grid crisp" transform="translate(0,814.37)" d="M652,0h467.99999999999994" style="stroke: rgb(255, 255, 255); stroke-opacity: 1; stroke-width: 1px;"/><path class="y4grid crisp" transform="translate(0,719.28)" d="M652,0h467.99999999999994" style="stroke: rgb(255, 255, 255); stroke-opacity: 1; stroke-width: 1px;"/><path class="y4grid crisp" transform="translate(0,671.73)" d="M652,0h467.99999999999994" style="stroke: rgb(255, 255, 255); stroke-opacity: 1; stroke-width: 1px;"/><path class="y4grid crisp" transform="translate(0,624.1800000000001)" d="M652,0h467.99999999999994" style="stroke: rgb(255, 255, 255); stroke-opacity: 1; stroke-width: 1px;"/><path class="y4grid crisp" transform="translate(0,576.63)" d="M652,0h467.99999999999994" style="stroke: rgb(255, 255, 255); stroke-opacity: 1; stroke-width: 1px;"/><path class="y4grid crisp" transform="translate(0,529.08)" d="M652,0h467.99999999999994" style="stroke: rgb(255, 255, 255); stroke-opacity: 1; stroke-width: 1px;"/></g></g><g class="zerolinelayer"><path class="y4zl zl crisp" transform="translate(0,766.8199999999999)" d="M652,0h467.99999999999994" style="stroke: rgb(255, 255, 255); stroke-opacity: 1; stroke-width: 2px;"/></g><path class="xlines-below"/><path class="ylines-below"/><g class="overlines-below"/><g class="xaxislayer-below"/><g class="yaxislayer-below"/><g class="overaxes-below"/><g class="plot" transform="translate(652,514)" clip-path="url(#clipf9898dx4y4plot)"><g class="violinlayer mlayer"><g class="trace violins" style="opacity: 1;"><path class="violin" d="M79.68,253.93Q80.77,253.8 81.43,253.74C82.27,253.67 83.27,253.62 84.33,253.56C85.62,253.49 87.08,253.44 88.6,253.38C90.33,253.31 92.25,253.25 94.16,253.19C96.2,253.13 98.39,253.07 100.49,253.01C102.57,252.95 104.75,252.88 106.72,252.82C108.51,252.76 110.33,252.71 111.84,252.64C113.05,252.59 114.3,252.55 115.1,252.46C115.57,252.41 116.22,252.34 116.22,252.27C116.22,252.21 115.76,252.14 115.44,252.09C114.92,252.01 114.1,251.97 113.36,251.91C112.52,251.84 111.56,251.78 110.65,251.72C109.72,251.66 108.76,251.6 107.84,251.54C106.96,251.48 106.09,251.42 105.26,251.36C104.48,251.3 103.73,251.23 103.01,251.17C102.34,251.11 101.69,251.05 101.07,250.99C100.49,250.93 99.95,250.87 99.41,250.81C98.9,250.75 98.42,250.68 97.94,250.62C97.49,250.56 97.05,250.5 96.63,250.44C96.23,250.38 95.84,250.31 95.46,250.25C95.11,250.19 94.76,250.13 94.43,250.07C94.11,250.01 93.81,249.95 93.51,249.89C93.23,249.83 92.95,249.76 92.68,249.7C92.42,249.64 92.18,249.58 91.93,249.52C91.69,249.46 91.45,249.4 91.22,249.34C90.99,249.28 90.77,249.21 90.54,249.15C90.31,249.09 90.08,249.03 89.85,248.97C89.62,248.91 89.39,248.85 89.15,248.79C88.91,248.73 88.66,248.66 88.41,248.6C88.16,248.54 87.91,248.48 87.66,248.42C87.41,248.36 87.16,248.29 86.92,248.23C86.7,248.17 86.47,248.11 86.27,248.05C86.08,247.99 85.9,247.94 85.74,247.87C85.6,247.81 85.47,247.75 85.37,247.68C85.28,247.62 85.2,247.57 85.15,247.5C85.11,247.44 85.07,247.38 85.06,247.32C85.05,247.26 85.05,247.19 85.06,247.13C85.07,247.07 85.09,247.01 85.11,246.95C85.13,246.89 85.16,246.83 85.18,246.77C85.2,246.71 85.23,246.64 85.24,246.58C85.25,246.52 85.25,246.46 85.23,246.4C85.21,246.34 85.17,246.28 85.11,246.22C85.04,246.15 84.92,246.09 84.8,246.03C84.65,245.96 84.45,245.91 84.25,245.85C84.01,245.78 83.75,245.72 83.47,245.66C83.16,245.59 82.82,245.54 82.49,245.48C82.15,245.42 81.79,245.36 81.44,245.3C81.1,245.24 80.75,245.17 80.43,245.11C80.13,245.05 79.83,244.99 79.57,244.93C79.34,244.87 79.12,244.82 78.93,244.75C78.77,244.69 78.62,244.63 78.5,244.56Q78.4,244.5 78.24,244.38L77.76,244.38Q77.6,244.5 77.5,244.56C77.38,244.63 77.23,244.69 77.07,244.75C76.88,244.82 76.66,244.87 76.43,244.93C76.17,244.99 75.87,245.05 75.57,245.11C75.25,245.17 74.9,245.24 74.56,245.3C74.21,245.36 73.85,245.42 73.51,245.48C73.18,245.54 72.84,245.59 72.53,245.66C72.25,245.72 71.99,245.78 71.75,245.85C71.55,245.91 71.35,245.96 71.2,246.03C71.08,246.09 70.96,246.15 70.89,246.22C70.83,246.28 70.79,246.34 70.77,246.4C70.75,246.46 70.75,246.52 70.76,246.58C70.77,246.64 70.8,246.71 70.82,246.77C70.84,246.83 70.87,246.89 70.89,246.95C70.91,247.01 70.93,247.07 70.94,247.13C70.95,247.19 70.95,247.26 70.94,247.32C70.93,247.38 70.89,247.44 70.85,247.5C70.8,247.57 70.72,247.62 70.63,247.68C70.53,247.75 70.4,247.81 70.26,247.87C70.1,247.94 69.92,247.99 69.73,248.05C69.53,248.11 69.3,248.17 69.08,248.23C68.84,248.29 68.59,248.36 68.34,248.42C68.09,248.48 67.84,248.54 67.59,248.6C67.34,248.66 67.09,248.73 66.85,248.79C66.61,248.85 66.38,248.91 66.15,248.97C65.92,249.03 65.69,249.09 65.46,249.15C65.23,249.21 65.01,249.28 64.78,249.34C64.55,249.4 64.31,249.46 64.07,249.52C63.82,249.58 63.58,249.64 63.32,249.7C63.05,249.76 62.77,249.83 62.49,249.89C62.19,249.95 61.89,250.01 61.57,250.07C61.24,250.13 60.89,250.19 60.54,250.25C60.16,250.31 59.77,250.38 59.37,250.44C58.95,250.5 58.51,250.56 58.06,250.62C57.58,250.68 57.1,250.75 56.59,250.81C56.05,250.87 55.51,250.93 54.93,250.99C54.31,251.05 53.66,251.11 52.99,251.17C52.27,251.23 51.52,251.3 50.74,251.36C49.91,251.42 49.04,251.48 48.16,251.54C47.24,251.6 46.28,251.66 45.35,251.72C44.44,251.78 43.48,251.84 42.64,251.91C41.9,251.97 41.08,252.01 40.56,252.09C40.24,252.14 39.78,252.21 39.78,252.27C39.78,252.34 40.43,252.41 40.9,252.46C41.7,252.55 42.95,252.59 44.16,252.64C45.67,252.71 47.49,252.76 49.28,252.82C51.25,252.88 53.43,252.95 55.51,253.01C57.61,253.07 59.8,253.13 61.84,253.19C63.75,253.25 65.67,253.31 67.4,253.38C68.92,253.44 70.38,253.49 71.67,253.56C72.73,253.62 73.73,253.67 74.57,253.74Q75.23,253.8 76.32,253.93Z" style="vector-effect: non-scaling-stroke; stroke-width: 2px; stroke: rgb(239, 85, 59); stroke-opacity: 1; fill: rgb(239, 85, 59); fill-opacity: 0.5;"/><path class="violin" d="M235.03,254.19Q235.7,254.03 236.1,253.96C236.62,253.87 237.24,253.8 237.9,253.73C238.7,253.64 239.61,253.57 240.55,253.5C241.63,253.42 242.82,253.34 244.01,253.27C245.29,253.19 246.66,253.12 247.98,253.04C249.29,252.96 250.66,252.89 251.91,252.81C253.05,252.74 254.21,252.67 255.19,252.58C255.99,252.51 256.81,252.45 257.38,252.35C257.75,252.28 258.26,252.24 258.3,252.12C258.32,252.06 258.23,251.95 258.14,251.89C257.97,251.77 257.58,251.73 257.27,251.66C256.91,251.58 256.48,251.51 256.08,251.43C255.68,251.35 255.27,251.28 254.88,251.2C254.52,251.13 254.16,251.05 253.82,250.97C253.51,250.9 253.22,250.82 252.94,250.74C252.69,250.67 252.46,250.59 252.24,250.51C252.05,250.44 251.87,250.36 251.71,250.28C251.57,250.21 251.44,250.13 251.34,250.05C251.25,249.98 251.18,249.9 251.12,249.82C251.07,249.75 251.03,249.67 250.99,249.59C250.95,249.51 250.91,249.43 250.86,249.36C250.81,249.28 250.74,249.2 250.67,249.13C250.59,249.05 250.49,248.97 250.39,248.9C250.28,248.82 250.16,248.75 250.04,248.67C249.91,248.59 249.78,248.52 249.65,248.44C249.52,248.36 249.39,248.29 249.26,248.21C249.14,248.13 249.02,248.06 248.91,247.98C248.8,247.9 248.7,247.83 248.59,247.75C248.49,247.67 248.38,247.6 248.28,247.52C248.17,247.44 248.07,247.36 247.96,247.29C247.84,247.21 247.71,247.13 247.57,247.06C247.42,246.98 247.25,246.9 247.07,246.83C246.86,246.75 246.63,246.67 246.38,246.6C246.1,246.52 245.79,246.44 245.46,246.37C245.09,246.29 244.69,246.22 244.28,246.15C243.84,246.07 243.37,245.99 242.89,245.92C242.39,245.84 241.86,245.77 241.34,245.69C240.81,245.61 240.27,245.54 239.75,245.46C239.24,245.38 238.73,245.31 238.24,245.23C237.78,245.16 237.34,245.08 236.92,245C236.55,244.93 236.18,244.85 235.86,244.77C235.58,244.7 235.33,244.62 235.1,244.54C234.91,244.47 234.73,244.4 234.59,244.31Q234.47,244.24 234.29,244.08L233.71,244.08Q233.53,244.24 233.41,244.31C233.27,244.4 233.09,244.47 232.9,244.54C232.67,244.62 232.42,244.7 232.14,244.77C231.82,244.85 231.45,244.93 231.08,245C230.66,245.08 230.22,245.16 229.76,245.23C229.27,245.31 228.76,245.38 228.25,245.46C227.73,245.54 227.19,245.61 226.66,245.69C226.14,245.77 225.61,245.84 225.11,245.92C224.63,245.99 224.16,246.07 223.72,246.15C223.31,246.22 222.91,246.29 222.54,246.37C222.21,246.44 221.9,246.52 221.62,246.6C221.37,246.67 221.14,246.75 220.93,246.83C220.75,246.9 220.58,246.98 220.43,247.06C220.29,247.13 220.16,247.21 220.04,247.29C219.93,247.36 219.83,247.44 219.72,247.52C219.62,247.6 219.51,247.67 219.41,247.75C219.3,247.83 219.2,247.9 219.09,247.98C218.98,248.06 218.86,248.13 218.74,248.21C218.61,248.29 218.48,248.36 218.35,248.44C218.22,248.52 218.09,248.59 217.96,248.67C217.84,248.75 217.72,248.82 217.61,248.9C217.51,248.97 217.41,249.05 217.33,249.13C217.26,249.2 217.19,249.28 217.14,249.36C217.09,249.43 217.05,249.51 217.01,249.59C216.97,249.67 216.93,249.75 216.88,249.82C216.82,249.9 216.75,249.98 216.66,250.05C216.56,250.13 216.43,250.21 216.29,250.28C216.13,250.36 215.95,250.44 215.76,250.51C215.54,250.59 215.31,250.67 215.06,250.74C214.78,250.82 214.49,250.9 214.18,250.97C213.84,251.05 213.48,251.13 213.12,251.2C212.73,251.28 212.32,251.35 211.92,251.43C211.52,251.51 211.09,251.58 210.73,251.66C210.42,251.73 210.03,251.77 209.86,251.89C209.77,251.95 209.68,252.06 209.7,252.12C209.74,252.24 210.25,252.28 210.62,252.35C211.19,252.45 212.01,252.51 212.81,252.58C213.79,252.67 214.95,252.74 216.09,252.81C217.34,252.89 218.71,252.96 220.02,253.04C221.34,253.12 222.71,253.19 223.99,253.27C225.18,253.34 226.37,253.42 227.45,253.5C228.39,253.57 229.3,253.64 230.1,253.73C230.76,253.8 231.38,253.87 231.9,253.96Q232.3,254.03 232.97,254.19Z" style="vector-effect: non-scaling-stroke; stroke-width: 2px; stroke: rgb(239, 85, 59); stroke-opacity: 1; fill: rgb(239, 85, 59); fill-opacity: 0.5;"/><path class="violin" d="M390.91,254.81Q391.48,254.58 391.82,254.48C392.25,254.36 392.76,254.26 393.31,254.16C393.97,254.04 394.72,253.93 395.51,253.83C396.41,253.71 397.41,253.61 398.42,253.5C399.53,253.38 400.72,253.28 401.9,253.17C403.11,253.06 404.38,252.96 405.59,252.85C406.76,252.74 407.95,252.64 409.04,252.52C410.01,252.42 410.99,252.32 411.8,252.19C412.45,252.09 413.12,252.01 413.54,251.86C413.8,251.77 414.12,251.65 414.13,251.54C414.14,251.44 413.87,251.31 413.67,251.21C413.37,251.07 412.88,250.98 412.44,250.88C411.93,250.76 411.33,250.66 410.76,250.55C410.17,250.44 409.55,250.34 408.96,250.23C408.38,250.12 407.8,250.01 407.26,249.9C406.75,249.79 406.26,249.69 405.8,249.57C405.39,249.47 404.99,249.36 404.63,249.24C404.32,249.14 404.01,249.04 403.76,248.92C403.55,248.82 403.34,248.71 403.2,248.59C403.08,248.49 402.98,248.38 402.93,248.26C402.88,248.16 402.88,248.04 402.88,247.93C402.88,247.82 402.92,247.72 402.92,247.61C402.92,247.5 402.93,247.38 402.88,247.28C402.82,247.16 402.7,247.05 402.56,246.95C402.38,246.82 402.11,246.72 401.84,246.62C401.5,246.5 401.08,246.4 400.66,246.3C400.17,246.18 399.62,246.08 399.07,245.97C398.48,245.86 397.85,245.75 397.24,245.64C396.62,245.53 395.98,245.42 395.37,245.31C394.79,245.2 394.22,245.1 393.69,244.99C393.21,244.89 392.74,244.78 392.33,244.66C391.97,244.56 391.64,244.45 391.35,244.33C391.11,244.23 390.9,244.12 390.72,244Q390.57,243.9 390.35,243.68L389.65,243.68Q389.43,243.9 389.28,244C389.1,244.12 388.89,244.23 388.65,244.33C388.36,244.45 388.03,244.56 387.67,244.66C387.26,244.78 386.79,244.89 386.31,244.99C385.78,245.1 385.21,245.2 384.63,245.31C384.02,245.42 383.38,245.53 382.76,245.64C382.15,245.75 381.52,245.86 380.93,245.97C380.38,246.08 379.83,246.18 379.34,246.3C378.92,246.4 378.5,246.5 378.16,246.62C377.89,246.72 377.62,246.82 377.44,246.95C377.3,247.05 377.18,247.16 377.12,247.28C377.07,247.38 377.08,247.5 377.08,247.61C377.08,247.72 377.12,247.82 377.12,247.93C377.12,248.04 377.12,248.16 377.07,248.26C377.02,248.38 376.92,248.49 376.8,248.59C376.66,248.71 376.45,248.82 376.24,248.92C375.99,249.04 375.68,249.14 375.37,249.24C375.01,249.36 374.61,249.47 374.2,249.57C373.74,249.69 373.25,249.79 372.74,249.9C372.2,250.01 371.62,250.12 371.04,250.23C370.45,250.34 369.83,250.44 369.24,250.55C368.67,250.66 368.07,250.76 367.56,250.88C367.12,250.98 366.63,251.07 366.33,251.21C366.13,251.31 365.86,251.44 365.87,251.54C365.88,251.65 366.2,251.77 366.46,251.86C366.88,252.01 367.55,252.09 368.2,252.19C369.01,252.32 369.99,252.42 370.96,252.52C372.05,252.64 373.24,252.74 374.41,252.85C375.62,252.96 376.89,253.06 378.1,253.17C379.28,253.28 380.47,253.38 381.58,253.5C382.59,253.61 383.59,253.71 384.49,253.83C385.28,253.93 386.03,254.04 386.69,254.16C387.24,254.26 387.75,254.36 388.18,254.48Q388.52,254.58 389.09,254.81Z" style="vector-effect: non-scaling-stroke; stroke-width: 2px; stroke: rgb(239, 85, 59); stroke-opacity: 1; fill: rgb(239, 85, 59); fill-opacity: 0.5;"/><path class="box" d="M68.44,251.26H87.55M68.44,252.32H87.55V249.41H68.44ZM78,252.32V252.82M78,249.41V245.48" style="vector-effect: non-scaling-stroke; stroke-width: 2px; stroke: rgb(239, 85, 59); stroke-opacity: 1; fill: rgb(239, 85, 59); fill-opacity: 0.5;"/><path class="box" d="M224.44,250.19H243.55M224.44,251.89H243.55V248.07H224.44ZM234,251.89V252.8M234,248.07V245.47" style="vector-effect: non-scaling-stroke; stroke-width: 2px; stroke: rgb(239, 85, 59); stroke-opacity: 1; fill: rgb(239, 85, 59); fill-opacity: 0.5;"/><path class="box" d="M380.44,250.46H399.55M380.44,251.68H399.55V247.84H380.44ZM390,251.68V252.8M390,247.84V245.69" style="vector-effect: non-scaling-stroke; stroke-width: 2px; stroke: rgb(239, 85, 59); stroke-opacity: 1; fill: rgb(239, 85, 59); fill-opacity: 0.5;"/><path class="mean" d="M68.44,250.62H87.55" style="fill: none; vector-effect: non-scaling-stroke; stroke-width: 2px; stroke-dasharray: 4px, 2px; stroke: rgb(239, 85, 59); stroke-opacity: 1;"/><path class="mean" d="M224.44,249.85H243.55" style="fill: none; vector-effect: non-scaling-stroke; stroke-width: 2px; stroke-dasharray: 4px, 2px; stroke: rgb(239, 85, 59); stroke-opacity: 1;"/><path class="mean" d="M380.44,249.95H399.55" style="fill: none; vector-effect: non-scaling-stroke; stroke-width: 2px; stroke-dasharray: 4px, 2px; stroke: rgb(239, 85, 59); stroke-opacity: 1;"/></g></g></g><g class="overplot"/><path class="xlines-above crisp" d="M0,0" style="fill: none;"/><path class="ylines-above crisp" d="M0,0" style="fill: none;"/><g class="overlines-above"/><g class="xaxislayer-above"><g class="x4tick"><text text-anchor="middle" x="0" y="833" transform="translate(730,0)" style="font-family: 'Open Sans', verdana, arial, sans-serif; font-size: 12px; fill: rgb(42, 63, 95); fill-opacity: 1; white-space: pre; opacity: 1;">&#60;=1</text></g><g class="x4tick"><text text-anchor="middle" x="0" y="833" transform="translate(886,0)" style="font-family: 'Open Sans', verdana, arial, sans-serif; font-size: 12px; fill: rgb(42, 63, 95); fill-opacity: 1; white-space: pre; opacity: 1;">(1, 2]</text></g><g class="x4tick"><text text-anchor="middle" x="0" y="833" transform="translate(1042,0)" style="font-family: 'Open Sans', verdana, arial, sans-serif; font-size: 12px; fill: rgb(42, 63, 95); fill-opacity: 1; white-space: pre; opacity: 1;">>2</text></g></g><g class="yaxislayer-above"><g class="y4tick"><text text-anchor="end" x="651" y="4.199999999999999" transform="translate(0,814.37)" style="font-family: 'Open Sans', verdana, arial, sans-serif; font-size: 12px; fill: rgb(42, 63, 95); fill-opacity: 1; white-space: pre; opacity: 1;">−0.5M</text></g><g class="y4tick"><text text-anchor="end" x="651" y="4.199999999999999" style="font-family: 'Open Sans', verdana, arial, sans-serif; font-size: 12px; fill: rgb(42, 63, 95); fill-opacity: 1; white-space: pre; opacity: 1;" transform="translate(0,766.8199999999999)">0</text></g><g class="y4tick"><text text-anchor="end" x="651" y="4.199999999999999" style="font-family: 'Open Sans', verdana, arial, sans-serif; font-size: 12px; fill: rgb(42, 63, 95); fill-opacity: 1; white-space: pre; opacity: 1;" transform="translate(0,719.28)">0.5M</text></g><g class="y4tick"><text text-anchor="end" x="651" y="4.199999999999999" style="font-family: 'Open Sans', verdana, arial, sans-serif; font-size: 12px; fill: rgb(42, 63, 95); fill-opacity: 1; white-space: pre; opacity: 1;" transform="translate(0,671.73)">1M</text></g><g class="y4tick"><text text-anchor="end" x="651" y="4.199999999999999" style="font-family: 'Open Sans', verdana, arial, sans-serif; font-size: 12px; fill: rgb(42, 63, 95); fill-opacity: 1; white-space: pre; opacity: 1;" transform="translate(0,624.1800000000001)">1.5M</text></g><g class="y4tick"><text text-anchor="end" x="651" y="4.199999999999999" style="font-family: 'Open Sans', verdana, arial, sans-serif; font-size: 12px; fill: rgb(42, 63, 95); fill-opacity: 1; white-space: pre; opacity: 1;" transform="translate(0,576.63)">2M</text></g><g class="y4tick"><text text-anchor="end" x="651" y="4.199999999999999" style="font-family: 'Open Sans', verdana, arial, sans-serif; font-size: 12px; fill: rgb(42, 63, 95); fill-opacity: 1; white-space: pre; opacity: 1;" transform="translate(0,529.08)">2.5M</text></g></g><g class="overaxes-above"/></g></g><g class="polarlayer"/><g class="smithlayer"/><g class="ternarylayer"/><g class="geolayer"/><g class="funnelarealayer"/><g class="pielayer"/><g class="iciclelayer"/><g class="treemaplayer"/><g class="sunburstlayer"/><g class="glimages"/><defs id="topdefs-f9898d"><g class="clips"/></defs><g class="layer-above"><g class="imagelayer"/><g class="shapelayer"/></g><g class="infolayer"><g class="g-gtitle"><text class="gtitle" x="60" y="50" text-anchor="start" dy="0em" style="font-family: 'Open Sans', verdana, arial, sans-serif; font-size: 17px; fill: rgb(42, 63, 95); opacity: 1; font-weight: normal; white-space: pre;">whole_rank Distributions</text></g><g class="g-xtitle"><text class="xtitle" x="314" y="447.8" text-anchor="middle" style="font-family: 'Open Sans', verdana, arial, sans-serif; font-size: 14px; fill: rgb(42, 63, 95); opacity: 1; font-weight: normal; white-space: pre;">Hardcover over Paperback</text></g><g class="g-x2title"><text class="x2title" x="886" y="447.8" text-anchor="middle" style="font-family: 'Open Sans', verdana, arial, sans-serif; font-size: 14px; fill: rgb(42, 63, 95); opacity: 1; font-weight: normal; white-space: pre;">Hardcover over Paperback</text></g><g class="g-x3title"><text class="x3title" x="314" y="861.8" text-anchor="middle" style="font-family: 'Open Sans', verdana, arial, sans-serif; font-size: 14px; fill: rgb(42, 63, 95); opacity: 1; font-weight: normal; white-space: pre;">Hardcover over Paperback</text></g><g class="g-x4title"><text class="x4title" x="886" y="861.8" text-anchor="middle" style="font-family: 'Open Sans', verdana, arial, sans-serif; font-size: 14px; fill: rgb(42, 63, 95); opacity: 1; font-weight: normal; white-space: pre;">Hardcover over Paperback</text></g><g class="g-ytitle"><text class="ytitle" transform="rotate(-90,19.668750000000003,253.00000000000003)" x="19.668750000000003" y="253.00000000000003" text-anchor="middle" style="font-family: 'Open Sans', verdana, arial, sans-serif; font-size: 14px; fill: rgb(42, 63, 95); opacity: 1; font-weight: normal; white-space: pre;">whole_rank</text></g><g class="g-y2title"><text class="y2title" transform="rotate(-90,591.66875,253.00000000000003)" x="591.66875" y="253.00000000000003" text-anchor="middle" style="font-family: 'Open Sans', verdana, arial, sans-serif; font-size: 14px; fill: rgb(42, 63, 95); opacity: 1; font-weight: normal; white-space: pre;">whole_rank</text></g><g class="g-y3title"><text class="y3title" transform="rotate(-90,19.668750000000003,667)" x="19.668750000000003" y="667" text-anchor="middle" style="font-family: 'Open Sans', verdana, arial, sans-serif; font-size: 14px; fill: rgb(42, 63, 95); opacity: 1; font-weight: normal; white-space: pre;">whole_rank</text></g><g class="g-y4title"><text class="y4title" transform="rotate(-90,591.66875,667)" x="591.66875" y="667" text-anchor="middle" style="font-family: 'Open Sans', verdana, arial, sans-serif; font-size: 14px; fill: rgb(42, 63, 95); opacity: 1; font-weight: normal; white-space: pre;">whole_rank</text></g><g class="annotation" data-index="0" style="opacity: 1;"><g class="annotation-text-g" transform="rotate(0,314,87)"><g class="cursor-pointer" transform="translate(202,74)"><rect class="bg" x="0.5" y="0.5" width="224" height="25" style="stroke-width: 1px; stroke: rgb(0, 0, 0); stroke-opacity: 0; fill: rgb(0, 0, 0); fill-opacity: 0;"/><text class="annotation-text" text-anchor="middle" x="112.578125" y="19" style="font-family: 'Open Sans', verdana, arial, sans-serif; font-size: 16px; fill: rgb(42, 63, 95); fill-opacity: 1; white-space: pre;">Paperback (Paperback Better)</text></g></g></g><g class="annotation" data-index="1" style="opacity: 1;"><g class="annotation-text-g" transform="rotate(0,886,87)"><g class="cursor-pointer" transform="translate(774,74)"><rect class="bg" x="0.5" y="0.5" width="223" height="25" style="stroke-width: 1px; stroke: rgb(0, 0, 0); stroke-opacity: 0; fill: rgb(0, 0, 0); fill-opacity: 0;"/><text class="annotation-text" text-anchor="middle" x="112.203125" y="19" style="font-family: 'Open Sans', verdana, arial, sans-serif; font-size: 16px; fill: rgb(42, 63, 95); fill-opacity: 1; white-space: pre;">Hardcover (Paperback Better)</text></g></g></g><g class="annotation" data-index="2" style="opacity: 1;"><g class="annotation-text-g" transform="rotate(0,314,501)"><g class="cursor-pointer" transform="translate(202,488)"><rect class="bg" x="0.5" y="0.5" width="223" height="25" style="stroke-width: 1px; stroke: rgb(0, 0, 0); stroke-opacity: 0; fill: rgb(0, 0, 0); fill-opacity: 0;"/><text class="annotation-text" text-anchor="middle" x="112.203125" y="19" style="font-family: 'Open Sans', verdana, arial, sans-serif; font-size: 16px; fill: rgb(42, 63, 95); fill-opacity: 1; white-space: pre;">Paperback (Hardcover Better)</text></g></g></g><g class="annotation" data-index="3" style="opacity: 1;"><g class="annotation-text-g" transform="rotate(0,886,501)"><g class="cursor-pointer" transform="translate(774,488)"><rect class="bg" x="0.5" y="0.5" width="223" height="25" style="stroke-width: 1px; stroke: rgb(0, 0, 0); stroke-opacity: 0; fill: rgb(0, 0, 0); fill-opacity: 0;"/><text class="annotation-text" text-anchor="middle" x="111.828125" y="19" style="font-family: 'Open Sans', verdana, arial, sans-serif; font-size: 16px; fill: rgb(42, 63, 95); fill-opacity: 1; white-space: pre;">Hardcover (Hardcover Better)</text></g></g></g></g></svg>