<svg class="main-svg" xmlns="http://www.w3.org/2000/svg" xmlns:xlink="http://www.w3.org/1999/xlink" width="1600" height="800" style="" viewBox="0 0 1600 800"><rect x="0" y="0" width="1600" height="800" style="fill: rgb(255, 255, 255); fill-opacity: 1;"/><defs id="defs-9373b3"><g class="clips"><clipPath id="clip9373b3xyplot" class="plotclip"><rect width="648" height="620"/></clipPath><clipPath id="clip9373b3x2y2plot" class="plotclip"><rect width="647.9999999999999" height="620"/></clipPath><clipPath class="axesclip" id="clip9373b3x"><rect x="80" y="0" width="648" height="800"/></clipPath><clipPath class="axesclip" id="clip9373b3y"><rect x="0" y="100" width="1600" height="620"/></clipPath><clipPath class="axesclip" id="clip9373b3xy"><rect x="80" y="100" width="648" height="620"/></clipPath><clipPath class="axesclip" id="clip9373b3y2"><rect x="0" y="100" width="1600" height="620"/></clipPath><clipPath class="axesclip" id="clip9373b3xy2"><rect x="80" y="100" width="648" height="620"/></clipPath><clipPath class="axesclip" id="clip9373b3x2"><rect x="872.0000000000001" y="0" width="647.9999999999999" height="800"/></clipPath><clipPath class="axesclip" id="clip9373b3x2y"><rect x="872.0000000000001" y="100" width="647.9999999999999" height="620"/></clipPath><clipPath class="axesclip" id="clip9373b3x2y2"><rect x="872.0000000000001" y="100" width="647.9999999999999" height="620"/></clipPath></g><g class="gradients"/><g class="patterns"/></defs><g class="bglayer"><rect class="bg" x="80" y="100" width="648" height="620" style="fill: rgb(229, 236, 246); fill-opacity: 1; stroke-width: 0;"/><rect class="bg" x="872.0000000000001" y="100" width="647.9999999999999" height="620" style="fill: rgb(229, 236, 246); fill-opacity: 1; stroke-width: 0;"/></g><g class="layer-below"><g class="imagelayer"/><g class="shapelayer"/></g><g class="cartesianlayer"><g class="subplot xy"><g class="layer-subplot"><g class="shapelayer"/><g class="imagelayer"/></g><g class="minor-gridlayer"><g class="x"/><g class="y"/></g><g class="gridlayer"><g class="x"/><g class="y"><path class="ygrid crisp" transform="translate(0,585.19)" d="M80,0h648" style="stroke: rgb(255, 255, 255); stroke-opacity: 1; stroke-width: 1px;"/><path class="ygrid crisp" transform="translate(0,480.52)" d="M80,0h648" style="stroke: rgb(255, 255, 255); stroke-opacity: 1; stroke-width: 1px;"/><path class="ygrid crisp" transform="translate(0,375.86)" d="M80,0h648" style="stroke: rgb(255, 255, 255); stroke-opacity: 1; stroke-width: 1px;"/><path class="ygrid crisp" transform="translate(0,271.19)" d="M80,0h648" style="stroke: rgb(255, 255, 255); stroke-opacity: 1; stroke-width: 1px;"/><path class="ygrid crisp" transform="translate(0,166.53)" d="M80,0h648" style="stroke: rgb(255, 255, 255); stroke-opacity: 1; stroke-width: 1px;"/></g></g><g class="zerolinelayer"><path class="yzl zl crisp" transform="translate(0,689.85)" d="M80,0h648" style="stroke: rgb(255, 255, 255); stroke-opacity: 1; stroke-width: 2px;"/></g><path class="xlines-below"/><path class="ylines-below"/><g class="overlines-below"/><g class="xaxislayer-below"/><g class="yaxislayer-below"/><g class="overaxes-below"/><g class="plot" transform="translate(80,100)" clip-path="url(#clip9373b3xyplot)"><g class="violinlayer mlayer"><g class="trace violins" style="opacity: 1;"><path class="violin" d="M108.01,547.2Q108.01,544.09 108.01,542.53C108.01,540.97 108.02,539.42 108.02,537.86C108.02,536.31 108.03,534.75 108.03,533.2C108.03,531.64 108.04,530.09 108.04,528.53C108.05,526.97 108.05,525.42 108.06,523.86C108.06,522.3 108.07,520.75 108.07,519.19C108.07,517.63 108.08,516.08 108.08,514.52C108.08,512.96 108.08,511.41 108.08,509.85C108.08,508.29 108.09,506.74 108.09,505.18C108.09,503.62 108.09,502.07 108.09,500.51C108.09,498.95 108.09,497.4 108.1,495.84C108.1,494.29 108.11,492.73 108.12,491.18C108.13,489.62 108.14,488.07 108.15,486.51C108.16,484.95 108.17,483.4 108.18,481.84C108.19,480.28 108.2,478.73 108.21,477.17C108.22,475.61 108.24,474.06 108.25,472.5C108.26,470.94 108.26,469.39 108.27,467.83C108.28,466.27 108.28,464.72 108.29,463.16C108.29,461.6 108.3,460.05 108.3,458.49C108.3,456.93 108.31,455.38 108.31,453.82C108.31,452.26 108.32,450.71 108.32,449.15C108.32,447.6 108.33,446.04 108.33,444.49C108.33,442.93 108.34,441.38 108.34,439.82C108.34,438.26 108.34,436.71 108.34,435.15C108.34,433.59 108.34,432.04 108.34,430.48C108.34,428.92 108.33,427.37 108.32,425.81C108.32,424.25 108.31,422.7 108.31,421.14C108.3,419.58 108.3,418.03 108.29,416.47C108.29,414.91 108.28,413.36 108.28,411.8C108.28,410.24 108.27,408.69 108.27,407.13C108.27,405.57 108.27,404.02 108.27,402.46C108.27,400.91 108.27,399.35 108.27,397.8C108.27,396.24 108.27,394.69 108.27,393.13C108.27,391.57 108.26,390.02 108.26,388.46C108.26,386.9 108.25,385.35 108.25,383.79C108.25,382.23 108.24,380.68 108.24,379.12C108.24,377.56 108.24,376.01 108.24,374.45C108.24,372.89 108.24,371.34 108.24,369.78C108.24,368.22 108.25,366.67 108.25,365.11C108.25,363.55 108.26,362 108.26,360.44C108.26,358.89 108.27,357.33 108.27,355.78C108.27,354.22 108.27,352.67 108.27,351.11C108.27,349.55 108.27,348 108.27,346.44C108.27,344.88 108.28,343.33 108.28,341.77C108.28,340.21 108.29,338.66 108.29,337.1C108.3,335.54 108.3,333.99 108.31,332.43C108.32,330.87 108.32,329.32 108.33,327.76C108.34,326.2 108.36,324.65 108.38,323.09C108.4,321.53 108.42,319.98 108.44,318.42C108.46,316.86 108.49,315.31 108.52,313.75C108.55,312.2 108.59,310.64 108.62,309.09C108.66,307.53 108.69,305.98 108.73,304.42C108.77,302.86 108.8,301.31 108.84,299.75C108.88,298.19 108.92,296.64 108.96,295.08C109,293.52 109.03,291.97 109.06,290.41C109.09,288.85 109.13,287.3 109.16,285.74C109.19,284.18 109.22,282.63 109.25,281.07C109.28,279.51 109.3,277.96 109.32,276.4C109.34,274.84 109.35,273.29 109.36,271.73C109.37,270.18 109.38,268.62 109.38,267.07C109.38,265.51 109.37,263.96 109.36,262.4C109.35,260.84 109.34,259.29 109.33,257.73C109.32,256.17 109.31,254.62 109.3,253.06C109.29,251.5 109.29,249.95 109.28,248.39C109.28,246.83 109.27,245.28 109.27,243.72C109.27,242.16 109.27,240.61 109.27,239.05C109.27,237.49 109.27,235.94 109.27,234.38C109.27,232.82 109.26,231.27 109.26,229.71C109.26,228.15 109.26,226.6 109.26,225.04C109.26,223.49 109.27,221.93 109.27,220.38C109.27,218.82 109.28,217.27 109.28,215.71C109.29,214.15 109.29,212.6 109.3,211.04C109.31,209.48 109.33,207.93 109.35,206.37C109.37,204.81 109.41,203.26 109.44,201.7C109.48,200.14 109.52,198.59 109.56,197.03C109.61,195.47 109.66,193.92 109.71,192.36C109.77,190.8 109.83,189.25 109.89,187.69C109.95,186.13 110.01,184.58 110.06,183.02C110.11,181.46 110.16,179.91 110.2,178.35C110.24,176.8 110.27,175.24 110.29,173.69C110.31,172.13 110.33,170.58 110.34,169.02C110.35,167.46 110.35,165.91 110.36,164.35C110.36,162.79 110.37,161.24 110.37,159.68C110.38,158.12 110.38,156.57 110.39,155.01C110.4,153.45 110.42,151.9 110.44,150.34C110.46,148.78 110.48,147.23 110.51,145.67C110.54,144.11 110.58,142.56 110.62,141C110.66,139.44 110.71,137.89 110.75,136.33C110.79,134.78 110.84,133.22 110.87,131.67C110.9,130.11 110.93,128.56 110.95,127C110.97,125.44 110.97,123.89 110.97,122.33C110.97,120.77 110.95,119.22 110.93,117.66C110.91,116.1 110.88,114.55 110.86,112.99C110.84,111.43 110.8,109.88 110.83,108.32C110.86,106.76 110.88,105.2 111.02,103.65C111.16,102.09 111.33,100.52 111.67,98.98C112.02,97.41 112.47,95.84 113.11,94.31C113.77,92.72 114.63,91.15 115.62,89.64C116.67,88.04 117.97,86.5 119.29,84.98C120.67,83.39 122.27,81.87 123.75,80.31C125.23,78.75 126.87,77.25 128.17,75.64C129.4,74.13 130.68,72.6 131.4,70.97C132.06,69.47 132.52,67.85 132.46,66.3C132.39,64.73 131.76,63.12 130.98,61.63C130.12,59.99 128.71,58.47 127.37,56.96C125.95,55.35 124.22,53.85 122.65,52.29C121.08,50.73 119.4,49.21 117.94,47.62C116.54,46.1 115.17,44.55 114.04,42.95Q112.97,41.44 111.29,38.29L104.71,38.29Q103.03,41.44 101.96,42.95C100.83,44.55 99.46,46.1 98.06,47.62C96.6,49.21 94.92,50.73 93.35,52.29C91.78,53.85 90.05,55.35 88.63,56.96C87.29,58.47 85.88,59.99 85.02,61.63C84.24,63.12 83.61,64.73 83.54,66.3C83.48,67.85 83.94,69.47 84.6,70.97C85.32,72.6 86.6,74.13 87.83,75.64C89.13,77.25 90.77,78.75 92.25,80.31C93.73,81.87 95.33,83.39 96.71,84.98C98.03,86.5 99.33,88.04 100.38,89.64C101.37,91.15 102.23,92.72 102.89,94.31C103.53,95.84 103.98,97.41 104.33,98.98C104.67,100.52 104.84,102.09 104.98,103.65C105.12,105.2 105.14,106.76 105.17,108.32C105.2,109.88 105.16,111.43 105.14,112.99C105.12,114.55 105.09,116.1 105.07,117.66C105.05,119.22 105.03,120.77 105.03,122.33C105.03,123.89 105.03,125.44 105.05,127C105.07,128.56 105.1,130.11 105.13,131.67C105.16,133.22 105.21,134.78 105.25,136.33C105.29,137.89 105.34,139.44 105.38,141C105.42,142.56 105.46,144.11 105.49,145.67C105.52,147.23 105.54,148.78 105.56,150.34C105.58,151.9 105.6,153.45 105.61,155.01C105.62,156.57 105.62,158.12 105.63,159.68C105.63,161.24 105.64,162.79 105.64,164.35C105.65,165.91 105.65,167.46 105.66,169.02C105.67,170.58 105.69,172.13 105.71,173.69C105.73,175.24 105.76,176.8 105.8,178.35C105.84,179.91 105.89,181.46 105.94,183.02C105.99,184.58 106.05,186.13 106.11,187.69C106.17,189.25 106.23,190.8 106.29,192.36C106.34,193.92 106.39,195.47 106.44,197.03C106.48,198.59 106.52,200.14 106.56,201.7C106.59,203.26 106.63,204.81 106.65,206.37C106.67,207.93 106.69,209.48 106.7,211.04C106.71,212.6 106.71,214.15 106.72,215.71C106.72,217.27 106.73,218.82 106.73,220.38C106.73,221.93 106.74,223.49 106.74,225.04C106.74,226.6 106.74,228.15 106.74,229.71C106.74,231.27 106.73,232.82 106.73,234.38C106.73,235.94 106.73,237.49 106.73,239.05C106.73,240.61 106.73,242.16 106.73,243.72C106.73,245.28 106.72,246.83 106.72,248.39C106.71,249.95 106.71,251.5 106.7,253.06C106.69,254.62 106.68,256.17 106.67,257.73C106.66,259.29 106.65,260.84 106.64,262.4C106.63,263.96 106.62,265.51 106.62,267.07C106.62,268.62 106.63,270.18 106.64,271.73C106.65,273.29 106.66,274.84 106.68,276.4C106.7,277.96 106.72,279.51 106.75,281.07C106.78,282.63 106.81,284.18 106.84,285.74C106.87,287.3 106.91,288.85 106.94,290.41C106.97,291.97 107,293.52 107.04,295.08C107.08,296.64 107.12,298.19 107.16,299.75C107.2,301.31 107.23,302.86 107.27,304.42C107.31,305.98 107.34,307.53 107.38,309.09C107.41,310.64 107.45,312.2 107.48,313.75C107.51,315.31 107.54,316.86 107.56,318.42C107.58,319.98 107.6,321.53 107.62,323.09C107.64,324.65 107.66,326.2 107.67,327.76C107.68,329.32 107.68,330.87 107.69,332.43C107.7,333.99 107.7,335.54 107.71,337.1C107.71,338.66 107.72,340.21 107.72,341.77C107.72,343.33 107.73,344.88 107.73,346.44C107.73,348 107.73,349.55 107.73,351.11C107.73,352.67 107.73,354.22 107.73,355.78C107.73,357.33 107.74,358.89 107.74,360.44C107.74,362 107.75,363.55 107.75,365.11C107.75,366.67 107.76,368.22 107.76,369.78C107.76,371.34 107.76,372.89 107.76,374.45C107.76,376.01 107.76,377.56 107.76,379.12C107.76,380.68 107.75,382.23 107.75,383.79C107.75,385.35 107.74,386.9 107.74,388.46C107.74,390.02 107.73,391.57 107.73,393.13C107.73,394.69 107.73,396.24 107.73,397.8C107.73,399.35 107.73,400.91 107.73,402.46C107.73,404.02 107.73,405.57 107.73,407.13C107.73,408.69 107.72,410.24 107.72,411.8C107.72,413.36 107.71,414.91 107.71,416.47C107.7,418.03 107.7,419.58 107.69,421.14C107.69,422.7 107.68,424.25 107.68,425.81C107.67,427.37 107.66,428.92 107.66,430.48C107.66,432.04 107.66,433.59 107.66,435.15C107.66,436.71 107.66,438.26 107.66,439.82C107.66,441.38 107.67,442.93 107.67,444.49C107.67,446.04 107.68,447.6 107.68,449.15C107.68,450.71 107.69,452.26 107.69,453.82C107.69,455.38 107.7,456.93 107.7,458.49C107.7,460.05 107.71,461.6 107.71,463.16C107.72,464.72 107.72,466.27 107.73,467.83C107.74,469.39 107.74,470.94 107.75,472.5C107.76,474.06 107.78,475.61 107.79,477.17C107.8,478.73 107.81,480.28 107.82,481.84C107.83,483.4 107.84,484.95 107.85,486.51C107.86,488.07 107.87,489.62 107.88,491.18C107.89,492.73 107.9,494.29 107.9,495.84C107.91,497.4 107.91,498.95 107.91,500.51C107.91,502.07 107.91,503.62 107.91,505.18C107.91,506.74 107.92,508.29 107.92,509.85C107.92,511.41 107.92,512.96 107.92,514.52C107.92,516.08 107.93,517.63 107.93,519.19C107.93,520.75 107.94,522.3 107.94,523.86C107.95,525.42 107.95,526.97 107.96,528.53C107.96,530.09 107.97,531.64 107.97,533.2C107.97,534.75 107.98,536.31 107.98,537.86C107.98,539.42 107.99,540.97 107.99,542.53Q107.99,544.09 107.99,547.2Z" style="vector-effect: non-scaling-stroke; stroke-width: 2px; stroke: rgb(99, 110, 250); stroke-opacity: 1; fill: rgb(99, 110, 250); fill-opacity: 0.5;"/><path class="violin" d="M324,563.01Q324,559.07 324,557.1C324,555.13 324.01,553.16 324.01,551.19C324.01,549.22 324.01,547.25 324.01,545.28C324.01,543.31 324.01,541.33 324.01,539.36C324.01,537.39 324.02,535.42 324.02,533.45C324.02,531.48 324.02,529.51 324.02,527.54C324.02,525.57 324.03,523.6 324.03,521.63C324.03,519.66 324.04,517.69 324.04,515.72C324.04,513.75 324.05,511.78 324.05,509.81C324.05,507.84 324.06,505.87 324.06,503.9C324.06,501.93 324.07,499.96 324.07,497.99C324.07,496.02 324.08,494.04 324.08,492.07C324.08,490.1 324.09,488.13 324.09,486.16C324.09,484.19 324.1,482.22 324.1,480.25C324.1,478.28 324.1,476.31 324.1,474.34C324.1,472.37 324.1,470.4 324.1,468.43C324.1,466.46 324.1,464.49 324.1,462.52C324.1,460.55 324.1,458.58 324.1,456.61C324.1,454.64 324.11,452.67 324.11,450.7C324.11,448.73 324.12,446.76 324.12,444.79C324.12,442.82 324.12,440.84 324.12,438.87C324.12,436.9 324.13,434.93 324.13,432.96C324.13,430.99 324.14,429.02 324.14,427.05C324.14,425.08 324.14,423.11 324.15,421.14C324.16,419.17 324.17,417.2 324.18,415.23C324.19,413.26 324.2,411.29 324.21,409.32C324.22,407.35 324.24,405.38 324.25,403.41C324.26,401.44 324.28,399.47 324.29,397.5C324.3,395.53 324.31,393.55 324.32,391.58C324.33,389.61 324.34,387.64 324.35,385.67C324.36,383.7 324.36,381.73 324.37,379.76C324.37,377.79 324.38,375.82 324.38,373.85C324.38,371.88 324.38,369.91 324.38,367.94C324.38,365.97 324.39,364 324.39,362.03C324.4,360.06 324.4,358.09 324.41,356.12C324.42,354.15 324.43,352.18 324.44,350.21C324.45,348.24 324.47,346.26 324.49,344.29C324.51,342.32 324.53,340.35 324.56,338.38C324.59,336.41 324.63,334.44 324.67,332.47C324.71,330.5 324.76,328.53 324.81,326.56C324.86,324.59 324.92,322.62 324.98,320.65C325.04,318.68 325.11,316.71 325.17,314.74C325.24,312.77 325.31,310.8 325.37,308.83C325.43,306.86 325.5,304.89 325.55,302.92C325.61,300.95 325.66,298.97 325.7,297C325.74,295.03 325.78,293.06 325.81,291.09C325.84,289.12 325.87,287.15 325.89,285.18C325.91,283.21 325.92,281.24 325.94,279.27C325.95,277.3 325.97,275.33 325.98,273.36C326,271.39 326.01,269.42 326.03,267.45C326.05,265.48 326.06,263.51 326.08,261.54C326.1,259.57 326.12,257.6 326.14,255.63C326.16,253.66 326.17,251.69 326.18,249.72C326.19,247.75 326.2,245.77 326.2,243.8C326.2,241.83 326.19,239.86 326.18,237.89C326.17,235.92 326.16,233.95 326.14,231.98C326.12,230.01 326.09,228.04 326.07,226.07C326.05,224.1 326.02,222.13 326,220.16C325.97,218.19 325.94,216.22 325.92,214.25C325.9,212.28 325.88,210.31 325.86,208.34C325.84,206.37 325.83,204.4 325.82,202.43C325.81,200.46 325.8,198.48 325.8,196.51C325.8,194.54 325.8,192.57 325.81,190.6C325.82,188.63 325.83,186.66 325.84,184.69C325.86,182.72 325.88,180.75 325.9,178.78C325.92,176.81 325.94,174.84 325.96,172.87C325.98,170.9 326.01,168.93 326.03,166.96C326.05,164.99 326.07,163.02 326.08,161.05C326.09,159.08 326.1,157.11 326.1,155.14C326.11,153.17 326.11,151.19 326.11,149.22C326.11,147.25 326.1,145.28 326.1,143.31C326.1,141.34 326.09,139.37 326.09,137.4C326.09,135.43 326.09,133.46 326.09,131.49C326.09,129.52 326.1,127.55 326.12,125.58C326.14,123.61 326.16,121.64 326.21,119.67C326.27,117.7 326.32,115.73 326.45,113.76C326.58,111.79 326.73,109.81 327.01,107.85C327.29,105.87 327.62,103.89 328.11,101.93C328.61,99.94 329.24,97.97 329.99,96.02C330.76,94.03 331.72,92.06 332.71,90.11C333.73,88.12 334.92,86.17 336.03,84.2C337.13,82.23 338.37,80.29 339.34,78.29C340.28,76.35 341.25,74.39 341.79,72.38C342.31,70.44 342.65,68.44 342.6,66.47C342.55,64.5 342.11,62.49 341.49,60.56C340.85,58.55 339.8,56.58 338.76,54.64C337.69,52.64 336.36,50.7 335.16,48.73C333.96,46.76 332.67,44.81 331.56,42.82C330.48,40.87 329.43,38.91 328.58,36.91Q327.75,34.97 326.49,31L321.51,31Q320.25,34.97 319.42,36.91C318.57,38.91 317.52,40.87 316.44,42.82C315.33,44.81 314.04,46.76 312.84,48.73C311.64,50.7 310.31,52.64 309.24,54.64C308.2,56.58 307.15,58.55 306.51,60.56C305.89,62.49 305.45,64.5 305.4,66.47C305.35,68.44 305.69,70.44 306.21,72.38C306.75,74.39 307.72,76.35 308.66,78.29C309.63,80.29 310.87,82.23 311.97,84.2C313.08,86.17 314.27,88.12 315.29,90.11C316.28,92.06 317.24,94.03 318.01,96.02C318.76,97.97 319.39,99.94 319.89,101.93C320.38,103.89 320.71,105.87 320.99,107.85C321.27,109.81 321.42,111.79 321.55,113.76C321.68,115.73 321.73,117.7 321.79,119.67C321.84,121.64 321.86,123.61 321.88,125.58C321.9,127.55 321.91,129.52 321.91,131.49C321.91,133.46 321.91,135.43 321.91,137.4C321.91,139.37 321.9,141.34 321.9,143.31C321.9,145.28 321.89,147.25 321.89,149.22C321.89,151.19 321.89,153.17 321.9,155.14C321.9,157.11 321.91,159.08 321.92,161.05C321.93,163.02 321.95,164.99 321.97,166.96C321.99,168.93 322.02,170.9 322.04,172.87C322.06,174.84 322.08,176.81 322.1,178.78C322.12,180.75 322.14,182.72 322.16,184.69C322.17,186.66 322.18,188.63 322.19,190.6C322.2,192.57 322.2,194.54 322.2,196.51C322.2,198.48 322.19,200.46 322.18,202.43C322.17,204.4 322.16,206.37 322.14,208.34C322.12,210.31 322.1,212.28 322.08,214.25C322.06,216.22 322.03,218.19 322,220.16C321.98,222.13 321.95,224.1 321.93,226.07C321.91,228.04 321.88,230.01 321.86,231.98C321.84,233.95 321.83,235.92 321.82,237.89C321.81,239.86 321.8,241.83 321.8,243.8C321.8,245.77 321.81,247.75 321.82,249.72C321.83,251.69 321.84,253.66 321.86,255.63C321.88,257.6 321.9,259.57 321.92,261.54C321.94,263.51 321.95,265.48 321.97,267.45C321.99,269.42 322,271.39 322.02,273.36C322.03,275.33 322.05,277.3 322.06,279.27C322.08,281.24 322.09,283.21 322.11,285.18C322.13,287.15 322.16,289.12 322.19,291.09C322.22,293.06 322.26,295.03 322.3,297C322.34,298.97 322.39,300.95 322.45,302.92C322.5,304.89 322.57,306.86 322.63,308.83C322.69,310.8 322.76,312.77 322.83,314.74C322.89,316.71 322.96,318.68 323.02,320.65C323.08,322.62 323.14,324.59 323.19,326.56C323.24,328.53 323.29,330.5 323.33,332.47C323.37,334.44 323.41,336.41 323.44,338.38C323.47,340.35 323.49,342.32 323.51,344.29C323.53,346.26 323.55,348.24 323.56,350.21C323.57,352.18 323.58,354.15 323.59,356.12C323.6,358.09 323.6,360.06 323.61,362.03C323.61,364 323.62,365.97 323.62,367.94C323.62,369.91 323.62,371.88 323.62,373.85C323.62,375.82 323.63,377.79 323.63,379.76C323.64,381.73 323.64,383.7 323.65,385.67C323.66,387.64 323.67,389.61 323.68,391.58C323.69,393.55 323.7,395.53 323.71,397.5C323.72,399.47 323.74,401.44 323.75,403.41C323.76,405.38 323.78,407.35 323.79,409.32C323.8,411.29 323.81,413.26 323.82,415.23C323.83,417.2 323.84,419.17 323.85,421.14C323.86,423.11 323.86,425.08 323.86,427.05C323.86,429.02 323.87,430.99 323.87,432.96C323.87,434.93 323.88,436.9 323.88,438.87C323.88,440.84 323.88,442.82 323.88,444.79C323.88,446.76 323.89,448.73 323.89,450.7C323.89,452.67 323.9,454.64 323.9,456.61C323.9,458.58 323.9,460.55 323.9,462.52C323.9,464.49 323.9,466.46 323.9,468.43C323.9,470.4 323.9,472.37 323.9,474.34C323.9,476.31 323.9,478.28 323.9,480.25C323.9,482.22 323.91,484.19 323.91,486.16C323.91,488.13 323.92,490.1 323.92,492.07C323.92,494.04 323.93,496.02 323.93,497.99C323.93,499.96 323.94,501.93 323.94,503.9C323.94,505.87 323.95,507.84 323.95,509.81C323.95,511.78 323.96,513.75 323.96,515.72C323.96,517.69 323.97,519.66 323.97,521.63C323.97,523.6 323.98,525.57 323.98,527.54C323.98,529.51 323.98,531.48 323.98,533.45C323.98,535.42 323.99,537.39 323.99,539.36C323.99,541.33 323.99,543.31 323.99,545.28C323.99,547.25 323.99,549.22 323.99,551.19C323.99,553.16 324,555.13 324,557.1Q324,559.07 324,563.01Z" style="vector-effect: non-scaling-stroke; stroke-width: 2px; stroke: rgb(99, 110, 250); stroke-opacity: 1; fill: rgb(99, 110, 250); fill-opacity: 0.5;"/><path class="violin" d="M540,589Q540,587.43 540,586.64C540,585.85 540,585.06 540,584.27C540,583.48 540.01,582.7 540.01,581.91C540.01,581.12 540.01,580.33 540.01,579.54C540.01,578.75 540.01,577.97 540.01,577.18C540.01,576.39 540.01,575.61 540.01,574.82C540.01,574.03 540.01,573.24 540.01,572.45C540.01,571.66 540.01,570.88 540.01,570.09C540.01,569.3 540.01,568.51 540.01,567.72C540.01,566.93 540.02,566.15 540.02,565.36C540.02,564.57 540.02,563.78 540.02,562.99C540.02,562.2 540.03,561.42 540.03,560.63C540.03,559.84 540.03,559.06 540.03,558.27C540.03,557.48 540.04,556.69 540.04,555.9C540.04,555.11 540.04,554.33 540.04,553.54C540.04,552.75 540.05,551.96 540.05,551.17C540.05,550.38 540.06,549.6 540.06,548.81C540.06,548.02 540.06,547.24 540.06,546.45C540.06,545.66 540.07,544.87 540.07,544.08C540.07,543.29 540.07,542.51 540.07,541.72C540.07,540.93 540.07,540.14 540.07,539.35C540.07,538.56 540.07,537.78 540.07,536.99C540.07,536.2 540.07,535.41 540.07,534.62C540.07,533.83 540.07,533.05 540.07,532.26C540.07,531.47 540.07,530.69 540.07,529.9C540.07,529.11 540.07,528.32 540.07,527.53C540.07,526.74 540.07,525.96 540.07,525.17C540.07,524.38 540.06,523.59 540.06,522.8C540.06,522.01 540.06,521.23 540.06,520.44C540.06,519.65 540.06,518.87 540.06,518.08C540.06,517.29 540.07,516.5 540.07,515.71C540.07,514.92 540.07,514.14 540.07,513.35C540.07,512.56 540.08,511.77 540.08,510.98C540.08,510.19 540.09,509.41 540.09,508.62C540.09,507.83 540.09,507.04 540.09,506.25C540.09,505.46 540.1,504.68 540.1,503.89C540.1,503.1 540.11,502.32 540.11,501.53C540.11,500.74 540.11,499.95 540.11,499.16C540.11,498.37 540.12,497.59 540.12,496.8C540.12,496.01 540.12,495.22 540.12,494.43C540.12,493.64 540.13,492.86 540.13,492.07C540.13,491.28 540.13,490.5 540.13,489.71C540.13,488.92 540.13,488.13 540.13,487.34C540.13,486.55 540.13,485.77 540.13,484.98C540.13,484.19 540.13,483.4 540.13,482.61C540.13,481.82 540.14,481.04 540.14,480.25C540.14,479.46 540.14,478.67 540.14,477.88C540.14,477.09 540.15,476.31 540.15,475.52C540.15,474.73 540.15,473.95 540.15,473.16C540.15,472.37 540.15,471.58 540.15,470.79C540.15,470 540.15,469.22 540.15,468.43C540.15,467.64 540.15,466.85 540.15,466.06C540.15,465.27 540.14,464.49 540.14,463.7C540.14,462.91 540.13,462.13 540.13,461.34C540.12,460.55 540.12,459.76 540.11,458.97C540.11,458.18 540.1,457.4 540.1,456.61C540.1,455.82 540.1,455.03 540.1,454.24C540.1,453.45 540.09,452.67 540.09,451.88C540.09,451.09 540.09,450.31 540.09,449.52C540.09,448.73 540.1,447.94 540.1,447.15C540.1,446.36 540.1,445.58 540.1,444.79C540.1,444 540.11,443.21 540.11,442.42C540.11,441.63 540.12,440.85 540.12,440.06C540.12,439.27 540.12,438.48 540.12,437.69C540.12,436.9 540.13,436.12 540.13,435.33C540.13,434.54 540.14,433.76 540.14,432.97C540.15,432.18 540.15,431.39 540.16,430.6C540.16,429.81 540.17,429.03 540.17,428.24C540.18,427.45 540.18,426.66 540.19,425.87C540.2,425.08 540.2,424.3 540.21,423.51C540.22,422.72 540.23,421.94 540.23,421.15C540.24,420.36 540.24,419.57 540.24,418.78C540.24,417.99 540.25,417.21 540.25,416.42C540.25,415.63 540.26,414.84 540.26,414.05C540.26,413.26 540.26,412.48 540.26,411.69C540.26,410.9 540.26,410.11 540.26,409.32C540.26,408.53 540.26,407.75 540.26,406.96C540.26,406.17 540.26,405.39 540.26,404.6C540.26,403.81 540.27,403.02 540.27,402.23C540.27,401.44 540.27,400.66 540.27,399.87C540.27,399.08 540.28,398.29 540.29,397.5C540.29,396.71 540.3,395.93 540.3,395.14C540.3,394.35 540.31,393.57 540.31,392.78C540.31,391.99 540.3,391.2 540.3,390.41C540.3,389.62 540.29,388.84 540.29,388.05C540.28,387.26 540.28,386.47 540.27,385.68C540.27,384.89 540.26,384.11 540.26,383.32C540.25,382.53 540.24,381.74 540.24,380.95C540.24,380.16 540.24,379.38 540.24,378.59C540.24,377.8 540.25,377.02 540.25,376.23C540.26,375.44 540.26,374.65 540.27,373.86C540.28,373.07 540.28,372.29 540.29,371.5C540.3,370.71 540.3,369.92 540.31,369.13C540.32,368.34 540.32,367.56 540.33,366.77C540.33,365.98 540.34,365.2 540.34,364.41C540.34,363.62 540.35,362.83 540.35,362.04C540.35,361.25 540.34,360.47 540.34,359.68C540.34,358.89 540.33,358.1 540.33,357.31C540.33,356.52 540.32,355.74 540.32,354.95C540.32,354.16 540.31,353.37 540.31,352.58C540.31,351.79 540.31,351.01 540.31,350.22C540.31,349.43 540.32,348.65 540.32,347.86C540.32,347.07 540.32,346.28 540.33,345.49C540.33,344.7 540.35,343.92 540.35,343.13C540.36,342.34 540.35,341.55 540.36,340.76C540.36,339.97 540.37,339.19 540.38,338.4C540.39,337.61 540.39,336.83 540.4,336.04C540.41,335.25 540.41,334.46 540.42,333.67C540.43,332.88 540.44,332.1 540.45,331.31C540.46,330.52 540.47,329.73 540.48,328.94C540.49,328.15 540.51,327.37 540.52,326.58C540.53,325.79 540.54,325.01 540.55,324.22C540.56,323.43 540.57,322.64 540.58,321.85C540.59,321.06 540.6,320.28 540.61,319.49C540.62,318.7 540.63,317.91 540.64,317.12C540.65,316.33 540.67,315.55 540.69,314.76C540.71,313.97 540.72,313.18 540.75,312.39C540.77,311.6 540.81,310.82 540.84,310.03C540.87,309.24 540.91,308.46 540.95,307.67C540.99,306.88 541.03,306.09 541.07,305.3C541.11,304.51 541.15,303.73 541.18,302.94C541.21,302.15 541.24,301.36 541.27,300.57C541.29,299.78 541.31,299 541.33,298.21C541.34,297.42 541.35,296.64 541.36,295.85C541.37,295.06 541.37,294.27 541.37,293.48C541.37,292.69 541.38,291.91 541.38,291.12C541.38,290.33 541.38,289.54 541.38,288.75C541.38,287.96 541.39,287.18 541.4,286.39C541.41,285.6 541.41,284.81 541.42,284.02C541.43,283.23 541.44,282.45 541.45,281.66C541.46,280.87 541.47,280.09 541.48,279.3C541.49,278.51 541.51,277.72 541.51,276.93C541.51,276.14 541.51,275.36 541.51,274.57C541.51,273.78 541.5,272.99 541.49,272.2C541.48,271.41 541.47,270.63 541.46,269.84C541.45,269.05 541.43,268.27 541.42,267.48C541.41,266.69 541.39,265.9 541.38,265.11C541.37,264.32 541.37,263.54 541.37,262.75C541.37,261.96 541.37,261.17 541.38,260.38C541.39,259.59 541.4,258.81 541.41,258.02C541.42,257.23 541.42,256.44 541.43,255.65C541.44,254.86 541.45,254.08 541.45,253.29C541.45,252.5 541.45,251.72 541.45,250.93C541.45,250.14 541.45,249.35 541.44,248.56C541.44,247.77 541.42,246.99 541.42,246.2C541.42,245.41 541.42,244.62 541.42,243.83C541.42,243.04 541.43,242.26 541.44,241.47C541.45,240.68 541.47,239.9 541.49,239.11C541.51,238.32 541.54,237.53 541.56,236.74C541.58,235.95 541.61,235.17 541.63,234.38C541.66,233.59 541.69,232.8 541.71,232.01C541.73,231.22 541.76,230.44 541.77,229.65C541.78,228.86 541.79,228.08 541.79,227.29C541.79,226.5 541.79,225.71 541.78,224.92C541.77,224.13 541.74,223.35 541.72,222.56C541.7,221.77 541.67,220.98 541.64,220.19C541.61,219.4 541.57,218.62 541.54,217.83C541.51,217.04 541.48,216.25 541.46,215.46C541.44,214.67 541.42,213.89 541.4,213.1C541.39,212.31 541.38,211.53 541.37,210.74C541.36,209.95 541.37,209.16 541.37,208.37C541.37,207.58 541.37,206.8 541.37,206.01C541.37,205.22 541.38,204.43 541.39,203.64C541.4,202.85 541.4,202.07 541.41,201.28C541.41,200.49 541.42,199.71 541.42,198.92C541.42,198.13 541.42,197.34 541.42,196.55C541.42,195.76 541.4,194.98 541.4,194.19C541.39,193.4 541.39,192.61 541.39,191.82C541.39,191.03 541.38,190.25 541.38,189.46C541.38,188.67 541.38,187.88 541.39,187.09C541.39,186.3 541.4,185.52 541.41,184.73C541.42,183.94 541.44,183.16 541.45,182.37C541.47,181.58 541.49,180.79 541.5,180C541.51,179.21 541.52,178.43 541.53,177.64C541.54,176.85 541.54,176.06 541.54,175.27C541.54,174.48 541.53,173.7 541.52,172.91C541.51,172.12 541.5,171.34 541.48,170.55C541.46,169.76 541.44,168.97 541.42,168.18C541.4,167.39 541.38,166.61 541.37,165.82C541.35,165.03 541.34,164.24 541.33,163.45C541.32,162.66 541.31,161.88 541.31,161.09C541.31,160.3 541.31,159.51 541.32,158.72C541.33,157.93 541.34,157.15 541.35,156.36C541.36,155.57 541.38,154.79 541.4,154C541.42,153.21 541.43,152.42 541.45,151.63C541.46,150.84 541.48,150.06 541.49,149.27C541.5,148.48 541.52,147.69 541.53,146.9C541.54,146.11 541.54,145.33 541.55,144.54C541.55,143.75 541.56,142.97 541.56,142.18C541.56,141.39 541.55,140.6 541.54,139.81C541.53,139.02 541.51,138.24 541.5,137.45C541.49,136.66 541.48,135.87 541.47,135.08C541.46,134.29 541.45,133.51 541.45,132.72C541.45,131.93 541.46,131.14 541.47,130.35C541.48,129.56 541.49,128.78 541.51,127.99C541.53,127.2 541.56,126.42 541.58,125.63C541.61,124.84 541.64,124.05 541.66,123.26C541.68,122.47 541.71,121.69 541.72,120.9C541.73,120.11 541.74,119.32 541.74,118.53C541.74,117.74 541.73,116.96 541.72,116.17C541.71,115.38 541.7,114.6 541.68,113.81C541.66,113.02 541.64,112.23 541.62,111.44C541.6,110.65 541.58,109.87 541.57,109.08C541.55,108.29 541.54,107.5 541.53,106.71C541.52,105.92 541.52,105.14 541.51,104.35C541.5,103.56 541.5,102.78 541.49,101.99C541.48,101.2 541.48,100.41 541.47,99.62C541.46,98.83 541.44,98.05 541.42,97.26C541.4,96.47 541.36,95.68 541.33,94.89C541.3,94.1 541.25,93.32 541.22,92.53C541.19,91.74 541.14,90.95 541.16,90.16C541.18,89.37 541.18,88.58 541.32,87.8C541.46,87.01 541.65,86.19 542.03,85.44C542.45,84.61 543.05,83.8 543.82,83.07C544.75,82.2 545.99,81.43 547.37,80.71C549.06,79.82 551.14,79.07 553.32,78.34C555.88,77.48 558.86,76.73 561.84,75.98C565.1,75.15 568.72,74.41 572.15,73.62C575.57,72.83 579.25,72.1 582.41,71.25C585.17,70.51 588.22,69.9 590.08,68.89C591.35,68.2 592.92,67.31 592.92,66.52C592.92,65.73 591.32,64.85 590.05,64.16C588.17,63.15 585.12,62.53 582.36,61.79C579.2,60.94 575.52,60.22 572.09,59.43C568.65,58.64 565.03,57.9 561.75,57.07C558.75,56.31 555.77,55.56 553.19,54.7Q550.98,53.96 547.16,52.34L532.84,52.34Q529.02,53.96 526.81,54.7C524.23,55.56 521.25,56.31 518.25,57.07C514.97,57.9 511.35,58.64 507.91,59.43C504.48,60.22 500.8,60.94 497.64,61.79C494.88,62.53 491.83,63.15 489.95,64.16C488.68,64.85 487.08,65.73 487.08,66.52C487.08,67.31 488.65,68.2 489.92,68.89C491.78,69.9 494.83,70.51 497.59,71.25C500.75,72.1 504.43,72.83 507.85,73.62C511.28,74.41 514.9,75.15 518.16,75.98C521.14,76.73 524.12,77.48 526.68,78.34C528.86,79.07 530.94,79.82 532.63,80.71C534.01,81.43 535.25,82.2 536.18,83.07C536.95,83.8 537.55,84.61 537.97,85.44C538.35,86.19 538.54,87.01 538.68,87.8C538.82,88.58 538.82,89.37 538.84,90.16C538.86,90.95 538.81,91.74 538.78,92.53C538.75,93.32 538.7,94.1 538.67,94.89C538.64,95.68 538.6,96.47 538.58,97.26C538.56,98.05 538.54,98.83 538.53,99.62C538.52,100.41 538.52,101.2 538.51,101.99C538.5,102.78 538.5,103.56 538.49,104.35C538.48,105.14 538.48,105.92 538.47,106.71C538.46,107.5 538.45,108.29 538.43,109.08C538.42,109.87 538.4,110.65 538.38,111.44C538.36,112.23 538.34,113.02 538.32,113.81C538.3,114.6 538.29,115.38 538.28,116.17C538.27,116.96 538.26,117.74 538.26,118.53C538.26,119.32 538.27,120.11 538.28,120.9C538.29,121.69 538.32,122.47 538.34,123.26C538.36,124.05 538.39,124.84 538.42,125.63C538.44,126.42 538.47,127.2 538.49,127.99C538.51,128.78 538.52,129.56 538.53,130.35C538.54,131.14 538.55,131.93 538.55,132.72C538.55,133.51 538.54,134.29 538.53,135.08C538.52,135.87 538.51,136.66 538.5,137.45C538.49,138.24 538.47,139.02 538.46,139.81C538.45,140.6 538.44,141.39 538.44,142.18C538.44,142.97 538.45,143.75 538.45,144.54C538.46,145.33 538.46,146.11 538.47,146.9C538.48,147.69 538.5,148.48 538.51,149.27C538.52,150.06 538.54,150.84 538.55,151.63C538.57,152.42 538.58,153.21 538.6,154C538.62,154.79 538.64,155.57 538.65,156.36C538.66,157.15 538.67,157.93 538.68,158.72C538.69,159.51 538.69,160.3 538.69,161.09C538.69,161.88 538.68,162.66 538.67,163.45C538.66,164.24 538.65,165.03 538.63,165.82C538.62,166.61 538.6,167.39 538.58,168.18C538.56,168.97 538.54,169.76 538.52,170.55C538.5,171.34 538.49,172.12 538.48,172.91C538.47,173.7 538.46,174.48 538.46,175.27C538.46,176.06 538.46,176.85 538.47,177.64C538.48,178.43 538.49,179.21 538.5,180C538.51,180.79 538.53,181.58 538.55,182.37C538.56,183.16 538.58,183.94 538.59,184.73C538.6,185.52 538.61,186.3 538.61,187.09C538.62,187.88 538.62,188.67 538.62,189.46C538.62,190.25 538.61,191.03 538.61,191.82C538.61,192.61 538.61,193.4 538.6,194.19C538.6,194.98 538.58,195.76 538.58,196.55C538.58,197.34 538.58,198.13 538.58,198.92C538.58,199.71 538.59,200.49 538.59,201.28C538.6,202.07 538.6,202.85 538.61,203.64C538.62,204.43 538.63,205.22 538.63,206.01C538.63,206.8 538.63,207.58 538.63,208.37C538.63,209.16 538.64,209.95 538.63,210.74C538.62,211.53 538.61,212.31 538.6,213.1C538.58,213.89 538.56,214.67 538.54,215.46C538.52,216.25 538.49,217.04 538.46,217.83C538.43,218.62 538.39,219.4 538.36,220.19C538.33,220.98 538.3,221.77 538.28,222.56C538.26,223.35 538.23,224.13 538.22,224.92C538.21,225.71 538.21,226.5 538.21,227.29C538.21,228.08 538.22,228.86 538.23,229.65C538.24,230.44 538.27,231.22 538.29,232.01C538.31,232.8 538.34,233.59 538.37,234.38C538.39,235.17 538.42,235.95 538.44,236.74C538.46,237.53 538.49,238.32 538.51,239.11C538.53,239.9 538.55,240.68 538.56,241.47C538.57,242.26 538.58,243.04 538.58,243.83C538.58,244.62 538.58,245.41 538.58,246.2C538.58,246.99 538.56,247.77 538.56,248.56C538.55,249.35 538.55,250.14 538.55,250.93C538.55,251.72 538.55,252.5 538.55,253.29C538.55,254.08 538.56,254.86 538.57,255.65C538.58,256.44 538.58,257.23 538.59,258.02C538.6,258.81 538.61,259.59 538.62,260.38C538.63,261.17 538.63,261.96 538.63,262.75C538.63,263.54 538.63,264.32 538.62,265.11C538.61,265.9 538.59,266.69 538.58,267.48C538.57,268.27 538.55,269.05 538.54,269.84C538.53,270.63 538.52,271.41 538.51,272.2C538.5,272.99 538.49,273.78 538.49,274.57C538.49,275.36 538.49,276.14 538.49,276.93C538.49,277.72 538.51,278.51 538.52,279.3C538.53,280.09 538.54,280.87 538.55,281.66C538.56,282.45 538.57,283.23 538.58,284.02C538.59,284.81 538.59,285.6 538.6,286.39C538.61,287.18 538.62,287.96 538.62,288.75C538.62,289.54 538.62,290.33 538.62,291.12C538.62,291.91 538.63,292.69 538.63,293.48C538.63,294.27 538.63,295.06 538.64,295.85C538.65,296.64 538.66,297.42 538.67,298.21C538.69,299 538.71,299.78 538.73,300.57C538.76,301.36 538.79,302.15 538.82,302.94C538.85,303.73 538.89,304.51 538.93,305.3C538.97,306.09 539.01,306.88 539.05,307.67C539.09,308.46 539.13,309.24 539.16,310.03C539.19,310.82 539.23,311.6 539.25,312.39C539.28,313.18 539.29,313.97 539.31,314.76C539.33,315.55 539.35,316.33 539.36,317.12C539.37,317.91 539.38,318.7 539.39,319.49C539.4,320.28 539.41,321.06 539.42,321.85C539.43,322.64 539.44,323.43 539.45,324.22C539.46,325.01 539.47,325.79 539.48,326.58C539.49,327.37 539.51,328.15 539.52,328.94C539.53,329.73 539.54,330.52 539.55,331.31C539.56,332.1 539.57,332.88 539.58,333.67C539.59,334.46 539.59,335.25 539.6,336.04C539.61,336.83 539.61,337.61 539.62,338.4C539.63,339.19 539.64,339.97 539.64,340.76C539.65,341.55 539.64,342.34 539.65,343.13C539.65,343.92 539.67,344.7 539.67,345.49C539.68,346.28 539.68,347.07 539.68,347.86C539.68,348.65 539.69,349.43 539.69,350.22C539.69,351.01 539.69,351.79 539.69,352.58C539.69,353.37 539.68,354.16 539.68,354.95C539.68,355.74 539.67,356.52 539.67,357.31C539.67,358.1 539.66,358.89 539.66,359.68C539.66,360.47 539.65,361.25 539.65,362.04C539.65,362.83 539.66,363.62 539.66,364.41C539.66,365.2 539.67,365.98 539.67,366.77C539.68,367.56 539.68,368.34 539.69,369.13C539.7,369.92 539.7,370.71 539.71,371.5C539.72,372.29 539.72,373.07 539.73,373.86C539.74,374.65 539.74,375.44 539.75,376.23C539.75,377.02 539.76,377.8 539.76,378.59C539.76,379.38 539.76,380.16 539.76,380.95C539.76,381.74 539.75,382.53 539.74,383.32C539.74,384.11 539.73,384.89 539.73,385.68C539.72,386.47 539.72,387.26 539.71,388.05C539.71,388.84 539.7,389.62 539.7,390.41C539.7,391.2 539.69,391.99 539.69,392.78C539.69,393.57 539.7,394.35 539.7,395.14C539.7,395.93 539.71,396.71 539.71,397.5C539.72,398.29 539.73,399.08 539.73,399.87C539.73,400.66 539.73,401.44 539.73,402.23C539.73,403.02 539.74,403.81 539.74,404.6C539.74,405.39 539.74,406.17 539.74,406.96C539.74,407.75 539.74,408.53 539.74,409.32C539.74,410.11 539.74,410.9 539.74,411.69C539.74,412.48 539.74,413.26 539.74,414.05C539.74,414.84 539.75,415.63 539.75,416.42C539.75,417.21 539.76,417.99 539.76,418.78C539.76,419.57 539.76,420.36 539.77,421.15C539.77,421.94 539.78,422.72 539.79,423.51C539.8,424.3 539.8,425.08 539.81,425.87C539.82,426.66 539.82,427.45 539.83,428.24C539.83,429.03 539.84,429.81 539.84,430.6C539.85,431.39 539.85,432.18 539.86,432.97C539.86,433.76 539.87,434.54 539.87,435.33C539.87,436.12 539.88,436.9 539.88,437.69C539.88,438.48 539.88,439.27 539.88,440.06C539.88,440.85 539.89,441.63 539.89,442.42C539.89,443.21 539.9,444 539.9,444.79C539.9,445.58 539.9,446.36 539.9,447.15C539.9,447.94 539.91,448.73 539.91,449.52C539.91,450.31 539.91,451.09 539.91,451.88C539.91,452.67 539.9,453.45 539.9,454.24C539.9,455.03 539.9,455.82 539.9,456.61C539.9,457.4 539.89,458.18 539.89,458.97C539.88,459.76 539.88,460.55 539.87,461.34C539.87,462.13 539.86,462.91 539.86,463.7C539.86,464.49 539.85,465.27 539.85,466.06C539.85,466.85 539.85,467.64 539.85,468.43C539.85,469.22 539.85,470 539.85,470.79C539.85,471.58 539.85,472.37 539.85,473.16C539.85,473.95 539.85,474.73 539.85,475.52C539.85,476.31 539.86,477.09 539.86,477.88C539.86,478.67 539.86,479.46 539.86,480.25C539.86,481.04 539.87,481.82 539.87,482.61C539.87,483.4 539.87,484.19 539.87,484.98C539.87,485.77 539.87,486.55 539.87,487.34C539.87,488.13 539.87,488.92 539.87,489.71C539.87,490.5 539.87,491.28 539.87,492.07C539.87,492.86 539.88,493.64 539.88,494.43C539.88,495.22 539.88,496.01 539.88,496.8C539.88,497.59 539.89,498.37 539.89,499.16C539.89,499.95 539.89,500.74 539.89,501.53C539.89,502.32 539.9,503.1 539.9,503.89C539.9,504.68 539.91,505.46 539.91,506.25C539.91,507.04 539.91,507.83 539.91,508.62C539.91,509.41 539.92,510.19 539.92,510.98C539.92,511.77 539.93,512.56 539.93,513.35C539.93,514.14 539.93,514.92 539.93,515.71C539.93,516.5 539.94,517.29 539.94,518.08C539.94,518.87 539.94,519.65 539.94,520.44C539.94,521.23 539.94,522.01 539.94,522.8C539.94,523.59 539.93,524.38 539.93,525.17C539.93,525.96 539.93,526.74 539.93,527.53C539.93,528.32 539.93,529.11 539.93,529.9C539.93,530.69 539.93,531.47 539.93,532.26C539.93,533.05 539.93,533.83 539.93,534.62C539.93,535.41 539.93,536.2 539.93,536.99C539.93,537.78 539.93,538.56 539.93,539.35C539.93,540.14 539.93,540.93 539.93,541.72C539.93,542.51 539.93,543.29 539.93,544.08C539.93,544.87 539.94,545.66 539.94,546.45C539.94,547.24 539.94,548.02 539.94,548.81C539.94,549.6 539.95,550.38 539.95,551.17C539.95,551.96 539.96,552.75 539.96,553.54C539.96,554.33 539.96,555.11 539.96,555.9C539.96,556.69 539.97,557.48 539.97,558.27C539.97,559.06 539.97,559.84 539.97,560.63C539.97,561.42 539.98,562.2 539.98,562.99C539.98,563.78 539.98,564.57 539.98,565.36C539.98,566.15 539.99,566.93 539.99,567.72C539.99,568.51 539.99,569.3 539.99,570.09C539.99,570.88 539.99,571.66 539.99,572.45C539.99,573.24 539.99,574.03 539.99,574.82C539.99,575.61 539.99,576.39 539.99,577.18C539.99,577.97 539.99,578.75 539.99,579.54C539.99,580.33 539.99,581.12 539.99,581.91C539.99,582.7 540,583.48 540,584.27C540,585.06 540,585.85 540,586.64Q540,587.43 540,589Z" style="vector-effect: non-scaling-stroke; stroke-width: 2px; stroke: rgb(99, 110, 250); stroke-opacity: 1; fill: rgb(99, 110, 250); fill-opacity: 0.5;"/><path class="box" d="M94.77,67.53H121.23M94.77,134.98H121.23V66.53H94.77ZM108,134.98V237.48M108,66.53V66.53" style="vector-effect: non-scaling-stroke; stroke-width: 2px; stroke: rgb(99, 110, 250); stroke-opacity: 1; fill: rgb(99, 110, 250); fill-opacity: 0.5;"/><path class="box" d="M310.77,67.53H337.23M310.77,171.22H337.23V66.53H310.77ZM324,171.22V323.1M324,66.53V66.53" style="vector-effect: non-scaling-stroke; stroke-width: 2px; stroke: rgb(99, 110, 250); stroke-opacity: 1; fill: rgb(99, 110, 250); fill-opacity: 0.5;"/><path class="box" d="M526.77,67.53H553.23M526.77,118.9H553.23V66.53H526.77ZM540,118.9V197.43M540,66.53V66.53" style="vector-effect: non-scaling-stroke; stroke-width: 2px; stroke: rgb(99, 110, 250); stroke-opacity: 1; fill: rgb(99, 110, 250); fill-opacity: 0.5;"/><path class="mean" d="M94.77,114.43H121.23" style="fill: none; vector-effect: non-scaling-stroke; stroke-width: 2px; stroke-dasharray: 4px, 2px; stroke: rgb(99, 110, 250); stroke-opacity: 1;"/><path class="mean" d="M310.77,124.16H337.23" style="fill: none; vector-effect: non-scaling-stroke; stroke-width: 2px; stroke-dasharray: 4px, 2px; stroke: rgb(99, 110, 250); stroke-opacity: 1;"/><path class="mean" d="M526.77,111.9H553.23" style="fill: none; vector-effect: non-scaling-stroke; stroke-width: 2px; stroke-dasharray: 4px, 2px; stroke: rgb(99, 110, 250); stroke-opacity: 1;"/></g></g></g><g class="overplot"/><path class="xlines-above crisp" d="M0,0" style="fill: none;"/><path class="ylines-above crisp" d="M0,0" style="fill: none;"/><g class="overlines-above"/><g class="xaxislayer-above"><g class="xtick"><text text-anchor="middle" x="0" y="733" transform="translate(188,0)" style="font-family: 'Open Sans', verdana, arial, sans-serif; font-size: 12px; fill: rgb(42, 63, 95); fill-opacity: 1; white-space: pre; opacity: 1;">&#60;=1</text></g><g class="xtick"><text text-anchor="middle" x="0" y="733" transform="translate(404,0)" style="font-family: 'Open Sans', verdana, arial, sans-serif; font-size: 12px; fill: rgb(42, 63, 95); fill-opacity: 1; white-space: pre; opacity: 1;">(1, 2]</text></g><g class="xtick"><text text-anchor="middle" x="0" y="733" transform="translate(620,0)" style="font-family: 'Open Sans', verdana, arial, sans-serif; font-size: 12px; fill: rgb(42, 63, 95); fill-opacity: 1; white-space: pre; opacity: 1;">>2</text></g></g><g class="yaxislayer-above"><g class="ytick"><text text-anchor="end" x="79" y="4.199999999999999" transform="translate(0,689.85)" style="font-family: 'Open Sans', verdana, arial, sans-serif; font-size: 12px; fill: rgb(42, 63, 95); fill-opacity: 1; white-space: pre; opacity: 1;">0</text></g><g class="ytick"><text text-anchor="end" x="79" y="4.199999999999999" style="font-family: 'Open Sans', verdana, arial, sans-serif; font-size: 12px; fill: rgb(42, 63, 95); fill-opacity: 1; white-space: pre; opacity: 1;" transform="translate(0,585.19)">0.2</text></g><g class="ytick"><text text-anchor="end" x="79" y="4.199999999999999" style="font-family: 'Open Sans', verdana, arial, sans-serif; font-size: 12px; fill: rgb(42, 63, 95); fill-opacity: 1; white-space: pre; opacity: 1;" transform="translate(0,480.52)">0.4</text></g><g class="ytick"><text text-anchor="end" x="79" y="4.199999999999999" style="font-family: 'Open Sans', verdana, arial, sans-serif; font-size: 12px; fill: rgb(42, 63, 95); fill-opacity: 1; white-space: pre; opacity: 1;" transform="translate(0,375.86)">0.6</text></g><g class="ytick"><text text-anchor="end" x="79" y="4.199999999999999" style="font-family: 'Open Sans', verdana, arial, sans-serif; font-size: 12px; fill: rgb(42, 63, 95); fill-opacity: 1; white-space: pre; opacity: 1;" transform="translate(0,271.19)">0.8</text></g><g class="ytick"><text text-anchor="end" x="79" y="4.199999999999999" style="font-family: 'Open Sans', verdana, arial, sans-serif; font-size: 12px; fill: rgb(42, 63, 95); fill-opacity: 1; white-space: pre; opacity: 1;" transform="translate(0,166.53)">1</text></g></g><g class="overaxes-above"/></g><g class="subplot x2y2"><g class="layer-subplot"><g class="shapelayer"/><g class="imagelayer"/></g><g class="minor-gridlayer"><g class="x2"/><g class="y2"/></g><g class="gridlayer"><g class="x2"/><g class="y2"><path class="y2grid crisp" transform="translate(0,548.94)" d="M872.0000000000001,0h647.9999999999999" style="stroke: rgb(255, 255, 255); stroke-opacity: 1; stroke-width: 1px;"/><path class="y2grid crisp" transform="translate(0,460.2)" d="M872.0000000000001,0h647.9999999999999" style="stroke: rgb(255, 255, 255); stroke-opacity: 1; stroke-width: 1px;"/><path class="y2grid crisp" transform="translate(0,371.46)" d="M872.0000000000001,0h647.9999999999999" style="stroke: rgb(255, 255, 255); stroke-opacity: 1; stroke-width: 1px;"/><path class="y2grid crisp" transform="translate(0,282.72)" d="M872.0000000000001,0h647.9999999999999" style="stroke: rgb(255, 255, 255); stroke-opacity: 1; stroke-width: 1px;"/><path class="y2grid crisp" transform="translate(0,193.98000000000002)" d="M872.0000000000001,0h647.9999999999999" style="stroke: rgb(255, 255, 255); stroke-opacity: 1; stroke-width: 1px;"/><path class="y2grid crisp" transform="translate(0,105.23)" d="M872.0000000000001,0h647.9999999999999" style="stroke: rgb(255, 255, 255); stroke-opacity: 1; stroke-width: 1px;"/></g></g><g class="zerolinelayer"><path class="y2zl zl crisp" transform="translate(0,637.69)" d="M872.0000000000001,0h647.9999999999999" style="stroke: rgb(255, 255, 255); stroke-opacity: 1; stroke-width: 2px;"/></g><path class="xlines-below"/><path class="ylines-below"/><g class="overlines-below"/><g class="xaxislayer-below"/><g class="yaxislayer-below"/><g class="overaxes-below"/><g class="plot" transform="translate(872.0000000000001,100)" clip-path="url(#clip9373b3x2y2plot)"><g class="violinlayer mlayer"><g class="trace violins" style="opacity: 1;"><path class="violin" d="M108.04,589Q108.07,582.11 108.08,578.67C108.1,575.22 108.11,571.78 108.13,568.33C108.15,564.89 108.18,561.44 108.21,558C108.24,554.56 108.28,551.11 108.31,547.67C108.34,544.22 108.37,540.78 108.41,537.33C108.44,533.89 108.48,530.44 108.52,527C108.56,523.56 108.59,520.11 108.63,516.67C108.67,513.22 108.71,509.78 108.76,506.33C108.81,502.89 108.85,499.44 108.92,496C108.99,492.56 109.07,489.11 109.16,485.67C109.25,482.22 109.36,478.78 109.48,475.33C109.6,471.89 109.74,468.44 109.9,465C110.06,461.56 110.24,458.11 110.43,454.67C110.62,451.22 110.84,447.78 111.06,444.33C111.28,440.89 111.51,437.44 111.74,434C111.97,430.56 112.22,427.11 112.44,423.67C112.67,420.22 112.89,416.78 113.09,413.33C113.29,409.89 113.47,406.44 113.65,403C113.82,399.56 113.97,396.11 114.14,392.67C114.31,389.22 114.46,385.77 114.67,382.33C114.88,378.88 115.09,375.44 115.4,372C115.72,368.55 116.08,365.11 116.56,361.67C117.04,358.22 117.63,354.77 118.3,351.33C118.98,347.88 119.79,344.44 120.62,341C121.46,337.55 122.43,334.12 123.32,330.67C124.21,327.23 125.18,323.79 125.97,320.33C126.75,316.9 127.52,313.46 128.04,310C128.55,306.57 128.94,303.12 129.07,299.67C129.2,296.23 129.1,292.77 128.81,289.33C128.52,285.88 127.96,282.43 127.32,279C126.67,275.54 125.79,272.11 124.93,268.67C124.06,265.22 123.05,261.78 122.13,258.33C121.21,254.89 120.25,251.45 119.4,248C118.56,244.56 117.74,241.12 117.05,237.67C116.36,234.23 115.76,230.78 115.25,227.33C114.74,223.89 114.33,220.45 113.97,217C113.61,213.56 113.35,210.12 113.11,206.67C112.87,203.23 112.69,199.78 112.54,196.33C112.39,192.89 112.27,189.44 112.2,186C112.13,182.56 112.09,179.11 112.13,175.67C112.17,172.22 112.24,168.77 112.45,165.33C112.66,161.88 112.93,158.44 113.37,155C113.81,151.55 114.38,148.1 115.08,144.67C115.79,141.21 116.67,137.76 117.6,134.33C118.53,130.87 119.65,127.45 120.66,124C121.66,120.56 122.79,117.13 123.63,113.67C124.47,110.24 125.28,106.79 125.71,103.33C126.14,99.9 126.35,96.44 126.22,93C126.09,89.55 125.61,86.09 124.95,82.67C124.28,79.2 123.24,75.76 122.2,72.33C121.15,68.87 119.86,65.44 118.7,62C117.54,58.56 116.3,55.13 115.25,51.67C114.21,48.24 113.23,44.79 112.42,41.33Q111.62,37.9 110.41,31L105.59,31Q104.38,37.9 103.58,41.33C102.77,44.79 101.79,48.24 100.75,51.67C99.7,55.13 98.46,58.56 97.3,62C96.14,65.44 94.85,68.87 93.8,72.33C92.76,75.76 91.72,79.2 91.05,82.67C90.39,86.09 89.91,89.55 89.78,93C89.65,96.44 89.86,99.9 90.29,103.33C90.72,106.79 91.53,110.24 92.37,113.67C93.21,117.13 94.34,120.56 95.34,124C96.35,127.45 97.47,130.87 98.4,134.33C99.33,137.76 100.21,141.21 100.92,144.67C101.62,148.1 102.19,151.55 102.63,155C103.07,158.44 103.34,161.88 103.55,165.33C103.76,168.77 103.83,172.22 103.87,175.67C103.91,179.11 103.87,182.56 103.8,186C103.73,189.44 103.61,192.89 103.46,196.33C103.31,199.78 103.13,203.23 102.89,206.67C102.65,210.12 102.39,213.56 102.03,217C101.67,220.45 101.26,223.89 100.75,227.33C100.24,230.78 99.64,234.23 98.95,237.67C98.26,241.12 97.44,244.56 96.6,248C95.75,251.45 94.79,254.89 93.87,258.33C92.95,261.78 91.94,265.22 91.07,268.67C90.21,272.11 89.33,275.54 88.68,279C88.04,282.43 87.48,285.88 87.19,289.33C86.9,292.77 86.8,296.23 86.93,299.67C87.06,303.12 87.45,306.57 87.96,310C88.48,313.46 89.25,316.9 90.03,320.33C90.82,323.79 91.79,327.23 92.68,330.67C93.57,334.12 94.54,337.55 95.38,341C96.21,344.44 97.02,347.88 97.7,351.33C98.37,354.77 98.96,358.22 99.44,361.67C99.92,365.11 100.28,368.55 100.6,372C100.91,375.44 101.12,378.88 101.33,382.33C101.54,385.77 101.69,389.22 101.86,392.67C102.03,396.11 102.18,399.56 102.35,403C102.53,406.44 102.71,409.89 102.91,413.33C103.11,416.78 103.33,420.22 103.56,423.67C103.78,427.11 104.03,430.56 104.26,434C104.49,437.44 104.72,440.89 104.94,444.33C105.16,447.78 105.38,451.22 105.57,454.67C105.76,458.11 105.94,461.56 106.1,465C106.26,468.44 106.4,471.89 106.52,475.33C106.64,478.78 106.75,482.22 106.84,485.67C106.93,489.11 107.01,492.56 107.08,496C107.15,499.44 107.19,502.89 107.24,506.33C107.29,509.78 107.33,513.22 107.37,516.67C107.41,520.11 107.44,523.56 107.48,527C107.52,530.44 107.56,533.89 107.59,537.33C107.63,540.78 107.66,544.22 107.69,547.67C107.72,551.11 107.76,554.56 107.79,558C107.82,561.44 107.85,564.89 107.87,568.33C107.89,571.78 107.9,575.22 107.92,578.67Q107.93,582.11 107.96,589Z" style="vector-effect: non-scaling-stroke; stroke-width: 2px; stroke: rgb(239, 85, 59); stroke-opacity: 1; fill: rgb(239, 85, 59); fill-opacity: 0.5;"/><path class="violin" d="M324.01,550.48Q324.02,546.19 324.02,544.05C324.02,541.91 324.03,539.76 324.03,537.62C324.03,535.47 324.03,533.33 324.04,531.18C324.04,529.04 324.05,526.89 324.06,524.75C324.07,522.61 324.08,520.46 324.08,518.32C324.09,516.17 324.09,514.03 324.09,511.88C324.09,509.74 324.09,507.59 324.09,505.45C324.09,503.31 324.09,501.16 324.09,499.02C324.09,496.88 324.09,494.73 324.09,492.59C324.09,490.44 324.09,488.3 324.1,486.15C324.1,484.01 324.11,481.86 324.12,479.72C324.13,477.58 324.13,475.43 324.14,473.29C324.15,471.14 324.16,469 324.18,466.85C324.19,464.71 324.21,462.56 324.23,460.42C324.25,458.28 324.26,456.13 324.28,453.99C324.3,451.85 324.33,449.7 324.35,447.56C324.38,445.41 324.4,443.27 324.43,441.12C324.46,438.98 324.51,436.83 324.55,434.69C324.59,432.55 324.64,430.4 324.69,428.26C324.74,426.12 324.8,423.97 324.85,421.83C324.91,419.68 324.97,417.54 325.02,415.39C325.07,413.25 325.12,411.1 325.17,408.96C325.21,406.82 325.26,404.67 325.29,402.53C325.32,400.38 325.34,398.24 325.35,396.09C325.36,393.95 325.37,391.8 325.37,389.66C325.37,387.52 325.36,385.37 325.35,383.23C325.34,381.09 325.33,378.94 325.33,376.8C325.33,374.65 325.32,372.51 325.33,370.36C325.34,368.22 325.36,366.07 325.39,363.93C325.42,361.79 325.46,359.64 325.52,357.5C325.58,355.36 325.66,353.21 325.76,351.07C325.86,348.92 325.98,346.77 326.13,344.63C326.28,342.48 326.45,340.34 326.66,338.2C326.87,336.05 327.12,333.91 327.4,331.77C327.68,329.62 328.01,327.47 328.36,325.33C328.71,323.18 329.11,321.04 329.51,318.9C329.91,316.75 330.36,314.61 330.78,312.47C331.2,310.33 331.65,308.19 332.04,306.04C332.43,303.9 332.81,301.75 333.11,299.6C333.41,297.46 333.68,295.32 333.86,293.17C334.04,291.03 334.16,288.88 334.21,286.74C334.26,284.59 334.24,282.45 334.17,280.3C334.1,278.16 333.97,276.01 333.82,273.87C333.67,271.73 333.47,269.58 333.29,267.44C333.11,265.3 332.9,263.15 332.73,261.01C332.56,258.86 332.39,256.72 332.25,254.57C332.12,252.43 332.01,250.28 331.92,248.14C331.84,246 331.78,243.85 331.74,241.71C331.7,239.57 331.7,237.42 331.69,235.28C331.68,233.13 331.69,230.99 331.7,228.84C331.71,226.7 331.72,224.55 331.73,222.41C331.74,220.27 331.75,218.12 331.76,215.98C331.77,213.83 331.78,211.69 331.79,209.54C331.8,207.4 331.81,205.25 331.84,203.11C331.87,200.97 331.9,198.82 331.95,196.68C332,194.54 332.05,192.39 332.12,190.25C332.19,188.1 332.28,185.96 332.37,183.81C332.46,181.67 332.56,179.52 332.65,177.38C332.74,175.24 332.83,173.09 332.9,170.95C332.97,168.81 333.03,166.66 333.08,164.52C333.13,162.37 333.14,160.23 333.18,158.08C333.21,155.94 333.2,153.79 333.29,151.65C333.38,149.51 333.44,147.36 333.71,145.22C333.98,143.07 334.29,140.89 334.93,138.78C335.59,136.6 336.47,134.42 337.68,132.35C338.99,130.12 340.7,127.97 342.63,125.92C344.75,123.67 347.36,121.57 350.01,119.49C352.83,117.27 356.09,115.2 359.12,113.05C362.15,110.91 365.48,108.87 368.2,106.62C370.68,104.57 373.39,102.53 374.85,100.19C376.1,98.19 377.1,95.86 376.92,93.75C376.74,91.57 375.21,89.31 373.6,87.32C371.69,84.96 368.62,82.95 365.76,80.89C362.64,78.65 358.95,76.61 355.55,74.46C352.16,72.32 348.56,70.24 345.38,68.02C342.4,65.94 339.45,63.85 336.98,61.59Q334.73,59.54 331.06,55.16L316.94,55.16Q313.27,59.54 311.02,61.59C308.55,63.85 305.6,65.94 302.62,68.02C299.44,70.24 295.84,72.32 292.45,74.46C289.05,76.61 285.36,78.65 282.24,80.89C279.38,82.95 276.31,84.96 274.4,87.32C272.79,89.31 271.26,91.57 271.08,93.75C270.9,95.86 271.9,98.19 273.15,100.19C274.61,102.53 277.32,104.57 279.8,106.62C282.52,108.87 285.85,110.91 288.88,113.05C291.91,115.2 295.17,117.27 297.99,119.49C300.64,121.57 303.25,123.67 305.37,125.92C307.3,127.97 309.01,130.12 310.32,132.35C311.53,134.42 312.41,136.6 313.07,138.78C313.71,140.89 314.02,143.07 314.29,145.22C314.56,147.36 314.62,149.51 314.71,151.65C314.8,153.79 314.79,155.94 314.82,158.08C314.86,160.23 314.87,162.37 314.92,164.52C314.97,166.66 315.03,168.81 315.1,170.95C315.17,173.09 315.26,175.24 315.35,177.38C315.44,179.52 315.54,181.67 315.63,183.81C315.72,185.96 315.81,188.1 315.88,190.25C315.95,192.39 316,194.54 316.05,196.68C316.1,198.82 316.13,200.97 316.16,203.11C316.19,205.25 316.2,207.4 316.21,209.54C316.22,211.69 316.23,213.83 316.24,215.98C316.25,218.12 316.26,220.27 316.27,222.41C316.28,224.55 316.29,226.7 316.3,228.84C316.31,230.99 316.32,233.13 316.31,235.28C316.3,237.42 316.3,239.57 316.26,241.71C316.22,243.85 316.16,246 316.08,248.14C315.99,250.28 315.88,252.43 315.75,254.57C315.61,256.72 315.44,258.86 315.27,261.01C315.1,263.15 314.89,265.3 314.71,267.44C314.53,269.58 314.33,271.73 314.18,273.87C314.03,276.01 313.9,278.16 313.83,280.3C313.76,282.45 313.74,284.59 313.79,286.74C313.84,288.88 313.96,291.03 314.14,293.17C314.32,295.32 314.59,297.46 314.89,299.6C315.19,301.75 315.57,303.9 315.96,306.04C316.35,308.19 316.8,310.33 317.22,312.47C317.64,314.61 318.09,316.75 318.49,318.9C318.89,321.04 319.29,323.18 319.64,325.33C319.99,327.47 320.32,329.62 320.6,331.77C320.88,333.91 321.13,336.05 321.34,338.2C321.55,340.34 321.72,342.48 321.87,344.63C322.02,346.77 322.14,348.92 322.24,351.07C322.34,353.21 322.42,355.36 322.48,357.5C322.54,359.64 322.58,361.79 322.61,363.93C322.64,366.07 322.66,368.22 322.67,370.36C322.68,372.51 322.67,374.65 322.67,376.8C322.67,378.94 322.66,381.09 322.65,383.23C322.64,385.37 322.63,387.52 322.63,389.66C322.63,391.8 322.64,393.95 322.65,396.09C322.66,398.24 322.68,400.38 322.71,402.53C322.74,404.67 322.79,406.82 322.83,408.96C322.88,411.1 322.93,413.25 322.98,415.39C323.03,417.54 323.09,419.68 323.15,421.83C323.2,423.97 323.26,426.12 323.31,428.26C323.36,430.4 323.41,432.55 323.45,434.69C323.49,436.83 323.54,438.98 323.57,441.12C323.6,443.27 323.62,445.41 323.65,447.56C323.67,449.7 323.7,451.85 323.72,453.99C323.74,456.13 323.75,458.28 323.77,460.42C323.79,462.56 323.81,464.71 323.82,466.85C323.84,469 323.85,471.14 323.86,473.29C323.87,475.43 323.87,477.58 323.88,479.72C323.89,481.86 323.9,484.01 323.9,486.15C323.91,488.3 323.91,490.44 323.91,492.59C323.91,494.73 323.91,496.88 323.91,499.02C323.91,501.16 323.91,503.31 323.91,505.45C323.91,507.59 323.91,509.74 323.91,511.88C323.91,514.03 323.91,516.17 323.92,518.32C323.92,520.46 323.93,522.61 323.94,524.75C323.95,526.89 323.96,529.04 323.96,531.18C323.97,533.33 323.97,535.47 323.97,537.62C323.97,539.76 323.98,541.91 323.98,544.05Q323.98,546.19 323.99,550.48Z" style="vector-effect: non-scaling-stroke; stroke-width: 2px; stroke: rgb(239, 85, 59); stroke-opacity: 1; fill: rgb(239, 85, 59); fill-opacity: 0.5;"/><path class="violin" d="M540.02,563.07Q540.02,558.47 540.03,556.17C540.04,553.87 540.05,551.57 540.06,549.27C540.07,546.97 540.08,544.67 540.09,542.37C540.1,540.07 540.12,537.77 540.14,535.47C540.16,533.17 540.17,530.87 540.19,528.57C540.21,526.27 540.23,523.97 540.25,521.67C540.27,519.37 540.28,517.07 540.3,514.77C540.32,512.47 540.33,510.17 540.35,507.87C540.37,505.57 540.38,503.27 540.4,500.97C540.41,498.67 540.43,496.37 540.44,494.07C540.46,491.77 540.47,489.47 540.49,487.17C540.51,484.87 540.53,482.57 540.56,480.27C540.59,477.97 540.62,475.67 540.65,473.37C540.69,471.07 540.73,468.77 540.77,466.47C540.81,464.17 540.86,461.87 540.91,459.57C540.96,457.27 541.01,454.97 541.06,452.67C541.11,450.37 541.15,448.07 541.2,445.77C541.24,443.47 541.29,441.17 541.33,438.87C541.37,436.57 541.4,434.27 541.43,431.97C541.46,429.67 541.49,427.37 541.51,425.07C541.53,422.77 541.55,420.46 541.57,418.16C541.59,415.86 541.61,413.56 541.63,411.26C541.65,408.96 541.68,406.66 541.71,404.36C541.74,402.06 541.78,399.76 541.83,397.46C541.88,395.16 541.93,392.86 541.99,390.56C542.05,388.26 542.13,385.96 542.2,383.66C542.27,381.36 542.35,379.06 542.43,376.76C542.51,374.46 542.61,372.16 542.7,369.86C542.8,367.56 542.89,365.26 543,362.96C543.11,360.66 543.22,358.36 543.34,356.06C543.47,353.76 543.6,351.46 543.75,349.16C543.9,346.86 544.07,344.56 544.26,342.26C544.46,339.96 544.68,337.66 544.92,335.36C545.16,333.06 545.43,330.76 545.72,328.46C546.01,326.16 546.35,323.86 546.68,321.56C547.02,319.26 547.38,316.96 547.73,314.66C548.08,312.36 548.46,310.06 548.79,307.76C549.12,305.46 549.46,303.16 549.73,300.86C550,298.56 550.24,296.26 550.42,293.96C550.6,291.66 550.73,289.36 550.8,287.06C550.87,284.76 550.88,282.46 550.85,280.16C550.82,277.86 550.73,275.56 550.63,273.26C550.53,270.96 550.38,268.65 550.25,266.35C550.12,264.05 549.96,261.75 549.83,259.45C549.7,257.15 549.56,254.85 549.46,252.55C549.36,250.25 549.28,247.95 549.23,245.65C549.18,243.35 549.16,241.05 549.16,238.75C549.16,236.45 549.2,234.15 549.26,231.85C549.32,229.55 549.41,227.25 549.51,224.95C549.61,222.65 549.73,220.35 549.85,218.05C549.97,215.75 550.11,213.45 550.23,211.15C550.35,208.85 550.47,206.55 550.57,204.25C550.67,201.95 550.75,199.65 550.81,197.35C550.86,195.05 550.9,192.75 550.9,190.45C550.9,188.15 550.88,185.85 550.83,183.55C550.78,181.25 550.69,178.95 550.59,176.65C550.49,174.35 550.35,172.05 550.23,169.75C550.11,167.45 549.96,165.15 549.85,162.85C549.75,160.55 549.62,158.25 549.6,155.95C549.58,153.65 549.55,151.35 549.7,149.05C549.85,146.75 550.05,144.43 550.52,142.15C551,139.83 551.63,137.5 552.55,135.25C553.51,132.9 554.76,130.59 556.22,128.35C557.77,125.98 559.7,123.7 561.67,121.45C563.74,119.09 566.15,116.85 568.38,114.54C570.6,112.24 573.07,110.02 575.01,107.64C576.83,105.41 578.76,103.15 579.77,100.74C580.69,98.53 581.3,96.11 581.08,93.84C580.85,91.51 579.68,89.13 578.32,86.94C576.81,84.5 574.42,82.27 572.16,80.04C569.75,77.66 566.87,75.44 564.24,73.14C561.61,70.84 558.83,68.6 556.39,66.24C554.07,63.99 551.81,61.72 549.93,59.34Q548.18,57.11 545.39,52.44L534.61,52.44Q531.82,57.11 530.07,59.34C528.19,61.72 525.93,63.99 523.61,66.24C521.17,68.6 518.39,70.84 515.76,73.14C513.13,75.44 510.25,77.66 507.84,80.04C505.58,82.27 503.19,84.5 501.68,86.94C500.32,89.13 499.15,91.51 498.92,93.84C498.7,96.11 499.31,98.53 500.23,100.74C501.24,103.15 503.17,105.41 504.99,107.64C506.93,110.02 509.4,112.24 511.62,114.54C513.85,116.85 516.26,119.09 518.33,121.45C520.3,123.7 522.23,125.98 523.78,128.35C525.24,130.59 526.49,132.9 527.45,135.25C528.37,137.5 529,139.83 529.48,142.15C529.95,144.43 530.15,146.75 530.3,149.05C530.45,151.35 530.42,153.65 530.4,155.95C530.38,158.25 530.25,160.55 530.15,162.85C530.04,165.15 529.89,167.45 529.77,169.75C529.65,172.05 529.51,174.35 529.41,176.65C529.31,178.95 529.22,181.25 529.17,183.55C529.12,185.85 529.1,188.15 529.1,190.45C529.1,192.75 529.14,195.05 529.19,197.35C529.25,199.65 529.33,201.95 529.43,204.25C529.53,206.55 529.65,208.85 529.77,211.15C529.89,213.45 530.03,215.75 530.15,218.05C530.27,220.35 530.39,222.65 530.49,224.95C530.59,227.25 530.68,229.55 530.74,231.85C530.8,234.15 530.84,236.45 530.84,238.75C530.84,241.05 530.82,243.35 530.77,245.65C530.72,247.95 530.64,250.25 530.54,252.55C530.44,254.85 530.3,257.15 530.17,259.45C530.04,261.75 529.88,264.05 529.75,266.35C529.62,268.65 529.47,270.96 529.37,273.26C529.27,275.56 529.18,277.86 529.15,280.16C529.12,282.46 529.13,284.76 529.2,287.06C529.27,289.36 529.4,291.66 529.58,293.96C529.76,296.26 530,298.56 530.27,300.86C530.54,303.16 530.88,305.46 531.21,307.76C531.54,310.06 531.92,312.36 532.27,314.66C532.62,316.96 532.98,319.26 533.32,321.56C533.65,323.86 533.99,326.16 534.28,328.46C534.57,330.76 534.84,333.06 535.08,335.36C535.32,337.66 535.54,339.96 535.74,342.26C535.93,344.56 536.1,346.86 536.25,349.16C536.4,351.46 536.53,353.76 536.66,356.06C536.78,358.36 536.89,360.66 537,362.96C537.11,365.26 537.2,367.56 537.3,369.86C537.39,372.16 537.49,374.46 537.57,376.76C537.65,379.06 537.73,381.36 537.8,383.66C537.87,385.96 537.95,388.26 538.01,390.56C538.07,392.86 538.12,395.16 538.17,397.46C538.22,399.76 538.26,402.06 538.29,404.36C538.32,406.66 538.35,408.96 538.37,411.26C538.39,413.56 538.41,415.86 538.43,418.16C538.45,420.46 538.47,422.77 538.49,425.07C538.51,427.37 538.54,429.67 538.57,431.97C538.6,434.27 538.63,436.57 538.67,438.87C538.71,441.17 538.76,443.47 538.8,445.77C538.85,448.07 538.89,450.37 538.94,452.67C538.99,454.97 539.04,457.27 539.09,459.57C539.14,461.87 539.19,464.17 539.23,466.47C539.27,468.77 539.31,471.07 539.35,473.37C539.38,475.67 539.41,477.97 539.44,480.27C539.47,482.57 539.49,484.87 539.51,487.17C539.53,489.47 539.54,491.77 539.56,494.07C539.57,496.37 539.59,498.67 539.6,500.97C539.62,503.27 539.63,505.57 539.65,507.87C539.67,510.17 539.68,512.47 539.7,514.77C539.72,517.07 539.73,519.37 539.75,521.67C539.77,523.97 539.79,526.27 539.81,528.57C539.83,530.87 539.84,533.17 539.86,535.47C539.88,537.77 539.9,540.07 539.91,542.37C539.92,544.67 539.93,546.97 539.94,549.27C539.95,551.57 539.96,553.87 539.97,556.17Q539.98,558.47 539.98,563.07Z" style="vector-effect: non-scaling-stroke; stroke-width: 2px; stroke: rgb(239, 85, 59); stroke-opacity: 1; fill: rgb(239, 85, 59); fill-opacity: 0.5;"/><path class="box" d="M94.77,274.75H121.23M94.77,309.63H121.23V93.98H94.77ZM108,309.63V526.02M108,93.98V93.98" style="vector-effect: non-scaling-stroke; stroke-width: 2px; stroke: rgb(239, 85, 59); stroke-opacity: 1; fill: rgb(239, 85, 59); fill-opacity: 0.5;"/><path class="box" d="M310.77,94.98H337.23M310.77,213.97H337.23V93.98H310.77ZM324,213.97V393.9M324,93.98V93.98" style="vector-effect: non-scaling-stroke; stroke-width: 2px; stroke: rgb(239, 85, 59); stroke-opacity: 1; fill: rgb(239, 85, 59); fill-opacity: 0.5;"/><path class="box" d="M526.77,135.78H553.23M526.77,248.45H553.23V93.98H526.77ZM540,248.45V478.5M540,93.98V93.98" style="vector-effect: non-scaling-stroke; stroke-width: 2px; stroke: rgb(239, 85, 59); stroke-opacity: 1; fill: rgb(239, 85, 59); fill-opacity: 0.5;"/><path class="mean" d="M94.77,237.3H121.23" style="fill: none; vector-effect: non-scaling-stroke; stroke-width: 2px; stroke-dasharray: 4px, 2px; stroke: rgb(239, 85, 59); stroke-opacity: 1;"/><path class="mean" d="M310.77,154.92H337.23" style="fill: none; vector-effect: non-scaling-stroke; stroke-width: 2px; stroke-dasharray: 4px, 2px; stroke: rgb(239, 85, 59); stroke-opacity: 1;"/><path class="mean" d="M526.77,174.67H553.23" style="fill: none; vector-effect: non-scaling-stroke; stroke-width: 2px; stroke-dasharray: 4px, 2px; stroke: rgb(239, 85, 59); stroke-opacity: 1;"/></g></g></g><g class="overplot"/><path class="xlines-above crisp" d="M0,0" style="fill: none;"/><path class="ylines-above crisp" d="M0,0" style="fill: none;"/><g class="overlines-above"/><g class="xaxislayer-above"><g class="x2tick"><text text-anchor="middle" x="0" y="733" transform="translate(980.0000000000001,0)" style="font-family: 'Open Sans', verdana, arial, sans-serif; font-size: 12px; fill: rgb(42, 63, 95); fill-opacity: 1; white-space: pre; opacity: 1;">&#60;=1</text></g><g class="x2tick"><text text-anchor="middle" x="0" y="733" transform="translate(1196,0)" style="font-family: 'Open Sans', verdana, arial, sans-serif; font-size: 12px; fill: rgb(42, 63, 95); fill-opacity: 1; white-space: pre; opacity: 1;">(1, 2]</text></g><g class="x2tick"><text text-anchor="middle" x="0" y="733" transform="translate(1412,0)" style="font-family: 'Open Sans', verdana, arial, sans-serif; font-size: 12px; fill: rgb(42, 63, 95); fill-opacity: 1; white-space: pre; opacity: 1;">>2</text></g></g><g class="yaxislayer-above"><g class="y2tick"><text text-anchor="end" x="871.0000000000001" y="4.199999999999999" transform="translate(0,637.69)" style="font-family: 'Open Sans', verdana, arial, sans-serif; font-size: 12px; fill: rgb(42, 63, 95); fill-opacity: 1; white-space: pre; opacity: 1;">0</text></g><g class="y2tick"><text text-anchor="end" x="871.0000000000001" y="4.199999999999999" style="font-family: 'Open Sans', verdana, arial, sans-serif; font-size: 12px; fill: rgb(42, 63, 95); fill-opacity: 1; white-space: pre; opacity: 1;" transform="translate(0,548.94)">0.2</text></g><g class="y2tick"><text text-anchor="end" x="871.0000000000001" y="4.199999999999999" style="font-family: 'Open Sans', verdana, arial, sans-serif; font-size: 12px; fill: rgb(42, 63, 95); fill-opacity: 1; white-space: pre; opacity: 1;" transform="translate(0,460.2)">0.4</text></g><g class="y2tick"><text text-anchor="end" x="871.0000000000001" y="4.199999999999999" style="font-family: 'Open Sans', verdana, arial, sans-serif; font-size: 12px; fill: rgb(42, 63, 95); fill-opacity: 1; white-space: pre; opacity: 1;" transform="translate(0,371.46)">0.6</text></g><g class="y2tick"><text text-anchor="end" x="871.0000000000001" y="4.199999999999999" style="font-family: 'Open Sans', verdana, arial, sans-serif; font-size: 12px; fill: rgb(42, 63, 95); fill-opacity: 1; white-space: pre; opacity: 1;" transform="translate(0,282.72)">0.8</text></g><g class="y2tick"><text text-anchor="end" x="871.0000000000001" y="4.199999999999999" style="font-family: 'Open Sans', verdana, arial, sans-serif; font-size: 12px; fill: rgb(42, 63, 95); fill-opacity: 1; white-space: pre; opacity: 1;" transform="translate(0,193.98000000000002)">1</text></g><g class="y2tick"><text text-anchor="end" x="871.0000000000001" y="4.199999999999999" style="font-family: 'Open Sans', verdana, arial, sans-serif; font-size: 12px; fill: rgb(42, 63, 95); fill-opacity: 1; white-space: pre; opacity: 1;" transform="translate(0,105.23)">1.2</text></g></g><g class="overaxes-above"/></g></g><g class="polarlayer"/><g class="smithlayer"/><g class="ternarylayer"/><g class="geolayer"/><g class="funnelarealayer"/><g class="pielayer"/><g class="iciclelayer"/><g class="treemaplayer"/><g class="sunburstlayer"/><g class="glimages"/><defs id="topdefs-9373b3"><g class="clips"/></defs><g class="layer-above"><g class="imagelayer"/><g class="shapelayer"/></g><g class="infolayer"><g class="g-gtitle"><text class="gtitle" x="80" y="50" text-anchor="start" dy="0em" style="font-family: 'Open Sans', verdana, arial, sans-serif; font-size: 17px; fill: rgb(42, 63, 95); opacity: 1; font-weight: normal; white-space: pre;">discount_rate Distributions</text></g><g class="g-xtitle"><text class="xtitle" x="404" y="761.8" text-anchor="middle" style="font-family: 'Open Sans', verdana, arial, sans-serif; font-size: 14px; fill: rgb(42, 63, 95); opacity: 1; font-weight: normal; white-space: pre;">Hardcover over Paperback</text></g><g class="g-x2title"><text class="x2title" x="1196" y="761.8" text-anchor="middle" style="font-family: 'Open Sans', verdana, arial, sans-serif; font-size: 14px; fill: rgb(42, 63, 95); opacity: 1; font-weight: normal; white-space: pre;">Hardcover over Paperback</text></g><g class="g-ytitle"><text class="ytitle" transform="rotate(-90,37.325,410)" x="37.325" y="410" text-anchor="middle" style="font-family: 'Open Sans', verdana, arial, sans-serif; font-size: 14px; fill: rgb(42, 63, 95); opacity: 1; font-weight: normal; white-space: pre;">discount_rate</text></g><g class="g-y2title"><text class="y2title" transform="rotate(-90,829.325,410)" x="829.325" y="410" text-anchor="middle" style="font-family: 'Open Sans', verdana, arial, sans-serif; font-size: 14px; fill: rgb(42, 63, 95); opacity: 1; font-weight: normal; white-space: pre;">discount_rate</text></g><g class="annotation" data-index="0" style="opacity: 1;"><g class="annotation-text-g" transform="rotate(0,404,87)"><g class="cursor-pointer" transform="translate(363,74)"><rect class="bg" x="0.5" y="0.5" width="82" height="25" style="stroke-width: 1px; stroke: rgb(0, 0, 0); stroke-opacity: 0; fill: rgb(0, 0, 0); fill-opacity: 0;"/><text class="annotation-text" text-anchor="middle" x="41.296875" y="19" style="font-family: 'Open Sans', verdana, arial, sans-serif; font-size: 16px; fill: rgb(42, 63, 95); fill-opacity: 1; white-space: pre;">Paperback</text></g></g></g><g class="annotation" data-index="1" style="opacity: 1;"><g class="annotation-text-g" transform="rotate(0,1196,87)"><g class="cursor-pointer" transform="translate(1155,74)"><rect class="bg" x="0.5" y="0.5" width="81" height="25" style="stroke-width: 1px; stroke: rgb(0, 0, 0); stroke-opacity: 0; fill: rgb(0, 0, 0); fill-opacity: 0;"/><text class="annotation-text" text-anchor="middle" x="40.921875" y="19" style="font-family: 'Open Sans', verdana, arial, sans-serif; font-size: 16px; fill: rgb(42, 63, 95); fill-opacity: 1; white-space: pre;">Hardcover</text></g></g></g></g></svg>