<svg class="main-svg" xmlns="http://www.w3.org/2000/svg" xmlns:xlink="http://www.w3.org/1999/xlink" width="1600" height="800" style="" viewBox="0 0 1600 800"><rect x="0" y="0" width="1600" height="800" style="fill: rgb(255, 255, 255); fill-opacity: 1;"/><defs id="defs-d857bb"><g class="clips"><clipPath id="clipd857bbxyplot" class="plotclip"><rect width="648" height="620"/></clipPath><clipPath id="clipd857bbx2y2plot" class="plotclip"><rect width="647.9999999999999" height="620"/></clipPath><clipPath class="axesclip" id="clipd857bbx"><rect x="80" y="0" width="648" height="800"/></clipPath><clipPath class="axesclip" id="clipd857bby"><rect x="0" y="100" width="1600" height="620"/></clipPath><clipPath class="axesclip" id="clipd857bbxy"><rect x="80" y="100" width="648" height="620"/></clipPath><clipPath class="axesclip" id="clipd857bby2"><rect x="0" y="100" width="1600" height="620"/></clipPath><clipPath class="axesclip" id="clipd857bbxy2"><rect x="80" y="100" width="648" height="620"/></clipPath><clipPath class="axesclip" id="clipd857bbx2"><rect x="872.0000000000001" y="0" width="647.9999999999999" height="800"/></clipPath><clipPath class="axesclip" id="clipd857bbx2y"><rect x="872.0000000000001" y="100" width="647.9999999999999" height="620"/></clipPath><clipPath class="axesclip" id="clipd857bbx2y2"><rect x="872.0000000000001" y="100" width="647.9999999999999" height="620"/></clipPath></g><g class="gradients"/><g class="patterns"/></defs><g class="bglayer"><rect class="bg" x="80" y="100" width="648" height="620" style="fill: rgb(229, 236, 246); fill-opacity: 1; stroke-width: 0;"/><rect class="bg" x="872.0000000000001" y="100" width="647.9999999999999" height="620" style="fill: rgb(229, 236, 246); fill-opacity: 1; stroke-width: 0;"/></g><g class="layer-below"><g class="imagelayer"/><g class="shapelayer"/></g><g class="cartesianlayer"><g class="subplot xy"><g class="layer-subplot"><g class="shapelayer"/><g class="imagelayer"/></g><g class="minor-gridlayer"><g class="x"/><g class="y"/></g><g class="gridlayer"><g class="x"/><g class="y"><path class="ygrid crisp" transform="translate(0,539.4300000000001)" d="M80,0h648" style="stroke: rgb(255, 255, 255); stroke-opacity: 1; stroke-width: 1px;"/><path class="ygrid crisp" transform="translate(0,416.1)" d="M80,0h648" style="stroke: rgb(255, 255, 255); stroke-opacity: 1; stroke-width: 1px;"/><path class="ygrid crisp" transform="translate(0,292.78)" d="M80,0h648" style="stroke: rgb(255, 255, 255); stroke-opacity: 1; stroke-width: 1px;"/><path class="ygrid crisp" transform="translate(0,169.45)" d="M80,0h648" style="stroke: rgb(255, 255, 255); stroke-opacity: 1; stroke-width: 1px;"/></g></g><g class="zerolinelayer"><path class="yzl zl crisp" transform="translate(0,662.76)" d="M80,0h648" style="stroke: rgb(255, 255, 255); stroke-opacity: 1; stroke-width: 2px;"/></g><path class="xlines-below"/><path class="ylines-below"/><g class="overlines-below"/><g class="xaxislayer-below"/><g class="yaxislayer-below"/><g class="overaxes-below"/><g class="plot" transform="translate(80,100)" clip-path="url(#clipd857bbxyplot)"><g class="violinlayer mlayer"><g class="trace violins" style="opacity: 1;"><path class="violin" d="M108.04,517.06Q108.07,512.97 108.09,510.93C108.11,508.89 108.13,506.84 108.16,504.8C108.19,502.75 108.24,500.71 108.29,498.66C108.34,496.62 108.4,494.57 108.47,492.53C108.54,490.49 108.62,488.44 108.71,486.4C108.8,484.35 108.91,482.31 109.02,480.26C109.13,478.22 109.24,476.17 109.36,474.13C109.48,472.09 109.61,470.04 109.73,468C109.85,465.95 109.98,463.91 110.09,461.86C110.2,459.82 110.31,457.77 110.41,455.73C110.51,453.69 110.59,451.64 110.67,449.6C110.75,447.55 110.81,445.51 110.87,443.46C110.93,441.42 110.98,439.37 111.05,437.33C111.12,435.29 111.18,433.24 111.27,431.2C111.36,429.15 111.45,427.1 111.59,425.06C111.73,423.01 111.88,420.97 112.09,418.93C112.3,416.88 112.53,414.83 112.84,412.79C113.15,410.74 113.51,408.7 113.94,406.66C114.38,404.61 114.87,402.56 115.45,400.53C116.04,398.47 116.7,396.42 117.44,394.39C118.19,392.33 119.02,390.29 119.92,388.26C120.84,386.2 121.84,384.16 122.91,382.13C124,380.07 125.16,378.02 126.39,375.99C127.64,373.93 128.97,371.89 130.35,369.86C131.76,367.8 133.25,365.76 134.78,363.73C136.33,361.67 137.96,359.63 139.58,357.59C141.21,355.54 142.91,353.51 144.52,351.46C146.12,349.43 147.76,347.4 149.22,345.33C150.64,343.31 152.06,341.28 153.2,339.19C154.29,337.19 155.31,335.14 155.95,333.06C156.57,331.05 156.99,328.98 157.04,326.93C157.09,324.89 156.78,322.8 156.23,320.79C155.65,318.7 154.66,316.66 153.58,314.66C152.44,312.56 150.96,310.54 149.5,308.52C148,306.45 146.28,304.43 144.68,302.39C143.08,300.35 141.39,298.33 139.9,296.26C138.45,294.24 137.02,292.2 135.82,290.12C134.66,288.11 133.64,286.06 132.79,283.99C131.97,281.98 131.33,279.92 130.78,277.86C130.24,275.83 129.88,273.77 129.51,271.72C129.14,269.68 128.89,267.63 128.56,265.59C128.23,263.55 127.93,261.5 127.54,259.46C127.15,257.41 126.71,255.36 126.21,253.32C125.71,251.27 125.13,249.23 124.54,247.19C123.95,245.14 123.3,243.11 122.69,241.06C122.08,239.02 121.45,236.97 120.9,234.92C120.35,232.88 119.82,230.84 119.37,228.79C118.93,226.75 118.53,224.71 118.22,222.66C117.91,220.62 117.69,218.57 117.51,216.52C117.34,214.48 117.24,212.43 117.17,210.39C117.1,208.34 117.1,206.3 117.1,204.25C117.1,202.21 117.16,200.16 117.19,198.12C117.23,196.08 117.28,194.03 117.31,191.99C117.34,189.94 117.37,187.9 117.37,185.85C117.37,183.81 117.36,181.76 117.33,179.72C117.3,177.68 117.24,175.63 117.16,173.59C117.08,171.54 116.97,169.5 116.84,167.45C116.71,165.41 116.56,163.36 116.39,161.32C116.22,159.28 116.03,157.23 115.84,155.19C115.65,153.14 115.45,151.1 115.27,149.05C115.09,147.01 114.9,144.96 114.74,142.92C114.58,140.88 114.44,138.83 114.32,136.79C114.19,134.74 114.09,132.7 113.99,130.65C113.89,128.61 113.82,126.56 113.73,124.52C113.64,122.48 113.56,120.43 113.47,118.39C113.38,116.34 113.29,114.3 113.19,112.25C113.09,110.21 112.98,108.16 112.88,106.12C112.78,104.07 112.67,102.03 112.57,99.98C112.47,97.94 112.36,95.89 112.26,93.85C112.16,91.81 112.06,89.76 111.95,87.72C111.84,85.67 111.73,83.63 111.61,81.58C111.49,79.54 111.35,77.49 111.21,75.45C111.06,73.41 110.91,71.36 110.74,69.32C110.57,67.27 110.37,65.23 110.19,63.18C110.01,61.14 109.82,59.09 109.64,57.05C109.46,55.01 109.28,52.96 109.13,50.92C108.97,48.87 108.83,46.83 108.71,44.78C108.59,42.74 108.49,40.69 108.41,38.65Q108.33,36.61 108.21,32.52L107.79,32.52Q107.67,36.61 107.59,38.65C107.51,40.69 107.41,42.74 107.29,44.78C107.17,46.83 107.03,48.87 106.87,50.92C106.72,52.96 106.54,55.01 106.36,57.05C106.18,59.09 105.99,61.14 105.81,63.18C105.63,65.23 105.43,67.27 105.26,69.32C105.09,71.36 104.94,73.41 104.79,75.45C104.65,77.49 104.51,79.54 104.39,81.58C104.27,83.63 104.16,85.67 104.05,87.72C103.94,89.76 103.84,91.81 103.74,93.85C103.64,95.89 103.53,97.94 103.43,99.98C103.33,102.03 103.22,104.07 103.12,106.12C103.02,108.16 102.91,110.21 102.81,112.25C102.71,114.3 102.62,116.34 102.53,118.39C102.44,120.43 102.36,122.48 102.27,124.52C102.18,126.56 102.11,128.61 102.01,130.65C101.91,132.7 101.81,134.74 101.68,136.79C101.56,138.83 101.42,140.88 101.26,142.92C101.1,144.96 100.91,147.01 100.73,149.05C100.55,151.1 100.35,153.14 100.16,155.19C99.97,157.23 99.78,159.28 99.61,161.32C99.44,163.36 99.29,165.41 99.16,167.45C99.03,169.5 98.92,171.54 98.84,173.59C98.76,175.63 98.7,177.68 98.67,179.72C98.64,181.76 98.63,183.81 98.63,185.85C98.63,187.9 98.66,189.94 98.69,191.99C98.72,194.03 98.77,196.08 98.81,198.12C98.84,200.16 98.9,202.21 98.9,204.25C98.9,206.3 98.9,208.34 98.83,210.39C98.76,212.43 98.66,214.48 98.49,216.52C98.31,218.57 98.09,220.62 97.78,222.66C97.47,224.71 97.07,226.75 96.63,228.79C96.18,230.84 95.65,232.88 95.1,234.92C94.55,236.97 93.92,239.02 93.31,241.06C92.7,243.11 92.05,245.14 91.46,247.19C90.87,249.23 90.29,251.27 89.79,253.32C89.29,255.36 88.85,257.41 88.46,259.46C88.07,261.5 87.77,263.55 87.44,265.59C87.11,267.63 86.86,269.68 86.49,271.72C86.12,273.77 85.76,275.83 85.22,277.86C84.67,279.92 84.03,281.98 83.21,283.99C82.36,286.06 81.34,288.11 80.18,290.12C78.98,292.2 77.55,294.24 76.1,296.26C74.61,298.33 72.92,300.35 71.32,302.39C69.72,304.43 68,306.45 66.5,308.52C65.04,310.54 63.56,312.56 62.42,314.66C61.34,316.66 60.35,318.7 59.77,320.79C59.22,322.8 58.91,324.89 58.96,326.93C59.01,328.98 59.43,331.05 60.05,333.06C60.69,335.14 61.71,337.19 62.8,339.19C63.94,341.28 65.36,343.31 66.78,345.33C68.24,347.4 69.88,349.43 71.48,351.46C73.09,353.51 74.79,355.54 76.42,357.59C78.04,359.63 79.67,361.67 81.22,363.73C82.75,365.76 84.24,367.8 85.65,369.86C87.03,371.89 88.36,373.93 89.61,375.99C90.84,378.02 92,380.07 93.09,382.13C94.16,384.16 95.16,386.2 96.08,388.26C96.98,390.29 97.81,392.33 98.56,394.39C99.3,396.42 99.96,398.47 100.55,400.53C101.13,402.56 101.62,404.61 102.06,406.66C102.49,408.7 102.85,410.74 103.16,412.79C103.47,414.83 103.7,416.88 103.91,418.93C104.12,420.97 104.27,423.01 104.41,425.06C104.55,427.1 104.64,429.15 104.73,431.2C104.82,433.24 104.88,435.29 104.95,437.33C105.02,439.37 105.07,441.42 105.13,443.46C105.19,445.51 105.25,447.55 105.33,449.6C105.41,451.64 105.49,453.69 105.59,455.73C105.69,457.77 105.8,459.82 105.91,461.86C106.02,463.91 106.15,465.95 106.27,468C106.39,470.04 106.52,472.09 106.64,474.13C106.76,476.17 106.87,478.22 106.98,480.26C107.09,482.31 107.2,484.35 107.29,486.4C107.38,488.44 107.46,490.49 107.53,492.53C107.6,494.57 107.66,496.62 107.71,498.66C107.76,500.71 107.81,502.75 107.84,504.8C107.87,506.84 107.89,508.89 107.91,510.93Q107.93,512.97 107.96,517.06Z" style="vector-effect: non-scaling-stroke; stroke-width: 2px; stroke: rgb(99, 110, 250); stroke-opacity: 1; fill: rgb(99, 110, 250); fill-opacity: 0.5;"/><path class="violin" d="M324.02,546.8Q324.03,544.46 324.04,543.29C324.05,542.12 324.05,540.95 324.06,539.78C324.07,538.61 324.09,537.44 324.1,536.27C324.12,535.1 324.13,533.93 324.15,532.76C324.17,531.59 324.19,530.42 324.21,529.25C324.23,528.08 324.26,526.91 324.29,525.74C324.32,524.57 324.35,523.4 324.39,522.23C324.43,521.06 324.46,519.89 324.51,518.72C324.56,517.55 324.62,516.38 324.69,515.21C324.76,514.04 324.83,512.87 324.91,511.7C324.99,510.53 325.09,509.36 325.18,508.19C325.28,507.02 325.38,505.85 325.48,504.68C325.58,503.51 325.69,502.34 325.79,501.17C325.89,500 326,498.83 326.09,497.66C326.18,496.49 326.27,495.32 326.35,494.15C326.43,492.98 326.51,491.81 326.58,490.64C326.65,489.47 326.71,488.3 326.77,487.13C326.83,485.96 326.88,484.79 326.94,483.62C327,482.45 327.05,481.28 327.13,480.11C327.2,478.94 327.29,477.78 327.39,476.61C327.5,475.44 327.61,474.27 327.76,473.1C327.91,471.93 328.08,470.76 328.27,469.59C328.46,468.42 328.69,467.25 328.92,466.08C329.15,464.91 329.4,463.74 329.67,462.57C329.94,461.4 330.23,460.23 330.53,459.06C330.83,457.89 331.14,456.72 331.46,455.55C331.78,454.38 332.12,453.21 332.45,452.04C332.78,450.87 333.13,449.7 333.45,448.53C333.77,447.36 334.1,446.19 334.39,445.02C334.68,443.85 334.96,442.68 335.19,441.51C335.42,440.34 335.62,439.17 335.78,438C335.94,436.83 336.05,435.66 336.16,434.49C336.26,433.32 336.33,432.15 336.41,430.98C336.49,429.81 336.55,428.64 336.65,427.47C336.75,426.3 336.86,425.13 337.02,423.96C337.18,422.79 337.38,421.62 337.62,420.45C337.86,419.28 338.16,418.11 338.47,416.94C338.79,415.77 339.15,414.6 339.51,413.43C339.87,412.26 340.26,411.09 340.63,409.92C341,408.75 341.37,407.58 341.71,406.41C342.05,405.24 342.38,404.07 342.69,402.9C343,401.73 343.29,400.56 343.59,399.39C343.89,398.22 344.17,397.05 344.51,395.88C344.85,394.71 345.22,393.53 345.64,392.37C346.07,391.19 346.55,390.02 347.08,388.86C347.62,387.68 348.23,386.51 348.86,385.35C349.5,384.17 350.2,383.01 350.88,381.84C351.57,380.67 352.28,379.5 352.98,378.33C353.68,377.16 354.38,375.99 355.08,374.82C355.78,373.65 356.47,372.48 357.2,371.31C357.93,370.14 358.67,368.96 359.45,367.8C360.24,366.62 361.06,365.45 361.89,364.29C362.73,363.11 363.6,361.95 364.46,360.78C365.31,359.61 366.2,358.45 367.02,357.27C367.83,356.11 368.64,354.94 369.37,353.76C370.09,352.6 370.76,351.43 371.37,350.25C371.97,349.09 372.52,347.92 373.01,346.74C373.5,345.58 373.93,344.41 374.32,343.23C374.71,342.07 375.05,340.89 375.36,339.72C375.67,338.55 375.93,337.38 376.16,336.21C376.39,335.04 376.59,333.87 376.72,332.7C376.85,331.53 376.96,330.36 376.92,329.19C376.88,328.02 376.8,326.83 376.5,325.68C376.19,324.49 375.71,323.29 375.03,322.17C374.29,320.94 373.27,319.77 372.13,318.66C370.86,317.42 369.28,316.28 367.66,315.15C365.9,313.93 363.9,312.79 361.94,311.64C359.92,310.45 357.75,309.32 355.73,308.14C353.76,306.99 351.74,305.85 349.94,304.63C348.27,303.5 346.66,302.35 345.29,301.12C344.05,300 342.94,298.83 342.03,297.61C341.19,296.48 340.54,295.3 339.98,294.1C339.44,292.95 339.07,291.77 338.7,290.59C338.34,289.43 338.07,288.25 337.78,287.08C337.49,285.91 337.23,284.74 336.98,283.57C336.73,282.4 336.47,281.23 336.27,280.06C336.07,278.89 335.88,277.72 335.78,276.55C335.68,275.38 335.63,274.21 335.67,273.04C335.71,271.87 335.85,270.69 336.05,269.53C336.25,268.35 336.55,267.19 336.85,266.02C337.15,264.85 337.54,263.68 337.84,262.51C338.13,261.34 338.46,260.18 338.62,259C338.78,257.84 338.88,256.66 338.81,255.49C338.74,254.32 338.52,253.13 338.2,251.98C337.87,250.79 337.37,249.63 336.86,248.47C336.34,247.29 335.69,246.13 335.1,244.96C334.51,243.79 333.88,242.63 333.34,241.45C332.81,240.29 332.29,239.12 331.89,237.94C331.49,236.78 331.17,235.61 330.93,234.43C330.69,233.27 330.54,232.09 330.44,230.92C330.34,229.75 330.32,228.58 330.3,227.41C330.28,226.24 330.32,225.07 330.34,223.9C330.36,222.73 330.4,221.56 330.42,220.39C330.44,219.22 330.46,218.05 330.48,216.88C330.5,215.71 330.51,214.54 330.53,213.37C330.56,212.2 330.58,211.03 330.63,209.86C330.68,208.69 330.75,207.52 330.83,206.35C330.91,205.18 331.02,204.01 331.1,202.84C331.18,201.67 331.27,200.5 331.3,199.33C331.33,198.16 331.35,196.99 331.28,195.82C331.21,194.65 331.07,193.48 330.88,192.31C330.68,191.13 330.41,189.97 330.11,188.8C329.81,187.62 329.44,186.46 329.09,185.29C328.74,184.12 328.35,182.95 328.02,181.78C327.69,180.61 327.36,179.44 327.1,178.27C326.84,177.1 326.62,175.93 326.45,174.76C326.28,173.59 326.15,172.42 326.06,171.25C325.97,170.08 325.93,168.91 325.9,167.74C325.87,166.57 325.86,165.4 325.86,164.23C325.86,163.06 325.87,161.89 325.87,160.72C325.87,159.55 325.88,158.38 325.88,157.21C325.88,156.04 325.86,154.87 325.85,153.7C325.83,152.53 325.81,151.36 325.79,150.19C325.77,149.02 325.76,147.85 325.75,146.68C325.74,145.51 325.74,144.34 325.74,143.17C325.74,142 325.76,140.83 325.78,139.66C325.8,138.49 325.83,137.33 325.84,136.16C325.86,134.99 325.87,133.82 325.87,132.65C325.87,131.48 325.85,130.31 325.83,129.14C325.8,127.97 325.77,126.8 325.72,125.63C325.67,124.46 325.61,123.29 325.55,122.12C325.49,120.95 325.42,119.78 325.36,118.61C325.3,117.44 325.24,116.27 325.19,115.1C325.14,113.93 325.1,112.76 325.07,111.59C325.04,110.42 325.02,109.25 325.01,108.08C325,106.91 325,105.74 325.01,104.57C325.02,103.4 325.05,102.23 325.07,101.06C325.09,99.89 325.12,98.72 325.15,97.55C325.18,96.38 325.23,95.21 325.27,94.04C325.31,92.87 325.36,91.7 325.41,90.53C325.46,89.36 325.52,88.19 325.57,87.02C325.62,85.85 325.67,84.68 325.72,83.51C325.77,82.34 325.82,81.17 325.86,80C325.9,78.83 325.93,77.66 325.94,76.49C325.95,75.32 325.95,74.15 325.92,72.98C325.89,71.81 325.84,70.64 325.78,69.47C325.71,68.3 325.62,67.13 325.53,65.96C325.43,64.79 325.32,63.62 325.21,62.45C325.1,61.28 324.98,60.11 324.87,58.94C324.76,57.77 324.66,56.6 324.57,55.43C324.48,54.26 324.4,53.09 324.33,51.92Q324.27,50.75 324.18,48.41L323.82,48.41Q323.73,50.75 323.67,51.92C323.6,53.09 323.52,54.26 323.43,55.43C323.34,56.6 323.24,57.77 323.13,58.94C323.02,60.11 322.9,61.28 322.79,62.45C322.68,63.62 322.57,64.79 322.47,65.96C322.38,67.13 322.29,68.3 322.22,69.47C322.16,70.64 322.11,71.81 322.08,72.98C322.05,74.15 322.05,75.32 322.06,76.49C322.07,77.66 322.1,78.83 322.14,80C322.18,81.17 322.23,82.34 322.28,83.51C322.33,84.68 322.38,85.85 322.43,87.02C322.48,88.19 322.54,89.36 322.59,90.53C322.64,91.7 322.69,92.87 322.73,94.04C322.77,95.21 322.82,96.38 322.85,97.55C322.88,98.72 322.91,99.89 322.93,101.06C322.95,102.23 322.98,103.4 322.99,104.57C323,105.74 323,106.91 322.99,108.08C322.98,109.25 322.96,110.42 322.93,111.59C322.9,112.76 322.86,113.93 322.81,115.1C322.76,116.27 322.7,117.44 322.64,118.61C322.58,119.78 322.51,120.95 322.45,122.12C322.39,123.29 322.33,124.46 322.28,125.63C322.23,126.8 322.2,127.97 322.17,129.14C322.15,130.31 322.13,131.48 322.13,132.65C322.13,133.82 322.14,134.99 322.16,136.16C322.17,137.33 322.2,138.49 322.22,139.66C322.24,140.83 322.26,142 322.26,143.17C322.26,144.34 322.26,145.51 322.25,146.68C322.24,147.85 322.23,149.02 322.21,150.19C322.19,151.36 322.17,152.53 322.15,153.7C322.14,154.87 322.12,156.04 322.12,157.21C322.12,158.38 322.13,159.55 322.13,160.72C322.13,161.89 322.14,163.06 322.14,164.23C322.14,165.4 322.13,166.57 322.1,167.74C322.07,168.91 322.03,170.08 321.94,171.25C321.85,172.42 321.72,173.59 321.55,174.76C321.38,175.93 321.16,177.1 320.9,178.27C320.64,179.44 320.31,180.61 319.98,181.78C319.65,182.95 319.26,184.12 318.91,185.29C318.56,186.46 318.19,187.62 317.89,188.8C317.59,189.97 317.32,191.13 317.12,192.31C316.93,193.48 316.79,194.65 316.72,195.82C316.65,196.99 316.67,198.16 316.7,199.33C316.73,200.5 316.82,201.67 316.9,202.84C316.98,204.01 317.09,205.18 317.17,206.35C317.25,207.52 317.32,208.69 317.37,209.86C317.42,211.03 317.44,212.2 317.47,213.37C317.49,214.54 317.5,215.71 317.52,216.88C317.54,218.05 317.56,219.22 317.58,220.39C317.6,221.56 317.64,222.73 317.66,223.9C317.68,225.07 317.72,226.24 317.7,227.41C317.68,228.58 317.66,229.75 317.56,230.92C317.46,232.09 317.31,233.27 317.07,234.43C316.83,235.61 316.51,236.78 316.11,237.94C315.71,239.12 315.19,240.29 314.66,241.45C314.12,242.63 313.49,243.79 312.9,244.96C312.31,246.13 311.66,247.29 311.14,248.47C310.63,249.63 310.13,250.79 309.8,251.98C309.48,253.13 309.26,254.32 309.19,255.49C309.12,256.66 309.22,257.84 309.38,259C309.54,260.18 309.87,261.34 310.16,262.51C310.46,263.68 310.85,264.85 311.15,266.02C311.45,267.19 311.75,268.35 311.95,269.53C312.15,270.69 312.29,271.87 312.33,273.04C312.37,274.21 312.32,275.38 312.22,276.55C312.12,277.72 311.93,278.89 311.73,280.06C311.53,281.23 311.27,282.4 311.02,283.57C310.77,284.74 310.51,285.91 310.22,287.08C309.93,288.25 309.66,289.43 309.3,290.59C308.93,291.77 308.56,292.95 308.02,294.1C307.46,295.3 306.81,296.48 305.97,297.61C305.06,298.83 303.95,300 302.71,301.12C301.34,302.35 299.73,303.5 298.06,304.63C296.26,305.85 294.24,306.99 292.27,308.14C290.25,309.32 288.08,310.45 286.06,311.64C284.1,312.79 282.1,313.93 280.34,315.15C278.72,316.28 277.14,317.42 275.87,318.66C274.73,319.77 273.71,320.94 272.97,322.17C272.29,323.29 271.81,324.49 271.5,325.68C271.2,326.83 271.12,328.02 271.08,329.19C271.04,330.36 271.15,331.53 271.28,332.7C271.41,333.87 271.61,335.04 271.84,336.21C272.07,337.38 272.33,338.55 272.64,339.72C272.95,340.89 273.29,342.07 273.68,343.23C274.07,344.41 274.5,345.58 274.99,346.74C275.48,347.92 276.03,349.09 276.63,350.25C277.24,351.43 277.91,352.6 278.63,353.76C279.36,354.94 280.17,356.11 280.98,357.27C281.8,358.45 282.69,359.61 283.54,360.78C284.4,361.95 285.27,363.11 286.11,364.29C286.94,365.45 287.76,366.62 288.55,367.8C289.33,368.96 290.07,370.14 290.8,371.31C291.53,372.48 292.22,373.65 292.92,374.82C293.62,375.99 294.32,377.16 295.02,378.33C295.72,379.5 296.43,380.67 297.12,381.84C297.8,383.01 298.5,384.17 299.14,385.35C299.77,386.51 300.38,387.68 300.92,388.86C301.45,390.02 301.93,391.19 302.36,392.37C302.78,393.53 303.15,394.71 303.49,395.88C303.83,397.05 304.11,398.22 304.41,399.39C304.71,400.56 305,401.73 305.31,402.9C305.62,404.07 305.95,405.24 306.29,406.41C306.63,407.58 307,408.75 307.37,409.92C307.74,411.09 308.13,412.26 308.49,413.43C308.85,414.6 309.21,415.77 309.53,416.94C309.84,418.11 310.14,419.28 310.38,420.45C310.62,421.62 310.82,422.79 310.98,423.96C311.14,425.13 311.25,426.3 311.35,427.47C311.45,428.64 311.51,429.81 311.59,430.98C311.67,432.15 311.74,433.32 311.84,434.49C311.95,435.66 312.06,436.83 312.22,438C312.38,439.17 312.58,440.34 312.81,441.51C313.04,442.68 313.32,443.85 313.61,445.02C313.9,446.19 314.23,447.36 314.55,448.53C314.87,449.7 315.22,450.87 315.55,452.04C315.88,453.21 316.22,454.38 316.54,455.55C316.86,456.72 317.17,457.89 317.47,459.06C317.77,460.23 318.06,461.4 318.33,462.57C318.6,463.74 318.85,464.91 319.08,466.08C319.31,467.25 319.54,468.42 319.73,469.59C319.92,470.76 320.09,471.93 320.24,473.1C320.39,474.27 320.5,475.44 320.61,476.61C320.71,477.78 320.8,478.94 320.87,480.11C320.95,481.28 321,482.45 321.06,483.62C321.12,484.79 321.17,485.96 321.23,487.13C321.29,488.3 321.35,489.47 321.42,490.64C321.49,491.81 321.57,492.98 321.65,494.15C321.73,495.32 321.82,496.49 321.91,497.66C322,498.83 322.11,500 322.21,501.17C322.31,502.34 322.42,503.51 322.52,504.68C322.62,505.85 322.72,507.02 322.82,508.19C322.91,509.36 323.01,510.53 323.09,511.7C323.17,512.87 323.24,514.04 323.31,515.21C323.38,516.38 323.44,517.55 323.49,518.72C323.54,519.89 323.57,521.06 323.61,522.23C323.65,523.4 323.68,524.57 323.71,525.74C323.74,526.91 323.77,528.08 323.79,529.25C323.81,530.42 323.83,531.59 323.85,532.76C323.87,533.93 323.88,535.1 323.9,536.27C323.91,537.44 323.93,538.61 323.94,539.78C323.95,540.95 323.95,542.12 323.96,543.29Q323.97,544.46 323.98,546.8Z" style="vector-effect: non-scaling-stroke; stroke-width: 2px; stroke: rgb(99, 110, 250); stroke-opacity: 1; fill: rgb(99, 110, 250); fill-opacity: 0.5;"/><path class="violin" d="M540.01,589Q540.02,584.73 540.03,582.59C540.04,580.45 540.05,578.31 540.06,576.17C540.07,574.03 540.09,571.9 540.11,569.76C540.13,567.62 540.16,565.48 540.2,563.34C540.24,561.2 540.29,559.07 540.35,556.93C540.42,554.79 540.48,552.66 540.59,550.52C540.7,548.38 540.82,546.24 540.99,544.1C541.16,541.96 541.35,539.82 541.61,537.69C541.87,535.55 542.16,533.41 542.54,531.28C542.92,529.14 543.35,526.99 543.87,524.86C544.39,522.71 544.99,520.58 545.67,518.45C546.35,516.3 547.13,514.16 547.96,512.03C548.8,509.88 549.72,507.75 550.66,505.62C551.6,503.48 552.62,501.35 553.59,499.21C554.56,497.07 555.58,494.94 556.48,492.79C557.37,490.66 558.25,488.53 558.98,486.38C559.7,484.26 560.35,482.12 560.83,479.97C561.31,477.84 561.65,475.7 561.88,473.55C562.11,471.42 562.18,469.28 562.19,467.14C562.2,465 562.08,462.86 561.94,460.72C561.8,458.58 561.58,456.45 561.37,454.31C561.15,452.17 560.89,450.04 560.65,447.9C560.4,445.76 560.14,443.62 559.9,441.48C559.66,439.34 559.41,437.21 559.2,435.07C558.99,432.93 558.78,430.8 558.63,428.66C558.48,426.52 558.35,424.38 558.29,422.24C558.23,420.1 558.22,417.97 558.26,415.83C558.3,413.69 558.41,411.55 558.56,409.41C558.71,407.27 558.91,405.13 559.14,403C559.37,400.86 559.64,398.73 559.92,396.59C560.2,394.45 560.51,392.31 560.8,390.17C561.09,388.03 561.39,385.9 561.66,383.76C561.92,381.62 562.18,379.48 562.39,377.34C562.6,375.2 562.77,373.07 562.92,370.93C563.06,368.79 563.17,366.66 563.26,364.52C563.36,362.38 563.41,360.24 563.49,358.1C563.57,355.96 563.64,353.83 563.73,351.69C563.82,349.55 563.94,347.42 564.05,345.28C564.16,343.14 564.31,341 564.41,338.86C564.51,336.72 564.64,334.59 564.65,332.45C564.66,330.31 564.65,328.17 564.49,326.03C564.33,323.89 564.09,321.75 563.7,319.62C563.31,317.47 562.76,315.33 562.15,313.21C561.53,311.06 560.76,308.92 560.01,306.79C559.25,304.65 558.38,302.52 557.61,300.38C556.84,298.25 556.03,296.12 555.37,293.97C554.71,291.84 554.11,289.7 553.65,287.55C553.19,285.42 552.84,283.28 552.59,281.14C552.34,279.01 552.22,276.86 552.13,274.72C552.04,272.58 552.06,270.45 552.04,268.31C552.02,266.17 552.05,264.04 552.01,261.9C551.97,259.76 551.91,257.62 551.77,255.48C551.63,253.34 551.42,251.2 551.17,249.07C550.92,246.93 550.59,244.8 550.27,242.66C549.95,240.52 549.57,238.38 549.25,236.24C548.93,234.1 548.6,231.97 548.36,229.83C548.12,227.69 547.92,225.55 547.79,223.41C547.66,221.27 547.61,219.14 547.59,217C547.57,214.86 547.62,212.73 547.66,210.59C547.7,208.45 547.78,206.31 547.81,204.17C547.84,202.03 547.88,199.9 547.84,197.76C547.8,195.62 547.72,193.48 547.59,191.34C547.46,189.2 547.27,187.07 547.06,184.93C546.85,182.79 546.58,180.66 546.34,178.52C546.1,176.38 545.82,174.24 545.6,172.1C545.38,169.96 545.17,167.83 545,165.69C544.83,163.55 544.7,161.42 544.6,159.28C544.5,157.14 544.45,155 544.41,152.86C544.37,150.72 544.36,148.59 544.34,146.45C544.32,144.31 544.31,142.17 544.28,140.03C544.25,137.89 544.22,135.76 544.16,133.62C544.1,131.48 544.02,129.35 543.93,127.21C543.84,125.07 543.72,122.93 543.61,120.79C543.5,118.65 543.37,116.52 543.26,114.38C543.15,112.24 543.04,110.11 542.96,107.97C542.88,105.83 542.82,103.69 542.77,101.55C542.72,99.41 542.7,97.28 542.68,95.14C542.66,93 542.67,90.86 542.67,88.72C542.67,86.58 542.68,84.45 542.66,82.31C542.64,80.17 542.61,78.04 542.56,75.9C542.51,73.76 542.44,71.62 542.34,69.48C542.24,67.34 542.11,65.21 541.98,63.07C541.85,60.93 541.7,58.8 541.55,56.66C541.4,54.52 541.24,52.38 541.1,50.24C540.96,48.1 540.82,45.97 540.71,43.83C540.6,41.69 540.5,39.55 540.42,37.41Q540.34,35.27 540.22,31L539.78,31Q539.66,35.27 539.58,37.41C539.5,39.55 539.4,41.69 539.29,43.83C539.18,45.97 539.04,48.1 538.9,50.24C538.76,52.38 538.6,54.52 538.45,56.66C538.3,58.8 538.15,60.93 538.02,63.07C537.89,65.21 537.76,67.34 537.66,69.48C537.56,71.62 537.49,73.76 537.44,75.9C537.39,78.04 537.36,80.17 537.34,82.31C537.32,84.45 537.33,86.58 537.33,88.72C537.33,90.86 537.34,93 537.32,95.14C537.3,97.28 537.28,99.41 537.23,101.55C537.18,103.69 537.12,105.83 537.04,107.97C536.96,110.11 536.85,112.24 536.74,114.38C536.63,116.52 536.5,118.65 536.39,120.79C536.28,122.93 536.16,125.07 536.07,127.21C535.98,129.35 535.9,131.48 535.84,133.62C535.78,135.76 535.75,137.89 535.72,140.03C535.69,142.17 535.68,144.31 535.66,146.45C535.64,148.59 535.63,150.72 535.59,152.86C535.55,155 535.5,157.14 535.4,159.28C535.3,161.42 535.17,163.55 535,165.69C534.83,167.83 534.62,169.96 534.4,172.1C534.18,174.24 533.9,176.38 533.66,178.52C533.42,180.66 533.15,182.79 532.94,184.93C532.73,187.07 532.54,189.2 532.41,191.34C532.28,193.48 532.2,195.62 532.16,197.76C532.12,199.9 532.16,202.03 532.19,204.17C532.22,206.31 532.3,208.45 532.34,210.59C532.38,212.73 532.43,214.86 532.41,217C532.39,219.14 532.34,221.27 532.21,223.41C532.08,225.55 531.88,227.69 531.64,229.83C531.4,231.97 531.07,234.1 530.75,236.24C530.43,238.38 530.05,240.52 529.73,242.66C529.41,244.8 529.08,246.93 528.83,249.07C528.58,251.2 528.37,253.34 528.23,255.48C528.09,257.62 528.03,259.76 527.99,261.9C527.95,264.04 527.98,266.17 527.96,268.31C527.94,270.45 527.96,272.58 527.87,274.72C527.78,276.86 527.66,279.01 527.41,281.14C527.16,283.28 526.81,285.42 526.35,287.55C525.89,289.7 525.29,291.84 524.63,293.97C523.97,296.12 523.16,298.25 522.39,300.38C521.62,302.52 520.75,304.65 519.99,306.79C519.24,308.92 518.47,311.06 517.85,313.21C517.24,315.33 516.69,317.47 516.3,319.62C515.91,321.75 515.67,323.89 515.51,326.03C515.35,328.17 515.34,330.31 515.35,332.45C515.36,334.59 515.49,336.72 515.59,338.86C515.69,341 515.84,343.14 515.95,345.28C516.06,347.42 516.18,349.55 516.27,351.69C516.36,353.83 516.43,355.96 516.51,358.1C516.59,360.24 516.64,362.38 516.74,364.52C516.83,366.66 516.94,368.79 517.08,370.93C517.23,373.07 517.4,375.2 517.61,377.34C517.82,379.48 518.08,381.62 518.34,383.76C518.61,385.9 518.91,388.03 519.2,390.17C519.49,392.31 519.8,394.45 520.08,396.59C520.36,398.73 520.63,400.86 520.86,403C521.09,405.13 521.29,407.27 521.44,409.41C521.59,411.55 521.7,413.69 521.74,415.83C521.78,417.97 521.77,420.1 521.71,422.24C521.65,424.38 521.52,426.52 521.37,428.66C521.22,430.8 521.01,432.93 520.8,435.07C520.59,437.21 520.34,439.34 520.1,441.48C519.86,443.62 519.6,445.76 519.35,447.9C519.11,450.04 518.85,452.17 518.63,454.31C518.42,456.45 518.2,458.58 518.06,460.72C517.92,462.86 517.8,465 517.81,467.14C517.82,469.28 517.89,471.42 518.12,473.55C518.35,475.7 518.69,477.84 519.17,479.97C519.65,482.12 520.3,484.26 521.02,486.38C521.75,488.53 522.63,490.66 523.52,492.79C524.42,494.94 525.44,497.07 526.41,499.21C527.38,501.35 528.4,503.48 529.34,505.62C530.28,507.75 531.2,509.88 532.04,512.03C532.87,514.16 533.65,516.3 534.33,518.45C535.01,520.58 535.61,522.71 536.13,524.86C536.65,526.99 537.08,529.14 537.46,531.28C537.84,533.41 538.13,535.55 538.39,537.69C538.65,539.82 538.84,541.96 539.01,544.1C539.18,546.24 539.3,548.38 539.41,550.52C539.52,552.66 539.58,554.79 539.65,556.93C539.71,559.07 539.76,561.2 539.8,563.34C539.84,565.48 539.87,567.62 539.89,569.76C539.91,571.9 539.93,574.03 539.94,576.17C539.95,578.31 539.96,580.45 539.97,582.59Q539.98,584.73 539.99,589Z" style="vector-effect: non-scaling-stroke; stroke-width: 2px; stroke: rgb(99, 110, 250); stroke-opacity: 1; fill: rgb(99, 110, 250); fill-opacity: 0.5;"/><path class="box" d="M94.77,316.23H121.23M94.77,340.89H121.23V255.06H94.77ZM108,340.89V468.04M108,255.06V131.11" style="vector-effect: non-scaling-stroke; stroke-width: 2px; stroke: rgb(99, 110, 250); stroke-opacity: 1; fill: rgb(99, 110, 250); fill-opacity: 0.5;"/><path class="box" d="M310.77,340.77H337.23M310.77,377.77H337.23V316.1H310.77ZM324,377.77V470.26M324,316.1V223.61" style="vector-effect: non-scaling-stroke; stroke-width: 2px; stroke: rgb(99, 110, 250); stroke-opacity: 1; fill: rgb(99, 110, 250); fill-opacity: 0.5;"/><path class="box" d="M526.77,359.39H553.23M526.77,439.55H553.23V291.56H526.77ZM540,439.55V550.43M540,291.56V69.57" style="vector-effect: non-scaling-stroke; stroke-width: 2px; stroke: rgb(99, 110, 250); stroke-opacity: 1; fill: rgb(99, 110, 250); fill-opacity: 0.5;"/><path class="mean" d="M94.77,292.35H121.23" style="fill: none; vector-effect: non-scaling-stroke; stroke-width: 2px; stroke-dasharray: 4px, 2px; stroke: rgb(99, 110, 250); stroke-opacity: 1;"/><path class="mean" d="M310.77,333.43H337.23" style="fill: none; vector-effect: non-scaling-stroke; stroke-width: 2px; stroke-dasharray: 4px, 2px; stroke: rgb(99, 110, 250); stroke-opacity: 1;"/><path class="mean" d="M526.77,351.27H553.23" style="fill: none; vector-effect: non-scaling-stroke; stroke-width: 2px; stroke-dasharray: 4px, 2px; stroke: rgb(99, 110, 250); stroke-opacity: 1;"/></g></g></g><g class="overplot"/><path class="xlines-above crisp" d="M0,0" style="fill: none;"/><path class="ylines-above crisp" d="M0,0" style="fill: none;"/><g class="overlines-above"/><g class="xaxislayer-above"><g class="xtick"><text text-anchor="middle" x="0" y="733" transform="translate(188,0)" style="font-family: 'Open Sans', verdana, arial, sans-serif; font-size: 12px; fill: rgb(42, 63, 95); fill-opacity: 1; white-space: pre; opacity: 1;">&#60;=1</text></g><g class="xtick"><text text-anchor="middle" x="0" y="733" transform="translate(404,0)" style="font-family: 'Open Sans', verdana, arial, sans-serif; font-size: 12px; fill: rgb(42, 63, 95); fill-opacity: 1; white-space: pre; opacity: 1;">(1, 2]</text></g><g class="xtick"><text text-anchor="middle" x="0" y="733" transform="translate(620,0)" style="font-family: 'Open Sans', verdana, arial, sans-serif; font-size: 12px; fill: rgb(42, 63, 95); fill-opacity: 1; white-space: pre; opacity: 1;">>2</text></g></g><g class="yaxislayer-above"><g class="ytick"><text text-anchor="end" x="79" y="4.199999999999999" transform="translate(0,662.76)" style="font-family: 'Open Sans', verdana, arial, sans-serif; font-size: 12px; fill: rgb(42, 63, 95); fill-opacity: 1; white-space: pre; opacity: 1;">0</text></g><g class="ytick"><text text-anchor="end" x="79" y="4.199999999999999" style="font-family: 'Open Sans', verdana, arial, sans-serif; font-size: 12px; fill: rgb(42, 63, 95); fill-opacity: 1; white-space: pre; opacity: 1;" transform="translate(0,539.4300000000001)">10</text></g><g class="ytick"><text text-anchor="end" x="79" y="4.199999999999999" style="font-family: 'Open Sans', verdana, arial, sans-serif; font-size: 12px; fill: rgb(42, 63, 95); fill-opacity: 1; white-space: pre; opacity: 1;" transform="translate(0,416.1)">20</text></g><g class="ytick"><text text-anchor="end" x="79" y="4.199999999999999" style="font-family: 'Open Sans', verdana, arial, sans-serif; font-size: 12px; fill: rgb(42, 63, 95); fill-opacity: 1; white-space: pre; opacity: 1;" transform="translate(0,292.78)">30</text></g><g class="ytick"><text text-anchor="end" x="79" y="4.199999999999999" style="font-family: 'Open Sans', verdana, arial, sans-serif; font-size: 12px; fill: rgb(42, 63, 95); fill-opacity: 1; white-space: pre; opacity: 1;" transform="translate(0,169.45)">40</text></g></g><g class="overaxes-above"/></g><g class="subplot x2y2"><g class="layer-subplot"><g class="shapelayer"/><g class="imagelayer"/></g><g class="minor-gridlayer"><g class="x2"/><g class="y2"/></g><g class="gridlayer"><g class="x2"/><g class="y2"><path class="y2grid crisp" transform="translate(0,554.65)" d="M872.0000000000001,0h647.9999999999999" style="stroke: rgb(255, 255, 255); stroke-opacity: 1; stroke-width: 1px;"/><path class="y2grid crisp" transform="translate(0,441.2)" d="M872.0000000000001,0h647.9999999999999" style="stroke: rgb(255, 255, 255); stroke-opacity: 1; stroke-width: 1px;"/><path class="y2grid crisp" transform="translate(0,327.75)" d="M872.0000000000001,0h647.9999999999999" style="stroke: rgb(255, 255, 255); stroke-opacity: 1; stroke-width: 1px;"/><path class="y2grid crisp" transform="translate(0,214.3)" d="M872.0000000000001,0h647.9999999999999" style="stroke: rgb(255, 255, 255); stroke-opacity: 1; stroke-width: 1px;"/></g></g><g class="zerolinelayer"><path class="y2zl zl crisp" transform="translate(0,668.1)" d="M872.0000000000001,0h647.9999999999999" style="stroke: rgb(255, 255, 255); stroke-opacity: 1; stroke-width: 2px;"/></g><path class="xlines-below"/><path class="ylines-below"/><g class="overlines-below"/><g class="xaxislayer-below"/><g class="yaxislayer-below"/><g class="overaxes-below"/><g class="plot" transform="translate(872.0000000000001,100)" clip-path="url(#clipd857bbx2y2plot)"><g class="violinlayer mlayer"><g class="trace violins" style="opacity: 1;"><path class="violin" d="M108.05,583.74Q108.08,581.39 108.1,580.21C108.12,579.03 108.15,577.86 108.19,576.68C108.23,575.5 108.27,574.33 108.32,573.15C108.37,571.97 108.43,570.8 108.49,569.62C108.56,568.44 108.63,567.26 108.71,566.08C108.79,564.9 108.88,563.73 108.97,562.55C109.06,561.37 109.16,560.2 109.27,559.02C109.38,557.84 109.5,556.67 109.64,555.49C109.78,554.31 109.93,553.13 110.11,551.95C110.29,550.77 110.49,549.59 110.73,548.42C110.97,547.24 111.25,546.06 111.55,544.89C111.85,543.71 112.2,542.53 112.55,541.36C112.9,540.18 113.29,539.01 113.65,537.83C114.01,536.65 114.38,535.47 114.72,534.29C115.05,533.12 115.38,531.94 115.66,530.76C115.94,529.59 116.19,528.41 116.42,527.23C116.65,526.06 116.85,524.88 117.06,523.7C117.27,522.52 117.46,521.34 117.66,520.16C117.86,518.98 118.07,517.81 118.27,516.63C118.47,515.45 118.68,514.28 118.88,513.1C119.07,511.92 119.27,510.75 119.44,509.57C119.61,508.39 119.75,507.22 119.88,506.04C120,504.86 120.1,503.68 120.19,502.5C120.28,501.32 120.34,500.15 120.4,498.97C120.46,497.79 120.51,496.62 120.54,495.44C120.57,494.26 120.6,493.09 120.6,491.91C120.6,490.73 120.57,489.56 120.51,488.38C120.45,487.2 120.35,486.02 120.22,484.84C120.08,483.66 119.9,482.48 119.7,481.31C119.5,480.13 119.25,478.96 119,477.78C118.75,476.6 118.47,475.43 118.22,474.25C117.97,473.07 117.71,471.89 117.5,470.71C117.29,469.54 117.11,468.36 116.98,467.18C116.85,466.01 116.75,464.83 116.71,463.65C116.67,462.47 116.68,461.3 116.72,460.12C116.76,458.94 116.85,457.77 116.96,456.59C117.07,455.41 117.21,454.23 117.39,453.05C117.57,451.87 117.77,450.69 118.04,449.52C118.31,448.34 118.6,447.15 118.99,445.99C119.39,444.8 119.85,443.62 120.42,442.46C121.01,441.26 121.7,440.07 122.5,438.92C123.34,437.71 124.32,436.53 125.38,435.39C126.51,434.18 127.78,433 129.12,431.86C130.54,430.65 132.09,429.48 133.69,428.33C135.36,427.12 137.15,425.96 138.95,424.8C140.8,423.61 142.74,422.44 144.63,421.26C146.52,420.08 148.48,418.93 150.31,417.73C152.07,416.58 153.87,415.44 155.4,414.2C156.79,413.07 158.22,411.94 159.16,410.67C159.99,409.56 160.76,408.34 160.92,407.13C161.08,405.98 160.79,404.71 160.24,403.6C159.61,402.33 158.35,401.17 157.09,400.07C155.63,398.8 153.74,397.67 151.87,396.54C149.85,395.31 147.57,394.18 145.36,393.01C143.1,391.82 140.72,390.66 138.47,389.47C136.27,388.31 134.05,387.16 132.01,385.94C130.09,384.8 128.23,383.64 126.56,382.41C125.03,381.28 123.59,380.11 122.35,378.88C121.21,377.75 120.19,376.57 119.33,375.35C118.52,374.21 117.85,373.01 117.27,371.81C116.71,370.65 116.28,369.47 115.89,368.28C115.5,367.11 115.21,365.93 114.93,364.75C114.65,363.58 114.43,362.4 114.23,361.22C114.03,360.04 113.87,358.86 113.73,357.68C113.59,356.5 113.49,355.33 113.4,354.15C113.32,352.97 113.27,351.8 113.22,350.62C113.18,349.44 113.16,348.27 113.13,347.09C113.1,345.91 113.07,344.74 113.02,343.56C112.97,342.38 112.91,341.2 112.82,340.02C112.74,338.84 112.63,337.67 112.51,336.49C112.39,335.31 112.25,334.14 112.11,332.96C111.97,331.78 111.82,330.61 111.68,329.43C111.54,328.25 111.4,327.07 111.27,325.89C111.14,324.71 111.02,323.54 110.9,322.36C110.78,321.18 110.67,320.01 110.56,318.83C110.45,317.65 110.34,316.48 110.24,315.3C110.14,314.12 110.03,312.95 109.94,311.77C109.85,310.59 109.75,309.41 109.68,308.23C109.61,307.05 109.55,305.88 109.5,304.7C109.45,303.52 109.41,302.35 109.38,301.17C109.35,299.99 109.34,298.82 109.33,297.64C109.32,296.46 109.32,295.29 109.31,294.11C109.3,292.93 109.29,291.75 109.27,290.57C109.25,289.39 109.22,288.22 109.19,287.04C109.15,285.86 109.1,284.69 109.06,283.51C109.02,282.33 108.97,281.16 108.93,279.98C108.89,278.8 108.85,277.62 108.83,276.44C108.81,275.26 108.79,274.09 108.8,272.91C108.81,271.73 108.85,270.56 108.89,269.38C108.94,268.2 109,267.03 109.07,265.85C109.14,264.67 109.23,263.5 109.31,262.32C109.39,261.14 109.47,259.96 109.53,258.78C109.59,257.6 109.65,256.43 109.69,255.25C109.73,254.07 109.75,252.9 109.75,251.72C109.75,250.54 109.74,249.37 109.72,248.19C109.7,247.01 109.67,245.83 109.64,244.65C109.61,243.47 109.57,242.3 109.53,241.12C109.49,239.94 109.46,238.77 109.42,237.59C109.39,236.41 109.35,235.24 109.32,234.06C109.29,232.88 109.25,231.71 109.22,230.53C109.19,229.35 109.15,228.17 109.12,226.99C109.09,225.81 109.06,224.64 109.04,223.46C109.02,222.28 109,221.11 108.98,219.93C108.96,218.75 108.94,217.58 108.93,216.4C108.92,215.22 108.91,214.05 108.9,212.87C108.89,211.69 108.88,210.51 108.87,209.33C108.86,208.15 108.84,206.98 108.83,205.8C108.82,204.62 108.81,203.45 108.8,202.27C108.79,201.09 108.77,199.92 108.76,198.74C108.75,197.56 108.75,196.38 108.75,195.2C108.75,194.02 108.76,192.85 108.77,191.67C108.78,190.49 108.81,189.32 108.83,188.14C108.85,186.96 108.88,185.79 108.91,184.61C108.94,183.43 108.97,182.26 108.99,181.08C109.01,179.9 109.04,178.72 109.05,177.54C109.06,176.36 109.07,175.19 109.07,174.01C109.07,172.83 109.05,171.66 109.04,170.48C109.02,169.3 109,168.13 108.98,166.95C108.95,165.77 108.92,164.59 108.89,163.41C108.86,162.23 108.84,161.06 108.82,159.88C108.8,158.7 108.77,157.53 108.76,156.35C108.75,155.17 108.75,154 108.74,152.82C108.74,151.64 108.73,150.47 108.73,149.29C108.73,148.11 108.73,146.93 108.74,145.75C108.75,144.57 108.77,143.4 108.78,142.22C108.8,141.04 108.81,139.87 108.83,138.69C108.85,137.51 108.88,136.34 108.9,135.16C108.93,133.98 108.96,132.8 108.98,131.62C109,130.44 109.02,129.27 109.04,128.09C109.06,126.91 109.07,125.74 109.08,124.56C109.09,123.38 109.09,122.21 109.08,121.03C109.07,119.85 109.06,118.68 109.04,117.5C109.02,116.32 109,115.14 108.98,113.96C108.96,112.78 108.93,111.61 108.91,110.43C108.89,109.25 108.86,108.08 108.84,106.9C108.82,105.72 108.81,104.55 108.8,103.37C108.79,102.19 108.78,101.02 108.77,99.84C108.76,98.66 108.76,97.48 108.75,96.3C108.74,95.12 108.73,93.95 108.72,92.77C108.71,91.59 108.7,90.42 108.68,89.24C108.66,88.06 108.63,86.89 108.61,85.71C108.58,84.53 108.56,83.35 108.53,82.17C108.5,80.99 108.47,79.82 108.45,78.64C108.43,77.46 108.42,76.29 108.41,75.11C108.4,73.93 108.4,72.76 108.4,71.58C108.4,70.4 108.42,69.23 108.44,68.05C108.46,66.87 108.48,65.69 108.5,64.51C108.52,63.33 108.55,62.16 108.56,60.98C108.57,59.8 108.57,58.63 108.57,57.45C108.57,56.27 108.55,55.1 108.53,53.92C108.51,52.74 108.48,51.56 108.45,50.38C108.42,49.2 108.38,48.03 108.34,46.85C108.3,45.67 108.26,44.5 108.23,43.32C108.2,42.14 108.17,40.97 108.14,39.79Q108.12,38.61 108.08,36.26L107.92,36.26Q107.88,38.61 107.86,39.79C107.83,40.97 107.8,42.14 107.77,43.32C107.74,44.5 107.7,45.67 107.66,46.85C107.62,48.03 107.58,49.2 107.55,50.38C107.52,51.56 107.49,52.74 107.47,53.92C107.45,55.1 107.43,56.27 107.43,57.45C107.43,58.63 107.43,59.8 107.44,60.98C107.45,62.16 107.48,63.33 107.5,64.51C107.52,65.69 107.54,66.87 107.56,68.05C107.58,69.23 107.6,70.4 107.6,71.58C107.6,72.76 107.6,73.93 107.59,75.11C107.58,76.29 107.57,77.46 107.55,78.64C107.53,79.82 107.5,80.99 107.47,82.17C107.44,83.35 107.42,84.53 107.39,85.71C107.37,86.89 107.34,88.06 107.32,89.24C107.3,90.42 107.29,91.59 107.28,92.77C107.27,93.95 107.26,95.12 107.25,96.3C107.24,97.48 107.24,98.66 107.23,99.84C107.22,101.02 107.21,102.19 107.2,103.37C107.19,104.55 107.18,105.72 107.16,106.9C107.14,108.08 107.11,109.25 107.09,110.43C107.07,111.61 107.04,112.78 107.02,113.96C107,115.14 106.98,116.32 106.96,117.5C106.94,118.68 106.93,119.85 106.92,121.03C106.91,122.21 106.91,123.38 106.92,124.56C106.93,125.74 106.94,126.91 106.96,128.09C106.98,129.27 107,130.44 107.02,131.62C107.04,132.8 107.07,133.98 107.1,135.16C107.12,136.34 107.15,137.51 107.17,138.69C107.19,139.87 107.2,141.04 107.22,142.22C107.23,143.4 107.25,144.57 107.26,145.75C107.27,146.93 107.27,148.11 107.27,149.29C107.27,150.47 107.26,151.64 107.26,152.82C107.25,154 107.25,155.17 107.24,156.35C107.23,157.53 107.2,158.7 107.18,159.88C107.16,161.06 107.14,162.23 107.11,163.41C107.08,164.59 107.05,165.77 107.02,166.95C107,168.13 106.98,169.3 106.96,170.48C106.95,171.66 106.93,172.83 106.93,174.01C106.93,175.19 106.94,176.36 106.95,177.54C106.96,178.72 106.99,179.9 107.01,181.08C107.03,182.26 107.06,183.43 107.09,184.61C107.12,185.79 107.15,186.96 107.17,188.14C107.19,189.32 107.22,190.49 107.23,191.67C107.24,192.85 107.25,194.02 107.25,195.2C107.25,196.38 107.25,197.56 107.24,198.74C107.23,199.92 107.21,201.09 107.2,202.27C107.19,203.45 107.18,204.62 107.17,205.8C107.16,206.98 107.14,208.15 107.13,209.33C107.12,210.51 107.11,211.69 107.1,212.87C107.09,214.05 107.08,215.22 107.07,216.4C107.06,217.58 107.04,218.75 107.02,219.93C107,221.11 106.98,222.28 106.96,223.46C106.94,224.64 106.91,225.81 106.88,226.99C106.85,228.17 106.81,229.35 106.78,230.53C106.75,231.71 106.71,232.88 106.68,234.06C106.65,235.24 106.61,236.41 106.58,237.59C106.54,238.77 106.51,239.94 106.47,241.12C106.43,242.3 106.39,243.47 106.36,244.65C106.33,245.83 106.3,247.01 106.28,248.19C106.26,249.37 106.25,250.54 106.25,251.72C106.25,252.9 106.27,254.07 106.31,255.25C106.35,256.43 106.41,257.6 106.47,258.78C106.53,259.96 106.61,261.14 106.69,262.32C106.77,263.5 106.86,264.67 106.93,265.85C107,267.03 107.06,268.2 107.11,269.38C107.15,270.56 107.19,271.73 107.2,272.91C107.21,274.09 107.19,275.26 107.17,276.44C107.15,277.62 107.11,278.8 107.07,279.98C107.03,281.16 106.98,282.33 106.94,283.51C106.9,284.69 106.85,285.86 106.81,287.04C106.78,288.22 106.75,289.39 106.73,290.57C106.71,291.75 106.7,292.93 106.69,294.11C106.68,295.29 106.68,296.46 106.67,297.64C106.66,298.82 106.65,299.99 106.62,301.17C106.59,302.35 106.55,303.52 106.5,304.7C106.45,305.88 106.39,307.05 106.32,308.23C106.25,309.41 106.15,310.59 106.06,311.77C105.97,312.95 105.86,314.12 105.76,315.3C105.66,316.48 105.55,317.65 105.44,318.83C105.33,320.01 105.22,321.18 105.1,322.36C104.98,323.54 104.86,324.71 104.73,325.89C104.6,327.07 104.46,328.25 104.32,329.43C104.18,330.61 104.03,331.78 103.89,332.96C103.75,334.14 103.61,335.31 103.49,336.49C103.37,337.67 103.26,338.84 103.18,340.02C103.09,341.2 103.03,342.38 102.98,343.56C102.93,344.74 102.9,345.91 102.87,347.09C102.84,348.27 102.82,349.44 102.78,350.62C102.73,351.8 102.68,352.97 102.6,354.15C102.51,355.33 102.41,356.5 102.27,357.68C102.13,358.86 101.97,360.04 101.77,361.22C101.57,362.4 101.35,363.58 101.07,364.75C100.79,365.93 100.5,367.11 100.11,368.28C99.72,369.47 99.29,370.65 98.73,371.81C98.15,373.01 97.48,374.21 96.67,375.35C95.81,376.57 94.79,377.75 93.65,378.88C92.41,380.11 90.97,381.28 89.44,382.41C87.77,383.64 85.91,384.8 83.99,385.94C81.95,387.16 79.73,388.31 77.53,389.47C75.28,390.66 72.9,391.82 70.64,393.01C68.43,394.18 66.15,395.31 64.13,396.54C62.26,397.67 60.37,398.8 58.91,400.07C57.65,401.17 56.39,402.33 55.76,403.6C55.21,404.71 54.92,405.98 55.08,407.13C55.24,408.34 56.01,409.56 56.84,410.67C57.78,411.94 59.21,413.07 60.6,414.2C62.13,415.44 63.93,416.58 65.69,417.73C67.52,418.93 69.48,420.08 71.37,421.26C73.26,422.44 75.2,423.61 77.05,424.8C78.85,425.96 80.64,427.12 82.31,428.33C83.91,429.48 85.46,430.65 86.88,431.86C88.22,433 89.49,434.18 90.62,435.39C91.68,436.53 92.66,437.71 93.5,438.92C94.3,440.07 94.99,441.26 95.58,442.46C96.15,443.62 96.61,444.8 97.01,445.99C97.4,447.15 97.69,448.34 97.96,449.52C98.23,450.69 98.43,451.87 98.61,453.05C98.79,454.23 98.93,455.41 99.04,456.59C99.15,457.77 99.24,458.94 99.28,460.12C99.32,461.3 99.33,462.47 99.29,463.65C99.25,464.83 99.15,466.01 99.02,467.18C98.89,468.36 98.71,469.54 98.5,470.71C98.29,471.89 98.03,473.07 97.78,474.25C97.53,475.43 97.25,476.6 97,477.78C96.75,478.96 96.5,480.13 96.3,481.31C96.1,482.48 95.92,483.66 95.78,484.84C95.65,486.02 95.55,487.2 95.49,488.38C95.43,489.56 95.4,490.73 95.4,491.91C95.4,493.09 95.43,494.26 95.46,495.44C95.49,496.62 95.54,497.79 95.6,498.97C95.66,500.15 95.72,501.32 95.81,502.5C95.9,503.68 96,504.86 96.12,506.04C96.25,507.22 96.39,508.39 96.56,509.57C96.73,510.75 96.93,511.92 97.12,513.1C97.32,514.28 97.53,515.45 97.73,516.63C97.93,517.81 98.14,518.98 98.34,520.16C98.54,521.34 98.73,522.52 98.94,523.7C99.15,524.88 99.35,526.06 99.58,527.23C99.81,528.41 100.06,529.59 100.34,530.76C100.62,531.94 100.95,533.12 101.28,534.29C101.62,535.47 101.99,536.65 102.35,537.83C102.71,539.01 103.1,540.18 103.45,541.36C103.8,542.53 104.15,543.71 104.45,544.89C104.75,546.06 105.03,547.24 105.27,548.42C105.51,549.59 105.71,550.77 105.89,551.95C106.07,553.13 106.22,554.31 106.36,555.49C106.5,556.67 106.62,557.84 106.73,559.02C106.84,560.2 106.94,561.37 107.03,562.55C107.12,563.73 107.21,564.9 107.29,566.08C107.37,567.26 107.44,568.44 107.51,569.62C107.57,570.8 107.63,571.97 107.68,573.15C107.73,574.33 107.77,575.5 107.81,576.68C107.85,577.86 107.88,579.03 107.9,580.21Q107.92,581.39 107.95,583.74Z" style="vector-effect: non-scaling-stroke; stroke-width: 2px; stroke: rgb(239, 85, 59); stroke-opacity: 1; fill: rgb(239, 85, 59); fill-opacity: 0.5;"/><path class="violin" d="M324.01,559.89Q324.02,558.39 324.03,557.64C324.04,556.89 324.04,556.14 324.05,555.39C324.06,554.64 324.06,553.89 324.07,553.14C324.08,552.39 324.08,551.63 324.09,550.88C324.1,550.13 324.11,549.38 324.12,548.63C324.13,547.88 324.14,547.13 324.15,546.38C324.16,545.63 324.17,544.87 324.18,544.12C324.19,543.37 324.21,542.62 324.23,541.87C324.25,541.12 324.27,540.37 324.3,539.62C324.33,538.87 324.37,538.12 324.41,537.37C324.45,536.62 324.5,535.86 324.55,535.11C324.6,534.36 324.66,533.61 324.71,532.86C324.77,532.11 324.83,531.36 324.88,530.61C324.94,529.86 324.99,529.1 325.04,528.35C325.09,527.6 325.13,526.85 325.17,526.1C325.21,525.35 325.24,524.6 325.27,523.85C325.3,523.1 325.33,522.35 325.36,521.6C325.39,520.85 325.4,520.09 325.43,519.34C325.46,518.59 325.49,517.84 325.52,517.09C325.56,516.34 325.6,515.59 325.64,514.84C325.69,514.09 325.73,513.33 325.79,512.58C325.84,511.83 325.91,511.08 325.97,510.33C326.03,509.58 326.1,508.83 326.17,508.08C326.24,507.33 326.3,506.58 326.37,505.83C326.44,505.08 326.5,504.32 326.57,503.57C326.64,502.82 326.71,502.07 326.78,501.32C326.86,500.57 326.93,499.82 327.02,499.07C327.11,498.32 327.2,497.57 327.32,496.82C327.44,496.07 327.57,495.31 327.73,494.56C327.89,493.81 328.08,493.06 328.3,492.31C328.52,491.56 328.79,490.81 329.06,490.06C329.34,489.3 329.65,488.55 329.96,487.8C330.27,487.05 330.6,486.3 330.92,485.55C331.24,484.8 331.57,484.05 331.86,483.3C332.15,482.55 332.43,481.8 332.68,481.05C332.93,480.3 333.15,479.54 333.38,478.79C333.61,478.04 333.81,477.29 334.05,476.54C334.29,475.79 334.53,475.03 334.82,474.29C335.12,473.53 335.44,472.77 335.82,472.03C336.21,471.27 336.66,470.52 337.16,469.78C337.68,469.01 338.28,468.27 338.9,467.53C339.55,466.77 340.27,466.02 340.99,465.28C341.73,464.52 342.53,463.78 343.29,463.02C344.04,462.27 344.83,461.54 345.51,460.77C346.15,460.04 346.81,459.3 347.26,458.52C347.68,457.79 348.05,457.03 348.19,456.26C348.32,455.52 348.28,454.75 348.12,454.01C347.96,453.25 347.57,452.5 347.2,451.76C346.82,450.99 346.28,450.27 345.84,449.51C345.41,448.76 344.92,448.02 344.59,447.25C344.28,446.52 343.99,445.76 343.91,445C343.83,444.26 343.88,443.48 344.08,442.75C344.29,441.98 344.71,441.21 345.21,440.49C345.77,439.7 346.53,438.95 347.35,438.24C348.26,437.44 349.35,436.71 350.48,435.99C351.71,435.2 353.1,434.48 354.48,433.74C355.92,432.97 357.48,432.24 358.95,431.48C360.4,430.73 361.92,430.02 363.25,429.23C364.47,428.51 365.71,427.79 366.66,426.98C367.48,426.28 368.25,425.53 368.72,424.72C369.13,424.01 369.35,423.23 369.45,422.47C369.55,421.73 369.39,420.97 369.32,420.22C369.25,419.47 369.05,418.72 369.01,417.97C368.97,417.22 368.94,416.46 369.05,415.71C369.16,414.95 369.38,414.2 369.66,413.46C369.95,412.7 370.36,411.95 370.78,411.21C371.21,410.45 371.74,409.7 372.23,408.95C372.72,408.2 373.28,407.46 373.74,406.7C374.18,405.96 374.68,405.22 374.93,404.45C375.17,403.72 375.38,402.93 375.25,402.2C375.11,401.42 374.63,400.63 374.01,399.94C373.24,399.09 372.01,398.38 370.77,397.69C369.28,396.86 367.44,396.16 365.61,395.44C363.6,394.65 361.35,393.93 359.2,393.18C357.02,392.42 354.73,391.7 352.6,390.93C350.58,390.2 348.56,389.47 346.74,388.68C345.1,387.96 343.52,387.24 342.16,386.43C340.97,385.72 339.86,384.98 338.98,384.17C338.21,383.46 337.54,382.71 337.08,381.92C336.67,381.21 336.39,380.43 336.27,379.67C336.15,378.93 336.21,378.16 336.32,377.41C336.43,376.65 336.71,375.91 336.94,375.16C337.18,374.41 337.52,373.67 337.74,372.91C337.96,372.17 338.2,371.42 338.28,370.66C338.36,369.91 338.35,369.14 338.21,368.4C338.07,367.64 337.77,366.88 337.42,366.15C337.06,365.38 336.55,364.64 336.06,363.9C335.55,363.14 334.95,362.4 334.41,361.65C333.87,360.9 333.3,360.15 332.8,359.39C332.32,358.65 331.84,357.91 331.47,357.14C331.11,356.4 330.8,355.65 330.58,354.89C330.37,354.15 330.23,353.39 330.18,352.63C330.13,351.88 330.17,351.13 330.25,350.38C330.33,349.63 330.5,348.88 330.65,348.13C330.8,347.38 331.01,346.63 331.15,345.88C331.29,345.13 331.45,344.37 331.51,343.62C331.57,342.87 331.58,342.12 331.51,341.37C331.44,340.62 331.29,339.86 331.1,339.12C330.91,338.36 330.64,337.61 330.37,336.86C330.1,336.11 329.77,335.36 329.49,334.61C329.21,333.86 328.93,333.11 328.68,332.36C328.44,331.61 328.21,330.86 328.02,330.11C327.83,329.36 327.67,328.6 327.53,327.85C327.39,327.1 327.27,326.35 327.17,325.6C327.07,324.85 326.99,324.1 326.91,323.35C326.83,322.6 326.77,321.84 326.71,321.09C326.65,320.34 326.61,319.59 326.57,318.84C326.53,318.09 326.5,317.34 326.46,316.59C326.42,315.84 326.38,315.09 326.34,314.34C326.29,313.59 326.25,312.83 326.19,312.08C326.14,311.33 326.07,310.58 326.01,309.83C325.95,309.08 325.88,308.33 325.82,307.58C325.76,306.83 325.71,306.07 325.67,305.32C325.63,304.57 325.61,303.82 325.6,303.07C325.59,302.32 325.61,301.57 325.63,300.82C325.65,300.07 325.7,299.32 325.74,298.57C325.79,297.82 325.84,297.06 325.9,296.31C325.95,295.56 326.01,294.81 326.07,294.06C326.12,293.31 326.19,292.56 326.23,291.81C326.27,291.06 326.31,290.3 326.33,289.55C326.35,288.8 326.36,288.05 326.35,287.3C326.34,286.55 326.29,285.8 326.24,285.05C326.18,284.3 326.11,283.55 326.02,282.8C325.93,282.05 325.81,281.29 325.7,280.54C325.59,279.79 325.46,279.04 325.34,278.29C325.22,277.54 325.09,276.79 324.99,276.04C324.88,275.29 324.79,274.53 324.71,273.78C324.63,273.03 324.56,272.28 324.51,271.53C324.46,270.78 324.43,270.03 324.4,269.28C324.37,268.53 324.36,267.78 324.35,267.03C324.34,266.28 324.35,265.52 324.35,264.77C324.35,264.02 324.36,263.27 324.36,262.52C324.36,261.77 324.36,261.02 324.36,260.27C324.36,259.52 324.36,258.76 324.35,258.01C324.35,257.26 324.34,256.51 324.33,255.76C324.32,255.01 324.3,254.26 324.29,253.51C324.28,252.76 324.26,252.01 324.25,251.26C324.24,250.51 324.23,249.75 324.22,249C324.21,248.25 324.2,247.5 324.2,246.75C324.2,246 324.21,245.25 324.22,244.5C324.23,243.75 324.24,242.99 324.26,242.24C324.28,241.49 324.31,240.74 324.34,239.99C324.37,239.24 324.41,238.49 324.45,237.74C324.49,236.99 324.54,236.24 324.58,235.49C324.63,234.74 324.67,233.98 324.72,233.23C324.76,232.48 324.81,231.73 324.85,230.98C324.88,230.23 324.91,229.48 324.93,228.73C324.95,227.98 324.95,227.23 324.95,226.48C324.95,225.73 324.93,224.97 324.91,224.22C324.89,223.47 324.86,222.72 324.83,221.97C324.8,221.22 324.77,220.47 324.74,219.72C324.71,218.97 324.69,218.21 324.67,217.46C324.65,216.71 324.63,215.96 324.63,215.21C324.63,214.46 324.63,213.71 324.64,212.96C324.65,212.21 324.68,211.46 324.7,210.71C324.73,209.96 324.75,209.2 324.79,208.45C324.82,207.7 324.87,206.95 324.91,206.2C324.95,205.45 324.99,204.7 325.02,203.95C325.05,203.2 325.08,202.44 325.09,201.69C325.1,200.94 325.11,200.19 325.1,199.44C325.09,198.69 325.07,197.94 325.04,197.19C325.01,196.44 324.96,195.69 324.92,194.94C324.88,194.19 324.82,193.43 324.78,192.68C324.74,191.93 324.7,191.18 324.66,190.43C324.62,189.68 324.58,188.93 324.56,188.18C324.53,187.43 324.52,186.67 324.51,185.92C324.5,185.17 324.49,184.42 324.48,183.67C324.47,182.92 324.47,182.17 324.46,181.42C324.45,180.67 324.45,179.92 324.44,179.17C324.43,178.42 324.43,177.66 324.42,176.91C324.42,176.16 324.41,175.41 324.41,174.66C324.41,173.91 324.4,173.16 324.4,172.41C324.4,171.66 324.4,170.9 324.41,170.15C324.42,169.4 324.43,168.65 324.45,167.9C324.47,167.15 324.49,166.4 324.51,165.65C324.53,164.9 324.57,164.15 324.59,163.4C324.62,162.65 324.64,161.89 324.66,161.14C324.68,160.39 324.7,159.64 324.71,158.89C324.72,158.14 324.73,157.39 324.73,156.64C324.73,155.89 324.73,155.13 324.72,154.38C324.71,153.63 324.69,152.88 324.67,152.13C324.65,151.38 324.64,150.63 324.62,149.88C324.6,149.13 324.58,148.38 324.57,147.63C324.55,146.88 324.54,146.12 324.53,145.37C324.52,144.62 324.51,143.87 324.5,143.12C324.49,142.37 324.48,141.62 324.47,140.87C324.46,140.12 324.45,139.36 324.43,138.61C324.41,137.86 324.39,137.11 324.37,136.36C324.35,135.61 324.33,134.86 324.31,134.11C324.29,133.36 324.27,132.61 324.26,131.86C324.25,131.11 324.24,130.35 324.24,129.6C324.24,128.85 324.24,128.1 324.25,127.35C324.26,126.6 324.28,125.85 324.3,125.1C324.32,124.35 324.35,123.59 324.37,122.84C324.39,122.09 324.42,121.34 324.44,120.59C324.46,119.84 324.48,119.09 324.49,118.34C324.5,117.59 324.51,116.84 324.51,116.09C324.51,115.34 324.51,114.58 324.5,113.83C324.49,113.08 324.47,112.33 324.46,111.58C324.44,110.83 324.42,110.08 324.41,109.33C324.4,108.58 324.39,107.82 324.38,107.07C324.37,106.32 324.36,105.57 324.36,104.82C324.36,104.07 324.37,103.32 324.38,102.57C324.39,101.82 324.4,101.07 324.41,100.32C324.42,99.57 324.44,98.81 324.46,98.06C324.48,97.31 324.49,96.56 324.51,95.81C324.53,95.06 324.54,94.31 324.56,93.56C324.58,92.81 324.6,92.06 324.61,91.31C324.62,90.56 324.63,89.8 324.64,89.05C324.65,88.3 324.65,87.55 324.65,86.8C324.65,86.05 324.64,85.3 324.63,84.55C324.62,83.8 324.59,83.04 324.57,82.29C324.55,81.54 324.52,80.79 324.5,80.04C324.48,79.29 324.46,78.54 324.44,77.79C324.42,77.04 324.4,76.29 324.39,75.54C324.38,74.79 324.38,74.03 324.38,73.28C324.38,72.53 324.39,71.78 324.4,71.03C324.41,70.28 324.44,69.53 324.46,68.78C324.48,68.03 324.51,67.27 324.54,66.52C324.57,65.77 324.6,65.02 324.63,64.27C324.66,63.52 324.7,62.77 324.72,62.02C324.74,61.27 324.76,60.52 324.77,59.77C324.78,59.02 324.77,58.26 324.76,57.51C324.75,56.76 324.72,56.01 324.69,55.26C324.66,54.51 324.6,53.76 324.56,53.01C324.51,52.26 324.47,51.5 324.42,50.75C324.37,50 324.32,49.25 324.28,48.5C324.24,47.75 324.2,47 324.17,46.25Q324.14,45.5 324.09,44L323.91,44Q323.86,45.5 323.83,46.25C323.8,47 323.76,47.75 323.72,48.5C323.68,49.25 323.63,50 323.58,50.75C323.53,51.5 323.49,52.26 323.44,53.01C323.4,53.76 323.34,54.51 323.31,55.26C323.28,56.01 323.25,56.76 323.24,57.51C323.23,58.26 323.22,59.02 323.23,59.77C323.24,60.52 323.26,61.27 323.28,62.02C323.3,62.77 323.34,63.52 323.37,64.27C323.4,65.02 323.43,65.77 323.46,66.52C323.49,67.27 323.52,68.03 323.54,68.78C323.56,69.53 323.59,70.28 323.6,71.03C323.61,71.78 323.62,72.53 323.62,73.28C323.62,74.03 323.62,74.79 323.61,75.54C323.6,76.29 323.58,77.04 323.56,77.79C323.54,78.54 323.52,79.29 323.5,80.04C323.48,80.79 323.45,81.54 323.43,82.29C323.41,83.04 323.38,83.8 323.37,84.55C323.36,85.3 323.35,86.05 323.35,86.8C323.35,87.55 323.35,88.3 323.36,89.05C323.37,89.8 323.38,90.56 323.39,91.31C323.4,92.06 323.42,92.81 323.44,93.56C323.46,94.31 323.47,95.06 323.49,95.81C323.51,96.56 323.52,97.31 323.54,98.06C323.56,98.81 323.58,99.57 323.59,100.32C323.6,101.07 323.61,101.82 323.62,102.57C323.63,103.32 323.64,104.07 323.64,104.82C323.64,105.57 323.63,106.32 323.62,107.07C323.61,107.82 323.6,108.58 323.59,109.33C323.58,110.08 323.56,110.83 323.54,111.58C323.53,112.33 323.51,113.08 323.5,113.83C323.49,114.58 323.49,115.34 323.49,116.09C323.49,116.84 323.5,117.59 323.51,118.34C323.52,119.09 323.54,119.84 323.56,120.59C323.58,121.34 323.61,122.09 323.63,122.84C323.65,123.59 323.68,124.35 323.7,125.1C323.72,125.85 323.74,126.6 323.75,127.35C323.76,128.1 323.76,128.85 323.76,129.6C323.76,130.35 323.75,131.11 323.74,131.86C323.73,132.61 323.71,133.36 323.69,134.11C323.67,134.86 323.65,135.61 323.63,136.36C323.61,137.11 323.59,137.86 323.57,138.61C323.55,139.36 323.54,140.12 323.53,140.87C323.52,141.62 323.51,142.37 323.5,143.12C323.49,143.87 323.48,144.62 323.47,145.37C323.46,146.12 323.45,146.88 323.43,147.63C323.42,148.38 323.4,149.13 323.38,149.88C323.36,150.63 323.35,151.38 323.33,152.13C323.31,152.88 323.29,153.63 323.28,154.38C323.27,155.13 323.27,155.89 323.27,156.64C323.27,157.39 323.28,158.14 323.29,158.89C323.3,159.64 323.32,160.39 323.34,161.14C323.36,161.89 323.38,162.65 323.41,163.4C323.43,164.15 323.47,164.9 323.49,165.65C323.51,166.4 323.53,167.15 323.55,167.9C323.57,168.65 323.58,169.4 323.59,170.15C323.6,170.9 323.6,171.66 323.6,172.41C323.6,173.16 323.59,173.91 323.59,174.66C323.59,175.41 323.58,176.16 323.58,176.91C323.57,177.66 323.57,178.42 323.56,179.17C323.55,179.92 323.55,180.67 323.54,181.42C323.53,182.17 323.53,182.92 323.52,183.67C323.51,184.42 323.5,185.17 323.49,185.92C323.48,186.67 323.47,187.43 323.44,188.18C323.42,188.93 323.38,189.68 323.34,190.43C323.3,191.18 323.26,191.93 323.22,192.68C323.18,193.43 323.12,194.19 323.08,194.94C323.04,195.69 322.99,196.44 322.96,197.19C322.93,197.94 322.91,198.69 322.9,199.44C322.89,200.19 322.9,200.94 322.91,201.69C322.92,202.44 322.95,203.2 322.98,203.95C323.01,204.7 323.05,205.45 323.09,206.2C323.13,206.95 323.18,207.7 323.21,208.45C323.25,209.2 323.27,209.96 323.3,210.71C323.32,211.46 323.35,212.21 323.36,212.96C323.37,213.71 323.37,214.46 323.37,215.21C323.37,215.96 323.35,216.71 323.33,217.46C323.31,218.21 323.29,218.97 323.26,219.72C323.23,220.47 323.2,221.22 323.17,221.97C323.14,222.72 323.11,223.47 323.09,224.22C323.07,224.97 323.05,225.73 323.05,226.48C323.05,227.23 323.05,227.98 323.07,228.73C323.09,229.48 323.12,230.23 323.15,230.98C323.19,231.73 323.24,232.48 323.28,233.23C323.33,233.98 323.37,234.74 323.42,235.49C323.46,236.24 323.51,236.99 323.55,237.74C323.59,238.49 323.63,239.24 323.66,239.99C323.69,240.74 323.72,241.49 323.74,242.24C323.76,242.99 323.77,243.75 323.78,244.5C323.79,245.25 323.8,246 323.8,246.75C323.8,247.5 323.79,248.25 323.78,249C323.77,249.75 323.76,250.51 323.75,251.26C323.74,252.01 323.72,252.76 323.71,253.51C323.7,254.26 323.68,255.01 323.67,255.76C323.66,256.51 323.65,257.26 323.65,258.01C323.64,258.76 323.64,259.52 323.64,260.27C323.64,261.02 323.64,261.77 323.64,262.52C323.64,263.27 323.65,264.02 323.65,264.77C323.65,265.52 323.66,266.28 323.65,267.03C323.64,267.78 323.63,268.53 323.6,269.28C323.57,270.03 323.54,270.78 323.49,271.53C323.44,272.28 323.37,273.03 323.29,273.78C323.21,274.53 323.12,275.29 323.01,276.04C322.91,276.79 322.78,277.54 322.66,278.29C322.54,279.04 322.41,279.79 322.3,280.54C322.19,281.29 322.07,282.05 321.98,282.8C321.89,283.55 321.82,284.3 321.76,285.05C321.71,285.8 321.66,286.55 321.65,287.3C321.64,288.05 321.65,288.8 321.67,289.55C321.69,290.3 321.73,291.06 321.77,291.81C321.81,292.56 321.88,293.31 321.93,294.06C321.99,294.81 322.05,295.56 322.1,296.31C322.16,297.06 322.21,297.82 322.26,298.57C322.3,299.32 322.35,300.07 322.37,300.82C322.39,301.57 322.41,302.32 322.4,303.07C322.39,303.82 322.37,304.57 322.33,305.32C322.29,306.07 322.24,306.83 322.18,307.58C322.12,308.33 322.05,309.08 321.99,309.83C321.93,310.58 321.86,311.33 321.81,312.08C321.75,312.83 321.71,313.59 321.66,314.34C321.62,315.09 321.58,315.84 321.54,316.59C321.5,317.34 321.47,318.09 321.43,318.84C321.39,319.59 321.35,320.34 321.29,321.09C321.23,321.84 321.17,322.6 321.09,323.35C321.01,324.1 320.93,324.85 320.83,325.6C320.73,326.35 320.61,327.1 320.47,327.85C320.33,328.6 320.17,329.36 319.98,330.11C319.79,330.86 319.56,331.61 319.32,332.36C319.07,333.11 318.79,333.86 318.51,334.61C318.23,335.36 317.9,336.11 317.63,336.86C317.36,337.61 317.09,338.36 316.9,339.12C316.71,339.86 316.56,340.62 316.49,341.37C316.42,342.12 316.43,342.87 316.49,343.62C316.55,344.37 316.71,345.13 316.85,345.88C316.99,346.63 317.2,347.38 317.35,348.13C317.5,348.88 317.67,349.63 317.75,350.38C317.83,351.13 317.87,351.88 317.82,352.63C317.77,353.39 317.63,354.15 317.42,354.89C317.2,355.65 316.89,356.4 316.53,357.14C316.16,357.91 315.68,358.65 315.2,359.39C314.7,360.15 314.13,360.9 313.59,361.65C313.05,362.4 312.45,363.14 311.94,363.9C311.45,364.64 310.94,365.38 310.58,366.15C310.23,366.88 309.93,367.64 309.79,368.4C309.65,369.14 309.64,369.91 309.72,370.66C309.8,371.42 310.04,372.17 310.26,372.91C310.48,373.67 310.82,374.41 311.06,375.16C311.29,375.91 311.57,376.65 311.68,377.41C311.79,378.16 311.85,378.93 311.73,379.67C311.61,380.43 311.33,381.21 310.92,381.92C310.46,382.71 309.79,383.46 309.02,384.17C308.14,384.98 307.03,385.72 305.84,386.43C304.48,387.24 302.9,387.96 301.26,388.68C299.44,389.47 297.42,390.2 295.4,390.93C293.27,391.7 290.98,392.42 288.8,393.18C286.65,393.93 284.4,394.65 282.39,395.44C280.56,396.16 278.72,396.86 277.23,397.69C275.99,398.38 274.76,399.09 273.99,399.94C273.37,400.63 272.89,401.42 272.75,402.2C272.62,402.93 272.83,403.72 273.07,404.45C273.32,405.22 273.82,405.96 274.26,406.7C274.72,407.46 275.28,408.2 275.77,408.95C276.26,409.7 276.79,410.45 277.22,411.21C277.64,411.95 278.05,412.7 278.34,413.46C278.62,414.2 278.84,414.95 278.95,415.71C279.06,416.46 279.03,417.22 278.99,417.97C278.95,418.72 278.75,419.47 278.68,420.22C278.61,420.97 278.45,421.73 278.55,422.47C278.65,423.23 278.87,424.01 279.28,424.72C279.75,425.53 280.52,426.28 281.34,426.98C282.29,427.79 283.53,428.51 284.75,429.23C286.08,430.02 287.6,430.73 289.05,431.48C290.52,432.24 292.08,432.97 293.52,433.74C294.9,434.48 296.29,435.2 297.52,435.99C298.65,436.71 299.74,437.44 300.65,438.24C301.47,438.95 302.23,439.7 302.79,440.49C303.29,441.21 303.71,441.98 303.92,442.75C304.12,443.48 304.17,444.26 304.09,445C304.01,445.76 303.72,446.52 303.41,447.25C303.08,448.02 302.59,448.76 302.16,449.51C301.72,450.27 301.18,450.99 300.8,451.76C300.43,452.5 300.04,453.25 299.88,454.01C299.72,454.75 299.68,455.52 299.81,456.26C299.95,457.03 300.32,457.79 300.74,458.52C301.19,459.3 301.85,460.04 302.49,460.77C303.17,461.54 303.96,462.27 304.71,463.02C305.47,463.78 306.27,464.52 307.01,465.28C307.73,466.02 308.45,466.77 309.1,467.53C309.72,468.27 310.32,469.01 310.84,469.78C311.34,470.52 311.79,471.27 312.18,472.03C312.56,472.77 312.88,473.53 313.18,474.29C313.47,475.03 313.71,475.79 313.95,476.54C314.19,477.29 314.39,478.04 314.62,478.79C314.85,479.54 315.07,480.3 315.32,481.05C315.57,481.8 315.85,482.55 316.14,483.3C316.43,484.05 316.76,484.8 317.08,485.55C317.4,486.3 317.73,487.05 318.04,487.8C318.35,488.55 318.66,489.3 318.94,490.06C319.21,490.81 319.48,491.56 319.7,492.31C319.92,493.06 320.11,493.81 320.27,494.56C320.43,495.31 320.56,496.07 320.68,496.82C320.8,497.57 320.89,498.32 320.98,499.07C321.07,499.82 321.14,500.57 321.22,501.32C321.29,502.07 321.36,502.82 321.43,503.57C321.5,504.32 321.56,505.08 321.63,505.83C321.7,506.58 321.76,507.33 321.83,508.08C321.9,508.83 321.97,509.58 322.03,510.33C322.09,511.08 322.16,511.83 322.21,512.58C322.27,513.33 322.31,514.09 322.36,514.84C322.4,515.59 322.44,516.34 322.48,517.09C322.51,517.84 322.54,518.59 322.57,519.34C322.6,520.09 322.61,520.85 322.64,521.6C322.67,522.35 322.7,523.1 322.73,523.85C322.76,524.6 322.79,525.35 322.83,526.1C322.87,526.85 322.91,527.6 322.96,528.35C323.01,529.1 323.06,529.86 323.12,530.61C323.17,531.36 323.23,532.11 323.29,532.86C323.34,533.61 323.4,534.36 323.45,535.11C323.5,535.86 323.55,536.62 323.59,537.37C323.63,538.12 323.67,538.87 323.7,539.62C323.73,540.37 323.75,541.12 323.77,541.87C323.79,542.62 323.81,543.37 323.82,544.12C323.83,544.87 323.84,545.63 323.85,546.38C323.86,547.13 323.87,547.88 323.88,548.63C323.89,549.38 323.9,550.13 323.91,550.88C323.92,551.63 323.92,552.39 323.93,553.14C323.94,553.89 323.94,554.64 323.95,555.39C323.96,556.14 323.96,556.89 323.97,557.64Q323.98,558.39 323.99,559.89Z" style="vector-effect: non-scaling-stroke; stroke-width: 2px; stroke: rgb(239, 85, 59); stroke-opacity: 1; fill: rgb(239, 85, 59); fill-opacity: 0.5;"/><path class="violin" d="M540.01,589Q540.02,586.07 540.02,584.61C540.03,583.14 540.03,581.68 540.04,580.21C540.05,578.75 540.07,577.28 540.08,575.82C540.1,574.36 540.11,572.89 540.13,571.43C540.15,569.96 540.18,568.5 540.21,567.03C540.24,565.57 540.27,564.1 540.31,562.64C540.35,561.17 540.4,559.71 540.45,558.24C540.5,556.78 540.57,555.31 540.63,553.85C540.7,552.39 540.77,550.92 540.84,549.46C540.91,547.99 540.99,546.53 541.07,545.06C541.15,543.6 541.24,542.13 541.32,540.67C541.4,539.21 541.48,537.74 541.56,536.28C541.64,534.81 541.71,533.35 541.78,531.88C541.85,530.42 541.9,528.95 541.96,527.49C542.02,526.02 542.07,524.56 542.12,523.09C542.17,521.63 542.22,520.16 542.28,518.7C542.34,517.24 542.4,515.77 542.48,514.31C542.57,512.84 542.66,511.37 542.79,509.91C542.92,508.44 543.07,506.98 543.25,505.52C543.43,504.05 543.65,502.59 543.88,501.13C544.12,499.66 544.38,498.19 544.66,496.73C544.94,495.26 545.24,493.8 545.54,492.34C545.84,490.87 546.15,489.41 546.44,487.94C546.73,486.48 547.02,485.01 547.29,483.55C547.55,482.09 547.81,480.63 548.03,479.16C548.25,477.7 548.45,476.23 548.63,474.76C548.81,473.3 548.96,471.83 549.1,470.37C549.23,468.91 549.34,467.44 549.44,465.98C549.54,464.51 549.61,463.05 549.69,461.58C549.77,460.12 549.83,458.65 549.94,457.19C550.05,455.73 550.15,454.26 550.34,452.8C550.54,451.33 550.76,449.86 551.11,448.4C551.46,446.93 551.89,445.46 552.44,444.01C553,442.52 553.69,441.05 554.47,439.61C555.27,438.12 556.21,436.66 557.19,435.22C558.2,433.74 559.32,432.28 560.45,430.83C561.6,429.35 562.82,427.89 564.01,426.43C565.21,424.96 566.45,423.51 567.62,422.04C568.78,420.59 569.95,419.14 571,417.65C572.02,416.21 573.03,414.75 573.84,413.25C574.62,411.81 575.36,410.35 575.81,408.86C576.25,407.42 576.54,405.93 576.55,404.46C576.56,403 576.3,401.5 575.86,400.07C575.4,398.57 574.61,397.11 573.77,395.68C572.89,394.18 571.76,392.73 570.65,391.28C569.52,389.8 568.23,388.36 567.04,386.89C565.85,385.43 564.62,383.98 563.5,382.5C562.41,381.05 561.35,379.59 560.39,378.1C559.46,376.66 558.59,375.19 557.81,373.71C557.04,372.26 556.37,370.79 555.73,369.31C555.1,367.86 554.54,366.39 554.02,364.92C553.51,363.46 553.05,362 552.63,360.53C552.22,359.07 551.85,357.6 551.53,356.13C551.21,354.67 550.94,353.21 550.69,351.74C550.44,350.28 550.24,348.81 550.03,347.35C549.82,345.88 549.64,344.42 549.44,342.95C549.24,341.49 549.04,340.02 548.83,338.56C548.61,337.1 548.38,335.63 548.15,334.17C547.92,332.7 547.68,331.24 547.45,329.77C547.22,328.31 547,326.85 546.79,325.38C546.58,323.92 546.39,322.45 546.21,320.98C546.03,319.52 545.87,318.05 545.72,316.59C545.57,315.13 545.44,313.66 545.33,312.2C545.21,310.73 545.11,309.27 545.03,307.8C544.95,306.34 544.88,304.87 544.83,303.41C544.78,301.95 544.76,300.48 544.75,299.02C544.74,297.55 544.75,296.09 544.76,294.62C544.77,293.16 544.79,291.69 544.79,290.23C544.79,288.76 544.78,287.3 544.74,285.83C544.7,284.37 544.64,282.9 544.55,281.44C544.46,279.98 544.35,278.51 544.22,277.05C544.09,275.58 543.93,274.12 543.79,272.65C543.65,271.19 543.49,269.72 543.36,268.26C543.23,266.8 543.1,265.33 543,263.87C542.9,262.4 542.81,260.94 542.74,259.47C542.68,258.01 542.63,256.54 542.61,255.08C542.59,253.62 542.58,252.15 542.59,250.69C542.6,249.22 542.63,247.76 542.67,246.29C542.71,244.83 542.77,243.36 542.82,241.9C542.88,240.43 542.94,238.97 543,237.5C543.05,236.04 543.11,234.57 543.15,233.11C543.19,231.65 543.21,230.18 543.22,228.72C543.23,227.25 543.22,225.79 543.2,224.32C543.18,222.86 543.14,221.39 543.11,219.93C543.08,218.47 543.04,217 543.01,215.54C542.98,214.07 542.96,212.61 542.94,211.14C542.92,209.68 542.91,208.21 542.9,206.75C542.89,205.28 542.88,203.82 542.87,202.35C542.86,200.89 542.85,199.42 542.83,197.96C542.81,196.5 542.79,195.03 542.76,193.57C542.73,192.1 542.69,190.64 542.66,189.17C542.63,187.71 542.6,186.24 542.57,184.78C542.54,183.32 542.52,181.85 542.5,180.39C542.48,178.92 542.48,177.46 542.47,175.99C542.46,174.53 542.46,173.06 542.46,171.6C542.46,170.13 542.46,168.67 542.47,167.2C542.48,165.74 542.49,164.27 542.5,162.81C542.51,161.35 542.53,159.88 542.54,158.42C542.55,156.95 542.57,155.49 542.58,154.02C542.59,152.56 542.61,151.09 542.62,149.63C542.63,148.17 542.64,146.7 542.64,145.24C542.64,143.77 542.63,142.31 542.62,140.84C542.61,139.38 542.6,137.91 542.59,136.45C542.58,134.99 542.58,133.52 542.58,132.06C542.58,130.59 542.59,129.13 542.6,127.66C542.61,126.2 542.63,124.73 542.64,123.27C542.66,121.8 542.68,120.34 542.69,118.87C542.7,117.41 542.72,115.94 542.72,114.48C542.72,113.02 542.71,111.55 542.7,110.09C542.69,108.62 542.67,107.16 542.64,105.69C542.61,104.23 542.57,102.76 542.54,101.3C542.5,99.84 542.47,98.37 542.43,96.91C542.39,95.44 542.34,93.98 542.3,92.51C542.26,91.05 542.21,89.58 542.17,88.12C542.13,86.65 542.08,85.19 542.04,83.72C542,82.26 541.96,80.79 541.92,79.33C541.88,77.87 541.84,76.4 541.81,74.94C541.77,73.47 541.75,72.01 541.71,70.54C541.68,69.08 541.64,67.61 541.6,66.15C541.56,64.69 541.52,63.22 541.47,61.76C541.42,60.29 541.36,58.83 541.29,57.36C541.22,55.9 541.14,54.43 541.06,52.97C540.98,51.5 540.89,50.04 540.81,48.57C540.73,47.11 540.65,45.64 540.57,44.18C540.5,42.72 540.42,41.25 540.36,39.79C540.3,38.32 540.25,36.86 540.21,35.39Q540.17,33.93 540.11,31L539.89,31Q539.83,33.93 539.79,35.39C539.75,36.86 539.7,38.32 539.64,39.79C539.58,41.25 539.5,42.72 539.43,44.18C539.35,45.64 539.27,47.11 539.19,48.57C539.11,50.04 539.02,51.5 538.94,52.97C538.86,54.43 538.78,55.9 538.71,57.36C538.64,58.83 538.58,60.29 538.53,61.76C538.48,63.22 538.44,64.69 538.4,66.15C538.36,67.61 538.32,69.08 538.29,70.54C538.25,72.01 538.23,73.47 538.19,74.94C538.16,76.4 538.12,77.87 538.08,79.33C538.04,80.79 538,82.26 537.96,83.72C537.92,85.19 537.87,86.65 537.83,88.12C537.79,89.58 537.74,91.05 537.7,92.51C537.66,93.98 537.61,95.44 537.57,96.91C537.53,98.37 537.5,99.84 537.46,101.3C537.43,102.76 537.39,104.23 537.36,105.69C537.33,107.16 537.31,108.62 537.3,110.09C537.29,111.55 537.28,113.02 537.28,114.48C537.28,115.94 537.3,117.41 537.31,118.87C537.32,120.34 537.34,121.8 537.36,123.27C537.37,124.73 537.39,126.2 537.4,127.66C537.41,129.13 537.42,130.59 537.42,132.06C537.42,133.52 537.42,134.99 537.41,136.45C537.4,137.91 537.39,139.38 537.38,140.84C537.37,142.31 537.36,143.77 537.36,145.24C537.36,146.7 537.37,148.17 537.38,149.63C537.39,151.09 537.41,152.56 537.42,154.02C537.43,155.49 537.45,156.95 537.46,158.42C537.47,159.88 537.49,161.35 537.5,162.81C537.51,164.27 537.52,165.74 537.53,167.2C537.54,168.67 537.54,170.13 537.54,171.6C537.54,173.06 537.54,174.53 537.53,175.99C537.52,177.46 537.52,178.92 537.5,180.39C537.48,181.85 537.46,183.32 537.43,184.78C537.4,186.24 537.37,187.71 537.34,189.17C537.31,190.64 537.27,192.1 537.24,193.57C537.21,195.03 537.19,196.5 537.17,197.96C537.15,199.42 537.14,200.89 537.13,202.35C537.12,203.82 537.11,205.28 537.1,206.75C537.09,208.21 537.08,209.68 537.06,211.14C537.04,212.61 537.02,214.07 536.99,215.54C536.96,217 536.92,218.47 536.89,219.93C536.86,221.39 536.82,222.86 536.8,224.32C536.78,225.79 536.77,227.25 536.78,228.72C536.79,230.18 536.81,231.65 536.85,233.11C536.89,234.57 536.95,236.04 537,237.5C537.06,238.97 537.12,240.43 537.18,241.9C537.23,243.36 537.29,244.83 537.33,246.29C537.37,247.76 537.4,249.22 537.41,250.69C537.42,252.15 537.41,253.62 537.39,255.08C537.37,256.54 537.32,258.01 537.26,259.47C537.19,260.94 537.1,262.4 537,263.87C536.9,265.33 536.77,266.8 536.64,268.26C536.51,269.72 536.35,271.19 536.21,272.65C536.07,274.12 535.91,275.58 535.78,277.05C535.65,278.51 535.54,279.98 535.45,281.44C535.36,282.9 535.3,284.37 535.26,285.83C535.22,287.3 535.21,288.76 535.21,290.23C535.21,291.69 535.23,293.16 535.24,294.62C535.25,296.09 535.26,297.55 535.25,299.02C535.24,300.48 535.22,301.95 535.17,303.41C535.12,304.87 535.05,306.34 534.97,307.8C534.89,309.27 534.79,310.73 534.67,312.2C534.56,313.66 534.43,315.13 534.28,316.59C534.13,318.05 533.97,319.52 533.79,320.98C533.61,322.45 533.42,323.92 533.21,325.38C533,326.85 532.78,328.31 532.55,329.77C532.32,331.24 532.08,332.7 531.85,334.17C531.62,335.63 531.39,337.1 531.17,338.56C530.96,340.02 530.76,341.49 530.56,342.95C530.36,344.42 530.18,345.88 529.97,347.35C529.76,348.81 529.56,350.28 529.31,351.74C529.06,353.21 528.79,354.67 528.47,356.13C528.15,357.6 527.78,359.07 527.37,360.53C526.95,362 526.49,363.46 525.98,364.92C525.46,366.39 524.9,367.86 524.27,369.31C523.63,370.79 522.96,372.26 522.19,373.71C521.41,375.19 520.54,376.66 519.61,378.1C518.65,379.59 517.59,381.05 516.5,382.5C515.38,383.98 514.15,385.43 512.96,386.89C511.77,388.36 510.48,389.8 509.35,391.28C508.24,392.73 507.11,394.18 506.23,395.68C505.39,397.11 504.6,398.57 504.14,400.07C503.7,401.5 503.44,403 503.45,404.46C503.46,405.93 503.75,407.42 504.19,408.86C504.64,410.35 505.38,411.81 506.16,413.25C506.97,414.75 507.98,416.21 509,417.65C510.05,419.14 511.22,420.59 512.38,422.04C513.55,423.51 514.79,424.96 515.99,426.43C517.18,427.89 518.4,429.35 519.55,430.83C520.68,432.28 521.8,433.74 522.81,435.22C523.79,436.66 524.73,438.12 525.53,439.61C526.31,441.05 527,442.52 527.56,444.01C528.11,445.46 528.54,446.93 528.89,448.4C529.24,449.86 529.46,451.33 529.66,452.8C529.85,454.26 529.95,455.73 530.06,457.19C530.17,458.65 530.23,460.12 530.31,461.58C530.39,463.05 530.46,464.51 530.56,465.98C530.66,467.44 530.77,468.91 530.9,470.37C531.04,471.83 531.19,473.3 531.37,474.76C531.55,476.23 531.75,477.7 531.97,479.16C532.19,480.63 532.45,482.09 532.71,483.55C532.98,485.01 533.27,486.48 533.56,487.94C533.85,489.41 534.16,490.87 534.46,492.34C534.76,493.8 535.06,495.26 535.34,496.73C535.62,498.19 535.88,499.66 536.12,501.13C536.35,502.59 536.57,504.05 536.75,505.52C536.93,506.98 537.08,508.44 537.21,509.91C537.34,511.37 537.43,512.84 537.52,514.31C537.6,515.77 537.66,517.24 537.72,518.7C537.78,520.16 537.83,521.63 537.88,523.09C537.93,524.56 537.98,526.02 538.04,527.49C538.1,528.95 538.15,530.42 538.22,531.88C538.29,533.35 538.36,534.81 538.44,536.28C538.52,537.74 538.6,539.21 538.68,540.67C538.76,542.13 538.85,543.6 538.93,545.06C539.01,546.53 539.09,547.99 539.16,549.46C539.23,550.92 539.3,552.39 539.37,553.85C539.43,555.31 539.5,556.78 539.55,558.24C539.6,559.71 539.65,561.17 539.69,562.64C539.73,564.1 539.76,565.57 539.79,567.03C539.82,568.5 539.85,569.96 539.87,571.43C539.89,572.89 539.9,574.36 539.92,575.82C539.93,577.28 539.95,578.75 539.96,580.21C539.97,581.68 539.97,583.14 539.98,584.61Q539.98,586.07 539.99,589Z" style="vector-effect: non-scaling-stroke; stroke-width: 2px; stroke: rgb(239, 85, 59); stroke-opacity: 1; fill: rgb(239, 85, 59); fill-opacity: 0.5;"/><path class="box" d="M94.77,409.55H121.23M94.77,449.23H121.23V397.92H94.77ZM108,449.23V525.67M108,397.92V321.63" style="vector-effect: non-scaling-stroke; stroke-width: 2px; stroke: rgb(239, 85, 59); stroke-opacity: 1; fill: rgb(239, 85, 59); fill-opacity: 0.5;"/><path class="box" d="M310.77,412.45H337.23M310.77,437.69H337.23V397.92H310.77ZM324,437.69V496.97M324,397.92V339.95" style="vector-effect: non-scaling-stroke; stroke-width: 2px; stroke: rgb(239, 85, 59); stroke-opacity: 1; fill: rgb(239, 85, 59); fill-opacity: 0.5;"/><path class="box" d="M526.77,397.98H553.23M526.77,420.9H553.23V341.26H526.77ZM540,420.9V540.02M540,341.26V221.79" style="vector-effect: non-scaling-stroke; stroke-width: 2px; stroke: rgb(239, 85, 59); stroke-opacity: 1; fill: rgb(239, 85, 59); fill-opacity: 0.5;"/><path class="mean" d="M94.77,412.73H121.23" style="fill: none; vector-effect: non-scaling-stroke; stroke-width: 2px; stroke-dasharray: 4px, 2px; stroke: rgb(239, 85, 59); stroke-opacity: 1;"/><path class="mean" d="M310.77,406.46H337.23" style="fill: none; vector-effect: non-scaling-stroke; stroke-width: 2px; stroke-dasharray: 4px, 2px; stroke: rgb(239, 85, 59); stroke-opacity: 1;"/><path class="mean" d="M526.77,367.56H553.23" style="fill: none; vector-effect: non-scaling-stroke; stroke-width: 2px; stroke-dasharray: 4px, 2px; stroke: rgb(239, 85, 59); stroke-opacity: 1;"/></g></g></g><g class="overplot"/><path class="xlines-above crisp" d="M0,0" style="fill: none;"/><path class="ylines-above crisp" d="M0,0" style="fill: none;"/><g class="overlines-above"/><g class="xaxislayer-above"><g class="x2tick"><text text-anchor="middle" x="0" y="733" transform="translate(980.0000000000001,0)" style="font-family: 'Open Sans', verdana, arial, sans-serif; font-size: 12px; fill: rgb(42, 63, 95); fill-opacity: 1; white-space: pre; opacity: 1;">&#60;=1</text></g><g class="x2tick"><text text-anchor="middle" x="0" y="733" transform="translate(1196,0)" style="font-family: 'Open Sans', verdana, arial, sans-serif; font-size: 12px; fill: rgb(42, 63, 95); fill-opacity: 1; white-space: pre; opacity: 1;">(1, 2]</text></g><g class="x2tick"><text text-anchor="middle" x="0" y="733" transform="translate(1412,0)" style="font-family: 'Open Sans', verdana, arial, sans-serif; font-size: 12px; fill: rgb(42, 63, 95); fill-opacity: 1; white-space: pre; opacity: 1;">>2</text></g></g><g class="yaxislayer-above"><g class="y2tick"><text text-anchor="end" x="871.0000000000001" y="4.199999999999999" transform="translate(0,668.1)" style="font-family: 'Open Sans', verdana, arial, sans-serif; font-size: 12px; fill: rgb(42, 63, 95); fill-opacity: 1; white-space: pre; opacity: 1;">0</text></g><g class="y2tick"><text text-anchor="end" x="871.0000000000001" y="4.199999999999999" style="font-family: 'Open Sans', verdana, arial, sans-serif; font-size: 12px; fill: rgb(42, 63, 95); fill-opacity: 1; white-space: pre; opacity: 1;" transform="translate(0,554.65)">20</text></g><g class="y2tick"><text text-anchor="end" x="871.0000000000001" y="4.199999999999999" style="font-family: 'Open Sans', verdana, arial, sans-serif; font-size: 12px; fill: rgb(42, 63, 95); fill-opacity: 1; white-space: pre; opacity: 1;" transform="translate(0,441.2)">40</text></g><g class="y2tick"><text text-anchor="end" x="871.0000000000001" y="4.199999999999999" style="font-family: 'Open Sans', verdana, arial, sans-serif; font-size: 12px; fill: rgb(42, 63, 95); fill-opacity: 1; white-space: pre; opacity: 1;" transform="translate(0,327.75)">60</text></g><g class="y2tick"><text text-anchor="end" x="871.0000000000001" y="4.199999999999999" style="font-family: 'Open Sans', verdana, arial, sans-serif; font-size: 12px; fill: rgb(42, 63, 95); fill-opacity: 1; white-space: pre; opacity: 1;" transform="translate(0,214.3)">80</text></g><g class="y2tick"><text text-anchor="end" x="871.0000000000001" y="4.199999999999999" style="font-family: 'Open Sans', verdana, arial, sans-serif; font-size: 12px; fill: rgb(42, 63, 95); fill-opacity: 1; white-space: pre; opacity: 1;" transform="translate(0,100.85)">100</text></g></g><g class="overaxes-above"/></g></g><g class="polarlayer"/><g class="smithlayer"/><g class="ternarylayer"/><g class="geolayer"/><g class="funnelarealayer"/><g class="pielayer"/><g class="iciclelayer"/><g class="treemaplayer"/><g class="sunburstlayer"/><g class="glimages"/><defs id="topdefs-d857bb"><g class="clips"/></defs><g class="layer-above"><g class="imagelayer"/><g class="shapelayer"/></g><g class="infolayer"><g class="g-gtitle"><text class="gtitle" x="80" y="50" text-anchor="start" dy="0em" style="font-family: 'Open Sans', verdana, arial, sans-serif; font-size: 17px; fill: rgb(42, 63, 95); opacity: 1; font-weight: normal; white-space: pre;">original_price Distributions</text></g><g class="g-xtitle"><text class="xtitle" x="404" y="761.8" text-anchor="middle" style="font-family: 'Open Sans', verdana, arial, sans-serif; font-size: 14px; fill: rgb(42, 63, 95); opacity: 1; font-weight: normal; white-space: pre;">Hardcover over Paperback</text></g><g class="g-x2title"><text class="x2title" x="1196" y="761.8" text-anchor="middle" style="font-family: 'Open Sans', verdana, arial, sans-serif; font-size: 14px; fill: rgb(42, 63, 95); opacity: 1; font-weight: normal; white-space: pre;">Hardcover over Paperback</text></g><g class="g-ytitle"><text class="ytitle" transform="rotate(-90,40.465625,410)" x="40.465625" y="410" text-anchor="middle" style="font-family: 'Open Sans', verdana, arial, sans-serif; font-size: 14px; fill: rgb(42, 63, 95); opacity: 1; font-weight: normal; white-space: pre;">original_price</text></g><g class="g-y2title"><text class="y2title" transform="rotate(-90,825.60625,410)" x="825.60625" y="410" text-anchor="middle" style="font-family: 'Open Sans', verdana, arial, sans-serif; font-size: 14px; fill: rgb(42, 63, 95); opacity: 1; font-weight: normal; white-space: pre;">original_price</text></g><g class="annotation" data-index="0" style="opacity: 1;"><g class="annotation-text-g" transform="rotate(0,404,87)"><g class="cursor-pointer" transform="translate(363,74)"><rect class="bg" x="0.5" y="0.5" width="82" height="25" style="stroke-width: 1px; stroke: rgb(0, 0, 0); stroke-opacity: 0; fill: rgb(0, 0, 0); fill-opacity: 0;"/><text class="annotation-text" text-anchor="middle" x="41.296875" y="19" style="font-family: 'Open Sans', verdana, arial, sans-serif; font-size: 16px; fill: rgb(42, 63, 95); fill-opacity: 1; white-space: pre;">Paperback</text></g></g></g><g class="annotation" data-index="1" style="opacity: 1;"><g class="annotation-text-g" transform="rotate(0,1196,87)"><g class="cursor-pointer" transform="translate(1155,74)"><rect class="bg" x="0.5" y="0.5" width="81" height="25" style="stroke-width: 1px; stroke: rgb(0, 0, 0); stroke-opacity: 0; fill: rgb(0, 0, 0); fill-opacity: 0;"/><text class="annotation-text" text-anchor="middle" x="40.921875" y="19" style="font-family: 'Open Sans', verdana, arial, sans-serif; font-size: 16px; fill: rgb(42, 63, 95); fill-opacity: 1; white-space: pre;">Hardcover</text></g></g></g></g></svg>