<svg class="main-svg" xmlns="http://www.w3.org/2000/svg" xmlns:xlink="http://www.w3.org/1999/xlink" width="1600" height="800" style="" viewBox="0 0 1600 800"><rect x="0" y="0" width="1600" height="800" style="fill: rgb(255, 255, 255); fill-opacity: 1;"/><defs id="defs-b2ea9f"><g class="clips"><clipPath id="clipb2ea9fxyplot" class="plotclip"><rect width="648" height="620"/></clipPath><clipPath id="clipb2ea9fx2y2plot" class="plotclip"><rect width="647.9999999999999" height="620"/></clipPath><clipPath class="axesclip" id="clipb2ea9fx"><rect x="80" y="0" width="648" height="800"/></clipPath><clipPath class="axesclip" id="clipb2ea9fy"><rect x="0" y="100" width="1600" height="620"/></clipPath><clipPath class="axesclip" id="clipb2ea9fxy"><rect x="80" y="100" width="648" height="620"/></clipPath><clipPath class="axesclip" id="clipb2ea9fy2"><rect x="0" y="100" width="1600" height="620"/></clipPath><clipPath class="axesclip" id="clipb2ea9fxy2"><rect x="80" y="100" width="648" height="620"/></clipPath><clipPath class="axesclip" id="clipb2ea9fx2"><rect x="872.0000000000001" y="0" width="647.9999999999999" height="800"/></clipPath><clipPath class="axesclip" id="clipb2ea9fx2y"><rect x="872.0000000000001" y="100" width="647.9999999999999" height="620"/></clipPath><clipPath class="axesclip" id="clipb2ea9fx2y2"><rect x="872.0000000000001" y="100" width="647.9999999999999" height="620"/></clipPath></g><g class="gradients"/><g class="patterns"/></defs><g class="bglayer"><rect class="bg" x="80" y="100" width="648" height="620" style="fill: rgb(229, 236, 246); fill-opacity: 1; stroke-width: 0;"/><rect class="bg" x="872.0000000000001" y="100" width="647.9999999999999" height="620" style="fill: rgb(229, 236, 246); fill-opacity: 1; stroke-width: 0;"/></g><g class="layer-below"><g class="imagelayer"/><g class="shapelayer"/></g><g class="cartesianlayer"><g class="subplot xy"><g class="layer-subplot"><g class="shapelayer"/><g class="imagelayer"/></g><g class="minor-gridlayer"><g class="x"/><g class="y"/></g><g class="gridlayer"><g class="x"/><g class="y"><path class="ygrid crisp" transform="translate(0,593.8199999999999)" d="M80,0h648" style="stroke: rgb(255, 255, 255); stroke-opacity: 1; stroke-width: 1px;"/><path class="ygrid crisp" transform="translate(0,462.52)" d="M80,0h648" style="stroke: rgb(255, 255, 255); stroke-opacity: 1; stroke-width: 1px;"/><path class="ygrid crisp" transform="translate(0,331.22)" d="M80,0h648" style="stroke: rgb(255, 255, 255); stroke-opacity: 1; stroke-width: 1px;"/><path class="ygrid crisp" transform="translate(0,199.92000000000002)" d="M80,0h648" style="stroke: rgb(255, 255, 255); stroke-opacity: 1; stroke-width: 1px;"/></g></g><g class="zerolinelayer"/><path class="xlines-below"/><path class="ylines-below"/><g class="overlines-below"/><g class="xaxislayer-below"/><g class="yaxislayer-below"/><g class="overaxes-below"/><g class="plot" transform="translate(80,100)" clip-path="url(#clipb2ea9fxyplot)"><g class="violinlayer mlayer"><g class="trace violins" style="opacity: 1;"><path class="violin" d="M108.39,589Q108.59,581.41 108.75,577.61C108.91,573.81 109.1,570.01 109.34,566.22C109.58,562.42 109.85,558.63 110.18,554.84C110.51,551.04 110.89,547.24 111.3,543.45C111.71,539.65 112.17,535.85 112.64,532.06C113.12,528.26 113.63,524.47 114.15,520.67C114.66,516.88 115.21,513.08 115.73,509.29C116.26,505.49 116.8,501.7 117.3,497.9C117.8,494.1 118.29,490.31 118.74,486.51C119.19,482.72 119.61,478.92 119.98,475.12C120.35,471.33 120.68,467.53 120.94,463.73C121.2,459.94 121.4,456.15 121.55,452.35C121.69,448.56 121.78,444.76 121.81,440.96C121.84,437.16 121.8,433.37 121.75,429.57C121.7,425.77 121.58,421.98 121.48,418.18C121.38,414.39 121.24,410.59 121.15,406.8C121.05,403 120.95,399.21 120.91,395.41C120.87,391.61 120.87,387.82 120.93,384.02C120.99,380.22 121.1,376.43 121.28,372.63C121.46,368.83 121.71,365.03 121.99,361.24C122.27,357.44 122.62,353.65 122.98,349.86C123.34,346.06 123.75,342.27 124.15,338.47C124.55,334.67 124.98,330.88 125.39,327.08C125.8,323.28 126.21,319.49 126.6,315.69C126.99,311.9 127.37,308.11 127.73,304.31C128.08,300.52 128.42,296.72 128.73,292.92C129.04,289.12 129.33,285.33 129.61,281.53C129.89,277.73 130.13,273.94 130.39,270.14C130.64,266.35 130.89,262.55 131.14,258.76C131.39,254.96 131.63,251.17 131.9,247.37C132.17,243.57 132.45,239.78 132.75,235.98C133.05,232.18 133.38,228.39 133.72,224.59C134.06,220.79 134.43,217 134.79,213.2C135.15,209.41 135.55,205.61 135.9,201.82C136.25,198.02 136.62,194.23 136.91,190.43C137.19,186.64 137.47,182.84 137.61,179.04C137.75,175.25 137.84,171.44 137.74,167.65C137.64,163.85 137.42,160.05 137.01,156.27C136.59,152.46 136,148.66 135.24,144.88C134.47,141.07 133.48,137.27 132.39,133.49C131.28,129.67 129.96,125.88 128.63,122.1C127.29,118.29 125.79,114.51 124.36,110.71C122.94,106.92 121.43,103.14 120.08,99.33C118.74,95.55 117.42,91.75 116.27,87.94C115.13,84.16 114.1,80.36 113.22,76.55C112.35,72.77 111.63,68.97 111.03,65.16C110.43,61.38 109.98,57.58 109.61,53.78C109.24,49.99 109,46.19 108.79,42.39Q108.58,38.6 108.35,31L107.65,31Q107.42,38.6 107.21,42.39C107,46.19 106.76,49.99 106.39,53.78C106.02,57.58 105.57,61.38 104.97,65.16C104.37,68.97 103.65,72.77 102.78,76.55C101.9,80.36 100.87,84.16 99.73,87.94C98.58,91.75 97.26,95.55 95.92,99.33C94.57,103.14 93.06,106.92 91.64,110.71C90.21,114.51 88.71,118.29 87.37,122.1C86.04,125.88 84.72,129.67 83.61,133.49C82.52,137.27 81.53,141.07 80.76,144.88C80,148.66 79.41,152.46 78.99,156.27C78.58,160.05 78.36,163.85 78.26,167.65C78.16,171.44 78.25,175.25 78.39,179.04C78.53,182.84 78.81,186.64 79.09,190.43C79.38,194.23 79.75,198.02 80.1,201.82C80.45,205.61 80.85,209.41 81.21,213.2C81.57,217 81.94,220.79 82.28,224.59C82.62,228.39 82.95,232.18 83.25,235.98C83.55,239.78 83.83,243.57 84.1,247.37C84.37,251.17 84.61,254.96 84.86,258.76C85.11,262.55 85.36,266.35 85.61,270.14C85.87,273.94 86.11,277.73 86.39,281.53C86.67,285.33 86.96,289.12 87.27,292.92C87.58,296.72 87.92,300.52 88.27,304.31C88.63,308.11 89.01,311.9 89.4,315.69C89.79,319.49 90.2,323.28 90.61,327.08C91.02,330.88 91.45,334.67 91.85,338.47C92.25,342.27 92.66,346.06 93.02,349.86C93.38,353.65 93.73,357.44 94.01,361.24C94.29,365.03 94.54,368.83 94.72,372.63C94.9,376.43 95.01,380.22 95.07,384.02C95.13,387.82 95.13,391.61 95.09,395.41C95.05,399.21 94.95,403 94.85,406.8C94.76,410.59 94.62,414.39 94.52,418.18C94.42,421.98 94.3,425.77 94.25,429.57C94.2,433.37 94.16,437.16 94.19,440.96C94.22,444.76 94.31,448.56 94.45,452.35C94.6,456.15 94.8,459.94 95.06,463.73C95.32,467.53 95.65,471.33 96.02,475.12C96.39,478.92 96.81,482.72 97.26,486.51C97.71,490.31 98.2,494.1 98.7,497.9C99.2,501.7 99.74,505.49 100.27,509.29C100.79,513.08 101.34,516.88 101.85,520.67C102.37,524.47 102.88,528.26 103.36,532.06C103.83,535.85 104.29,539.65 104.7,543.45C105.11,547.24 105.49,551.04 105.82,554.84C106.15,558.63 106.42,562.42 106.66,566.22C106.9,570.01 107.09,573.81 107.25,577.61Q107.41,581.41 107.61,589Z" style="vector-effect: non-scaling-stroke; stroke-width: 2px; stroke: rgb(99, 110, 250); stroke-opacity: 1; fill: rgb(99, 110, 250); fill-opacity: 0.5;"/><path class="violin" d="M324.25,565.71Q324.38,560.66 324.48,558.13C324.58,555.6 324.69,553.08 324.83,550.55C324.97,548.02 325.13,545.5 325.31,542.97C325.49,540.44 325.7,537.92 325.92,535.39C326.14,532.86 326.38,530.34 326.62,527.81C326.86,525.28 327.11,522.76 327.35,520.23C327.59,517.7 327.84,515.17 328.08,512.64C328.31,510.11 328.54,507.59 328.76,505.06C328.98,502.53 329.19,500.01 329.38,497.48C329.57,494.95 329.74,492.43 329.9,489.9C330.06,487.37 330.2,484.85 330.32,482.32C330.44,479.79 330.54,477.27 330.62,474.74C330.7,472.21 330.76,469.69 330.81,467.16C330.86,464.63 330.89,462.11 330.92,459.58C330.95,457.05 330.98,454.53 331.01,452C331.05,449.47 331.08,446.95 331.13,444.42C331.19,441.89 331.26,439.37 331.34,436.84C331.42,434.31 331.52,431.79 331.62,429.26C331.72,426.73 331.84,424.21 331.94,421.68C332.04,419.15 332.14,416.63 332.23,414.1C332.32,411.57 332.4,409.05 332.47,406.52C332.54,403.99 332.6,401.47 332.65,398.94C332.7,396.41 332.74,393.89 332.78,391.36C332.82,388.83 332.85,386.3 332.9,383.77C332.94,381.24 332.99,378.72 333.05,376.19C333.11,373.66 333.18,371.14 333.26,368.61C333.35,366.08 333.45,363.56 333.56,361.03C333.67,358.5 333.8,355.98 333.93,353.45C334.06,350.92 334.21,348.4 334.36,345.87C334.51,343.34 334.68,340.82 334.85,338.29C335.02,335.76 335.21,333.24 335.39,330.71C335.58,328.18 335.76,325.66 335.96,323.13C336.16,320.6 336.37,318.08 336.58,315.55C336.79,313.02 337.01,310.5 337.24,307.97C337.47,305.44 337.7,302.92 337.95,300.39C338.2,297.86 338.45,295.34 338.72,292.81C338.99,290.28 339.26,287.76 339.57,285.23C339.88,282.7 340.2,280.17 340.56,277.65C340.93,275.12 341.32,272.59 341.76,270.07C342.2,267.54 342.69,265.01 343.22,262.49C343.76,259.96 344.35,257.42 344.97,254.9C345.59,252.37 346.27,249.84 346.95,247.32C347.63,244.79 348.36,242.27 349.06,239.74C349.76,237.21 350.46,234.69 351.15,232.16C351.83,229.63 352.51,227.11 353.17,224.58C353.83,222.05 354.45,219.53 355.11,217C355.77,214.47 356.41,211.94 357.12,209.42C357.83,206.89 358.56,204.35 359.39,201.84C360.23,199.3 361.14,196.77 362.14,194.26C363.16,191.72 364.28,189.19 365.45,186.68C366.63,184.14 367.94,181.63 369.18,179.1C370.41,176.57 371.76,174.07 372.86,171.52C373.94,169.02 375.05,166.5 375.73,163.94C376.39,161.45 376.91,158.89 376.92,156.36C376.93,153.83 376.55,151.25 375.79,148.78C375,146.19 373.66,143.65 372.15,141.2C370.55,138.59 368.46,136.09 366.34,133.62C364.12,131.03 361.57,128.54 359.08,126.03C356.55,123.48 353.85,120.99 351.29,118.45C348.76,115.94 346.18,113.44 343.83,110.87C341.56,108.38 339.34,105.87 337.39,103.29C335.53,100.82 333.8,98.29 332.34,95.71C330.94,93.23 329.74,90.69 328.76,88.13Q327.8,85.64 326.48,80.55L321.52,80.55Q320.2,85.64 319.24,88.13C318.26,90.69 317.06,93.23 315.66,95.71C314.2,98.29 312.47,100.82 310.61,103.29C308.66,105.87 306.44,108.38 304.17,110.87C301.82,113.44 299.24,115.94 296.71,118.45C294.15,120.99 291.45,123.48 288.92,126.03C286.43,128.54 283.88,131.03 281.66,133.62C279.54,136.09 277.45,138.59 275.85,141.2C274.34,143.65 273,146.19 272.21,148.78C271.45,151.25 271.07,153.83 271.08,156.36C271.09,158.89 271.61,161.45 272.27,163.94C272.95,166.5 274.06,169.02 275.14,171.52C276.24,174.07 277.59,176.57 278.82,179.1C280.06,181.63 281.37,184.14 282.55,186.68C283.72,189.19 284.84,191.72 285.86,194.26C286.86,196.77 287.77,199.3 288.61,201.84C289.44,204.35 290.17,206.89 290.88,209.42C291.59,211.94 292.23,214.47 292.89,217C293.55,219.53 294.17,222.05 294.83,224.58C295.49,227.11 296.17,229.63 296.85,232.16C297.54,234.69 298.24,237.21 298.94,239.74C299.64,242.27 300.37,244.79 301.05,247.32C301.73,249.84 302.41,252.37 303.03,254.9C303.65,257.42 304.24,259.96 304.78,262.49C305.31,265.01 305.8,267.54 306.24,270.07C306.68,272.59 307.07,275.12 307.44,277.65C307.8,280.17 308.12,282.7 308.43,285.23C308.74,287.76 309.01,290.28 309.28,292.81C309.55,295.34 309.8,297.86 310.05,300.39C310.3,302.92 310.53,305.44 310.76,307.97C310.99,310.5 311.21,313.02 311.42,315.55C311.63,318.08 311.84,320.6 312.04,323.13C312.24,325.66 312.42,328.18 312.61,330.71C312.79,333.24 312.98,335.76 313.15,338.29C313.32,340.82 313.49,343.34 313.64,345.87C313.79,348.4 313.94,350.92 314.07,353.45C314.2,355.98 314.33,358.5 314.44,361.03C314.55,363.56 314.65,366.08 314.74,368.61C314.82,371.14 314.89,373.66 314.95,376.19C315.01,378.72 315.06,381.24 315.1,383.77C315.15,386.3 315.18,388.83 315.22,391.36C315.26,393.89 315.3,396.41 315.35,398.94C315.4,401.47 315.46,403.99 315.53,406.52C315.6,409.05 315.68,411.57 315.77,414.1C315.86,416.63 315.96,419.15 316.06,421.68C316.16,424.21 316.28,426.73 316.38,429.26C316.48,431.79 316.58,434.31 316.66,436.84C316.74,439.37 316.81,441.89 316.87,444.42C316.92,446.95 316.95,449.47 316.99,452C317.02,454.53 317.05,457.05 317.08,459.58C317.11,462.11 317.14,464.63 317.19,467.16C317.24,469.69 317.3,472.21 317.38,474.74C317.46,477.27 317.56,479.79 317.68,482.32C317.8,484.85 317.94,487.37 318.1,489.9C318.26,492.43 318.43,494.95 318.62,497.48C318.81,500.01 319.02,502.53 319.24,505.06C319.46,507.59 319.69,510.11 319.92,512.64C320.16,515.17 320.41,517.7 320.65,520.23C320.89,522.76 321.14,525.28 321.38,527.81C321.62,530.34 321.86,532.86 322.08,535.39C322.3,537.92 322.51,540.44 322.69,542.97C322.87,545.5 323.03,548.02 323.17,550.55C323.31,553.08 323.42,555.6 323.52,558.13Q323.62,560.66 323.75,565.71Z" style="vector-effect: non-scaling-stroke; stroke-width: 2px; stroke: rgb(99, 110, 250); stroke-opacity: 1; fill: rgb(99, 110, 250); fill-opacity: 0.5;"/><path class="violin" d="M540.35,556.29Q540.53,552.28 540.66,550.28C540.78,548.28 540.93,546.28 541.1,544.28C541.27,542.28 541.47,540.27 541.67,538.27C541.87,536.27 542.11,534.26 542.32,532.26C542.53,530.26 542.75,528.25 542.95,526.25C543.14,524.25 543.33,522.25 543.49,520.25C543.65,518.25 543.79,516.24 543.91,514.24C544.03,512.24 544.12,510.23 544.21,508.23C544.3,506.23 544.37,504.23 544.43,502.23C544.5,500.23 544.54,498.22 544.6,496.22C544.66,494.22 544.71,492.21 544.78,490.21C544.84,488.21 544.92,486.21 544.99,484.21C545.07,482.21 545.14,480.2 545.23,478.2C545.32,476.2 545.41,474.19 545.51,472.19C545.61,470.19 545.71,468.18 545.82,466.18C545.93,464.18 546.04,462.18 546.15,460.18C546.26,458.18 546.38,456.17 546.49,454.17C546.6,452.17 546.71,450.16 546.81,448.16C546.91,446.16 547,444.16 547.09,442.16C547.18,440.16 547.25,438.15 547.33,436.15C547.4,434.15 547.47,432.14 547.54,430.14C547.61,428.14 547.68,426.13 547.76,424.13C547.84,422.13 547.92,420.13 548.01,418.13C548.1,416.13 548.2,414.12 548.31,412.12C548.42,410.12 548.53,408.11 548.65,406.11C548.77,404.11 548.91,402.11 549.03,400.11C549.16,398.11 549.28,396.1 549.4,394.1C549.51,392.1 549.62,390.09 549.72,388.09C549.82,386.09 549.91,384.08 550,382.08C550.09,380.08 550.17,378.08 550.26,376.08C550.35,374.08 550.43,372.07 550.53,370.07C550.63,368.07 550.73,366.06 550.85,364.06C550.97,362.06 551.1,360.06 551.25,358.06C551.4,356.06 551.56,354.05 551.73,352.05C551.9,350.05 552.1,348.04 552.29,346.04C552.48,344.04 552.68,342.04 552.88,340.04C553.08,338.04 553.29,336.03 553.49,334.03C553.69,332.03 553.89,330.02 554.09,328.02C554.29,326.02 554.49,324.01 554.68,322.01C554.87,320.01 555.06,318.01 555.24,316.01C555.43,314.01 555.61,312 555.79,310C555.97,308 556.14,305.99 556.32,303.99C556.5,301.99 556.69,299.99 556.89,297.99C557.09,295.99 557.3,293.98 557.54,291.98C557.78,289.98 558.04,287.97 558.33,285.97C558.62,283.96 558.93,281.96 559.28,279.96C559.63,277.96 560.01,275.96 560.42,273.96C560.83,271.95 561.27,269.95 561.72,267.95C562.17,265.94 562.65,263.94 563.13,261.94C563.61,259.94 564.12,257.94 564.61,255.94C565.1,253.94 565.61,251.93 566.09,249.93C566.57,247.93 567.05,245.92 567.51,243.92C567.96,241.92 568.42,239.92 568.82,237.92C569.22,235.92 569.59,233.92 569.93,231.91C570.26,229.91 570.55,227.9 570.83,225.9C571.11,223.9 571.34,221.89 571.59,219.89C571.84,217.89 572.06,215.89 572.32,213.89C572.59,211.89 572.86,209.88 573.18,207.88C573.51,205.87 573.85,203.87 574.27,201.87C574.69,199.86 575.16,197.86 575.71,195.87C576.26,193.86 576.88,191.85 577.57,189.86C578.27,187.85 579.05,185.84 579.87,183.85C580.7,181.84 581.63,179.84 582.55,177.84C583.47,175.83 584.47,173.85 585.38,171.84C586.28,169.84 587.25,167.86 587.99,165.83C588.71,163.85 589.42,161.84 589.78,159.82C590.13,157.84 590.33,155.81 590.17,153.82C590.01,151.81 589.52,149.77 588.8,147.81C588.04,145.76 586.89,143.75 585.65,141.8C584.34,139.74 582.72,137.75 581.07,135.79C579.35,133.75 577.43,131.77 575.51,129.79C573.54,127.76 571.44,125.78 569.37,123.78C567.29,121.77 565.13,119.78 563.05,117.77C561,115.78 558.91,113.8 556.98,111.77C555.11,109.8 553.26,107.81 551.62,105.76C550.05,103.8 548.57,101.8 547.32,99.75C546.12,97.79 545.08,95.78 544.22,93.75C543.39,91.78 542.75,89.76 542.22,87.74C541.7,85.75 541.36,83.74 541.07,81.73C540.78,79.73 540.63,77.72 540.48,75.72C540.34,73.72 540.27,71.72 540.2,69.72Q540.13,67.72 540.08,63.71L539.92,63.71Q539.87,67.72 539.8,69.72C539.73,71.72 539.66,73.72 539.52,75.72C539.37,77.72 539.22,79.73 538.93,81.73C538.64,83.74 538.3,85.75 537.78,87.74C537.25,89.76 536.61,91.78 535.78,93.75C534.92,95.78 533.88,97.79 532.68,99.75C531.43,101.8 529.95,103.8 528.38,105.76C526.74,107.81 524.89,109.8 523.02,111.77C521.09,113.8 519,115.78 516.95,117.77C514.87,119.78 512.71,121.77 510.63,123.78C508.56,125.78 506.46,127.76 504.49,129.79C502.57,131.77 500.65,133.75 498.93,135.79C497.28,137.75 495.66,139.74 494.35,141.8C493.11,143.75 491.96,145.76 491.2,147.81C490.48,149.77 489.99,151.81 489.83,153.82C489.67,155.81 489.87,157.84 490.22,159.82C490.58,161.84 491.29,163.85 492.01,165.83C492.75,167.86 493.72,169.84 494.62,171.84C495.53,173.85 496.53,175.83 497.45,177.84C498.37,179.84 499.3,181.84 500.13,183.85C500.95,185.84 501.73,187.85 502.43,189.86C503.12,191.85 503.74,193.86 504.29,195.87C504.84,197.86 505.31,199.86 505.73,201.87C506.15,203.87 506.49,205.87 506.82,207.88C507.14,209.88 507.41,211.89 507.68,213.89C507.94,215.89 508.16,217.89 508.41,219.89C508.66,221.89 508.89,223.9 509.17,225.9C509.45,227.9 509.74,229.91 510.07,231.91C510.41,233.92 510.78,235.92 511.18,237.92C511.58,239.92 512.04,241.92 512.49,243.92C512.95,245.92 513.43,247.93 513.91,249.93C514.39,251.93 514.9,253.94 515.39,255.94C515.88,257.94 516.39,259.94 516.87,261.94C517.35,263.94 517.83,265.94 518.28,267.95C518.73,269.95 519.17,271.95 519.58,273.96C519.99,275.96 520.37,277.96 520.72,279.96C521.07,281.96 521.38,283.96 521.67,285.97C521.96,287.97 522.22,289.98 522.46,291.98C522.7,293.98 522.91,295.99 523.11,297.99C523.31,299.99 523.5,301.99 523.68,303.99C523.86,305.99 524.03,308 524.21,310C524.39,312 524.57,314.01 524.76,316.01C524.94,318.01 525.13,320.01 525.32,322.01C525.51,324.01 525.71,326.02 525.91,328.02C526.11,330.02 526.31,332.03 526.51,334.03C526.71,336.03 526.92,338.04 527.12,340.04C527.32,342.04 527.52,344.04 527.71,346.04C527.9,348.04 528.1,350.05 528.27,352.05C528.44,354.05 528.6,356.06 528.75,358.06C528.9,360.06 529.03,362.06 529.15,364.06C529.27,366.06 529.37,368.07 529.47,370.07C529.57,372.07 529.65,374.08 529.74,376.08C529.83,378.08 529.91,380.08 530,382.08C530.09,384.08 530.18,386.09 530.28,388.09C530.38,390.09 530.49,392.1 530.6,394.1C530.72,396.1 530.84,398.11 530.97,400.11C531.09,402.11 531.23,404.11 531.35,406.11C531.47,408.11 531.58,410.12 531.69,412.12C531.8,414.12 531.9,416.13 531.99,418.13C532.08,420.13 532.16,422.13 532.24,424.13C532.32,426.13 532.39,428.14 532.46,430.14C532.53,432.14 532.6,434.15 532.67,436.15C532.75,438.15 532.82,440.16 532.91,442.16C533,444.16 533.09,446.16 533.19,448.16C533.29,450.16 533.4,452.17 533.51,454.17C533.62,456.17 533.74,458.18 533.85,460.18C533.96,462.18 534.07,464.18 534.18,466.18C534.29,468.18 534.39,470.19 534.49,472.19C534.59,474.19 534.68,476.2 534.77,478.2C534.86,480.2 534.93,482.21 535.01,484.21C535.08,486.21 535.16,488.21 535.22,490.21C535.29,492.21 535.34,494.22 535.4,496.22C535.46,498.22 535.5,500.23 535.57,502.23C535.63,504.23 535.7,506.23 535.79,508.23C535.88,510.23 535.97,512.24 536.09,514.24C536.21,516.24 536.35,518.25 536.51,520.25C536.67,522.25 536.86,524.25 537.05,526.25C537.25,528.25 537.47,530.26 537.68,532.26C537.89,534.26 538.13,536.27 538.33,538.27C538.53,540.27 538.73,542.28 538.9,544.28C539.07,546.28 539.22,548.28 539.34,550.28Q539.47,552.28 539.65,556.29Z" style="vector-effect: non-scaling-stroke; stroke-width: 2px; stroke: rgb(99, 110, 250); stroke-opacity: 1; fill: rgb(99, 110, 250); fill-opacity: 0.5;"/><path class="box" d="M94.77,257.48H121.23M94.77,362.52H121.23V178.7H94.77ZM108,362.52V520.08M108,178.7V99.92" style="vector-effect: non-scaling-stroke; stroke-width: 2px; stroke: rgb(99, 110, 250); stroke-opacity: 1; fill: rgb(99, 110, 250); fill-opacity: 0.5;"/><path class="box" d="M310.77,204.96H337.23M310.77,283.74H337.23V152.44H310.77ZM324,283.74V467.56M324,152.44V126.18" style="vector-effect: non-scaling-stroke; stroke-width: 2px; stroke: rgb(99, 110, 250); stroke-opacity: 1; fill: rgb(99, 110, 250); fill-opacity: 0.5;"/><path class="box" d="M526.77,204.96H553.23M526.77,283.74H553.23V152.44H526.77ZM540,283.74V467.56M540,152.44V99.92" style="vector-effect: non-scaling-stroke; stroke-width: 2px; stroke: rgb(99, 110, 250); stroke-opacity: 1; fill: rgb(99, 110, 250); fill-opacity: 0.5;"/><path class="mean" d="M94.77,273.63H121.23" style="fill: none; vector-effect: non-scaling-stroke; stroke-width: 2px; stroke-dasharray: 4px, 2px; stroke: rgb(99, 110, 250); stroke-opacity: 1;"/><path class="mean" d="M310.77,233.96H337.23" style="fill: none; vector-effect: non-scaling-stroke; stroke-width: 2px; stroke-dasharray: 4px, 2px; stroke: rgb(99, 110, 250); stroke-opacity: 1;"/><path class="mean" d="M526.77,239.71H553.23" style="fill: none; vector-effect: non-scaling-stroke; stroke-width: 2px; stroke-dasharray: 4px, 2px; stroke: rgb(99, 110, 250); stroke-opacity: 1;"/></g></g></g><g class="overplot"/><path class="xlines-above crisp" d="M0,0" style="fill: none;"/><path class="ylines-above crisp" d="M0,0" style="fill: none;"/><g class="overlines-above"/><g class="xaxislayer-above"><g class="xtick"><text text-anchor="middle" x="0" y="733" transform="translate(188,0)" style="font-family: 'Open Sans', verdana, arial, sans-serif; font-size: 12px; fill: rgb(42, 63, 95); fill-opacity: 1; white-space: pre; opacity: 1;">&#60;=1</text></g><g class="xtick"><text text-anchor="middle" x="0" y="733" transform="translate(404,0)" style="font-family: 'Open Sans', verdana, arial, sans-serif; font-size: 12px; fill: rgb(42, 63, 95); fill-opacity: 1; white-space: pre; opacity: 1;">(1, 2]</text></g><g class="xtick"><text text-anchor="middle" x="0" y="733" transform="translate(620,0)" style="font-family: 'Open Sans', verdana, arial, sans-serif; font-size: 12px; fill: rgb(42, 63, 95); fill-opacity: 1; white-space: pre; opacity: 1;">>2</text></g></g><g class="yaxislayer-above"><g class="ytick"><text text-anchor="end" x="79" y="4.199999999999999" transform="translate(0,593.8199999999999)" style="font-family: 'Open Sans', verdana, arial, sans-serif; font-size: 12px; fill: rgb(42, 63, 95); fill-opacity: 1; white-space: pre; opacity: 1;">2010</text></g><g class="ytick"><text text-anchor="end" x="79" y="4.199999999999999" style="font-family: 'Open Sans', verdana, arial, sans-serif; font-size: 12px; fill: rgb(42, 63, 95); fill-opacity: 1; white-space: pre; opacity: 1;" transform="translate(0,462.52)">2015</text></g><g class="ytick"><text text-anchor="end" x="79" y="4.199999999999999" style="font-family: 'Open Sans', verdana, arial, sans-serif; font-size: 12px; fill: rgb(42, 63, 95); fill-opacity: 1; white-space: pre; opacity: 1;" transform="translate(0,331.22)">2020</text></g><g class="ytick"><text text-anchor="end" x="79" y="4.199999999999999" style="font-family: 'Open Sans', verdana, arial, sans-serif; font-size: 12px; fill: rgb(42, 63, 95); fill-opacity: 1; white-space: pre; opacity: 1;" transform="translate(0,199.92000000000002)">2025</text></g></g><g class="overaxes-above"/></g><g class="subplot x2y2"><g class="layer-subplot"><g class="shapelayer"/><g class="imagelayer"/></g><g class="minor-gridlayer"><g class="x2"/><g class="y2"/></g><g class="gridlayer"><g class="x2"/><g class="y2"><path class="y2grid crisp" transform="translate(0,707.91)" d="M872.0000000000001,0h647.9999999999999" style="stroke: rgb(255, 255, 255); stroke-opacity: 1; stroke-width: 1px;"/><path class="y2grid crisp" transform="translate(0,601.51)" d="M872.0000000000001,0h647.9999999999999" style="stroke: rgb(255, 255, 255); stroke-opacity: 1; stroke-width: 1px;"/><path class="y2grid crisp" transform="translate(0,495.12)" d="M872.0000000000001,0h647.9999999999999" style="stroke: rgb(255, 255, 255); stroke-opacity: 1; stroke-width: 1px;"/><path class="y2grid crisp" transform="translate(0,388.72)" d="M872.0000000000001,0h647.9999999999999" style="stroke: rgb(255, 255, 255); stroke-opacity: 1; stroke-width: 1px;"/><path class="y2grid crisp" transform="translate(0,282.33000000000004)" d="M872.0000000000001,0h647.9999999999999" style="stroke: rgb(255, 255, 255); stroke-opacity: 1; stroke-width: 1px;"/><path class="y2grid crisp" transform="translate(0,175.93)" d="M872.0000000000001,0h647.9999999999999" style="stroke: rgb(255, 255, 255); stroke-opacity: 1; stroke-width: 1px;"/></g></g><g class="zerolinelayer"/><path class="xlines-below"/><path class="ylines-below"/><g class="overlines-below"/><g class="xaxislayer-below"/><g class="yaxislayer-below"/><g class="overaxes-below"/><g class="plot" transform="translate(872.0000000000001,100)" clip-path="url(#clipb2ea9fx2y2plot)"><g class="violinlayer mlayer"><g class="trace violins" style="opacity: 1;"><path class="violin" d="M108.4,589Q108.6,581.71 108.75,578.06C108.9,574.41 109.08,570.77 109.29,567.12C109.5,563.47 109.75,559.83 110.02,556.18C110.29,552.53 110.59,548.89 110.89,545.24C111.19,541.59 111.52,537.94 111.82,534.29C112.12,530.64 112.42,527 112.7,523.35C112.97,519.7 113.23,516.06 113.47,512.41C113.71,508.76 113.93,505.12 114.14,501.47C114.35,497.82 114.53,494.18 114.73,490.53C114.93,486.88 115.12,483.24 115.32,479.59C115.52,475.94 115.73,472.3 115.95,468.65C116.17,465 116.41,461.36 116.64,457.71C116.87,454.06 117.11,450.41 117.34,446.76C117.57,443.11 117.8,439.47 118.02,435.82C118.24,432.17 118.45,428.53 118.64,424.88C118.83,421.23 119.01,417.59 119.18,413.94C119.35,410.29 119.52,406.65 119.68,403C119.84,399.35 120,395.71 120.16,392.06C120.33,388.41 120.49,384.77 120.67,381.12C120.85,377.47 121.04,373.83 121.24,370.18C121.44,366.53 121.64,362.89 121.85,359.24C122.06,355.59 122.28,351.94 122.51,348.29C122.74,344.64 122.99,341 123.24,337.35C123.5,333.7 123.76,330.06 124.04,326.41C124.32,322.76 124.62,319.12 124.93,315.47C125.24,311.82 125.57,308.18 125.88,304.53C126.19,300.88 126.51,297.24 126.81,293.59C127.11,289.94 127.4,286.3 127.66,282.65C127.91,279 128.14,275.36 128.34,271.71C128.54,268.06 128.69,264.41 128.84,260.76C128.99,257.11 129.1,253.47 129.23,249.82C129.36,246.17 129.46,242.53 129.61,238.88C129.76,235.23 129.92,231.59 130.13,227.94C130.34,224.29 130.59,220.64 130.89,217C131.19,213.35 131.54,209.7 131.93,206.06C132.32,202.41 132.77,198.77 133.21,195.12C133.65,191.47 134.15,187.83 134.58,184.18C135.01,180.53 135.47,176.89 135.81,173.24C136.15,169.59 136.47,165.94 136.61,162.29C136.75,158.64 136.81,154.99 136.65,151.35C136.49,147.7 136.17,144.04 135.65,140.41C135.12,136.75 134.38,133.1 133.49,129.47C132.59,125.8 131.46,122.16 130.26,118.53C129.05,114.86 127.64,111.23 126.27,107.59C124.89,103.94 123.4,100.3 122.02,96.65C120.64,93.01 119.23,89.37 117.99,85.71C116.76,82.08 115.6,78.43 114.6,74.76C113.61,71.13 112.75,67.48 112.02,63.82C111.3,60.19 110.73,56.53 110.25,52.88C109.77,49.24 109.45,45.59 109.16,41.94Q108.88,38.3 108.54,31L107.46,31Q107.12,38.3 106.84,41.94C106.55,45.59 106.23,49.24 105.75,52.88C105.27,56.53 104.7,60.19 103.98,63.82C103.25,67.48 102.39,71.13 101.4,74.76C100.4,78.43 99.24,82.08 98.01,85.71C96.77,89.37 95.36,93.01 93.98,96.65C92.6,100.3 91.11,103.94 89.73,107.59C88.36,111.23 86.95,114.86 85.74,118.53C84.54,122.16 83.41,125.8 82.51,129.47C81.62,133.1 80.88,136.75 80.35,140.41C79.83,144.04 79.51,147.7 79.35,151.35C79.19,154.99 79.25,158.64 79.39,162.29C79.53,165.94 79.85,169.59 80.19,173.24C80.53,176.89 80.99,180.53 81.42,184.18C81.85,187.83 82.35,191.47 82.79,195.12C83.23,198.77 83.68,202.41 84.07,206.06C84.46,209.7 84.81,213.35 85.11,217C85.41,220.64 85.66,224.29 85.87,227.94C86.08,231.59 86.24,235.23 86.39,238.88C86.54,242.53 86.64,246.17 86.77,249.82C86.9,253.47 87.01,257.11 87.16,260.76C87.31,264.41 87.46,268.06 87.66,271.71C87.86,275.36 88.09,279 88.34,282.65C88.6,286.3 88.89,289.94 89.19,293.59C89.49,297.24 89.81,300.88 90.12,304.53C90.43,308.18 90.76,311.82 91.07,315.47C91.38,319.12 91.68,322.76 91.96,326.41C92.24,330.06 92.5,333.7 92.76,337.35C93.01,341 93.26,344.64 93.49,348.29C93.72,351.94 93.94,355.59 94.15,359.24C94.36,362.89 94.56,366.53 94.76,370.18C94.96,373.83 95.15,377.47 95.33,381.12C95.51,384.77 95.67,388.41 95.84,392.06C96,395.71 96.16,399.35 96.32,403C96.48,406.65 96.65,410.29 96.82,413.94C96.99,417.59 97.17,421.23 97.36,424.88C97.55,428.53 97.76,432.17 97.98,435.82C98.2,439.47 98.43,443.11 98.66,446.76C98.89,450.41 99.13,454.06 99.36,457.71C99.59,461.36 99.83,465 100.05,468.65C100.27,472.3 100.48,475.94 100.68,479.59C100.88,483.24 101.07,486.88 101.27,490.53C101.47,494.18 101.65,497.82 101.86,501.47C102.07,505.12 102.29,508.76 102.53,512.41C102.77,516.06 103.03,519.7 103.3,523.35C103.58,527 103.88,530.64 104.18,534.29C104.48,537.94 104.81,541.59 105.11,545.24C105.41,548.89 105.71,552.53 105.98,556.18C106.25,559.83 106.5,563.47 106.71,567.12C106.92,570.77 107.1,574.41 107.25,578.06Q107.4,581.71 107.6,589Z" style="vector-effect: non-scaling-stroke; stroke-width: 2px; stroke: rgb(239, 85, 59); stroke-opacity: 1; fill: rgb(239, 85, 59); fill-opacity: 0.5;"/><path class="violin" d="M324.27,566.8Q324.41,561.97 324.51,559.56C324.61,557.15 324.73,554.74 324.87,552.33C325.01,549.92 325.18,547.51 325.35,545.1C325.52,542.69 325.72,540.27 325.91,537.86C326.1,535.45 326.31,533.04 326.5,530.63C326.69,528.22 326.87,525.81 327.03,523.4C327.19,520.99 327.33,518.57 327.44,516.16C327.55,513.75 327.64,511.34 327.7,508.93C327.76,506.52 327.8,504.1 327.82,501.69C327.84,499.28 327.85,496.87 327.85,494.46C327.85,492.05 327.83,489.64 327.82,487.23C327.81,484.82 327.79,482.4 327.79,479.99C327.79,477.58 327.79,475.17 327.8,472.76C327.81,470.35 327.83,467.94 327.87,465.53C327.91,463.12 327.95,460.7 328.02,458.29C328.09,455.88 328.17,453.47 328.27,451.06C328.37,448.65 328.5,446.23 328.63,443.82C328.76,441.41 328.92,439 329.07,436.59C329.22,434.18 329.39,431.77 329.54,429.36C329.69,426.95 329.84,424.53 329.97,422.12C330.1,419.71 330.22,417.3 330.31,414.89C330.4,412.48 330.48,410.07 330.53,407.66C330.59,405.25 330.61,402.83 330.64,400.42C330.67,398.01 330.67,395.6 330.69,393.19C330.71,390.78 330.71,388.36 330.74,385.95C330.76,383.54 330.79,381.13 330.84,378.72C330.89,376.31 330.95,373.9 331.02,371.49C331.1,369.08 331.19,366.66 331.29,364.25C331.39,361.84 331.5,359.43 331.61,357.02C331.72,354.61 331.84,352.2 331.95,349.79C332.06,347.38 332.16,344.96 332.25,342.55C332.34,340.14 332.41,337.73 332.47,335.32C332.53,332.91 332.57,330.49 332.6,328.08C332.63,325.67 332.64,323.26 332.66,320.85C332.68,318.44 332.69,316.03 332.71,313.62C332.74,311.21 332.76,308.79 332.81,306.38C332.86,303.97 332.92,301.56 333.01,299.15C333.1,296.74 333.22,294.33 333.35,291.92C333.49,289.51 333.65,287.09 333.82,284.68C333.99,282.27 334.18,279.86 334.37,277.45C334.56,275.04 334.77,272.62 334.96,270.21C335.15,267.8 335.34,265.39 335.53,262.98C335.72,260.57 335.91,258.16 336.1,255.75C336.29,253.34 336.48,250.92 336.69,248.51C336.9,246.1 337.12,243.69 337.38,241.28C337.64,238.87 337.91,236.46 338.24,234.05C338.57,231.63 338.93,229.22 339.35,226.81C339.77,224.39 340.24,221.98 340.78,219.58C341.32,217.16 341.92,214.74 342.58,212.34C343.25,209.92 343.99,207.51 344.78,205.11C345.58,202.69 346.45,200.28 347.37,197.88C348.3,195.46 349.3,193.04 350.33,190.64C351.36,188.22 352.46,185.81 353.56,183.41C354.67,180.99 355.82,178.59 356.96,176.18C358.1,173.77 359.26,171.35 360.42,168.94C361.58,166.53 362.75,164.12 363.91,161.71C365.07,159.3 366.23,156.89 367.37,154.47C368.51,152.06 369.67,149.66 370.74,147.24C371.81,144.84 372.9,142.44 373.79,140.01C374.67,137.62 375.54,135.21 376.06,132.77C376.57,130.38 376.97,127.95 376.92,125.54C376.87,123.13 376.51,120.67 375.78,118.31C375.01,115.84 373.77,113.41 372.32,111.07C370.77,108.57 368.75,106.19 366.67,103.84C364.47,101.36 361.92,98.98 359.43,96.6C356.88,94.16 354.12,91.79 351.52,89.37C348.94,86.97 346.3,84.6 343.9,82.14C341.58,79.77 339.31,77.38 337.32,74.9C335.43,72.55 333.69,70.14 332.22,67.67C330.82,65.31 329.63,62.89 328.65,60.44Q327.7,58.06 326.41,53.2L321.59,53.2Q320.3,58.06 319.35,60.44C318.37,62.89 317.18,65.31 315.78,67.67C314.31,70.14 312.57,72.55 310.68,74.9C308.69,77.38 306.42,79.77 304.1,82.14C301.7,84.6 299.06,86.97 296.48,89.37C293.88,91.79 291.12,94.16 288.57,96.6C286.08,98.98 283.53,101.36 281.33,103.84C279.25,106.19 277.23,108.57 275.68,111.07C274.23,113.41 272.99,115.84 272.22,118.31C271.49,120.67 271.13,123.13 271.08,125.54C271.03,127.95 271.43,130.38 271.94,132.77C272.46,135.21 273.33,137.62 274.21,140.01C275.1,142.44 276.19,144.84 277.26,147.24C278.33,149.66 279.49,152.06 280.63,154.47C281.77,156.89 282.93,159.3 284.09,161.71C285.25,164.12 286.42,166.53 287.58,168.94C288.74,171.35 289.9,173.77 291.04,176.18C292.18,178.59 293.33,180.99 294.44,183.41C295.54,185.81 296.64,188.22 297.67,190.64C298.7,193.04 299.7,195.46 300.63,197.88C301.55,200.28 302.42,202.69 303.22,205.11C304.01,207.51 304.75,209.92 305.42,212.34C306.08,214.74 306.68,217.16 307.22,219.58C307.76,221.98 308.23,224.39 308.65,226.81C309.07,229.22 309.43,231.63 309.76,234.05C310.09,236.46 310.36,238.87 310.62,241.28C310.88,243.69 311.1,246.1 311.31,248.51C311.52,250.92 311.71,253.34 311.9,255.75C312.09,258.16 312.28,260.57 312.47,262.98C312.66,265.39 312.85,267.8 313.04,270.21C313.23,272.62 313.44,275.04 313.63,277.45C313.82,279.86 314.01,282.27 314.18,284.68C314.35,287.09 314.51,289.51 314.65,291.92C314.78,294.33 314.9,296.74 314.99,299.15C315.08,301.56 315.14,303.97 315.19,306.38C315.24,308.79 315.26,311.21 315.29,313.62C315.31,316.03 315.32,318.44 315.34,320.85C315.36,323.26 315.37,325.67 315.4,328.08C315.43,330.49 315.47,332.91 315.53,335.32C315.59,337.73 315.66,340.14 315.75,342.55C315.84,344.96 315.94,347.38 316.05,349.79C316.16,352.2 316.28,354.61 316.39,357.02C316.5,359.43 316.61,361.84 316.71,364.25C316.81,366.66 316.9,369.08 316.98,371.49C317.05,373.9 317.11,376.31 317.16,378.72C317.21,381.13 317.24,383.54 317.26,385.95C317.29,388.36 317.29,390.78 317.31,393.19C317.33,395.6 317.33,398.01 317.36,400.42C317.39,402.83 317.41,405.25 317.47,407.66C317.52,410.07 317.6,412.48 317.69,414.89C317.78,417.3 317.9,419.71 318.03,422.12C318.16,424.53 318.31,426.95 318.46,429.36C318.61,431.77 318.78,434.18 318.93,436.59C319.08,439 319.24,441.41 319.37,443.82C319.5,446.23 319.63,448.65 319.73,451.06C319.83,453.47 319.91,455.88 319.98,458.29C320.05,460.7 320.09,463.12 320.13,465.53C320.17,467.94 320.19,470.35 320.2,472.76C320.21,475.17 320.21,477.58 320.21,479.99C320.21,482.4 320.19,484.82 320.18,487.23C320.17,489.64 320.15,492.05 320.15,494.46C320.15,496.87 320.16,499.28 320.18,501.69C320.2,504.1 320.24,506.52 320.3,508.93C320.36,511.34 320.45,513.75 320.56,516.16C320.67,518.57 320.81,520.99 320.97,523.4C321.13,525.81 321.31,528.22 321.5,530.63C321.69,533.04 321.9,535.45 322.09,537.86C322.28,540.27 322.48,542.69 322.65,545.1C322.82,547.51 322.99,549.92 323.13,552.33C323.27,554.74 323.39,557.15 323.49,559.56Q323.59,561.97 323.73,566.8Z" style="vector-effect: non-scaling-stroke; stroke-width: 2px; stroke: rgb(239, 85, 59); stroke-opacity: 1; fill: rgb(239, 85, 59); fill-opacity: 0.5;"/><path class="violin" d="M540.2,571.49Q540.31,566.13 540.38,563.45C540.46,560.77 540.54,558.08 540.65,555.4C540.76,552.72 540.89,550.04 541.02,547.36C541.16,544.68 541.31,541.99 541.46,539.31C541.62,536.63 541.79,533.94 541.95,531.26C542.11,528.58 542.27,525.9 542.42,523.22C542.57,520.54 542.72,517.85 542.86,515.17C543,512.49 543.12,509.81 543.24,507.13C543.36,504.45 543.48,501.76 543.59,499.08C543.7,496.4 543.81,493.71 543.92,491.03C544.03,488.35 544.15,485.67 544.27,482.99C544.39,480.31 544.5,477.62 544.63,474.94C544.75,472.26 544.89,469.58 545.02,466.9C545.15,464.22 545.29,461.53 545.42,458.85C545.55,456.17 545.68,453.48 545.82,450.8C545.95,448.12 546.09,445.44 546.23,442.76C546.37,440.08 546.51,437.39 546.65,434.71C546.79,432.03 546.94,429.35 547.09,426.67C547.24,423.99 547.4,421.3 547.56,418.62C547.72,415.94 547.89,413.25 548.05,410.57C548.21,407.89 548.37,405.21 548.53,402.53C548.69,399.85 548.84,397.16 548.99,394.48C549.14,391.8 549.27,389.12 549.41,386.44C549.55,383.76 549.68,381.07 549.81,378.39C549.94,375.71 550.07,373.02 550.2,370.34C550.33,367.66 550.47,364.98 550.6,362.3C550.73,359.62 550.87,356.93 550.99,354.25C551.11,351.57 551.23,348.89 551.33,346.21C551.43,343.53 551.52,340.84 551.6,338.16C551.67,335.48 551.73,332.79 551.78,330.11C551.83,327.43 551.85,324.75 551.88,322.07C551.91,319.39 551.93,316.7 551.97,314.02C552.01,311.34 552.05,308.66 552.13,305.98C552.21,303.3 552.31,300.61 552.45,297.93C552.59,295.25 552.75,292.57 552.96,289.89C553.17,287.21 553.42,284.52 553.69,281.84C553.96,279.16 554.26,276.47 554.57,273.79C554.88,271.11 555.21,268.43 555.53,265.75C555.85,263.07 556.17,260.38 556.48,257.7C556.79,255.02 557.09,252.34 557.37,249.66C557.65,246.98 557.91,244.29 558.17,241.61C558.43,238.93 558.67,236.24 558.93,233.56C559.19,230.88 559.44,228.2 559.72,225.52C560,222.84 560.29,220.15 560.62,217.47C560.95,214.79 561.3,212.11 561.7,209.43C562.1,206.74 562.53,204.06 563.01,201.38C563.49,198.69 564.02,196.01 564.59,193.33C565.16,190.64 565.78,187.97 566.44,185.29C567.1,182.6 567.81,179.92 568.54,177.24C569.27,174.56 570.05,171.88 570.82,169.2C571.59,166.52 572.39,163.83 573.18,161.15C573.96,158.47 574.78,155.79 575.53,153.1C576.28,150.42 577.04,147.75 577.69,145.06C578.34,142.39 578.98,139.7 579.44,137.01C579.89,134.34 580.3,131.66 580.43,128.97C580.56,126.29 580.55,123.59 580.23,120.92C579.91,118.22 579.33,115.51 578.49,112.87C577.62,110.15 576.41,107.46 575.04,104.83C573.62,102.09 571.86,99.43 570.07,96.78C568.23,94.06 566.13,91.41 564.12,88.74C562.1,86.05 559.94,83.39 557.96,80.69C556.01,78.03 554.04,75.36 552.32,72.64C550.65,70 549.08,67.32 547.75,64.6C546.46,61.96 545.36,59.26 544.45,56.55Q543.56,53.9 542.32,48.51L537.68,48.51Q536.44,53.9 535.55,56.55C534.64,59.26 533.54,61.96 532.25,64.6C530.92,67.32 529.35,70 527.68,72.64C525.96,75.36 523.99,78.03 522.04,80.69C520.06,83.39 517.9,86.05 515.88,88.74C513.87,91.41 511.77,94.06 509.93,96.78C508.14,99.43 506.38,102.09 504.96,104.83C503.59,107.46 502.38,110.15 501.51,112.87C500.67,115.51 500.09,118.22 499.77,120.92C499.45,123.59 499.44,126.29 499.57,128.97C499.7,131.66 500.11,134.34 500.56,137.01C501.02,139.7 501.66,142.39 502.31,145.06C502.96,147.75 503.72,150.42 504.47,153.1C505.22,155.79 506.04,158.47 506.82,161.15C507.61,163.83 508.41,166.52 509.18,169.2C509.95,171.88 510.73,174.56 511.46,177.24C512.19,179.92 512.9,182.6 513.56,185.29C514.22,187.97 514.84,190.64 515.41,193.33C515.98,196.01 516.51,198.69 516.99,201.38C517.47,204.06 517.9,206.74 518.3,209.43C518.7,212.11 519.05,214.79 519.38,217.47C519.71,220.15 520,222.84 520.28,225.52C520.56,228.2 520.81,230.88 521.07,233.56C521.33,236.24 521.57,238.93 521.83,241.61C522.09,244.29 522.35,246.98 522.63,249.66C522.91,252.34 523.21,255.02 523.52,257.7C523.83,260.38 524.15,263.07 524.47,265.75C524.79,268.43 525.12,271.11 525.43,273.79C525.74,276.47 526.04,279.16 526.31,281.84C526.58,284.52 526.83,287.21 527.04,289.89C527.25,292.57 527.41,295.25 527.55,297.93C527.69,300.61 527.79,303.3 527.87,305.98C527.95,308.66 527.99,311.34 528.03,314.02C528.07,316.7 528.09,319.39 528.12,322.07C528.15,324.75 528.17,327.43 528.22,330.11C528.27,332.79 528.33,335.48 528.4,338.16C528.48,340.84 528.57,343.53 528.67,346.21C528.77,348.89 528.89,351.57 529.01,354.25C529.13,356.93 529.27,359.62 529.4,362.3C529.53,364.98 529.67,367.66 529.8,370.34C529.93,373.02 530.06,375.71 530.19,378.39C530.32,381.07 530.45,383.76 530.59,386.44C530.73,389.12 530.86,391.8 531.01,394.48C531.16,397.16 531.31,399.85 531.47,402.53C531.63,405.21 531.79,407.89 531.95,410.57C532.11,413.25 532.28,415.94 532.44,418.62C532.6,421.3 532.76,423.99 532.91,426.67C533.06,429.35 533.21,432.03 533.35,434.71C533.49,437.39 533.63,440.08 533.77,442.76C533.91,445.44 534.05,448.12 534.18,450.8C534.32,453.48 534.45,456.17 534.58,458.85C534.71,461.53 534.85,464.22 534.98,466.9C535.11,469.58 535.25,472.26 535.37,474.94C535.5,477.62 535.61,480.31 535.73,482.99C535.85,485.67 535.97,488.35 536.08,491.03C536.19,493.71 536.3,496.4 536.41,499.08C536.52,501.76 536.64,504.45 536.76,507.13C536.88,509.81 537,512.49 537.14,515.17C537.28,517.85 537.43,520.54 537.58,523.22C537.73,525.9 537.89,528.58 538.05,531.26C538.21,533.94 538.38,536.63 538.54,539.31C538.69,541.99 538.84,544.68 538.98,547.36C539.11,550.04 539.24,552.72 539.35,555.4C539.46,558.08 539.54,560.77 539.62,563.45Q539.69,566.13 539.8,571.49Z" style="vector-effect: non-scaling-stroke; stroke-width: 2px; stroke: rgb(239, 85, 59); stroke-opacity: 1; fill: rgb(239, 85, 59); fill-opacity: 0.5;"/><path class="box" d="M94.77,246.16H121.23M94.77,352.56H121.23V161.05H94.77ZM108,352.56V522.79M108,161.05V97.21" style="vector-effect: non-scaling-stroke; stroke-width: 2px; stroke: rgb(239, 85, 59); stroke-opacity: 1; fill: rgb(239, 85, 59); fill-opacity: 0.5;"/><path class="box" d="M310.77,161.05H337.23M310.77,246.16H337.23V118.49H310.77ZM324,246.16V437.67M324,118.49V97.21" style="vector-effect: non-scaling-stroke; stroke-width: 2px; stroke: rgb(239, 85, 59); stroke-opacity: 1; fill: rgb(239, 85, 59); fill-opacity: 0.5;"/><path class="box" d="M526.77,182.33H553.23M526.77,288.72H553.23V118.49H526.77ZM540,288.72V522.79M540,118.49V97.21" style="vector-effect: non-scaling-stroke; stroke-width: 2px; stroke: rgb(239, 85, 59); stroke-opacity: 1; fill: rgb(239, 85, 59); fill-opacity: 0.5;"/><path class="mean" d="M94.77,260.03H121.23" style="fill: none; vector-effect: non-scaling-stroke; stroke-width: 2px; stroke-dasharray: 4px, 2px; stroke: rgb(239, 85, 59); stroke-opacity: 1;"/><path class="mean" d="M310.77,201.69H337.23" style="fill: none; vector-effect: non-scaling-stroke; stroke-width: 2px; stroke-dasharray: 4px, 2px; stroke: rgb(239, 85, 59); stroke-opacity: 1;"/><path class="mean" d="M526.77,219.09H553.23" style="fill: none; vector-effect: non-scaling-stroke; stroke-width: 2px; stroke-dasharray: 4px, 2px; stroke: rgb(239, 85, 59); stroke-opacity: 1;"/></g></g></g><g class="overplot"/><path class="xlines-above crisp" d="M0,0" style="fill: none;"/><path class="ylines-above crisp" d="M0,0" style="fill: none;"/><g class="overlines-above"/><g class="xaxislayer-above"><g class="x2tick"><text text-anchor="middle" x="0" y="733" transform="translate(980.0000000000001,0)" style="font-family: 'Open Sans', verdana, arial, sans-serif; font-size: 12px; fill: rgb(42, 63, 95); fill-opacity: 1; white-space: pre; opacity: 1;">&#60;=1</text></g><g class="x2tick"><text text-anchor="middle" x="0" y="733" transform="translate(1196,0)" style="font-family: 'Open Sans', verdana, arial, sans-serif; font-size: 12px; fill: rgb(42, 63, 95); fill-opacity: 1; white-space: pre; opacity: 1;">(1, 2]</text></g><g class="x2tick"><text text-anchor="middle" x="0" y="733" transform="translate(1412,0)" style="font-family: 'Open Sans', verdana, arial, sans-serif; font-size: 12px; fill: rgb(42, 63, 95); fill-opacity: 1; white-space: pre; opacity: 1;">>2</text></g></g><g class="yaxislayer-above"><g class="y2tick"><text text-anchor="end" x="871.0000000000001" y="4.199999999999999" transform="translate(0,707.91)" style="font-family: 'Open Sans', verdana, arial, sans-serif; font-size: 12px; fill: rgb(42, 63, 95); fill-opacity: 1; white-space: pre; opacity: 1;">2000</text></g><g class="y2tick"><text text-anchor="end" x="871.0000000000001" y="4.199999999999999" style="font-family: 'Open Sans', verdana, arial, sans-serif; font-size: 12px; fill: rgb(42, 63, 95); fill-opacity: 1; white-space: pre; opacity: 1;" transform="translate(0,601.51)">2005</text></g><g class="y2tick"><text text-anchor="end" x="871.0000000000001" y="4.199999999999999" style="font-family: 'Open Sans', verdana, arial, sans-serif; font-size: 12px; fill: rgb(42, 63, 95); fill-opacity: 1; white-space: pre; opacity: 1;" transform="translate(0,495.12)">2010</text></g><g class="y2tick"><text text-anchor="end" x="871.0000000000001" y="4.199999999999999" style="font-family: 'Open Sans', verdana, arial, sans-serif; font-size: 12px; fill: rgb(42, 63, 95); fill-opacity: 1; white-space: pre; opacity: 1;" transform="translate(0,388.72)">2015</text></g><g class="y2tick"><text text-anchor="end" x="871.0000000000001" y="4.199999999999999" style="font-family: 'Open Sans', verdana, arial, sans-serif; font-size: 12px; fill: rgb(42, 63, 95); fill-opacity: 1; white-space: pre; opacity: 1;" transform="translate(0,282.33000000000004)">2020</text></g><g class="y2tick"><text text-anchor="end" x="871.0000000000001" y="4.199999999999999" style="font-family: 'Open Sans', verdana, arial, sans-serif; font-size: 12px; fill: rgb(42, 63, 95); fill-opacity: 1; white-space: pre; opacity: 1;" transform="translate(0,175.93)">2025</text></g></g><g class="overaxes-above"/></g></g><g class="polarlayer"/><g class="smithlayer"/><g class="ternarylayer"/><g class="geolayer"/><g class="funnelarealayer"/><g class="pielayer"/><g class="iciclelayer"/><g class="treemaplayer"/><g class="sunburstlayer"/><g class="glimages"/><defs id="topdefs-b2ea9f"><g class="clips"/></defs><g class="layer-above"><g class="imagelayer"/><g class="shapelayer"/></g><g class="infolayer"><g class="g-gtitle"><text class="gtitle" x="80" y="50" text-anchor="start" dy="0em" style="font-family: 'Open Sans', verdana, arial, sans-serif; font-size: 17px; fill: rgb(42, 63, 95); opacity: 1; font-weight: normal; white-space: pre;">publish_year Distributions</text></g><g class="g-xtitle"><text class="xtitle" x="404" y="761.8" text-anchor="middle" style="font-family: 'Open Sans', verdana, arial, sans-serif; font-size: 14px; fill: rgb(42, 63, 95); opacity: 1; font-weight: normal; white-space: pre;">Hardcover over Paperback</text></g><g class="g-x2title"><text class="x2title" x="1196" y="761.8" text-anchor="middle" style="font-family: 'Open Sans', verdana, arial, sans-serif; font-size: 14px; fill: rgb(42, 63, 95); opacity: 1; font-weight: normal; white-space: pre;">Hardcover over Paperback</text></g><g class="g-ytitle"><text class="ytitle" transform="rotate(-90,26.746875000000003,410)" x="26.746875000000003" y="410" text-anchor="middle" style="font-family: 'Open Sans', verdana, arial, sans-serif; font-size: 14px; fill: rgb(42, 63, 95); opacity: 1; font-weight: normal; white-space: pre;">publish_year</text></g><g class="g-y2title"><text class="y2title" transform="rotate(-90,818.746875,410)" x="818.746875" y="410" text-anchor="middle" style="font-family: 'Open Sans', verdana, arial, sans-serif; font-size: 14px; fill: rgb(42, 63, 95); opacity: 1; font-weight: normal; white-space: pre;">publish_year</text></g><g class="annotation" data-index="0" style="opacity: 1;"><g class="annotation-text-g" transform="rotate(0,404,87)"><g class="cursor-pointer" transform="translate(363,74)"><rect class="bg" x="0.5" y="0.5" width="82" height="25" style="stroke-width: 1px; stroke: rgb(0, 0, 0); stroke-opacity: 0; fill: rgb(0, 0, 0); fill-opacity: 0;"/><text class="annotation-text" text-anchor="middle" x="41.296875" y="19" style="font-family: 'Open Sans', verdana, arial, sans-serif; font-size: 16px; fill: rgb(42, 63, 95); fill-opacity: 1; white-space: pre;">Paperback</text></g></g></g><g class="annotation" data-index="1" style="opacity: 1;"><g class="annotation-text-g" transform="rotate(0,1196,87)"><g class="cursor-pointer" transform="translate(1155,74)"><rect class="bg" x="0.5" y="0.5" width="81" height="25" style="stroke-width: 1px; stroke: rgb(0, 0, 0); stroke-opacity: 0; fill: rgb(0, 0, 0); fill-opacity: 0;"/><text class="annotation-text" text-anchor="middle" x="40.921875" y="19" style="font-family: 'Open Sans', verdana, arial, sans-serif; font-size: 16px; fill: rgb(42, 63, 95); fill-opacity: 1; white-space: pre;">Hardcover</text></g></g></g></g></svg>