<svg class="main-svg" xmlns="http://www.w3.org/2000/svg" xmlns:xlink="http://www.w3.org/1999/xlink" width="1600" height="800" style="" viewBox="0 0 1600 800"><rect x="0" y="0" width="1600" height="800" style="fill: rgb(255, 255, 255); fill-opacity: 1;"/><defs id="defs-f28b28"><g class="clips"><clipPath id="clipf28b28xyplot" class="plotclip"><rect width="648" height="620"/></clipPath><clipPath id="clipf28b28x2y2plot" class="plotclip"><rect width="647.9999999999999" height="620"/></clipPath><clipPath class="axesclip" id="clipf28b28x"><rect x="80" y="0" width="648" height="800"/></clipPath><clipPath class="axesclip" id="clipf28b28y"><rect x="0" y="100" width="1600" height="620"/></clipPath><clipPath class="axesclip" id="clipf28b28xy"><rect x="80" y="100" width="648" height="620"/></clipPath><clipPath class="axesclip" id="clipf28b28y2"><rect x="0" y="100" width="1600" height="620"/></clipPath><clipPath class="axesclip" id="clipf28b28xy2"><rect x="80" y="100" width="648" height="620"/></clipPath><clipPath class="axesclip" id="clipf28b28x2"><rect x="872.0000000000001" y="0" width="647.9999999999999" height="800"/></clipPath><clipPath class="axesclip" id="clipf28b28x2y"><rect x="872.0000000000001" y="100" width="647.9999999999999" height="620"/></clipPath><clipPath class="axesclip" id="clipf28b28x2y2"><rect x="872.0000000000001" y="100" width="647.9999999999999" height="620"/></clipPath></g><g class="gradients"/><g class="patterns"/></defs><g class="bglayer"><rect class="bg" x="80" y="100" width="648" height="620" style="fill: rgb(229, 236, 246); fill-opacity: 1; stroke-width: 0;"/><rect class="bg" x="872.0000000000001" y="100" width="647.9999999999999" height="620" style="fill: rgb(229, 236, 246); fill-opacity: 1; stroke-width: 0;"/></g><g class="layer-below"><g class="imagelayer"/><g class="shapelayer"/></g><g class="cartesianlayer"><g class="subplot xy"><g class="layer-subplot"><g class="shapelayer"/><g class="imagelayer"/></g><g class="minor-gridlayer"><g class="x"/><g class="y"/></g><g class="gridlayer"><g class="x"/><g class="y"><path class="ygrid crisp" transform="translate(0,595.98)" d="M80,0h648" style="stroke: rgb(255, 255, 255); stroke-opacity: 1; stroke-width: 1px;"/><path class="ygrid crisp" transform="translate(0,525.53)" d="M80,0h648" style="stroke: rgb(255, 255, 255); stroke-opacity: 1; stroke-width: 1px;"/><path class="ygrid crisp" transform="translate(0,455.09)" d="M80,0h648" style="stroke: rgb(255, 255, 255); stroke-opacity: 1; stroke-width: 1px;"/><path class="ygrid crisp" transform="translate(0,384.65)" d="M80,0h648" style="stroke: rgb(255, 255, 255); stroke-opacity: 1; stroke-width: 1px;"/><path class="ygrid crisp" transform="translate(0,314.21000000000004)" d="M80,0h648" style="stroke: rgb(255, 255, 255); stroke-opacity: 1; stroke-width: 1px;"/><path class="ygrid crisp" transform="translate(0,243.77)" d="M80,0h648" style="stroke: rgb(255, 255, 255); stroke-opacity: 1; stroke-width: 1px;"/><path class="ygrid crisp" transform="translate(0,173.32)" d="M80,0h648" style="stroke: rgb(255, 255, 255); stroke-opacity: 1; stroke-width: 1px;"/><path class="ygrid crisp" transform="translate(0,102.88)" d="M80,0h648" style="stroke: rgb(255, 255, 255); stroke-opacity: 1; stroke-width: 1px;"/></g></g><g class="zerolinelayer"><path class="yzl zl crisp" transform="translate(0,666.42)" d="M80,0h648" style="stroke: rgb(255, 255, 255); stroke-opacity: 1; stroke-width: 2px;"/></g><path class="xlines-below"/><path class="ylines-below"/><g class="overlines-below"/><g class="xaxislayer-below"/><g class="yaxislayer-below"/><g class="overaxes-below"/><g class="plot" transform="translate(80,100)" clip-path="url(#clipf28b28xyplot)"><g class="violinlayer mlayer"><g class="trace violins" style="opacity: 1;"><path class="violin" d="M108.08,527.03Q108.13,522.1 108.17,519.63C108.21,517.16 108.25,514.69 108.31,512.22C108.37,509.75 108.45,507.29 108.54,504.82C108.63,502.35 108.73,499.88 108.86,497.41C108.98,494.94 109.13,492.48 109.29,490.01C109.46,487.54 109.64,485.08 109.85,482.61C110.06,480.14 110.29,477.67 110.56,475.2C110.83,472.73 111.12,470.26 111.45,467.8C111.78,465.33 112.15,462.86 112.56,460.4C112.97,457.93 113.41,455.46 113.89,452.99C114.37,450.52 114.9,448.05 115.45,445.59C116,443.12 116.59,440.66 117.19,438.19C117.79,435.72 118.41,433.25 119.03,430.78C119.65,428.31 120.28,425.85 120.9,423.38C121.52,420.91 122.14,418.45 122.76,415.98C123.38,413.51 124,411.04 124.64,408.57C125.29,406.1 125.93,403.63 126.63,401.17C127.33,398.7 128.06,396.23 128.86,393.77C129.67,391.29 130.54,388.82 131.47,386.36C132.41,383.88 133.42,381.42 134.46,378.96C135.5,376.49 136.63,374.03 137.72,371.56C138.81,369.09 139.95,366.63 141,364.15C142.04,361.69 143.07,359.23 143.97,356.75C144.86,354.3 145.68,351.83 146.37,349.35C147.06,346.89 147.62,344.42 148.11,341.94C148.59,339.48 148.95,337.01 149.29,334.54C149.63,332.08 149.87,329.61 150.14,327.14C150.4,324.67 150.64,322.2 150.88,319.73C151.11,317.26 151.37,314.8 151.55,312.33C151.73,309.86 151.92,307.4 151.97,304.93C152.02,302.46 152.02,299.98 151.84,297.52C151.66,295.05 151.36,292.57 150.88,290.12C150.4,287.64 149.72,285.17 148.95,282.72C148.16,280.23 147.19,277.76 146.19,275.31C145.18,272.83 144.03,270.37 142.94,267.91C141.85,265.44 140.69,262.99 139.63,260.51C138.58,258.05 137.54,255.58 136.61,253.1C135.69,250.65 134.84,248.18 134.07,245.7C133.3,243.24 132.63,240.77 131.99,238.3C131.35,235.84 130.8,233.36 130.23,230.89C129.66,228.42 129.14,225.96 128.59,223.49C128.04,221.02 127.49,218.56 126.92,216.09C126.35,213.62 125.75,211.15 125.16,208.68C124.57,206.21 123.96,203.75 123.37,201.28C122.78,198.81 122.18,196.35 121.64,193.88C121.1,191.41 120.57,188.94 120.12,186.47C119.67,184.01 119.26,181.54 118.92,179.07C118.58,176.6 118.31,174.13 118.09,171.66C117.87,169.2 117.73,166.73 117.62,164.26C117.51,161.79 117.47,159.33 117.43,156.86C117.39,154.39 117.4,151.92 117.4,149.45C117.4,146.98 117.44,144.52 117.44,142.05C117.44,139.58 117.44,137.12 117.42,134.65C117.4,132.18 117.37,129.71 117.29,127.24C117.21,124.77 117.1,122.31 116.95,119.84C116.8,117.37 116.61,114.91 116.37,112.44C116.13,109.97 115.83,107.5 115.51,105.03C115.19,102.56 114.81,100.09 114.43,97.63C114.04,95.16 113.61,92.7 113.2,90.23C112.79,87.76 112.36,85.29 111.96,82.82C111.57,80.35 111.17,77.89 110.83,75.42C110.49,72.96 110.17,70.49 109.9,68.02C109.63,65.55 109.4,63.08 109.2,60.61C109,58.14 108.84,55.68 108.7,53.21C108.57,50.74 108.47,48.28 108.39,45.81C108.31,43.34 108.25,40.87 108.2,38.4Q108.15,35.93 108.09,31L107.91,31Q107.85,35.93 107.8,38.4C107.75,40.87 107.69,43.34 107.61,45.81C107.53,48.28 107.43,50.74 107.3,53.21C107.16,55.68 107,58.14 106.8,60.61C106.6,63.08 106.37,65.55 106.1,68.02C105.83,70.49 105.51,72.96 105.17,75.42C104.83,77.89 104.43,80.35 104.04,82.82C103.64,85.29 103.21,87.76 102.8,90.23C102.39,92.7 101.96,95.16 101.57,97.63C101.19,100.09 100.81,102.56 100.49,105.03C100.17,107.5 99.87,109.97 99.63,112.44C99.39,114.91 99.2,117.37 99.05,119.84C98.9,122.31 98.79,124.77 98.71,127.24C98.63,129.71 98.6,132.18 98.58,134.65C98.56,137.12 98.56,139.58 98.56,142.05C98.56,144.52 98.6,146.98 98.6,149.45C98.6,151.92 98.61,154.39 98.57,156.86C98.53,159.33 98.49,161.79 98.38,164.26C98.27,166.73 98.13,169.2 97.91,171.66C97.69,174.13 97.42,176.6 97.08,179.07C96.74,181.54 96.33,184.01 95.88,186.47C95.43,188.94 94.9,191.41 94.36,193.88C93.82,196.35 93.22,198.81 92.63,201.28C92.04,203.75 91.43,206.21 90.84,208.68C90.25,211.15 89.65,213.62 89.08,216.09C88.51,218.56 87.96,221.02 87.41,223.49C86.86,225.96 86.34,228.42 85.77,230.89C85.2,233.36 84.65,235.84 84.01,238.3C83.37,240.77 82.7,243.24 81.93,245.7C81.16,248.18 80.31,250.65 79.39,253.1C78.46,255.58 77.42,258.05 76.37,260.51C75.31,262.99 74.15,265.44 73.06,267.91C71.97,270.37 70.82,272.83 69.81,275.31C68.81,277.76 67.84,280.23 67.05,282.72C66.28,285.17 65.6,287.64 65.12,290.12C64.64,292.57 64.34,295.05 64.16,297.52C63.98,299.98 63.98,302.46 64.03,304.93C64.08,307.4 64.27,309.86 64.45,312.33C64.63,314.8 64.89,317.26 65.12,319.73C65.36,322.2 65.6,324.67 65.86,327.14C66.13,329.61 66.37,332.08 66.71,334.54C67.05,337.01 67.41,339.48 67.89,341.94C68.38,344.42 68.94,346.89 69.63,349.35C70.32,351.83 71.14,354.3 72.03,356.75C72.93,359.23 73.96,361.69 75,364.15C76.05,366.63 77.19,369.09 78.28,371.56C79.37,374.03 80.5,376.49 81.54,378.96C82.58,381.42 83.59,383.88 84.53,386.36C85.46,388.82 86.33,391.29 87.14,393.77C87.94,396.23 88.67,398.7 89.37,401.17C90.07,403.63 90.71,406.1 91.36,408.57C92,411.04 92.62,413.51 93.24,415.98C93.86,418.45 94.48,420.91 95.1,423.38C95.72,425.85 96.35,428.31 96.97,430.78C97.59,433.25 98.21,435.72 98.81,438.19C99.41,440.66 100,443.12 100.55,445.59C101.1,448.05 101.63,450.52 102.11,452.99C102.59,455.46 103.03,457.93 103.44,460.4C103.85,462.86 104.22,465.33 104.55,467.8C104.88,470.26 105.17,472.73 105.44,475.2C105.71,477.67 105.94,480.14 106.15,482.61C106.36,485.08 106.54,487.54 106.71,490.01C106.87,492.48 107.02,494.94 107.14,497.41C107.27,499.88 107.37,502.35 107.46,504.82C107.55,507.29 107.63,509.75 107.69,512.22C107.75,514.69 107.79,517.16 107.83,519.63Q107.87,522.1 107.92,527.03Z" style="vector-effect: non-scaling-stroke; stroke-width: 2px; stroke: rgb(99, 110, 250); stroke-opacity: 1; fill: rgb(99, 110, 250); fill-opacity: 0.5;"/><path class="violin" d="M324.02,552.43Q324.03,549.28 324.04,547.7C324.05,546.12 324.06,544.54 324.07,542.96C324.08,541.38 324.1,539.81 324.12,538.23C324.14,536.65 324.16,535.08 324.19,533.5C324.22,531.92 324.25,530.35 324.28,528.77C324.32,527.19 324.35,525.62 324.4,524.04C324.45,522.46 324.5,520.89 324.57,519.31C324.64,517.73 324.71,516.16 324.8,514.58C324.89,513 325,511.43 325.12,509.85C325.24,508.27 325.37,506.7 325.52,505.12C325.67,503.54 325.83,501.97 326,500.39C326.17,498.81 326.37,497.24 326.56,495.66C326.75,494.08 326.95,492.51 327.16,490.93C327.37,489.35 327.58,487.78 327.8,486.2C328.02,484.62 328.24,483.04 328.47,481.46C328.7,479.88 328.93,478.31 329.18,476.73C329.43,475.15 329.68,473.57 329.97,472C330.26,470.42 330.56,468.84 330.91,467.27C331.26,465.69 331.64,464.11 332.07,462.54C332.5,460.96 332.98,459.38 333.51,457.81C334.05,456.22 334.64,454.65 335.29,453.08C335.95,451.49 336.67,449.91 337.45,448.35C338.24,446.76 339.09,445.18 339.99,443.62C340.9,442.03 341.88,440.46 342.87,438.89C343.87,437.3 344.93,435.74 345.97,434.16C347.01,432.58 348.07,431.01 349.09,429.43C350.1,427.86 351.12,426.29 352.07,424.7C353.01,423.13 353.91,421.56 354.76,419.97C355.6,418.4 356.39,416.82 357.14,415.23C357.89,413.66 358.58,412.08 359.26,410.5C359.94,408.93 360.59,407.35 361.23,405.77C361.87,404.2 362.49,402.62 363.1,401.04C363.71,399.47 364.32,397.89 364.89,396.31C365.46,394.74 366.02,393.16 366.52,391.58C367.02,390.01 367.48,388.43 367.89,386.85C368.3,385.28 368.65,383.7 368.98,382.12C369.3,380.55 369.56,378.97 369.84,377.39C370.12,375.81 370.36,374.23 370.65,372.66C370.94,371.08 371.24,369.5 371.58,367.93C371.92,366.35 372.29,364.77 372.67,363.2C373.05,361.62 373.48,360.05 373.87,358.47C374.26,356.89 374.68,355.31 375.03,353.73C375.38,352.16 375.72,350.58 375.99,349C376.26,347.43 376.49,345.85 376.65,344.27C376.8,342.7 376.91,341.12 376.92,339.54C376.93,337.96 376.88,336.38 376.71,334.81C376.54,333.23 376.27,331.64 375.89,330.08C375.5,328.49 375,326.91 374.4,325.35C373.79,323.75 373.04,322.18 372.24,320.62C371.42,319.03 370.49,317.45 369.55,315.89C368.59,314.3 367.55,312.73 366.53,311.16C365.5,309.58 364.43,308.01 363.39,306.43C362.35,304.85 361.3,303.28 360.28,301.7C359.26,300.13 358.26,298.55 357.26,296.97C356.26,295.39 355.27,293.82 354.27,292.24C353.26,290.66 352.26,289.08 351.23,287.5C350.2,285.92 349.15,284.35 348.1,282.77C347.05,281.19 345.98,279.62 344.95,278.04C343.93,276.47 342.9,274.9 341.97,273.31C341.05,271.75 340.17,270.17 339.39,268.58C338.63,267.02 337.93,265.44 337.33,263.85C336.74,262.29 336.24,260.71 335.79,259.12C335.35,257.55 334.98,255.97 334.65,254.39C334.32,252.82 334.04,251.24 333.79,249.66C333.54,248.09 333.32,246.51 333.15,244.93C332.98,243.36 332.84,241.78 332.76,240.2C332.68,238.62 332.66,237.05 332.69,235.47C332.72,233.89 332.82,232.32 332.94,230.74C333.06,229.16 333.25,227.58 333.4,226C333.55,224.42 333.73,222.85 333.82,221.27C333.91,219.69 333.99,218.12 333.95,216.54C333.91,214.96 333.79,213.38 333.6,211.81C333.4,210.23 333.1,208.65 332.78,207.08C332.46,205.5 332.04,203.93 331.67,202.35C331.3,200.77 330.89,199.2 330.55,197.62C330.22,196.05 329.9,194.47 329.66,192.89C329.42,191.32 329.25,189.74 329.13,188.16C329.01,186.59 328.97,185.01 328.96,183.43C328.95,181.85 329.01,180.28 329.08,178.7C329.15,177.12 329.28,175.55 329.39,173.97C329.51,172.39 329.64,170.82 329.77,169.24C329.9,167.66 330.04,166.09 330.16,164.51C330.28,162.93 330.4,161.35 330.48,159.77C330.56,158.19 330.63,156.62 330.64,155.04C330.65,153.46 330.63,151.89 330.56,150.31C330.49,148.73 330.36,147.15 330.2,145.58C330.04,144 329.81,142.43 329.58,140.85C329.35,139.27 329.08,137.7 328.82,136.12C328.56,134.54 328.28,132.97 328.04,131.39C327.8,129.81 327.57,128.24 327.39,126.66C327.21,125.09 327.06,123.51 326.94,121.93C326.82,120.35 326.75,118.78 326.69,117.2C326.63,115.62 326.6,114.05 326.57,112.47C326.54,110.89 326.52,109.32 326.49,107.74C326.46,106.16 326.43,104.59 326.38,103.01C326.33,101.43 326.26,99.85 326.18,98.27C326.1,96.69 325.99,95.12 325.88,93.54C325.77,91.96 325.65,90.39 325.53,88.81C325.41,87.23 325.28,85.66 325.16,84.08C325.04,82.5 324.92,80.93 324.82,79.35C324.72,77.77 324.62,76.2 324.54,74.62C324.46,73.04 324.4,71.47 324.34,69.89C324.28,68.31 324.24,66.74 324.2,65.16C324.16,63.58 324.14,62.01 324.11,60.43C324.09,58.85 324.06,57.28 324.05,55.7Q324.04,54.12 324.03,50.97L323.97,50.97Q323.96,54.12 323.95,55.7C323.94,57.28 323.91,58.85 323.89,60.43C323.86,62.01 323.84,63.58 323.8,65.16C323.76,66.74 323.72,68.31 323.66,69.89C323.6,71.47 323.54,73.04 323.46,74.62C323.38,76.2 323.28,77.77 323.18,79.35C323.08,80.93 322.96,82.5 322.84,84.08C322.72,85.66 322.59,87.23 322.47,88.81C322.35,90.39 322.23,91.96 322.12,93.54C322.01,95.12 321.9,96.69 321.82,98.27C321.74,99.85 321.67,101.43 321.62,103.01C321.57,104.59 321.54,106.16 321.51,107.74C321.48,109.32 321.46,110.89 321.43,112.47C321.4,114.05 321.37,115.62 321.31,117.2C321.25,118.78 321.18,120.35 321.06,121.93C320.94,123.51 320.79,125.09 320.61,126.66C320.43,128.24 320.2,129.81 319.96,131.39C319.72,132.97 319.44,134.54 319.18,136.12C318.92,137.7 318.65,139.27 318.42,140.85C318.19,142.43 317.96,144 317.8,145.58C317.64,147.15 317.51,148.73 317.44,150.31C317.37,151.89 317.35,153.46 317.36,155.04C317.37,156.62 317.44,158.19 317.52,159.77C317.6,161.35 317.72,162.93 317.84,164.51C317.96,166.09 318.1,167.66 318.23,169.24C318.36,170.82 318.49,172.39 318.61,173.97C318.72,175.55 318.85,177.12 318.92,178.7C318.99,180.28 319.05,181.85 319.04,183.43C319.03,185.01 318.99,186.59 318.87,188.16C318.75,189.74 318.58,191.32 318.34,192.89C318.1,194.47 317.78,196.05 317.45,197.62C317.11,199.2 316.7,200.77 316.33,202.35C315.96,203.93 315.54,205.5 315.22,207.08C314.9,208.65 314.6,210.23 314.4,211.81C314.21,213.38 314.09,214.96 314.05,216.54C314.01,218.12 314.09,219.69 314.18,221.27C314.27,222.85 314.45,224.42 314.6,226C314.75,227.58 314.94,229.16 315.06,230.74C315.18,232.32 315.28,233.89 315.31,235.47C315.34,237.05 315.32,238.62 315.24,240.2C315.16,241.78 315.02,243.36 314.85,244.93C314.68,246.51 314.46,248.09 314.21,249.66C313.96,251.24 313.68,252.82 313.35,254.39C313.02,255.97 312.65,257.55 312.21,259.12C311.76,260.71 311.26,262.29 310.67,263.85C310.07,265.44 309.37,267.02 308.61,268.58C307.83,270.17 306.95,271.75 306.03,273.31C305.1,274.9 304.07,276.47 303.05,278.04C302.02,279.62 300.95,281.19 299.9,282.77C298.85,284.35 297.8,285.92 296.77,287.5C295.74,289.08 294.74,290.66 293.73,292.24C292.73,293.82 291.74,295.39 290.74,296.97C289.74,298.55 288.74,300.13 287.72,301.7C286.7,303.28 285.65,304.85 284.61,306.43C283.57,308.01 282.5,309.58 281.47,311.16C280.45,312.73 279.41,314.3 278.45,315.89C277.51,317.45 276.58,319.03 275.76,320.62C274.96,322.18 274.21,323.75 273.6,325.35C273,326.91 272.5,328.49 272.11,330.08C271.73,331.64 271.46,333.23 271.29,334.81C271.12,336.38 271.07,337.96 271.08,339.54C271.09,341.12 271.2,342.7 271.35,344.27C271.51,345.85 271.74,347.43 272.01,349C272.28,350.58 272.62,352.16 272.97,353.73C273.32,355.31 273.74,356.89 274.13,358.47C274.52,360.05 274.95,361.62 275.33,363.2C275.71,364.77 276.08,366.35 276.42,367.93C276.76,369.5 277.06,371.08 277.35,372.66C277.64,374.23 277.88,375.81 278.16,377.39C278.44,378.97 278.7,380.55 279.02,382.12C279.35,383.7 279.7,385.28 280.11,386.85C280.52,388.43 280.98,390.01 281.48,391.58C281.98,393.16 282.54,394.74 283.11,396.31C283.68,397.89 284.29,399.47 284.9,401.04C285.51,402.62 286.13,404.2 286.77,405.77C287.41,407.35 288.06,408.93 288.74,410.5C289.42,412.08 290.11,413.66 290.86,415.23C291.61,416.82 292.4,418.4 293.24,419.97C294.09,421.56 294.99,423.13 295.93,424.7C296.88,426.29 297.9,427.86 298.91,429.43C299.93,431.01 300.99,432.58 302.03,434.16C303.07,435.74 304.13,437.3 305.13,438.89C306.12,440.46 307.1,442.03 308.01,443.62C308.91,445.18 309.76,446.76 310.55,448.35C311.33,449.91 312.05,451.49 312.71,453.08C313.36,454.65 313.95,456.22 314.49,457.81C315.02,459.38 315.5,460.96 315.93,462.54C316.36,464.11 316.74,465.69 317.09,467.27C317.44,468.84 317.74,470.42 318.03,472C318.32,473.57 318.57,475.15 318.82,476.73C319.07,478.31 319.3,479.88 319.53,481.46C319.76,483.04 319.98,484.62 320.2,486.2C320.42,487.78 320.63,489.35 320.84,490.93C321.05,492.51 321.25,494.08 321.44,495.66C321.63,497.24 321.83,498.81 322,500.39C322.17,501.97 322.33,503.54 322.48,505.12C322.63,506.7 322.76,508.27 322.88,509.85C323,511.43 323.11,513 323.2,514.58C323.29,516.16 323.36,517.73 323.43,519.31C323.5,520.89 323.55,522.46 323.6,524.04C323.65,525.62 323.68,527.19 323.72,528.77C323.75,530.35 323.78,531.92 323.81,533.5C323.84,535.08 323.86,536.65 323.88,538.23C323.9,539.81 323.92,541.38 323.93,542.96C323.94,544.54 323.95,546.12 323.96,547.7Q323.97,549.28 323.98,552.43Z" style="vector-effect: non-scaling-stroke; stroke-width: 2px; stroke: rgb(99, 110, 250); stroke-opacity: 1; fill: rgb(99, 110, 250); fill-opacity: 0.5;"/><path class="violin" d="M540.02,589Q540.02,584.97 540.03,582.95C540.04,580.93 540.05,578.92 540.07,576.9C540.08,574.89 540.1,572.87 540.12,570.86C540.14,568.84 540.17,566.83 540.21,564.81C540.25,562.79 540.29,560.78 540.35,558.76C540.41,556.74 540.47,554.73 540.55,552.71C540.63,550.69 540.73,548.68 540.85,546.66C540.97,544.65 541.11,542.63 541.29,540.62C541.47,538.6 541.68,536.58 541.94,534.57C542.2,532.55 542.49,530.53 542.86,528.52C543.23,526.5 543.65,524.48 544.15,522.47C544.66,520.44 545.24,518.42 545.9,516.42C546.57,514.39 547.33,512.38 548.16,510.38C549.01,508.35 549.96,506.33 550.96,504.33C551.98,502.3 553.1,500.29 554.24,498.28C555.39,496.25 556.63,494.25 557.83,492.23C559.03,490.21 560.28,488.21 561.44,486.18C562.58,484.17 563.73,482.17 564.73,480.13C565.7,478.14 566.62,476.13 567.36,474.09C568.08,472.1 568.67,470.07 569.12,468.04C569.56,466.04 569.84,464.01 570.04,461.99C570.24,459.98 570.28,457.96 570.33,455.94C570.38,453.92 570.35,451.91 570.37,449.89C570.39,447.88 570.39,445.86 570.43,443.85C570.47,441.83 570.56,439.82 570.64,437.8C570.72,435.78 570.84,433.77 570.92,431.75C571,429.73 571.08,427.72 571.12,425.7C571.16,423.68 571.15,421.67 571.14,419.65C571.13,417.64 571.08,415.62 571.06,413.61C571.04,411.59 571.01,409.58 571.03,407.56C571.05,405.54 571.09,403.53 571.18,401.51C571.27,399.49 571.41,397.48 571.55,395.46C571.69,393.44 571.87,391.43 572.03,389.41C572.19,387.4 572.36,385.38 572.49,383.37C572.63,381.35 572.75,379.34 572.84,377.32C572.93,375.3 573.01,373.29 573.05,371.27C573.09,369.25 573.12,367.24 573.11,365.22C573.1,363.2 573.08,361.19 573,359.17C572.92,357.16 572.82,355.14 572.66,353.13C572.5,351.11 572.28,349.09 572.03,347.08C571.77,345.06 571.47,343.04 571.13,341.03C570.79,339.01 570.39,337 570,334.98C569.61,332.96 569.18,330.95 568.77,328.93C568.37,326.91 567.94,324.9 567.57,322.88C567.2,320.87 566.84,318.86 566.55,316.84C566.26,314.83 566.01,312.81 565.81,310.79C565.61,308.78 565.48,306.76 565.35,304.74C565.22,302.72 565.16,300.71 565.02,298.69C564.88,296.67 564.77,294.65 564.53,292.64C564.29,290.62 563.99,288.6 563.58,286.6C563.16,284.57 562.64,282.55 562.04,280.55C561.44,278.52 560.7,276.51 559.97,274.5C559.24,272.48 558.42,270.47 557.66,268.45C556.91,266.44 556.12,264.43 555.44,262.4C554.77,260.4 554.14,258.38 553.61,256.36C553.09,254.35 552.64,252.33 552.29,250.31C551.94,248.3 551.7,246.28 551.51,244.26C551.33,242.25 551.24,240.23 551.18,238.21C551.12,236.19 551.14,234.18 551.15,232.16C551.16,230.15 551.21,228.13 551.22,226.12C551.23,224.1 551.24,222.09 551.19,220.07C551.14,218.05 551.05,216.03 550.91,214.02C550.77,212 550.57,209.98 550.34,207.97C550.11,205.95 549.83,203.93 549.55,201.92C549.27,199.9 548.95,197.9 548.67,195.88C548.39,193.87 548.12,191.85 547.89,189.83C547.66,187.82 547.46,185.8 547.31,183.78C547.16,181.76 547.06,179.75 547,177.73C546.94,175.71 546.94,173.7 546.96,171.68C546.98,169.67 547.06,167.65 547.13,165.64C547.2,163.62 547.31,161.61 547.39,159.59C547.47,157.57 547.56,155.56 547.59,153.54C547.62,151.52 547.64,149.51 547.6,147.49C547.56,145.47 547.47,143.46 547.34,141.44C547.21,139.42 547.02,137.4 546.83,135.39C546.63,133.37 546.39,131.36 546.17,129.35C545.95,127.33 545.71,125.32 545.5,123.3C545.29,121.28 545.09,119.27 544.91,117.25C544.73,115.23 544.58,113.22 544.44,111.2C544.3,109.18 544.19,107.17 544.07,105.15C543.95,103.14 543.83,101.12 543.71,99.11C543.59,97.09 543.47,95.08 543.33,93.06C543.19,91.04 543.04,89.03 542.88,87.01C542.72,84.99 542.55,82.98 542.38,80.96C542.21,78.94 542.02,76.93 541.84,74.91C541.67,72.9 541.49,70.88 541.33,68.87C541.17,66.85 541.02,64.84 540.89,62.82C540.76,60.8 540.65,58.79 540.55,56.77C540.45,54.75 540.38,52.74 540.31,50.72C540.25,48.7 540.2,46.69 540.16,44.67Q540.12,42.66 540.07,38.63L539.93,38.63Q539.88,42.66 539.84,44.67C539.8,46.69 539.75,48.7 539.69,50.72C539.62,52.74 539.55,54.75 539.45,56.77C539.35,58.79 539.24,60.8 539.11,62.82C538.98,64.84 538.83,66.85 538.67,68.87C538.51,70.88 538.33,72.9 538.16,74.91C537.98,76.93 537.79,78.94 537.62,80.96C537.45,82.98 537.28,84.99 537.12,87.01C536.96,89.03 536.81,91.04 536.67,93.06C536.53,95.08 536.41,97.09 536.29,99.11C536.17,101.12 536.05,103.14 535.93,105.15C535.81,107.17 535.7,109.18 535.56,111.2C535.42,113.22 535.27,115.23 535.09,117.25C534.91,119.27 534.71,121.28 534.5,123.3C534.29,125.32 534.05,127.33 533.83,129.35C533.61,131.36 533.37,133.37 533.17,135.39C532.98,137.4 532.79,139.42 532.66,141.44C532.53,143.46 532.44,145.47 532.4,147.49C532.36,149.51 532.38,151.52 532.41,153.54C532.44,155.56 532.53,157.57 532.61,159.59C532.69,161.61 532.8,163.62 532.87,165.64C532.94,167.65 533.02,169.67 533.04,171.68C533.06,173.7 533.06,175.71 533,177.73C532.94,179.75 532.84,181.76 532.69,183.78C532.54,185.8 532.34,187.82 532.11,189.83C531.88,191.85 531.61,193.87 531.33,195.88C531.05,197.9 530.73,199.9 530.45,201.92C530.17,203.93 529.89,205.95 529.66,207.97C529.43,209.98 529.23,212 529.09,214.02C528.95,216.03 528.86,218.05 528.81,220.07C528.76,222.09 528.77,224.1 528.78,226.12C528.79,228.13 528.84,230.15 528.85,232.16C528.86,234.18 528.88,236.19 528.82,238.21C528.76,240.23 528.67,242.25 528.49,244.26C528.3,246.28 528.06,248.3 527.71,250.31C527.36,252.33 526.91,254.35 526.39,256.36C525.86,258.38 525.23,260.4 524.56,262.4C523.88,264.43 523.09,266.44 522.34,268.45C521.58,270.47 520.76,272.48 520.03,274.5C519.3,276.51 518.56,278.52 517.96,280.55C517.36,282.55 516.84,284.57 516.42,286.6C516.01,288.6 515.71,290.62 515.47,292.64C515.23,294.65 515.12,296.67 514.98,298.69C514.84,300.71 514.78,302.72 514.65,304.74C514.52,306.76 514.39,308.78 514.19,310.79C513.99,312.81 513.74,314.83 513.45,316.84C513.16,318.86 512.8,320.87 512.43,322.88C512.06,324.9 511.63,326.91 511.23,328.93C510.82,330.95 510.39,332.96 510,334.98C509.61,337 509.21,339.01 508.87,341.03C508.53,343.04 508.23,345.06 507.97,347.08C507.72,349.09 507.5,351.11 507.34,353.13C507.18,355.14 507.08,357.16 507,359.17C506.92,361.19 506.9,363.2 506.89,365.22C506.88,367.24 506.91,369.25 506.95,371.27C506.99,373.29 507.07,375.3 507.16,377.32C507.25,379.34 507.37,381.35 507.51,383.37C507.64,385.38 507.81,387.4 507.97,389.41C508.13,391.43 508.31,393.44 508.45,395.46C508.59,397.48 508.73,399.49 508.82,401.51C508.91,403.53 508.95,405.54 508.97,407.56C508.99,409.58 508.96,411.59 508.94,413.61C508.92,415.62 508.87,417.64 508.86,419.65C508.85,421.67 508.84,423.68 508.88,425.7C508.92,427.72 509,429.73 509.08,431.75C509.16,433.77 509.28,435.78 509.36,437.8C509.44,439.82 509.53,441.83 509.57,443.85C509.61,445.86 509.61,447.88 509.63,449.89C509.65,451.91 509.62,453.92 509.67,455.94C509.72,457.96 509.76,459.98 509.96,461.99C510.16,464.01 510.44,466.04 510.88,468.04C511.33,470.07 511.92,472.1 512.64,474.09C513.38,476.13 514.3,478.14 515.27,480.13C516.27,482.17 517.42,484.17 518.56,486.18C519.72,488.21 520.97,490.21 522.17,492.23C523.37,494.25 524.61,496.25 525.76,498.28C526.9,500.29 528.02,502.3 529.04,504.33C530.04,506.33 530.99,508.35 531.84,510.38C532.67,512.38 533.43,514.39 534.1,516.42C534.76,518.42 535.34,520.44 535.85,522.47C536.35,524.48 536.77,526.5 537.14,528.52C537.51,530.53 537.8,532.55 538.06,534.57C538.32,536.58 538.53,538.6 538.71,540.62C538.89,542.63 539.03,544.65 539.15,546.66C539.27,548.68 539.37,550.69 539.45,552.71C539.53,554.73 539.59,556.74 539.65,558.76C539.71,560.78 539.75,562.79 539.79,564.81C539.83,566.83 539.86,568.84 539.88,570.86C539.9,572.87 539.92,574.89 539.93,576.9C539.95,578.92 539.96,580.93 539.97,582.95Q539.98,584.97 539.98,589Z" style="vector-effect: non-scaling-stroke; stroke-width: 2px; stroke: rgb(99, 110, 250); stroke-opacity: 1; fill: rgb(99, 110, 250); fill-opacity: 0.5;"/><path class="box" d="M94.77,299.65H121.23M94.77,350.16H121.23V246.33H94.77ZM108,350.16V482.03M108,246.33V91.36" style="vector-effect: non-scaling-stroke; stroke-width: 2px; stroke: rgb(99, 110, 250); stroke-opacity: 1; fill: rgb(99, 110, 250); fill-opacity: 0.5;"/><path class="box" d="M310.77,345.37H337.23M310.77,387.64H337.23V304.9H310.77ZM324,387.64V503.16M324,304.9V184.76" style="vector-effect: non-scaling-stroke; stroke-width: 2px; stroke: rgb(99, 110, 250); stroke-opacity: 1; fill: rgb(99, 110, 250); fill-opacity: 0.5;"/><path class="box" d="M526.77,362.7H553.23M526.77,426.1H553.23V287.33H526.77ZM540,426.1V552.33M540,287.33V80.37" style="vector-effect: non-scaling-stroke; stroke-width: 2px; stroke: rgb(99, 110, 250); stroke-opacity: 1; fill: rgb(99, 110, 250); fill-opacity: 0.5;"/><path class="mean" d="M94.77,294.86H121.23" style="fill: none; vector-effect: non-scaling-stroke; stroke-width: 2px; stroke-dasharray: 4px, 2px; stroke: rgb(99, 110, 250); stroke-opacity: 1;"/><path class="mean" d="M310.77,338.6H337.23" style="fill: none; vector-effect: non-scaling-stroke; stroke-width: 2px; stroke-dasharray: 4px, 2px; stroke: rgb(99, 110, 250); stroke-opacity: 1;"/><path class="mean" d="M526.77,352.56H553.23" style="fill: none; vector-effect: non-scaling-stroke; stroke-width: 2px; stroke-dasharray: 4px, 2px; stroke: rgb(99, 110, 250); stroke-opacity: 1;"/></g></g></g><g class="overplot"/><path class="xlines-above crisp" d="M0,0" style="fill: none;"/><path class="ylines-above crisp" d="M0,0" style="fill: none;"/><g class="overlines-above"/><g class="xaxislayer-above"><g class="xtick"><text text-anchor="middle" x="0" y="733" transform="translate(188,0)" style="font-family: 'Open Sans', verdana, arial, sans-serif; font-size: 12px; fill: rgb(42, 63, 95); fill-opacity: 1; white-space: pre; opacity: 1;">&#60;=1</text></g><g class="xtick"><text text-anchor="middle" x="0" y="733" transform="translate(404,0)" style="font-family: 'Open Sans', verdana, arial, sans-serif; font-size: 12px; fill: rgb(42, 63, 95); fill-opacity: 1; white-space: pre; opacity: 1;">(1, 2]</text></g><g class="xtick"><text text-anchor="middle" x="0" y="733" transform="translate(620,0)" style="font-family: 'Open Sans', verdana, arial, sans-serif; font-size: 12px; fill: rgb(42, 63, 95); fill-opacity: 1; white-space: pre; opacity: 1;">>2</text></g></g><g class="yaxislayer-above"><g class="ytick"><text text-anchor="end" x="79" y="4.199999999999999" transform="translate(0,666.42)" style="font-family: 'Open Sans', verdana, arial, sans-serif; font-size: 12px; fill: rgb(42, 63, 95); fill-opacity: 1; white-space: pre; opacity: 1;">0</text></g><g class="ytick"><text text-anchor="end" x="79" y="4.199999999999999" style="font-family: 'Open Sans', verdana, arial, sans-serif; font-size: 12px; fill: rgb(42, 63, 95); fill-opacity: 1; white-space: pre; opacity: 1;" transform="translate(0,595.98)">5</text></g><g class="ytick"><text text-anchor="end" x="79" y="4.199999999999999" style="font-family: 'Open Sans', verdana, arial, sans-serif; font-size: 12px; fill: rgb(42, 63, 95); fill-opacity: 1; white-space: pre; opacity: 1;" transform="translate(0,525.53)">10</text></g><g class="ytick"><text text-anchor="end" x="79" y="4.199999999999999" style="font-family: 'Open Sans', verdana, arial, sans-serif; font-size: 12px; fill: rgb(42, 63, 95); fill-opacity: 1; white-space: pre; opacity: 1;" transform="translate(0,455.09)">15</text></g><g class="ytick"><text text-anchor="end" x="79" y="4.199999999999999" style="font-family: 'Open Sans', verdana, arial, sans-serif; font-size: 12px; fill: rgb(42, 63, 95); fill-opacity: 1; white-space: pre; opacity: 1;" transform="translate(0,384.65)">20</text></g><g class="ytick"><text text-anchor="end" x="79" y="4.199999999999999" style="font-family: 'Open Sans', verdana, arial, sans-serif; font-size: 12px; fill: rgb(42, 63, 95); fill-opacity: 1; white-space: pre; opacity: 1;" transform="translate(0,314.21000000000004)">25</text></g><g class="ytick"><text text-anchor="end" x="79" y="4.199999999999999" style="font-family: 'Open Sans', verdana, arial, sans-serif; font-size: 12px; fill: rgb(42, 63, 95); fill-opacity: 1; white-space: pre; opacity: 1;" transform="translate(0,243.77)">30</text></g><g class="ytick"><text text-anchor="end" x="79" y="4.199999999999999" style="font-family: 'Open Sans', verdana, arial, sans-serif; font-size: 12px; fill: rgb(42, 63, 95); fill-opacity: 1; white-space: pre; opacity: 1;" transform="translate(0,173.32)">35</text></g><g class="ytick"><text text-anchor="end" x="79" y="4.199999999999999" style="font-family: 'Open Sans', verdana, arial, sans-serif; font-size: 12px; fill: rgb(42, 63, 95); fill-opacity: 1; white-space: pre; opacity: 1;" transform="translate(0,102.88)">40</text></g></g><g class="overaxes-above"/></g><g class="subplot x2y2"><g class="layer-subplot"><g class="shapelayer"/><g class="imagelayer"/></g><g class="minor-gridlayer"><g class="x2"/><g class="y2"/></g><g class="gridlayer"><g class="x2"/><g class="y2"><path class="y2grid crisp" transform="translate(0,591.44)" d="M872.0000000000001,0h647.9999999999999" style="stroke: rgb(255, 255, 255); stroke-opacity: 1; stroke-width: 1px;"/><path class="y2grid crisp" transform="translate(0,524.2)" d="M872.0000000000001,0h647.9999999999999" style="stroke: rgb(255, 255, 255); stroke-opacity: 1; stroke-width: 1px;"/><path class="y2grid crisp" transform="translate(0,456.97)" d="M872.0000000000001,0h647.9999999999999" style="stroke: rgb(255, 255, 255); stroke-opacity: 1; stroke-width: 1px;"/><path class="y2grid crisp" transform="translate(0,389.73)" d="M872.0000000000001,0h647.9999999999999" style="stroke: rgb(255, 255, 255); stroke-opacity: 1; stroke-width: 1px;"/><path class="y2grid crisp" transform="translate(0,322.49)" d="M872.0000000000001,0h647.9999999999999" style="stroke: rgb(255, 255, 255); stroke-opacity: 1; stroke-width: 1px;"/><path class="y2grid crisp" transform="translate(0,255.25)" d="M872.0000000000001,0h647.9999999999999" style="stroke: rgb(255, 255, 255); stroke-opacity: 1; stroke-width: 1px;"/><path class="y2grid crisp" transform="translate(0,188.01)" d="M872.0000000000001,0h647.9999999999999" style="stroke: rgb(255, 255, 255); stroke-opacity: 1; stroke-width: 1px;"/><path class="y2grid crisp" transform="translate(0,120.77)" d="M872.0000000000001,0h647.9999999999999" style="stroke: rgb(255, 255, 255); stroke-opacity: 1; stroke-width: 1px;"/></g></g><g class="zerolinelayer"><path class="y2zl zl crisp" transform="translate(0,658.68)" d="M872.0000000000001,0h647.9999999999999" style="stroke: rgb(255, 255, 255); stroke-opacity: 1; stroke-width: 2px;"/></g><path class="xlines-below"/><path class="ylines-below"/><g class="overlines-below"/><g class="xaxislayer-below"/><g class="yaxislayer-below"/><g class="overaxes-below"/><g class="plot" transform="translate(872.0000000000001,100)" clip-path="url(#clipf28b28x2y2plot)"><g class="violinlayer mlayer"><g class="trace violins" style="opacity: 1;"><path class="violin" d="M108.05,569.98Q108.07,567.99 108.09,566.99C108.11,565.99 108.14,565 108.17,564C108.21,563 108.25,562.01 108.3,561.01C108.35,560.01 108.41,559.02 108.48,558.02C108.55,557.02 108.62,556.03 108.71,555.03C108.8,554.03 108.91,553.04 109.02,552.04C109.13,551.04 109.26,550.05 109.39,549.05C109.52,548.05 109.66,547.06 109.81,546.06C109.96,545.07 110.12,544.07 110.28,543.08C110.44,542.08 110.6,541.09 110.76,540.09C110.92,539.09 111.08,538.1 111.24,537.1C111.4,536.1 111.55,535.11 111.72,534.11C111.89,533.11 112.05,532.11 112.26,531.12C112.47,530.12 112.69,529.12 112.96,528.13C113.24,527.13 113.56,526.13 113.92,525.14C114.29,524.14 114.71,523.14 115.17,522.15C115.63,521.14 116.15,520.15 116.68,519.16C117.21,518.16 117.78,517.17 118.34,516.17C118.9,515.17 119.47,514.18 120.03,513.18C120.59,512.18 121.14,511.19 121.69,510.19C122.24,509.19 122.77,508.2 123.31,507.2C123.85,506.2 124.39,505.2 124.95,504.21C125.51,503.21 126.09,502.22 126.66,501.22C127.23,500.23 127.81,499.24 128.35,498.24C128.89,497.25 129.43,496.26 129.89,495.25C130.34,494.26 130.76,493.27 131.1,492.26C131.43,491.27 131.69,490.27 131.92,489.27C132.15,488.28 132.28,487.28 132.47,486.28C132.66,485.28 132.8,484.28 133.08,483.29C133.37,482.28 133.69,481.27 134.18,480.3C134.7,479.27 135.36,478.27 136.14,477.31C136.99,476.27 138.05,475.28 139.17,474.32C140.39,473.28 141.79,472.3 143.21,471.33C144.71,470.31 146.35,469.33 147.94,468.34C149.54,467.34 151.22,466.37 152.76,465.35C154.22,464.38 155.73,463.42 156.96,462.36C158.06,461.41 159.18,460.44 159.85,459.37C160.43,458.43 160.9,457.38 160.92,456.38C160.94,455.39 160.52,454.34 159.97,453.4C159.34,452.33 158.25,451.36 157.16,450.41C155.94,449.35 154.42,448.39 152.93,447.42C151.35,446.39 149.6,445.42 147.9,444.43C146.17,443.43 144.37,442.45 142.65,441.44C140.97,440.45 139.28,439.47 137.7,438.45C136.18,437.47 134.7,436.49 133.33,435.46C132.03,434.49 130.8,433.5 129.67,432.47C128.61,431.5 127.62,430.5 126.72,429.48C125.86,428.51 125.09,427.51 124.38,426.49C123.7,425.51 123.09,424.51 122.55,423.5C122.02,422.52 121.56,421.52 121.15,420.51C120.75,419.52 120.41,418.52 120.09,417.52C119.78,416.53 119.51,415.53 119.26,414.53C119.01,413.54 118.8,412.54 118.58,411.54C118.37,410.55 118.16,409.55 117.97,408.56C117.77,407.56 117.59,406.57 117.41,405.57C117.23,404.57 117.05,403.58 116.87,402.58C116.69,401.58 116.52,400.59 116.35,399.59C116.18,398.59 116.02,397.6 115.84,396.6C115.66,395.6 115.48,394.61 115.28,393.61C115.08,392.61 114.87,391.62 114.64,390.62C114.41,389.62 114.17,388.63 113.91,387.63C113.65,386.63 113.37,385.64 113.1,384.64C112.83,383.64 112.56,382.65 112.31,381.65C112.06,380.65 111.8,379.66 111.59,378.66C111.38,377.67 111.19,376.67 111.04,375.67C110.89,374.68 110.78,373.68 110.7,372.68C110.62,371.68 110.57,370.69 110.56,369.69C110.55,368.69 110.58,367.7 110.62,366.7C110.66,365.71 110.73,364.71 110.81,363.72C110.89,362.72 110.99,361.73 111.09,360.73C111.19,359.73 111.3,358.74 111.39,357.74C111.48,356.74 111.57,355.75 111.63,354.75C111.69,353.75 111.74,352.76 111.76,351.76C111.78,350.76 111.78,349.77 111.75,348.77C111.72,347.77 111.67,346.78 111.6,345.78C111.53,344.78 111.43,343.79 111.33,342.79C111.23,341.79 111.1,340.8 111,339.8C110.9,338.8 110.79,337.81 110.71,336.81C110.63,335.81 110.56,334.82 110.52,333.82C110.48,332.82 110.47,331.83 110.47,330.83C110.47,329.83 110.51,328.84 110.54,327.84C110.57,326.84 110.63,325.85 110.67,324.85C110.71,323.85 110.76,322.86 110.78,321.86C110.8,320.87 110.81,319.87 110.8,318.88C110.79,317.88 110.76,316.89 110.72,315.89C110.67,314.89 110.6,313.9 110.53,312.9C110.46,311.9 110.38,310.91 110.31,309.91C110.24,308.91 110.16,307.92 110.09,306.92C110.02,305.92 109.96,304.93 109.91,303.93C109.86,302.93 109.82,301.94 109.79,300.94C109.76,299.94 109.74,298.95 109.72,297.95C109.7,296.95 109.69,295.96 109.68,294.96C109.67,293.96 109.66,292.97 109.65,291.97C109.64,290.97 109.63,289.98 109.62,288.98C109.61,287.98 109.6,286.99 109.6,285.99C109.6,284.99 109.6,284 109.61,283C109.62,282 109.63,281.01 109.64,280.01C109.65,279.01 109.67,278.02 109.68,277.02C109.69,276.03 109.7,275.03 109.7,274.04C109.7,273.04 109.69,272.05 109.67,271.05C109.65,270.05 109.62,269.06 109.58,268.06C109.54,267.06 109.49,266.07 109.44,265.07C109.39,264.07 109.34,263.08 109.29,262.08C109.24,261.08 109.19,260.09 109.14,259.09C109.1,258.09 109.06,257.1 109.02,256.1C108.98,255.1 108.95,254.11 108.92,253.11C108.89,252.11 108.86,251.12 108.84,250.12C108.82,249.12 108.81,248.13 108.79,247.13C108.78,246.13 108.76,245.14 108.75,244.14C108.74,243.14 108.74,242.15 108.73,241.15C108.72,240.15 108.72,239.16 108.71,238.16C108.7,237.16 108.7,236.17 108.69,235.17C108.68,234.17 108.68,233.18 108.67,232.18C108.67,231.19 108.66,230.19 108.66,229.2C108.66,228.2 108.65,227.21 108.65,226.21C108.65,225.21 108.66,224.22 108.66,223.22C108.66,222.22 108.67,221.23 108.67,220.23C108.68,219.23 108.68,218.24 108.69,217.24C108.69,216.24 108.7,215.25 108.7,214.25C108.7,213.25 108.7,212.26 108.7,211.26C108.7,210.26 108.69,209.27 108.68,208.27C108.67,207.27 108.66,206.28 108.64,205.28C108.62,204.28 108.6,203.29 108.58,202.29C108.56,201.29 108.53,200.3 108.5,199.3C108.47,198.3 108.43,197.31 108.4,196.31C108.37,195.31 108.33,194.32 108.3,193.32C108.27,192.32 108.25,191.33 108.23,190.33C108.21,189.33 108.19,188.34 108.19,187.34C108.19,186.35 108.19,185.35 108.2,184.36C108.21,183.36 108.24,182.37 108.27,181.37C108.3,180.37 108.35,179.38 108.4,178.38C108.45,177.38 108.51,176.39 108.56,175.39C108.62,174.39 108.68,173.4 108.73,172.4C108.78,171.4 108.84,170.41 108.88,169.41C108.92,168.41 108.96,167.42 108.99,166.42C109.02,165.42 109.04,164.43 109.05,163.43C109.06,162.43 109.05,161.44 109.05,160.44C109.05,159.44 109.03,158.45 109.02,157.45C109.01,156.45 108.99,155.46 108.98,154.46C108.97,153.46 108.95,152.47 108.94,151.47C108.93,150.47 108.92,149.48 108.91,148.48C108.9,147.48 108.9,146.49 108.89,145.49C108.88,144.49 108.88,143.5 108.87,142.5C108.86,141.51 108.85,140.51 108.84,139.52C108.83,138.52 108.82,137.53 108.81,136.53C108.8,135.53 108.79,134.54 108.77,133.54C108.75,132.54 108.73,131.55 108.71,130.55C108.69,129.55 108.67,128.56 108.64,127.56C108.61,126.56 108.58,125.57 108.55,124.57C108.52,123.57 108.48,122.58 108.44,121.58C108.4,120.58 108.37,119.59 108.33,118.59C108.3,117.59 108.26,116.6 108.23,115.6C108.2,114.6 108.17,113.61 108.15,112.61C108.13,111.61 108.11,110.62 108.1,109.62C108.09,108.62 108.09,107.63 108.09,106.63C108.09,105.63 108.09,104.64 108.1,103.64C108.11,102.64 108.12,101.65 108.14,100.65C108.16,99.65 108.18,98.66 108.21,97.66C108.23,96.67 108.27,95.67 108.29,94.68C108.32,93.68 108.34,92.69 108.36,91.69C108.38,90.69 108.4,89.7 108.41,88.7C108.42,87.7 108.42,86.71 108.41,85.71C108.4,84.71 108.39,83.72 108.37,82.72C108.35,81.72 108.32,80.73 108.3,79.73C108.27,78.73 108.25,77.74 108.22,76.74C108.19,75.74 108.16,74.75 108.14,73.75C108.12,72.75 108.1,71.76 108.08,70.76Q108.06,69.76 108.04,67.77L107.96,67.77Q107.94,69.76 107.92,70.76C107.9,71.76 107.88,72.75 107.86,73.75C107.84,74.75 107.81,75.74 107.78,76.74C107.75,77.74 107.73,78.73 107.7,79.73C107.68,80.73 107.65,81.72 107.63,82.72C107.61,83.72 107.6,84.71 107.59,85.71C107.58,86.71 107.58,87.7 107.59,88.7C107.6,89.7 107.62,90.69 107.64,91.69C107.66,92.69 107.68,93.68 107.71,94.68C107.73,95.67 107.77,96.67 107.79,97.66C107.82,98.66 107.84,99.65 107.86,100.65C107.88,101.65 107.89,102.64 107.9,103.64C107.91,104.64 107.91,105.63 107.91,106.63C107.91,107.63 107.91,108.62 107.9,109.62C107.89,110.62 107.87,111.61 107.85,112.61C107.83,113.61 107.8,114.6 107.77,115.6C107.74,116.6 107.7,117.59 107.67,118.59C107.63,119.59 107.6,120.58 107.56,121.58C107.52,122.58 107.48,123.57 107.45,124.57C107.42,125.57 107.39,126.56 107.36,127.56C107.33,128.56 107.31,129.55 107.29,130.55C107.27,131.55 107.25,132.54 107.23,133.54C107.21,134.54 107.2,135.53 107.19,136.53C107.18,137.53 107.17,138.52 107.16,139.52C107.15,140.51 107.14,141.51 107.13,142.5C107.12,143.5 107.12,144.49 107.11,145.49C107.1,146.49 107.1,147.48 107.09,148.48C107.08,149.48 107.07,150.47 107.06,151.47C107.05,152.47 107.03,153.46 107.02,154.46C107.01,155.46 106.99,156.45 106.98,157.45C106.97,158.45 106.95,159.44 106.95,160.44C106.95,161.44 106.94,162.43 106.95,163.43C106.96,164.43 106.98,165.42 107.01,166.42C107.04,167.42 107.08,168.41 107.12,169.41C107.16,170.41 107.22,171.4 107.27,172.4C107.32,173.4 107.38,174.39 107.44,175.39C107.49,176.39 107.55,177.38 107.6,178.38C107.65,179.38 107.7,180.37 107.73,181.37C107.76,182.37 107.79,183.36 107.8,184.36C107.81,185.35 107.81,186.35 107.81,187.34C107.81,188.34 107.79,189.33 107.77,190.33C107.75,191.33 107.73,192.32 107.7,193.32C107.67,194.32 107.63,195.31 107.6,196.31C107.57,197.31 107.53,198.3 107.5,199.3C107.47,200.3 107.44,201.29 107.42,202.29C107.4,203.29 107.38,204.28 107.36,205.28C107.34,206.28 107.33,207.27 107.32,208.27C107.31,209.27 107.3,210.26 107.3,211.26C107.3,212.26 107.3,213.25 107.3,214.25C107.3,215.25 107.31,216.24 107.31,217.24C107.32,218.24 107.32,219.23 107.33,220.23C107.33,221.23 107.34,222.22 107.34,223.22C107.34,224.22 107.35,225.21 107.35,226.21C107.35,227.21 107.34,228.2 107.34,229.2C107.34,230.19 107.33,231.19 107.33,232.18C107.32,233.18 107.32,234.17 107.31,235.17C107.3,236.17 107.3,237.16 107.29,238.16C107.28,239.16 107.28,240.15 107.27,241.15C107.26,242.15 107.26,243.14 107.25,244.14C107.24,245.14 107.22,246.13 107.21,247.13C107.19,248.13 107.18,249.12 107.16,250.12C107.14,251.12 107.11,252.11 107.08,253.11C107.05,254.11 107.02,255.1 106.98,256.1C106.94,257.1 106.9,258.09 106.86,259.09C106.81,260.09 106.76,261.08 106.71,262.08C106.66,263.08 106.61,264.07 106.56,265.07C106.51,266.07 106.46,267.06 106.42,268.06C106.38,269.06 106.35,270.05 106.33,271.05C106.31,272.05 106.3,273.04 106.3,274.04C106.3,275.03 106.31,276.03 106.32,277.02C106.33,278.02 106.35,279.01 106.36,280.01C106.37,281.01 106.38,282 106.39,283C106.4,284 106.4,284.99 106.4,285.99C106.4,286.99 106.39,287.98 106.38,288.98C106.37,289.98 106.36,290.97 106.35,291.97C106.34,292.97 106.33,293.96 106.32,294.96C106.31,295.96 106.3,296.95 106.28,297.95C106.26,298.95 106.24,299.94 106.21,300.94C106.18,301.94 106.14,302.93 106.09,303.93C106.04,304.93 105.98,305.92 105.91,306.92C105.84,307.92 105.76,308.91 105.69,309.91C105.62,310.91 105.54,311.9 105.47,312.9C105.4,313.9 105.33,314.89 105.28,315.89C105.24,316.89 105.21,317.88 105.2,318.88C105.19,319.87 105.2,320.87 105.22,321.86C105.24,322.86 105.29,323.85 105.33,324.85C105.37,325.85 105.43,326.84 105.46,327.84C105.49,328.84 105.53,329.83 105.53,330.83C105.53,331.83 105.52,332.82 105.48,333.82C105.44,334.82 105.37,335.81 105.29,336.81C105.21,337.81 105.1,338.8 105,339.8C104.9,340.8 104.77,341.79 104.67,342.79C104.57,343.79 104.47,344.78 104.4,345.78C104.33,346.78 104.28,347.77 104.25,348.77C104.22,349.77 104.22,350.76 104.24,351.76C104.26,352.76 104.31,353.75 104.37,354.75C104.43,355.75 104.52,356.74 104.61,357.74C104.7,358.74 104.81,359.73 104.91,360.73C105.01,361.73 105.11,362.72 105.19,363.72C105.27,364.71 105.34,365.71 105.38,366.7C105.42,367.7 105.45,368.69 105.44,369.69C105.43,370.69 105.38,371.68 105.3,372.68C105.22,373.68 105.11,374.68 104.96,375.67C104.81,376.67 104.62,377.67 104.41,378.66C104.2,379.66 103.94,380.65 103.69,381.65C103.44,382.65 103.17,383.64 102.9,384.64C102.63,385.64 102.35,386.63 102.09,387.63C101.83,388.63 101.59,389.62 101.36,390.62C101.13,391.62 100.92,392.61 100.72,393.61C100.52,394.61 100.34,395.6 100.16,396.6C99.98,397.6 99.82,398.59 99.65,399.59C99.48,400.59 99.31,401.58 99.13,402.58C98.95,403.58 98.77,404.57 98.59,405.57C98.41,406.57 98.23,407.56 98.03,408.56C97.84,409.55 97.63,410.55 97.42,411.54C97.2,412.54 96.99,413.54 96.74,414.53C96.49,415.53 96.22,416.53 95.91,417.52C95.59,418.52 95.25,419.52 94.85,420.51C94.44,421.52 93.98,422.52 93.45,423.5C92.91,424.51 92.3,425.51 91.62,426.49C90.91,427.51 90.14,428.51 89.28,429.48C88.38,430.5 87.39,431.5 86.33,432.47C85.2,433.5 83.97,434.49 82.67,435.46C81.3,436.49 79.82,437.47 78.3,438.45C76.72,439.47 75.03,440.45 73.35,441.44C71.63,442.45 69.83,443.43 68.1,444.43C66.4,445.42 64.65,446.39 63.07,447.42C61.58,448.39 60.06,449.35 58.84,450.41C57.75,451.36 56.66,452.33 56.03,453.4C55.48,454.34 55.06,455.39 55.08,456.38C55.1,457.38 55.57,458.43 56.15,459.37C56.82,460.44 57.94,461.41 59.04,462.36C60.27,463.42 61.78,464.38 63.24,465.35C64.78,466.37 66.46,467.34 68.06,468.34C69.65,469.33 71.29,470.31 72.79,471.33C74.21,472.3 75.61,473.28 76.83,474.32C77.95,475.28 79.01,476.27 79.86,477.31C80.64,478.27 81.3,479.27 81.82,480.3C82.31,481.27 82.63,482.28 82.92,483.29C83.2,484.28 83.34,485.28 83.53,486.28C83.72,487.28 83.85,488.28 84.08,489.27C84.31,490.27 84.57,491.27 84.9,492.26C85.24,493.27 85.66,494.26 86.11,495.25C86.57,496.26 87.11,497.25 87.65,498.24C88.19,499.24 88.77,500.23 89.34,501.22C89.91,502.22 90.49,503.21 91.05,504.21C91.61,505.2 92.15,506.2 92.69,507.2C93.23,508.2 93.76,509.19 94.31,510.19C94.86,511.19 95.41,512.18 95.97,513.18C96.53,514.18 97.1,515.17 97.66,516.17C98.22,517.17 98.79,518.16 99.32,519.16C99.85,520.15 100.37,521.14 100.83,522.15C101.29,523.14 101.71,524.14 102.08,525.14C102.44,526.13 102.76,527.13 103.04,528.13C103.31,529.12 103.53,530.12 103.74,531.12C103.95,532.11 104.11,533.11 104.28,534.11C104.45,535.11 104.6,536.1 104.76,537.1C104.92,538.1 105.08,539.09 105.24,540.09C105.4,541.09 105.56,542.08 105.72,543.08C105.88,544.07 106.04,545.07 106.19,546.06C106.34,547.06 106.48,548.05 106.61,549.05C106.74,550.05 106.87,551.04 106.98,552.04C107.09,553.04 107.2,554.03 107.29,555.03C107.38,556.03 107.45,557.02 107.52,558.02C107.59,559.02 107.65,560.01 107.7,561.01C107.75,562.01 107.79,563 107.83,564C107.86,565 107.89,565.99 107.91,566.99Q107.93,567.99 107.95,569.98Z" style="vector-effect: non-scaling-stroke; stroke-width: 2px; stroke: rgb(239, 85, 59); stroke-opacity: 1; fill: rgb(239, 85, 59); fill-opacity: 0.5;"/><path class="violin" d="M324.01,553.93Q324.02,551.6 324.02,550.43C324.02,549.26 324.03,548.1 324.03,546.93C324.04,545.76 324.04,544.6 324.05,543.43C324.06,542.27 324.08,541.1 324.09,539.94C324.1,538.77 324.11,537.61 324.13,536.44C324.15,535.27 324.17,534.11 324.2,532.94C324.23,531.77 324.27,530.61 324.31,529.44C324.35,528.28 324.4,527.11 324.46,525.95C324.52,524.78 324.59,523.62 324.67,522.45C324.75,521.28 324.85,520.12 324.95,518.95C325.05,517.78 325.16,516.62 325.27,515.45C325.39,514.28 325.51,513.12 325.64,511.95C325.77,510.79 325.9,509.62 326.03,508.46C326.16,507.29 326.3,506.13 326.44,504.96C326.58,503.79 326.72,502.63 326.87,501.46C327.02,500.29 327.16,499.13 327.32,497.96C327.47,496.8 327.63,495.63 327.8,494.47C327.97,493.3 328.15,492.14 328.34,490.97C328.53,489.8 328.73,488.63 328.96,487.47C329.19,486.3 329.44,485.13 329.73,483.97C330.02,482.8 330.34,481.64 330.72,480.48C331.11,479.31 331.54,478.14 332.03,476.98C332.53,475.8 333.09,474.63 333.72,473.48C334.36,472.3 335.08,471.13 335.84,469.98C336.61,468.8 337.47,467.65 338.32,466.49C339.19,465.32 340.11,464.16 341,462.99C341.89,461.82 342.8,460.67 343.65,459.49C344.49,458.33 345.31,457.17 346.06,455.99C346.79,454.84 347.47,453.68 348.08,452.5C348.67,451.35 349.2,450.18 349.68,449C350.16,447.84 350.56,446.67 350.96,445.5C351.35,444.34 351.71,443.17 352.06,442C352.41,440.84 352.75,439.68 353.08,438.51C353.41,437.35 353.75,436.18 354.06,435.01C354.36,433.85 354.68,432.68 354.91,431.51C355.14,430.35 355.35,429.18 355.46,428.01C355.57,426.85 355.61,425.68 355.56,424.52C355.51,423.35 355.36,422.18 355.17,421.02C354.98,419.85 354.69,418.68 354.41,417.52C354.13,416.35 353.78,415.19 353.5,414.02C353.22,412.86 352.93,411.69 352.73,410.52C352.53,409.36 352.38,408.2 352.31,407.03C352.24,405.87 352.25,404.7 352.3,403.53C352.35,402.36 352.5,401.2 352.61,400.03C352.72,398.86 352.89,397.7 352.95,396.53C353.01,395.37 353.07,394.2 352.97,393.04C352.87,391.87 352.69,390.69 352.37,389.54C352.04,388.36 351.56,387.19 351.02,386.04C350.46,384.85 349.76,383.7 349.07,382.54C348.37,381.37 347.58,380.22 346.86,379.05C346.15,377.89 345.41,376.73 344.78,375.55C344.16,374.4 343.59,373.23 343.1,372.05C342.62,370.9 342.24,369.72 341.87,368.55C341.51,367.39 341.24,366.22 340.92,365.06C340.6,363.89 340.32,362.72 339.95,361.56C339.58,360.39 339.18,359.22 338.71,358.06C338.23,356.88 337.68,355.72 337.11,354.56C336.53,353.39 335.86,352.23 335.24,351.07C334.62,349.9 333.95,348.75 333.38,347.57C332.82,346.41 332.27,345.25 331.83,344.07C331.4,342.92 331.04,341.75 330.78,340.57C330.53,339.42 330.37,338.25 330.28,337.08C330.19,335.92 330.21,334.75 330.23,333.58C330.25,332.41 330.35,331.25 330.42,330.08C330.49,328.91 330.6,327.75 330.64,326.58C330.68,325.42 330.71,324.25 330.69,323.09C330.67,321.92 330.6,320.75 330.49,319.59C330.38,318.42 330.22,317.25 330.04,316.09C329.86,314.92 329.64,313.76 329.43,312.59C329.22,311.42 328.99,310.26 328.8,309.09C328.61,307.93 328.43,306.77 328.29,305.6C328.15,304.44 328.03,303.27 327.94,302.1C327.85,300.93 327.8,299.77 327.74,298.6C327.69,297.43 327.66,296.27 327.61,295.1C327.56,293.94 327.52,292.77 327.46,291.61C327.4,290.44 327.32,289.28 327.23,288.11C327.14,286.94 327.01,285.78 326.9,284.61C326.78,283.44 326.66,282.28 326.54,281.11C326.42,279.95 326.3,278.78 326.2,277.62C326.1,276.45 326.01,275.29 325.94,274.12C325.87,272.95 325.83,271.79 325.79,270.62C325.75,269.45 325.73,268.29 325.72,267.12C325.71,265.96 325.7,264.79 325.7,263.63C325.7,262.46 325.7,261.3 325.7,260.13C325.7,258.96 325.7,257.8 325.69,256.63C325.68,255.46 325.67,254.3 325.66,253.13C325.65,251.97 325.63,250.8 325.62,249.64C325.61,248.47 325.6,247.31 325.59,246.14C325.58,244.97 325.58,243.81 325.58,242.64C325.58,241.47 325.58,240.31 325.59,239.14C325.6,237.98 325.61,236.81 325.62,235.65C325.63,234.48 325.63,233.32 325.63,232.15C325.63,230.98 325.62,229.82 325.6,228.65C325.58,227.48 325.55,226.32 325.52,225.15C325.48,223.98 325.44,222.82 325.39,221.65C325.34,220.49 325.28,219.32 325.22,218.16C325.16,216.99 325.09,215.83 325.03,214.66C324.97,213.49 324.91,212.33 324.86,211.16C324.81,209.99 324.77,208.83 324.73,207.66C324.69,206.5 324.67,205.33 324.64,204.17C324.61,203 324.59,201.84 324.57,200.67C324.55,199.5 324.54,198.34 324.53,197.17C324.51,196 324.5,194.84 324.48,193.67C324.47,192.51 324.45,191.34 324.44,190.18C324.42,189.01 324.41,187.85 324.39,186.68C324.38,185.51 324.36,184.35 324.35,183.18C324.34,182.01 324.32,180.85 324.31,179.68C324.3,178.52 324.3,177.35 324.3,176.19C324.3,175.02 324.3,173.86 324.3,172.69C324.3,171.52 324.32,170.36 324.33,169.19C324.34,168.02 324.35,166.86 324.37,165.69C324.39,164.53 324.41,163.36 324.43,162.2C324.45,161.03 324.46,159.87 324.48,158.7C324.5,157.53 324.51,156.37 324.53,155.2C324.54,154.03 324.56,152.87 324.57,151.7C324.58,150.54 324.59,149.37 324.59,148.21C324.6,147.04 324.6,145.88 324.6,144.71C324.6,143.54 324.61,142.38 324.61,141.21C324.61,140.04 324.61,138.88 324.61,137.71C324.61,136.55 324.61,135.38 324.61,134.22C324.61,133.05 324.61,131.89 324.61,130.72C324.61,129.55 324.61,128.39 324.61,127.22C324.61,126.05 324.6,124.89 324.6,123.72C324.6,122.55 324.6,121.39 324.59,120.22C324.59,119.06 324.58,117.89 324.57,116.73C324.56,115.56 324.55,114.4 324.54,113.23C324.53,112.06 324.52,110.9 324.51,109.73C324.5,108.56 324.49,107.4 324.48,106.23C324.47,105.07 324.45,103.9 324.44,102.74C324.43,101.57 324.42,100.41 324.41,99.24C324.4,98.07 324.39,96.91 324.38,95.74C324.37,94.57 324.37,93.41 324.36,92.24C324.36,91.08 324.35,89.91 324.35,88.75C324.35,87.58 324.35,86.42 324.35,85.25C324.35,84.08 324.37,82.92 324.37,81.75C324.37,80.58 324.37,79.42 324.37,78.25C324.37,77.09 324.38,75.92 324.37,74.76C324.36,73.59 324.34,72.43 324.33,71.26C324.31,70.09 324.3,68.93 324.28,67.76C324.26,66.59 324.23,65.43 324.21,64.26C324.19,63.1 324.17,61.93 324.15,60.77C324.13,59.6 324.11,58.44 324.09,57.27C324.07,56.1 324.06,54.94 324.05,53.77Q324.04,52.6 324.03,50.27L323.97,50.27Q323.96,52.6 323.95,53.77C323.94,54.94 323.93,56.1 323.91,57.27C323.89,58.44 323.87,59.6 323.85,60.77C323.83,61.93 323.81,63.1 323.79,64.26C323.77,65.43 323.74,66.59 323.72,67.76C323.7,68.93 323.69,70.09 323.67,71.26C323.66,72.43 323.64,73.59 323.63,74.76C323.62,75.92 323.63,77.09 323.63,78.25C323.63,79.42 323.63,80.58 323.63,81.75C323.63,82.92 323.65,84.08 323.65,85.25C323.65,86.42 323.65,87.58 323.65,88.75C323.65,89.91 323.64,91.08 323.64,92.24C323.63,93.41 323.63,94.57 323.62,95.74C323.61,96.91 323.6,98.07 323.59,99.24C323.58,100.41 323.57,101.57 323.56,102.74C323.55,103.9 323.53,105.07 323.52,106.23C323.51,107.4 323.5,108.56 323.49,109.73C323.48,110.9 323.47,112.06 323.46,113.23C323.45,114.4 323.44,115.56 323.43,116.73C323.42,117.89 323.41,119.06 323.41,120.22C323.4,121.39 323.4,122.55 323.4,123.72C323.4,124.89 323.39,126.05 323.39,127.22C323.39,128.39 323.39,129.55 323.39,130.72C323.39,131.89 323.39,133.05 323.39,134.22C323.39,135.38 323.39,136.55 323.39,137.71C323.39,138.88 323.39,140.04 323.39,141.21C323.39,142.38 323.4,143.54 323.4,144.71C323.4,145.88 323.4,147.04 323.41,148.21C323.41,149.37 323.42,150.54 323.43,151.7C323.44,152.87 323.46,154.03 323.47,155.2C323.49,156.37 323.5,157.53 323.52,158.7C323.54,159.87 323.55,161.03 323.57,162.2C323.59,163.36 323.61,164.53 323.63,165.69C323.65,166.86 323.66,168.02 323.67,169.19C323.68,170.36 323.7,171.52 323.7,172.69C323.7,173.86 323.7,175.02 323.7,176.19C323.7,177.35 323.7,178.52 323.69,179.68C323.68,180.85 323.66,182.01 323.65,183.18C323.64,184.35 323.62,185.51 323.61,186.68C323.59,187.85 323.58,189.01 323.56,190.18C323.55,191.34 323.53,192.51 323.52,193.67C323.5,194.84 323.49,196 323.47,197.17C323.46,198.34 323.45,199.5 323.43,200.67C323.41,201.84 323.39,203 323.36,204.17C323.33,205.33 323.31,206.5 323.27,207.66C323.23,208.83 323.19,209.99 323.14,211.16C323.09,212.33 323.03,213.49 322.97,214.66C322.91,215.83 322.84,216.99 322.78,218.16C322.72,219.32 322.66,220.49 322.61,221.65C322.56,222.82 322.52,223.98 322.48,225.15C322.45,226.32 322.42,227.48 322.4,228.65C322.38,229.82 322.37,230.98 322.37,232.15C322.37,233.32 322.37,234.48 322.38,235.65C322.39,236.81 322.4,237.98 322.41,239.14C322.42,240.31 322.42,241.47 322.42,242.64C322.42,243.81 322.42,244.97 322.41,246.14C322.4,247.31 322.39,248.47 322.38,249.64C322.37,250.8 322.35,251.97 322.34,253.13C322.33,254.3 322.32,255.46 322.31,256.63C322.3,257.8 322.3,258.96 322.3,260.13C322.3,261.3 322.3,262.46 322.3,263.63C322.3,264.79 322.29,265.96 322.28,267.12C322.27,268.29 322.25,269.45 322.21,270.62C322.17,271.79 322.13,272.95 322.06,274.12C321.99,275.29 321.9,276.45 321.8,277.62C321.7,278.78 321.58,279.95 321.46,281.11C321.34,282.28 321.22,283.44 321.1,284.61C320.99,285.78 320.86,286.94 320.77,288.11C320.68,289.28 320.6,290.44 320.54,291.61C320.48,292.77 320.44,293.94 320.39,295.1C320.34,296.27 320.31,297.43 320.26,298.6C320.2,299.77 320.15,300.93 320.06,302.1C319.97,303.27 319.85,304.44 319.71,305.6C319.57,306.77 319.39,307.93 319.2,309.09C319.01,310.26 318.78,311.42 318.57,312.59C318.36,313.76 318.14,314.92 317.96,316.09C317.78,317.25 317.62,318.42 317.51,319.59C317.4,320.75 317.33,321.92 317.31,323.09C317.29,324.25 317.32,325.42 317.36,326.58C317.4,327.75 317.51,328.91 317.58,330.08C317.65,331.25 317.75,332.41 317.77,333.58C317.79,334.75 317.81,335.92 317.72,337.08C317.63,338.25 317.47,339.42 317.22,340.57C316.96,341.75 316.6,342.92 316.17,344.07C315.73,345.25 315.18,346.41 314.62,347.57C314.05,348.75 313.38,349.9 312.76,351.07C312.14,352.23 311.47,353.39 310.89,354.56C310.32,355.72 309.77,356.88 309.29,358.06C308.82,359.22 308.42,360.39 308.05,361.56C307.68,362.72 307.4,363.89 307.08,365.06C306.76,366.22 306.49,367.39 306.13,368.55C305.76,369.72 305.38,370.9 304.9,372.05C304.41,373.23 303.84,374.4 303.22,375.55C302.59,376.73 301.85,377.89 301.14,379.05C300.42,380.22 299.63,381.37 298.93,382.54C298.24,383.7 297.54,384.85 296.98,386.04C296.44,387.19 295.96,388.36 295.63,389.54C295.31,390.69 295.13,391.87 295.03,393.04C294.93,394.2 294.99,395.37 295.05,396.53C295.11,397.7 295.28,398.86 295.39,400.03C295.5,401.2 295.65,402.36 295.7,403.53C295.75,404.7 295.76,405.87 295.69,407.03C295.62,408.2 295.47,409.36 295.27,410.52C295.07,411.69 294.78,412.86 294.5,414.02C294.22,415.19 293.87,416.35 293.59,417.52C293.31,418.68 293.02,419.85 292.83,421.02C292.64,422.18 292.49,423.35 292.44,424.52C292.39,425.68 292.43,426.85 292.54,428.01C292.65,429.18 292.86,430.35 293.09,431.51C293.32,432.68 293.64,433.85 293.94,435.01C294.25,436.18 294.59,437.35 294.92,438.51C295.25,439.68 295.59,440.84 295.94,442C296.29,443.17 296.65,444.34 297.04,445.5C297.44,446.67 297.84,447.84 298.32,449C298.8,450.18 299.33,451.35 299.92,452.5C300.53,453.68 301.21,454.84 301.94,455.99C302.69,457.17 303.51,458.33 304.35,459.49C305.2,460.67 306.11,461.82 307,462.99C307.89,464.16 308.81,465.32 309.68,466.49C310.53,467.65 311.39,468.8 312.16,469.98C312.92,471.13 313.64,472.3 314.28,473.48C314.91,474.63 315.47,475.8 315.97,476.98C316.46,478.14 316.89,479.31 317.28,480.48C317.66,481.64 317.98,482.8 318.27,483.97C318.56,485.13 318.81,486.3 319.04,487.47C319.27,488.63 319.47,489.8 319.66,490.97C319.85,492.14 320.03,493.3 320.2,494.47C320.37,495.63 320.53,496.8 320.68,497.96C320.84,499.13 320.98,500.29 321.13,501.46C321.28,502.63 321.42,503.79 321.56,504.96C321.7,506.13 321.84,507.29 321.97,508.46C322.1,509.62 322.23,510.79 322.36,511.95C322.49,513.12 322.61,514.28 322.73,515.45C322.84,516.62 322.95,517.78 323.05,518.95C323.15,520.12 323.25,521.28 323.33,522.45C323.41,523.62 323.48,524.78 323.54,525.95C323.6,527.11 323.65,528.28 323.69,529.44C323.73,530.61 323.77,531.77 323.8,532.94C323.83,534.11 323.85,535.27 323.87,536.44C323.89,537.61 323.9,538.77 323.91,539.94C323.92,541.1 323.94,542.27 323.95,543.43C323.96,544.6 323.96,545.76 323.97,546.93C323.97,548.1 323.98,549.26 323.98,550.43Q323.98,551.6 323.99,553.93Z" style="vector-effect: non-scaling-stroke; stroke-width: 2px; stroke: rgb(239, 85, 59); stroke-opacity: 1; fill: rgb(239, 85, 59); fill-opacity: 0.5;"/><path class="violin" d="M540.01,589Q540.02,584.91 540.03,582.87C540.04,580.83 540.05,578.78 540.06,576.74C540.07,574.69 540.09,572.65 540.11,570.6C540.13,568.56 540.16,566.51 540.19,564.47C540.22,562.43 540.26,560.38 540.31,558.34C540.36,556.3 540.41,554.25 540.48,552.21C540.55,550.17 540.62,548.12 540.71,546.08C540.8,544.04 540.89,541.99 541,539.95C541.11,537.9 541.23,535.86 541.37,533.81C541.51,531.77 541.66,529.72 541.83,527.68C542,525.64 542.19,523.59 542.4,521.55C542.61,519.51 542.83,517.46 543.08,515.42C543.33,513.38 543.61,511.33 543.92,509.29C544.23,507.24 544.56,505.19 544.94,503.15C545.32,501.1 545.73,499.06 546.19,497.02C546.65,494.97 547.16,492.93 547.71,490.89C548.27,488.84 548.88,486.8 549.53,484.76C550.19,482.71 550.91,480.67 551.65,478.63C552.39,476.58 553.19,474.53 553.97,472.49C554.75,470.44 555.57,468.41 556.32,466.36C557.07,464.32 557.82,462.28 558.47,460.23C559.11,458.2 559.71,456.15 560.19,454.1C560.66,452.07 561.05,450.02 561.33,447.97C561.61,445.93 561.77,443.89 561.86,441.84C561.95,439.8 561.92,437.74 561.86,435.7C561.8,433.65 561.65,431.61 561.49,429.57C561.33,427.53 561.12,425.48 560.92,423.44C560.72,421.4 560.49,419.35 560.27,417.31C560.05,415.27 559.83,413.22 559.61,411.18C559.39,409.13 559.17,407.09 558.95,405.04C558.73,403 558.5,400.95 558.28,398.91C558.06,396.87 557.83,394.82 557.61,392.78C557.38,390.74 557.16,388.69 556.93,386.65C556.7,384.61 556.47,382.56 556.24,380.52C556,378.47 555.77,376.43 555.52,374.38C555.27,372.34 555.01,370.29 554.73,368.25C554.45,366.21 554.15,364.16 553.83,362.12C553.51,360.07 553.16,358.03 552.8,355.99C552.44,353.95 552.05,351.9 551.67,349.86C551.29,347.82 550.9,345.78 550.53,343.73C550.16,341.69 549.8,339.64 549.47,337.59C549.14,335.55 548.84,333.51 548.56,331.46C548.29,329.42 548.04,327.37 547.82,325.33C547.6,323.29 547.42,321.24 547.26,319.2C547.1,317.16 546.97,315.11 546.85,313.07C546.73,311.02 546.64,308.98 546.55,306.93C546.46,304.89 546.39,302.84 546.32,300.8C546.25,298.76 546.18,296.71 546.11,294.67C546.04,292.63 545.97,290.58 545.89,288.54C545.81,286.5 545.73,284.45 545.64,282.41C545.55,280.36 545.45,278.32 545.34,276.27C545.24,274.23 545.12,272.18 545.01,270.14C544.9,268.1 544.79,266.05 544.68,264.01C544.57,261.97 544.46,259.92 544.36,257.88C544.26,255.84 544.17,253.79 544.09,251.75C544.01,249.71 543.94,247.66 543.87,245.62C543.8,243.57 543.75,241.53 543.69,239.48C543.64,237.44 543.59,235.39 543.54,233.35C543.49,231.31 543.45,229.26 543.39,227.22C543.33,225.18 543.27,223.13 543.2,221.09C543.13,219.05 543.06,217 542.98,214.96C542.9,212.91 542.82,210.87 542.74,208.82C542.66,206.78 542.57,204.73 542.5,202.69C542.43,200.65 542.35,198.6 542.3,196.56C542.25,194.52 542.2,192.47 542.18,190.43C542.16,188.39 542.15,186.34 542.15,184.3C542.15,182.25 542.18,180.21 542.21,178.16C542.24,176.12 542.3,174.07 542.34,172.03C542.39,169.99 542.44,167.94 542.48,165.9C542.52,163.86 542.56,161.81 542.58,159.77C542.6,157.73 542.6,155.68 542.59,153.64C542.58,151.6 542.55,149.55 542.51,147.51C542.47,145.46 542.42,143.42 542.36,141.37C542.3,139.33 542.23,137.28 542.17,135.24C542.11,133.2 542.04,131.15 541.98,129.11C541.92,127.07 541.87,125.02 541.83,122.98C541.79,120.94 541.75,118.89 541.72,116.85C541.69,114.8 541.68,112.76 541.66,110.71C541.64,108.67 541.63,106.62 541.62,104.58C541.61,102.54 541.6,100.49 541.58,98.45C541.56,96.41 541.54,94.36 541.52,92.32C541.49,90.28 541.47,88.23 541.43,86.19C541.39,84.14 541.33,82.1 541.27,80.05C541.21,78.01 541.14,75.96 541.07,73.92C541,71.88 540.92,69.83 540.84,67.79C540.76,65.75 540.68,63.7 540.61,61.66C540.54,59.62 540.47,57.57 540.41,55.53C540.35,53.49 540.29,51.44 540.25,49.4C540.2,47.35 540.17,45.31 540.14,43.26C540.11,41.22 540.09,39.17 540.07,37.13Q540.05,35.09 540.03,31L539.97,31Q539.95,35.09 539.93,37.13C539.91,39.17 539.89,41.22 539.86,43.26C539.83,45.31 539.8,47.35 539.75,49.4C539.71,51.44 539.65,53.49 539.59,55.53C539.53,57.57 539.46,59.62 539.39,61.66C539.32,63.7 539.24,65.75 539.16,67.79C539.08,69.83 539,71.88 538.93,73.92C538.86,75.96 538.79,78.01 538.73,80.05C538.67,82.1 538.61,84.14 538.57,86.19C538.53,88.23 538.51,90.28 538.48,92.32C538.46,94.36 538.44,96.41 538.42,98.45C538.4,100.49 538.39,102.54 538.38,104.58C538.37,106.62 538.36,108.67 538.34,110.71C538.32,112.76 538.31,114.8 538.28,116.85C538.25,118.89 538.21,120.94 538.17,122.98C538.13,125.02 538.08,127.07 538.02,129.11C537.96,131.15 537.89,133.2 537.83,135.24C537.77,137.28 537.7,139.33 537.64,141.37C537.58,143.42 537.53,145.46 537.49,147.51C537.45,149.55 537.42,151.6 537.41,153.64C537.4,155.68 537.4,157.73 537.42,159.77C537.44,161.81 537.48,163.86 537.52,165.9C537.56,167.94 537.61,169.99 537.66,172.03C537.7,174.07 537.76,176.12 537.79,178.16C537.82,180.21 537.85,182.25 537.85,184.3C537.85,186.34 537.84,188.39 537.82,190.43C537.8,192.47 537.75,194.52 537.7,196.56C537.65,198.6 537.57,200.65 537.5,202.69C537.43,204.73 537.34,206.78 537.26,208.82C537.18,210.87 537.1,212.91 537.02,214.96C536.94,217 536.87,219.05 536.8,221.09C536.73,223.13 536.67,225.18 536.61,227.22C536.55,229.26 536.51,231.31 536.46,233.35C536.41,235.39 536.36,237.44 536.31,239.48C536.25,241.53 536.2,243.57 536.13,245.62C536.06,247.66 535.99,249.71 535.91,251.75C535.83,253.79 535.74,255.84 535.64,257.88C535.54,259.92 535.43,261.97 535.32,264.01C535.21,266.05 535.1,268.1 534.99,270.14C534.88,272.18 534.76,274.23 534.66,276.27C534.55,278.32 534.45,280.36 534.36,282.41C534.27,284.45 534.19,286.5 534.11,288.54C534.03,290.58 533.96,292.63 533.89,294.67C533.82,296.71 533.75,298.76 533.68,300.8C533.61,302.84 533.54,304.89 533.45,306.93C533.36,308.98 533.27,311.02 533.15,313.07C533.03,315.11 532.9,317.16 532.74,319.2C532.58,321.24 532.4,323.29 532.18,325.33C531.96,327.37 531.71,329.42 531.44,331.46C531.16,333.51 530.86,335.55 530.53,337.59C530.2,339.64 529.84,341.69 529.47,343.73C529.1,345.78 528.71,347.82 528.33,349.86C527.95,351.9 527.56,353.95 527.2,355.99C526.84,358.03 526.49,360.07 526.17,362.12C525.85,364.16 525.55,366.21 525.27,368.25C524.99,370.29 524.73,372.34 524.48,374.38C524.23,376.43 524,378.47 523.76,380.52C523.53,382.56 523.3,384.61 523.07,386.65C522.84,388.69 522.62,390.74 522.39,392.78C522.17,394.82 521.94,396.87 521.72,398.91C521.5,400.95 521.27,403 521.05,405.04C520.83,407.09 520.61,409.13 520.39,411.18C520.17,413.22 519.95,415.27 519.73,417.31C519.51,419.35 519.28,421.4 519.08,423.44C518.88,425.48 518.67,427.53 518.51,429.57C518.35,431.61 518.2,433.65 518.14,435.7C518.08,437.74 518.05,439.8 518.14,441.84C518.23,443.89 518.39,445.93 518.67,447.97C518.95,450.02 519.34,452.07 519.81,454.1C520.29,456.15 520.89,458.2 521.53,460.23C522.18,462.28 522.93,464.32 523.68,466.36C524.43,468.41 525.25,470.44 526.03,472.49C526.81,474.53 527.61,476.58 528.35,478.63C529.09,480.67 529.81,482.71 530.47,484.76C531.12,486.8 531.73,488.84 532.29,490.89C532.84,492.93 533.35,494.97 533.81,497.02C534.27,499.06 534.68,501.1 535.06,503.15C535.44,505.19 535.77,507.24 536.08,509.29C536.39,511.33 536.67,513.38 536.92,515.42C537.17,517.46 537.39,519.51 537.6,521.55C537.81,523.59 538,525.64 538.17,527.68C538.34,529.72 538.49,531.77 538.63,533.81C538.77,535.86 538.89,537.9 539,539.95C539.11,541.99 539.2,544.04 539.29,546.08C539.38,548.12 539.45,550.17 539.52,552.21C539.59,554.25 539.64,556.3 539.69,558.34C539.74,560.38 539.78,562.43 539.81,564.47C539.84,566.51 539.87,568.56 539.89,570.6C539.91,572.65 539.93,574.69 539.94,576.74C539.95,578.78 539.96,580.83 539.97,582.87Q539.98,584.91 539.99,589Z" style="vector-effect: non-scaling-stroke; stroke-width: 2px; stroke: rgb(239, 85, 59); stroke-opacity: 1; fill: rgb(239, 85, 59); fill-opacity: 0.5;"/><path class="box" d="M94.77,456.68H121.23M94.77,477.05H121.23V433.55H94.77ZM108,477.05V539.52M108,433.55V369.61" style="vector-effect: non-scaling-stroke; stroke-width: 2px; stroke: rgb(239, 85, 59); stroke-opacity: 1; fill: rgb(239, 85, 59); fill-opacity: 0.5;"/><path class="box" d="M310.77,408.4H337.23M310.77,437.79H337.23V376.11H310.77ZM324,437.79V518.41M324,376.11V288.25" style="vector-effect: non-scaling-stroke; stroke-width: 2px; stroke: rgb(239, 85, 59); stroke-opacity: 1; fill: rgb(239, 85, 59); fill-opacity: 0.5;"/><path class="box" d="M526.77,398.38H553.23M526.77,444.44H553.23V333.48H526.77ZM540,444.44V551.96M540,333.48V168.5" style="vector-effect: non-scaling-stroke; stroke-width: 2px; stroke: rgb(239, 85, 59); stroke-opacity: 1; fill: rgb(239, 85, 59); fill-opacity: 0.5;"/><path class="mean" d="M94.77,442.37H121.23" style="fill: none; vector-effect: non-scaling-stroke; stroke-width: 2px; stroke-dasharray: 4px, 2px; stroke: rgb(239, 85, 59); stroke-opacity: 1;"/><path class="mean" d="M310.77,397.73H337.23" style="fill: none; vector-effect: non-scaling-stroke; stroke-width: 2px; stroke-dasharray: 4px, 2px; stroke: rgb(239, 85, 59); stroke-opacity: 1;"/><path class="mean" d="M526.77,375.29H553.23" style="fill: none; vector-effect: non-scaling-stroke; stroke-width: 2px; stroke-dasharray: 4px, 2px; stroke: rgb(239, 85, 59); stroke-opacity: 1;"/></g></g></g><g class="overplot"/><path class="xlines-above crisp" d="M0,0" style="fill: none;"/><path class="ylines-above crisp" d="M0,0" style="fill: none;"/><g class="overlines-above"/><g class="xaxislayer-above"><g class="x2tick"><text text-anchor="middle" x="0" y="733" transform="translate(980.0000000000001,0)" style="font-family: 'Open Sans', verdana, arial, sans-serif; font-size: 12px; fill: rgb(42, 63, 95); fill-opacity: 1; white-space: pre; opacity: 1;">&#60;=1</text></g><g class="x2tick"><text text-anchor="middle" x="0" y="733" transform="translate(1196,0)" style="font-family: 'Open Sans', verdana, arial, sans-serif; font-size: 12px; fill: rgb(42, 63, 95); fill-opacity: 1; white-space: pre; opacity: 1;">(1, 2]</text></g><g class="x2tick"><text text-anchor="middle" x="0" y="733" transform="translate(1412,0)" style="font-family: 'Open Sans', verdana, arial, sans-serif; font-size: 12px; fill: rgb(42, 63, 95); fill-opacity: 1; white-space: pre; opacity: 1;">>2</text></g></g><g class="yaxislayer-above"><g class="y2tick"><text text-anchor="end" x="871.0000000000001" y="4.199999999999999" transform="translate(0,658.68)" style="font-family: 'Open Sans', verdana, arial, sans-serif; font-size: 12px; fill: rgb(42, 63, 95); fill-opacity: 1; white-space: pre; opacity: 1;">0</text></g><g class="y2tick"><text text-anchor="end" x="871.0000000000001" y="4.199999999999999" style="font-family: 'Open Sans', verdana, arial, sans-serif; font-size: 12px; fill: rgb(42, 63, 95); fill-opacity: 1; white-space: pre; opacity: 1;" transform="translate(0,591.44)">10</text></g><g class="y2tick"><text text-anchor="end" x="871.0000000000001" y="4.199999999999999" style="font-family: 'Open Sans', verdana, arial, sans-serif; font-size: 12px; fill: rgb(42, 63, 95); fill-opacity: 1; white-space: pre; opacity: 1;" transform="translate(0,524.2)">20</text></g><g class="y2tick"><text text-anchor="end" x="871.0000000000001" y="4.199999999999999" style="font-family: 'Open Sans', verdana, arial, sans-serif; font-size: 12px; fill: rgb(42, 63, 95); fill-opacity: 1; white-space: pre; opacity: 1;" transform="translate(0,456.97)">30</text></g><g class="y2tick"><text text-anchor="end" x="871.0000000000001" y="4.199999999999999" style="font-family: 'Open Sans', verdana, arial, sans-serif; font-size: 12px; fill: rgb(42, 63, 95); fill-opacity: 1; white-space: pre; opacity: 1;" transform="translate(0,389.73)">40</text></g><g class="y2tick"><text text-anchor="end" x="871.0000000000001" y="4.199999999999999" style="font-family: 'Open Sans', verdana, arial, sans-serif; font-size: 12px; fill: rgb(42, 63, 95); fill-opacity: 1; white-space: pre; opacity: 1;" transform="translate(0,322.49)">50</text></g><g class="y2tick"><text text-anchor="end" x="871.0000000000001" y="4.199999999999999" style="font-family: 'Open Sans', verdana, arial, sans-serif; font-size: 12px; fill: rgb(42, 63, 95); fill-opacity: 1; white-space: pre; opacity: 1;" transform="translate(0,255.25)">60</text></g><g class="y2tick"><text text-anchor="end" x="871.0000000000001" y="4.199999999999999" style="font-family: 'Open Sans', verdana, arial, sans-serif; font-size: 12px; fill: rgb(42, 63, 95); fill-opacity: 1; white-space: pre; opacity: 1;" transform="translate(0,188.01)">70</text></g><g class="y2tick"><text text-anchor="end" x="871.0000000000001" y="4.199999999999999" style="font-family: 'Open Sans', verdana, arial, sans-serif; font-size: 12px; fill: rgb(42, 63, 95); fill-opacity: 1; white-space: pre; opacity: 1;" transform="translate(0,120.77)">80</text></g></g><g class="overaxes-above"/></g></g><g class="polarlayer"/><g class="smithlayer"/><g class="ternarylayer"/><g class="geolayer"/><g class="funnelarealayer"/><g class="pielayer"/><g class="iciclelayer"/><g class="treemaplayer"/><g class="sunburstlayer"/><g class="glimages"/><defs id="topdefs-f28b28"><g class="clips"/></defs><g class="layer-above"><g class="imagelayer"/><g class="shapelayer"/></g><g class="infolayer"><g class="g-gtitle"><text class="gtitle" x="80" y="50" text-anchor="start" dy="0em" style="font-family: 'Open Sans', verdana, arial, sans-serif; font-size: 17px; fill: rgb(42, 63, 95); opacity: 1; font-weight: normal; white-space: pre;">selling_price Distributions</text></g><g class="g-xtitle"><text class="xtitle" x="404" y="761.8" text-anchor="middle" style="font-family: 'Open Sans', verdana, arial, sans-serif; font-size: 14px; fill: rgb(42, 63, 95); opacity: 1; font-weight: normal; white-space: pre;">Hardcover over Paperback</text></g><g class="g-x2title"><text class="x2title" x="1196" y="761.8" text-anchor="middle" style="font-family: 'Open Sans', verdana, arial, sans-serif; font-size: 14px; fill: rgb(42, 63, 95); opacity: 1; font-weight: normal; white-space: pre;">Hardcover over Paperback</text></g><g class="g-ytitle"><text class="ytitle" transform="rotate(-90,40.465625,410)" x="40.465625" y="410" text-anchor="middle" style="font-family: 'Open Sans', verdana, arial, sans-serif; font-size: 14px; fill: rgb(42, 63, 95); opacity: 1; font-weight: normal; white-space: pre;">selling_price</text></g><g class="g-y2title"><text class="y2title" transform="rotate(-90,832.465625,410)" x="832.465625" y="410" text-anchor="middle" style="font-family: 'Open Sans', verdana, arial, sans-serif; font-size: 14px; fill: rgb(42, 63, 95); opacity: 1; font-weight: normal; white-space: pre;">selling_price</text></g><g class="annotation" data-index="0" style="opacity: 1;"><g class="annotation-text-g" transform="rotate(0,404,87)"><g class="cursor-pointer" transform="translate(363,74)"><rect class="bg" x="0.5" y="0.5" width="82" height="25" style="stroke-width: 1px; stroke: rgb(0, 0, 0); stroke-opacity: 0; fill: rgb(0, 0, 0); fill-opacity: 0;"/><text class="annotation-text" text-anchor="middle" x="41.296875" y="19" style="font-family: 'Open Sans', verdana, arial, sans-serif; font-size: 16px; fill: rgb(42, 63, 95); fill-opacity: 1; white-space: pre;">Paperback</text></g></g></g><g class="annotation" data-index="1" style="opacity: 1;"><g class="annotation-text-g" transform="rotate(0,1196,87)"><g class="cursor-pointer" transform="translate(1155,74)"><rect class="bg" x="0.5" y="0.5" width="81" height="25" style="stroke-width: 1px; stroke: rgb(0, 0, 0); stroke-opacity: 0; fill: rgb(0, 0, 0); fill-opacity: 0;"/><text class="annotation-text" text-anchor="middle" x="40.921875" y="19" style="font-family: 'Open Sans', verdana, arial, sans-serif; font-size: 16px; fill: rgb(42, 63, 95); fill-opacity: 1; white-space: pre;">Hardcover</text></g></g></g></g></svg>