<svg class="main-svg" xmlns="http://www.w3.org/2000/svg" xmlns:xlink="http://www.w3.org/1999/xlink" width="1600" height="800" style="" viewBox="0 0 1600 800"><rect x="0" y="0" width="1600" height="800" style="fill: rgb(255, 255, 255); fill-opacity: 1;"/><defs id="defs-df6e69"><g class="clips"><clipPath id="clipdf6e69xyplot" class="plotclip"><rect width="648" height="620"/></clipPath><clipPath id="clipdf6e69x2y2plot" class="plotclip"><rect width="647.9999999999999" height="620"/></clipPath><clipPath class="axesclip" id="clipdf6e69x"><rect x="80" y="0" width="648" height="800"/></clipPath><clipPath class="axesclip" id="clipdf6e69y"><rect x="0" y="100" width="1600" height="620"/></clipPath><clipPath class="axesclip" id="clipdf6e69xy"><rect x="80" y="100" width="648" height="620"/></clipPath><clipPath class="axesclip" id="clipdf6e69y2"><rect x="0" y="100" width="1600" height="620"/></clipPath><clipPath class="axesclip" id="clipdf6e69xy2"><rect x="80" y="100" width="648" height="620"/></clipPath><clipPath class="axesclip" id="clipdf6e69x2"><rect x="872.0000000000001" y="0" width="647.9999999999999" height="800"/></clipPath><clipPath class="axesclip" id="clipdf6e69x2y"><rect x="872.0000000000001" y="100" width="647.9999999999999" height="620"/></clipPath><clipPath class="axesclip" id="clipdf6e69x2y2"><rect x="872.0000000000001" y="100" width="647.9999999999999" height="620"/></clipPath></g><g class="gradients"/><g class="patterns"/></defs><g class="bglayer"><rect class="bg" x="80" y="100" width="648" height="620" style="fill: rgb(229, 236, 246); fill-opacity: 1; stroke-width: 0;"/><rect class="bg" x="872.0000000000001" y="100" width="647.9999999999999" height="620" style="fill: rgb(229, 236, 246); fill-opacity: 1; stroke-width: 0;"/></g><g class="layer-below"><g class="imagelayer"/><g class="shapelayer"/></g><g class="cartesianlayer"><g class="subplot xy"><g class="layer-subplot"><g class="shapelayer"/><g class="imagelayer"/></g><g class="minor-gridlayer"><g class="x"/><g class="y"/></g><g class="gridlayer"><g class="x"/><g class="y"><path class="ygrid crisp" transform="translate(0,700.98)" d="M80,0h648" style="stroke: rgb(255, 255, 255); stroke-opacity: 1; stroke-width: 1px;"/><path class="ygrid crisp" transform="translate(0,539.8299999999999)" d="M80,0h648" style="stroke: rgb(255, 255, 255); stroke-opacity: 1; stroke-width: 1px;"/><path class="ygrid crisp" transform="translate(0,459.26)" d="M80,0h648" style="stroke: rgb(255, 255, 255); stroke-opacity: 1; stroke-width: 1px;"/><path class="ygrid crisp" transform="translate(0,378.68)" d="M80,0h648" style="stroke: rgb(255, 255, 255); stroke-opacity: 1; stroke-width: 1px;"/><path class="ygrid crisp" transform="translate(0,298.11)" d="M80,0h648" style="stroke: rgb(255, 255, 255); stroke-opacity: 1; stroke-width: 1px;"/><path class="ygrid crisp" transform="translate(0,217.54000000000002)" d="M80,0h648" style="stroke: rgb(255, 255, 255); stroke-opacity: 1; stroke-width: 1px;"/><path class="ygrid crisp" transform="translate(0,136.96)" d="M80,0h648" style="stroke: rgb(255, 255, 255); stroke-opacity: 1; stroke-width: 1px;"/></g></g><g class="zerolinelayer"><path class="yzl zl crisp" transform="translate(0,620.41)" d="M80,0h648" style="stroke: rgb(255, 255, 255); stroke-opacity: 1; stroke-width: 2px;"/></g><path class="xlines-below"/><path class="ylines-below"/><g class="overlines-below"/><g class="xaxislayer-below"/><g class="yaxislayer-below"/><g class="overaxes-below"/><g class="plot" transform="translate(80,100)" clip-path="url(#clipdf6e69xyplot)"><g class="violinlayer mlayer"><g class="trace violins" style="opacity: 1;"><path class="violin" d="M109.43,589Q110.24,581.39 110.87,577.61C111.5,573.8 112.26,570 113.2,566.22C114.15,562.41 115.29,558.61 116.53,554.84C117.79,551.02 119.27,547.24 120.72,543.45C122.18,539.64 123.81,535.87 125.28,532.06C126.74,528.27 128.26,524.49 129.5,520.67C130.72,516.9 131.85,513.11 132.66,509.29C133.46,505.52 134.03,501.71 134.33,497.9C134.63,494.11 134.62,490.3 134.47,486.51C134.32,482.71 133.88,478.91 133.42,475.12C132.96,471.32 132.31,467.52 131.71,463.73C131.11,459.93 130.43,456.15 129.82,452.35C129.21,448.56 128.59,444.76 128.03,440.96C127.47,437.17 126.95,433.37 126.47,429.57C125.99,425.78 125.55,421.98 125.14,418.18C124.73,414.39 124.36,410.6 124.02,406.8C123.68,403.01 123.36,399.21 123.08,395.41C122.8,391.61 122.56,387.82 122.34,384.02C122.13,380.22 121.95,376.43 121.79,372.63C121.63,368.83 121.52,365.04 121.4,361.24C121.28,357.45 121.18,353.65 121.07,349.86C120.96,346.06 120.86,342.27 120.73,338.47C120.6,334.67 120.45,330.88 120.28,327.08C120.11,323.28 119.92,319.49 119.7,315.69C119.49,311.9 119.23,308.1 118.99,304.31C118.74,300.51 118.48,296.72 118.23,292.92C117.98,289.12 117.71,285.33 117.47,281.53C117.23,277.73 116.99,273.94 116.78,270.14C116.57,266.35 116.39,262.55 116.22,258.76C116.05,254.96 115.91,251.17 115.78,247.37C115.65,243.57 115.54,239.78 115.43,235.98C115.32,232.18 115.24,228.39 115.14,224.59C115.04,220.79 114.95,217 114.85,213.2C114.75,209.41 114.64,205.61 114.54,201.82C114.43,198.02 114.33,194.23 114.22,190.43C114.11,186.63 114,182.84 113.9,179.04C113.8,175.24 113.71,171.45 113.61,167.65C113.52,163.86 113.42,160.06 113.33,156.27C113.24,152.47 113.15,148.68 113.05,144.88C112.95,141.08 112.84,137.29 112.71,133.49C112.58,129.69 112.43,125.9 112.26,122.1C112.09,118.3 111.9,114.51 111.69,110.71C111.48,106.92 111.24,103.12 111.01,99.33C110.78,95.53 110.52,91.74 110.29,87.94C110.06,84.14 109.82,80.35 109.61,76.55C109.4,72.75 109.2,68.96 109.03,65.16C108.86,61.37 108.73,57.57 108.61,53.78C108.49,49.98 108.4,46.19 108.32,42.39Q108.25,38.59 108.16,31L107.84,31Q107.75,38.59 107.68,42.39C107.6,46.19 107.51,49.98 107.39,53.78C107.27,57.57 107.14,61.37 106.97,65.16C106.8,68.96 106.6,72.75 106.39,76.55C106.18,80.35 105.94,84.14 105.71,87.94C105.48,91.74 105.22,95.53 104.99,99.33C104.76,103.12 104.52,106.92 104.31,110.71C104.1,114.51 103.91,118.3 103.74,122.1C103.57,125.9 103.42,129.69 103.29,133.49C103.16,137.29 103.05,141.08 102.95,144.88C102.85,148.68 102.76,152.47 102.67,156.27C102.58,160.06 102.48,163.86 102.39,167.65C102.29,171.45 102.2,175.24 102.1,179.04C102,182.84 101.89,186.63 101.78,190.43C101.67,194.23 101.57,198.02 101.46,201.82C101.36,205.61 101.25,209.41 101.15,213.2C101.05,217 100.96,220.79 100.86,224.59C100.76,228.39 100.68,232.18 100.57,235.98C100.46,239.78 100.35,243.57 100.22,247.37C100.09,251.17 99.95,254.96 99.78,258.76C99.61,262.55 99.43,266.35 99.22,270.14C99.01,273.94 98.77,277.73 98.53,281.53C98.29,285.33 98.02,289.12 97.77,292.92C97.52,296.72 97.26,300.51 97.01,304.31C96.77,308.1 96.51,311.9 96.3,315.69C96.08,319.49 95.89,323.28 95.72,327.08C95.55,330.88 95.4,334.67 95.27,338.47C95.14,342.27 95.04,346.06 94.93,349.86C94.82,353.65 94.72,357.45 94.6,361.24C94.48,365.04 94.37,368.83 94.21,372.63C94.05,376.43 93.87,380.22 93.66,384.02C93.44,387.82 93.2,391.61 92.92,395.41C92.64,399.21 92.32,403.01 91.98,406.8C91.64,410.6 91.27,414.39 90.86,418.18C90.45,421.98 90.01,425.78 89.53,429.57C89.05,433.37 88.53,437.17 87.97,440.96C87.41,444.76 86.79,448.56 86.18,452.35C85.57,456.15 84.89,459.93 84.29,463.73C83.69,467.52 83.04,471.32 82.58,475.12C82.12,478.91 81.68,482.71 81.53,486.51C81.38,490.3 81.37,494.11 81.67,497.9C81.97,501.71 82.54,505.52 83.34,509.29C84.15,513.11 85.28,516.9 86.5,520.67C87.74,524.49 89.26,528.27 90.72,532.06C92.19,535.87 93.82,539.64 95.28,543.45C96.73,547.24 98.21,551.02 99.47,554.84C100.71,558.61 101.85,562.41 102.8,566.22C103.74,570 104.5,573.8 105.13,577.61Q105.76,581.39 106.57,589Z" style="vector-effect: non-scaling-stroke; stroke-width: 2px; stroke: rgb(99, 110, 250); stroke-opacity: 1; fill: rgb(99, 110, 250); fill-opacity: 0.5;"/><path class="violin" d="M327.13,560.98Q328.93,556.45 330.22,554.28C331.59,551.97 333.28,549.73 335.19,547.58C337.25,545.25 339.7,543.05 342.24,540.88C344.94,538.57 348,536.39 350.98,534.18C354.03,531.92 357.32,529.75 360.33,527.48C363.23,525.28 366.27,523.13 368.73,520.78C370.97,518.64 373.21,516.46 374.59,514.08C375.82,511.96 376.75,509.64 376.92,507.38C377.09,505.17 376.5,502.84 375.69,500.68C374.82,498.37 373.23,496.16 371.71,493.98C370.11,491.69 368.12,489.5 366.27,487.28C364.41,485.04 362.4,482.85 360.59,480.59C358.81,478.38 357.06,476.16 355.49,473.89C353.97,471.69 352.57,469.46 351.32,467.19C350.11,464.99 349.05,462.75 348.09,460.49C347.15,458.28 346.35,456.04 345.62,453.79C344.9,451.57 344.29,449.33 343.73,447.09C343.17,444.86 342.7,442.63 342.26,440.39C341.82,438.16 341.44,435.93 341.08,433.69C340.72,431.46 340.41,429.22 340.1,426.99C339.79,424.76 339.52,422.52 339.24,420.29C338.96,418.06 338.71,415.82 338.44,413.59C338.18,411.36 337.91,409.12 337.65,406.89C337.38,404.66 337.12,402.42 336.85,400.19C336.58,397.96 336.31,395.72 336.04,393.49C335.77,391.26 335.51,389.02 335.25,386.79C335,384.56 334.75,382.32 334.51,380.09C334.28,377.86 334.05,375.62 333.84,373.39C333.64,371.16 333.45,368.92 333.28,366.69C333.11,364.46 332.96,362.22 332.83,359.99C332.7,357.76 332.58,355.53 332.48,353.3C332.38,351.07 332.3,348.83 332.22,346.6C332.14,344.37 332.08,342.13 332.02,339.9C331.96,337.67 331.91,335.43 331.86,333.2C331.81,330.97 331.77,328.73 331.72,326.5C331.68,324.27 331.63,322.03 331.59,319.8C331.55,317.57 331.51,315.33 331.46,313.1C331.41,310.87 331.36,308.63 331.29,306.4C331.22,304.17 331.14,301.93 331.05,299.7C330.96,297.47 330.86,295.23 330.74,293C330.62,290.77 330.49,288.53 330.35,286.3C330.21,284.07 330.05,281.83 329.9,279.6C329.75,277.37 329.59,275.13 329.44,272.9C329.29,270.67 329.14,268.43 329.01,266.2C328.88,263.97 328.75,261.73 328.65,259.5C328.55,257.27 328.47,255.03 328.4,252.8C328.34,250.57 328.29,248.33 328.26,246.1C328.23,243.87 328.22,241.63 328.21,239.4C328.2,237.17 328.21,234.93 328.22,232.7C328.22,230.47 328.24,228.24 328.24,226.01C328.24,223.78 328.24,221.54 328.23,219.31C328.22,217.08 328.2,214.84 328.16,212.61C328.12,210.38 328.06,208.14 328,205.91C327.94,203.68 327.86,201.44 327.78,199.21C327.7,196.98 327.61,194.74 327.53,192.51C327.45,190.28 327.36,188.04 327.28,185.81C327.2,183.58 327.12,181.34 327.06,179.11C327,176.88 326.95,174.64 326.9,172.41C326.85,170.18 326.81,167.94 326.77,165.71C326.73,163.48 326.69,161.24 326.65,159.01C326.61,156.78 326.57,154.54 326.53,152.31C326.49,150.08 326.44,147.84 326.39,145.61C326.34,143.38 326.28,141.14 326.22,138.91C326.16,136.68 326.1,134.44 326.03,132.21C325.96,129.98 325.89,127.74 325.82,125.51C325.75,123.28 325.68,121.04 325.6,118.81C325.52,116.58 325.44,114.34 325.36,112.11C325.28,109.88 325.19,107.65 325.11,105.42C325.03,103.19 324.94,100.95 324.86,98.72C324.78,96.49 324.7,94.25 324.63,92.02C324.56,89.79 324.49,87.55 324.43,85.32C324.37,83.09 324.32,80.85 324.27,78.62C324.22,76.39 324.18,74.15 324.15,71.92C324.12,69.69 324.1,67.45 324.08,65.22Q324.06,62.99 324.04,58.52L323.96,58.52Q323.94,62.99 323.92,65.22C323.9,67.45 323.88,69.69 323.85,71.92C323.82,74.15 323.78,76.39 323.73,78.62C323.68,80.85 323.63,83.09 323.57,85.32C323.51,87.55 323.44,89.79 323.37,92.02C323.3,94.25 323.22,96.49 323.14,98.72C323.06,100.95 322.97,103.19 322.89,105.42C322.81,107.65 322.72,109.88 322.64,112.11C322.56,114.34 322.48,116.58 322.4,118.81C322.32,121.04 322.25,123.28 322.18,125.51C322.11,127.74 322.04,129.98 321.97,132.21C321.9,134.44 321.84,136.68 321.78,138.91C321.72,141.14 321.66,143.38 321.61,145.61C321.56,147.84 321.51,150.08 321.47,152.31C321.43,154.54 321.39,156.78 321.35,159.01C321.31,161.24 321.27,163.48 321.23,165.71C321.19,167.94 321.15,170.18 321.1,172.41C321.05,174.64 321,176.88 320.94,179.11C320.88,181.34 320.8,183.58 320.72,185.81C320.64,188.04 320.55,190.28 320.47,192.51C320.39,194.74 320.3,196.98 320.22,199.21C320.14,201.44 320.06,203.68 320,205.91C319.94,208.14 319.88,210.38 319.84,212.61C319.8,214.84 319.78,217.08 319.77,219.31C319.76,221.54 319.76,223.78 319.76,226.01C319.76,228.24 319.78,230.47 319.78,232.7C319.79,234.93 319.8,237.17 319.79,239.4C319.78,241.63 319.77,243.87 319.74,246.1C319.71,248.33 319.66,250.57 319.6,252.8C319.53,255.03 319.45,257.27 319.35,259.5C319.25,261.73 319.12,263.97 318.99,266.2C318.86,268.43 318.71,270.67 318.56,272.9C318.41,275.13 318.25,277.37 318.1,279.6C317.95,281.83 317.79,284.07 317.65,286.3C317.51,288.53 317.38,290.77 317.26,293C317.14,295.23 317.04,297.47 316.95,299.7C316.86,301.93 316.78,304.17 316.71,306.4C316.64,308.63 316.59,310.87 316.54,313.1C316.49,315.33 316.45,317.57 316.41,319.8C316.37,322.03 316.32,324.27 316.28,326.5C316.23,328.73 316.19,330.97 316.14,333.2C316.09,335.43 316.04,337.67 315.98,339.9C315.92,342.13 315.86,344.37 315.78,346.6C315.7,348.83 315.62,351.07 315.52,353.3C315.42,355.53 315.3,357.76 315.17,359.99C315.04,362.22 314.89,364.46 314.72,366.69C314.55,368.92 314.36,371.16 314.16,373.39C313.95,375.62 313.72,377.86 313.49,380.09C313.25,382.32 313,384.56 312.75,386.79C312.49,389.02 312.23,391.26 311.96,393.49C311.69,395.72 311.42,397.96 311.15,400.19C310.88,402.42 310.62,404.66 310.35,406.89C310.09,409.12 309.82,411.36 309.56,413.59C309.29,415.82 309.04,418.06 308.76,420.29C308.48,422.52 308.21,424.76 307.9,426.99C307.59,429.22 307.28,431.46 306.92,433.69C306.56,435.93 306.18,438.16 305.74,440.39C305.3,442.63 304.83,444.86 304.27,447.09C303.71,449.33 303.1,451.57 302.38,453.79C301.65,456.04 300.85,458.28 299.91,460.49C298.95,462.75 297.89,464.99 296.68,467.19C295.43,469.46 294.03,471.69 292.51,473.89C290.94,476.16 289.19,478.38 287.41,480.59C285.6,482.85 283.59,485.04 281.73,487.28C279.88,489.5 277.89,491.69 276.29,493.98C274.77,496.16 273.18,498.37 272.31,500.68C271.5,502.84 270.91,505.17 271.08,507.38C271.25,509.64 272.18,511.96 273.41,514.08C274.79,516.46 277.03,518.64 279.27,520.78C281.73,523.13 284.77,525.28 287.67,527.48C290.68,529.75 293.97,531.92 297.02,534.18C300,536.39 303.06,538.57 305.76,540.88C308.3,543.05 310.75,545.25 312.81,547.58C314.72,549.73 316.41,551.97 317.78,554.28Q319.07,556.45 320.87,560.98Z" style="vector-effect: non-scaling-stroke; stroke-width: 2px; stroke: rgb(99, 110, 250); stroke-opacity: 1; fill: rgb(99, 110, 250); fill-opacity: 0.5;"/><path class="violin" d="M542.03,561.98Q543.22,557.33 544.12,555.06C545.05,552.72 546.2,550.4 547.56,548.15C548.99,545.79 550.72,543.49 552.56,541.24C554.5,538.88 556.73,536.6 558.95,534.32C561.22,531.99 563.73,529.73 566.04,527.41C568.32,525.12 570.73,522.86 572.74,520.49C574.64,518.25 576.53,515.97 577.86,513.58C579.1,511.35 580.12,509.02 580.6,506.67C581.06,504.4 581.06,502.04 580.78,499.75C580.5,497.42 579.7,495.11 578.88,492.84C578.03,490.5 576.84,488.21 575.74,485.92C574.63,483.6 573.36,481.32 572.23,479.01C571.1,476.71 569.97,474.42 568.96,472.1C567.96,469.81 567.04,467.5 566.21,465.18C565.4,462.89 564.69,460.58 564.03,458.27C563.38,455.97 562.82,453.66 562.29,451.35C561.77,449.05 561.31,446.75 560.87,444.44C560.43,442.14 560.03,439.84 559.64,437.53C559.25,435.23 558.89,432.92 558.54,430.61C558.19,428.31 557.85,426 557.52,423.7C557.19,421.39 556.88,419.09 556.57,416.78C556.26,414.48 555.97,412.17 555.68,409.87C555.4,407.57 555.12,405.26 554.86,402.96C554.6,400.65 554.35,398.35 554.12,396.04C553.89,393.74 553.68,391.43 553.48,389.13C553.28,386.82 553.1,384.52 552.93,382.21C552.76,379.91 552.62,377.6 552.47,375.3C552.33,373 552.19,370.69 552.06,368.39C551.93,366.08 551.8,363.78 551.67,361.47C551.54,359.17 551.41,356.86 551.28,354.56C551.15,352.25 551.02,349.95 550.88,347.64C550.75,345.34 550.61,343.03 550.47,340.73C550.34,338.43 550.2,336.12 550.07,333.82C549.94,331.51 549.82,329.21 549.7,326.9C549.58,324.6 549.48,322.29 549.37,319.99C549.26,317.68 549.16,315.38 549.06,313.07C548.96,310.77 548.86,308.46 548.77,306.16C548.68,303.86 548.59,301.55 548.5,299.25C548.41,296.94 548.32,294.64 548.22,292.33C548.12,290.03 548.02,287.72 547.91,285.42C547.8,283.11 547.7,280.81 547.58,278.5C547.47,276.2 547.34,273.89 547.22,271.59C547.1,269.29 546.96,266.98 546.84,264.68C546.71,262.37 546.59,260.07 546.47,257.76C546.35,255.46 546.22,253.15 546.11,250.85C545.99,248.54 545.88,246.24 545.78,243.93C545.68,241.63 545.59,239.32 545.5,237.02C545.41,234.72 545.32,232.41 545.25,230.11C545.18,227.8 545.12,225.5 545.06,223.19C545.01,220.89 544.96,218.58 544.92,216.28C544.88,213.98 544.85,211.67 544.83,209.37C544.8,207.06 544.79,204.76 544.77,202.45C544.76,200.15 544.75,197.84 544.74,195.54C544.73,193.23 544.72,190.93 544.7,188.62C544.69,186.32 544.67,184.01 544.65,181.71C544.63,179.41 544.61,177.1 544.59,174.8C544.57,172.49 544.54,170.19 544.52,167.88C544.5,165.58 544.48,163.27 544.46,160.97C544.44,158.66 544.43,156.36 544.41,154.05C544.39,151.75 544.38,149.44 544.36,147.14C544.34,144.84 544.33,142.53 544.3,140.23C544.27,137.92 544.25,135.62 544.2,133.31C544.15,131.01 544.1,128.7 544.02,126.4C543.94,124.09 543.85,121.79 543.74,119.48C543.63,117.18 543.49,114.87 543.34,112.57C543.19,110.27 543.01,107.96 542.83,105.66C542.65,103.35 542.45,101.05 542.26,98.74C542.07,96.44 541.86,94.13 541.68,91.83C541.5,89.52 541.32,87.22 541.16,84.91C541,82.61 540.86,80.3 540.74,78C540.62,75.7 540.51,73.39 540.43,71.09C540.34,68.78 540.28,66.48 540.23,64.17Q540.18,61.87 540.11,57.26L539.89,57.26Q539.82,61.87 539.77,64.17C539.72,66.48 539.66,68.78 539.57,71.09C539.49,73.39 539.38,75.7 539.26,78C539.14,80.3 539,82.61 538.84,84.91C538.68,87.22 538.5,89.52 538.32,91.83C538.14,94.13 537.93,96.44 537.74,98.74C537.55,101.05 537.35,103.35 537.17,105.66C536.99,107.96 536.81,110.27 536.66,112.57C536.51,114.87 536.37,117.18 536.26,119.48C536.15,121.79 536.06,124.09 535.98,126.4C535.9,128.7 535.85,131.01 535.8,133.31C535.75,135.62 535.73,137.92 535.7,140.23C535.67,142.53 535.66,144.84 535.64,147.14C535.62,149.44 535.61,151.75 535.59,154.05C535.57,156.36 535.56,158.66 535.54,160.97C535.52,163.27 535.5,165.58 535.48,167.88C535.46,170.19 535.43,172.49 535.41,174.8C535.39,177.1 535.37,179.41 535.35,181.71C535.33,184.01 535.31,186.32 535.3,188.62C535.28,190.93 535.27,193.23 535.26,195.54C535.25,197.84 535.24,200.15 535.23,202.45C535.21,204.76 535.2,207.06 535.17,209.37C535.15,211.67 535.12,213.98 535.08,216.28C535.04,218.58 534.99,220.89 534.94,223.19C534.88,225.5 534.82,227.8 534.75,230.11C534.68,232.41 534.59,234.72 534.5,237.02C534.41,239.32 534.32,241.63 534.22,243.93C534.12,246.24 534.01,248.54 533.89,250.85C533.78,253.15 533.65,255.46 533.53,257.76C533.41,260.07 533.29,262.37 533.16,264.68C533.04,266.98 532.9,269.29 532.78,271.59C532.66,273.89 532.53,276.2 532.42,278.5C532.3,280.81 532.2,283.11 532.09,285.42C531.98,287.72 531.88,290.03 531.78,292.33C531.68,294.64 531.59,296.94 531.5,299.25C531.41,301.55 531.32,303.86 531.23,306.16C531.14,308.46 531.04,310.77 530.94,313.07C530.84,315.38 530.74,317.68 530.63,319.99C530.52,322.29 530.42,324.6 530.3,326.9C530.18,329.21 530.06,331.51 529.93,333.82C529.8,336.12 529.66,338.43 529.53,340.73C529.39,343.03 529.25,345.34 529.12,347.64C528.98,349.95 528.85,352.25 528.72,354.56C528.59,356.86 528.46,359.17 528.33,361.47C528.2,363.78 528.07,366.08 527.94,368.39C527.81,370.69 527.67,373 527.53,375.3C527.38,377.6 527.24,379.91 527.07,382.21C526.9,384.52 526.72,386.82 526.52,389.13C526.32,391.43 526.11,393.74 525.88,396.04C525.65,398.35 525.4,400.65 525.14,402.96C524.88,405.26 524.6,407.57 524.32,409.87C524.03,412.17 523.74,414.48 523.43,416.78C523.12,419.09 522.81,421.39 522.48,423.7C522.15,426 521.81,428.31 521.46,430.61C521.11,432.92 520.75,435.23 520.36,437.53C519.97,439.84 519.57,442.14 519.13,444.44C518.69,446.75 518.23,449.05 517.71,451.35C517.18,453.66 516.62,455.97 515.97,458.27C515.31,460.58 514.6,462.89 513.79,465.18C512.96,467.5 512.04,469.81 511.04,472.1C510.03,474.42 508.9,476.71 507.77,479.01C506.64,481.32 505.37,483.6 504.26,485.92C503.16,488.21 501.97,490.5 501.12,492.84C500.3,495.11 499.5,497.42 499.22,499.75C498.94,502.04 498.94,504.4 499.4,506.67C499.88,509.02 500.9,511.35 502.14,513.58C503.47,515.97 505.36,518.25 507.26,520.49C509.27,522.86 511.68,525.12 513.96,527.41C516.27,529.73 518.78,531.99 521.05,534.32C523.27,536.6 525.5,538.88 527.44,541.24C529.28,543.49 531.01,545.79 532.44,548.15C533.8,550.4 534.95,552.72 535.88,555.06Q536.78,557.33 537.97,561.98Z" style="vector-effect: non-scaling-stroke; stroke-width: 2px; stroke: rgb(99, 110, 250); stroke-opacity: 1; fill: rgb(99, 110, 250); fill-opacity: 0.5;"/><path class="box" d="M94.77,423.62H121.23M94.77,495.05H121.23V314.86H94.77ZM108,495.05V520.25M108,314.86V99.75" style="vector-effect: non-scaling-stroke; stroke-width: 2px; stroke: rgb(99, 110, 250); stroke-opacity: 1; fill: rgb(99, 110, 250); fill-opacity: 0.5;"/><path class="box" d="M310.77,476.42H337.23M310.77,510.26H337.23V392.69H310.77ZM324,510.26V520.41M324,392.69V216.73" style="vector-effect: non-scaling-stroke; stroke-width: 2px; stroke: rgb(99, 110, 250); stroke-opacity: 1; fill: rgb(99, 110, 250); fill-opacity: 0.5;"/><path class="box" d="M526.77,448.01H553.23M526.77,501.95H553.23V347.42H526.77ZM540,501.95V520.39M540,347.42V115.68" style="vector-effect: non-scaling-stroke; stroke-width: 2px; stroke: rgb(99, 110, 250); stroke-opacity: 1; fill: rgb(99, 110, 250); fill-opacity: 0.5;"/><path class="mean" d="M94.77,389.74H121.23" style="fill: none; vector-effect: non-scaling-stroke; stroke-width: 2px; stroke-dasharray: 4px, 2px; stroke: rgb(99, 110, 250); stroke-opacity: 1;"/><path class="mean" d="M310.77,435.09H337.23" style="fill: none; vector-effect: non-scaling-stroke; stroke-width: 2px; stroke-dasharray: 4px, 2px; stroke: rgb(99, 110, 250); stroke-opacity: 1;"/><path class="mean" d="M526.77,409.29H553.23" style="fill: none; vector-effect: non-scaling-stroke; stroke-width: 2px; stroke-dasharray: 4px, 2px; stroke: rgb(99, 110, 250); stroke-opacity: 1;"/></g></g></g><g class="overplot"/><path class="xlines-above crisp" d="M0,0" style="fill: none;"/><path class="ylines-above crisp" d="M0,0" style="fill: none;"/><g class="overlines-above"/><g class="xaxislayer-above"><g class="xtick"><text text-anchor="middle" x="0" y="733" transform="translate(188,0)" style="font-family: 'Open Sans', verdana, arial, sans-serif; font-size: 12px; fill: rgb(42, 63, 95); fill-opacity: 1; white-space: pre; opacity: 1;">&#60;=1</text></g><g class="xtick"><text text-anchor="middle" x="0" y="733" transform="translate(404,0)" style="font-family: 'Open Sans', verdana, arial, sans-serif; font-size: 12px; fill: rgb(42, 63, 95); fill-opacity: 1; white-space: pre; opacity: 1;">(1, 2]</text></g><g class="xtick"><text text-anchor="middle" x="0" y="733" transform="translate(620,0)" style="font-family: 'Open Sans', verdana, arial, sans-serif; font-size: 12px; fill: rgb(42, 63, 95); fill-opacity: 1; white-space: pre; opacity: 1;">>2</text></g></g><g class="yaxislayer-above"><g class="ytick"><text text-anchor="end" x="79" y="4.199999999999999" transform="translate(0,700.98)" style="font-family: 'Open Sans', verdana, arial, sans-serif; font-size: 12px; fill: rgb(42, 63, 95); fill-opacity: 1; white-space: pre; opacity: 1;">−0.5M</text></g><g class="ytick"><text text-anchor="end" x="79" y="4.199999999999999" style="font-family: 'Open Sans', verdana, arial, sans-serif; font-size: 12px; fill: rgb(42, 63, 95); fill-opacity: 1; white-space: pre; opacity: 1;" transform="translate(0,620.41)">0</text></g><g class="ytick"><text text-anchor="end" x="79" y="4.199999999999999" style="font-family: 'Open Sans', verdana, arial, sans-serif; font-size: 12px; fill: rgb(42, 63, 95); fill-opacity: 1; white-space: pre; opacity: 1;" transform="translate(0,539.8299999999999)">0.5M</text></g><g class="ytick"><text text-anchor="end" x="79" y="4.199999999999999" style="font-family: 'Open Sans', verdana, arial, sans-serif; font-size: 12px; fill: rgb(42, 63, 95); fill-opacity: 1; white-space: pre; opacity: 1;" transform="translate(0,459.26)">1M</text></g><g class="ytick"><text text-anchor="end" x="79" y="4.199999999999999" style="font-family: 'Open Sans', verdana, arial, sans-serif; font-size: 12px; fill: rgb(42, 63, 95); fill-opacity: 1; white-space: pre; opacity: 1;" transform="translate(0,378.68)">1.5M</text></g><g class="ytick"><text text-anchor="end" x="79" y="4.199999999999999" style="font-family: 'Open Sans', verdana, arial, sans-serif; font-size: 12px; fill: rgb(42, 63, 95); fill-opacity: 1; white-space: pre; opacity: 1;" transform="translate(0,298.11)">2M</text></g><g class="ytick"><text text-anchor="end" x="79" y="4.199999999999999" style="font-family: 'Open Sans', verdana, arial, sans-serif; font-size: 12px; fill: rgb(42, 63, 95); fill-opacity: 1; white-space: pre; opacity: 1;" transform="translate(0,217.54000000000002)">2.5M</text></g><g class="ytick"><text text-anchor="end" x="79" y="4.199999999999999" style="font-family: 'Open Sans', verdana, arial, sans-serif; font-size: 12px; fill: rgb(42, 63, 95); fill-opacity: 1; white-space: pre; opacity: 1;" transform="translate(0,136.96)">3M</text></g></g><g class="overaxes-above"/></g><g class="subplot x2y2"><g class="layer-subplot"><g class="shapelayer"/><g class="imagelayer"/></g><g class="minor-gridlayer"><g class="x2"/><g class="y2"/></g><g class="gridlayer"><g class="x2"/><g class="y2"><path class="y2grid crisp" transform="translate(0,531.9200000000001)" d="M872.0000000000001,0h647.9999999999999" style="stroke: rgb(255, 255, 255); stroke-opacity: 1; stroke-width: 1px;"/><path class="y2grid crisp" transform="translate(0,426.53)" d="M872.0000000000001,0h647.9999999999999" style="stroke: rgb(255, 255, 255); stroke-opacity: 1; stroke-width: 1px;"/><path class="y2grid crisp" transform="translate(0,321.15)" d="M872.0000000000001,0h647.9999999999999" style="stroke: rgb(255, 255, 255); stroke-opacity: 1; stroke-width: 1px;"/><path class="y2grid crisp" transform="translate(0,215.76)" d="M872.0000000000001,0h647.9999999999999" style="stroke: rgb(255, 255, 255); stroke-opacity: 1; stroke-width: 1px;"/><path class="y2grid crisp" transform="translate(0,110.37)" d="M872.0000000000001,0h647.9999999999999" style="stroke: rgb(255, 255, 255); stroke-opacity: 1; stroke-width: 1px;"/></g></g><g class="zerolinelayer"><path class="y2zl zl crisp" transform="translate(0,637.31)" d="M872.0000000000001,0h647.9999999999999" style="stroke: rgb(255, 255, 255); stroke-opacity: 1; stroke-width: 2px;"/></g><path class="xlines-below"/><path class="ylines-below"/><g class="overlines-below"/><g class="xaxislayer-below"/><g class="yaxislayer-below"/><g class="overaxes-below"/><g class="plot" transform="translate(872.0000000000001,100)" clip-path="url(#clipdf6e69x2y2plot)"><g class="violinlayer mlayer"><g class="trace violins" style="opacity: 1;"><path class="violin" d="M111.96,579.92Q114.21,575.12 115.74,572.84C117.38,570.39 119.4,568.04 121.61,565.76C123.99,563.3 126.79,560.98 129.62,558.67C132.59,556.25 135.91,553.95 139.06,551.59C142.21,549.23 145.59,546.94 148.51,544.5C151.26,542.21 154.09,539.93 156.15,537.42C157.98,535.18 159.7,532.8 160.48,530.34C161.2,528.06 161.31,525.57 160.92,523.25C160.51,520.84 159.24,518.46 157.95,516.17C156.57,513.73 154.62,511.41 152.8,509.08C150.94,506.69 148.82,504.37 146.89,502C144.98,499.65 143.02,497.32 141.27,494.92C139.57,492.59 137.94,490.23 136.5,487.83C135.1,485.5 133.84,483.14 132.71,480.75C131.61,478.41 130.65,476.04 129.79,473.66C128.94,471.32 128.22,468.95 127.56,466.58C126.9,464.23 126.35,461.87 125.83,459.5C125.31,457.14 124.88,454.78 124.46,452.41C124.04,450.05 123.67,447.69 123.29,445.33C122.91,442.97 122.56,440.6 122.19,438.24C121.83,435.88 121.47,433.52 121.1,431.16C120.73,428.8 120.35,426.44 119.98,424.08C119.61,421.72 119.22,419.35 118.86,416.99C118.5,414.63 118.14,412.27 117.81,409.91C117.48,407.55 117.15,405.18 116.86,402.82C116.57,400.46 116.3,398.1 116.05,395.74C115.8,393.38 115.57,391.02 115.35,388.66C115.13,386.3 114.93,383.93 114.75,381.57C114.57,379.21 114.41,376.85 114.26,374.49C114.11,372.13 113.98,369.76 113.87,367.4C113.76,365.04 113.67,362.68 113.6,360.32C113.53,357.96 113.48,355.6 113.44,353.24C113.39,350.88 113.37,348.51 113.33,346.15C113.29,343.79 113.26,341.43 113.22,339.07C113.18,336.71 113.13,334.34 113.07,331.98C113.01,329.62 112.93,327.26 112.86,324.9C112.78,322.54 112.7,320.18 112.62,317.82C112.54,315.46 112.47,313.09 112.4,310.73C112.34,308.37 112.27,306.01 112.23,303.65C112.18,301.29 112.15,298.92 112.13,296.56C112.11,294.2 112.11,291.84 112.12,289.48C112.13,287.12 112.15,284.76 112.17,282.4C112.19,280.04 112.23,277.67 112.26,275.31C112.29,272.95 112.32,270.59 112.35,268.23C112.38,265.87 112.41,263.5 112.44,261.14C112.46,258.78 112.48,256.42 112.5,254.06C112.51,251.7 112.53,249.34 112.53,246.98C112.53,244.62 112.53,242.25 112.52,239.89C112.51,237.53 112.49,235.17 112.46,232.81C112.43,230.45 112.38,228.08 112.33,225.72C112.28,223.36 112.21,221 112.14,218.64C112.06,216.28 111.97,213.91 111.88,211.55C111.79,209.19 111.69,206.83 111.58,204.47C111.47,202.11 111.35,199.75 111.23,197.39C111.11,195.03 110.99,192.66 110.88,190.3C110.77,187.94 110.65,185.58 110.55,183.22C110.45,180.86 110.35,178.49 110.26,176.13C110.17,173.77 110.1,171.41 110.03,169.05C109.96,166.69 109.9,164.33 109.85,161.97C109.8,159.61 109.75,157.24 109.71,154.88C109.67,152.52 109.63,150.16 109.6,147.8C109.57,145.44 109.55,143.07 109.53,140.71C109.51,138.35 109.49,135.99 109.47,133.63C109.45,131.27 109.44,128.91 109.42,126.55C109.4,124.19 109.38,121.82 109.35,119.46C109.32,117.1 109.3,114.74 109.26,112.38C109.22,110.02 109.17,107.65 109.12,105.29C109.07,102.93 109.01,100.57 108.95,98.21C108.89,95.85 108.82,93.49 108.75,91.13C108.68,88.77 108.61,86.4 108.55,84.04C108.49,81.68 108.43,79.32 108.38,76.96C108.33,74.6 108.28,72.23 108.24,69.87C108.2,67.51 108.17,65.15 108.14,62.79C108.11,60.43 108.09,58.07 108.07,55.71Q108.05,53.35 108.04,48.62L107.96,48.62Q107.95,53.35 107.93,55.71C107.91,58.07 107.89,60.43 107.86,62.79C107.83,65.15 107.8,67.51 107.76,69.87C107.72,72.23 107.67,74.6 107.62,76.96C107.57,79.32 107.51,81.68 107.45,84.04C107.39,86.4 107.32,88.77 107.25,91.13C107.18,93.49 107.11,95.85 107.05,98.21C106.99,100.57 106.93,102.93 106.88,105.29C106.83,107.65 106.78,110.02 106.74,112.38C106.7,114.74 106.68,117.1 106.65,119.46C106.62,121.82 106.6,124.19 106.58,126.55C106.56,128.91 106.55,131.27 106.53,133.63C106.51,135.99 106.49,138.35 106.47,140.71C106.45,143.07 106.43,145.44 106.4,147.8C106.37,150.16 106.33,152.52 106.29,154.88C106.25,157.24 106.2,159.61 106.15,161.97C106.1,164.33 106.04,166.69 105.97,169.05C105.9,171.41 105.83,173.77 105.74,176.13C105.65,178.49 105.55,180.86 105.45,183.22C105.35,185.58 105.23,187.94 105.12,190.3C105.01,192.66 104.89,195.03 104.77,197.39C104.65,199.75 104.53,202.11 104.42,204.47C104.31,206.83 104.21,209.19 104.12,211.55C104.03,213.91 103.94,216.28 103.86,218.64C103.79,221 103.72,223.36 103.67,225.72C103.62,228.08 103.57,230.45 103.54,232.81C103.51,235.17 103.49,237.53 103.48,239.89C103.47,242.25 103.47,244.62 103.47,246.98C103.47,249.34 103.49,251.7 103.5,254.06C103.52,256.42 103.54,258.78 103.56,261.14C103.59,263.5 103.62,265.87 103.65,268.23C103.68,270.59 103.71,272.95 103.74,275.31C103.77,277.67 103.81,280.04 103.83,282.4C103.85,284.76 103.87,287.12 103.88,289.48C103.89,291.84 103.89,294.2 103.87,296.56C103.85,298.92 103.82,301.29 103.77,303.65C103.73,306.01 103.66,308.37 103.6,310.73C103.53,313.09 103.46,315.46 103.38,317.82C103.3,320.18 103.22,322.54 103.14,324.9C103.07,327.26 102.99,329.62 102.93,331.98C102.87,334.34 102.82,336.71 102.78,339.07C102.74,341.43 102.71,343.79 102.67,346.15C102.63,348.51 102.61,350.88 102.56,353.24C102.52,355.6 102.47,357.96 102.4,360.32C102.33,362.68 102.24,365.04 102.13,367.4C102.02,369.76 101.89,372.13 101.74,374.49C101.59,376.85 101.43,379.21 101.25,381.57C101.07,383.93 100.87,386.3 100.65,388.66C100.43,391.02 100.2,393.38 99.95,395.74C99.7,398.1 99.43,400.46 99.14,402.82C98.85,405.18 98.52,407.55 98.19,409.91C97.86,412.27 97.5,414.63 97.14,416.99C96.78,419.35 96.39,421.72 96.02,424.08C95.65,426.44 95.27,428.8 94.9,431.16C94.53,433.52 94.17,435.88 93.81,438.24C93.44,440.6 93.09,442.97 92.71,445.33C92.33,447.69 91.96,450.05 91.54,452.41C91.12,454.78 90.69,457.14 90.17,459.5C89.65,461.87 89.1,464.23 88.44,466.58C87.78,468.95 87.06,471.32 86.21,473.66C85.35,476.04 84.39,478.41 83.29,480.75C82.16,483.14 80.9,485.5 79.5,487.83C78.06,490.23 76.43,492.59 74.73,494.92C72.98,497.32 71.02,499.65 69.11,502C67.18,504.37 65.06,506.69 63.2,509.08C61.38,511.41 59.43,513.73 58.05,516.17C56.76,518.46 55.49,520.84 55.08,523.25C54.69,525.57 54.8,528.06 55.52,530.34C56.3,532.8 58.02,535.18 59.85,537.42C61.91,539.93 64.74,542.21 67.49,544.5C70.41,546.94 73.79,549.23 76.94,551.59C80.09,553.95 83.41,556.25 86.38,558.67C89.21,560.98 92.01,563.3 94.39,565.76C96.6,568.04 98.62,570.39 100.26,572.84Q101.79,575.12 104.04,579.92Z" style="vector-effect: non-scaling-stroke; stroke-width: 2px; stroke: rgb(239, 85, 59); stroke-opacity: 1; fill: rgb(239, 85, 59); fill-opacity: 0.5;"/><path class="violin" d="M325.61,589Q326.52,583.26 327.21,580.42C327.91,577.54 328.76,574.66 329.8,571.83C330.86,568.94 332.14,566.08 333.52,563.25C334.93,560.36 336.58,557.51 338.21,554.66C339.86,551.78 341.69,548.95 343.38,546.08C345.06,543.23 346.83,540.39 348.32,537.49C349.78,534.66 351.18,531.81 352.26,528.91C353.31,526.09 354.17,523.21 354.74,520.32C355.3,517.48 355.57,514.6 355.66,511.74C355.75,508.88 355.55,506.01 355.29,503.15C355.03,500.28 354.55,497.43 354.08,494.57C353.61,491.7 353.02,488.84 352.47,485.98C351.91,483.12 351.32,480.26 350.75,477.4C350.19,474.54 349.62,471.68 349.08,468.82C348.54,465.96 348.01,463.09 347.49,460.23C346.97,457.37 346.46,454.51 345.95,451.65C345.44,448.79 344.94,445.92 344.45,443.06C343.96,440.2 343.47,437.34 342.99,434.48C342.51,431.62 342.04,428.75 341.59,425.89C341.14,423.03 340.71,420.17 340.3,417.31C339.89,414.45 339.5,411.58 339.13,408.72C338.76,405.86 338.41,403 338.08,400.14C337.75,397.28 337.45,394.41 337.15,391.55C336.85,388.69 336.57,385.83 336.3,382.97C336.03,380.11 335.77,377.24 335.52,374.38C335.27,371.52 335.04,368.66 334.81,365.8C334.58,362.94 334.37,360.08 334.16,357.22C333.95,354.36 333.75,351.49 333.55,348.63C333.36,345.77 333.17,342.91 332.99,340.05C332.81,337.19 332.64,334.32 332.46,331.46C332.29,328.6 332.11,325.74 331.94,322.88C331.77,320.02 331.59,317.15 331.43,314.29C331.27,311.43 331.11,308.57 330.96,305.71C330.81,302.85 330.66,299.98 330.52,297.12C330.38,294.26 330.26,291.4 330.14,288.54C330.02,285.68 329.92,282.81 329.81,279.95C329.7,277.09 329.6,274.23 329.5,271.37C329.4,268.51 329.31,265.64 329.22,262.78C329.13,259.92 329.04,257.06 328.95,254.2C328.87,251.34 328.78,248.48 328.71,245.62C328.64,242.76 328.57,239.89 328.51,237.03C328.45,234.17 328.39,231.31 328.34,228.45C328.29,225.59 328.25,222.72 328.21,219.86C328.17,217 328.14,214.14 328.11,211.28C328.08,208.42 328.05,205.55 328.03,202.69C328.01,199.83 327.99,196.97 327.97,194.11C327.95,191.25 327.93,188.38 327.92,185.52C327.91,182.66 327.9,179.8 327.9,176.94C327.89,174.08 327.9,171.21 327.89,168.35C327.89,165.49 327.88,162.63 327.87,159.77C327.86,156.91 327.86,154.04 327.85,151.18C327.84,148.32 327.83,145.46 327.82,142.6C327.8,139.74 327.79,136.88 327.76,134.02C327.73,131.16 327.7,128.29 327.66,125.43C327.62,122.57 327.57,119.71 327.5,116.85C327.43,113.99 327.34,111.12 327.24,108.26C327.14,105.4 327.02,102.54 326.88,99.68C326.74,96.82 326.58,93.95 326.41,91.09C326.25,88.23 326.06,85.37 325.89,82.51C325.72,79.65 325.54,76.78 325.38,73.92C325.22,71.06 325.06,68.2 324.93,65.34C324.79,62.48 324.67,59.61 324.57,56.75C324.47,53.89 324.39,51.03 324.32,48.17C324.25,45.31 324.21,42.44 324.17,39.58Q324.13,36.72 324.08,31L323.92,31Q323.87,36.72 323.83,39.58C323.79,42.44 323.75,45.31 323.68,48.17C323.61,51.03 323.53,53.89 323.43,56.75C323.33,59.61 323.21,62.48 323.07,65.34C322.94,68.2 322.78,71.06 322.62,73.92C322.46,76.78 322.28,79.65 322.11,82.51C321.94,85.37 321.75,88.23 321.59,91.09C321.42,93.95 321.26,96.82 321.12,99.68C320.98,102.54 320.86,105.4 320.76,108.26C320.66,111.12 320.57,113.99 320.5,116.85C320.43,119.71 320.38,122.57 320.34,125.43C320.3,128.29 320.27,131.16 320.24,134.02C320.21,136.88 320.2,139.74 320.18,142.6C320.17,145.46 320.16,148.32 320.15,151.18C320.14,154.04 320.14,156.91 320.13,159.77C320.12,162.63 320.11,165.49 320.11,168.35C320.1,171.21 320.11,174.08 320.1,176.94C320.1,179.8 320.09,182.66 320.08,185.52C320.07,188.38 320.05,191.25 320.03,194.11C320.01,196.97 319.99,199.83 319.97,202.69C319.95,205.55 319.92,208.42 319.89,211.28C319.86,214.14 319.83,217 319.79,219.86C319.75,222.72 319.71,225.59 319.66,228.45C319.61,231.31 319.55,234.17 319.49,237.03C319.43,239.89 319.36,242.76 319.29,245.62C319.22,248.48 319.13,251.34 319.05,254.2C318.96,257.06 318.87,259.92 318.78,262.78C318.69,265.64 318.6,268.51 318.5,271.37C318.4,274.23 318.3,277.09 318.19,279.95C318.08,282.81 317.98,285.68 317.86,288.54C317.74,291.4 317.62,294.26 317.48,297.12C317.34,299.98 317.19,302.85 317.04,305.71C316.89,308.57 316.73,311.43 316.57,314.29C316.41,317.15 316.23,320.02 316.06,322.88C315.89,325.74 315.71,328.6 315.54,331.46C315.36,334.32 315.19,337.19 315.01,340.05C314.83,342.91 314.64,345.77 314.45,348.63C314.25,351.49 314.05,354.36 313.84,357.22C313.63,360.08 313.42,362.94 313.19,365.8C312.96,368.66 312.73,371.52 312.48,374.38C312.23,377.24 311.97,380.11 311.7,382.97C311.43,385.83 311.15,388.69 310.85,391.55C310.55,394.41 310.25,397.28 309.92,400.14C309.59,403 309.24,405.86 308.87,408.72C308.5,411.58 308.11,414.45 307.7,417.31C307.29,420.17 306.86,423.03 306.41,425.89C305.96,428.75 305.49,431.62 305.01,434.48C304.53,437.34 304.04,440.2 303.55,443.06C303.06,445.92 302.56,448.79 302.05,451.65C301.54,454.51 301.03,457.37 300.51,460.23C299.99,463.09 299.46,465.96 298.92,468.82C298.38,471.68 297.81,474.54 297.25,477.4C296.68,480.26 296.09,483.12 295.53,485.98C294.98,488.84 294.39,491.7 293.92,494.57C293.45,497.43 292.97,500.28 292.71,503.15C292.45,506.01 292.25,508.88 292.34,511.74C292.43,514.6 292.7,517.48 293.26,520.32C293.83,523.21 294.69,526.09 295.74,528.91C296.82,531.81 298.22,534.66 299.68,537.49C301.17,540.39 302.94,543.23 304.62,546.08C306.31,548.95 308.14,551.78 309.79,554.66C311.42,557.51 313.07,560.36 314.48,563.25C315.86,566.08 317.14,568.94 318.2,571.83C319.24,574.66 320.09,577.54 320.79,580.42Q321.48,583.26 322.39,589Z" style="vector-effect: non-scaling-stroke; stroke-width: 2px; stroke: rgb(239, 85, 59); stroke-opacity: 1; fill: rgb(239, 85, 59); fill-opacity: 0.5;"/><path class="violin" d="M542.62,580.62Q544.12,575.77 545.22,573.41C546.37,570.95 547.79,568.53 549.41,566.19C551.13,563.71 553.18,561.32 555.33,558.97C557.58,556.5 560.16,554.15 562.66,551.76C565.2,549.33 567.96,546.98 570.46,544.54C572.89,542.17 575.41,539.82 577.44,537.32C579.33,534.99 581.16,532.61 582.34,530.11C583.44,527.79 584.22,525.32 584.47,522.89C584.71,520.51 584.38,518.04 583.85,515.67C583.31,513.23 582.24,510.83 581.19,508.46C580.11,506.02 578.71,503.64 577.41,501.24C576.1,498.83 574.68,496.44 573.37,494.03C572.07,491.63 570.76,489.23 569.57,486.81C568.39,484.42 567.28,482.01 566.26,479.59C565.25,477.2 564.34,474.8 563.49,472.38C562.65,469.99 561.9,467.58 561.21,465.16C560.52,462.76 559.92,460.35 559.36,457.94C558.8,455.54 558.32,453.14 557.86,450.73C557.4,448.33 557,445.92 556.6,443.51C556.21,441.11 555.84,438.7 555.49,436.29C555.14,433.89 554.82,431.49 554.51,429.08C554.2,426.68 553.9,424.27 553.62,421.86C553.35,419.46 553.1,417.06 552.86,414.65C552.63,412.25 552.41,409.84 552.21,407.43C552.01,405.02 551.84,402.62 551.66,400.21C551.48,397.81 551.31,395.4 551.14,393C550.97,390.59 550.8,388.19 550.62,385.78C550.44,383.37 550.26,380.97 550.07,378.56C549.88,376.16 549.69,373.75 549.5,371.35C549.31,368.94 549.12,366.54 548.93,364.13C548.75,361.72 548.57,359.32 548.39,356.91C548.22,354.51 548.05,352.1 547.88,349.7C547.71,347.29 547.55,344.89 547.39,342.48C547.23,340.08 547.07,337.67 546.91,335.27C546.75,332.86 546.6,330.46 546.45,328.05C546.3,325.64 546.16,323.24 546.03,320.83C545.9,318.43 545.78,316.02 545.67,313.62C545.56,311.21 545.48,308.81 545.39,306.4C545.31,303.99 545.23,301.59 545.16,299.18C545.1,296.78 545.05,294.37 545,291.97C544.95,289.56 544.9,287.16 544.86,284.75C544.82,282.34 544.78,279.94 544.75,277.53C544.72,275.13 544.69,272.72 544.66,270.32C544.63,267.91 544.6,265.51 544.57,263.1C544.54,260.7 544.51,258.29 544.48,255.89C544.45,253.48 544.41,251.08 544.38,248.67C544.34,246.26 544.31,243.86 544.27,241.45C544.23,239.05 544.19,236.64 544.15,234.24C544.11,231.83 544.07,229.43 544.03,227.02C543.99,224.61 543.96,222.21 543.92,219.8C543.88,217.4 543.84,214.99 543.8,212.59C543.76,210.18 543.73,207.78 543.69,205.37C543.65,202.96 543.61,200.56 543.56,198.15C543.51,195.75 543.46,193.34 543.41,190.94C543.36,188.53 543.3,186.13 543.24,183.72C543.18,181.31 543.11,178.91 543.05,176.5C542.99,174.1 542.92,171.69 542.86,169.29C542.8,166.88 542.73,164.48 542.67,162.07C542.61,159.67 542.55,157.26 542.49,154.86C542.43,152.45 542.38,150.05 542.32,147.64C542.27,145.23 542.21,142.83 542.16,140.42C542.11,138.02 542.05,135.61 542,133.21C541.95,130.8 541.91,128.4 541.86,125.99C541.81,123.58 541.77,121.18 541.72,118.77C541.67,116.37 541.63,113.96 541.58,111.56C541.53,109.15 541.48,106.75 541.43,104.34C541.38,101.93 541.32,99.53 541.26,97.12C541.2,94.72 541.13,92.31 541.06,89.91C540.99,87.5 540.92,85.1 540.85,82.69C540.78,80.29 540.71,77.88 540.64,75.48C540.57,73.07 540.5,70.67 540.44,68.26C540.38,65.85 540.33,63.45 540.28,61.04C540.23,58.64 540.19,56.23 540.16,53.83C540.13,51.42 540.11,49.02 540.09,46.61Q540.07,44.2 540.04,39.39L539.96,39.39Q539.93,44.2 539.91,46.61C539.89,49.02 539.87,51.42 539.84,53.83C539.81,56.23 539.77,58.64 539.72,61.04C539.67,63.45 539.62,65.85 539.56,68.26C539.5,70.67 539.43,73.07 539.36,75.48C539.29,77.88 539.22,80.29 539.15,82.69C539.08,85.1 539.01,87.5 538.94,89.91C538.87,92.31 538.8,94.72 538.74,97.12C538.68,99.53 538.62,101.93 538.57,104.34C538.52,106.75 538.47,109.15 538.42,111.56C538.37,113.96 538.33,116.37 538.28,118.77C538.23,121.18 538.19,123.58 538.14,125.99C538.09,128.4 538.05,130.8 538,133.21C537.95,135.61 537.89,138.02 537.84,140.42C537.79,142.83 537.73,145.23 537.68,147.64C537.62,150.05 537.57,152.45 537.51,154.86C537.45,157.26 537.39,159.67 537.33,162.07C537.27,164.48 537.2,166.88 537.14,169.29C537.08,171.69 537.01,174.1 536.95,176.5C536.89,178.91 536.82,181.31 536.76,183.72C536.7,186.13 536.64,188.53 536.59,190.94C536.54,193.34 536.49,195.75 536.44,198.15C536.39,200.56 536.35,202.96 536.31,205.37C536.27,207.78 536.24,210.18 536.2,212.59C536.16,214.99 536.12,217.4 536.08,219.8C536.04,222.21 536.01,224.61 535.97,227.02C535.93,229.43 535.89,231.83 535.85,234.24C535.81,236.64 535.77,239.05 535.73,241.45C535.69,243.86 535.66,246.26 535.62,248.67C535.59,251.08 535.55,253.48 535.52,255.89C535.49,258.29 535.46,260.7 535.43,263.1C535.4,265.51 535.37,267.91 535.34,270.32C535.31,272.72 535.28,275.13 535.25,277.53C535.22,279.94 535.18,282.34 535.14,284.75C535.1,287.16 535.05,289.56 535,291.97C534.95,294.37 534.9,296.78 534.84,299.18C534.77,301.59 534.69,303.99 534.61,306.4C534.52,308.81 534.44,311.21 534.33,313.62C534.22,316.02 534.1,318.43 533.97,320.83C533.84,323.24 533.7,325.64 533.55,328.05C533.4,330.46 533.25,332.86 533.09,335.27C532.93,337.67 532.77,340.08 532.61,342.48C532.45,344.89 532.29,347.29 532.12,349.7C531.95,352.1 531.78,354.51 531.61,356.91C531.43,359.32 531.25,361.72 531.07,364.13C530.88,366.54 530.69,368.94 530.5,371.35C530.31,373.75 530.12,376.16 529.93,378.56C529.74,380.97 529.56,383.37 529.38,385.78C529.2,388.19 529.03,390.59 528.86,393C528.69,395.4 528.52,397.81 528.34,400.21C528.16,402.62 527.99,405.02 527.79,407.43C527.59,409.84 527.37,412.25 527.14,414.65C526.9,417.06 526.65,419.46 526.38,421.86C526.1,424.27 525.8,426.68 525.49,429.08C525.18,431.49 524.86,433.89 524.51,436.29C524.16,438.7 523.79,441.11 523.4,443.51C523,445.92 522.6,448.33 522.14,450.73C521.68,453.14 521.2,455.54 520.64,457.94C520.08,460.35 519.48,462.76 518.79,465.16C518.1,467.58 517.35,469.99 516.51,472.38C515.66,474.8 514.75,477.2 513.74,479.59C512.72,482.01 511.61,484.42 510.43,486.81C509.24,489.23 507.93,491.63 506.63,494.03C505.32,496.44 503.9,498.83 502.59,501.24C501.29,503.64 499.89,506.02 498.81,508.46C497.76,510.83 496.69,513.23 496.15,515.67C495.62,518.04 495.29,520.51 495.53,522.89C495.78,525.32 496.56,527.79 497.66,530.11C498.84,532.61 500.67,534.99 502.56,537.32C504.59,539.82 507.11,542.17 509.54,544.54C512.04,546.98 514.8,549.33 517.34,551.76C519.84,554.15 522.42,556.5 524.67,558.97C526.82,561.32 528.87,563.71 530.59,566.19C532.21,568.53 533.63,570.95 534.78,573.41Q535.88,575.77 537.38,580.62Z" style="vector-effect: non-scaling-stroke; stroke-width: 2px; stroke: rgb(239, 85, 59); stroke-opacity: 1; fill: rgb(239, 85, 59); fill-opacity: 0.5;"/><path class="box" d="M94.77,502.81H121.23M94.77,531.56H121.23V429.06H94.77ZM108,531.56V537.29M108,429.06V277.85" style="vector-effect: non-scaling-stroke; stroke-width: 2px; stroke: rgb(239, 85, 59); stroke-opacity: 1; fill: rgb(239, 85, 59); fill-opacity: 0.5;"/><path class="box" d="M310.77,457.08H337.23M310.77,509.25H337.23V361.44H310.77ZM324,509.25V537.28M324,361.44V140.51" style="vector-effect: non-scaling-stroke; stroke-width: 2px; stroke: rgb(239, 85, 59); stroke-opacity: 1; fill: rgb(239, 85, 59); fill-opacity: 0.5;"/><path class="box" d="M526.77,485.44H553.23M526.77,525.08H553.23V394.54H526.77ZM540,525.08V537.3M540,394.54V198.87" style="vector-effect: non-scaling-stroke; stroke-width: 2px; stroke: rgb(239, 85, 59); stroke-opacity: 1; fill: rgb(239, 85, 59); fill-opacity: 0.5;"/><path class="mean" d="M94.77,459H121.23" style="fill: none; vector-effect: non-scaling-stroke; stroke-width: 2px; stroke-dasharray: 4px, 2px; stroke: rgb(239, 85, 59); stroke-opacity: 1;"/><path class="mean" d="M310.77,419H337.23" style="fill: none; vector-effect: non-scaling-stroke; stroke-width: 2px; stroke-dasharray: 4px, 2px; stroke: rgb(239, 85, 59); stroke-opacity: 1;"/><path class="mean" d="M526.77,443.17H553.23" style="fill: none; vector-effect: non-scaling-stroke; stroke-width: 2px; stroke-dasharray: 4px, 2px; stroke: rgb(239, 85, 59); stroke-opacity: 1;"/></g></g></g><g class="overplot"/><path class="xlines-above crisp" d="M0,0" style="fill: none;"/><path class="ylines-above crisp" d="M0,0" style="fill: none;"/><g class="overlines-above"/><g class="xaxislayer-above"><g class="x2tick"><text text-anchor="middle" x="0" y="733" transform="translate(980.0000000000001,0)" style="font-family: 'Open Sans', verdana, arial, sans-serif; font-size: 12px; fill: rgb(42, 63, 95); fill-opacity: 1; white-space: pre; opacity: 1;">&#60;=1</text></g><g class="x2tick"><text text-anchor="middle" x="0" y="733" transform="translate(1196,0)" style="font-family: 'Open Sans', verdana, arial, sans-serif; font-size: 12px; fill: rgb(42, 63, 95); fill-opacity: 1; white-space: pre; opacity: 1;">(1, 2]</text></g><g class="x2tick"><text text-anchor="middle" x="0" y="733" transform="translate(1412,0)" style="font-family: 'Open Sans', verdana, arial, sans-serif; font-size: 12px; fill: rgb(42, 63, 95); fill-opacity: 1; white-space: pre; opacity: 1;">>2</text></g></g><g class="yaxislayer-above"><g class="y2tick"><text text-anchor="end" x="871.0000000000001" y="4.199999999999999" transform="translate(0,637.31)" style="font-family: 'Open Sans', verdana, arial, sans-serif; font-size: 12px; fill: rgb(42, 63, 95); fill-opacity: 1; white-space: pre; opacity: 1;">0</text></g><g class="y2tick"><text text-anchor="end" x="871.0000000000001" y="4.199999999999999" style="font-family: 'Open Sans', verdana, arial, sans-serif; font-size: 12px; fill: rgb(42, 63, 95); fill-opacity: 1; white-space: pre; opacity: 1;" transform="translate(0,531.9200000000001)">1M</text></g><g class="y2tick"><text text-anchor="end" x="871.0000000000001" y="4.199999999999999" style="font-family: 'Open Sans', verdana, arial, sans-serif; font-size: 12px; fill: rgb(42, 63, 95); fill-opacity: 1; white-space: pre; opacity: 1;" transform="translate(0,426.53)">2M</text></g><g class="y2tick"><text text-anchor="end" x="871.0000000000001" y="4.199999999999999" style="font-family: 'Open Sans', verdana, arial, sans-serif; font-size: 12px; fill: rgb(42, 63, 95); fill-opacity: 1; white-space: pre; opacity: 1;" transform="translate(0,321.15)">3M</text></g><g class="y2tick"><text text-anchor="end" x="871.0000000000001" y="4.199999999999999" style="font-family: 'Open Sans', verdana, arial, sans-serif; font-size: 12px; fill: rgb(42, 63, 95); fill-opacity: 1; white-space: pre; opacity: 1;" transform="translate(0,215.76)">4M</text></g><g class="y2tick"><text text-anchor="end" x="871.0000000000001" y="4.199999999999999" style="font-family: 'Open Sans', verdana, arial, sans-serif; font-size: 12px; fill: rgb(42, 63, 95); fill-opacity: 1; white-space: pre; opacity: 1;" transform="translate(0,110.37)">5M</text></g></g><g class="overaxes-above"/></g></g><g class="polarlayer"/><g class="smithlayer"/><g class="ternarylayer"/><g class="geolayer"/><g class="funnelarealayer"/><g class="pielayer"/><g class="iciclelayer"/><g class="treemaplayer"/><g class="sunburstlayer"/><g class="glimages"/><defs id="topdefs-df6e69"><g class="clips"/></defs><g class="layer-above"><g class="imagelayer"/><g class="shapelayer"/></g><g class="infolayer"><g class="g-gtitle"><text class="gtitle" x="80" y="50" text-anchor="start" dy="0em" style="font-family: 'Open Sans', verdana, arial, sans-serif; font-size: 17px; fill: rgb(42, 63, 95); opacity: 1; font-weight: normal; white-space: pre;">whole_rank Distributions</text></g><g class="g-xtitle"><text class="xtitle" x="404" y="761.8" text-anchor="middle" style="font-family: 'Open Sans', verdana, arial, sans-serif; font-size: 14px; fill: rgb(42, 63, 95); opacity: 1; font-weight: normal; white-space: pre;">Hardcover over Paperback</text></g><g class="g-x2title"><text class="x2title" x="1196" y="761.8" text-anchor="middle" style="font-family: 'Open Sans', verdana, arial, sans-serif; font-size: 14px; fill: rgb(42, 63, 95); opacity: 1; font-weight: normal; white-space: pre;">Hardcover over Paperback</text></g><g class="g-ytitle"><text class="ytitle" transform="rotate(-90,19.668750000000003,410)" x="19.668750000000003" y="410" text-anchor="middle" style="font-family: 'Open Sans', verdana, arial, sans-serif; font-size: 14px; fill: rgb(42, 63, 95); opacity: 1; font-weight: normal; white-space: pre;">whole_rank</text></g><g class="g-y2title"><text class="y2title" transform="rotate(-90,828.54375,410)" x="828.54375" y="410" text-anchor="middle" style="font-family: 'Open Sans', verdana, arial, sans-serif; font-size: 14px; fill: rgb(42, 63, 95); opacity: 1; font-weight: normal; white-space: pre;">whole_rank</text></g><g class="annotation" data-index="0" style="opacity: 1;"><g class="annotation-text-g" transform="rotate(0,404,87)"><g class="cursor-pointer" transform="translate(363,74)"><rect class="bg" x="0.5" y="0.5" width="82" height="25" style="stroke-width: 1px; stroke: rgb(0, 0, 0); stroke-opacity: 0; fill: rgb(0, 0, 0); fill-opacity: 0;"/><text class="annotation-text" text-anchor="middle" x="41.296875" y="19" style="font-family: 'Open Sans', verdana, arial, sans-serif; font-size: 16px; fill: rgb(42, 63, 95); fill-opacity: 1; white-space: pre;">Paperback</text></g></g></g><g class="annotation" data-index="1" style="opacity: 1;"><g class="annotation-text-g" transform="rotate(0,1196,87)"><g class="cursor-pointer" transform="translate(1155,74)"><rect class="bg" x="0.5" y="0.5" width="81" height="25" style="stroke-width: 1px; stroke: rgb(0, 0, 0); stroke-opacity: 0; fill: rgb(0, 0, 0); fill-opacity: 0;"/><text class="annotation-text" text-anchor="middle" x="40.921875" y="19" style="font-family: 'Open Sans', verdana, arial, sans-serif; font-size: 16px; fill: rgb(42, 63, 95); fill-opacity: 1; white-space: pre;">Hardcover</text></g></g></g></g></svg>