<svg class="main-svg" xmlns="http://www.w3.org/2000/svg" xmlns:xlink="http://www.w3.org/1999/xlink" width="1600" height="800" style="" viewBox="0 0 1600 800"><rect x="0" y="0" width="1600" height="800" style="fill: rgb(255, 255, 255); fill-opacity: 1;"/><defs id="defs-4e4a1e"><g class="clips"><clipPath id="clip4e4a1exyplot" class="plotclip"><rect width="648" height="620"/></clipPath><clipPath id="clip4e4a1ex2y2plot" class="plotclip"><rect width="647.9999999999999" height="620"/></clipPath><clipPath class="axesclip" id="clip4e4a1ex"><rect x="80" y="0" width="648" height="800"/></clipPath><clipPath class="axesclip" id="clip4e4a1ey"><rect x="0" y="100" width="1600" height="620"/></clipPath><clipPath class="axesclip" id="clip4e4a1exy"><rect x="80" y="100" width="648" height="620"/></clipPath><clipPath class="axesclip" id="clip4e4a1ey2"><rect x="0" y="100" width="1600" height="620"/></clipPath><clipPath class="axesclip" id="clip4e4a1exy2"><rect x="80" y="100" width="648" height="620"/></clipPath><clipPath class="axesclip" id="clip4e4a1ex2"><rect x="872.0000000000001" y="0" width="647.9999999999999" height="800"/></clipPath><clipPath class="axesclip" id="clip4e4a1ex2y"><rect x="872.0000000000001" y="100" width="647.9999999999999" height="620"/></clipPath><clipPath class="axesclip" id="clip4e4a1ex2y2"><rect x="872.0000000000001" y="100" width="647.9999999999999" height="620"/></clipPath></g><g class="gradients"/><g class="patterns"/></defs><g class="bglayer"><rect class="bg" x="80" y="100" width="648" height="620" style="fill: rgb(229, 236, 246); fill-opacity: 1; stroke-width: 0;"/><rect class="bg" x="872.0000000000001" y="100" width="647.9999999999999" height="620" style="fill: rgb(229, 236, 246); fill-opacity: 1; stroke-width: 0;"/></g><g class="layer-below"><g class="imagelayer"/><g class="shapelayer"/></g><g class="cartesianlayer"><g class="subplot xy"><g class="layer-subplot"><g class="shapelayer"/><g class="imagelayer"/></g><g class="minor-gridlayer"><g class="x"/><g class="y"/></g><g class="gridlayer"><g class="x"/><g class="y"><path class="ygrid crisp" transform="translate(0,560.77)" d="M80,0h648" style="stroke: rgb(255, 255, 255); stroke-opacity: 1; stroke-width: 1px;"/><path class="ygrid crisp" transform="translate(0,470.2)" d="M80,0h648" style="stroke: rgb(255, 255, 255); stroke-opacity: 1; stroke-width: 1px;"/><path class="ygrid crisp" transform="translate(0,379.63)" d="M80,0h648" style="stroke: rgb(255, 255, 255); stroke-opacity: 1; stroke-width: 1px;"/><path class="ygrid crisp" transform="translate(0,289.06)" d="M80,0h648" style="stroke: rgb(255, 255, 255); stroke-opacity: 1; stroke-width: 1px;"/><path class="ygrid crisp" transform="translate(0,198.48000000000002)" d="M80,0h648" style="stroke: rgb(255, 255, 255); stroke-opacity: 1; stroke-width: 1px;"/><path class="ygrid crisp" transform="translate(0,107.91)" d="M80,0h648" style="stroke: rgb(255, 255, 255); stroke-opacity: 1; stroke-width: 1px;"/></g></g><g class="zerolinelayer"><path class="yzl zl crisp" transform="translate(0,651.35)" d="M80,0h648" style="stroke: rgb(255, 255, 255); stroke-opacity: 1; stroke-width: 2px;"/></g><path class="xlines-below"/><path class="ylines-below"/><g class="overlines-below"/><g class="xaxislayer-below"/><g class="yaxislayer-below"/><g class="overaxes-below"/><g class="plot" transform="translate(80,100)" clip-path="url(#clip4e4a1exyplot)"><g class="violinlayer mlayer"><g class="trace violins" style="opacity: 1;"><path class="violin" d="M108.29,230.81Q108.44,230.52 108.53,230.38C108.63,230.23 108.75,230.09 108.88,229.95C109.01,229.8 109.16,229.66 109.31,229.52C109.46,229.37 109.61,229.23 109.76,229.08C109.9,228.94 110.05,228.8 110.17,228.65C110.29,228.51 110.4,228.37 110.49,228.22C110.58,228.08 110.65,227.93 110.73,227.79C110.81,227.64 110.88,227.49 110.98,227.35C111.08,227.2 111.2,227.06 111.32,226.92C111.45,226.77 111.61,226.63 111.75,226.49C111.89,226.35 112.06,226.21 112.17,226.06C112.27,225.92 112.39,225.77 112.42,225.62C112.44,225.48 112.41,225.32 112.34,225.19C112.25,225.03 112.05,224.89 111.87,224.76C111.66,224.6 111.39,224.47 111.13,224.33C110.86,224.18 110.55,224.04 110.27,223.89C110,223.75 109.71,223.61 109.47,223.46C109.25,223.32 109.04,223.18 108.86,223.03C108.7,222.89 108.56,222.75 108.45,222.6C108.35,222.46 108.27,222.31 108.21,222.16C108.15,222.02 108.12,221.87 108.09,221.73C108.06,221.59 108.04,221.44 108.03,221.3C108.02,221.16 108.01,221.01 108.01,220.87C108,220.72 108,220.58 108,220.43C108,220.29 108,220.14 108,220C108,219.86 108,219.71 108,219.57C108,219.43 108,219.28 108,219.14C108,218.99 108,218.85 108,218.7C108,218.56 108,218.41 108,218.27C108,218.13 108,217.98 108,217.84C108,217.7 108,217.55 108,217.41C108,217.26 108,217.12 108,216.97C108,216.83 108,216.68 108,216.54C108,216.4 108,216.25 108,216.11C108,215.97 108,215.82 108,215.68C108,215.53 108,215.39 108,215.24C108,215.1 108,214.95 108,214.81C108,214.67 108,214.52 108,214.38C108,214.24 108,214.09 108,213.95C108,213.8 108,213.66 108,213.51C108,213.37 108,213.22 108,213.08C108,212.94 108,212.79 108,212.65C108,212.51 108,212.36 108,212.22C108,212.07 108,211.93 108,211.78C108,211.64 108,211.49 108,211.35C108,211.21 108,211.06 108,210.92C108,210.78 108,210.63 108,210.49C108,210.34 108,210.2 108,210.05C108,209.91 108,209.76 108,209.62C108,209.48 108,209.33 108,209.19C108,209.05 108,208.9 108,208.76C108,208.62 108,208.47 108,208.33C108,208.18 108,208.04 108,207.89C108,207.75 108,207.6 108,207.46C108,207.32 108,207.17 108,207.03C108,206.89 108,206.74 108,206.6C108,206.45 108,206.31 108,206.16C108,206.02 108,205.87 108,205.73C108,205.59 108,205.44 108,205.3C108,205.16 108,205.01 108,204.87C108,204.72 108,204.58 108,204.43C108,204.29 108,204.14 108,204C108,203.86 108,203.71 108,203.57C108,203.43 108,203.28 108,203.14C108,202.99 108.01,202.85 108.01,202.7C108.01,202.56 108.02,202.41 108.02,202.27C108.03,202.13 108.03,201.98 108.04,201.84C108.05,201.7 108.07,201.55 108.1,201.41C108.13,201.26 108.17,201.11 108.22,200.97C108.27,200.82 108.34,200.68 108.42,200.54C108.51,200.39 108.62,200.25 108.73,200.11C108.85,199.96 108.99,199.82 109.12,199.68C109.26,199.53 109.41,199.39 109.54,199.24C109.67,199.1 109.8,198.96 109.9,198.81C109.99,198.67 110.07,198.53 110.1,198.38C110.13,198.24 110.11,198.09 110.07,197.95C110.03,197.8 109.93,197.65 109.83,197.51C109.72,197.36 109.58,197.22 109.45,197.08C109.31,196.93 109.16,196.8 109.02,196.65C108.89,196.51 108.76,196.37 108.65,196.22C108.54,196.08 108.45,195.93 108.37,195.78C108.3,195.64 108.24,195.5 108.19,195.35C108.14,195.21 108.11,195.06 108.08,194.92C108.05,194.78 108.04,194.63 108.03,194.49C108.02,194.34 108.02,194.2 108.01,194.05C108.01,193.91 108,193.76 108,193.62C108,193.48 108,193.33 108,193.19C108,193.05 108,192.9 108,192.76C108,192.61 108,192.47 108,192.32C108,192.18 108,192.03 108,191.89C108,191.75 108,191.6 108,191.46C108,191.32 108,191.17 108,191.03C108,190.88 108,190.74 108,190.59C108,190.45 108,190.3 108,190.16C108,190.02 108,189.87 108,189.73C108,189.59 108,189.44 108,189.3C108,189.15 108,189.01 108,188.86C108,188.72 108,188.57 108,188.43C108,188.29 108,188.14 108,188C108,187.86 108,187.71 108,187.57C108,187.42 108,187.28 108,187.13C108,186.99 108,186.84 108,186.7C108,186.56 108,186.41 108,186.27C108,186.13 108,185.98 108,185.84C108,185.7 108,185.55 108,185.41C108,185.26 108,185.12 108,184.97C108,184.83 108,184.68 108,184.54C108,184.4 108,184.25 108,184.11C108,183.97 108,183.82 108,183.68C108,183.53 108,183.39 108,183.24C108,183.1 108,182.95 108,182.81C108,182.67 108,182.52 108,182.38C108,182.24 108,182.09 108,181.95C108,181.8 108,181.66 108,181.51C108,181.37 108,181.22 108,181.08C108,180.94 108,180.79 108,180.65C108,180.51 108,180.36 108,180.22C108,180.07 108,179.93 108,179.78C108,179.64 108,179.49 108,179.35C108,179.21 108,179.06 108,178.92C108,178.78 108,178.63 108,178.49C108,178.34 108,178.2 108,178.05C108,177.91 108,177.76 108,177.62C108,177.48 108,177.33 108,177.19C108,177.05 108,176.9 108,176.76C108,176.61 108,176.47 108,176.32C108,176.18 108,176.03 108,175.89C108,175.75 108,175.6 108,175.46C108,175.32 108,175.17 108,175.03C108,174.88 108,174.74 108,174.59C108,174.45 108,174.3 108,174.16C108,174.02 108,173.87 108,173.73C108,173.59 108,173.44 108,173.3C108,173.15 108,173.01 108,172.86C108,172.72 108,172.57 108,172.43C108,172.29 108,172.14 108,172C108,171.86 108,171.71 108,171.57C108,171.42 108,171.28 108,171.13C108,170.99 108,170.84 108,170.7C108,170.56 108,170.41 108,170.27C108,170.13 108,169.98 108,169.84C108,169.69 108,169.55 108,169.4C108,169.26 108,169.11 108,168.97C108,168.83 108,168.68 108,168.54C108,168.4 108,168.25 108,168.11C108,167.96 108,167.82 108,167.67C108,167.53 108,167.38 108,167.24C108,167.1 108,166.95 108,166.81C108,166.67 108,166.52 108,166.38C108,166.23 108,166.09 108,165.94C108,165.8 108,165.65 108,165.51C108,165.37 108,165.22 108,165.08C108,164.94 108,164.79 108,164.65C108,164.5 108,164.36 108,164.21C108,164.07 108,163.92 108,163.78C108,163.64 108,163.49 108,163.35C108,163.21 108,163.06 108,162.92C108,162.78 108,162.63 108,162.49C108,162.34 108,162.2 108,162.05C108,161.91 108,161.76 108,161.62C108,161.48 108,161.33 108,161.19C108,161.05 108,160.9 108,160.76C108,160.61 108,160.47 108,160.32C108,160.18 108,160.03 108,159.89C108,159.75 108,159.6 108,159.46C108,159.32 108,159.17 108,159.03C108,158.88 108,158.74 108,158.59C108,158.45 108,158.3 108,158.16C108,158.02 108,157.87 108,157.73C108,157.59 108,157.44 108,157.3C108,157.15 108,157.01 108,156.86C108,156.72 108,156.57 108,156.43C108,156.29 108,156.14 108,156C108,155.86 108,155.71 108,155.57C108,155.42 108,155.28 108,155.13C108,154.99 108,154.84 108,154.7C108,154.56 108,154.41 108,154.27C108,154.13 108,153.98 108,153.84C108,153.69 108,153.55 108,153.4C108,153.26 108,153.11 108,152.97C108,152.83 108,152.68 108,152.54C108,152.4 108,152.25 108,152.11C108,151.96 108,151.82 108,151.67C108,151.53 108,151.38 108,151.24C108,151.1 108,150.95 108,150.81C108,150.67 108,150.52 108,150.38C108,150.23 108,150.09 108,149.94C108,149.8 108,149.65 108,149.51C108,149.37 108,149.22 108,149.08C108,148.94 108,148.79 108,148.65C108,148.5 108,148.36 108,148.21C108,148.07 108,147.92 108,147.78C108,147.64 108,147.49 108,147.35C108,147.21 108,147.06 108,146.92C108,146.77 108,146.63 108,146.48C108,146.34 108,146.19 108,146.05C108,145.91 108,145.76 108,145.62C108,145.48 108,145.33 108,145.19C108,145.04 108,144.9 108,144.75C108,144.61 108,144.46 108,144.32C108,144.18 108,144.03 108,143.89C108,143.75 108,143.6 108,143.46C108,143.31 108,143.17 108,143.02C108,142.88 108,142.73 108,142.59C108,142.45 108,142.3 108,142.16C108,142.02 108,141.87 108,141.73C108,141.58 108,141.44 108,141.29C108,141.15 108,141 108,140.86C108,140.72 108,140.57 108,140.43C108,140.29 108,140.14 108,140C108,139.86 108,139.71 108,139.57C108,139.42 108,139.28 108,139.13C108,138.99 108,138.84 108,138.7C108,138.56 108,138.41 108,138.27C108,138.13 108,137.98 108,137.84C108,137.69 108,137.55 108,137.4C108,137.26 108,137.11 108,136.97C108,136.83 108,136.68 108,136.54C108,136.4 108,136.25 108,136.11C108,135.96 108,135.82 108,135.67C108,135.53 108,135.38 108,135.24C108,135.1 108,134.95 108,134.81C108,134.67 108,134.52 108,134.38C108,134.23 108,134.09 108,133.94C108,133.8 108,133.65 108,133.51C108,133.37 108,133.22 108,133.08C108,132.94 108,132.79 108,132.65C108,132.5 108,132.36 108,132.21C108,132.07 108,131.92 108,131.78C108,131.64 108,131.49 108,131.35C108,131.21 108.01,131.06 108.01,130.92C108.02,130.77 108.02,130.63 108.03,130.48C108.04,130.34 108.06,130.19 108.08,130.05C108.11,129.91 108.13,129.76 108.18,129.62C108.23,129.47 108.29,129.33 108.36,129.19C108.44,129.04 108.53,128.89 108.63,128.75C108.74,128.6 108.87,128.46 109,128.32C109.14,128.17 109.29,128.04 109.43,127.89C109.56,127.75 109.7,127.61 109.81,127.46C109.91,127.32 110.02,127.17 110.07,127.02C110.11,126.88 110.12,126.73 110.1,126.59C110.08,126.44 110,126.3 109.92,126.16C109.83,126.01 109.69,125.87 109.56,125.73C109.43,125.58 109.28,125.44 109.14,125.29C109.01,125.15 108.87,125.01 108.75,124.86C108.64,124.72 108.53,124.58 108.44,124.43C108.36,124.29 108.29,124.15 108.23,124C108.18,123.86 108.14,123.71 108.11,123.56C108.08,123.42 108.05,123.27 108.04,123.13C108.03,122.99 108.03,122.84 108.02,122.7C108.02,122.56 108.01,122.41 108.01,122.27C108.01,122.12 108,121.98 108,121.83C108,121.69 108,121.54 108,121.4C108,121.26 108,121.11 108,120.97C108,120.83 108,120.68 108,120.54C108,120.39 108,120.25 108,120.1C108,119.96 108,119.81 108,119.67C108,119.53 108,119.38 108,119.24C108,119.1 108,118.95 108,118.81C108,118.66 108,118.52 108,118.37C108,118.23 108,118.08 108,117.94C108,117.8 108,117.65 108,117.51C108,117.37 108,117.22 108,117.08C108,116.94 108,116.79 108,116.65C108,116.5 108,116.36 108,116.21C108,116.07 108,115.92 108,115.78C108,115.64 108,115.49 108,115.35C108,115.21 108,115.06 108,114.92C108,114.77 108,114.63 108,114.48C108,114.34 108,114.19 108,114.05C108,113.91 108,113.76 108,113.62C108,113.48 108,113.33 108,113.19C108,113.04 108,112.9 108,112.75C108,112.61 108,112.46 108,112.32C108,112.18 108,112.03 108,111.89C108,111.75 108,111.6 108,111.46C108,111.31 108,111.17 108,111.02C108,110.88 108,110.73 108,110.59C108,110.45 108,110.3 108,110.16C108,110.02 108,109.87 108,109.73C108,109.58 108,109.44 108,109.29C108,109.15 108,109 108,108.86C108,108.72 108,108.57 108,108.43C108,108.29 108,108.14 108,108C108,107.85 108,107.71 108,107.56C108,107.42 108,107.27 108,107.13C108,106.99 108,106.84 108,106.7C108,106.56 108,106.41 108,106.27C108,106.12 108,105.98 108,105.83C108,105.69 108,105.54 108,105.4C108,105.26 108,105.11 108,104.97C108,104.83 108,104.68 108,104.54C108,104.39 108,104.25 108,104.1C108,103.96 108.01,103.81 108.02,103.67C108.03,103.53 108.03,103.38 108.06,103.24C108.09,103.09 108.12,102.95 108.2,102.81C108.29,102.65 108.42,102.5 108.59,102.37C108.82,102.2 109.14,102.07 109.51,101.94C110.04,101.76 110.72,101.64 111.48,101.51C112.51,101.34 113.78,101.21 115.16,101.08C116.92,100.91 119.01,100.77 121.2,100.64C123.8,100.48 126.77,100.35 129.76,100.21C133.04,100.06 136.66,99.92 140.1,99.78C143.53,99.64 147.2,99.51 150.38,99.35C153.13,99.21 156.12,99.11 158.06,98.91C159.25,98.79 160.92,98.62 160.92,98.48C160.92,98.34 159.25,98.17 158.06,98.05C156.12,97.85 153.13,97.76 150.38,97.62C147.2,97.46 143.53,97.32 140.1,97.18C136.66,97.03 133.04,96.9 129.76,96.75C126.77,96.61 123.8,96.48 121.2,96.32Q119.01,96.19 115.16,95.89L100.84,95.89Q96.99,96.19 94.8,96.32C92.2,96.48 89.23,96.61 86.24,96.75C82.96,96.9 79.34,97.03 75.9,97.18C72.47,97.32 68.8,97.46 65.62,97.62C62.87,97.76 59.88,97.85 57.94,98.05C56.75,98.17 55.08,98.34 55.08,98.48C55.08,98.62 56.75,98.79 57.94,98.91C59.88,99.11 62.87,99.21 65.62,99.35C68.8,99.51 72.47,99.64 75.9,99.78C79.34,99.92 82.96,100.06 86.24,100.21C89.23,100.35 92.2,100.48 94.8,100.64C96.99,100.77 99.08,100.91 100.84,101.08C102.22,101.21 103.49,101.34 104.52,101.51C105.28,101.64 105.96,101.76 106.49,101.94C106.86,102.07 107.18,102.2 107.41,102.37C107.58,102.5 107.71,102.65 107.8,102.81C107.88,102.95 107.91,103.09 107.94,103.24C107.97,103.38 107.97,103.53 107.98,103.67C107.99,103.81 108,103.96 108,104.1C108,104.25 108,104.39 108,104.54C108,104.68 108,104.83 108,104.97C108,105.11 108,105.26 108,105.4C108,105.54 108,105.69 108,105.83C108,105.98 108,106.12 108,106.27C108,106.41 108,106.56 108,106.7C108,106.84 108,106.99 108,107.13C108,107.27 108,107.42 108,107.56C108,107.71 108,107.85 108,108C108,108.14 108,108.29 108,108.43C108,108.57 108,108.72 108,108.86C108,109 108,109.15 108,109.29C108,109.44 108,109.58 108,109.73C108,109.87 108,110.02 108,110.16C108,110.3 108,110.45 108,110.59C108,110.73 108,110.88 108,111.02C108,111.17 108,111.31 108,111.46C108,111.6 108,111.75 108,111.89C108,112.03 108,112.18 108,112.32C108,112.46 108,112.61 108,112.75C108,112.9 108,113.04 108,113.19C108,113.33 108,113.48 108,113.62C108,113.76 108,113.91 108,114.05C108,114.19 108,114.34 108,114.48C108,114.63 108,114.77 108,114.92C108,115.06 108,115.21 108,115.35C108,115.49 108,115.64 108,115.78C108,115.92 108,116.07 108,116.21C108,116.36 108,116.5 108,116.65C108,116.79 108,116.94 108,117.08C108,117.22 108,117.37 108,117.51C108,117.65 108,117.8 108,117.94C108,118.08 108,118.23 108,118.37C108,118.52 108,118.66 108,118.81C108,118.95 108,119.1 108,119.24C108,119.38 108,119.53 108,119.67C108,119.81 108,119.96 108,120.1C108,120.25 108,120.39 108,120.54C108,120.68 108,120.83 108,120.97C108,121.11 108,121.26 108,121.4C108,121.54 108,121.69 108,121.83C108,121.98 107.99,122.12 107.99,122.27C107.99,122.41 107.98,122.56 107.98,122.7C107.97,122.84 107.97,122.99 107.96,123.13C107.95,123.27 107.92,123.42 107.89,123.56C107.86,123.71 107.82,123.86 107.77,124C107.71,124.15 107.64,124.29 107.56,124.43C107.47,124.58 107.36,124.72 107.25,124.86C107.13,125.01 106.99,125.15 106.86,125.29C106.72,125.44 106.57,125.58 106.44,125.73C106.31,125.87 106.17,126.01 106.08,126.16C106,126.3 105.92,126.44 105.9,126.59C105.88,126.73 105.89,126.88 105.93,127.02C105.98,127.17 106.09,127.32 106.19,127.46C106.3,127.61 106.44,127.75 106.57,127.89C106.71,128.04 106.86,128.17 107,128.32C107.13,128.46 107.26,128.6 107.37,128.75C107.47,128.89 107.56,129.04 107.64,129.19C107.71,129.33 107.77,129.47 107.82,129.62C107.87,129.76 107.89,129.91 107.92,130.05C107.94,130.19 107.96,130.34 107.97,130.48C107.98,130.63 107.98,130.77 107.99,130.92C107.99,131.06 108,131.21 108,131.35C108,131.49 108,131.64 108,131.78C108,131.92 108,132.07 108,132.21C108,132.36 108,132.5 108,132.65C108,132.79 108,132.94 108,133.08C108,133.22 108,133.37 108,133.51C108,133.65 108,133.8 108,133.94C108,134.09 108,134.23 108,134.38C108,134.52 108,134.67 108,134.81C108,134.95 108,135.1 108,135.24C108,135.38 108,135.53 108,135.67C108,135.82 108,135.96 108,136.11C108,136.25 108,136.4 108,136.54C108,136.68 108,136.83 108,136.97C108,137.11 108,137.26 108,137.4C108,137.55 108,137.69 108,137.84C108,137.98 108,138.13 108,138.27C108,138.41 108,138.56 108,138.7C108,138.84 108,138.99 108,139.13C108,139.28 108,139.42 108,139.57C108,139.71 108,139.86 108,140C108,140.14 108,140.29 108,140.43C108,140.57 108,140.72 108,140.86C108,141 108,141.15 108,141.29C108,141.44 108,141.58 108,141.73C108,141.87 108,142.02 108,142.16C108,142.3 108,142.45 108,142.59C108,142.73 108,142.88 108,143.02C108,143.17 108,143.31 108,143.46C108,143.6 108,143.75 108,143.89C108,144.03 108,144.18 108,144.32C108,144.46 108,144.61 108,144.75C108,144.9 108,145.04 108,145.19C108,145.33 108,145.48 108,145.62C108,145.76 108,145.91 108,146.05C108,146.19 108,146.34 108,146.48C108,146.63 108,146.77 108,146.92C108,147.06 108,147.21 108,147.35C108,147.49 108,147.64 108,147.78C108,147.92 108,148.07 108,148.21C108,148.36 108,148.5 108,148.65C108,148.79 108,148.94 108,149.08C108,149.22 108,149.37 108,149.51C108,149.65 108,149.8 108,149.94C108,150.09 108,150.23 108,150.38C108,150.52 108,150.67 108,150.81C108,150.95 108,151.1 108,151.24C108,151.38 108,151.53 108,151.67C108,151.82 108,151.96 108,152.11C108,152.25 108,152.4 108,152.54C108,152.68 108,152.83 108,152.97C108,153.11 108,153.26 108,153.4C108,153.55 108,153.69 108,153.84C108,153.98 108,154.13 108,154.27C108,154.41 108,154.56 108,154.7C108,154.84 108,154.99 108,155.13C108,155.28 108,155.42 108,155.57C108,155.71 108,155.86 108,156C108,156.14 108,156.29 108,156.43C108,156.57 108,156.72 108,156.86C108,157.01 108,157.15 108,157.3C108,157.44 108,157.59 108,157.73C108,157.87 108,158.02 108,158.16C108,158.3 108,158.45 108,158.59C108,158.74 108,158.88 108,159.03C108,159.17 108,159.32 108,159.46C108,159.6 108,159.75 108,159.89C108,160.03 108,160.18 108,160.32C108,160.47 108,160.61 108,160.76C108,160.9 108,161.05 108,161.19C108,161.33 108,161.48 108,161.62C108,161.76 108,161.91 108,162.05C108,162.2 108,162.34 108,162.49C108,162.63 108,162.78 108,162.92C108,163.06 108,163.21 108,163.35C108,163.49 108,163.64 108,163.78C108,163.92 108,164.07 108,164.21C108,164.36 108,164.5 108,164.65C108,164.79 108,164.94 108,165.08C108,165.22 108,165.37 108,165.51C108,165.65 108,165.8 108,165.94C108,166.09 108,166.23 108,166.38C108,166.52 108,166.67 108,166.81C108,166.95 108,167.1 108,167.24C108,167.38 108,167.53 108,167.67C108,167.82 108,167.96 108,168.11C108,168.25 108,168.4 108,168.54C108,168.68 108,168.83 108,168.97C108,169.11 108,169.26 108,169.4C108,169.55 108,169.69 108,169.84C108,169.98 108,170.13 108,170.27C108,170.41 108,170.56 108,170.7C108,170.84 108,170.99 108,171.13C108,171.28 108,171.42 108,171.57C108,171.71 108,171.86 108,172C108,172.14 108,172.29 108,172.43C108,172.57 108,172.72 108,172.86C108,173.01 108,173.15 108,173.3C108,173.44 108,173.59 108,173.73C108,173.87 108,174.02 108,174.16C108,174.3 108,174.45 108,174.59C108,174.74 108,174.88 108,175.03C108,175.17 108,175.32 108,175.46C108,175.6 108,175.75 108,175.89C108,176.03 108,176.18 108,176.32C108,176.47 108,176.61 108,176.76C108,176.9 108,177.05 108,177.19C108,177.33 108,177.48 108,177.62C108,177.76 108,177.91 108,178.05C108,178.2 108,178.34 108,178.49C108,178.63 108,178.78 108,178.92C108,179.06 108,179.21 108,179.35C108,179.49 108,179.64 108,179.78C108,179.93 108,180.07 108,180.22C108,180.36 108,180.51 108,180.65C108,180.79 108,180.94 108,181.08C108,181.22 108,181.37 108,181.51C108,181.66 108,181.8 108,181.95C108,182.09 108,182.24 108,182.38C108,182.52 108,182.67 108,182.81C108,182.95 108,183.1 108,183.24C108,183.39 108,183.53 108,183.68C108,183.82 108,183.97 108,184.11C108,184.25 108,184.4 108,184.54C108,184.68 108,184.83 108,184.97C108,185.12 108,185.26 108,185.41C108,185.55 108,185.7 108,185.84C108,185.98 108,186.13 108,186.27C108,186.41 108,186.56 108,186.7C108,186.84 108,186.99 108,187.13C108,187.28 108,187.42 108,187.57C108,187.71 108,187.86 108,188C108,188.14 108,188.29 108,188.43C108,188.57 108,188.72 108,188.86C108,189.01 108,189.15 108,189.3C108,189.44 108,189.59 108,189.73C108,189.87 108,190.02 108,190.16C108,190.3 108,190.45 108,190.59C108,190.74 108,190.88 108,191.03C108,191.17 108,191.32 108,191.46C108,191.6 108,191.75 108,191.89C108,192.03 108,192.18 108,192.32C108,192.47 108,192.61 108,192.76C108,192.9 108,193.05 108,193.19C108,193.33 108,193.48 108,193.62C108,193.76 107.99,193.91 107.99,194.05C107.98,194.2 107.98,194.34 107.97,194.49C107.96,194.63 107.95,194.78 107.92,194.92C107.89,195.06 107.86,195.21 107.81,195.35C107.76,195.5 107.7,195.64 107.63,195.78C107.55,195.93 107.46,196.08 107.35,196.22C107.24,196.37 107.11,196.51 106.98,196.65C106.84,196.8 106.69,196.93 106.55,197.08C106.42,197.22 106.28,197.36 106.17,197.51C106.07,197.65 105.97,197.8 105.93,197.95C105.89,198.09 105.87,198.24 105.9,198.38C105.93,198.53 106.01,198.67 106.1,198.81C106.2,198.96 106.33,199.1 106.46,199.24C106.59,199.39 106.74,199.53 106.88,199.68C107.01,199.82 107.15,199.96 107.27,200.11C107.38,200.25 107.49,200.39 107.58,200.54C107.66,200.68 107.73,200.82 107.78,200.97C107.83,201.11 107.87,201.26 107.9,201.41C107.93,201.55 107.95,201.7 107.96,201.84C107.97,201.98 107.97,202.13 107.98,202.27C107.98,202.41 107.99,202.56 107.99,202.7C107.99,202.85 108,202.99 108,203.14C108,203.28 108,203.43 108,203.57C108,203.71 108,203.86 108,204C108,204.14 108,204.29 108,204.43C108,204.58 108,204.72 108,204.87C108,205.01 108,205.16 108,205.3C108,205.44 108,205.59 108,205.73C108,205.87 108,206.02 108,206.16C108,206.31 108,206.45 108,206.6C108,206.74 108,206.89 108,207.03C108,207.17 108,207.32 108,207.46C108,207.6 108,207.75 108,207.89C108,208.04 108,208.18 108,208.33C108,208.47 108,208.62 108,208.76C108,208.9 108,209.05 108,209.19C108,209.33 108,209.48 108,209.62C108,209.76 108,209.91 108,210.05C108,210.2 108,210.34 108,210.49C108,210.63 108,210.78 108,210.92C108,211.06 108,211.21 108,211.35C108,211.49 108,211.64 108,211.78C108,211.93 108,212.07 108,212.22C108,212.36 108,212.51 108,212.65C108,212.79 108,212.94 108,213.08C108,213.22 108,213.37 108,213.51C108,213.66 108,213.8 108,213.95C108,214.09 108,214.24 108,214.38C108,214.52 108,214.67 108,214.81C108,214.95 108,215.1 108,215.24C108,215.39 108,215.53 108,215.68C108,215.82 108,215.97 108,216.11C108,216.25 108,216.4 108,216.54C108,216.68 108,216.83 108,216.97C108,217.12 108,217.26 108,217.41C108,217.55 108,217.7 108,217.84C108,217.98 108,218.13 108,218.27C108,218.41 108,218.56 108,218.7C108,218.85 108,218.99 108,219.14C108,219.28 108,219.43 108,219.57C108,219.71 108,219.86 108,220C108,220.14 108,220.29 108,220.43C108,220.58 108,220.72 107.99,220.87C107.99,221.01 107.98,221.16 107.97,221.3C107.96,221.44 107.94,221.59 107.91,221.73C107.88,221.87 107.85,222.02 107.79,222.16C107.73,222.31 107.65,222.46 107.55,222.6C107.44,222.75 107.3,222.89 107.14,223.03C106.96,223.18 106.75,223.32 106.53,223.46C106.29,223.61 106,223.75 105.73,223.89C105.45,224.04 105.14,224.18 104.87,224.33C104.61,224.47 104.34,224.6 104.13,224.76C103.95,224.89 103.75,225.03 103.66,225.19C103.59,225.32 103.56,225.48 103.58,225.62C103.61,225.77 103.73,225.92 103.83,226.06C103.94,226.21 104.11,226.35 104.25,226.49C104.39,226.63 104.55,226.77 104.68,226.92C104.8,227.06 104.92,227.2 105.02,227.35C105.12,227.49 105.19,227.64 105.27,227.79C105.35,227.93 105.42,228.08 105.51,228.22C105.6,228.37 105.71,228.51 105.83,228.65C105.95,228.8 106.1,228.94 106.24,229.08C106.39,229.23 106.54,229.37 106.69,229.52C106.84,229.66 106.99,229.8 107.12,229.95C107.25,230.09 107.37,230.23 107.47,230.38Q107.56,230.52 107.71,230.81Z" style="vector-effect: non-scaling-stroke; stroke-width: 2px; stroke: rgb(99, 110, 250); stroke-opacity: 1; fill: rgb(99, 110, 250); fill-opacity: 0.5;"/><path class="violin" d="M324.02,384.77Q324.02,378.18 324.03,374.88C324.04,371.59 324.05,368.29 324.06,365C324.07,361.71 324.07,358.41 324.08,355.12C324.09,351.82 324.1,348.53 324.11,345.23C324.12,341.94 324.13,338.64 324.14,335.35C324.15,332.06 324.16,328.76 324.16,325.47C324.17,322.17 324.17,318.88 324.17,315.58C324.17,312.29 324.18,308.99 324.18,305.7C324.18,302.41 324.18,299.11 324.19,295.82C324.2,292.53 324.21,289.23 324.23,285.94C324.25,282.64 324.26,279.35 324.29,276.05C324.32,272.76 324.35,269.46 324.39,266.17C324.43,262.88 324.47,259.58 324.52,256.29C324.57,252.99 324.63,249.7 324.69,246.4C324.75,243.11 324.82,239.81 324.88,236.52C324.94,233.23 325,229.93 325.05,226.64C325.1,223.34 325.14,220.05 325.17,216.75C325.2,213.46 325.22,210.16 325.22,206.87C325.22,203.58 325.22,200.28 325.2,196.99C325.18,193.69 325.15,190.4 325.12,187.1C325.09,183.81 325.04,180.51 325,177.22C324.96,173.93 324.92,170.63 324.89,167.34C324.86,164.04 324.82,160.75 324.8,157.45C324.78,154.16 324.76,150.86 324.76,147.57C324.76,144.28 324.78,140.98 324.79,137.69C324.81,134.4 324.83,131.1 324.85,127.81C324.87,124.51 324.91,121.22 324.93,117.92C324.95,114.63 324.98,111.33 324.99,108.04C325,104.75 325,101.45 324.98,98.16C324.96,94.86 324.93,91.57 324.89,88.27C324.85,84.98 324.8,81.68 324.74,78.39C324.68,75.1 324.61,71.8 324.55,68.51C324.49,65.21 324.43,61.92 324.37,58.62C324.32,55.33 324.26,52.03 324.22,48.74Q324.18,45.45 324.12,38.86L323.88,38.86Q323.82,45.45 323.78,48.74C323.74,52.03 323.68,55.33 323.63,58.62C323.57,61.92 323.51,65.21 323.45,68.51C323.39,71.8 323.32,75.1 323.26,78.39C323.2,81.68 323.15,84.98 323.11,88.27C323.07,91.57 323.04,94.86 323.02,98.16C323,101.45 323,104.75 323.01,108.04C323.02,111.33 323.05,114.63 323.07,117.92C323.09,121.22 323.13,124.51 323.15,127.81C323.17,131.1 323.19,134.4 323.21,137.69C323.22,140.98 323.24,144.28 323.24,147.57C323.24,150.86 323.22,154.16 323.2,157.45C323.18,160.75 323.14,164.04 323.11,167.34C323.08,170.63 323.04,173.93 323,177.22C322.96,180.51 322.91,183.81 322.88,187.1C322.85,190.4 322.82,193.69 322.8,196.99C322.78,200.28 322.78,203.58 322.78,206.87C322.78,210.16 322.8,213.46 322.83,216.75C322.86,220.05 322.9,223.34 322.95,226.64C323,229.93 323.06,233.23 323.12,236.52C323.18,239.81 323.25,243.11 323.31,246.4C323.37,249.7 323.43,252.99 323.48,256.29C323.53,259.58 323.57,262.88 323.61,266.17C323.65,269.46 323.68,272.76 323.71,276.05C323.74,279.35 323.75,282.64 323.77,285.94C323.79,289.23 323.8,292.53 323.81,295.82C323.82,299.11 323.82,302.41 323.82,305.7C323.82,308.99 323.83,312.29 323.83,315.58C323.83,318.88 323.83,322.17 323.84,325.47C323.84,328.76 323.85,332.06 323.86,335.35C323.87,338.64 323.88,341.94 323.89,345.23C323.9,348.53 323.91,351.82 323.92,355.12C323.93,358.41 323.93,361.71 323.94,365C323.95,368.29 323.96,371.59 323.97,374.88Q323.98,378.18 323.98,384.77Z" style="vector-effect: non-scaling-stroke; stroke-width: 2px; stroke: rgb(99, 110, 250); stroke-opacity: 1; fill: rgb(99, 110, 250); fill-opacity: 0.5;"/><path class="violin" d="M540,589Q540,581.56 540,577.84C540,574.12 540.01,570.4 540.01,566.68C540.01,562.96 540.01,559.24 540.01,555.52C540.01,551.8 540.01,548.08 540.01,544.36C540.01,540.64 540.02,536.92 540.02,533.2C540.02,529.48 540.02,525.76 540.02,522.04C540.02,518.32 540.02,514.6 540.02,510.88C540.02,507.16 540.01,503.44 540.01,499.72C540.01,496 540.01,492.28 540.01,488.56C540.01,484.84 540.01,481.12 540.01,477.4C540.01,473.68 540.01,469.96 540.01,466.24C540.01,462.52 540.01,458.8 540.01,455.08C540.01,451.36 540.01,447.64 540.01,443.92C540.01,440.2 540.02,436.48 540.02,432.76C540.02,429.04 540.03,425.32 540.03,421.6C540.03,417.88 540.04,414.16 540.04,410.44C540.05,406.72 540.05,403 540.06,399.28C540.07,395.56 540.07,391.84 540.08,388.12C540.09,384.4 540.1,380.68 540.11,376.96C540.12,373.24 540.12,369.52 540.13,365.8C540.14,362.08 540.15,358.36 540.16,354.64C540.17,350.92 540.18,347.2 540.19,343.48C540.2,339.76 540.21,336.04 540.22,332.32C540.23,328.6 540.25,324.88 540.27,321.16C540.29,317.44 540.3,313.72 540.32,310C540.34,306.28 540.35,302.56 540.37,298.84C540.39,295.12 540.4,291.4 540.42,287.68C540.43,283.96 540.45,280.24 540.46,276.52C540.47,272.8 540.49,269.08 540.5,265.36C540.51,261.64 540.52,257.92 540.53,254.2C540.54,250.48 540.54,246.76 540.54,243.04C540.54,239.32 540.54,235.6 540.54,231.88C540.54,228.16 540.54,224.44 540.54,220.72C540.54,217 540.53,213.28 540.52,209.56C540.52,205.84 540.51,202.12 540.51,198.4C540.51,194.68 540.51,190.96 540.51,187.24C540.51,183.52 540.51,179.8 540.52,176.08C540.53,172.36 540.55,168.64 540.57,164.92C540.6,161.2 540.63,157.48 540.67,153.76C540.71,150.04 540.77,146.32 540.82,142.6C540.88,138.88 540.94,135.16 541,131.44C541.06,127.72 541.12,124 541.17,120.28C541.22,116.56 541.26,112.84 541.28,109.12C541.3,105.4 541.31,101.68 541.29,97.96C541.27,94.24 541.23,90.52 541.18,86.8C541.13,83.08 541.05,79.36 540.98,75.64C540.91,71.92 540.82,68.2 540.74,64.48C540.66,60.76 540.57,57.04 540.5,53.32C540.43,49.6 540.36,45.88 540.3,42.16Q540.24,38.44 540.16,31L539.84,31Q539.76,38.44 539.7,42.16C539.64,45.88 539.57,49.6 539.5,53.32C539.43,57.04 539.34,60.76 539.26,64.48C539.18,68.2 539.09,71.92 539.02,75.64C538.95,79.36 538.87,83.08 538.82,86.8C538.77,90.52 538.73,94.24 538.71,97.96C538.69,101.68 538.7,105.4 538.72,109.12C538.74,112.84 538.78,116.56 538.83,120.28C538.88,124 538.94,127.72 539,131.44C539.06,135.16 539.12,138.88 539.18,142.6C539.23,146.32 539.29,150.04 539.33,153.76C539.37,157.48 539.4,161.2 539.43,164.92C539.45,168.64 539.47,172.36 539.48,176.08C539.49,179.8 539.49,183.52 539.49,187.24C539.49,190.96 539.49,194.68 539.49,198.4C539.49,202.12 539.48,205.84 539.48,209.56C539.47,213.28 539.46,217 539.46,220.72C539.46,224.44 539.46,228.16 539.46,231.88C539.46,235.6 539.46,239.32 539.46,243.04C539.46,246.76 539.46,250.48 539.47,254.2C539.48,257.92 539.49,261.64 539.5,265.36C539.51,269.08 539.53,272.8 539.54,276.52C539.55,280.24 539.57,283.96 539.58,287.68C539.6,291.4 539.61,295.12 539.63,298.84C539.65,302.56 539.66,306.28 539.68,310C539.7,313.72 539.71,317.44 539.73,321.16C539.75,324.88 539.77,328.6 539.78,332.32C539.79,336.04 539.8,339.76 539.81,343.48C539.82,347.2 539.83,350.92 539.84,354.64C539.85,358.36 539.86,362.08 539.87,365.8C539.88,369.52 539.88,373.24 539.89,376.96C539.9,380.68 539.91,384.4 539.92,388.12C539.93,391.84 539.93,395.56 539.94,399.28C539.95,403 539.95,406.72 539.96,410.44C539.96,414.16 539.97,417.88 539.97,421.6C539.97,425.32 539.98,429.04 539.98,432.76C539.98,436.48 539.99,440.2 539.99,443.92C539.99,447.64 539.99,451.36 539.99,455.08C539.99,458.8 539.99,462.52 539.99,466.24C539.99,469.96 539.99,473.68 539.99,477.4C539.99,481.12 539.99,484.84 539.99,488.56C539.99,492.28 539.99,496 539.99,499.72C539.99,503.44 539.98,507.16 539.98,510.88C539.98,514.6 539.98,518.32 539.98,522.04C539.98,525.76 539.98,529.48 539.98,533.2C539.98,536.92 539.99,540.64 539.99,544.36C539.99,548.08 539.99,551.8 539.99,555.52C539.99,559.24 539.99,562.96 539.99,566.68C539.99,570.4 540,574.12 540,577.84Q540,581.56 540,589Z" style="vector-effect: non-scaling-stroke; stroke-width: 2px; stroke: rgb(99, 110, 250); stroke-opacity: 1; fill: rgb(99, 110, 250); fill-opacity: 0.5;"/><path class="box" d="M94.77,98.48H121.23M94.77,98.48H121.23V98.48H94.77ZM108,98.48V98.48M108,98.48V98.48" style="vector-effect: non-scaling-stroke; stroke-width: 2px; stroke: rgb(99, 110, 250); stroke-opacity: 1; fill: rgb(99, 110, 250); fill-opacity: 0.5;"/><path class="box" d="M310.77,189.4H337.23M310.77,220.88H337.23V98.48H310.77ZM324,220.88V325.14M324,98.48V98.48" style="vector-effect: non-scaling-stroke; stroke-width: 2px; stroke: rgb(99, 110, 250); stroke-opacity: 1; fill: rgb(99, 110, 250); fill-opacity: 0.5;"/><path class="box" d="M526.77,127.56H553.23M526.77,234.57H553.23V98.48H526.77ZM540,234.57V385.17M540,98.48V98.48" style="vector-effect: non-scaling-stroke; stroke-width: 2px; stroke: rgb(99, 110, 250); stroke-opacity: 1; fill: rgb(99, 110, 250); fill-opacity: 0.5;"/><path class="mean" d="M94.77,115.53H121.23" style="fill: none; vector-effect: non-scaling-stroke; stroke-width: 2px; stroke-dasharray: 4px, 2px; stroke: rgb(99, 110, 250); stroke-opacity: 1;"/><path class="mean" d="M310.77,174H337.23" style="fill: none; vector-effect: non-scaling-stroke; stroke-width: 2px; stroke-dasharray: 4px, 2px; stroke: rgb(99, 110, 250); stroke-opacity: 1;"/><path class="mean" d="M526.77,170.19H553.23" style="fill: none; vector-effect: non-scaling-stroke; stroke-width: 2px; stroke-dasharray: 4px, 2px; stroke: rgb(99, 110, 250); stroke-opacity: 1;"/></g></g></g><g class="overplot"/><path class="xlines-above crisp" d="M0,0" style="fill: none;"/><path class="ylines-above crisp" d="M0,0" style="fill: none;"/><g class="overlines-above"/><g class="xaxislayer-above"><g class="xtick"><text text-anchor="middle" x="0" y="733" transform="translate(188,0)" style="font-family: 'Open Sans', verdana, arial, sans-serif; font-size: 12px; fill: rgb(42, 63, 95); fill-opacity: 1; white-space: pre; opacity: 1;">&#60;=1</text></g><g class="xtick"><text text-anchor="middle" x="0" y="733" transform="translate(404,0)" style="font-family: 'Open Sans', verdana, arial, sans-serif; font-size: 12px; fill: rgb(42, 63, 95); fill-opacity: 1; white-space: pre; opacity: 1;">(1, 2]</text></g><g class="xtick"><text text-anchor="middle" x="0" y="733" transform="translate(620,0)" style="font-family: 'Open Sans', verdana, arial, sans-serif; font-size: 12px; fill: rgb(42, 63, 95); fill-opacity: 1; white-space: pre; opacity: 1;">>2</text></g></g><g class="yaxislayer-above"><g class="ytick"><text text-anchor="end" x="79" y="4.199999999999999" transform="translate(0,651.35)" style="font-family: 'Open Sans', verdana, arial, sans-serif; font-size: 12px; fill: rgb(42, 63, 95); fill-opacity: 1; white-space: pre; opacity: 1;">0</text></g><g class="ytick"><text text-anchor="end" x="79" y="4.199999999999999" style="font-family: 'Open Sans', verdana, arial, sans-serif; font-size: 12px; fill: rgb(42, 63, 95); fill-opacity: 1; white-space: pre; opacity: 1;" transform="translate(0,560.77)">0.2</text></g><g class="ytick"><text text-anchor="end" x="79" y="4.199999999999999" style="font-family: 'Open Sans', verdana, arial, sans-serif; font-size: 12px; fill: rgb(42, 63, 95); fill-opacity: 1; white-space: pre; opacity: 1;" transform="translate(0,470.2)">0.4</text></g><g class="ytick"><text text-anchor="end" x="79" y="4.199999999999999" style="font-family: 'Open Sans', verdana, arial, sans-serif; font-size: 12px; fill: rgb(42, 63, 95); fill-opacity: 1; white-space: pre; opacity: 1;" transform="translate(0,379.63)">0.6</text></g><g class="ytick"><text text-anchor="end" x="79" y="4.199999999999999" style="font-family: 'Open Sans', verdana, arial, sans-serif; font-size: 12px; fill: rgb(42, 63, 95); fill-opacity: 1; white-space: pre; opacity: 1;" transform="translate(0,289.06)">0.8</text></g><g class="ytick"><text text-anchor="end" x="79" y="4.199999999999999" style="font-family: 'Open Sans', verdana, arial, sans-serif; font-size: 12px; fill: rgb(42, 63, 95); fill-opacity: 1; white-space: pre; opacity: 1;" transform="translate(0,198.48000000000002)">1</text></g><g class="ytick"><text text-anchor="end" x="79" y="4.199999999999999" style="font-family: 'Open Sans', verdana, arial, sans-serif; font-size: 12px; fill: rgb(42, 63, 95); fill-opacity: 1; white-space: pre; opacity: 1;" transform="translate(0,107.91)">1.2</text></g></g><g class="overaxes-above"/></g><g class="subplot x2y2"><g class="layer-subplot"><g class="shapelayer"/><g class="imagelayer"/></g><g class="minor-gridlayer"><g class="x2"/><g class="y2"/></g><g class="gridlayer"><g class="x2"/><g class="y2"><path class="y2grid crisp" transform="translate(0,673.2)" d="M872.0000000000001,0h647.9999999999999" style="stroke: rgb(255, 255, 255); stroke-opacity: 1; stroke-width: 1px;"/><path class="y2grid crisp" transform="translate(0,567.89)" d="M872.0000000000001,0h647.9999999999999" style="stroke: rgb(255, 255, 255); stroke-opacity: 1; stroke-width: 1px;"/><path class="y2grid crisp" transform="translate(0,462.57)" d="M872.0000000000001,0h647.9999999999999" style="stroke: rgb(255, 255, 255); stroke-opacity: 1; stroke-width: 1px;"/><path class="y2grid crisp" transform="translate(0,357.25)" d="M872.0000000000001,0h647.9999999999999" style="stroke: rgb(255, 255, 255); stroke-opacity: 1; stroke-width: 1px;"/><path class="y2grid crisp" transform="translate(0,251.94)" d="M872.0000000000001,0h647.9999999999999" style="stroke: rgb(255, 255, 255); stroke-opacity: 1; stroke-width: 1px;"/><path class="y2grid crisp" transform="translate(0,146.62)" d="M872.0000000000001,0h647.9999999999999" style="stroke: rgb(255, 255, 255); stroke-opacity: 1; stroke-width: 1px;"/></g></g><g class="zerolinelayer"/><path class="xlines-below"/><path class="ylines-below"/><g class="overlines-below"/><g class="xaxislayer-below"/><g class="yaxislayer-below"/><g class="overaxes-below"/><g class="plot" transform="translate(872.0000000000001,100)" clip-path="url(#clip4e4a1ex2y2plot)"><g class="violinlayer mlayer"><g class="trace violins" style="opacity: 1;"><path class="violin" d="M108.78,589Q109.19,575.71 109.49,569.07C109.79,562.43 110.16,555.78 110.6,549.14C111.05,542.49 111.56,535.85 112.16,529.21C112.76,522.57 113.44,515.93 114.19,509.29C114.94,502.64 115.77,496 116.67,489.36C117.58,482.71 118.55,476.07 119.62,469.43C120.69,462.78 121.85,456.14 123.1,449.5C124.35,442.85 125.73,436.21 127.12,429.57C128.51,422.92 130.04,416.29 131.43,409.64C132.82,403 134.31,396.37 135.48,389.71C136.64,383.08 137.76,376.45 138.43,369.79C139.09,363.16 139.49,356.5 139.47,349.86C139.45,343.22 138.99,336.56 138.29,329.93C137.59,323.27 136.4,316.63 135.27,310C134.13,303.35 132.65,296.72 131.48,290.07C130.32,283.43 129.05,276.8 128.27,270.14C127.49,263.51 126.92,256.86 126.8,250.21C126.68,243.57 126.99,236.92 127.54,230.29C128.09,223.63 129.14,216.99 130.12,210.36C131.1,203.71 132.44,197.08 133.4,190.43C134.36,183.8 135.4,177.16 135.88,170.5C136.36,163.87 136.59,157.2 136.3,150.57C136.01,143.92 135.22,137.26 134.15,130.64C133.07,123.97 131.46,117.33 129.84,110.71C128.21,104.05 126.21,97.43 124.42,90.79C122.63,84.15 120.73,77.52 119.11,70.86C117.5,64.23 115.99,57.59 114.75,50.93Q113.52,44.31 111.68,31L104.32,31Q102.48,44.31 101.25,50.93C100.01,57.59 98.5,64.23 96.89,70.86C95.27,77.52 93.37,84.15 91.58,90.79C89.79,97.43 87.79,104.05 86.16,110.71C84.54,117.33 82.93,123.97 81.85,130.64C80.78,137.26 79.99,143.92 79.7,150.57C79.41,157.2 79.64,163.87 80.12,170.5C80.6,177.16 81.64,183.8 82.6,190.43C83.56,197.08 84.9,203.71 85.88,210.36C86.86,216.99 87.91,223.63 88.46,230.29C89.01,236.92 89.32,243.57 89.2,250.21C89.08,256.86 88.51,263.51 87.73,270.14C86.95,276.8 85.68,283.43 84.52,290.07C83.35,296.72 81.87,303.35 80.73,310C79.6,316.63 78.41,323.27 77.71,329.93C77.01,336.56 76.55,343.22 76.53,349.86C76.51,356.5 76.91,363.16 77.57,369.79C78.24,376.45 79.36,383.08 80.52,389.71C81.69,396.37 83.18,403 84.57,409.64C85.96,416.29 87.49,422.92 88.88,429.57C90.27,436.21 91.65,442.85 92.9,449.5C94.15,456.14 95.31,462.78 96.38,469.43C97.45,476.07 98.42,482.71 99.33,489.36C100.23,496 101.06,502.64 101.81,509.29C102.56,515.93 103.24,522.57 103.84,529.21C104.44,535.85 104.95,542.49 105.4,549.14C105.84,555.78 106.21,562.43 106.51,569.07Q106.81,575.71 107.22,589Z" style="vector-effect: non-scaling-stroke; stroke-width: 2px; stroke: rgb(239, 85, 59); stroke-opacity: 1; fill: rgb(239, 85, 59); fill-opacity: 0.5;"/><path class="violin" d="M324.24,571.94Q324.37,561.57 324.47,556.39C324.58,551.2 324.7,546.02 324.87,540.83C325.04,535.64 325.24,530.45 325.5,525.27C325.76,520.08 326.06,514.9 326.44,509.72C326.82,504.53 327.24,499.34 327.77,494.16C328.3,488.97 328.9,483.78 329.62,478.6C330.34,473.41 331.15,468.22 332.09,463.05C333.04,457.85 334.11,452.66 335.3,447.49C336.5,442.29 337.84,437.1 339.25,431.93C340.67,426.73 342.24,421.56 343.79,416.38C345.35,411.19 347.03,406.01 348.57,400.82C350.11,395.64 351.7,390.46 353.03,385.26C354.35,380.09 355.61,374.92 356.55,369.71C357.48,364.54 358.23,359.35 358.64,354.15C359.05,348.97 359.17,343.77 359.04,338.59C358.91,333.4 358.44,328.21 357.83,323.04C357.21,317.84 356.29,312.66 355.34,307.48C354.38,302.28 353.19,297.1 352.1,291.92C351.01,286.73 349.79,281.56 348.79,276.37C347.79,271.19 346.78,266.01 346.11,260.81C345.45,255.64 344.93,250.44 344.79,245.25C344.65,240.07 344.81,234.87 345.29,229.7C345.77,224.5 346.68,219.31 347.7,214.14C348.72,208.93 350.16,203.76 351.42,198.58C352.69,193.39 354.22,188.24 355.29,183.03C356.35,177.87 357.39,172.67 357.8,167.47C358.21,162.3 358.27,157.08 357.77,151.92C357.27,146.71 356.15,141.5 354.78,136.36C353.38,131.12 351.37,125.96 349.4,120.8C347.41,115.58 345.03,110.44 342.9,105.25C340.78,100.07 338.54,94.91 336.65,89.69C334.78,84.54 333.04,79.35 331.61,74.13Q330.2,68.98 328.1,58.58L319.9,58.58Q317.8,68.98 316.39,74.13C314.96,79.35 313.22,84.54 311.35,89.69C309.46,94.91 307.22,100.07 305.1,105.25C302.97,110.44 300.59,115.58 298.6,120.8C296.63,125.96 294.62,131.12 293.22,136.36C291.85,141.5 290.73,146.71 290.23,151.92C289.73,157.08 289.79,162.3 290.2,167.47C290.61,172.67 291.65,177.87 292.71,183.03C293.78,188.24 295.31,193.39 296.58,198.58C297.84,203.76 299.28,208.93 300.3,214.14C301.32,219.31 302.23,224.5 302.71,229.7C303.19,234.87 303.35,240.07 303.21,245.25C303.07,250.44 302.55,255.64 301.89,260.81C301.22,266.01 300.21,271.19 299.21,276.37C298.21,281.56 296.99,286.73 295.9,291.92C294.81,297.1 293.62,302.28 292.66,307.48C291.71,312.66 290.79,317.84 290.17,323.04C289.56,328.21 289.09,333.4 288.96,338.59C288.83,343.77 288.95,348.97 289.36,354.15C289.77,359.35 290.52,364.54 291.45,369.71C292.39,374.92 293.65,380.09 294.97,385.26C296.3,390.46 297.89,395.64 299.43,400.82C300.97,406.01 302.65,411.19 304.21,416.38C305.76,421.56 307.33,426.73 308.75,431.93C310.16,437.1 311.5,442.29 312.7,447.49C313.89,452.66 314.96,457.85 315.91,463.05C316.85,468.22 317.66,473.41 318.38,478.6C319.1,483.78 319.7,488.97 320.23,494.16C320.76,499.34 321.18,504.53 321.56,509.72C321.94,514.9 322.24,520.08 322.5,525.27C322.76,530.45 322.96,535.64 323.13,540.83C323.3,546.02 323.42,551.2 323.53,556.39Q323.63,561.57 323.76,571.94Z" style="vector-effect: non-scaling-stroke; stroke-width: 2px; stroke: rgb(239, 85, 59); stroke-opacity: 1; fill: rgb(239, 85, 59); fill-opacity: 0.5;"/><path class="violin" d="M540.67,478.91Q541.07,470.79 541.41,466.74C541.75,462.68 542.16,458.62 542.72,454.57C543.28,450.5 543.95,446.44 544.77,442.4C545.6,438.33 546.58,434.27 547.66,430.23C548.75,426.16 550,422.11 551.28,418.06C552.56,413.99 553.99,409.95 555.34,405.89C556.69,401.83 558.11,397.79 559.38,393.72C560.65,389.67 561.89,385.62 562.96,381.55C564.02,377.51 564.98,373.45 565.77,369.38C566.56,365.34 567.2,361.28 567.71,357.21C568.22,353.16 568.57,349.1 568.83,345.04C569.09,340.99 569.21,336.93 569.25,332.87C569.29,328.81 569.21,324.75 569.06,320.7C568.91,316.64 568.65,312.58 568.32,308.53C567.99,304.47 567.56,300.41 567.09,296.36C566.62,292.3 566.05,288.25 565.5,284.19C564.95,280.13 564.32,276.08 563.78,272.02C563.24,267.97 562.66,263.91 562.28,259.85C561.9,255.8 561.55,251.74 561.5,247.68C561.45,243.62 561.51,239.55 561.96,235.51C562.41,231.44 563.12,227.35 564.2,223.34C565.3,219.24 566.8,215.17 568.53,211.17C570.31,207.05 572.55,203.02 574.79,199C577.07,194.91 579.75,190.91 582.1,186.83C584.42,182.79 586.99,178.8 588.81,174.66C590.56,170.68 592.26,166.6 592.92,162.49C593.56,158.49 593.6,154.32 592.84,150.33C592.06,146.2 590.22,142.1 588.14,138.16C585.93,133.97 582.8,129.98 579.79,125.99C576.68,121.86 573.05,117.89 569.75,113.82C566.48,109.78 563.04,105.78 560.07,101.65C557.21,97.66 554.46,93.62 552.2,89.48Q550.03,85.5 546.68,77.31L533.32,77.31Q529.97,85.5 527.8,89.48C525.54,93.62 522.79,97.66 519.93,101.65C516.96,105.78 513.52,109.78 510.25,113.82C506.95,117.89 503.32,121.86 500.21,125.99C497.2,129.98 494.07,133.97 491.86,138.16C489.78,142.1 487.94,146.2 487.16,150.33C486.4,154.32 486.44,158.49 487.08,162.49C487.74,166.6 489.44,170.68 491.19,174.66C493.01,178.8 495.58,182.79 497.9,186.83C500.25,190.91 502.93,194.91 505.21,199C507.45,203.02 509.69,207.05 511.47,211.17C513.2,215.17 514.7,219.24 515.8,223.34C516.88,227.35 517.59,231.44 518.04,235.51C518.49,239.55 518.55,243.62 518.5,247.68C518.45,251.74 518.1,255.8 517.72,259.85C517.34,263.91 516.76,267.97 516.22,272.02C515.68,276.08 515.05,280.13 514.5,284.19C513.95,288.25 513.38,292.3 512.91,296.36C512.44,300.41 512.01,304.47 511.68,308.53C511.35,312.58 511.09,316.64 510.94,320.7C510.79,324.75 510.71,328.81 510.75,332.87C510.79,336.93 510.91,340.99 511.17,345.04C511.43,349.1 511.78,353.16 512.29,357.21C512.8,361.28 513.44,365.34 514.23,369.38C515.02,373.45 515.98,377.51 517.04,381.55C518.11,385.62 519.35,389.67 520.62,393.72C521.89,397.79 523.31,401.83 524.66,405.89C526.01,409.95 527.44,413.99 528.72,418.06C530,422.11 531.25,426.16 532.34,430.23C533.42,434.27 534.4,438.33 535.23,442.4C536.05,446.44 536.72,450.5 537.28,454.57C537.84,458.62 538.25,462.68 538.59,466.74Q538.93,470.79 539.33,478.91Z" style="vector-effect: non-scaling-stroke; stroke-width: 2px; stroke: rgb(239, 85, 59); stroke-opacity: 1; fill: rgb(239, 85, 59); fill-opacity: 0.5;"/><path class="box" d="M94.77,321.44H121.23M94.77,358.24H121.23V151.94H94.77ZM108,358.24V468.06M108,151.94V151.94" style="vector-effect: non-scaling-stroke; stroke-width: 2px; stroke: rgb(239, 85, 59); stroke-opacity: 1; fill: rgb(239, 85, 59); fill-opacity: 0.5;"/><path class="box" d="M310.77,291.41H337.23M310.77,356.83H337.23V151.94H310.77ZM324,356.83V478.58M324,151.94V151.94" style="vector-effect: non-scaling-stroke; stroke-width: 2px; stroke: rgb(239, 85, 59); stroke-opacity: 1; fill: rgb(239, 85, 59); fill-opacity: 0.5;"/><path class="box" d="M526.77,209.61H553.23M526.77,319.73H553.23V151.94H526.77ZM540,319.73V404.28M540,151.94V151.94" style="vector-effect: non-scaling-stroke; stroke-width: 2px; stroke: rgb(239, 85, 59); stroke-opacity: 1; fill: rgb(239, 85, 59); fill-opacity: 0.5;"/><path class="mean" d="M94.77,276.91H121.23" style="fill: none; vector-effect: non-scaling-stroke; stroke-width: 2px; stroke-dasharray: 4px, 2px; stroke: rgb(239, 85, 59); stroke-opacity: 1;"/><path class="mean" d="M310.77,269.7H337.23" style="fill: none; vector-effect: non-scaling-stroke; stroke-width: 2px; stroke-dasharray: 4px, 2px; stroke: rgb(239, 85, 59); stroke-opacity: 1;"/><path class="mean" d="M526.77,237.73H553.23" style="fill: none; vector-effect: non-scaling-stroke; stroke-width: 2px; stroke-dasharray: 4px, 2px; stroke: rgb(239, 85, 59); stroke-opacity: 1;"/></g></g></g><g class="overplot"/><path class="xlines-above crisp" d="M0,0" style="fill: none;"/><path class="ylines-above crisp" d="M0,0" style="fill: none;"/><g class="overlines-above"/><g class="xaxislayer-above"><g class="x2tick"><text text-anchor="middle" x="0" y="733" transform="translate(980.0000000000001,0)" style="font-family: 'Open Sans', verdana, arial, sans-serif; font-size: 12px; fill: rgb(42, 63, 95); fill-opacity: 1; white-space: pre; opacity: 1;">&#60;=1</text></g><g class="x2tick"><text text-anchor="middle" x="0" y="733" transform="translate(1196,0)" style="font-family: 'Open Sans', verdana, arial, sans-serif; font-size: 12px; fill: rgb(42, 63, 95); fill-opacity: 1; white-space: pre; opacity: 1;">(1, 2]</text></g><g class="x2tick"><text text-anchor="middle" x="0" y="733" transform="translate(1412,0)" style="font-family: 'Open Sans', verdana, arial, sans-serif; font-size: 12px; fill: rgb(42, 63, 95); fill-opacity: 1; white-space: pre; opacity: 1;">>2</text></g></g><g class="yaxislayer-above"><g class="y2tick"><text text-anchor="end" x="871.0000000000001" y="4.199999999999999" transform="translate(0,673.2)" style="font-family: 'Open Sans', verdana, arial, sans-serif; font-size: 12px; fill: rgb(42, 63, 95); fill-opacity: 1; white-space: pre; opacity: 1;">0.2</text></g><g class="y2tick"><text text-anchor="end" x="871.0000000000001" y="4.199999999999999" style="font-family: 'Open Sans', verdana, arial, sans-serif; font-size: 12px; fill: rgb(42, 63, 95); fill-opacity: 1; white-space: pre; opacity: 1;" transform="translate(0,567.89)">0.4</text></g><g class="y2tick"><text text-anchor="end" x="871.0000000000001" y="4.199999999999999" style="font-family: 'Open Sans', verdana, arial, sans-serif; font-size: 12px; fill: rgb(42, 63, 95); fill-opacity: 1; white-space: pre; opacity: 1;" transform="translate(0,462.57)">0.6</text></g><g class="y2tick"><text text-anchor="end" x="871.0000000000001" y="4.199999999999999" style="font-family: 'Open Sans', verdana, arial, sans-serif; font-size: 12px; fill: rgb(42, 63, 95); fill-opacity: 1; white-space: pre; opacity: 1;" transform="translate(0,357.25)">0.8</text></g><g class="y2tick"><text text-anchor="end" x="871.0000000000001" y="4.199999999999999" style="font-family: 'Open Sans', verdana, arial, sans-serif; font-size: 12px; fill: rgb(42, 63, 95); fill-opacity: 1; white-space: pre; opacity: 1;" transform="translate(0,251.94)">1</text></g><g class="y2tick"><text text-anchor="end" x="871.0000000000001" y="4.199999999999999" style="font-family: 'Open Sans', verdana, arial, sans-serif; font-size: 12px; fill: rgb(42, 63, 95); fill-opacity: 1; white-space: pre; opacity: 1;" transform="translate(0,146.62)">1.2</text></g></g><g class="overaxes-above"/></g></g><g class="polarlayer"/><g class="smithlayer"/><g class="ternarylayer"/><g class="geolayer"/><g class="funnelarealayer"/><g class="pielayer"/><g class="iciclelayer"/><g class="treemaplayer"/><g class="sunburstlayer"/><g class="glimages"/><defs id="topdefs-4e4a1e"><g class="clips"/></defs><g class="layer-above"><g class="imagelayer"/><g class="shapelayer"/></g><g class="infolayer"><g class="g-gtitle"><text class="gtitle" x="80" y="50" text-anchor="start" dy="0em" style="font-family: 'Open Sans', verdana, arial, sans-serif; font-size: 17px; fill: rgb(42, 63, 95); opacity: 1; font-weight: normal; white-space: pre;">discount_rate Distributions</text></g><g class="g-xtitle"><text class="xtitle" x="404" y="761.8" text-anchor="middle" style="font-family: 'Open Sans', verdana, arial, sans-serif; font-size: 14px; fill: rgb(42, 63, 95); opacity: 1; font-weight: normal; white-space: pre;">Hardcover over Paperback</text></g><g class="g-x2title"><text class="x2title" x="1196" y="761.8" text-anchor="middle" style="font-family: 'Open Sans', verdana, arial, sans-serif; font-size: 14px; fill: rgb(42, 63, 95); opacity: 1; font-weight: normal; white-space: pre;">Hardcover over Paperback</text></g><g class="g-ytitle"><text class="ytitle" transform="rotate(-90,37.325,410)" x="37.325" y="410" text-anchor="middle" style="font-family: 'Open Sans', verdana, arial, sans-serif; font-size: 14px; fill: rgb(42, 63, 95); opacity: 1; font-weight: normal; white-space: pre;">discount_rate</text></g><g class="g-y2title"><text class="y2title" transform="rotate(-90,829.325,410)" x="829.325" y="410" text-anchor="middle" style="font-family: 'Open Sans', verdana, arial, sans-serif; font-size: 14px; fill: rgb(42, 63, 95); opacity: 1; font-weight: normal; white-space: pre;">discount_rate</text></g><g class="annotation" data-index="0" style="opacity: 1;"><g class="annotation-text-g" transform="rotate(0,404,87)"><g class="cursor-pointer" transform="translate(363,74)"><rect class="bg" x="0.5" y="0.5" width="82" height="25" style="stroke-width: 1px; stroke: rgb(0, 0, 0); stroke-opacity: 0; fill: rgb(0, 0, 0); fill-opacity: 0;"/><text class="annotation-text" text-anchor="middle" x="41.296875" y="19" style="font-family: 'Open Sans', verdana, arial, sans-serif; font-size: 16px; fill: rgb(42, 63, 95); fill-opacity: 1; white-space: pre;">Paperback</text></g></g></g><g class="annotation" data-index="1" style="opacity: 1;"><g class="annotation-text-g" transform="rotate(0,1196,87)"><g class="cursor-pointer" transform="translate(1155,74)"><rect class="bg" x="0.5" y="0.5" width="81" height="25" style="stroke-width: 1px; stroke: rgb(0, 0, 0); stroke-opacity: 0; fill: rgb(0, 0, 0); fill-opacity: 0;"/><text class="annotation-text" text-anchor="middle" x="40.921875" y="19" style="font-family: 'Open Sans', verdana, arial, sans-serif; font-size: 16px; fill: rgb(42, 63, 95); fill-opacity: 1; white-space: pre;">Hardcover</text></g></g></g></g></svg>