<svg class="main-svg" xmlns="http://www.w3.org/2000/svg" xmlns:xlink="http://www.w3.org/1999/xlink" width="1600" height="800" style="" viewBox="0 0 1600 800"><rect x="0" y="0" width="1600" height="800" style="fill: rgb(255, 255, 255); fill-opacity: 1;"/><defs id="defs-71f465"><g class="clips"><clipPath id="clip71f465xyplot" class="plotclip"><rect width="648" height="620"/></clipPath><clipPath id="clip71f465x2y2plot" class="plotclip"><rect width="647.9999999999999" height="620"/></clipPath><clipPath class="axesclip" id="clip71f465x"><rect x="80" y="0" width="648" height="800"/></clipPath><clipPath class="axesclip" id="clip71f465y"><rect x="0" y="100" width="1600" height="620"/></clipPath><clipPath class="axesclip" id="clip71f465xy"><rect x="80" y="100" width="648" height="620"/></clipPath><clipPath class="axesclip" id="clip71f465y2"><rect x="0" y="100" width="1600" height="620"/></clipPath><clipPath class="axesclip" id="clip71f465xy2"><rect x="80" y="100" width="648" height="620"/></clipPath><clipPath class="axesclip" id="clip71f465x2"><rect x="872.0000000000001" y="0" width="647.9999999999999" height="800"/></clipPath><clipPath class="axesclip" id="clip71f465x2y"><rect x="872.0000000000001" y="100" width="647.9999999999999" height="620"/></clipPath><clipPath class="axesclip" id="clip71f465x2y2"><rect x="872.0000000000001" y="100" width="647.9999999999999" height="620"/></clipPath></g><g class="gradients"/><g class="patterns"/></defs><g class="bglayer"><rect class="bg" x="80" y="100" width="648" height="620" style="fill: rgb(229, 236, 246); fill-opacity: 1; stroke-width: 0;"/><rect class="bg" x="872.0000000000001" y="100" width="647.9999999999999" height="620" style="fill: rgb(229, 236, 246); fill-opacity: 1; stroke-width: 0;"/></g><g class="layer-below"><g class="imagelayer"/><g class="shapelayer"/></g><g class="cartesianlayer"><g class="subplot xy"><g class="layer-subplot"><g class="shapelayer"/><g class="imagelayer"/></g><g class="minor-gridlayer"><g class="x"/><g class="y"/></g><g class="gridlayer"><g class="x"/><g class="y"><path class="ygrid crisp" transform="translate(0,586.12)" d="M80,0h648" style="stroke: rgb(255, 255, 255); stroke-opacity: 1; stroke-width: 1px;"/><path class="ygrid crisp" transform="translate(0,514.25)" d="M80,0h648" style="stroke: rgb(255, 255, 255); stroke-opacity: 1; stroke-width: 1px;"/><path class="ygrid crisp" transform="translate(0,442.38)" d="M80,0h648" style="stroke: rgb(255, 255, 255); stroke-opacity: 1; stroke-width: 1px;"/><path class="ygrid crisp" transform="translate(0,370.51)" d="M80,0h648" style="stroke: rgb(255, 255, 255); stroke-opacity: 1; stroke-width: 1px;"/><path class="ygrid crisp" transform="translate(0,298.64)" d="M80,0h648" style="stroke: rgb(255, 255, 255); stroke-opacity: 1; stroke-width: 1px;"/><path class="ygrid crisp" transform="translate(0,226.76999999999998)" d="M80,0h648" style="stroke: rgb(255, 255, 255); stroke-opacity: 1; stroke-width: 1px;"/><path class="ygrid crisp" transform="translate(0,154.9)" d="M80,0h648" style="stroke: rgb(255, 255, 255); stroke-opacity: 1; stroke-width: 1px;"/></g></g><g class="zerolinelayer"><path class="yzl zl crisp" transform="translate(0,657.99)" d="M80,0h648" style="stroke: rgb(255, 255, 255); stroke-opacity: 1; stroke-width: 2px;"/></g><path class="xlines-below"/><path class="ylines-below"/><g class="overlines-below"/><g class="xaxislayer-below"/><g class="yaxislayer-below"/><g class="overaxes-below"/><g class="plot" transform="translate(80,100)" clip-path="url(#clip71f465xyplot)"><g class="violinlayer mlayer"><g class="trace violins" style="opacity: 1;"><path class="violin" d="M108.2,545.38Q108.31,534.67 108.4,529.31C108.49,523.95 108.6,518.59 108.76,513.23C108.91,507.87 109.09,502.52 109.33,497.16C109.57,491.8 109.84,486.44 110.18,481.08C110.52,475.72 110.9,470.36 111.35,465.01C111.8,459.65 112.31,454.3 112.86,448.94C113.41,443.58 114.03,438.22 114.66,432.86C115.29,427.5 115.99,422.15 116.64,416.79C117.29,411.43 117.99,406.07 118.58,400.71C119.17,395.36 119.75,390 120.19,384.64C120.62,379.28 120.99,373.92 121.19,368.56C121.39,363.2 121.46,357.85 121.4,352.49C121.34,347.13 121.11,341.77 120.81,336.41C120.51,331.05 120.05,325.69 119.59,320.34C119.13,314.98 118.56,309.63 118.05,304.27C117.54,298.91 116.99,293.55 116.52,288.19C116.06,282.83 115.62,277.48 115.26,272.12C114.9,266.76 114.62,261.4 114.38,256.04C114.15,250.68 113.99,245.33 113.85,239.97C113.71,234.61 113.63,229.25 113.54,223.89C113.45,218.53 113.38,213.18 113.29,207.82C113.2,202.46 113.11,197.1 112.99,191.74C112.87,186.38 112.74,181.03 112.58,175.67C112.42,170.31 112.24,164.96 112.05,159.6C111.86,154.24 111.64,148.88 111.43,143.52C111.22,138.16 110.99,132.81 110.77,127.45C110.55,122.09 110.32,116.73 110.11,111.37C109.9,106.01 109.69,100.66 109.51,95.3C109.32,89.94 109.15,84.58 109,79.22C108.85,73.86 108.72,68.51 108.61,63.15C108.5,57.79 108.41,52.43 108.34,47.07Q108.27,41.71 108.17,31L107.83,31Q107.73,41.71 107.66,47.07C107.59,52.43 107.5,57.79 107.39,63.15C107.28,68.51 107.15,73.86 107,79.22C106.85,84.58 106.68,89.94 106.49,95.3C106.31,100.66 106.1,106.01 105.89,111.37C105.68,116.73 105.45,122.09 105.23,127.45C105.01,132.81 104.78,138.16 104.57,143.52C104.36,148.88 104.14,154.24 103.95,159.6C103.76,164.96 103.58,170.31 103.42,175.67C103.26,181.03 103.13,186.38 103.01,191.74C102.89,197.1 102.8,202.46 102.71,207.82C102.62,213.18 102.55,218.53 102.46,223.89C102.37,229.25 102.29,234.61 102.15,239.97C102.01,245.33 101.85,250.68 101.62,256.04C101.38,261.4 101.1,266.76 100.74,272.12C100.38,277.48 99.94,282.83 99.48,288.19C99.01,293.55 98.46,298.91 97.95,304.27C97.44,309.63 96.87,314.98 96.41,320.34C95.95,325.69 95.49,331.05 95.19,336.41C94.89,341.77 94.66,347.13 94.6,352.49C94.54,357.85 94.61,363.2 94.81,368.56C95.01,373.92 95.38,379.28 95.81,384.64C96.25,390 96.83,395.36 97.42,400.71C98.01,406.07 98.71,411.43 99.36,416.79C100.01,422.15 100.71,427.5 101.34,432.86C101.97,438.22 102.59,443.58 103.14,448.94C103.69,454.3 104.2,459.65 104.65,465.01C105.1,470.36 105.48,475.72 105.82,481.08C106.16,486.44 106.43,491.8 106.67,497.16C106.91,502.52 107.09,507.87 107.24,513.23C107.4,518.59 107.51,523.95 107.6,529.31Q107.69,534.67 107.8,545.38Z" style="vector-effect: non-scaling-stroke; stroke-width: 2px; stroke: rgb(99, 110, 250); stroke-opacity: 1; fill: rgb(99, 110, 250); fill-opacity: 0.5;"/><path class="violin" d="M324.29,528.86Q324.44,526.36 324.55,525.12C324.66,523.87 324.8,522.63 324.96,521.39C325.12,520.14 325.3,518.9 325.49,517.65C325.68,516.4 325.9,515.16 326.1,513.91C326.29,512.67 326.5,511.43 326.66,510.18C326.82,508.94 326.98,507.69 327.06,506.44C327.14,505.19 327.18,503.95 327.17,502.7C327.16,501.46 327.08,500.21 326.98,498.97C326.87,497.72 326.71,496.48 326.54,495.23C326.37,493.98 326.16,492.74 325.98,491.49C325.8,490.25 325.6,489.01 325.46,487.76C325.32,486.52 325.19,485.27 325.12,484.02C325.05,482.77 325.01,481.53 325.03,480.28C325.05,479.04 325.12,477.79 325.23,476.55C325.34,475.3 325.51,474.05 325.68,472.81C325.86,471.56 326.07,470.32 326.28,469.07C326.48,467.83 326.71,466.58 326.91,465.34C327.11,464.09 327.3,462.85 327.48,461.6C327.66,460.35 327.8,459.1 327.99,457.86C328.18,456.61 328.33,455.36 328.63,454.13C328.93,452.87 329.26,451.61 329.79,450.39C330.35,449.11 331.06,447.85 331.95,446.65C332.93,445.35 334.15,444.11 335.5,442.92C337,441.6 338.77,440.38 340.62,439.18C342.64,437.87 344.91,436.65 347.2,435.44C349.61,434.16 352.21,432.95 354.75,431.71C357.33,430.46 360.03,429.24 362.56,427.97C364.99,426.75 367.49,425.55 369.62,424.23C371.52,423.05 373.52,421.89 374.77,420.5C375.8,419.35 376.83,418.03 376.92,416.76C377.01,415.54 376.31,414.17 375.46,413.03C374.4,411.62 372.44,410.46 370.61,409.29C368.5,407.94 365.9,406.77 363.43,405.55C360.86,404.28 358.05,403.09 355.47,401.82C352.98,400.6 350.43,399.39 348.18,398.08C346.13,396.89 344.14,395.67 342.47,394.34C340.99,393.16 339.64,391.93 338.59,390.61C337.64,389.42 336.89,388.16 336.33,386.87C335.81,385.66 335.5,384.39 335.28,383.13C335.06,381.9 335.02,380.64 335,379.4C334.98,378.15 335.08,376.91 335.17,375.66C335.26,374.41 335.41,373.17 335.53,371.92C335.64,370.68 335.77,369.44 335.86,368.19C335.94,366.95 336.02,365.7 336.04,364.45C336.06,363.2 336.03,361.95 335.97,360.71C335.91,359.46 335.8,358.22 335.67,356.98C335.54,355.73 335.37,354.49 335.19,353.24C335.01,351.99 334.81,350.74 334.6,349.5C334.39,348.25 334.17,347.01 333.94,345.77C333.71,344.52 333.46,343.28 333.2,342.03C332.94,340.78 332.66,339.53 332.37,338.29C332.08,337.04 331.76,335.8 331.44,334.56C331.12,333.31 330.78,332.07 330.45,330.82C330.12,329.57 329.78,328.33 329.47,327.08C329.16,325.84 328.85,324.6 328.57,323.35C328.29,322.11 328.03,320.86 327.78,319.61C327.53,318.36 327.31,317.12 327.09,315.87C326.87,314.63 326.67,313.38 326.47,312.14C326.27,310.89 326.07,309.65 325.89,308.4C325.71,307.16 325.54,305.92 325.38,304.67C325.23,303.43 325.08,302.18 324.96,300.93C324.84,299.68 324.75,298.44 324.68,297.19C324.61,295.95 324.57,294.7 324.55,293.46C324.53,292.21 324.55,290.97 324.59,289.72C324.63,288.47 324.69,287.23 324.77,285.98C324.85,284.74 324.95,283.49 325.05,282.25C325.15,281 325.26,279.76 325.35,278.51C325.44,277.26 325.52,276.02 325.57,274.77C325.62,273.53 325.65,272.28 325.65,271.04C325.65,269.79 325.61,268.55 325.55,267.3C325.49,266.05 325.4,264.81 325.31,263.56C325.22,262.32 325.1,261.07 324.99,259.83C324.88,258.58 324.77,257.34 324.67,256.09C324.57,254.84 324.49,253.6 324.41,252.35Q324.34,251.11 324.22,248.62L323.78,248.62Q323.66,251.11 323.59,252.35C323.51,253.6 323.43,254.84 323.33,256.09C323.23,257.34 323.12,258.58 323.01,259.83C322.9,261.07 322.78,262.32 322.69,263.56C322.6,264.81 322.51,266.05 322.45,267.3C322.39,268.55 322.35,269.79 322.35,271.04C322.35,272.28 322.38,273.53 322.43,274.77C322.48,276.02 322.56,277.26 322.65,278.51C322.74,279.76 322.85,281 322.95,282.25C323.05,283.49 323.15,284.74 323.23,285.98C323.31,287.23 323.37,288.47 323.41,289.72C323.45,290.97 323.47,292.21 323.45,293.46C323.43,294.7 323.39,295.95 323.32,297.19C323.25,298.44 323.16,299.68 323.04,300.93C322.92,302.18 322.77,303.43 322.62,304.67C322.46,305.92 322.29,307.16 322.11,308.4C321.93,309.65 321.73,310.89 321.53,312.14C321.33,313.38 321.13,314.63 320.91,315.87C320.69,317.12 320.47,318.36 320.22,319.61C319.97,320.86 319.71,322.11 319.43,323.35C319.15,324.6 318.84,325.84 318.53,327.08C318.22,328.33 317.88,329.57 317.55,330.82C317.22,332.07 316.88,333.31 316.56,334.56C316.24,335.8 315.92,337.04 315.63,338.29C315.34,339.53 315.06,340.78 314.8,342.03C314.54,343.28 314.29,344.52 314.06,345.77C313.83,347.01 313.61,348.25 313.4,349.5C313.19,350.74 312.99,351.99 312.81,353.24C312.63,354.49 312.46,355.73 312.33,356.98C312.2,358.22 312.09,359.46 312.03,360.71C311.97,361.95 311.94,363.2 311.96,364.45C311.98,365.7 312.06,366.95 312.14,368.19C312.23,369.44 312.36,370.68 312.47,371.92C312.59,373.17 312.74,374.41 312.83,375.66C312.92,376.91 313.02,378.15 313,379.4C312.98,380.64 312.94,381.9 312.72,383.13C312.5,384.39 312.19,385.66 311.67,386.87C311.11,388.16 310.36,389.42 309.41,390.61C308.36,391.93 307.01,393.16 305.53,394.34C303.86,395.67 301.87,396.89 299.82,398.08C297.57,399.39 295.02,400.6 292.53,401.82C289.95,403.09 287.14,404.28 284.57,405.55C282.1,406.77 279.5,407.94 277.39,409.29C275.56,410.46 273.6,411.62 272.54,413.03C271.69,414.17 270.99,415.54 271.08,416.76C271.17,418.03 272.2,419.35 273.23,420.5C274.48,421.89 276.48,423.05 278.38,424.23C280.51,425.55 283.01,426.75 285.44,427.97C287.97,429.24 290.67,430.46 293.25,431.71C295.79,432.95 298.39,434.16 300.8,435.44C303.09,436.65 305.36,437.87 307.38,439.18C309.23,440.38 311,441.6 312.5,442.92C313.85,444.11 315.07,445.35 316.05,446.65C316.94,447.85 317.65,449.11 318.21,450.39C318.74,451.61 319.07,452.87 319.37,454.13C319.67,455.36 319.82,456.61 320.01,457.86C320.2,459.1 320.34,460.35 320.52,461.6C320.7,462.85 320.89,464.09 321.09,465.34C321.29,466.58 321.52,467.83 321.72,469.07C321.93,470.32 322.14,471.56 322.32,472.81C322.49,474.05 322.66,475.3 322.77,476.55C322.88,477.79 322.95,479.04 322.97,480.28C322.99,481.53 322.95,482.77 322.88,484.02C322.81,485.27 322.68,486.52 322.54,487.76C322.4,489.01 322.2,490.25 322.02,491.49C321.84,492.74 321.63,493.98 321.46,495.23C321.29,496.48 321.13,497.72 321.02,498.97C320.92,500.21 320.84,501.46 320.83,502.7C320.82,503.95 320.86,505.19 320.94,506.44C321.02,507.69 321.18,508.94 321.34,510.18C321.5,511.43 321.71,512.67 321.9,513.91C322.1,515.16 322.32,516.4 322.51,517.65C322.7,518.9 322.88,520.14 323.04,521.39C323.2,522.63 323.34,523.87 323.45,525.12Q323.56,526.36 323.71,528.86Z" style="vector-effect: non-scaling-stroke; stroke-width: 2px; stroke: rgb(99, 110, 250); stroke-opacity: 1; fill: rgb(99, 110, 250); fill-opacity: 0.5;"/><path class="violin" d="M540.07,589Q540.12,581.99 540.17,578.49C540.22,574.99 540.26,571.48 540.35,567.98C540.44,564.48 540.54,560.97 540.7,557.47C540.86,553.96 541.05,550.45 541.31,546.95C541.58,543.44 541.89,539.94 542.29,536.44C542.69,532.93 543.17,529.43 543.72,525.93C544.27,522.42 544.92,518.92 545.61,515.42C546.3,511.91 547.1,508.41 547.87,504.91C548.65,501.4 549.49,497.91 550.26,494.4C551.03,490.9 551.81,487.39 552.47,483.88C553.13,480.38 553.75,476.88 554.22,473.37C554.69,469.87 555.06,466.37 555.31,462.86C555.56,459.36 555.68,455.85 555.72,452.35C555.76,448.85 555.67,445.34 555.56,441.84C555.45,438.34 555.24,434.83 555.03,431.33C554.82,427.82 554.56,424.32 554.3,420.81C554.05,417.31 553.77,413.8 553.5,410.3C553.23,406.8 552.96,403.29 552.7,399.79C552.44,396.29 552.18,392.78 551.92,389.28C551.66,385.78 551.41,382.27 551.16,378.77C550.91,375.27 550.66,371.76 550.4,368.26C550.14,364.76 549.87,361.25 549.59,357.75C549.31,354.24 549.01,350.74 548.7,347.23C548.39,343.73 548.05,340.22 547.71,336.72C547.37,333.22 547,329.71 546.64,326.21C546.28,322.71 545.91,319.2 545.56,315.7C545.21,312.2 544.85,308.69 544.53,305.19C544.21,301.69 543.92,298.19 543.66,294.68C543.41,291.18 543.18,287.67 543,284.16C542.82,280.66 542.69,277.15 542.58,273.65C542.48,270.15 542.41,266.64 542.37,263.14C542.33,259.64 542.32,256.13 542.32,252.63C542.32,249.13 542.34,245.62 542.34,242.12C542.34,238.62 542.35,235.11 542.33,231.61C542.31,228.1 542.29,224.6 542.24,221.09C542.19,217.59 542.13,214.08 542.05,210.58C541.97,207.08 541.87,203.57 541.77,200.07C541.67,196.57 541.56,193.06 541.46,189.56C541.36,186.06 541.27,182.55 541.19,179.05C541.11,175.55 541.04,172.04 540.98,168.54C540.92,165.04 540.88,161.53 540.85,158.03C540.81,154.52 540.79,151.02 540.77,147.51C540.75,144.01 540.73,140.5 540.71,137C540.69,133.5 540.66,129.99 540.64,126.49C540.61,122.99 540.59,119.48 540.56,115.98C540.53,112.48 540.48,108.97 540.44,105.47C540.4,101.97 540.37,98.46 540.33,94.96C540.29,91.45 540.25,87.95 540.22,84.44C540.19,80.94 540.16,77.43 540.13,73.93Q540.11,70.43 540.07,63.42L539.93,63.42Q539.89,70.43 539.87,73.93C539.84,77.43 539.81,80.94 539.78,84.44C539.75,87.95 539.71,91.45 539.67,94.96C539.63,98.46 539.6,101.97 539.56,105.47C539.52,108.97 539.47,112.48 539.44,115.98C539.41,119.48 539.39,122.99 539.36,126.49C539.34,129.99 539.31,133.5 539.29,137C539.27,140.5 539.25,144.01 539.23,147.51C539.21,151.02 539.19,154.52 539.15,158.03C539.12,161.53 539.08,165.04 539.02,168.54C538.96,172.04 538.89,175.55 538.81,179.05C538.73,182.55 538.64,186.06 538.54,189.56C538.44,193.06 538.33,196.57 538.23,200.07C538.13,203.57 538.03,207.08 537.95,210.58C537.87,214.08 537.81,217.59 537.76,221.09C537.71,224.6 537.69,228.1 537.67,231.61C537.65,235.11 537.66,238.62 537.66,242.12C537.66,245.62 537.68,249.13 537.68,252.63C537.68,256.13 537.67,259.64 537.63,263.14C537.59,266.64 537.52,270.15 537.42,273.65C537.31,277.15 537.18,280.66 537,284.16C536.82,287.67 536.59,291.18 536.34,294.68C536.08,298.19 535.79,301.69 535.47,305.19C535.15,308.69 534.79,312.2 534.44,315.7C534.09,319.2 533.72,322.71 533.36,326.21C533,329.71 532.63,333.22 532.29,336.72C531.95,340.22 531.61,343.73 531.3,347.23C530.99,350.74 530.69,354.24 530.41,357.75C530.13,361.25 529.86,364.76 529.6,368.26C529.34,371.76 529.09,375.27 528.84,378.77C528.59,382.27 528.34,385.78 528.08,389.28C527.82,392.78 527.56,396.29 527.3,399.79C527.04,403.29 526.77,406.8 526.5,410.3C526.23,413.8 525.95,417.31 525.7,420.81C525.44,424.32 525.18,427.82 524.97,431.33C524.76,434.83 524.55,438.34 524.44,441.84C524.33,445.34 524.24,448.85 524.28,452.35C524.32,455.85 524.44,459.36 524.69,462.86C524.94,466.37 525.31,469.87 525.78,473.37C526.25,476.88 526.87,480.38 527.53,483.88C528.19,487.39 528.97,490.9 529.74,494.4C530.51,497.91 531.35,501.4 532.13,504.91C532.9,508.41 533.7,511.91 534.39,515.42C535.08,518.92 535.73,522.42 536.28,525.93C536.83,529.43 537.31,532.93 537.71,536.44C538.11,539.94 538.42,543.44 538.69,546.95C538.95,550.45 539.14,553.96 539.3,557.47C539.46,560.97 539.56,564.48 539.65,567.98C539.74,571.48 539.78,574.99 539.83,578.49Q539.88,581.99 539.93,589Z" style="vector-effect: non-scaling-stroke; stroke-width: 2px; stroke: rgb(99, 110, 250); stroke-opacity: 1; fill: rgb(99, 110, 250); fill-opacity: 0.5;"/><path class="box" d="M94.77,345.47H121.23M94.77,371.27H121.23V249.6H94.77ZM108,371.27V448.89M108,249.6V127.49" style="vector-effect: non-scaling-stroke; stroke-width: 2px; stroke: rgb(99, 110, 250); stroke-opacity: 1; fill: rgb(99, 110, 250); fill-opacity: 0.5;"/><path class="box" d="M310.77,414.4H337.23M310.77,418.42H337.23V385.65H310.77ZM324,418.42V460.39M324,385.65V341.66" style="vector-effect: non-scaling-stroke; stroke-width: 2px; stroke: rgb(99, 110, 250); stroke-opacity: 1; fill: rgb(99, 110, 250); fill-opacity: 0.5;"/><path class="box" d="M526.77,414.97H553.23M526.77,468.05H553.23V356.9H526.77ZM540,468.05V524.93M540,356.9V213.16" style="vector-effect: non-scaling-stroke; stroke-width: 2px; stroke: rgb(99, 110, 250); stroke-opacity: 1; fill: rgb(99, 110, 250); fill-opacity: 0.5;"/><path class="mean" d="M94.77,316.04H121.23" style="fill: none; vector-effect: non-scaling-stroke; stroke-width: 2px; stroke-dasharray: 4px, 2px; stroke: rgb(99, 110, 250); stroke-opacity: 1;"/><path class="mean" d="M310.77,403.31H337.23" style="fill: none; vector-effect: non-scaling-stroke; stroke-width: 2px; stroke-dasharray: 4px, 2px; stroke: rgb(99, 110, 250); stroke-opacity: 1;"/><path class="mean" d="M526.77,399.64H553.23" style="fill: none; vector-effect: non-scaling-stroke; stroke-width: 2px; stroke-dasharray: 4px, 2px; stroke: rgb(99, 110, 250); stroke-opacity: 1;"/></g></g></g><g class="overplot"/><path class="xlines-above crisp" d="M0,0" style="fill: none;"/><path class="ylines-above crisp" d="M0,0" style="fill: none;"/><g class="overlines-above"/><g class="xaxislayer-above"><g class="xtick"><text text-anchor="middle" x="0" y="733" transform="translate(188,0)" style="font-family: 'Open Sans', verdana, arial, sans-serif; font-size: 12px; fill: rgb(42, 63, 95); fill-opacity: 1; white-space: pre; opacity: 1;">&#60;=1</text></g><g class="xtick"><text text-anchor="middle" x="0" y="733" transform="translate(404,0)" style="font-family: 'Open Sans', verdana, arial, sans-serif; font-size: 12px; fill: rgb(42, 63, 95); fill-opacity: 1; white-space: pre; opacity: 1;">(1, 2]</text></g><g class="xtick"><text text-anchor="middle" x="0" y="733" transform="translate(620,0)" style="font-family: 'Open Sans', verdana, arial, sans-serif; font-size: 12px; fill: rgb(42, 63, 95); fill-opacity: 1; white-space: pre; opacity: 1;">>2</text></g></g><g class="yaxislayer-above"><g class="ytick"><text text-anchor="end" x="79" y="4.199999999999999" transform="translate(0,657.99)" style="font-family: 'Open Sans', verdana, arial, sans-serif; font-size: 12px; fill: rgb(42, 63, 95); fill-opacity: 1; white-space: pre; opacity: 1;">0</text></g><g class="ytick"><text text-anchor="end" x="79" y="4.199999999999999" style="font-family: 'Open Sans', verdana, arial, sans-serif; font-size: 12px; fill: rgb(42, 63, 95); fill-opacity: 1; white-space: pre; opacity: 1;" transform="translate(0,586.12)">5</text></g><g class="ytick"><text text-anchor="end" x="79" y="4.199999999999999" style="font-family: 'Open Sans', verdana, arial, sans-serif; font-size: 12px; fill: rgb(42, 63, 95); fill-opacity: 1; white-space: pre; opacity: 1;" transform="translate(0,514.25)">10</text></g><g class="ytick"><text text-anchor="end" x="79" y="4.199999999999999" style="font-family: 'Open Sans', verdana, arial, sans-serif; font-size: 12px; fill: rgb(42, 63, 95); fill-opacity: 1; white-space: pre; opacity: 1;" transform="translate(0,442.38)">15</text></g><g class="ytick"><text text-anchor="end" x="79" y="4.199999999999999" style="font-family: 'Open Sans', verdana, arial, sans-serif; font-size: 12px; fill: rgb(42, 63, 95); fill-opacity: 1; white-space: pre; opacity: 1;" transform="translate(0,370.51)">20</text></g><g class="ytick"><text text-anchor="end" x="79" y="4.199999999999999" style="font-family: 'Open Sans', verdana, arial, sans-serif; font-size: 12px; fill: rgb(42, 63, 95); fill-opacity: 1; white-space: pre; opacity: 1;" transform="translate(0,298.64)">25</text></g><g class="ytick"><text text-anchor="end" x="79" y="4.199999999999999" style="font-family: 'Open Sans', verdana, arial, sans-serif; font-size: 12px; fill: rgb(42, 63, 95); fill-opacity: 1; white-space: pre; opacity: 1;" transform="translate(0,226.76999999999998)">30</text></g><g class="ytick"><text text-anchor="end" x="79" y="4.199999999999999" style="font-family: 'Open Sans', verdana, arial, sans-serif; font-size: 12px; fill: rgb(42, 63, 95); fill-opacity: 1; white-space: pre; opacity: 1;" transform="translate(0,154.9)">35</text></g></g><g class="overaxes-above"/></g><g class="subplot x2y2"><g class="layer-subplot"><g class="shapelayer"/><g class="imagelayer"/></g><g class="minor-gridlayer"><g class="x2"/><g class="y2"/></g><g class="gridlayer"><g class="x2"/><g class="y2"><path class="y2grid crisp" transform="translate(0,561.52)" d="M872.0000000000001,0h647.9999999999999" style="stroke: rgb(255, 255, 255); stroke-opacity: 1; stroke-width: 1px;"/><path class="y2grid crisp" transform="translate(0,481.98)" d="M872.0000000000001,0h647.9999999999999" style="stroke: rgb(255, 255, 255); stroke-opacity: 1; stroke-width: 1px;"/><path class="y2grid crisp" transform="translate(0,402.44)" d="M872.0000000000001,0h647.9999999999999" style="stroke: rgb(255, 255, 255); stroke-opacity: 1; stroke-width: 1px;"/><path class="y2grid crisp" transform="translate(0,322.90999999999997)" d="M872.0000000000001,0h647.9999999999999" style="stroke: rgb(255, 255, 255); stroke-opacity: 1; stroke-width: 1px;"/><path class="y2grid crisp" transform="translate(0,243.37)" d="M872.0000000000001,0h647.9999999999999" style="stroke: rgb(255, 255, 255); stroke-opacity: 1; stroke-width: 1px;"/><path class="y2grid crisp" transform="translate(0,163.82999999999998)" d="M872.0000000000001,0h647.9999999999999" style="stroke: rgb(255, 255, 255); stroke-opacity: 1; stroke-width: 1px;"/></g></g><g class="zerolinelayer"><path class="y2zl zl crisp" transform="translate(0,641.05)" d="M872.0000000000001,0h647.9999999999999" style="stroke: rgb(255, 255, 255); stroke-opacity: 1; stroke-width: 2px;"/></g><path class="xlines-below"/><path class="ylines-below"/><g class="overlines-below"/><g class="xaxislayer-below"/><g class="yaxislayer-below"/><g class="overaxes-below"/><g class="plot" transform="translate(872.0000000000001,100)" clip-path="url(#clip71f465x2y2plot)"><g class="violinlayer mlayer"><g class="trace violins" style="opacity: 1;"><path class="violin" d="M108.65,493.78Q109.01,486.38 109.3,482.69C109.59,478.99 109.93,475.29 110.37,471.6C110.81,467.9 111.34,464.2 111.93,460.51C112.52,456.81 113.21,453.12 113.9,449.43C114.59,445.73 115.38,442.04 116.09,438.34C116.8,434.65 117.53,430.95 118.14,427.25C118.74,423.56 119.31,419.86 119.72,416.16C120.13,412.47 120.42,408.77 120.61,405.07C120.8,401.38 120.84,397.68 120.85,393.98C120.86,390.28 120.74,386.59 120.69,382.89C120.64,379.19 120.53,375.5 120.55,371.8C120.57,368.1 120.61,364.4 120.83,360.71C121.05,357.01 121.37,353.31 121.85,349.62C122.33,345.91 122.97,342.21 123.72,338.53C124.48,334.82 125.41,331.12 126.4,327.44C127.4,323.73 128.54,320.04 129.68,316.35C130.82,312.65 132.08,308.96 133.24,305.26C134.4,301.57 135.62,297.88 136.65,294.17C137.67,290.49 138.7,286.8 139.41,283.08C140.12,279.4 140.71,275.69 140.92,271.99C141.13,268.3 141.09,264.58 140.69,260.9C140.28,257.19 139.49,253.48 138.47,249.82C137.43,246.08 135.97,242.39 134.45,238.73C132.9,235 131.02,231.33 129.23,227.64C127.43,223.93 125.44,220.26 123.66,216.55C121.89,212.87 120.11,209.19 118.58,205.46C117.07,201.79 115.67,198.1 114.51,194.37C113.37,190.7 112.42,186.99 111.64,183.28Q110.87,179.6 109.85,172.19L106.15,172.19Q105.13,179.6 104.36,183.28C103.58,186.99 102.63,190.7 101.49,194.37C100.33,198.1 98.93,201.79 97.42,205.46C95.89,209.19 94.11,212.87 92.34,216.55C90.56,220.26 88.57,223.93 86.77,227.64C84.98,231.33 83.1,235 81.55,238.73C80.03,242.39 78.57,246.08 77.53,249.82C76.51,253.48 75.72,257.19 75.31,260.9C74.91,264.58 74.87,268.3 75.08,271.99C75.29,275.69 75.88,279.4 76.59,283.08C77.3,286.8 78.33,290.49 79.35,294.17C80.38,297.88 81.6,301.57 82.76,305.26C83.92,308.96 85.18,312.65 86.32,316.35C87.46,320.04 88.6,323.73 89.6,327.44C90.59,331.12 91.52,334.82 92.28,338.53C93.03,342.21 93.67,345.91 94.15,349.62C94.63,353.31 94.95,357.01 95.17,360.71C95.39,364.4 95.43,368.1 95.45,371.8C95.47,375.5 95.36,379.19 95.31,382.89C95.26,386.59 95.14,390.28 95.15,393.98C95.16,397.68 95.2,401.38 95.39,405.07C95.58,408.77 95.87,412.47 96.28,416.16C96.69,419.86 97.26,423.56 97.86,427.25C98.47,430.95 99.2,434.65 99.91,438.34C100.62,442.04 101.41,445.73 102.1,449.43C102.79,453.12 103.48,456.81 104.07,460.51C104.66,464.2 105.19,467.9 105.63,471.6C106.07,475.29 106.41,478.99 106.7,482.69Q106.99,486.38 107.35,493.78Z" style="vector-effect: non-scaling-stroke; stroke-width: 2px; stroke: rgb(239, 85, 59); stroke-opacity: 1; fill: rgb(239, 85, 59); fill-opacity: 0.5;"/><path class="violin" d="M324.27,495.72Q324.4,492.07 324.49,490.24C324.58,488.41 324.69,486.59 324.81,484.76C324.93,482.94 325.07,481.11 325.2,479.29C325.33,477.46 325.48,475.64 325.6,473.81C325.72,471.98 325.85,470.16 325.94,468.33C326.03,466.5 326.09,464.68 326.14,462.85C326.18,461.03 326.2,459.2 326.21,457.38C326.22,455.55 326.2,453.73 326.19,451.9C326.18,450.07 326.17,448.25 326.17,446.42C326.17,444.59 326.19,442.77 326.22,440.94C326.25,439.12 326.3,437.29 326.35,435.47C326.4,433.64 326.46,431.82 326.51,429.99C326.56,428.16 326.6,426.34 326.64,424.51C326.68,422.68 326.72,420.86 326.74,419.03C326.76,417.2 326.77,415.38 326.78,413.55C326.79,411.73 326.79,409.9 326.79,408.08C326.79,406.25 326.78,404.43 326.77,402.6C326.76,400.77 326.74,398.95 326.72,397.12C326.7,395.29 326.67,393.47 326.66,391.64C326.65,389.82 326.64,387.99 326.65,386.17C326.66,384.34 326.67,382.52 326.71,380.69C326.75,378.86 326.81,377.04 326.87,375.21C326.93,373.38 327.02,371.56 327.09,369.73C327.16,367.91 327.24,366.08 327.29,364.26C327.34,362.43 327.38,360.61 327.39,358.78C327.4,356.95 327.38,355.13 327.34,353.3C327.3,351.47 327.21,349.65 327.13,347.82C327.05,346 326.93,344.17 326.85,342.35C326.76,340.52 326.66,338.7 326.62,336.87C326.58,335.04 326.56,333.22 326.63,331.39C326.7,329.56 326.82,327.73 327.05,325.91C327.28,324.08 327.6,322.25 328.01,320.44C328.43,318.6 328.96,316.78 329.54,314.96C330.13,313.12 330.81,311.3 331.53,309.48C332.26,307.64 333.05,305.82 333.87,304C334.69,302.17 335.55,300.35 336.44,298.53C337.34,296.7 338.26,294.86 339.25,293.05C340.25,291.21 341.29,289.38 342.42,287.57C343.57,285.72 344.8,283.89 346.11,282.09C347.45,280.24 348.89,278.42 350.38,276.62C351.9,274.77 353.52,272.96 355.14,271.14C356.78,269.3 358.49,267.49 360.15,265.66C361.8,263.84 363.49,262.03 365.06,260.18C366.6,258.37 368.13,256.57 369.5,254.71C370.83,252.91 372.11,251.1 373.17,249.23C374.18,247.44 375.12,245.61 375.75,243.75C376.35,241.96 376.83,240.1 376.92,238.27C377.01,236.45 376.83,234.57 376.32,232.79C375.79,230.92 374.85,229.08 373.72,227.32C372.5,225.41 370.84,223.61 369.13,221.84C367.29,219.94 365.13,218.16 362.99,216.36C360.78,214.5 358.35,212.71 356.06,210.88C353.78,209.06 351.42,207.27 349.27,205.41C347.21,203.62 345.18,201.82 343.41,199.93C341.74,198.16 340.19,196.34 338.9,194.45C337.69,192.68 336.66,190.83 335.83,188.97C335.03,187.18 334.44,185.34 333.96,183.5C333.49,181.69 333.21,179.85 332.97,178.02C332.73,176.2 332.63,174.37 332.54,172.54C332.45,170.71 332.45,168.89 332.45,167.06C332.45,165.24 332.5,163.41 332.53,161.59C332.56,159.76 332.63,157.94 332.64,156.11C332.65,154.28 332.65,152.46 332.59,150.63C332.53,148.8 332.42,146.97 332.25,145.15C332.08,143.32 331.83,141.5 331.55,139.68C331.27,137.85 330.92,136.03 330.58,134.2C330.24,132.37 329.86,130.55 329.51,128.72C329.16,126.89 328.81,125.07 328.5,123.24C328.19,121.42 327.91,119.6 327.65,117.77C327.39,115.95 327.17,114.12 326.95,112.29C326.73,110.46 326.54,108.64 326.35,106.81C326.16,104.98 325.97,103.16 325.79,101.33C325.61,99.51 325.44,97.68 325.28,95.86C325.12,94.03 324.97,92.21 324.84,90.38C324.71,88.55 324.6,86.73 324.5,84.9Q324.41,83.07 324.27,79.42L323.73,79.42Q323.59,83.07 323.5,84.9C323.4,86.73 323.29,88.55 323.16,90.38C323.03,92.21 322.88,94.03 322.72,95.86C322.56,97.68 322.39,99.51 322.21,101.33C322.03,103.16 321.84,104.98 321.65,106.81C321.46,108.64 321.27,110.46 321.05,112.29C320.83,114.12 320.61,115.95 320.35,117.77C320.09,119.6 319.81,121.42 319.5,123.24C319.19,125.07 318.84,126.89 318.49,128.72C318.14,130.55 317.76,132.37 317.42,134.2C317.08,136.03 316.73,137.85 316.45,139.68C316.17,141.5 315.92,143.32 315.75,145.15C315.58,146.97 315.47,148.8 315.41,150.63C315.35,152.46 315.35,154.28 315.36,156.11C315.37,157.94 315.44,159.76 315.47,161.59C315.5,163.41 315.55,165.24 315.55,167.06C315.55,168.89 315.55,170.71 315.46,172.54C315.37,174.37 315.27,176.2 315.03,178.02C314.79,179.85 314.51,181.69 314.04,183.5C313.56,185.34 312.97,187.18 312.17,188.97C311.34,190.83 310.31,192.68 309.1,194.45C307.81,196.34 306.26,198.16 304.59,199.93C302.82,201.82 300.79,203.62 298.73,205.41C296.58,207.27 294.22,209.06 291.94,210.88C289.65,212.71 287.22,214.5 285.01,216.36C282.87,218.16 280.71,219.94 278.87,221.84C277.16,223.61 275.5,225.41 274.28,227.32C273.15,229.08 272.21,230.92 271.68,232.79C271.17,234.57 270.99,236.45 271.08,238.27C271.17,240.1 271.65,241.96 272.25,243.75C272.88,245.61 273.82,247.44 274.83,249.23C275.89,251.1 277.17,252.91 278.5,254.71C279.87,256.57 281.4,258.37 282.94,260.18C284.51,262.03 286.2,263.84 287.85,265.66C289.51,267.49 291.22,269.3 292.86,271.14C294.48,272.96 296.1,274.77 297.62,276.62C299.11,278.42 300.55,280.24 301.89,282.09C303.2,283.89 304.43,285.72 305.58,287.57C306.71,289.38 307.75,291.21 308.75,293.05C309.74,294.86 310.66,296.7 311.56,298.53C312.45,300.35 313.31,302.17 314.13,304C314.95,305.82 315.74,307.64 316.47,309.48C317.19,311.3 317.87,313.12 318.46,314.96C319.04,316.78 319.57,318.6 319.99,320.44C320.4,322.25 320.72,324.08 320.95,325.91C321.18,327.73 321.3,329.56 321.37,331.39C321.44,333.22 321.42,335.04 321.38,336.87C321.34,338.7 321.24,340.52 321.15,342.35C321.07,344.17 320.95,346 320.87,347.82C320.79,349.65 320.7,351.47 320.66,353.3C320.62,355.13 320.6,356.95 320.61,358.78C320.62,360.61 320.66,362.43 320.71,364.26C320.76,366.08 320.84,367.91 320.91,369.73C320.98,371.56 321.07,373.38 321.13,375.21C321.19,377.04 321.25,378.86 321.29,380.69C321.33,382.52 321.34,384.34 321.35,386.17C321.36,387.99 321.35,389.82 321.34,391.64C321.33,393.47 321.3,395.29 321.28,397.12C321.26,398.95 321.24,400.77 321.23,402.6C321.22,404.43 321.21,406.25 321.21,408.08C321.21,409.9 321.21,411.73 321.22,413.55C321.23,415.38 321.24,417.2 321.26,419.03C321.28,420.86 321.32,422.68 321.36,424.51C321.4,426.34 321.44,428.16 321.49,429.99C321.54,431.82 321.6,433.64 321.65,435.47C321.7,437.29 321.75,439.12 321.78,440.94C321.81,442.77 321.83,444.59 321.83,446.42C321.83,448.25 321.82,450.07 321.81,451.9C321.8,453.73 321.78,455.55 321.79,457.38C321.8,459.2 321.82,461.03 321.86,462.85C321.91,464.68 321.97,466.5 322.06,468.33C322.15,470.16 322.28,471.98 322.4,473.81C322.52,475.64 322.67,477.46 322.8,479.29C322.93,481.11 323.07,482.94 323.19,484.76C323.31,486.59 323.42,488.41 323.51,490.24Q323.6,492.07 323.73,495.72Z" style="vector-effect: non-scaling-stroke; stroke-width: 2px; stroke: rgb(239, 85, 59); stroke-opacity: 1; fill: rgb(239, 85, 59); fill-opacity: 0.5;"/><path class="violin" d="M540.08,589Q540.12,580.14 540.15,575.71C540.18,571.28 540.22,566.86 540.27,562.43C540.32,558 540.38,553.57 540.45,549.14C540.52,544.71 540.6,540.29 540.7,535.86C540.8,531.43 540.91,527 541.04,522.57C541.17,518.14 541.32,513.72 541.49,509.29C541.66,504.86 541.85,500.43 542.05,496C542.26,491.57 542.48,487.14 542.72,482.71C542.96,478.28 543.22,473.86 543.48,469.43C543.74,465 544.01,460.57 544.28,456.14C544.55,451.71 544.82,447.29 545.09,442.86C545.36,438.43 545.62,434 545.9,429.57C546.18,425.14 546.45,420.72 546.75,416.29C547.06,411.86 547.37,407.43 547.73,403C548.09,398.57 548.48,394.14 548.92,389.71C549.37,385.28 549.85,380.85 550.4,376.43C550.95,372 551.56,367.57 552.2,363.14C552.85,358.71 553.57,354.29 554.27,349.86C554.97,345.43 555.73,341 556.42,336.57C557.11,332.14 557.82,327.72 558.39,323.29C558.96,318.87 559.48,314.44 559.84,310C560.19,305.58 560.44,301.14 560.52,296.71C560.6,292.28 560.51,287.85 560.3,283.43C560.09,279 559.7,274.56 559.26,270.14C558.82,265.71 558.22,261.29 557.64,256.86C557.06,252.43 556.38,248 555.79,243.57C555.2,239.14 554.58,234.72 554.09,230.29C553.6,225.87 553.16,221.43 552.86,217C552.56,212.57 552.37,208.14 552.28,203.71C552.19,199.28 552.24,194.86 552.3,190.43C552.36,186 552.56,181.57 552.67,177.14C552.78,172.71 552.95,168.29 552.98,163.86C553.01,159.43 552.99,155 552.83,150.57C552.67,146.14 552.39,141.71 551.99,137.29C551.59,132.86 551.02,128.42 550.42,124C549.82,119.56 549.08,115.14 548.37,110.71C547.66,106.28 546.87,101.86 546.17,97.43C545.47,93 544.76,88.57 544.16,84.14C543.56,79.72 543.01,75.29 542.56,70.86C542.11,66.43 541.75,62 541.44,57.57C541.14,53.14 540.91,48.72 540.73,44.29Q540.55,39.86 540.34,31L539.66,31Q539.45,39.86 539.27,44.29C539.09,48.72 538.86,53.14 538.56,57.57C538.25,62 537.89,66.43 537.44,70.86C536.99,75.29 536.44,79.72 535.84,84.14C535.24,88.57 534.53,93 533.83,97.43C533.13,101.86 532.34,106.28 531.63,110.71C530.92,115.14 530.18,119.56 529.58,124C528.98,128.42 528.41,132.86 528.01,137.29C527.61,141.71 527.33,146.14 527.17,150.57C527.01,155 526.99,159.43 527.02,163.86C527.05,168.29 527.22,172.71 527.33,177.14C527.44,181.57 527.64,186 527.7,190.43C527.76,194.86 527.81,199.28 527.72,203.71C527.63,208.14 527.44,212.57 527.14,217C526.84,221.43 526.4,225.87 525.91,230.29C525.42,234.72 524.8,239.14 524.21,243.57C523.62,248 522.94,252.43 522.36,256.86C521.78,261.29 521.18,265.71 520.74,270.14C520.3,274.56 519.91,279 519.7,283.43C519.49,287.85 519.4,292.28 519.48,296.71C519.56,301.14 519.81,305.58 520.16,310C520.52,314.44 521.04,318.87 521.61,323.29C522.18,327.72 522.89,332.14 523.58,336.57C524.27,341 525.03,345.43 525.73,349.86C526.43,354.29 527.15,358.71 527.8,363.14C528.44,367.57 529.05,372 529.6,376.43C530.15,380.85 530.63,385.28 531.08,389.71C531.52,394.14 531.91,398.57 532.27,403C532.63,407.43 532.94,411.86 533.25,416.29C533.55,420.72 533.82,425.14 534.1,429.57C534.38,434 534.64,438.43 534.91,442.86C535.18,447.29 535.45,451.71 535.72,456.14C535.99,460.57 536.26,465 536.52,469.43C536.78,473.86 537.04,478.28 537.28,482.71C537.52,487.14 537.74,491.57 537.95,496C538.15,500.43 538.34,504.86 538.51,509.29C538.68,513.72 538.83,518.14 538.96,522.57C539.09,527 539.2,531.43 539.3,535.86C539.4,540.29 539.48,544.71 539.55,549.14C539.62,553.57 539.68,558 539.73,562.43C539.78,566.86 539.82,571.28 539.85,575.71Q539.88,580.14 539.92,589Z" style="vector-effect: non-scaling-stroke; stroke-width: 2px; stroke: rgb(239, 85, 59); stroke-opacity: 1; fill: rgb(239, 85, 59); fill-opacity: 0.5;"/><path class="box" d="M94.77,277.47H121.23M94.77,351.52H121.23V254.88H94.77ZM108,351.52V427M108,254.88V238.97" style="vector-effect: non-scaling-stroke; stroke-width: 2px; stroke: rgb(239, 85, 59); stroke-opacity: 1; fill: rgb(239, 85, 59); fill-opacity: 0.5;"/><path class="box" d="M310.77,238.97H337.23M310.77,270.79H337.23V223.07H310.77ZM324,270.79V302.6M324,223.07V159.44" style="vector-effect: non-scaling-stroke; stroke-width: 2px; stroke: rgb(239, 85, 59); stroke-opacity: 1; fill: rgb(239, 85, 59); fill-opacity: 0.5;"/><path class="box" d="M526.77,271.42H553.23M526.77,324.71H553.23V186.68H526.77ZM540,324.71V508.29M540,186.68V111.71" style="vector-effect: non-scaling-stroke; stroke-width: 2px; stroke: rgb(239, 85, 59); stroke-opacity: 1; fill: rgb(239, 85, 59); fill-opacity: 0.5;"/><path class="mean" d="M94.77,305.06H121.23" style="fill: none; vector-effect: non-scaling-stroke; stroke-width: 2px; stroke-dasharray: 4px, 2px; stroke: rgb(239, 85, 59); stroke-opacity: 1;"/><path class="mean" d="M310.77,246.62H337.23" style="fill: none; vector-effect: non-scaling-stroke; stroke-width: 2px; stroke-dasharray: 4px, 2px; stroke: rgb(239, 85, 59); stroke-opacity: 1;"/><path class="mean" d="M526.77,271.19H553.23" style="fill: none; vector-effect: non-scaling-stroke; stroke-width: 2px; stroke-dasharray: 4px, 2px; stroke: rgb(239, 85, 59); stroke-opacity: 1;"/></g></g></g><g class="overplot"/><path class="xlines-above crisp" d="M0,0" style="fill: none;"/><path class="ylines-above crisp" d="M0,0" style="fill: none;"/><g class="overlines-above"/><g class="xaxislayer-above"><g class="x2tick"><text text-anchor="middle" x="0" y="733" transform="translate(980.0000000000001,0)" style="font-family: 'Open Sans', verdana, arial, sans-serif; font-size: 12px; fill: rgb(42, 63, 95); fill-opacity: 1; white-space: pre; opacity: 1;">&#60;=1</text></g><g class="x2tick"><text text-anchor="middle" x="0" y="733" transform="translate(1196,0)" style="font-family: 'Open Sans', verdana, arial, sans-serif; font-size: 12px; fill: rgb(42, 63, 95); fill-opacity: 1; white-space: pre; opacity: 1;">(1, 2]</text></g><g class="x2tick"><text text-anchor="middle" x="0" y="733" transform="translate(1412,0)" style="font-family: 'Open Sans', verdana, arial, sans-serif; font-size: 12px; fill: rgb(42, 63, 95); fill-opacity: 1; white-space: pre; opacity: 1;">>2</text></g></g><g class="yaxislayer-above"><g class="y2tick"><text text-anchor="end" x="871.0000000000001" y="4.199999999999999" transform="translate(0,641.05)" style="font-family: 'Open Sans', verdana, arial, sans-serif; font-size: 12px; fill: rgb(42, 63, 95); fill-opacity: 1; white-space: pre; opacity: 1;">0</text></g><g class="y2tick"><text text-anchor="end" x="871.0000000000001" y="4.199999999999999" style="font-family: 'Open Sans', verdana, arial, sans-serif; font-size: 12px; fill: rgb(42, 63, 95); fill-opacity: 1; white-space: pre; opacity: 1;" transform="translate(0,561.52)">5</text></g><g class="y2tick"><text text-anchor="end" x="871.0000000000001" y="4.199999999999999" style="font-family: 'Open Sans', verdana, arial, sans-serif; font-size: 12px; fill: rgb(42, 63, 95); fill-opacity: 1; white-space: pre; opacity: 1;" transform="translate(0,481.98)">10</text></g><g class="y2tick"><text text-anchor="end" x="871.0000000000001" y="4.199999999999999" style="font-family: 'Open Sans', verdana, arial, sans-serif; font-size: 12px; fill: rgb(42, 63, 95); fill-opacity: 1; white-space: pre; opacity: 1;" transform="translate(0,402.44)">15</text></g><g class="y2tick"><text text-anchor="end" x="871.0000000000001" y="4.199999999999999" style="font-family: 'Open Sans', verdana, arial, sans-serif; font-size: 12px; fill: rgb(42, 63, 95); fill-opacity: 1; white-space: pre; opacity: 1;" transform="translate(0,322.90999999999997)">20</text></g><g class="y2tick"><text text-anchor="end" x="871.0000000000001" y="4.199999999999999" style="font-family: 'Open Sans', verdana, arial, sans-serif; font-size: 12px; fill: rgb(42, 63, 95); fill-opacity: 1; white-space: pre; opacity: 1;" transform="translate(0,243.37)">25</text></g><g class="y2tick"><text text-anchor="end" x="871.0000000000001" y="4.199999999999999" style="font-family: 'Open Sans', verdana, arial, sans-serif; font-size: 12px; fill: rgb(42, 63, 95); fill-opacity: 1; white-space: pre; opacity: 1;" transform="translate(0,163.82999999999998)">30</text></g></g><g class="overaxes-above"/></g></g><g class="polarlayer"/><g class="smithlayer"/><g class="ternarylayer"/><g class="geolayer"/><g class="funnelarealayer"/><g class="pielayer"/><g class="iciclelayer"/><g class="treemaplayer"/><g class="sunburstlayer"/><g class="glimages"/><defs id="topdefs-71f465"><g class="clips"/></defs><g class="layer-above"><g class="imagelayer"/><g class="shapelayer"/></g><g class="infolayer"><g class="g-gtitle"><text class="gtitle" x="80" y="50" text-anchor="start" dy="0em" style="font-family: 'Open Sans', verdana, arial, sans-serif; font-size: 17px; fill: rgb(42, 63, 95); opacity: 1; font-weight: normal; white-space: pre;">original_price Distributions</text></g><g class="g-xtitle"><text class="xtitle" x="404" y="761.8" text-anchor="middle" style="font-family: 'Open Sans', verdana, arial, sans-serif; font-size: 14px; fill: rgb(42, 63, 95); opacity: 1; font-weight: normal; white-space: pre;">Hardcover over Paperback</text></g><g class="g-x2title"><text class="x2title" x="1196" y="761.8" text-anchor="middle" style="font-family: 'Open Sans', verdana, arial, sans-serif; font-size: 14px; fill: rgb(42, 63, 95); opacity: 1; font-weight: normal; white-space: pre;">Hardcover over Paperback</text></g><g class="g-ytitle"><text class="ytitle" transform="rotate(-90,40.465625,410)" x="40.465625" y="410" text-anchor="middle" style="font-family: 'Open Sans', verdana, arial, sans-serif; font-size: 14px; fill: rgb(42, 63, 95); opacity: 1; font-weight: normal; white-space: pre;">original_price</text></g><g class="g-y2title"><text class="y2title" transform="rotate(-90,832.465625,410)" x="832.465625" y="410" text-anchor="middle" style="font-family: 'Open Sans', verdana, arial, sans-serif; font-size: 14px; fill: rgb(42, 63, 95); opacity: 1; font-weight: normal; white-space: pre;">original_price</text></g><g class="annotation" data-index="0" style="opacity: 1;"><g class="annotation-text-g" transform="rotate(0,404,87)"><g class="cursor-pointer" transform="translate(363,74)"><rect class="bg" x="0.5" y="0.5" width="82" height="25" style="stroke-width: 1px; stroke: rgb(0, 0, 0); stroke-opacity: 0; fill: rgb(0, 0, 0); fill-opacity: 0;"/><text class="annotation-text" text-anchor="middle" x="41.296875" y="19" style="font-family: 'Open Sans', verdana, arial, sans-serif; font-size: 16px; fill: rgb(42, 63, 95); fill-opacity: 1; white-space: pre;">Paperback</text></g></g></g><g class="annotation" data-index="1" style="opacity: 1;"><g class="annotation-text-g" transform="rotate(0,1196,87)"><g class="cursor-pointer" transform="translate(1155,74)"><rect class="bg" x="0.5" y="0.5" width="81" height="25" style="stroke-width: 1px; stroke: rgb(0, 0, 0); stroke-opacity: 0; fill: rgb(0, 0, 0); fill-opacity: 0;"/><text class="annotation-text" text-anchor="middle" x="40.921875" y="19" style="font-family: 'Open Sans', verdana, arial, sans-serif; font-size: 16px; fill: rgb(42, 63, 95); fill-opacity: 1; white-space: pre;">Hardcover</text></g></g></g></g></svg>