<svg class="main-svg" xmlns="http://www.w3.org/2000/svg" xmlns:xlink="http://www.w3.org/1999/xlink" width="1600" height="800" style="" viewBox="0 0 1600 800"><rect x="0" y="0" width="1600" height="800" style="fill: rgb(255, 255, 255); fill-opacity: 1;"/><defs id="defs-20a4f5"><g class="clips"><clipPath id="clip20a4f5xyplot" class="plotclip"><rect width="648" height="620"/></clipPath><clipPath id="clip20a4f5x2y2plot" class="plotclip"><rect width="647.9999999999999" height="620"/></clipPath><clipPath class="axesclip" id="clip20a4f5x"><rect x="80" y="0" width="648" height="800"/></clipPath><clipPath class="axesclip" id="clip20a4f5y"><rect x="0" y="100" width="1600" height="620"/></clipPath><clipPath class="axesclip" id="clip20a4f5xy"><rect x="80" y="100" width="648" height="620"/></clipPath><clipPath class="axesclip" id="clip20a4f5y2"><rect x="0" y="100" width="1600" height="620"/></clipPath><clipPath class="axesclip" id="clip20a4f5xy2"><rect x="80" y="100" width="648" height="620"/></clipPath><clipPath class="axesclip" id="clip20a4f5x2"><rect x="872.0000000000001" y="0" width="647.9999999999999" height="800"/></clipPath><clipPath class="axesclip" id="clip20a4f5x2y"><rect x="872.0000000000001" y="100" width="647.9999999999999" height="620"/></clipPath><clipPath class="axesclip" id="clip20a4f5x2y2"><rect x="872.0000000000001" y="100" width="647.9999999999999" height="620"/></clipPath></g><g class="gradients"/><g class="patterns"/></defs><g class="bglayer"><rect class="bg" x="80" y="100" width="648" height="620" style="fill: rgb(229, 236, 246); fill-opacity: 1; stroke-width: 0;"/><rect class="bg" x="872.0000000000001" y="100" width="647.9999999999999" height="620" style="fill: rgb(229, 236, 246); fill-opacity: 1; stroke-width: 0;"/></g><g class="layer-below"><g class="imagelayer"/><g class="shapelayer"/></g><g class="cartesianlayer"><g class="subplot xy"><g class="layer-subplot"><g class="shapelayer"/><g class="imagelayer"/></g><g class="minor-gridlayer"><g class="x"/><g class="y"/></g><g class="gridlayer"><g class="x"/><g class="y"><path class="ygrid crisp" transform="translate(0,653.61)" d="M80,0h648" style="stroke: rgb(255, 255, 255); stroke-opacity: 1; stroke-width: 1px;"/><path class="ygrid crisp" transform="translate(0,581.96)" d="M80,0h648" style="stroke: rgb(255, 255, 255); stroke-opacity: 1; stroke-width: 1px;"/><path class="ygrid crisp" transform="translate(0,510.31)" d="M80,0h648" style="stroke: rgb(255, 255, 255); stroke-opacity: 1; stroke-width: 1px;"/><path class="ygrid crisp" transform="translate(0,438.66)" d="M80,0h648" style="stroke: rgb(255, 255, 255); stroke-opacity: 1; stroke-width: 1px;"/><path class="ygrid crisp" transform="translate(0,367.01)" d="M80,0h648" style="stroke: rgb(255, 255, 255); stroke-opacity: 1; stroke-width: 1px;"/><path class="ygrid crisp" transform="translate(0,295.36)" d="M80,0h648" style="stroke: rgb(255, 255, 255); stroke-opacity: 1; stroke-width: 1px;"/><path class="ygrid crisp" transform="translate(0,223.70999999999998)" d="M80,0h648" style="stroke: rgb(255, 255, 255); stroke-opacity: 1; stroke-width: 1px;"/><path class="ygrid crisp" transform="translate(0,152.06)" d="M80,0h648" style="stroke: rgb(255, 255, 255); stroke-opacity: 1; stroke-width: 1px;"/></g></g><g class="zerolinelayer"/><path class="xlines-below"/><path class="ylines-below"/><g class="overlines-below"/><g class="xaxislayer-below"/><g class="yaxislayer-below"/><g class="overaxes-below"/><g class="plot" transform="translate(80,100)" clip-path="url(#clip20a4f5xyplot)"><g class="violinlayer mlayer"><g class="trace violins" style="opacity: 1;"><path class="violin" d="M108.81,587Q109.25,575.39 109.57,569.59C109.89,563.78 110.28,557.98 110.75,552.18C111.22,546.37 111.79,540.57 112.4,534.77C113.02,528.96 113.72,523.16 114.44,517.36C115.16,511.56 115.95,505.76 116.72,499.96C117.5,494.16 118.31,488.35 119.09,482.55C119.87,476.75 120.64,470.94 121.41,465.14C122.17,459.34 122.93,453.53 123.68,447.73C124.43,441.93 125.19,436.12 125.93,430.32C126.67,424.52 127.42,418.71 128.13,412.91C128.84,407.11 129.53,401.3 130.2,395.5C130.87,389.7 131.49,383.9 132.15,378.1C132.81,372.3 133.4,366.49 134.16,360.69C134.92,354.88 135.7,349.07 136.73,343.28C137.77,337.46 138.96,331.65 140.38,325.87C141.82,320.04 143.54,314.24 145.32,308.46C147.12,302.64 149.24,296.86 151.12,291.05C153,285.25 155.07,279.48 156.6,273.64C158.11,267.87 159.55,262.06 160.27,256.23C160.98,250.46 161.27,244.61 160.92,238.83C160.57,233.01 159.53,227.17 158.15,221.42C156.74,215.56 154.64,209.77 152.48,204.01C150.29,198.16 147.62,192.39 145.08,186.6C142.53,180.78 139.76,175.01 137.22,169.19C134.69,163.4 132.15,157.61 129.86,151.78C127.6,146.01 125.45,140.2 123.55,134.37C121.67,128.6 119.97,122.79 118.48,116.96C117,111.18 115.74,105.38 114.65,99.56C113.56,93.77 112.69,87.96 111.94,82.15C111.19,76.36 110.63,70.55 110.15,64.74Q109.67,58.94 109.08,47.33L106.92,47.33Q106.33,58.94 105.85,64.74C105.37,70.55 104.81,76.36 104.06,82.15C103.31,87.96 102.44,93.77 101.35,99.56C100.26,105.38 99,111.18 97.52,116.96C96.03,122.79 94.33,128.6 92.45,134.37C90.55,140.2 88.4,146.01 86.14,151.78C83.85,157.61 81.31,163.4 78.78,169.19C76.24,175.01 73.47,180.78 70.92,186.6C68.38,192.39 65.71,198.16 63.52,204.01C61.36,209.77 59.26,215.56 57.85,221.42C56.47,227.17 55.43,233.01 55.08,238.83C54.73,244.61 55.02,250.46 55.73,256.23C56.45,262.06 57.89,267.87 59.4,273.64C60.93,279.48 63,285.25 64.88,291.05C66.76,296.86 68.88,302.64 70.68,308.46C72.46,314.24 74.18,320.04 75.62,325.87C77.04,331.65 78.23,337.46 79.27,343.28C80.3,349.07 81.08,354.88 81.84,360.69C82.6,366.49 83.19,372.3 83.85,378.1C84.51,383.9 85.13,389.7 85.8,395.5C86.47,401.3 87.16,407.11 87.87,412.91C88.58,418.71 89.33,424.52 90.07,430.32C90.81,436.12 91.57,441.93 92.32,447.73C93.07,453.53 93.83,459.34 94.59,465.14C95.36,470.94 96.13,476.75 96.91,482.55C97.69,488.35 98.5,494.16 99.28,499.96C100.05,505.76 100.84,511.56 101.56,517.36C102.28,523.16 102.98,528.96 103.6,534.77C104.21,540.57 104.78,546.37 105.25,552.18C105.72,557.98 106.11,563.78 106.43,569.59Q106.75,575.39 107.19,587Z" style="vector-effect: non-scaling-stroke; stroke-width: 2px; stroke: rgb(99, 110, 250); stroke-opacity: 1; fill: rgb(99, 110, 250); fill-opacity: 0.5;"/><path class="violin" d="M324.84,589Q325.31,577.37 325.66,571.56C326.01,565.75 326.43,559.94 326.96,554.13C327.49,548.31 328.12,542.5 328.83,536.69C329.54,530.87 330.36,525.06 331.21,519.25C332.06,513.43 333.01,507.62 333.92,501.81C334.82,496 335.78,490.19 336.64,484.38C337.5,478.57 338.35,472.76 339.08,466.94C339.81,461.13 340.47,455.32 341.03,449.5C341.58,443.69 342.03,437.88 342.41,432.06C342.79,426.25 343.07,420.44 343.29,414.63C343.51,408.82 343.64,403 343.72,397.19C343.8,391.38 343.8,385.56 343.75,379.75C343.7,373.94 343.57,368.12 343.41,362.31C343.25,356.5 343,350.69 342.81,344.88C342.62,339.07 342.36,333.25 342.28,327.44C342.2,321.63 342.1,315.81 342.31,310C342.52,304.18 342.84,298.36 343.52,292.56C344.2,286.73 345.14,280.91 346.38,275.13C347.64,269.29 349.26,263.47 351.05,257.69C352.86,251.84 355.04,246.05 357.17,240.25C359.31,234.42 361.73,228.64 363.84,222.81C365.94,217.02 368.15,211.24 369.79,205.38C371.4,199.61 372.88,193.79 373.62,187.94C374.35,182.16 374.64,176.29 374.25,170.5C373.86,164.67 372.75,158.81 371.24,153.06C369.7,147.18 367.4,141.38 365.02,135.63C362.59,129.76 359.61,123.99 356.78,118.19C353.94,112.36 350.81,106.59 348.01,100.75C345.24,94.96 342.46,89.17 340.08,83.31C337.74,77.55 335.6,71.74 333.82,65.88C332.07,60.11 330.64,54.28 329.46,48.44Q328.29,42.65 326.76,31L321.24,31Q319.71,42.65 318.54,48.44C317.36,54.28 315.93,60.11 314.18,65.88C312.4,71.74 310.26,77.55 307.92,83.31C305.54,89.17 302.76,94.96 299.99,100.75C297.19,106.59 294.06,112.36 291.22,118.19C288.39,123.99 285.41,129.76 282.98,135.63C280.6,141.38 278.3,147.18 276.76,153.06C275.25,158.81 274.14,164.67 273.75,170.5C273.36,176.29 273.65,182.16 274.38,187.94C275.12,193.79 276.6,199.61 278.21,205.38C279.85,211.24 282.06,217.02 284.16,222.81C286.27,228.64 288.69,234.42 290.83,240.25C292.96,246.05 295.14,251.84 296.95,257.69C298.74,263.47 300.36,269.29 301.62,275.13C302.86,280.91 303.8,286.73 304.48,292.56C305.16,298.36 305.48,304.18 305.69,310C305.9,315.81 305.8,321.63 305.72,327.44C305.64,333.25 305.38,339.07 305.19,344.88C305,350.69 304.75,356.5 304.59,362.31C304.43,368.12 304.3,373.94 304.25,379.75C304.2,385.56 304.2,391.38 304.28,397.19C304.36,403 304.49,408.82 304.71,414.63C304.93,420.44 305.21,426.25 305.59,432.06C305.97,437.88 306.42,443.69 306.97,449.5C307.53,455.32 308.19,461.13 308.92,466.94C309.65,472.76 310.5,478.57 311.36,484.38C312.22,490.19 313.18,496 314.08,501.81C314.99,507.62 315.94,513.43 316.79,519.25C317.64,525.06 318.46,530.87 319.17,536.69C319.88,542.5 320.51,548.31 321.04,554.13C321.57,559.94 321.99,565.75 322.34,571.56Q322.69,577.37 323.16,589Z" style="vector-effect: non-scaling-stroke; stroke-width: 2px; stroke: rgb(99, 110, 250); stroke-opacity: 1; fill: rgb(99, 110, 250); fill-opacity: 0.5;"/><path class="violin" d="M540.7,559.41Q541.08,550.88 541.37,546.62C541.66,542.35 542.01,538.09 542.44,533.83C542.88,529.56 543.39,525.3 543.98,521.04C544.57,516.77 545.26,512.51 545.96,508.25C546.67,503.98 547.45,499.72 548.21,495.46C548.97,491.2 549.77,486.94 550.5,482.67C551.23,478.41 551.95,474.15 552.57,469.88C553.19,465.62 553.75,461.36 554.21,457.09C554.67,452.83 555.04,448.57 555.34,444.3C555.64,440.04 555.84,435.77 556.03,431.51C556.22,427.25 556.34,422.98 556.49,418.72C556.64,414.46 556.76,410.19 556.95,405.93C557.14,401.67 557.35,397.4 557.65,393.14C557.95,388.87 558.31,384.61 558.77,380.35C559.23,376.08 559.78,371.82 560.43,367.56C561.08,363.29 561.85,359.03 562.68,354.77C563.52,350.5 564.47,346.24 565.45,341.98C566.44,337.71 567.53,333.45 568.59,329.19C569.65,324.93 570.79,320.67 571.8,316.4C572.81,312.14 573.82,307.88 574.66,303.6C575.49,299.35 576.24,295.08 576.81,290.81C577.38,286.56 577.78,282.29 578.1,278.02C578.42,273.76 578.53,269.49 578.71,265.23C578.89,260.97 578.94,256.7 579.16,252.44C579.38,248.17 579.62,243.91 580.04,239.65C580.47,235.38 581.03,231.11 581.71,226.86C582.39,222.59 583.29,218.33 584.11,214.07C584.94,209.8 585.93,205.55 586.66,201.28C587.38,197.03 588.15,192.76 588.47,188.49C588.79,184.24 588.94,179.95 588.6,175.7C588.26,171.42 587.53,167.12 586.4,162.91C585.25,158.59 583.57,154.32 581.7,150.12C579.78,145.79 577.38,141.56 574.99,137.33C572.56,133.03 569.79,128.81 567.21,124.54C564.63,120.28 561.91,116.05 559.49,111.75C557.11,107.52 554.79,103.27 552.8,98.96C550.86,94.74 549.11,90.48 547.67,86.17C546.25,81.95 545.12,77.67 544.19,73.38Q543.27,69.14 542.08,60.59L537.92,60.59Q536.73,69.14 535.81,73.38C534.88,77.67 533.75,81.95 532.33,86.17C530.89,90.48 529.14,94.74 527.2,98.96C525.21,103.27 522.89,107.52 520.51,111.75C518.09,116.05 515.37,120.28 512.79,124.54C510.21,128.81 507.44,133.03 505.01,137.33C502.62,141.56 500.22,145.79 498.3,150.12C496.43,154.32 494.75,158.59 493.6,162.91C492.47,167.12 491.74,171.42 491.4,175.7C491.06,179.95 491.21,184.24 491.53,188.49C491.85,192.76 492.62,197.03 493.34,201.28C494.07,205.55 495.06,209.8 495.89,214.07C496.71,218.33 497.61,222.59 498.29,226.86C498.97,231.11 499.53,235.38 499.96,239.65C500.38,243.91 500.62,248.17 500.84,252.44C501.06,256.7 501.11,260.97 501.29,265.23C501.47,269.49 501.58,273.76 501.9,278.02C502.22,282.29 502.62,286.56 503.19,290.81C503.76,295.08 504.51,299.35 505.34,303.6C506.18,307.88 507.19,312.14 508.2,316.4C509.21,320.67 510.35,324.93 511.41,329.19C512.47,333.45 513.56,337.71 514.55,341.98C515.53,346.24 516.48,350.5 517.32,354.77C518.15,359.03 518.92,363.29 519.57,367.56C520.22,371.82 520.77,376.08 521.23,380.35C521.69,384.61 522.05,388.87 522.35,393.14C522.65,397.4 522.86,401.67 523.05,405.93C523.24,410.19 523.36,414.46 523.51,418.72C523.66,422.98 523.78,427.25 523.97,431.51C524.16,435.77 524.36,440.04 524.66,444.3C524.96,448.57 525.33,452.83 525.79,457.09C526.25,461.36 526.81,465.62 527.43,469.88C528.05,474.15 528.77,478.41 529.5,482.67C530.23,486.94 531.03,491.2 531.79,495.46C532.55,499.72 533.33,503.98 534.04,508.25C534.74,512.51 535.43,516.77 536.02,521.04C536.61,525.3 537.12,529.56 537.56,533.83C537.99,538.09 538.34,542.35 538.63,546.62Q538.92,550.88 539.3,559.41Z" style="vector-effect: non-scaling-stroke; stroke-width: 2px; stroke: rgb(99, 110, 250); stroke-opacity: 1; fill: rgb(99, 110, 250); fill-opacity: 0.5;"/><path class="box" d="M94.77,252.68H121.23M94.77,360.15H121.23V238.35H94.77ZM108,360.15V481.96M108,238.35V152.37" style="vector-effect: non-scaling-stroke; stroke-width: 2px; stroke: rgb(99, 110, 250); stroke-opacity: 1; fill: rgb(99, 110, 250); fill-opacity: 0.5;"/><path class="box" d="M310.77,209.69H337.23M310.77,367.32H337.23V166.7H310.77ZM324,367.32V481.96M324,166.7V138.04" style="vector-effect: non-scaling-stroke; stroke-width: 2px; stroke: rgb(99, 110, 250); stroke-opacity: 1; fill: rgb(99, 110, 250); fill-opacity: 0.5;"/><path class="box" d="M526.77,252.68H553.23M526.77,324.33H553.23V181.03H526.77ZM540,324.33V481.96M540,181.03V138.04" style="vector-effect: non-scaling-stroke; stroke-width: 2px; stroke: rgb(99, 110, 250); stroke-opacity: 1; fill: rgb(99, 110, 250); fill-opacity: 0.5;"/><path class="mean" d="M94.77,286.36H121.23" style="fill: none; vector-effect: non-scaling-stroke; stroke-width: 2px; stroke-dasharray: 4px, 2px; stroke: rgb(99, 110, 250); stroke-opacity: 1;"/><path class="mean" d="M310.77,254.44H337.23" style="fill: none; vector-effect: non-scaling-stroke; stroke-width: 2px; stroke-dasharray: 4px, 2px; stroke: rgb(99, 110, 250); stroke-opacity: 1;"/><path class="mean" d="M526.77,263.16H553.23" style="fill: none; vector-effect: non-scaling-stroke; stroke-width: 2px; stroke-dasharray: 4px, 2px; stroke: rgb(99, 110, 250); stroke-opacity: 1;"/></g></g></g><g class="overplot"/><path class="xlines-above crisp" d="M0,0" style="fill: none;"/><path class="ylines-above crisp" d="M0,0" style="fill: none;"/><g class="overlines-above"/><g class="xaxislayer-above"><g class="xtick"><text text-anchor="middle" x="0" y="733" transform="translate(188,0)" style="font-family: 'Open Sans', verdana, arial, sans-serif; font-size: 12px; fill: rgb(42, 63, 95); fill-opacity: 1; white-space: pre; opacity: 1;">&#60;=1</text></g><g class="xtick"><text text-anchor="middle" x="0" y="733" transform="translate(404,0)" style="font-family: 'Open Sans', verdana, arial, sans-serif; font-size: 12px; fill: rgb(42, 63, 95); fill-opacity: 1; white-space: pre; opacity: 1;">(1, 2]</text></g><g class="xtick"><text text-anchor="middle" x="0" y="733" transform="translate(620,0)" style="font-family: 'Open Sans', verdana, arial, sans-serif; font-size: 12px; fill: rgb(42, 63, 95); fill-opacity: 1; white-space: pre; opacity: 1;">>2</text></g></g><g class="yaxislayer-above"><g class="ytick"><text text-anchor="end" x="79" y="4.199999999999999" transform="translate(0,653.61)" style="font-family: 'Open Sans', verdana, arial, sans-serif; font-size: 12px; fill: rgb(42, 63, 95); fill-opacity: 1; white-space: pre; opacity: 1;">1995</text></g><g class="ytick"><text text-anchor="end" x="79" y="4.199999999999999" style="font-family: 'Open Sans', verdana, arial, sans-serif; font-size: 12px; fill: rgb(42, 63, 95); fill-opacity: 1; white-space: pre; opacity: 1;" transform="translate(0,581.96)">2000</text></g><g class="ytick"><text text-anchor="end" x="79" y="4.199999999999999" style="font-family: 'Open Sans', verdana, arial, sans-serif; font-size: 12px; fill: rgb(42, 63, 95); fill-opacity: 1; white-space: pre; opacity: 1;" transform="translate(0,510.31)">2005</text></g><g class="ytick"><text text-anchor="end" x="79" y="4.199999999999999" style="font-family: 'Open Sans', verdana, arial, sans-serif; font-size: 12px; fill: rgb(42, 63, 95); fill-opacity: 1; white-space: pre; opacity: 1;" transform="translate(0,438.66)">2010</text></g><g class="ytick"><text text-anchor="end" x="79" y="4.199999999999999" style="font-family: 'Open Sans', verdana, arial, sans-serif; font-size: 12px; fill: rgb(42, 63, 95); fill-opacity: 1; white-space: pre; opacity: 1;" transform="translate(0,367.01)">2015</text></g><g class="ytick"><text text-anchor="end" x="79" y="4.199999999999999" style="font-family: 'Open Sans', verdana, arial, sans-serif; font-size: 12px; fill: rgb(42, 63, 95); fill-opacity: 1; white-space: pre; opacity: 1;" transform="translate(0,295.36)">2020</text></g><g class="ytick"><text text-anchor="end" x="79" y="4.199999999999999" style="font-family: 'Open Sans', verdana, arial, sans-serif; font-size: 12px; fill: rgb(42, 63, 95); fill-opacity: 1; white-space: pre; opacity: 1;" transform="translate(0,223.70999999999998)">2025</text></g><g class="ytick"><text text-anchor="end" x="79" y="4.199999999999999" style="font-family: 'Open Sans', verdana, arial, sans-serif; font-size: 12px; fill: rgb(42, 63, 95); fill-opacity: 1; white-space: pre; opacity: 1;" transform="translate(0,152.06)">2030</text></g></g><g class="overaxes-above"/></g><g class="subplot x2y2"><g class="layer-subplot"><g class="shapelayer"/><g class="imagelayer"/></g><g class="minor-gridlayer"><g class="x2"/><g class="y2"/></g><g class="gridlayer"><g class="x2"/><g class="y2"><path class="y2grid crisp" transform="translate(0,655.64)" d="M872.0000000000001,0h647.9999999999999" style="stroke: rgb(255, 255, 255); stroke-opacity: 1; stroke-width: 1px;"/><path class="y2grid crisp" transform="translate(0,557.39)" d="M872.0000000000001,0h647.9999999999999" style="stroke: rgb(255, 255, 255); stroke-opacity: 1; stroke-width: 1px;"/><path class="y2grid crisp" transform="translate(0,459.13)" d="M872.0000000000001,0h647.9999999999999" style="stroke: rgb(255, 255, 255); stroke-opacity: 1; stroke-width: 1px;"/><path class="y2grid crisp" transform="translate(0,360.87)" d="M872.0000000000001,0h647.9999999999999" style="stroke: rgb(255, 255, 255); stroke-opacity: 1; stroke-width: 1px;"/><path class="y2grid crisp" transform="translate(0,262.61)" d="M872.0000000000001,0h647.9999999999999" style="stroke: rgb(255, 255, 255); stroke-opacity: 1; stroke-width: 1px;"/><path class="y2grid crisp" transform="translate(0,164.36)" d="M872.0000000000001,0h647.9999999999999" style="stroke: rgb(255, 255, 255); stroke-opacity: 1; stroke-width: 1px;"/></g></g><g class="zerolinelayer"/><path class="xlines-below"/><path class="ylines-below"/><g class="overlines-below"/><g class="xaxislayer-below"/><g class="yaxislayer-below"/><g class="overaxes-below"/><g class="plot" transform="translate(872.0000000000001,100)" clip-path="url(#clip20a4f5x2y2plot)"><g class="violinlayer mlayer"><g class="trace violins" style="opacity: 1;"><path class="violin" d="M108.74,589Q109.12,575.71 109.38,569.07C109.64,562.43 109.95,555.78 110.32,549.14C110.69,542.5 111.12,535.85 111.58,529.21C112.04,522.57 112.56,515.93 113.08,509.29C113.61,502.65 114.17,496 114.73,489.36C115.29,482.72 115.87,476.07 116.45,469.43C117.04,462.79 117.63,456.14 118.24,449.5C118.85,442.86 119.48,436.21 120.11,429.57C120.75,422.93 121.41,416.28 122.05,409.64C122.69,403 123.36,396.35 123.95,389.71C124.53,383.07 125.1,376.43 125.56,369.79C126.02,363.15 126.41,356.51 126.72,349.86C127.03,343.22 127.21,336.57 127.4,329.93C127.59,323.29 127.69,316.64 127.88,310C128.07,303.36 128.23,296.71 128.56,290.07C128.89,283.42 129.31,276.78 129.85,270.14C130.4,263.49 131.11,256.85 131.83,250.21C132.55,243.57 133.45,236.93 134.19,230.29C134.92,223.65 135.74,217.01 136.24,210.36C136.74,203.72 137.15,197.07 137.17,190.43C137.19,183.79 136.93,177.13 136.34,170.5C135.75,163.84 134.76,157.19 133.6,150.57C132.43,143.9 130.87,137.27 129.33,130.64C127.78,123.98 125.97,117.35 124.31,110.71C122.65,104.07 120.9,97.44 119.39,90.79C117.88,84.16 116.45,77.52 115.25,70.86C114.05,64.23 113.03,57.58 112.19,50.93Q111.35,44.3 110.2,31L105.8,31Q104.65,44.3 103.81,50.93C102.97,57.58 101.95,64.23 100.75,70.86C99.55,77.52 98.12,84.16 96.61,90.79C95.1,97.44 93.35,104.07 91.69,110.71C90.03,117.35 88.22,123.98 86.67,130.64C85.13,137.27 83.57,143.9 82.4,150.57C81.24,157.19 80.25,163.84 79.66,170.5C79.07,177.13 78.81,183.79 78.83,190.43C78.85,197.07 79.26,203.72 79.76,210.36C80.26,217.01 81.08,223.65 81.81,230.29C82.55,236.93 83.45,243.57 84.17,250.21C84.89,256.85 85.6,263.49 86.15,270.14C86.69,276.78 87.11,283.42 87.44,290.07C87.77,296.71 87.93,303.36 88.12,310C88.31,316.64 88.41,323.29 88.6,329.93C88.79,336.57 88.97,343.22 89.28,349.86C89.59,356.51 89.98,363.15 90.44,369.79C90.9,376.43 91.47,383.07 92.05,389.71C92.64,396.35 93.31,403 93.95,409.64C94.59,416.28 95.25,422.93 95.89,429.57C96.52,436.21 97.15,442.86 97.76,449.5C98.37,456.14 98.96,462.79 99.55,469.43C100.13,476.07 100.71,482.72 101.27,489.36C101.83,496 102.39,502.65 102.92,509.29C103.44,515.93 103.96,522.57 104.42,529.21C104.88,535.85 105.31,542.5 105.68,549.14C106.05,555.78 106.36,562.43 106.62,569.07Q106.88,575.71 107.26,589Z" style="vector-effect: non-scaling-stroke; stroke-width: 2px; stroke: rgb(239, 85, 59); stroke-opacity: 1; fill: rgb(239, 85, 59); fill-opacity: 0.5;"/><path class="violin" d="M324.22,526.68Q324.34,517.99 324.42,513.64C324.5,509.29 324.6,504.95 324.71,500.6C324.82,496.25 324.96,491.91 325.1,487.56C325.25,483.21 325.41,478.87 325.58,474.52C325.75,470.17 325.93,465.83 326.12,461.48C326.31,457.13 326.51,452.79 326.72,448.44C326.93,444.09 327.15,439.75 327.4,435.4C327.65,431.05 327.92,426.71 328.23,422.36C328.54,418.01 328.89,413.66 329.28,409.32C329.67,404.97 330.11,400.62 330.57,396.28C331.04,391.93 331.55,387.59 332.07,383.24C332.59,378.89 333.14,374.55 333.67,370.2C334.19,365.85 334.73,361.51 335.22,357.16C335.71,352.81 336.18,348.47 336.6,344.12C337.02,339.78 337.4,335.43 337.74,331.08C338.08,326.73 338.38,322.39 338.66,318.04C338.94,313.69 339.17,309.35 339.43,305C339.69,300.65 339.92,296.31 340.21,291.96C340.5,287.61 340.78,283.26 341.18,278.92C341.58,274.57 342.02,270.22 342.6,265.88C343.18,261.53 343.85,257.17 344.68,252.84C345.51,248.48 346.49,244.13 347.59,239.8C348.7,235.43 349.97,231.08 351.32,226.75C352.68,222.39 354.2,218.05 355.7,213.71C357.21,209.36 358.84,205.02 360.34,200.67C361.84,196.33 363.41,192 364.71,187.63C366,183.3 367.27,178.96 368.14,174.59C369,170.27 369.7,165.91 369.92,161.55C370.14,157.21 370.03,152.83 369.46,148.51C368.88,144.14 367.82,139.76 366.45,135.47C365.04,131.06 363.11,126.73 361.08,122.43C359,118.03 356.49,113.72 354.07,109.39C351.63,105.02 348.94,100.72 346.49,96.35C344.06,92.02 341.59,87.7 339.43,83.31C337.32,79.01 335.33,74.66 333.66,70.27C332.03,65.97 330.64,61.61 329.5,57.23Q328.37,52.91 326.84,44.19L321.16,44.19Q319.63,52.91 318.5,57.23C317.36,61.61 315.97,65.97 314.34,70.27C312.67,74.66 310.68,79.01 308.57,83.31C306.41,87.7 303.94,92.02 301.51,96.35C299.06,100.72 296.37,105.02 293.93,109.39C291.51,113.72 289,118.03 286.92,122.43C284.89,126.73 282.96,131.06 281.55,135.47C280.18,139.76 279.12,144.14 278.54,148.51C277.97,152.83 277.86,157.21 278.08,161.55C278.3,165.91 279,170.27 279.86,174.59C280.73,178.96 282,183.3 283.29,187.63C284.59,192 286.16,196.33 287.66,200.67C289.16,205.02 290.79,209.36 292.3,213.71C293.8,218.05 295.32,222.39 296.68,226.75C298.03,231.08 299.3,235.43 300.41,239.8C301.51,244.13 302.49,248.48 303.32,252.84C304.15,257.17 304.82,261.53 305.4,265.88C305.98,270.22 306.42,274.57 306.82,278.92C307.22,283.26 307.5,287.61 307.79,291.96C308.08,296.31 308.31,300.65 308.57,305C308.83,309.35 309.06,313.69 309.34,318.04C309.62,322.39 309.92,326.73 310.26,331.08C310.6,335.43 310.98,339.78 311.4,344.12C311.82,348.47 312.29,352.81 312.78,357.16C313.27,361.51 313.81,365.85 314.33,370.2C314.86,374.55 315.41,378.89 315.93,383.24C316.45,387.59 316.96,391.93 317.43,396.28C317.89,400.62 318.33,404.97 318.72,409.32C319.11,413.66 319.46,418.01 319.77,422.36C320.08,426.71 320.35,431.05 320.6,435.4C320.85,439.75 321.07,444.09 321.28,448.44C321.49,452.79 321.69,457.13 321.88,461.48C322.07,465.83 322.25,470.17 322.42,474.52C322.59,478.87 322.75,483.21 322.9,487.56C323.04,491.91 323.18,496.25 323.29,500.6C323.4,504.95 323.5,509.29 323.58,513.64Q323.66,517.99 323.78,526.68Z" style="vector-effect: non-scaling-stroke; stroke-width: 2px; stroke: rgb(239, 85, 59); stroke-opacity: 1; fill: rgb(239, 85, 59); fill-opacity: 0.5;"/><path class="violin" d="M540.38,512.24Q540.57,504.11 540.71,500.04C540.85,495.98 541.02,491.91 541.22,487.85C541.42,483.78 541.66,479.71 541.93,475.65C542.2,471.58 542.5,467.52 542.82,463.46C543.14,459.39 543.5,455.32 543.87,451.26C544.24,447.19 544.64,443.13 545.05,439.07C545.46,435 545.89,430.94 546.34,426.87C546.79,422.8 547.26,418.74 547.73,414.67C548.2,410.61 548.7,406.55 549.15,402.48C549.6,398.42 550.06,394.35 550.45,390.28C550.84,386.22 551.2,382.16 551.47,378.09C551.74,374.03 551.95,369.96 552.09,365.89C552.23,361.83 552.27,357.76 552.29,353.7C552.31,349.63 552.24,345.57 552.18,341.5C552.12,337.44 552.01,333.37 551.94,329.31C551.87,325.24 551.79,321.18 551.74,317.11C551.69,313.04 551.66,308.98 551.66,304.91C551.66,300.85 551.68,296.78 551.74,292.72C551.8,288.65 551.87,284.58 552.02,280.52C552.17,276.45 552.34,272.39 552.64,268.33C552.94,264.26 553.29,260.19 553.84,256.13C554.39,252.06 555.05,247.98 555.95,243.94C556.86,239.85 557.95,235.77 559.27,231.74C560.62,227.64 562.21,223.57 563.98,219.54C565.78,215.44 567.86,211.39 569.99,207.35C572.15,203.25 574.56,199.21 576.85,195.15C579.14,191.08 581.61,187.06 583.74,182.96C585.83,178.93 587.97,174.89 589.51,170.76C591,166.76 592.33,162.67 592.89,158.57C593.44,154.54 593.51,150.39 592.92,146.37C592.32,142.26 590.94,138.15 589.25,134.18C587.48,130.01 584.94,125.98 582.39,121.98C579.74,117.84 576.57,113.83 573.59,109.78C570.58,105.7 567.34,101.69 564.42,97.59C561.56,93.56 558.69,89.52 556.23,85.39C553.85,81.39 551.65,77.33 549.83,73.2C548.06,69.19 546.61,65.1 545.42,61Q544.25,56.97 542.72,48.81L537.28,48.81Q535.75,56.97 534.58,61C533.39,65.1 531.94,69.19 530.17,73.2C528.35,77.33 526.15,81.39 523.77,85.39C521.31,89.52 518.44,93.56 515.58,97.59C512.66,101.69 509.42,105.7 506.41,109.78C503.43,113.83 500.26,117.84 497.61,121.98C495.06,125.98 492.52,130.01 490.75,134.18C489.06,138.15 487.68,142.26 487.08,146.37C486.49,150.39 486.56,154.54 487.11,158.57C487.67,162.67 489,166.76 490.49,170.76C492.03,174.89 494.17,178.93 496.26,182.96C498.39,187.06 500.86,191.08 503.15,195.15C505.44,199.21 507.85,203.25 510.01,207.35C512.14,211.39 514.22,215.44 516.02,219.54C517.79,223.57 519.38,227.64 520.73,231.74C522.05,235.77 523.14,239.85 524.05,243.94C524.95,247.98 525.61,252.06 526.16,256.13C526.71,260.19 527.06,264.26 527.36,268.33C527.66,272.39 527.83,276.45 527.98,280.52C528.13,284.58 528.2,288.65 528.26,292.72C528.32,296.78 528.34,300.85 528.34,304.91C528.34,308.98 528.31,313.04 528.26,317.11C528.21,321.18 528.13,325.24 528.06,329.31C527.99,333.37 527.88,337.44 527.82,341.5C527.76,345.57 527.69,349.63 527.71,353.7C527.73,357.76 527.77,361.83 527.91,365.89C528.05,369.96 528.26,374.03 528.53,378.09C528.8,382.16 529.16,386.22 529.55,390.28C529.94,394.35 530.4,398.42 530.85,402.48C531.3,406.55 531.8,410.61 532.27,414.67C532.74,418.74 533.21,422.8 533.66,426.87C534.11,430.94 534.54,435 534.95,439.07C535.36,443.13 535.76,447.19 536.13,451.26C536.5,455.32 536.86,459.39 537.18,463.46C537.5,467.52 537.8,471.58 538.07,475.65C538.34,479.71 538.58,483.78 538.78,487.85C538.98,491.91 539.15,495.98 539.29,500.04Q539.43,504.11 539.62,512.24Z" style="vector-effect: non-scaling-stroke; stroke-width: 2px; stroke: rgb(239, 85, 59); stroke-opacity: 1; fill: rgb(239, 85, 59); fill-opacity: 0.5;"/><path class="box" d="M94.77,211.74H121.23M94.77,351.76H121.23V174.9H94.77ZM108,351.76V467.21M108,174.9V152.79" style="vector-effect: non-scaling-stroke; stroke-width: 2px; stroke: rgb(239, 85, 59); stroke-opacity: 1; fill: rgb(239, 85, 59); fill-opacity: 0.5;"/><path class="box" d="M310.77,177.35H337.23M310.77,260.87H337.23V142.96H310.77ZM324,260.87V398.43M324,142.96V123.31" style="vector-effect: non-scaling-stroke; stroke-width: 2px; stroke: rgb(239, 85, 59); stroke-opacity: 1; fill: rgb(239, 85, 59); fill-opacity: 0.5;"/><path class="box" d="M526.77,172.44H553.23M526.77,263.33H553.23V142.96H526.77ZM540,263.33V437.73M540,142.96V123.31" style="vector-effect: non-scaling-stroke; stroke-width: 2px; stroke: rgb(239, 85, 59); stroke-opacity: 1; fill: rgb(239, 85, 59); fill-opacity: 0.5;"/><path class="mean" d="M94.77,264.61H121.23" style="fill: none; vector-effect: non-scaling-stroke; stroke-width: 2px; stroke-dasharray: 4px, 2px; stroke: rgb(239, 85, 59); stroke-opacity: 1;"/><path class="mean" d="M310.77,207.19H337.23" style="fill: none; vector-effect: non-scaling-stroke; stroke-width: 2px; stroke-dasharray: 4px, 2px; stroke: rgb(239, 85, 59); stroke-opacity: 1;"/><path class="mean" d="M526.77,206.6H553.23" style="fill: none; vector-effect: non-scaling-stroke; stroke-width: 2px; stroke-dasharray: 4px, 2px; stroke: rgb(239, 85, 59); stroke-opacity: 1;"/></g></g></g><g class="overplot"/><path class="xlines-above crisp" d="M0,0" style="fill: none;"/><path class="ylines-above crisp" d="M0,0" style="fill: none;"/><g class="overlines-above"/><g class="xaxislayer-above"><g class="x2tick"><text text-anchor="middle" x="0" y="733" transform="translate(980.0000000000001,0)" style="font-family: 'Open Sans', verdana, arial, sans-serif; font-size: 12px; fill: rgb(42, 63, 95); fill-opacity: 1; white-space: pre; opacity: 1;">&#60;=1</text></g><g class="x2tick"><text text-anchor="middle" x="0" y="733" transform="translate(1196,0)" style="font-family: 'Open Sans', verdana, arial, sans-serif; font-size: 12px; fill: rgb(42, 63, 95); fill-opacity: 1; white-space: pre; opacity: 1;">(1, 2]</text></g><g class="x2tick"><text text-anchor="middle" x="0" y="733" transform="translate(1412,0)" style="font-family: 'Open Sans', verdana, arial, sans-serif; font-size: 12px; fill: rgb(42, 63, 95); fill-opacity: 1; white-space: pre; opacity: 1;">>2</text></g></g><g class="yaxislayer-above"><g class="y2tick"><text text-anchor="end" x="871.0000000000001" y="4.199999999999999" transform="translate(0,655.64)" style="font-family: 'Open Sans', verdana, arial, sans-serif; font-size: 12px; fill: rgb(42, 63, 95); fill-opacity: 1; white-space: pre; opacity: 1;">1980</text></g><g class="y2tick"><text text-anchor="end" x="871.0000000000001" y="4.199999999999999" style="font-family: 'Open Sans', verdana, arial, sans-serif; font-size: 12px; fill: rgb(42, 63, 95); fill-opacity: 1; white-space: pre; opacity: 1;" transform="translate(0,557.39)">1990</text></g><g class="y2tick"><text text-anchor="end" x="871.0000000000001" y="4.199999999999999" style="font-family: 'Open Sans', verdana, arial, sans-serif; font-size: 12px; fill: rgb(42, 63, 95); fill-opacity: 1; white-space: pre; opacity: 1;" transform="translate(0,459.13)">2000</text></g><g class="y2tick"><text text-anchor="end" x="871.0000000000001" y="4.199999999999999" style="font-family: 'Open Sans', verdana, arial, sans-serif; font-size: 12px; fill: rgb(42, 63, 95); fill-opacity: 1; white-space: pre; opacity: 1;" transform="translate(0,360.87)">2010</text></g><g class="y2tick"><text text-anchor="end" x="871.0000000000001" y="4.199999999999999" style="font-family: 'Open Sans', verdana, arial, sans-serif; font-size: 12px; fill: rgb(42, 63, 95); fill-opacity: 1; white-space: pre; opacity: 1;" transform="translate(0,262.61)">2020</text></g><g class="y2tick"><text text-anchor="end" x="871.0000000000001" y="4.199999999999999" style="font-family: 'Open Sans', verdana, arial, sans-serif; font-size: 12px; fill: rgb(42, 63, 95); fill-opacity: 1; white-space: pre; opacity: 1;" transform="translate(0,164.36)">2030</text></g></g><g class="overaxes-above"/></g></g><g class="polarlayer"/><g class="smithlayer"/><g class="ternarylayer"/><g class="geolayer"/><g class="funnelarealayer"/><g class="pielayer"/><g class="iciclelayer"/><g class="treemaplayer"/><g class="sunburstlayer"/><g class="glimages"/><defs id="topdefs-20a4f5"><g class="clips"/></defs><g class="layer-above"><g class="imagelayer"/><g class="shapelayer"/></g><g class="infolayer"><g class="g-gtitle"><text class="gtitle" x="80" y="50" text-anchor="start" dy="0em" style="font-family: 'Open Sans', verdana, arial, sans-serif; font-size: 17px; fill: rgb(42, 63, 95); opacity: 1; font-weight: normal; white-space: pre;">publish_year Distributions</text></g><g class="g-xtitle"><text class="xtitle" x="404" y="761.8" text-anchor="middle" style="font-family: 'Open Sans', verdana, arial, sans-serif; font-size: 14px; fill: rgb(42, 63, 95); opacity: 1; font-weight: normal; white-space: pre;">Hardcover over Paperback</text></g><g class="g-x2title"><text class="x2title" x="1196" y="761.8" text-anchor="middle" style="font-family: 'Open Sans', verdana, arial, sans-serif; font-size: 14px; fill: rgb(42, 63, 95); opacity: 1; font-weight: normal; white-space: pre;">Hardcover over Paperback</text></g><g class="g-ytitle"><text class="ytitle" transform="rotate(-90,26.746875000000003,410)" x="26.746875000000003" y="410" text-anchor="middle" style="font-family: 'Open Sans', verdana, arial, sans-serif; font-size: 14px; fill: rgb(42, 63, 95); opacity: 1; font-weight: normal; white-space: pre;">publish_year</text></g><g class="g-y2title"><text class="y2title" transform="rotate(-90,818.746875,410)" x="818.746875" y="410" text-anchor="middle" style="font-family: 'Open Sans', verdana, arial, sans-serif; font-size: 14px; fill: rgb(42, 63, 95); opacity: 1; font-weight: normal; white-space: pre;">publish_year</text></g><g class="annotation" data-index="0" style="opacity: 1;"><g class="annotation-text-g" transform="rotate(0,404,87)"><g class="cursor-pointer" transform="translate(363,74)"><rect class="bg" x="0.5" y="0.5" width="82" height="25" style="stroke-width: 1px; stroke: rgb(0, 0, 0); stroke-opacity: 0; fill: rgb(0, 0, 0); fill-opacity: 0;"/><text class="annotation-text" text-anchor="middle" x="41.296875" y="19" style="font-family: 'Open Sans', verdana, arial, sans-serif; font-size: 16px; fill: rgb(42, 63, 95); fill-opacity: 1; white-space: pre;">Paperback</text></g></g></g><g class="annotation" data-index="1" style="opacity: 1;"><g class="annotation-text-g" transform="rotate(0,1196,87)"><g class="cursor-pointer" transform="translate(1155,74)"><rect class="bg" x="0.5" y="0.5" width="81" height="25" style="stroke-width: 1px; stroke: rgb(0, 0, 0); stroke-opacity: 0; fill: rgb(0, 0, 0); fill-opacity: 0;"/><text class="annotation-text" text-anchor="middle" x="40.921875" y="19" style="font-family: 'Open Sans', verdana, arial, sans-serif; font-size: 16px; fill: rgb(42, 63, 95); fill-opacity: 1; white-space: pre;">Hardcover</text></g></g></g></g></svg>