<svg class="main-svg" xmlns="http://www.w3.org/2000/svg" xmlns:xlink="http://www.w3.org/1999/xlink" width="1600" height="800" style="" viewBox="0 0 1600 800"><rect x="0" y="0" width="1600" height="800" style="fill: rgb(255, 255, 255); fill-opacity: 1;"/><defs id="defs-d18924"><g class="clips"><clipPath id="clipd18924xyplot" class="plotclip"><rect width="648" height="620"/></clipPath><clipPath id="clipd18924x2y2plot" class="plotclip"><rect width="647.9999999999999" height="620"/></clipPath><clipPath class="axesclip" id="clipd18924x"><rect x="80" y="0" width="648" height="800"/></clipPath><clipPath class="axesclip" id="clipd18924y"><rect x="0" y="100" width="1600" height="620"/></clipPath><clipPath class="axesclip" id="clipd18924xy"><rect x="80" y="100" width="648" height="620"/></clipPath><clipPath class="axesclip" id="clipd18924y2"><rect x="0" y="100" width="1600" height="620"/></clipPath><clipPath class="axesclip" id="clipd18924xy2"><rect x="80" y="100" width="648" height="620"/></clipPath><clipPath class="axesclip" id="clipd18924x2"><rect x="872.0000000000001" y="0" width="647.9999999999999" height="800"/></clipPath><clipPath class="axesclip" id="clipd18924x2y"><rect x="872.0000000000001" y="100" width="647.9999999999999" height="620"/></clipPath><clipPath class="axesclip" id="clipd18924x2y2"><rect x="872.0000000000001" y="100" width="647.9999999999999" height="620"/></clipPath></g><g class="gradients"/><g class="patterns"/></defs><g class="bglayer"><rect class="bg" x="80" y="100" width="648" height="620" style="fill: rgb(229, 236, 246); fill-opacity: 1; stroke-width: 0;"/><rect class="bg" x="872.0000000000001" y="100" width="647.9999999999999" height="620" style="fill: rgb(229, 236, 246); fill-opacity: 1; stroke-width: 0;"/></g><g class="layer-below"><g class="imagelayer"/><g class="shapelayer"/></g><g class="cartesianlayer"><g class="subplot xy"><g class="layer-subplot"><g class="shapelayer"/><g class="imagelayer"/></g><g class="minor-gridlayer"><g class="x"/><g class="y"/></g><g class="gridlayer"><g class="x"/><g class="y"><path class="ygrid crisp" transform="translate(0,553.95)" d="M80,0h648" style="stroke: rgb(255, 255, 255); stroke-opacity: 1; stroke-width: 1px;"/><path class="ygrid crisp" transform="translate(0,440.6)" d="M80,0h648" style="stroke: rgb(255, 255, 255); stroke-opacity: 1; stroke-width: 1px;"/><path class="ygrid crisp" transform="translate(0,327.26)" d="M80,0h648" style="stroke: rgb(255, 255, 255); stroke-opacity: 1; stroke-width: 1px;"/><path class="ygrid crisp" transform="translate(0,213.91)" d="M80,0h648" style="stroke: rgb(255, 255, 255); stroke-opacity: 1; stroke-width: 1px;"/></g></g><g class="zerolinelayer"><path class="yzl zl crisp" transform="translate(0,667.3)" d="M80,0h648" style="stroke: rgb(255, 255, 255); stroke-opacity: 1; stroke-width: 2px;"/></g><path class="xlines-below"/><path class="ylines-below"/><g class="overlines-below"/><g class="xaxislayer-below"/><g class="yaxislayer-below"/><g class="overaxes-below"/><g class="plot" transform="translate(80,100)" clip-path="url(#clipd18924xyplot)"><g class="violinlayer mlayer"><g class="trace violins" style="opacity: 1;"><path class="violin" d="M109.11,476.3Q109.7,468.35 110.14,464.38C110.58,460.4 111.12,456.43 111.73,452.47C112.34,448.49 113.08,444.52 113.82,440.55C114.56,436.58 115.42,432.61 116.18,428.64C116.93,424.67 117.75,420.7 118.35,416.72C118.95,412.76 119.5,408.79 119.8,404.81C120.1,400.84 120.22,396.86 120.18,392.89C120.14,388.92 119.84,384.95 119.54,380.98C119.23,377 118.71,373.03 118.35,369.06C117.99,365.09 117.53,361.12 117.37,357.15C117.21,353.18 117.13,349.19 117.4,345.23C117.67,341.25 118.19,337.26 118.99,333.32C119.81,329.32 120.96,325.34 122.28,321.4C123.62,317.39 125.3,313.44 126.99,309.49C128.7,305.49 130.65,301.54 132.46,297.57C134.27,293.6 136.19,289.66 137.85,285.66C139.49,281.71 141.09,277.75 142.35,273.74C143.58,269.8 144.64,265.83 145.35,261.83C146.05,257.88 146.46,253.89 146.59,249.91C146.72,245.94 146.52,241.96 146.16,238C145.8,234.02 145.14,230.04 144.42,226.08C143.7,222.1 142.76,218.13 141.82,214.17C140.87,210.19 139.81,206.22 138.74,202.25C137.67,198.27 136.54,194.31 135.4,190.34C134.26,186.36 133.07,182.39 131.88,178.42C130.69,174.45 129.46,170.48 128.27,166.51C127.08,162.54 125.86,158.57 124.72,154.59C123.58,150.62 122.46,146.66 121.43,142.68C120.4,138.72 119.42,134.74 118.52,130.76C117.63,126.8 116.81,122.83 116.06,118.85C115.31,114.88 114.64,110.91 114.01,106.93C113.39,102.96 112.82,98.99 112.31,95.02C111.8,91.05 111.34,87.08 110.93,83.1C110.52,79.13 110.16,75.16 109.85,71.19C109.54,67.22 109.29,63.24 109.08,59.27Q108.87,55.3 108.57,47.36L107.43,47.36Q107.13,55.3 106.92,59.27C106.71,63.24 106.46,67.22 106.15,71.19C105.84,75.16 105.48,79.13 105.07,83.1C104.66,87.08 104.2,91.05 103.69,95.02C103.18,98.99 102.61,102.96 101.99,106.93C101.36,110.91 100.69,114.88 99.94,118.85C99.19,122.83 98.37,126.8 97.48,130.76C96.58,134.74 95.6,138.72 94.57,142.68C93.54,146.66 92.42,150.62 91.28,154.59C90.14,158.57 88.92,162.54 87.73,166.51C86.54,170.48 85.31,174.45 84.12,178.42C82.93,182.39 81.74,186.36 80.6,190.34C79.46,194.31 78.33,198.27 77.26,202.25C76.19,206.22 75.13,210.19 74.18,214.17C73.24,218.13 72.3,222.1 71.58,226.08C70.86,230.04 70.2,234.02 69.84,238C69.48,241.96 69.28,245.94 69.41,249.91C69.54,253.89 69.95,257.88 70.65,261.83C71.36,265.83 72.42,269.8 73.65,273.74C74.91,277.75 76.51,281.71 78.15,285.66C79.81,289.66 81.73,293.6 83.54,297.57C85.35,301.54 87.3,305.49 89.01,309.49C90.7,313.44 92.38,317.39 93.72,321.4C95.04,325.34 96.19,329.32 97.01,333.32C97.81,337.26 98.33,341.25 98.6,345.23C98.87,349.19 98.79,353.18 98.63,357.15C98.47,361.12 98.01,365.09 97.65,369.06C97.29,373.03 96.77,377 96.46,380.98C96.16,384.95 95.86,388.92 95.82,392.89C95.78,396.86 95.9,400.84 96.2,404.81C96.5,408.79 97.05,412.76 97.65,416.72C98.25,420.7 99.07,424.67 99.82,428.64C100.58,432.61 101.44,436.58 102.18,440.55C102.92,444.52 103.66,448.49 104.27,452.47C104.88,456.43 105.42,460.4 105.86,464.38Q106.3,468.35 106.89,476.3Z" style="vector-effect: non-scaling-stroke; stroke-width: 2px; stroke: rgb(99, 110, 250); stroke-opacity: 1; fill: rgb(99, 110, 250); fill-opacity: 0.5;"/><path class="violin" d="M324.41,536.37Q324.64,530.76 324.82,527.95C325,525.14 325.22,522.33 325.51,519.53C325.8,516.72 326.14,513.92 326.54,511.12C326.94,508.31 327.41,505.5 327.92,502.7C328.43,499.89 329.01,497.08 329.59,494.28C330.17,491.47 330.8,488.67 331.4,485.87C332,483.06 332.61,480.26 333.19,477.45C333.77,474.64 334.32,471.84 334.89,469.03C335.46,466.23 335.97,463.42 336.61,460.62C337.25,457.81 337.88,454.98 338.74,452.2C339.62,449.37 340.59,446.54 341.84,443.78C343.13,440.93 344.67,438.12 346.39,435.37C348.19,432.51 350.31,429.72 352.46,426.95C354.68,424.1 357.17,421.35 359.52,418.54C361.87,415.74 364.39,412.98 366.56,410.12C368.65,407.36 370.75,404.59 372.34,401.7C373.84,398.97 375.18,396.15 375.94,393.29C376.67,390.54 377,387.67 376.92,384.87C376.84,382.06 376.23,379.21 375.44,376.45C374.62,373.6 373.35,370.81 372.04,368.04C370.7,365.2 369.05,362.41 367.47,359.62C365.87,356.8 364.11,354.01 362.48,351.2C360.85,348.4 359.21,345.61 357.69,342.79C356.19,340 354.76,337.2 353.44,334.37C352.14,331.58 350.93,328.77 349.8,325.95C348.68,323.16 347.66,320.35 346.68,317.54C345.7,314.74 344.79,311.93 343.91,309.12C343.04,306.32 342.21,303.51 341.42,300.7C340.63,297.9 339.88,295.1 339.18,292.29C338.48,289.49 337.83,286.68 337.24,283.87C336.65,281.07 336.12,278.26 335.63,275.45C335.15,272.65 334.71,269.85 334.33,267.04C333.95,264.24 333.63,261.43 333.33,258.62C333.04,255.82 332.79,253.01 332.56,250.2C332.33,247.4 332.15,244.59 331.96,241.79C331.77,238.98 331.6,236.18 331.42,233.37C331.24,230.56 331.08,227.76 330.9,224.95C330.72,222.15 330.54,219.34 330.35,216.54C330.16,213.73 329.96,210.93 329.75,208.12C329.54,205.31 329.33,202.51 329.1,199.7C328.87,196.9 328.63,194.09 328.39,191.29C328.14,188.48 327.89,185.68 327.63,182.87C327.37,180.07 327.1,177.26 326.85,174.46C326.59,171.65 326.34,168.85 326.1,166.04C325.87,163.23 325.64,160.43 325.44,157.62C325.24,154.82 325.06,152.01 324.91,149.21C324.76,146.4 324.63,143.6 324.52,140.79Q324.41,137.98 324.27,132.37L323.73,132.37Q323.59,137.98 323.48,140.79C323.37,143.6 323.24,146.4 323.09,149.21C322.94,152.01 322.76,154.82 322.56,157.62C322.36,160.43 322.13,163.23 321.9,166.04C321.66,168.85 321.41,171.65 321.15,174.46C320.9,177.26 320.63,180.07 320.37,182.87C320.11,185.68 319.86,188.48 319.61,191.29C319.37,194.09 319.13,196.9 318.9,199.7C318.67,202.51 318.46,205.31 318.25,208.12C318.04,210.93 317.84,213.73 317.65,216.54C317.46,219.34 317.28,222.15 317.1,224.95C316.92,227.76 316.76,230.56 316.58,233.37C316.4,236.18 316.23,238.98 316.04,241.79C315.85,244.59 315.67,247.4 315.44,250.2C315.21,253.01 314.96,255.82 314.67,258.62C314.37,261.43 314.05,264.24 313.67,267.04C313.29,269.85 312.85,272.65 312.37,275.45C311.88,278.26 311.35,281.07 310.76,283.87C310.17,286.68 309.52,289.49 308.82,292.29C308.12,295.1 307.37,297.9 306.58,300.7C305.79,303.51 304.96,306.32 304.09,309.12C303.21,311.93 302.3,314.74 301.32,317.54C300.34,320.35 299.32,323.16 298.2,325.95C297.07,328.77 295.86,331.58 294.56,334.37C293.24,337.2 291.81,340 290.31,342.79C288.79,345.61 287.15,348.4 285.52,351.2C283.89,354.01 282.13,356.8 280.53,359.62C278.95,362.41 277.3,365.2 275.96,368.04C274.65,370.81 273.38,373.6 272.56,376.45C271.77,379.21 271.16,382.06 271.08,384.87C271,387.67 271.33,390.54 272.06,393.29C272.82,396.15 274.16,398.97 275.66,401.7C277.25,404.59 279.35,407.36 281.44,410.12C283.61,412.98 286.13,415.74 288.48,418.54C290.83,421.35 293.32,424.1 295.54,426.95C297.69,429.72 299.81,432.51 301.61,435.37C303.33,438.12 304.87,440.93 306.16,443.78C307.41,446.54 308.38,449.37 309.26,452.2C310.12,454.98 310.75,457.81 311.39,460.62C312.03,463.42 312.54,466.23 313.11,469.03C313.68,471.84 314.23,474.64 314.81,477.45C315.39,480.26 316,483.06 316.6,485.87C317.2,488.67 317.83,491.47 318.41,494.28C318.99,497.08 319.57,499.89 320.08,502.7C320.59,505.5 321.06,508.31 321.46,511.12C321.86,513.92 322.2,516.72 322.49,519.53C322.78,522.33 323,525.14 323.18,527.95Q323.36,530.76 323.59,536.37Z" style="vector-effect: non-scaling-stroke; stroke-width: 2px; stroke: rgb(99, 110, 250); stroke-opacity: 1; fill: rgb(99, 110, 250); fill-opacity: 0.5;"/><path class="violin" d="M540.21,589Q540.35,580.91 540.47,576.87C540.59,572.83 540.72,568.78 540.94,564.74C541.16,560.7 541.41,556.65 541.78,552.61C542.15,548.56 542.58,544.52 543.15,540.48C543.72,536.43 544.38,532.38 545.19,528.35C546,524.29 546.96,520.25 548,516.22C549.05,512.16 550.25,508.12 551.48,504.09C552.71,500.04 554.08,496 555.38,491.96C556.68,487.92 558.05,483.88 559.26,479.83C560.47,475.8 561.66,471.76 562.65,467.7C563.64,463.67 564.52,459.63 565.21,455.57C565.89,451.54 566.4,447.48 566.76,443.43C567.12,439.39 567.29,435.34 567.36,431.3C567.43,427.26 567.32,423.21 567.17,419.17C567.02,415.12 566.73,411.08 566.43,407.04C566.13,402.99 565.75,398.95 565.38,394.91C565.01,390.87 564.59,386.82 564.23,382.78C563.87,378.74 563.49,374.7 563.2,370.65C562.91,366.61 562.66,362.56 562.48,358.52C562.3,354.48 562.2,350.43 562.13,346.39C562.06,342.35 562.08,338.3 562.07,334.26C562.06,330.22 562.11,326.17 562.07,322.13C562.03,318.09 562,314.04 561.84,310C561.68,305.96 561.47,301.91 561.13,297.87C560.79,293.82 560.34,289.78 559.81,285.74C559.28,281.69 558.63,277.65 557.97,273.61C557.3,269.56 556.54,265.52 555.82,261.48C555.1,257.44 554.33,253.4 553.63,249.35C552.93,245.31 552.24,241.27 551.63,237.22C551.02,233.18 550.47,229.14 549.98,225.09C549.49,221.05 549.07,217.01 548.7,212.96C548.33,208.92 548.03,204.87 547.75,200.83C547.47,196.79 547.24,192.74 547,188.7C546.76,184.66 546.55,180.61 546.32,176.57C546.09,172.52 545.88,168.48 545.64,164.43C545.41,160.39 545.16,156.34 544.91,152.3C544.66,148.26 544.41,144.21 544.16,140.17C543.91,136.13 543.67,132.08 543.43,128.04C543.2,124 542.97,119.95 542.75,115.91C542.53,111.87 542.32,107.82 542.12,103.78C541.92,99.74 541.73,95.69 541.56,91.65C541.39,87.61 541.23,83.56 541.09,79.52C540.95,75.48 540.82,71.43 540.71,67.39C540.6,63.35 540.51,59.3 540.43,55.26C540.35,51.22 540.28,47.17 540.23,43.13Q540.18,39.09 540.12,31L539.88,31Q539.82,39.09 539.77,43.13C539.72,47.17 539.65,51.22 539.57,55.26C539.49,59.3 539.4,63.35 539.29,67.39C539.18,71.43 539.05,75.48 538.91,79.52C538.77,83.56 538.61,87.61 538.44,91.65C538.27,95.69 538.08,99.74 537.88,103.78C537.68,107.82 537.47,111.87 537.25,115.91C537.03,119.95 536.8,124 536.57,128.04C536.33,132.08 536.09,136.13 535.84,140.17C535.59,144.21 535.34,148.26 535.09,152.3C534.84,156.34 534.59,160.39 534.36,164.43C534.12,168.48 533.91,172.52 533.68,176.57C533.45,180.61 533.24,184.66 533,188.7C532.76,192.74 532.53,196.79 532.25,200.83C531.97,204.87 531.67,208.92 531.3,212.96C530.93,217.01 530.51,221.05 530.02,225.09C529.53,229.14 528.98,233.18 528.37,237.22C527.76,241.27 527.07,245.31 526.37,249.35C525.67,253.4 524.9,257.44 524.18,261.48C523.46,265.52 522.7,269.56 522.03,273.61C521.37,277.65 520.72,281.69 520.19,285.74C519.66,289.78 519.21,293.82 518.87,297.87C518.53,301.91 518.32,305.96 518.16,310C518,314.04 517.97,318.09 517.93,322.13C517.89,326.17 517.94,330.22 517.93,334.26C517.92,338.3 517.94,342.35 517.87,346.39C517.8,350.43 517.7,354.48 517.52,358.52C517.34,362.56 517.09,366.61 516.8,370.65C516.51,374.7 516.13,378.74 515.77,382.78C515.41,386.82 514.99,390.87 514.62,394.91C514.25,398.95 513.87,402.99 513.57,407.04C513.27,411.08 512.98,415.12 512.83,419.17C512.68,423.21 512.57,427.26 512.64,431.3C512.71,435.34 512.88,439.39 513.24,443.43C513.6,447.48 514.11,451.54 514.79,455.57C515.48,459.63 516.36,463.67 517.35,467.7C518.34,471.76 519.53,475.8 520.74,479.83C521.95,483.88 523.32,487.92 524.62,491.96C525.92,496 527.29,500.04 528.52,504.09C529.75,508.12 530.95,512.16 532,516.22C533.04,520.25 534,524.29 534.81,528.35C535.62,532.38 536.28,536.43 536.85,540.48C537.42,544.52 537.85,548.56 538.22,552.61C538.59,556.65 538.84,560.7 539.06,564.74C539.28,568.78 539.41,572.83 539.53,576.87Q539.65,580.91 539.79,589Z" style="vector-effect: non-scaling-stroke; stroke-width: 2px; stroke: rgb(99, 110, 250); stroke-opacity: 1; fill: rgb(99, 110, 250); fill-opacity: 0.5;"/><path class="box" d="M94.77,250.15H121.23M94.77,289.88H121.23V207.25H94.77ZM108,289.88V404.3M108,207.25V119.35" style="vector-effect: non-scaling-stroke; stroke-width: 2px; stroke: rgb(99, 110, 250); stroke-opacity: 1; fill: rgb(99, 110, 250); fill-opacity: 0.5;"/><path class="box" d="M310.77,374.38H337.23M310.77,402.04H337.23V328.59H310.77ZM324,402.04V485.69M324,328.59V226.12" style="vector-effect: non-scaling-stroke; stroke-width: 2px; stroke: rgb(99, 110, 250); stroke-opacity: 1; fill: rgb(99, 110, 250); fill-opacity: 0.5;"/><path class="box" d="M526.77,367.13H553.23M526.77,436.61H553.23V296.51H526.77ZM540,436.61V515.16M540,296.51V104.84" style="vector-effect: non-scaling-stroke; stroke-width: 2px; stroke: rgb(99, 110, 250); stroke-opacity: 1; fill: rgb(99, 110, 250); fill-opacity: 0.5;"/><path class="mean" d="M94.77,256.12H121.23" style="fill: none; vector-effect: non-scaling-stroke; stroke-width: 2px; stroke-dasharray: 4px, 2px; stroke: rgb(99, 110, 250); stroke-opacity: 1;"/><path class="mean" d="M310.77,364.53H337.23" style="fill: none; vector-effect: non-scaling-stroke; stroke-width: 2px; stroke-dasharray: 4px, 2px; stroke: rgb(99, 110, 250); stroke-opacity: 1;"/><path class="mean" d="M526.77,357.97H553.23" style="fill: none; vector-effect: non-scaling-stroke; stroke-width: 2px; stroke-dasharray: 4px, 2px; stroke: rgb(99, 110, 250); stroke-opacity: 1;"/></g></g></g><g class="overplot"/><path class="xlines-above crisp" d="M0,0" style="fill: none;"/><path class="ylines-above crisp" d="M0,0" style="fill: none;"/><g class="overlines-above"/><g class="xaxislayer-above"><g class="xtick"><text text-anchor="middle" x="0" y="733" transform="translate(188,0)" style="font-family: 'Open Sans', verdana, arial, sans-serif; font-size: 12px; fill: rgb(42, 63, 95); fill-opacity: 1; white-space: pre; opacity: 1;">&#60;=1</text></g><g class="xtick"><text text-anchor="middle" x="0" y="733" transform="translate(404,0)" style="font-family: 'Open Sans', verdana, arial, sans-serif; font-size: 12px; fill: rgb(42, 63, 95); fill-opacity: 1; white-space: pre; opacity: 1;">(1, 2]</text></g><g class="xtick"><text text-anchor="middle" x="0" y="733" transform="translate(620,0)" style="font-family: 'Open Sans', verdana, arial, sans-serif; font-size: 12px; fill: rgb(42, 63, 95); fill-opacity: 1; white-space: pre; opacity: 1;">>2</text></g></g><g class="yaxislayer-above"><g class="ytick"><text text-anchor="end" x="79" y="4.199999999999999" transform="translate(0,667.3)" style="font-family: 'Open Sans', verdana, arial, sans-serif; font-size: 12px; fill: rgb(42, 63, 95); fill-opacity: 1; white-space: pre; opacity: 1;">0</text></g><g class="ytick"><text text-anchor="end" x="79" y="4.199999999999999" style="font-family: 'Open Sans', verdana, arial, sans-serif; font-size: 12px; fill: rgb(42, 63, 95); fill-opacity: 1; white-space: pre; opacity: 1;" transform="translate(0,553.95)">5</text></g><g class="ytick"><text text-anchor="end" x="79" y="4.199999999999999" style="font-family: 'Open Sans', verdana, arial, sans-serif; font-size: 12px; fill: rgb(42, 63, 95); fill-opacity: 1; white-space: pre; opacity: 1;" transform="translate(0,440.6)">10</text></g><g class="ytick"><text text-anchor="end" x="79" y="4.199999999999999" style="font-family: 'Open Sans', verdana, arial, sans-serif; font-size: 12px; fill: rgb(42, 63, 95); fill-opacity: 1; white-space: pre; opacity: 1;" transform="translate(0,327.26)">15</text></g><g class="ytick"><text text-anchor="end" x="79" y="4.199999999999999" style="font-family: 'Open Sans', verdana, arial, sans-serif; font-size: 12px; fill: rgb(42, 63, 95); fill-opacity: 1; white-space: pre; opacity: 1;" transform="translate(0,213.91)">20</text></g><g class="ytick"><text text-anchor="end" x="79" y="4.199999999999999" style="font-family: 'Open Sans', verdana, arial, sans-serif; font-size: 12px; fill: rgb(42, 63, 95); fill-opacity: 1; white-space: pre; opacity: 1;" transform="translate(0,100.56)">25</text></g></g><g class="overaxes-above"/></g><g class="subplot x2y2"><g class="layer-subplot"><g class="shapelayer"/><g class="imagelayer"/></g><g class="minor-gridlayer"><g class="x2"/><g class="y2"/></g><g class="gridlayer"><g class="x2"/><g class="y2"><path class="y2grid crisp" transform="translate(0,558.3)" d="M872.0000000000001,0h647.9999999999999" style="stroke: rgb(255, 255, 255); stroke-opacity: 1; stroke-width: 1px;"/><path class="y2grid crisp" transform="translate(0,471.32)" d="M872.0000000000001,0h647.9999999999999" style="stroke: rgb(255, 255, 255); stroke-opacity: 1; stroke-width: 1px;"/><path class="y2grid crisp" transform="translate(0,384.34)" d="M872.0000000000001,0h647.9999999999999" style="stroke: rgb(255, 255, 255); stroke-opacity: 1; stroke-width: 1px;"/><path class="y2grid crisp" transform="translate(0,297.36)" d="M872.0000000000001,0h647.9999999999999" style="stroke: rgb(255, 255, 255); stroke-opacity: 1; stroke-width: 1px;"/><path class="y2grid crisp" transform="translate(0,210.38)" d="M872.0000000000001,0h647.9999999999999" style="stroke: rgb(255, 255, 255); stroke-opacity: 1; stroke-width: 1px;"/><path class="y2grid crisp" transform="translate(0,123.4)" d="M872.0000000000001,0h647.9999999999999" style="stroke: rgb(255, 255, 255); stroke-opacity: 1; stroke-width: 1px;"/></g></g><g class="zerolinelayer"><path class="y2zl zl crisp" transform="translate(0,645.29)" d="M872.0000000000001,0h647.9999999999999" style="stroke: rgb(255, 255, 255); stroke-opacity: 1; stroke-width: 2px;"/></g><path class="xlines-below"/><path class="ylines-below"/><g class="overlines-below"/><g class="xaxislayer-below"/><g class="yaxislayer-below"/><g class="overaxes-below"/><g class="plot" transform="translate(872.0000000000001,100)" clip-path="url(#clipd18924x2y2plot)"><g class="violinlayer mlayer"><g class="trace violins" style="opacity: 1;"><path class="violin" d="M110.22,469.13Q111.5,463.71 112.48,461.06C113.49,458.33 114.72,455.63 116.21,453C117.77,450.25 119.65,447.55 121.69,444.93C123.84,442.17 126.32,439.51 128.85,436.87C131.47,434.13 134.37,431.49 137.15,428.8C139.94,426.11 142.89,423.46 145.55,420.73C148.12,418.09 150.74,415.45 152.88,412.67C154.89,410.06 156.78,407.38 158.11,404.6C159.36,401.99 160.29,399.26 160.75,396.54C161.2,393.88 161.17,391.15 160.92,388.47C160.67,385.77 159.97,383.07 159.23,380.41C158.48,377.7 157.44,375.02 156.44,372.34C155.43,369.64 154.29,366.96 153.17,364.28C152.05,361.59 150.9,358.89 149.72,356.21C148.54,353.52 147.34,350.83 146.09,348.15C144.83,345.45 143.53,342.76 142.2,340.08C140.87,337.38 139.47,334.7 138.1,332.01C136.73,329.32 135.31,326.65 133.98,323.95C132.66,321.27 131.35,318.59 130.17,315.88C129,313.21 127.89,310.53 126.92,307.82C125.96,305.15 125.11,302.45 124.37,299.75C123.64,297.08 123.03,294.39 122.5,291.69C121.97,289.01 121.56,286.31 121.2,283.62C120.84,280.94 120.59,278.25 120.35,275.56C120.12,272.87 119.96,270.18 119.79,267.49C119.62,264.8 119.5,262.11 119.34,259.42C119.18,256.73 119.02,254.05 118.81,251.36C118.6,248.67 118.36,245.98 118.08,243.29C117.79,240.6 117.46,237.92 117.1,235.23C116.74,232.54 116.33,229.85 115.91,227.16C115.49,224.47 115.03,221.79 114.58,219.1C114.13,216.41 113.66,213.72 113.21,211.03C112.76,208.34 112.29,205.66 111.87,202.97C111.45,200.28 111.04,197.59 110.68,194.9C110.32,192.21 109.99,189.52 109.71,186.83C109.43,184.14 109.2,181.46 109,178.77Q108.8,176.08 108.53,170.7L107.47,170.7Q107.2,176.08 107,178.77C106.8,181.46 106.57,184.14 106.29,186.83C106.01,189.52 105.68,192.21 105.32,194.9C104.96,197.59 104.55,200.28 104.13,202.97C103.71,205.66 103.24,208.34 102.79,211.03C102.34,213.72 101.87,216.41 101.42,219.1C100.97,221.79 100.51,224.47 100.09,227.16C99.67,229.85 99.26,232.54 98.9,235.23C98.54,237.92 98.21,240.6 97.92,243.29C97.64,245.98 97.4,248.67 97.19,251.36C96.98,254.05 96.82,256.73 96.66,259.42C96.5,262.11 96.38,264.8 96.21,267.49C96.04,270.18 95.88,272.87 95.65,275.56C95.41,278.25 95.16,280.94 94.8,283.62C94.44,286.31 94.03,289.01 93.5,291.69C92.97,294.39 92.36,297.08 91.63,299.75C90.89,302.45 90.04,305.15 89.08,307.82C88.11,310.53 87,313.21 85.83,315.88C84.65,318.59 83.34,321.27 82.02,323.95C80.69,326.65 79.27,329.32 77.9,332.01C76.53,334.7 75.13,337.38 73.8,340.08C72.47,342.76 71.17,345.45 69.91,348.15C68.66,350.83 67.46,353.52 66.28,356.21C65.1,358.89 63.95,361.59 62.83,364.28C61.71,366.96 60.57,369.64 59.56,372.34C58.56,375.02 57.52,377.7 56.77,380.41C56.03,383.07 55.33,385.77 55.08,388.47C54.83,391.15 54.8,393.88 55.25,396.54C55.71,399.26 56.64,401.99 57.89,404.6C59.22,407.38 61.11,410.06 63.12,412.67C65.26,415.45 67.88,418.09 70.45,420.73C73.11,423.46 76.06,426.11 78.85,428.8C81.63,431.49 84.53,434.13 87.15,436.87C89.68,439.51 92.16,442.17 94.31,444.93C96.35,447.55 98.23,450.25 99.79,453C101.28,455.63 102.51,458.33 103.52,461.06Q104.5,463.71 105.78,469.13Z" style="vector-effect: non-scaling-stroke; stroke-width: 2px; stroke: rgb(239, 85, 59); stroke-opacity: 1; fill: rgb(239, 85, 59); fill-opacity: 0.5;"/><path class="violin" d="M324.18,531.95Q324.28,523.94 324.35,519.93C324.43,515.92 324.52,511.92 324.63,507.91C324.75,503.9 324.87,499.89 325.04,495.88C325.21,491.87 325.4,487.87 325.64,483.86C325.88,479.85 326.14,475.85 326.47,471.84C326.8,467.83 327.17,463.81 327.64,459.81C328.11,455.8 328.63,451.79 329.27,447.79C329.92,443.78 330.65,439.77 331.51,435.77C332.38,431.75 333.37,427.73 334.47,423.74C335.58,419.72 336.84,415.71 338.17,411.72C339.51,407.7 341.01,403.7 342.51,399.7C344.02,395.68 345.65,391.68 347.2,387.67C348.75,383.66 350.37,379.67 351.8,375.65C353.22,371.66 354.65,367.66 355.78,363.62C356.9,359.64 357.91,355.63 358.57,351.6C359.23,347.61 359.66,343.59 359.75,339.58C359.84,335.57 359.61,331.54 359.14,327.55C358.67,323.53 357.84,319.52 356.92,315.53C355.99,311.5 354.76,307.51 353.55,303.51C352.33,299.49 350.93,295.49 349.65,291.48C348.37,287.47 347.02,283.48 345.85,279.46C344.69,275.47 343.58,271.46 342.67,267.44C341.76,263.45 340.98,259.43 340.38,255.41C339.78,251.41 339.37,247.4 339.07,243.39C338.77,239.39 338.66,235.38 338.58,231.37C338.5,227.36 338.57,223.35 338.58,219.34C338.59,215.33 338.66,211.33 338.63,207.32C338.6,203.31 338.54,199.3 338.37,195.29C338.2,191.28 337.93,187.27 337.59,183.27C337.25,179.26 336.8,175.25 336.33,171.25C335.86,167.24 335.3,163.23 334.77,159.22C334.23,155.21 333.66,151.21 333.12,147.2C332.58,143.19 332.05,139.19 331.54,135.18C331.03,131.17 330.53,127.16 330.06,123.15C329.59,119.14 329.13,115.14 328.7,111.13C328.27,107.12 327.86,103.12 327.48,99.11C327.1,95.1 326.74,91.09 326.42,87.08C326.1,83.07 325.82,79.07 325.57,75.06C325.32,71.05 325.11,67.04 324.93,63.03C324.75,59.02 324.62,55.02 324.51,51.01Q324.4,47 324.25,38.99L323.75,38.99Q323.6,47 323.49,51.01C323.38,55.02 323.25,59.02 323.07,63.03C322.89,67.04 322.68,71.05 322.43,75.06C322.18,79.07 321.9,83.07 321.58,87.08C321.26,91.09 320.9,95.1 320.52,99.11C320.14,103.12 319.73,107.12 319.3,111.13C318.87,115.14 318.41,119.14 317.94,123.15C317.47,127.16 316.97,131.17 316.46,135.18C315.95,139.19 315.42,143.19 314.88,147.2C314.34,151.21 313.77,155.21 313.23,159.22C312.7,163.23 312.14,167.24 311.67,171.25C311.2,175.25 310.75,179.26 310.41,183.27C310.07,187.27 309.8,191.28 309.63,195.29C309.46,199.3 309.4,203.31 309.37,207.32C309.34,211.33 309.41,215.33 309.42,219.34C309.43,223.35 309.5,227.36 309.42,231.37C309.34,235.38 309.23,239.39 308.93,243.39C308.63,247.4 308.22,251.41 307.62,255.41C307.02,259.43 306.24,263.45 305.33,267.44C304.42,271.46 303.31,275.47 302.15,279.46C300.98,283.48 299.63,287.47 298.35,291.48C297.07,295.49 295.67,299.49 294.45,303.51C293.24,307.51 292.01,311.5 291.08,315.53C290.16,319.52 289.33,323.53 288.86,327.55C288.39,331.54 288.16,335.57 288.25,339.58C288.34,343.59 288.77,347.61 289.43,351.6C290.09,355.63 291.1,359.64 292.22,363.62C293.35,367.66 294.78,371.66 296.2,375.65C297.63,379.67 299.25,383.66 300.8,387.67C302.35,391.68 303.98,395.68 305.49,399.7C306.99,403.7 308.49,407.7 309.83,411.72C311.16,415.71 312.42,419.72 313.53,423.74C314.63,427.73 315.62,431.75 316.49,435.77C317.35,439.77 318.08,443.78 318.73,447.79C319.37,451.79 319.89,455.8 320.36,459.81C320.83,463.81 321.2,467.83 321.53,471.84C321.86,475.85 322.12,479.85 322.36,483.86C322.6,487.87 322.79,491.87 322.96,495.88C323.13,499.89 323.25,503.9 323.37,507.91C323.48,511.92 323.57,515.92 323.65,519.93Q323.72,523.94 323.82,531.95Z" style="vector-effect: non-scaling-stroke; stroke-width: 2px; stroke: rgb(239, 85, 59); stroke-opacity: 1; fill: rgb(239, 85, 59); fill-opacity: 0.5;"/><path class="violin" d="M540.12,589Q540.18,580.35 540.23,576.02C540.28,571.7 540.33,567.37 540.41,563.05C540.49,558.72 540.58,554.4 540.7,550.07C540.82,545.74 540.94,541.42 541.11,537.09C541.27,532.77 541.46,528.44 541.69,524.12C541.92,519.79 542.17,515.47 542.47,511.14C542.77,506.81 543.1,502.48 543.49,498.16C543.88,493.83 544.31,489.51 544.79,485.19C545.27,480.86 545.8,476.53 546.38,472.21C546.96,467.88 547.6,463.55 548.28,459.23C548.96,454.9 549.69,450.58 550.45,446.26C551.21,441.93 552.02,437.6 552.84,433.28C553.66,428.95 554.51,424.63 555.36,420.3C556.2,415.98 557.08,411.66 557.91,407.33C558.74,403.01 559.57,398.68 560.35,394.35C561.12,390.03 561.88,385.7 562.56,381.37C563.24,377.05 563.89,372.73 564.44,368.4C564.99,364.08 565.48,359.75 565.88,355.42C566.28,351.1 566.6,346.77 566.83,342.44C567.06,338.12 567.2,333.79 567.26,329.47C567.32,325.14 567.28,320.82 567.16,316.49C567.04,312.16 566.82,307.83 566.51,303.51C566.19,299.18 565.78,294.85 565.27,290.53C564.76,286.2 564.14,281.88 563.44,277.56C562.74,273.23 561.91,268.9 561.05,264.58C560.19,260.25 559.22,255.92 558.28,251.6C557.34,247.27 556.32,242.96 555.41,238.63C554.5,234.31 553.57,229.99 552.8,225.65C552.03,221.33 551.32,217 550.78,212.67C550.24,208.35 549.84,204.03 549.57,199.7C549.3,195.38 549.19,191.05 549.15,186.72C549.11,182.39 549.22,178.07 549.32,173.74C549.42,169.42 549.62,165.09 549.73,160.77C549.84,156.44 549.97,152.12 549.98,147.79C549.99,143.46 549.94,139.13 549.78,134.81C549.62,130.48 549.34,126.16 549,121.84C548.65,117.51 548.19,113.18 547.71,108.86C547.23,104.53 546.65,100.21 546.11,95.88C545.57,91.56 544.98,87.24 544.46,82.91C543.94,78.59 543.43,74.26 542.99,69.93C542.55,65.61 542.16,61.28 541.83,56.95C541.5,52.63 541.24,48.31 541.02,43.98Q540.8,39.66 540.52,31L539.48,31Q539.2,39.66 538.98,43.98C538.76,48.31 538.5,52.63 538.17,56.95C537.84,61.28 537.45,65.61 537.01,69.93C536.57,74.26 536.06,78.59 535.54,82.91C535.02,87.24 534.43,91.56 533.89,95.88C533.35,100.21 532.77,104.53 532.29,108.86C531.81,113.18 531.35,117.51 531,121.84C530.66,126.16 530.38,130.48 530.22,134.81C530.06,139.13 530.01,143.46 530.02,147.79C530.03,152.12 530.16,156.44 530.27,160.77C530.38,165.09 530.58,169.42 530.68,173.74C530.78,178.07 530.89,182.39 530.85,186.72C530.81,191.05 530.7,195.38 530.43,199.7C530.16,204.03 529.76,208.35 529.22,212.67C528.68,217 527.97,221.33 527.2,225.65C526.43,229.99 525.5,234.31 524.59,238.63C523.68,242.96 522.66,247.27 521.72,251.6C520.78,255.92 519.81,260.25 518.95,264.58C518.09,268.9 517.26,273.23 516.56,277.56C515.86,281.88 515.24,286.2 514.73,290.53C514.22,294.85 513.81,299.18 513.49,303.51C513.18,307.83 512.96,312.16 512.84,316.49C512.72,320.82 512.68,325.14 512.74,329.47C512.8,333.79 512.94,338.12 513.17,342.44C513.4,346.77 513.72,351.1 514.12,355.42C514.52,359.75 515.01,364.08 515.56,368.4C516.11,372.73 516.76,377.05 517.44,381.37C518.12,385.7 518.88,390.03 519.65,394.35C520.43,398.68 521.26,403.01 522.09,407.33C522.92,411.66 523.8,415.98 524.64,420.3C525.49,424.63 526.34,428.95 527.16,433.28C527.98,437.6 528.79,441.93 529.55,446.26C530.31,450.58 531.04,454.9 531.72,459.23C532.4,463.55 533.04,467.88 533.62,472.21C534.2,476.53 534.73,480.86 535.21,485.19C535.69,489.51 536.12,493.83 536.51,498.16C536.9,502.48 537.23,506.81 537.53,511.14C537.83,515.47 538.08,519.79 538.31,524.12C538.54,528.44 538.73,532.77 538.89,537.09C539.06,541.42 539.18,545.74 539.3,550.07C539.42,554.4 539.51,558.72 539.59,563.05C539.67,567.37 539.72,571.7 539.77,576.02Q539.82,580.35 539.88,589Z" style="vector-effect: non-scaling-stroke; stroke-width: 2px; stroke: rgb(239, 85, 59); stroke-opacity: 1; fill: rgb(239, 85, 59); fill-opacity: 0.5;"/><path class="box" d="M94.77,374.98H121.23M94.77,398.63H121.23V337.96H94.77ZM108,398.63V420.55M108,337.96V249.72" style="vector-effect: non-scaling-stroke; stroke-width: 2px; stroke: rgb(239, 85, 59); stroke-opacity: 1; fill: rgb(239, 85, 59); fill-opacity: 0.5;"/><path class="box" d="M310.77,320.18H337.23M310.77,354.1H337.23V249.72H310.77ZM324,354.1V459.7M324,249.72V111.25" style="vector-effect: non-scaling-stroke; stroke-width: 2px; stroke: rgb(239, 85, 59); stroke-opacity: 1; fill: rgb(239, 85, 59); fill-opacity: 0.5;"/><path class="box" d="M526.77,311.91H553.23M526.77,374.89H553.23V249.72H526.77ZM540,374.89V509.45M540,249.72V110.55" style="vector-effect: non-scaling-stroke; stroke-width: 2px; stroke: rgb(239, 85, 59); stroke-opacity: 1; fill: rgb(239, 85, 59); fill-opacity: 0.5;"/><path class="mean" d="M94.77,359.17H121.23" style="fill: none; vector-effect: non-scaling-stroke; stroke-width: 2px; stroke-dasharray: 4px, 2px; stroke: rgb(239, 85, 59); stroke-opacity: 1;"/><path class="mean" d="M310.77,300.08H337.23" style="fill: none; vector-effect: non-scaling-stroke; stroke-width: 2px; stroke-dasharray: 4px, 2px; stroke: rgb(239, 85, 59); stroke-opacity: 1;"/><path class="mean" d="M526.77,304.11H553.23" style="fill: none; vector-effect: non-scaling-stroke; stroke-width: 2px; stroke-dasharray: 4px, 2px; stroke: rgb(239, 85, 59); stroke-opacity: 1;"/></g></g></g><g class="overplot"/><path class="xlines-above crisp" d="M0,0" style="fill: none;"/><path class="ylines-above crisp" d="M0,0" style="fill: none;"/><g class="overlines-above"/><g class="xaxislayer-above"><g class="x2tick"><text text-anchor="middle" x="0" y="733" transform="translate(980.0000000000001,0)" style="font-family: 'Open Sans', verdana, arial, sans-serif; font-size: 12px; fill: rgb(42, 63, 95); fill-opacity: 1; white-space: pre; opacity: 1;">&#60;=1</text></g><g class="x2tick"><text text-anchor="middle" x="0" y="733" transform="translate(1196,0)" style="font-family: 'Open Sans', verdana, arial, sans-serif; font-size: 12px; fill: rgb(42, 63, 95); fill-opacity: 1; white-space: pre; opacity: 1;">(1, 2]</text></g><g class="x2tick"><text text-anchor="middle" x="0" y="733" transform="translate(1412,0)" style="font-family: 'Open Sans', verdana, arial, sans-serif; font-size: 12px; fill: rgb(42, 63, 95); fill-opacity: 1; white-space: pre; opacity: 1;">>2</text></g></g><g class="yaxislayer-above"><g class="y2tick"><text text-anchor="end" x="871.0000000000001" y="4.199999999999999" transform="translate(0,645.29)" style="font-family: 'Open Sans', verdana, arial, sans-serif; font-size: 12px; fill: rgb(42, 63, 95); fill-opacity: 1; white-space: pre; opacity: 1;">0</text></g><g class="y2tick"><text text-anchor="end" x="871.0000000000001" y="4.199999999999999" style="font-family: 'Open Sans', verdana, arial, sans-serif; font-size: 12px; fill: rgb(42, 63, 95); fill-opacity: 1; white-space: pre; opacity: 1;" transform="translate(0,558.3)">5</text></g><g class="y2tick"><text text-anchor="end" x="871.0000000000001" y="4.199999999999999" style="font-family: 'Open Sans', verdana, arial, sans-serif; font-size: 12px; fill: rgb(42, 63, 95); fill-opacity: 1; white-space: pre; opacity: 1;" transform="translate(0,471.32)">10</text></g><g class="y2tick"><text text-anchor="end" x="871.0000000000001" y="4.199999999999999" style="font-family: 'Open Sans', verdana, arial, sans-serif; font-size: 12px; fill: rgb(42, 63, 95); fill-opacity: 1; white-space: pre; opacity: 1;" transform="translate(0,384.34)">15</text></g><g class="y2tick"><text text-anchor="end" x="871.0000000000001" y="4.199999999999999" style="font-family: 'Open Sans', verdana, arial, sans-serif; font-size: 12px; fill: rgb(42, 63, 95); fill-opacity: 1; white-space: pre; opacity: 1;" transform="translate(0,297.36)">20</text></g><g class="y2tick"><text text-anchor="end" x="871.0000000000001" y="4.199999999999999" style="font-family: 'Open Sans', verdana, arial, sans-serif; font-size: 12px; fill: rgb(42, 63, 95); fill-opacity: 1; white-space: pre; opacity: 1;" transform="translate(0,210.38)">25</text></g><g class="y2tick"><text text-anchor="end" x="871.0000000000001" y="4.199999999999999" style="font-family: 'Open Sans', verdana, arial, sans-serif; font-size: 12px; fill: rgb(42, 63, 95); fill-opacity: 1; white-space: pre; opacity: 1;" transform="translate(0,123.4)">30</text></g></g><g class="overaxes-above"/></g></g><g class="polarlayer"/><g class="smithlayer"/><g class="ternarylayer"/><g class="geolayer"/><g class="funnelarealayer"/><g class="pielayer"/><g class="iciclelayer"/><g class="treemaplayer"/><g class="sunburstlayer"/><g class="glimages"/><defs id="topdefs-d18924"><g class="clips"/></defs><g class="layer-above"><g class="imagelayer"/><g class="shapelayer"/></g><g class="infolayer"><g class="g-gtitle"><text class="gtitle" x="80" y="50" text-anchor="start" dy="0em" style="font-family: 'Open Sans', verdana, arial, sans-serif; font-size: 17px; fill: rgb(42, 63, 95); opacity: 1; font-weight: normal; white-space: pre;">selling_price Distributions</text></g><g class="g-xtitle"><text class="xtitle" x="404" y="761.8" text-anchor="middle" style="font-family: 'Open Sans', verdana, arial, sans-serif; font-size: 14px; fill: rgb(42, 63, 95); opacity: 1; font-weight: normal; white-space: pre;">Hardcover over Paperback</text></g><g class="g-x2title"><text class="x2title" x="1196" y="761.8" text-anchor="middle" style="font-family: 'Open Sans', verdana, arial, sans-serif; font-size: 14px; fill: rgb(42, 63, 95); opacity: 1; font-weight: normal; white-space: pre;">Hardcover over Paperback</text></g><g class="g-ytitle"><text class="ytitle" transform="rotate(-90,40.465625,410)" x="40.465625" y="410" text-anchor="middle" style="font-family: 'Open Sans', verdana, arial, sans-serif; font-size: 14px; fill: rgb(42, 63, 95); opacity: 1; font-weight: normal; white-space: pre;">selling_price</text></g><g class="g-y2title"><text class="y2title" transform="rotate(-90,832.465625,410)" x="832.465625" y="410" text-anchor="middle" style="font-family: 'Open Sans', verdana, arial, sans-serif; font-size: 14px; fill: rgb(42, 63, 95); opacity: 1; font-weight: normal; white-space: pre;">selling_price</text></g><g class="annotation" data-index="0" style="opacity: 1;"><g class="annotation-text-g" transform="rotate(0,404,87)"><g class="cursor-pointer" transform="translate(363,74)"><rect class="bg" x="0.5" y="0.5" width="82" height="25" style="stroke-width: 1px; stroke: rgb(0, 0, 0); stroke-opacity: 0; fill: rgb(0, 0, 0); fill-opacity: 0;"/><text class="annotation-text" text-anchor="middle" x="41.296875" y="19" style="font-family: 'Open Sans', verdana, arial, sans-serif; font-size: 16px; fill: rgb(42, 63, 95); fill-opacity: 1; white-space: pre;">Paperback</text></g></g></g><g class="annotation" data-index="1" style="opacity: 1;"><g class="annotation-text-g" transform="rotate(0,1196,87)"><g class="cursor-pointer" transform="translate(1155,74)"><rect class="bg" x="0.5" y="0.5" width="81" height="25" style="stroke-width: 1px; stroke: rgb(0, 0, 0); stroke-opacity: 0; fill: rgb(0, 0, 0); fill-opacity: 0;"/><text class="annotation-text" text-anchor="middle" x="40.921875" y="19" style="font-family: 'Open Sans', verdana, arial, sans-serif; font-size: 16px; fill: rgb(42, 63, 95); fill-opacity: 1; white-space: pre;">Hardcover</text></g></g></g></g></svg>