<svg class="main-svg" xmlns="http://www.w3.org/2000/svg" xmlns:xlink="http://www.w3.org/1999/xlink" width="1600" height="800" style="" viewBox="0 0 1600 800"><rect x="0" y="0" width="1600" height="800" style="fill: rgb(255, 255, 255); fill-opacity: 1;"/><defs id="defs-598ff7"><g class="clips"><clipPath id="clip598ff7xyplot" class="plotclip"><rect width="648" height="620"/></clipPath><clipPath id="clip598ff7x2y2plot" class="plotclip"><rect width="647.9999999999999" height="620"/></clipPath><clipPath class="axesclip" id="clip598ff7x"><rect x="80" y="0" width="648" height="800"/></clipPath><clipPath class="axesclip" id="clip598ff7y"><rect x="0" y="100" width="1600" height="620"/></clipPath><clipPath class="axesclip" id="clip598ff7xy"><rect x="80" y="100" width="648" height="620"/></clipPath><clipPath class="axesclip" id="clip598ff7y2"><rect x="0" y="100" width="1600" height="620"/></clipPath><clipPath class="axesclip" id="clip598ff7xy2"><rect x="80" y="100" width="648" height="620"/></clipPath><clipPath class="axesclip" id="clip598ff7x2"><rect x="872.0000000000001" y="0" width="647.9999999999999" height="800"/></clipPath><clipPath class="axesclip" id="clip598ff7x2y"><rect x="872.0000000000001" y="100" width="647.9999999999999" height="620"/></clipPath><clipPath class="axesclip" id="clip598ff7x2y2"><rect x="872.0000000000001" y="100" width="647.9999999999999" height="620"/></clipPath></g><g class="gradients"/><g class="patterns"/></defs><g class="bglayer"><rect class="bg" x="80" y="100" width="648" height="620" style="fill: rgb(229, 236, 246); fill-opacity: 1; stroke-width: 0;"/><rect class="bg" x="872.0000000000001" y="100" width="647.9999999999999" height="620" style="fill: rgb(229, 236, 246); fill-opacity: 1; stroke-width: 0;"/></g><g class="layer-below"><g class="imagelayer"/><g class="shapelayer"/></g><g class="cartesianlayer"><g class="subplot xy"><g class="layer-subplot"><g class="shapelayer"/><g class="imagelayer"/></g><g class="minor-gridlayer"><g class="x"/><g class="y"/></g><g class="gridlayer"><g class="x"/><g class="y"><path class="ygrid crisp" transform="translate(0,661.11)" d="M80,0h648" style="stroke: rgb(255, 255, 255); stroke-opacity: 1; stroke-width: 1px;"/><path class="ygrid crisp" transform="translate(0,470.21)" d="M80,0h648" style="stroke: rgb(255, 255, 255); stroke-opacity: 1; stroke-width: 1px;"/><path class="ygrid crisp" transform="translate(0,374.76)" d="M80,0h648" style="stroke: rgb(255, 255, 255); stroke-opacity: 1; stroke-width: 1px;"/><path class="ygrid crisp" transform="translate(0,279.31)" d="M80,0h648" style="stroke: rgb(255, 255, 255); stroke-opacity: 1; stroke-width: 1px;"/><path class="ygrid crisp" transform="translate(0,183.86)" d="M80,0h648" style="stroke: rgb(255, 255, 255); stroke-opacity: 1; stroke-width: 1px;"/></g></g><g class="zerolinelayer"><path class="yzl zl crisp" transform="translate(0,565.6600000000001)" d="M80,0h648" style="stroke: rgb(255, 255, 255); stroke-opacity: 1; stroke-width: 2px;"/></g><path class="xlines-below"/><path class="ylines-below"/><g class="overlines-below"/><g class="xaxislayer-below"/><g class="yaxislayer-below"/><g class="overaxes-below"/><g class="plot" transform="translate(80,100)" clip-path="url(#clip598ff7xyplot)"><g class="violinlayer mlayer"><g class="trace violins" style="opacity: 1;"><path class="violin" d="M108.27,589Q108.42,575.22 108.54,568.33C108.66,561.44 108.8,554.56 108.97,547.67C109.14,540.78 109.36,533.89 109.58,527C109.81,520.11 110.06,513.22 110.32,506.33C110.57,499.44 110.86,492.56 111.11,485.67C111.36,478.78 111.61,471.89 111.8,465C111.99,458.11 112.16,451.22 112.27,444.33C112.37,437.44 112.43,430.56 112.43,423.67C112.43,416.78 112.36,409.89 112.27,403C112.17,396.11 112.02,389.22 111.86,382.33C111.7,375.44 111.49,368.56 111.31,361.67C111.12,354.78 110.92,347.89 110.75,341C110.58,334.11 110.4,327.22 110.27,320.33C110.14,313.44 110.03,306.56 109.96,299.67C109.88,292.78 109.84,285.89 109.82,279C109.8,272.11 109.81,265.22 109.83,258.33C109.85,251.44 109.89,244.56 109.92,237.67C109.95,230.78 109.98,223.89 109.99,217C110,210.11 110,203.22 109.97,196.33C109.94,189.44 109.89,182.56 109.82,175.67C109.75,168.78 109.66,161.89 109.56,155C109.46,148.11 109.34,141.22 109.23,134.33C109.12,127.44 108.99,120.56 108.88,113.67C108.77,106.78 108.67,99.89 108.58,93C108.49,86.11 108.41,79.22 108.34,72.33C108.28,65.44 108.23,58.56 108.19,51.67Q108.15,44.78 108.09,31L107.91,31Q107.85,44.78 107.81,51.67C107.77,58.56 107.72,65.44 107.66,72.33C107.59,79.22 107.51,86.11 107.42,93C107.33,99.89 107.23,106.78 107.12,113.67C107.01,120.56 106.88,127.44 106.77,134.33C106.66,141.22 106.54,148.11 106.44,155C106.34,161.89 106.25,168.78 106.18,175.67C106.11,182.56 106.06,189.44 106.03,196.33C106,203.22 106,210.11 106.01,217C106.02,223.89 106.05,230.78 106.08,237.67C106.11,244.56 106.15,251.44 106.17,258.33C106.19,265.22 106.2,272.11 106.18,279C106.16,285.89 106.12,292.78 106.04,299.67C105.97,306.56 105.86,313.44 105.73,320.33C105.6,327.22 105.42,334.11 105.25,341C105.08,347.89 104.88,354.78 104.69,361.67C104.51,368.56 104.3,375.44 104.14,382.33C103.98,389.22 103.83,396.11 103.73,403C103.64,409.89 103.57,416.78 103.57,423.67C103.57,430.56 103.63,437.44 103.73,444.33C103.84,451.22 104.01,458.11 104.2,465C104.39,471.89 104.64,478.78 104.89,485.67C105.14,492.56 105.43,499.44 105.68,506.33C105.94,513.22 106.19,520.11 106.42,527C106.64,533.89 106.86,540.78 107.03,547.67C107.2,554.56 107.34,561.44 107.46,568.33Q107.58,575.22 107.73,589Z" style="vector-effect: non-scaling-stroke; stroke-width: 2px; stroke: rgb(99, 110, 250); stroke-opacity: 1; fill: rgb(99, 110, 250); fill-opacity: 0.5;"/><path class="violin" d="M327.29,475.9Q329.35,474.69 330.62,474.16C332.18,473.51 334.04,472.95 336.01,472.41C338.32,471.77 340.97,471.22 343.66,470.66C346.63,470.04 349.9,469.49 353.07,468.91C356.31,468.32 359.76,467.78 362.89,467.17C365.79,466.61 368.81,466.09 371.22,465.42C373.12,464.89 375.35,464.5 376.22,463.67C376.74,463.18 377.11,462.44 376.92,461.93C376.65,461.21 374.88,460.71 373.56,460.18C371.85,459.5 369.57,458.99 367.45,458.43C365.17,457.83 362.66,457.28 360.31,456.69C358.02,456.12 355.69,455.55 353.55,454.94C351.58,454.38 349.68,453.81 347.93,453.19C346.36,452.63 344.89,452.05 343.51,451.44C342.26,450.88 341.1,450.3 339.98,449.7C338.93,449.14 337.95,448.55 336.98,447.95C336.05,447.38 335.16,446.79 334.29,446.2C333.46,445.63 332.64,445.06 331.88,444.46C331.16,443.89 330.46,443.31 329.84,442.71C329.26,442.15 328.72,441.56 328.28,440.96C327.87,440.4 327.51,439.82 327.24,439.22C326.98,438.65 326.8,438.06 326.67,437.47C326.54,436.89 326.48,436.3 326.44,435.72C326.4,435.14 326.41,434.55 326.41,433.97C326.41,433.39 326.43,432.81 326.44,432.23C326.45,431.65 326.46,431.06 326.45,430.48C326.44,429.9 326.42,429.31 326.38,428.73C326.34,428.15 326.28,427.57 326.21,426.99C326.14,426.41 326.06,425.82 325.98,425.24C325.9,424.66 325.81,424.07 325.73,423.49C325.66,422.91 325.58,422.33 325.53,421.75C325.48,421.17 325.44,420.58 325.43,420C325.42,419.42 325.43,418.83 325.44,418.25C325.45,417.67 325.49,417.08 325.52,416.5C325.54,415.92 325.58,415.34 325.59,414.76C325.6,414.18 325.6,413.59 325.57,413.01C325.54,412.43 325.49,411.84 325.42,411.26C325.35,410.68 325.26,410.1 325.17,409.52C325.08,408.94 324.96,408.35 324.86,407.77C324.76,407.19 324.66,406.6 324.57,406.02C324.48,405.44 324.4,404.86 324.34,404.28C324.27,403.7 324.22,403.11 324.18,402.53C324.14,401.95 324.11,401.36 324.09,400.78C324.07,400.2 324.06,399.61 324.06,399.03C324.06,398.45 324.05,397.87 324.06,397.29C324.07,396.71 324.09,396.12 324.12,395.54C324.15,394.96 324.18,394.37 324.23,393.79C324.28,393.21 324.34,392.63 324.41,392.05C324.48,391.47 324.57,390.88 324.66,390.3C324.75,389.72 324.87,389.13 324.97,388.55C325.07,387.97 325.19,387.39 325.28,386.81C325.37,386.23 325.46,385.64 325.53,385.06C325.6,384.48 325.65,383.89 325.68,383.31C325.71,382.73 325.72,382.14 325.73,381.56C325.74,380.98 325.74,380.4 325.75,379.82C325.76,379.24 325.77,378.65 325.8,378.07C325.83,377.49 325.88,376.9 325.94,376.32C326,375.74 326.09,375.16 326.17,374.58C326.25,374 326.35,373.41 326.43,372.83C326.51,372.25 326.6,371.66 326.64,371.08C326.68,370.5 326.71,369.92 326.7,369.34C326.69,368.76 326.66,368.17 326.6,367.59C326.54,367.01 326.44,366.42 326.33,365.84C326.22,365.26 326.08,364.67 325.96,364.09C325.84,363.51 325.71,362.93 325.6,362.35C325.5,361.77 325.39,361.18 325.33,360.6C325.27,360.02 325.23,359.43 325.22,358.85C325.21,358.27 325.24,357.69 325.27,357.11C325.3,356.53 325.37,355.94 325.43,355.36C325.49,354.78 325.57,354.19 325.63,353.61C325.69,353.03 325.76,352.45 325.81,351.87C325.87,351.29 325.91,350.7 325.96,350.12C326.01,349.54 326.06,348.95 326.12,348.37C326.18,347.79 326.25,347.2 326.34,346.62C326.43,346.04 326.54,345.46 326.65,344.88C326.76,344.3 326.9,343.71 327.02,343.13C327.14,342.55 327.27,341.96 327.37,341.38C327.47,340.8 327.56,340.22 327.62,339.64C327.68,339.06 327.72,338.47 327.75,337.89C327.78,337.31 327.79,336.72 327.8,336.14C327.81,335.56 327.81,334.98 327.8,334.4C327.79,333.82 327.78,333.23 327.75,332.65C327.72,332.07 327.69,331.48 327.62,330.9C327.55,330.32 327.46,329.73 327.34,329.15C327.22,328.57 327.06,327.99 326.89,327.41C326.72,326.82 326.5,326.24 326.3,325.66C326.1,325.08 325.88,324.49 325.68,323.91C325.48,323.33 325.28,322.75 325.11,322.17C324.94,321.59 324.79,321.01 324.66,320.42C324.54,319.84 324.44,319.25 324.36,318.67C324.28,318.09 324.22,317.51 324.17,316.93C324.12,316.35 324.1,315.76 324.08,315.18C324.06,314.6 324.04,314.01 324.03,313.43C324.02,312.85 324.02,312.26 324.01,311.68C324.01,311.1 324,310.52 324,309.94C324,309.36 324,308.77 324,308.19C324,307.61 324,307.02 324,306.44C324,305.86 324,305.28 324,304.7C324,304.12 324,303.53 324,302.95C324,302.37 324,301.78 324,301.2C324,300.62 324,300.04 324,299.46C324,298.88 324,298.29 324,297.71C324,297.13 324,296.54 324,295.96C324,295.38 324,294.79 324,294.21C324,293.63 324,293.05 324,292.47C324,291.89 324,291.3 324,290.72C324,290.14 324,289.55 324,288.97C324,288.39 324,287.81 324,287.23C324,286.65 324,286.06 324,285.48C324,284.9 324,284.31 324,283.73C324,283.15 324,282.57 324,281.99C324,281.41 324,280.82 324,280.24C324,279.66 324,279.07 324,278.49C324,277.91 324,277.32 324,276.74C324,276.16 324,275.58 324,275C324,274.42 324,273.83 324,273.25C324,272.67 324,272.08 324,271.5C324,270.92 324,270.34 324,269.76C324,269.18 324,268.59 324,268.01C324,267.43 324,266.84 324,266.26C324,265.68 324,265.1 324,264.52C324,263.94 324,263.35 324,262.77C324,262.19 324,261.6 324,261.02C324,260.44 324,259.85 324,259.27C324,258.69 324,258.11 324,257.53C324,256.95 324,256.36 324,255.78C324,255.2 324,254.61 324,254.03C324,253.45 324,252.87 324,252.29C324,251.71 324,251.12 324,250.54C324,249.96 324,249.37 324,248.79C324,248.21 324,247.63 324,247.05C324,246.47 324,245.88 324,245.3C324,244.72 324,244.13 324,243.55C324,242.97 324,242.38 324,241.8C324,241.22 324,240.64 324,240.06C324,239.48 324,238.89 324,238.31C324,237.73 324,237.14 324,236.56C324,235.98 324,235.4 324,234.82C324,234.24 324,233.65 324,233.07C324,232.49 324,231.9 324,231.32C324,230.74 324,230.16 324,229.58C324,229 324,228.41 324,227.83C324,227.25 324,226.66 324,226.08C324,225.5 324,224.91 324,224.33C324,223.75 324,223.17 324,222.59C324,222.01 324,221.42 324,220.84C324,220.26 324,219.67 324,219.09C324,218.51 324,217.93 324,217.35C324,216.77 324,216.18 324,215.6C324,215.02 324,214.43 324,213.85C324,213.27 324.01,212.69 324.01,212.11C324.01,211.53 324.02,210.94 324.02,210.36C324.03,209.78 324.03,209.19 324.04,208.61C324.05,208.03 324.07,207.44 324.1,206.86C324.13,206.28 324.16,205.7 324.21,205.12C324.26,204.54 324.31,203.95 324.38,203.37C324.45,202.79 324.54,202.2 324.63,201.62C324.72,201.04 324.83,200.46 324.93,199.88C325.03,199.3 325.13,198.71 325.22,198.13C325.3,197.55 325.39,196.96 325.44,196.38C325.49,195.8 325.52,195.22 325.52,194.64C325.52,194.06 325.49,193.47 325.44,192.89C325.39,192.31 325.31,191.72 325.22,191.14C325.13,190.56 325.02,189.97 324.92,189.39C324.82,188.81 324.71,188.23 324.62,187.65C324.53,187.07 324.45,186.48 324.38,185.9Q324.31,185.32 324.21,184.15L323.79,184.15Q323.69,185.32 323.62,185.9C323.55,186.48 323.47,187.07 323.38,187.65C323.29,188.23 323.18,188.81 323.08,189.39C322.98,189.97 322.87,190.56 322.78,191.14C322.69,191.72 322.61,192.31 322.56,192.89C322.51,193.47 322.48,194.06 322.48,194.64C322.48,195.22 322.51,195.8 322.56,196.38C322.61,196.96 322.7,197.55 322.78,198.13C322.87,198.71 322.97,199.3 323.07,199.88C323.17,200.46 323.28,201.04 323.37,201.62C323.46,202.2 323.55,202.79 323.62,203.37C323.69,203.95 323.74,204.54 323.79,205.12C323.84,205.7 323.87,206.28 323.9,206.86C323.93,207.44 323.95,208.03 323.96,208.61C323.97,209.19 323.97,209.78 323.98,210.36C323.98,210.94 323.99,211.53 323.99,212.11C323.99,212.69 324,213.27 324,213.85C324,214.43 324,215.02 324,215.6C324,216.18 324,216.77 324,217.35C324,217.93 324,218.51 324,219.09C324,219.67 324,220.26 324,220.84C324,221.42 324,222.01 324,222.59C324,223.17 324,223.75 324,224.33C324,224.91 324,225.5 324,226.08C324,226.66 324,227.25 324,227.83C324,228.41 324,229 324,229.58C324,230.16 324,230.74 324,231.32C324,231.9 324,232.49 324,233.07C324,233.65 324,234.24 324,234.82C324,235.4 324,235.98 324,236.56C324,237.14 324,237.73 324,238.31C324,238.89 324,239.48 324,240.06C324,240.64 324,241.22 324,241.8C324,242.38 324,242.97 324,243.55C324,244.13 324,244.72 324,245.3C324,245.88 324,246.47 324,247.05C324,247.63 324,248.21 324,248.79C324,249.37 324,249.96 324,250.54C324,251.12 324,251.71 324,252.29C324,252.87 324,253.45 324,254.03C324,254.61 324,255.2 324,255.78C324,256.36 324,256.95 324,257.53C324,258.11 324,258.69 324,259.27C324,259.85 324,260.44 324,261.02C324,261.6 324,262.19 324,262.77C324,263.35 324,263.94 324,264.52C324,265.1 324,265.68 324,266.26C324,266.84 324,267.43 324,268.01C324,268.59 324,269.18 324,269.76C324,270.34 324,270.92 324,271.5C324,272.08 324,272.67 324,273.25C324,273.83 324,274.42 324,275C324,275.58 324,276.16 324,276.74C324,277.32 324,277.91 324,278.49C324,279.07 324,279.66 324,280.24C324,280.82 324,281.41 324,281.99C324,282.57 324,283.15 324,283.73C324,284.31 324,284.9 324,285.48C324,286.06 324,286.65 324,287.23C324,287.81 324,288.39 324,288.97C324,289.55 324,290.14 324,290.72C324,291.3 324,291.89 324,292.47C324,293.05 324,293.63 324,294.21C324,294.79 324,295.38 324,295.96C324,296.54 324,297.13 324,297.71C324,298.29 324,298.88 324,299.46C324,300.04 324,300.62 324,301.2C324,301.78 324,302.37 324,302.95C324,303.53 324,304.12 324,304.7C324,305.28 324,305.86 324,306.44C324,307.02 324,307.61 324,308.19C324,308.77 324,309.36 324,309.94C324,310.52 323.99,311.1 323.99,311.68C323.98,312.26 323.98,312.85 323.97,313.43C323.96,314.01 323.94,314.6 323.92,315.18C323.9,315.76 323.88,316.35 323.83,316.93C323.78,317.51 323.72,318.09 323.64,318.67C323.56,319.25 323.46,319.84 323.34,320.42C323.21,321.01 323.06,321.59 322.89,322.17C322.72,322.75 322.52,323.33 322.32,323.91C322.12,324.49 321.9,325.08 321.7,325.66C321.5,326.24 321.28,326.82 321.11,327.41C320.94,327.99 320.78,328.57 320.66,329.15C320.54,329.73 320.45,330.32 320.38,330.9C320.31,331.48 320.28,332.07 320.25,332.65C320.22,333.23 320.21,333.82 320.2,334.4C320.19,334.98 320.19,335.56 320.2,336.14C320.21,336.72 320.22,337.31 320.25,337.89C320.28,338.47 320.32,339.06 320.38,339.64C320.44,340.22 320.53,340.8 320.63,341.38C320.73,341.96 320.86,342.55 320.98,343.13C321.1,343.71 321.24,344.3 321.35,344.88C321.46,345.46 321.57,346.04 321.66,346.62C321.75,347.2 321.82,347.79 321.88,348.37C321.94,348.95 321.99,349.54 322.04,350.12C322.09,350.7 322.13,351.29 322.19,351.87C322.24,352.45 322.31,353.03 322.37,353.61C322.43,354.19 322.51,354.78 322.57,355.36C322.63,355.94 322.7,356.53 322.73,357.11C322.76,357.69 322.79,358.27 322.78,358.85C322.77,359.43 322.73,360.02 322.67,360.6C322.61,361.18 322.5,361.77 322.4,362.35C322.29,362.93 322.16,363.51 322.04,364.09C321.92,364.67 321.78,365.26 321.67,365.84C321.56,366.42 321.46,367.01 321.4,367.59C321.34,368.17 321.31,368.76 321.3,369.34C321.29,369.92 321.32,370.5 321.36,371.08C321.4,371.66 321.49,372.25 321.57,372.83C321.65,373.41 321.75,374 321.83,374.58C321.91,375.16 322,375.74 322.06,376.32C322.12,376.9 322.17,377.49 322.2,378.07C322.23,378.65 322.24,379.24 322.25,379.82C322.26,380.4 322.26,380.98 322.27,381.56C322.28,382.14 322.29,382.73 322.32,383.31C322.35,383.89 322.4,384.48 322.47,385.06C322.54,385.64 322.63,386.23 322.72,386.81C322.81,387.39 322.93,387.97 323.03,388.55C323.13,389.13 323.25,389.72 323.34,390.3C323.43,390.88 323.52,391.47 323.59,392.05C323.66,392.63 323.72,393.21 323.77,393.79C323.82,394.37 323.85,394.96 323.88,395.54C323.91,396.12 323.93,396.71 323.94,397.29C323.95,397.87 323.94,398.45 323.94,399.03C323.94,399.61 323.93,400.2 323.91,400.78C323.89,401.36 323.86,401.95 323.82,402.53C323.78,403.11 323.73,403.7 323.66,404.28C323.6,404.86 323.52,405.44 323.43,406.02C323.34,406.6 323.24,407.19 323.14,407.77C323.04,408.35 322.92,408.94 322.83,409.52C322.74,410.1 322.65,410.68 322.58,411.26C322.51,411.84 322.46,412.43 322.43,413.01C322.4,413.59 322.4,414.18 322.41,414.76C322.42,415.34 322.46,415.92 322.48,416.5C322.51,417.08 322.55,417.67 322.56,418.25C322.57,418.83 322.58,419.42 322.57,420C322.56,420.58 322.52,421.17 322.47,421.75C322.42,422.33 322.34,422.91 322.27,423.49C322.19,424.07 322.1,424.66 322.02,425.24C321.94,425.82 321.86,426.41 321.79,426.99C321.72,427.57 321.66,428.15 321.62,428.73C321.58,429.31 321.56,429.9 321.55,430.48C321.54,431.06 321.55,431.65 321.56,432.23C321.57,432.81 321.59,433.39 321.59,433.97C321.59,434.55 321.6,435.14 321.56,435.72C321.52,436.3 321.46,436.89 321.33,437.47C321.2,438.06 321.02,438.65 320.76,439.22C320.49,439.82 320.13,440.4 319.72,440.96C319.28,441.56 318.74,442.15 318.16,442.71C317.54,443.31 316.84,443.89 316.12,444.46C315.36,445.06 314.54,445.63 313.71,446.2C312.84,446.79 311.95,447.38 311.02,447.95C310.05,448.55 309.07,449.14 308.02,449.7C306.9,450.3 305.74,450.88 304.49,451.44C303.11,452.05 301.64,452.63 300.07,453.19C298.32,453.81 296.42,454.38 294.45,454.94C292.31,455.55 289.98,456.12 287.69,456.69C285.34,457.28 282.83,457.83 280.55,458.43C278.43,458.99 276.15,459.5 274.44,460.18C273.12,460.71 271.35,461.21 271.08,461.93C270.89,462.44 271.26,463.18 271.78,463.67C272.65,464.5 274.88,464.89 276.78,465.42C279.19,466.09 282.21,466.61 285.11,467.17C288.24,467.78 291.69,468.32 294.93,468.91C298.1,469.49 301.37,470.04 304.34,470.66C307.03,471.22 309.68,471.77 311.99,472.41C313.96,472.95 315.82,473.51 317.38,474.16Q318.65,474.69 320.71,475.9Z" style="vector-effect: non-scaling-stroke; stroke-width: 2px; stroke: rgb(99, 110, 250); stroke-opacity: 1; fill: rgb(99, 110, 250); fill-opacity: 0.5;"/><path class="violin" d="M542.17,492.88Q543.35,489.84 544.16,488.37C545.01,486.83 546.05,485.33 547.18,483.86C548.36,482.32 549.75,480.83 551.12,479.35C552.53,477.83 554.1,476.36 555.52,474.84C556.91,473.35 558.39,471.89 559.53,470.33C560.59,468.88 561.64,467.39 562.18,465.83C562.69,464.38 562.94,462.81 562.8,461.32C562.66,459.8 562.03,458.26 561.31,456.81C560.54,455.25 559.34,453.78 558.21,452.3C557.04,450.77 555.65,449.3 554.39,447.79C553.14,446.29 551.82,444.81 550.68,443.28C549.58,441.8 548.52,440.31 547.63,438.77C546.78,437.3 546.05,435.79 545.44,434.26C544.85,432.78 544.41,431.27 544.03,429.76C543.66,428.27 543.41,426.76 543.19,425.25C542.97,423.75 542.85,422.24 542.72,420.74C542.6,419.24 542.51,417.73 542.44,416.23C542.37,414.73 542.33,413.22 542.28,411.72C542.24,410.22 542.2,408.71 542.17,407.21C542.14,405.71 542.11,404.2 542.09,402.7C542.07,401.2 542.06,399.7 542.05,398.2C542.04,396.7 542.03,395.19 542.03,393.69C542.03,392.19 542.04,390.68 542.05,389.18C542.06,387.68 542.06,386.17 542.07,384.67C542.08,383.17 542.1,381.66 542.1,380.16C542.1,378.66 542.1,377.15 542.09,375.65C542.08,374.15 542.06,372.64 542.02,371.14C541.98,369.64 541.93,368.14 541.87,366.64C541.81,365.14 541.74,363.63 541.67,362.13C541.6,360.63 541.52,359.12 541.45,357.62C541.38,356.12 541.3,354.61 541.23,353.11C541.16,351.61 541.1,350.1 541.05,348.6C541,347.1 540.96,345.59 540.93,344.09C540.9,342.59 540.89,341.08 540.87,339.58C540.86,338.08 540.85,336.57 540.84,335.07C540.83,333.57 540.84,332.07 540.83,330.57C540.82,329.07 540.81,327.56 540.8,326.06C540.79,324.56 540.78,323.05 540.76,321.55C540.74,320.05 540.72,318.54 540.7,317.04C540.68,315.54 540.65,314.03 540.63,312.53C540.61,311.03 540.59,309.52 540.57,308.02C540.55,306.52 540.54,305.01 540.53,303.51C540.52,302.01 540.51,300.51 540.51,299.01C540.51,297.51 540.51,296 540.51,294.5C540.51,293 540.51,291.49 540.52,289.99C540.53,288.49 540.54,286.98 540.55,285.48C540.56,283.98 540.58,282.47 540.6,280.97C540.62,279.47 540.65,277.96 540.69,276.46C540.73,274.96 540.78,273.45 540.83,271.95C540.88,270.45 540.95,268.95 541.01,267.45C541.07,265.95 541.15,264.44 541.21,262.94C541.27,261.44 541.32,259.93 541.36,258.43C541.4,256.93 541.42,255.42 541.43,253.92C541.44,252.42 541.43,250.91 541.41,249.41C541.39,247.91 541.33,246.4 541.29,244.9C541.24,243.4 541.19,241.89 541.14,240.39C541.1,238.89 541.05,237.38 541.02,235.88C540.99,234.38 540.97,232.88 540.97,231.38C540.97,229.88 540.99,228.37 541.01,226.87C541.03,225.37 541.06,223.86 541.09,222.36C541.11,220.86 541.15,219.35 541.16,217.85C541.17,216.35 541.19,214.84 541.18,213.34C541.17,211.84 541.14,210.33 541.1,208.83C541.06,207.33 541.01,205.82 540.95,204.32C540.89,202.82 540.82,201.32 540.75,199.82C540.68,198.32 540.61,196.81 540.54,195.31C540.47,193.81 540.41,192.3 540.35,190.8C540.3,189.3 540.25,187.79 540.21,186.29C540.17,184.79 540.15,183.28 540.12,181.78C540.1,180.28 540.08,178.77 540.06,177.27C540.05,175.77 540.04,174.26 540.03,172.76C540.02,171.26 540.01,169.76 540.01,168.26C540.01,166.76 540.01,165.25 540.01,163.75C540.01,162.25 540,160.74 540,159.24C540,157.74 540.01,156.23 540.01,154.73C540.01,153.23 540.02,151.72 540.02,150.22C540.03,148.72 540.03,147.21 540.04,145.71C540.05,144.21 540.05,142.7 540.06,141.2C540.07,139.7 540.09,138.2 540.1,136.7C540.12,135.2 540.13,133.69 540.15,132.19C540.17,130.69 540.19,129.18 540.2,127.68C540.21,126.18 540.22,124.67 540.23,123.17C540.24,121.67 540.24,120.16 540.24,118.66C540.24,117.16 540.24,115.65 540.23,114.15C540.22,112.65 540.2,111.14 540.19,109.64C540.18,108.14 540.17,106.63 540.15,105.13C540.14,103.63 540.11,102.13 540.1,100.63C540.08,99.13 540.07,97.62 540.06,96.12Q540.05,94.62 540.03,91.61L539.97,91.61Q539.95,94.62 539.94,96.12C539.93,97.62 539.92,99.13 539.9,100.63C539.89,102.13 539.86,103.63 539.85,105.13C539.83,106.63 539.82,108.14 539.81,109.64C539.8,111.14 539.78,112.65 539.77,114.15C539.76,115.65 539.76,117.16 539.76,118.66C539.76,120.16 539.76,121.67 539.77,123.17C539.78,124.67 539.79,126.18 539.8,127.68C539.81,129.18 539.83,130.69 539.85,132.19C539.87,133.69 539.88,135.2 539.9,136.7C539.91,138.2 539.93,139.7 539.94,141.2C539.95,142.7 539.95,144.21 539.96,145.71C539.97,147.21 539.97,148.72 539.98,150.22C539.98,151.72 539.99,153.23 539.99,154.73C539.99,156.23 540,157.74 540,159.24C540,160.74 539.99,162.25 539.99,163.75C539.99,165.25 539.99,166.76 539.99,168.26C539.99,169.76 539.98,171.26 539.97,172.76C539.96,174.26 539.95,175.77 539.94,177.27C539.92,178.77 539.9,180.28 539.88,181.78C539.85,183.28 539.83,184.79 539.79,186.29C539.75,187.79 539.7,189.3 539.65,190.8C539.59,192.3 539.53,193.81 539.46,195.31C539.39,196.81 539.32,198.32 539.25,199.82C539.18,201.32 539.11,202.82 539.05,204.32C538.99,205.82 538.94,207.33 538.9,208.83C538.86,210.33 538.83,211.84 538.82,213.34C538.81,214.84 538.83,216.35 538.84,217.85C538.85,219.35 538.89,220.86 538.91,222.36C538.94,223.86 538.97,225.37 538.99,226.87C539.01,228.37 539.03,229.88 539.03,231.38C539.03,232.88 539.01,234.38 538.98,235.88C538.95,237.38 538.9,238.89 538.86,240.39C538.81,241.89 538.76,243.4 538.71,244.9C538.67,246.4 538.61,247.91 538.59,249.41C538.57,250.91 538.56,252.42 538.57,253.92C538.58,255.42 538.6,256.93 538.64,258.43C538.68,259.93 538.73,261.44 538.79,262.94C538.85,264.44 538.93,265.95 538.99,267.45C539.05,268.95 539.12,270.45 539.17,271.95C539.22,273.45 539.27,274.96 539.31,276.46C539.35,277.96 539.38,279.47 539.4,280.97C539.42,282.47 539.44,283.98 539.45,285.48C539.46,286.98 539.47,288.49 539.48,289.99C539.49,291.49 539.49,293 539.49,294.5C539.49,296 539.49,297.51 539.49,299.01C539.49,300.51 539.48,302.01 539.47,303.51C539.46,305.01 539.45,306.52 539.43,308.02C539.41,309.52 539.39,311.03 539.37,312.53C539.35,314.03 539.32,315.54 539.3,317.04C539.28,318.54 539.26,320.05 539.24,321.55C539.22,323.05 539.21,324.56 539.2,326.06C539.19,327.56 539.18,329.07 539.17,330.57C539.16,332.07 539.17,333.57 539.16,335.07C539.15,336.57 539.14,338.08 539.13,339.58C539.11,341.08 539.1,342.59 539.07,344.09C539.04,345.59 539,347.1 538.95,348.6C538.9,350.1 538.84,351.61 538.77,353.11C538.7,354.61 538.62,356.12 538.55,357.62C538.48,359.12 538.4,360.63 538.33,362.13C538.26,363.63 538.19,365.14 538.13,366.64C538.07,368.14 538.02,369.64 537.98,371.14C537.94,372.64 537.92,374.15 537.91,375.65C537.9,377.15 537.9,378.66 537.9,380.16C537.9,381.66 537.92,383.17 537.93,384.67C537.94,386.17 537.94,387.68 537.95,389.18C537.96,390.68 537.97,392.19 537.97,393.69C537.97,395.19 537.96,396.7 537.95,398.2C537.94,399.7 537.93,401.2 537.91,402.7C537.89,404.2 537.86,405.71 537.83,407.21C537.8,408.71 537.76,410.22 537.72,411.72C537.67,413.22 537.63,414.73 537.56,416.23C537.49,417.73 537.4,419.24 537.28,420.74C537.15,422.24 537.03,423.75 536.81,425.25C536.59,426.76 536.34,428.27 535.97,429.76C535.59,431.27 535.15,432.78 534.56,434.26C533.95,435.79 533.22,437.3 532.37,438.77C531.48,440.31 530.42,441.8 529.32,443.28C528.18,444.81 526.86,446.29 525.61,447.79C524.35,449.3 522.96,450.77 521.79,452.3C520.66,453.78 519.46,455.25 518.69,456.81C517.97,458.26 517.34,459.8 517.2,461.32C517.06,462.81 517.31,464.38 517.82,465.83C518.36,467.39 519.41,468.88 520.47,470.33C521.61,471.89 523.09,473.35 524.48,474.84C525.9,476.36 527.47,477.83 528.88,479.35C530.25,480.83 531.64,482.32 532.82,483.86C533.95,485.33 534.99,486.83 535.84,488.37Q536.65,489.84 537.83,492.88Z" style="vector-effect: non-scaling-stroke; stroke-width: 2px; stroke: rgb(99, 110, 250); stroke-opacity: 1; fill: rgb(99, 110, 250); fill-opacity: 0.5;"/><path class="box" d="M94.77,397.56H121.23M94.77,453.03H121.23V244.39H94.77ZM108,453.03V464.57M108,244.39V155.43" style="vector-effect: non-scaling-stroke; stroke-width: 2px; stroke: rgb(99, 110, 250); stroke-opacity: 1; fill: rgb(99, 110, 250); fill-opacity: 0.5;"/><path class="box" d="M310.77,461.68H337.23M310.77,464.01H337.23V448.94H310.77ZM324,464.01V465.4M324,448.94V426.58" style="vector-effect: non-scaling-stroke; stroke-width: 2px; stroke: rgb(99, 110, 250); stroke-opacity: 1; fill: rgb(99, 110, 250); fill-opacity: 0.5;"/><path class="box" d="M526.77,461.94H553.23M526.77,464.49H553.23V417.91H526.77ZM540,464.49V465.62M540,417.91V359.2" style="vector-effect: non-scaling-stroke; stroke-width: 2px; stroke: rgb(99, 110, 250); stroke-opacity: 1; fill: rgb(99, 110, 250); fill-opacity: 0.5;"/><path class="mean" d="M94.77,355.96H121.23" style="fill: none; vector-effect: non-scaling-stroke; stroke-width: 2px; stroke-dasharray: 4px, 2px; stroke: rgb(99, 110, 250); stroke-opacity: 1;"/><path class="mean" d="M310.77,438.84H337.23" style="fill: none; vector-effect: non-scaling-stroke; stroke-width: 2px; stroke-dasharray: 4px, 2px; stroke: rgb(99, 110, 250); stroke-opacity: 1;"/><path class="mean" d="M526.77,424.93H553.23" style="fill: none; vector-effect: non-scaling-stroke; stroke-width: 2px; stroke-dasharray: 4px, 2px; stroke: rgb(99, 110, 250); stroke-opacity: 1;"/></g></g></g><g class="overplot"/><path class="xlines-above crisp" d="M0,0" style="fill: none;"/><path class="ylines-above crisp" d="M0,0" style="fill: none;"/><g class="overlines-above"/><g class="xaxislayer-above"><g class="xtick"><text text-anchor="middle" x="0" y="733" transform="translate(188,0)" style="font-family: 'Open Sans', verdana, arial, sans-serif; font-size: 12px; fill: rgb(42, 63, 95); fill-opacity: 1; white-space: pre; opacity: 1;">&#60;=1</text></g><g class="xtick"><text text-anchor="middle" x="0" y="733" transform="translate(404,0)" style="font-family: 'Open Sans', verdana, arial, sans-serif; font-size: 12px; fill: rgb(42, 63, 95); fill-opacity: 1; white-space: pre; opacity: 1;">(1, 2]</text></g><g class="xtick"><text text-anchor="middle" x="0" y="733" transform="translate(620,0)" style="font-family: 'Open Sans', verdana, arial, sans-serif; font-size: 12px; fill: rgb(42, 63, 95); fill-opacity: 1; white-space: pre; opacity: 1;">>2</text></g></g><g class="yaxislayer-above"><g class="ytick"><text text-anchor="end" x="79" y="4.199999999999999" transform="translate(0,661.11)" style="font-family: 'Open Sans', verdana, arial, sans-serif; font-size: 12px; fill: rgb(42, 63, 95); fill-opacity: 1; white-space: pre; opacity: 1;">−0.5M</text></g><g class="ytick"><text text-anchor="end" x="79" y="4.199999999999999" style="font-family: 'Open Sans', verdana, arial, sans-serif; font-size: 12px; fill: rgb(42, 63, 95); fill-opacity: 1; white-space: pre; opacity: 1;" transform="translate(0,565.6600000000001)">0</text></g><g class="ytick"><text text-anchor="end" x="79" y="4.199999999999999" style="font-family: 'Open Sans', verdana, arial, sans-serif; font-size: 12px; fill: rgb(42, 63, 95); fill-opacity: 1; white-space: pre; opacity: 1;" transform="translate(0,470.21)">0.5M</text></g><g class="ytick"><text text-anchor="end" x="79" y="4.199999999999999" style="font-family: 'Open Sans', verdana, arial, sans-serif; font-size: 12px; fill: rgb(42, 63, 95); fill-opacity: 1; white-space: pre; opacity: 1;" transform="translate(0,374.76)">1M</text></g><g class="ytick"><text text-anchor="end" x="79" y="4.199999999999999" style="font-family: 'Open Sans', verdana, arial, sans-serif; font-size: 12px; fill: rgb(42, 63, 95); fill-opacity: 1; white-space: pre; opacity: 1;" transform="translate(0,279.31)">1.5M</text></g><g class="ytick"><text text-anchor="end" x="79" y="4.199999999999999" style="font-family: 'Open Sans', verdana, arial, sans-serif; font-size: 12px; fill: rgb(42, 63, 95); fill-opacity: 1; white-space: pre; opacity: 1;" transform="translate(0,183.86)">2M</text></g></g><g class="overaxes-above"/></g><g class="subplot x2y2"><g class="layer-subplot"><g class="shapelayer"/><g class="imagelayer"/></g><g class="minor-gridlayer"><g class="x2"/><g class="y2"/></g><g class="gridlayer"><g class="x2"/><g class="y2"><path class="y2grid crisp" transform="translate(0,492.39)" d="M872.0000000000001,0h647.9999999999999" style="stroke: rgb(255, 255, 255); stroke-opacity: 1; stroke-width: 1px;"/><path class="y2grid crisp" transform="translate(0,375.51)" d="M872.0000000000001,0h647.9999999999999" style="stroke: rgb(255, 255, 255); stroke-opacity: 1; stroke-width: 1px;"/><path class="y2grid crisp" transform="translate(0,258.63)" d="M872.0000000000001,0h647.9999999999999" style="stroke: rgb(255, 255, 255); stroke-opacity: 1; stroke-width: 1px;"/><path class="y2grid crisp" transform="translate(0,141.76)" d="M872.0000000000001,0h647.9999999999999" style="stroke: rgb(255, 255, 255); stroke-opacity: 1; stroke-width: 1px;"/></g></g><g class="zerolinelayer"><path class="y2zl zl crisp" transform="translate(0,609.26)" d="M872.0000000000001,0h647.9999999999999" style="stroke: rgb(255, 255, 255); stroke-opacity: 1; stroke-width: 2px;"/></g><path class="xlines-below"/><path class="ylines-below"/><g class="overlines-below"/><g class="xaxislayer-below"/><g class="yaxislayer-below"/><g class="overaxes-below"/><g class="plot" transform="translate(872.0000000000001,100)" clip-path="url(#clip598ff7x2y2plot)"><g class="violinlayer mlayer"><g class="trace violins" style="opacity: 1;"><path class="violin" d="M111.69,589Q113.6,580.23 114.9,575.89C116.22,571.49 117.84,567.12 119.59,562.78C121.37,558.37 123.47,554.03 125.49,549.67C127.52,545.29 129.82,540.96 131.75,536.56C133.66,532.22 135.65,527.88 137.02,523.45C138.36,519.13 139.49,514.74 139.95,510.34C140.4,506 140.32,501.57 139.78,497.23C139.24,492.83 138.01,488.45 136.68,484.13C135.32,479.71 133.41,475.37 131.65,471.02C129.87,466.63 127.83,462.3 126.05,457.91C124.28,453.56 122.5,449.2 121,444.8C119.52,440.46 118.2,436.08 117.1,431.69C116.01,427.34 115.14,422.96 114.4,418.58C113.67,414.22 113.13,409.85 112.69,405.47C112.25,401.11 111.97,396.73 111.74,392.36C111.51,387.99 111.4,383.62 111.33,379.25C111.26,374.88 111.29,370.51 111.34,366.14C111.39,361.77 111.5,357.4 111.63,353.03C111.76,348.66 111.93,344.29 112.11,339.92C112.29,335.55 112.49,331.18 112.7,326.81C112.91,322.44 113.13,318.07 113.36,313.7C113.59,309.33 113.84,304.96 114.07,300.59C114.3,296.22 114.56,291.85 114.76,287.48C114.96,283.11 115.16,278.75 115.28,274.38C115.4,270.01 115.48,265.64 115.47,261.27C115.46,256.9 115.37,252.53 115.22,248.16C115.07,243.79 114.83,239.42 114.56,235.05C114.29,230.68 113.95,226.31 113.61,221.94C113.27,217.57 112.89,213.2 112.54,208.83C112.19,204.46 111.83,200.09 111.5,195.72C111.17,191.35 110.86,186.98 110.58,182.61C110.3,178.24 110.05,173.87 109.82,169.5C109.59,165.13 109.39,160.76 109.21,156.39C109.03,152.02 108.88,147.65 108.75,143.28C108.62,138.91 108.52,134.54 108.43,130.17Q108.34,125.8 108.23,117.06L107.77,117.06Q107.66,125.8 107.57,130.17C107.48,134.54 107.38,138.91 107.25,143.28C107.12,147.65 106.97,152.02 106.79,156.39C106.61,160.76 106.41,165.13 106.18,169.5C105.95,173.87 105.7,178.24 105.42,182.61C105.14,186.98 104.83,191.35 104.5,195.72C104.17,200.09 103.81,204.46 103.46,208.83C103.11,213.2 102.73,217.57 102.39,221.94C102.05,226.31 101.71,230.68 101.44,235.05C101.17,239.42 100.93,243.79 100.78,248.16C100.63,252.53 100.54,256.9 100.53,261.27C100.52,265.64 100.6,270.01 100.72,274.38C100.84,278.75 101.04,283.11 101.24,287.48C101.44,291.85 101.7,296.22 101.93,300.59C102.16,304.96 102.41,309.33 102.64,313.7C102.87,318.07 103.09,322.44 103.3,326.81C103.51,331.18 103.71,335.55 103.89,339.92C104.07,344.29 104.24,348.66 104.37,353.03C104.5,357.4 104.61,361.77 104.66,366.14C104.71,370.51 104.74,374.88 104.67,379.25C104.6,383.62 104.49,387.99 104.26,392.36C104.03,396.73 103.75,401.11 103.31,405.47C102.87,409.85 102.33,414.22 101.6,418.58C100.86,422.96 99.99,427.34 98.9,431.69C97.8,436.08 96.48,440.46 95,444.8C93.5,449.2 91.72,453.56 89.95,457.91C88.17,462.3 86.13,466.63 84.35,471.02C82.59,475.37 80.68,479.71 79.32,484.13C77.99,488.45 76.76,492.83 76.22,497.23C75.68,501.57 75.6,506 76.05,510.34C76.51,514.74 77.64,519.13 78.98,523.45C80.35,527.88 82.34,532.22 84.25,536.56C86.18,540.96 88.48,545.29 90.51,549.67C92.53,554.03 94.63,558.37 96.41,562.78C98.16,567.12 99.78,571.49 101.1,575.89Q102.4,580.23 104.31,589Z" style="vector-effect: non-scaling-stroke; stroke-width: 2px; stroke: rgb(239, 85, 59); stroke-opacity: 1; fill: rgb(239, 85, 59); fill-opacity: 0.5;"/><path class="violin" d="M326.63,543.97Q328.18,539.59 329.32,537.48C330.52,535.25 332.01,533.07 333.73,530.98C335.58,528.73 337.79,526.58 340.13,524.49C342.63,522.25 345.5,520.13 348.34,518C351.28,515.8 354.48,513.68 357.48,511.5C360.43,509.35 363.54,507.26 366.2,505.01C368.67,502.92 371.17,500.82 372.96,498.52C374.56,496.46 376.02,494.27 376.66,492.02C377.26,489.93 377.31,487.65 376.92,485.53C376.51,483.32 375.36,481.13 374.14,479.04C372.83,476.79 371,474.66 369.22,472.54C367.36,470.33 365.23,468.2 363.19,466.05C361.13,463.88 358.96,461.74 356.92,459.56C354.9,457.41 352.88,455.25 351,453.06C349.17,450.92 347.4,448.77 345.77,446.57C344.19,444.44 342.71,442.28 341.37,440.08C340.07,437.95 338.88,435.77 337.83,433.58C336.8,431.44 335.9,429.27 335.12,427.09C334.36,424.95 333.72,422.78 333.2,420.6C332.68,418.45 332.31,416.27 332,414.1C331.7,411.94 331.52,409.78 331.37,407.61C331.22,405.45 331.16,403.28 331.08,401.12C330.99,398.95 330.96,396.79 330.86,394.62C330.76,392.46 330.65,390.29 330.49,388.13C330.33,385.97 330.12,383.8 329.9,381.64C329.68,379.47 329.4,377.31 329.16,375.14C328.92,372.98 328.65,370.81 328.45,368.65C328.25,366.49 328.08,364.33 327.95,362.16C327.83,360 327.75,357.83 327.7,355.66C327.65,353.5 327.66,351.33 327.66,349.17C327.66,347.01 327.7,344.84 327.72,342.68C327.74,340.51 327.76,338.35 327.76,336.18C327.76,334.02 327.74,331.85 327.7,329.69C327.66,327.53 327.6,325.36 327.52,323.2C327.44,321.03 327.34,318.87 327.23,316.7C327.12,314.54 326.99,312.37 326.85,310.21C326.71,308.05 326.56,305.88 326.4,303.72C326.24,301.55 326.07,299.39 325.9,297.22C325.74,295.06 325.56,292.89 325.41,290.73C325.26,288.57 325.11,286.4 324.99,284.24C324.87,282.07 324.76,279.91 324.68,277.74C324.6,275.58 324.55,273.41 324.52,271.25C324.49,269.09 324.5,266.92 324.52,264.76C324.54,262.59 324.6,260.43 324.67,258.26C324.74,256.1 324.84,253.93 324.94,251.77C325.04,249.61 325.15,247.44 325.25,245.28C325.35,243.12 325.45,240.95 325.52,238.79C325.59,236.62 325.65,234.46 325.67,232.29C325.69,230.13 325.68,227.96 325.65,225.8C325.62,223.64 325.54,221.47 325.46,219.31C325.38,217.14 325.27,214.98 325.17,212.81C325.07,210.65 324.96,208.48 324.87,206.32C324.78,204.16 324.7,201.99 324.65,199.83C324.6,197.66 324.56,195.5 324.56,193.33C324.56,191.17 324.59,189 324.63,186.84C324.68,184.68 324.75,182.51 324.83,180.35C324.91,178.18 325.02,176.02 325.12,173.85C325.22,171.69 325.33,169.52 325.42,167.36C325.51,165.2 325.59,163.03 325.64,160.87C325.69,158.7 325.72,156.54 325.73,154.37C325.74,152.21 325.71,150.04 325.68,147.88C325.65,145.72 325.6,143.55 325.57,141.39C325.54,139.22 325.5,137.06 325.51,134.89C325.52,132.73 325.55,130.56 325.62,128.4C325.69,126.24 325.81,124.07 325.95,121.91C326.1,119.74 326.3,117.58 326.49,115.41C326.68,113.25 326.91,111.08 327.11,108.92C327.31,106.76 327.52,104.6 327.67,102.43C327.82,100.27 327.95,98.1 328.03,95.93C328.11,93.77 328.14,91.6 328.13,89.44C328.12,87.28 328.05,85.11 327.95,82.95C327.85,80.78 327.71,78.61 327.55,76.45C327.39,74.28 327.19,72.12 327,69.96C326.81,67.8 326.59,65.63 326.39,63.47C326.19,61.3 325.97,59.14 325.78,56.97C325.59,54.81 325.4,52.64 325.23,50.48C325.06,48.32 324.91,46.15 324.78,43.99C324.65,41.82 324.55,39.66 324.46,37.49Q324.37,35.33 324.24,31L323.76,31Q323.63,35.33 323.54,37.49C323.45,39.66 323.35,41.82 323.22,43.99C323.09,46.15 322.94,48.32 322.77,50.48C322.6,52.64 322.41,54.81 322.22,56.97C322.03,59.14 321.81,61.3 321.61,63.47C321.41,65.63 321.19,67.8 321,69.96C320.81,72.12 320.61,74.28 320.45,76.45C320.29,78.61 320.15,80.78 320.05,82.95C319.95,85.11 319.88,87.28 319.87,89.44C319.86,91.6 319.89,93.77 319.97,95.93C320.05,98.1 320.18,100.27 320.33,102.43C320.48,104.6 320.69,106.76 320.89,108.92C321.09,111.08 321.32,113.25 321.51,115.41C321.7,117.58 321.9,119.74 322.05,121.91C322.19,124.07 322.31,126.24 322.38,128.4C322.45,130.56 322.48,132.73 322.49,134.89C322.5,137.06 322.46,139.22 322.43,141.39C322.4,143.55 322.35,145.72 322.32,147.88C322.29,150.04 322.26,152.21 322.27,154.37C322.28,156.54 322.31,158.7 322.36,160.87C322.41,163.03 322.49,165.2 322.58,167.36C322.67,169.52 322.78,171.69 322.88,173.85C322.98,176.02 323.09,178.18 323.17,180.35C323.25,182.51 323.32,184.68 323.37,186.84C323.41,189 323.44,191.17 323.44,193.33C323.44,195.5 323.4,197.66 323.35,199.83C323.3,201.99 323.22,204.16 323.13,206.32C323.04,208.48 322.93,210.65 322.83,212.81C322.73,214.98 322.62,217.14 322.54,219.31C322.46,221.47 322.38,223.64 322.35,225.8C322.32,227.96 322.31,230.13 322.33,232.29C322.35,234.46 322.41,236.62 322.48,238.79C322.55,240.95 322.65,243.12 322.75,245.28C322.85,247.44 322.96,249.61 323.06,251.77C323.16,253.93 323.26,256.1 323.33,258.26C323.4,260.43 323.46,262.59 323.48,264.76C323.5,266.92 323.51,269.09 323.48,271.25C323.45,273.41 323.4,275.58 323.32,277.74C323.24,279.91 323.13,282.07 323.01,284.24C322.89,286.4 322.74,288.57 322.59,290.73C322.44,292.89 322.26,295.06 322.1,297.22C321.93,299.39 321.76,301.55 321.6,303.72C321.44,305.88 321.29,308.05 321.15,310.21C321.01,312.37 320.88,314.54 320.77,316.7C320.66,318.87 320.56,321.03 320.48,323.2C320.4,325.36 320.34,327.53 320.3,329.69C320.26,331.85 320.24,334.02 320.24,336.18C320.24,338.35 320.26,340.51 320.28,342.68C320.3,344.84 320.34,347.01 320.34,349.17C320.34,351.33 320.35,353.5 320.3,355.66C320.25,357.83 320.17,360 320.05,362.16C319.92,364.33 319.75,366.49 319.55,368.65C319.35,370.81 319.08,372.98 318.84,375.14C318.6,377.31 318.32,379.47 318.1,381.64C317.88,383.8 317.67,385.97 317.51,388.13C317.35,390.29 317.24,392.46 317.14,394.62C317.04,396.79 317.01,398.95 316.92,401.12C316.84,403.28 316.78,405.45 316.63,407.61C316.48,409.78 316.3,411.94 316,414.1C315.69,416.27 315.32,418.45 314.8,420.6C314.28,422.78 313.64,424.95 312.88,427.09C312.1,429.27 311.2,431.44 310.17,433.58C309.12,435.77 307.93,437.95 306.63,440.08C305.29,442.28 303.81,444.44 302.23,446.57C300.6,448.77 298.83,450.92 297,453.06C295.12,455.25 293.1,457.41 291.08,459.56C289.04,461.74 286.87,463.88 284.81,466.05C282.77,468.2 280.64,470.33 278.78,472.54C277,474.66 275.17,476.79 273.86,479.04C272.64,481.13 271.49,483.32 271.08,485.53C270.69,487.65 270.74,489.93 271.34,492.02C271.98,494.27 273.44,496.46 275.04,498.52C276.83,500.82 279.33,502.92 281.8,505.01C284.46,507.26 287.57,509.35 290.52,511.5C293.52,513.68 296.72,515.8 299.66,518C302.5,520.13 305.37,522.25 307.87,524.49C310.21,526.58 312.42,528.73 314.27,530.98C315.99,533.07 317.48,535.25 318.68,537.48Q319.82,539.59 321.37,543.97Z" style="vector-effect: non-scaling-stroke; stroke-width: 2px; stroke: rgb(239, 85, 59); stroke-opacity: 1; fill: rgb(239, 85, 59); fill-opacity: 0.5;"/><path class="violin" d="M543.7,564.2Q545.72,558.09 547.13,555.12C548.59,552.03 550.4,549 552.38,546.04C554.45,542.94 556.9,539.95 559.35,536.96C561.86,533.89 564.69,530.93 567.26,527.88C569.79,524.87 572.52,521.92 574.65,518.8C576.67,515.85 578.68,512.84 579.82,509.71C580.9,506.77 581.57,503.65 581.51,500.63C581.45,497.6 580.57,494.5 579.46,491.55C578.29,488.44 576.37,485.45 574.55,482.47C572.67,479.39 570.37,476.43 568.33,473.39C566.3,470.37 564.16,467.38 562.34,464.31C560.58,461.33 558.92,458.3 557.56,455.23C556.24,452.25 555.15,449.21 554.25,446.15C553.36,443.15 552.73,440.11 552.17,437.07C551.61,434.05 551.23,431.01 550.87,427.98C550.51,424.96 550.25,421.93 549.99,418.9C549.73,415.87 549.51,412.85 549.3,409.82C549.09,406.79 548.9,403.77 548.71,400.74C548.52,397.71 548.34,394.69 548.16,391.66C547.98,388.63 547.81,385.61 547.64,382.58C547.47,379.55 547.3,376.53 547.15,373.5C547,370.47 546.85,367.45 546.73,364.42C546.6,361.39 546.5,358.36 546.4,355.33C546.3,352.3 546.22,349.28 546.14,346.25C546.06,343.22 545.99,340.2 545.91,337.17C545.83,334.14 545.75,331.12 545.66,328.09C545.56,325.06 545.46,322.04 545.34,319.01C545.22,315.98 545.09,312.96 544.96,309.93C544.83,306.9 544.69,303.88 544.55,300.85C544.42,297.82 544.28,294.8 544.15,291.77C544.02,288.74 543.89,285.72 543.77,282.69C543.64,279.66 543.52,276.63 543.4,273.6C543.28,270.57 543.15,267.55 543.03,264.52C542.91,261.49 542.78,258.47 542.66,255.44C542.54,252.41 542.41,249.39 542.29,246.36C542.18,243.33 542.06,240.31 541.97,237.28C541.88,234.25 541.79,231.23 541.73,228.2C541.67,225.17 541.62,222.15 541.59,219.12C541.56,216.09 541.56,213.07 541.55,210.04C541.54,207.01 541.55,203.98 541.56,200.95C541.57,197.92 541.58,194.9 541.59,191.87C541.6,188.84 541.6,185.82 541.61,182.79C541.62,179.76 541.62,176.74 541.63,173.71C541.64,170.68 541.64,167.66 541.65,164.63C541.66,161.6 541.67,158.58 541.68,155.55C541.69,152.52 541.7,149.5 541.7,146.47C541.7,143.44 541.69,140.42 541.67,137.39C541.65,134.36 541.61,131.34 541.55,128.31C541.49,125.28 541.41,122.25 541.33,119.22C541.25,116.19 541.14,113.17 541.05,110.14C540.95,107.11 540.85,104.09 540.76,101.06C540.67,98.03 540.57,95.01 540.49,91.98C540.41,88.95 540.35,85.93 540.29,82.9Q540.23,79.87 540.15,73.82L539.85,73.82Q539.77,79.87 539.71,82.9C539.65,85.93 539.59,88.95 539.51,91.98C539.43,95.01 539.33,98.03 539.24,101.06C539.15,104.09 539.05,107.11 538.95,110.14C538.86,113.17 538.75,116.19 538.67,119.22C538.59,122.25 538.51,125.28 538.45,128.31C538.39,131.34 538.35,134.36 538.33,137.39C538.31,140.42 538.3,143.44 538.3,146.47C538.3,149.5 538.31,152.52 538.32,155.55C538.33,158.58 538.34,161.6 538.35,164.63C538.36,167.66 538.36,170.68 538.37,173.71C538.38,176.74 538.38,179.76 538.39,182.79C538.4,185.82 538.4,188.84 538.41,191.87C538.42,194.9 538.43,197.92 538.44,200.95C538.45,203.98 538.46,207.01 538.45,210.04C538.44,213.07 538.44,216.09 538.41,219.12C538.38,222.15 538.33,225.17 538.27,228.2C538.21,231.23 538.12,234.25 538.03,237.28C537.94,240.31 537.82,243.33 537.71,246.36C537.59,249.39 537.46,252.41 537.34,255.44C537.22,258.47 537.09,261.49 536.97,264.52C536.85,267.55 536.72,270.57 536.6,273.6C536.48,276.63 536.36,279.66 536.23,282.69C536.11,285.72 535.98,288.74 535.85,291.77C535.72,294.8 535.58,297.82 535.45,300.85C535.31,303.88 535.17,306.9 535.04,309.93C534.91,312.96 534.78,315.98 534.66,319.01C534.54,322.04 534.44,325.06 534.34,328.09C534.25,331.12 534.17,334.14 534.09,337.17C534.01,340.2 533.94,343.22 533.86,346.25C533.78,349.28 533.7,352.3 533.6,355.33C533.5,358.36 533.4,361.39 533.27,364.42C533.15,367.45 533,370.47 532.85,373.5C532.7,376.53 532.53,379.55 532.36,382.58C532.19,385.61 532.02,388.63 531.84,391.66C531.66,394.69 531.48,397.71 531.29,400.74C531.1,403.77 530.91,406.79 530.7,409.82C530.49,412.85 530.27,415.87 530.01,418.9C529.75,421.93 529.49,424.96 529.13,427.98C528.77,431.01 528.39,434.05 527.83,437.07C527.27,440.11 526.64,443.15 525.75,446.15C524.85,449.21 523.76,452.25 522.44,455.23C521.08,458.3 519.42,461.33 517.66,464.31C515.84,467.38 513.7,470.37 511.67,473.39C509.63,476.43 507.33,479.39 505.45,482.47C503.63,485.45 501.71,488.44 500.54,491.55C499.43,494.5 498.55,497.6 498.49,500.63C498.43,503.65 499.1,506.77 500.18,509.71C501.32,512.84 503.33,515.85 505.35,518.8C507.48,521.92 510.21,524.87 512.74,527.88C515.31,530.93 518.14,533.89 520.65,536.96C523.1,539.95 525.55,542.94 527.62,546.04C529.6,549 531.41,552.03 532.87,555.12Q534.28,558.09 536.3,564.2Z" style="vector-effect: non-scaling-stroke; stroke-width: 2px; stroke: rgb(239, 85, 59); stroke-opacity: 1; fill: rgb(239, 85, 59); fill-opacity: 0.5;"/><path class="box" d="M94.77,504.58H121.23M94.77,506.87H121.23V406.81H94.77ZM108,506.87V508.89M108,406.81V260.85" style="vector-effect: non-scaling-stroke; stroke-width: 2px; stroke: rgb(239, 85, 59); stroke-opacity: 1; fill: rgb(239, 85, 59); fill-opacity: 0.5;"/><path class="box" d="M310.77,480.65H337.23M310.77,493.72H337.23V437.77H310.77ZM324,493.72V504.7M324,437.77V387.79" style="vector-effect: non-scaling-stroke; stroke-width: 2px; stroke: rgb(239, 85, 59); stroke-opacity: 1; fill: rgb(239, 85, 59); fill-opacity: 0.5;"/><path class="box" d="M526.77,499.42H553.23M526.77,505.98H553.23V418.87H526.77ZM540,505.98V509.08M540,418.87V305.01" style="vector-effect: non-scaling-stroke; stroke-width: 2px; stroke: rgb(239, 85, 59); stroke-opacity: 1; fill: rgb(239, 85, 59); fill-opacity: 0.5;"/><path class="mean" d="M94.77,443.67H121.23" style="fill: none; vector-effect: non-scaling-stroke; stroke-width: 2px; stroke-dasharray: 4px, 2px; stroke: rgb(239, 85, 59); stroke-opacity: 1;"/><path class="mean" d="M310.77,435.7H337.23" style="fill: none; vector-effect: non-scaling-stroke; stroke-width: 2px; stroke-dasharray: 4px, 2px; stroke: rgb(239, 85, 59); stroke-opacity: 1;"/><path class="mean" d="M526.77,446.61H553.23" style="fill: none; vector-effect: non-scaling-stroke; stroke-width: 2px; stroke-dasharray: 4px, 2px; stroke: rgb(239, 85, 59); stroke-opacity: 1;"/></g></g></g><g class="overplot"/><path class="xlines-above crisp" d="M0,0" style="fill: none;"/><path class="ylines-above crisp" d="M0,0" style="fill: none;"/><g class="overlines-above"/><g class="xaxislayer-above"><g class="x2tick"><text text-anchor="middle" x="0" y="733" transform="translate(980.0000000000001,0)" style="font-family: 'Open Sans', verdana, arial, sans-serif; font-size: 12px; fill: rgb(42, 63, 95); fill-opacity: 1; white-space: pre; opacity: 1;">&#60;=1</text></g><g class="x2tick"><text text-anchor="middle" x="0" y="733" transform="translate(1196,0)" style="font-family: 'Open Sans', verdana, arial, sans-serif; font-size: 12px; fill: rgb(42, 63, 95); fill-opacity: 1; white-space: pre; opacity: 1;">(1, 2]</text></g><g class="x2tick"><text text-anchor="middle" x="0" y="733" transform="translate(1412,0)" style="font-family: 'Open Sans', verdana, arial, sans-serif; font-size: 12px; fill: rgb(42, 63, 95); fill-opacity: 1; white-space: pre; opacity: 1;">>2</text></g></g><g class="yaxislayer-above"><g class="y2tick"><text text-anchor="end" x="871.0000000000001" y="4.199999999999999" transform="translate(0,609.26)" style="font-family: 'Open Sans', verdana, arial, sans-serif; font-size: 12px; fill: rgb(42, 63, 95); fill-opacity: 1; white-space: pre; opacity: 1;">0</text></g><g class="y2tick"><text text-anchor="end" x="871.0000000000001" y="4.199999999999999" style="font-family: 'Open Sans', verdana, arial, sans-serif; font-size: 12px; fill: rgb(42, 63, 95); fill-opacity: 1; white-space: pre; opacity: 1;" transform="translate(0,492.39)">0.5M</text></g><g class="y2tick"><text text-anchor="end" x="871.0000000000001" y="4.199999999999999" style="font-family: 'Open Sans', verdana, arial, sans-serif; font-size: 12px; fill: rgb(42, 63, 95); fill-opacity: 1; white-space: pre; opacity: 1;" transform="translate(0,375.51)">1M</text></g><g class="y2tick"><text text-anchor="end" x="871.0000000000001" y="4.199999999999999" style="font-family: 'Open Sans', verdana, arial, sans-serif; font-size: 12px; fill: rgb(42, 63, 95); fill-opacity: 1; white-space: pre; opacity: 1;" transform="translate(0,258.63)">1.5M</text></g><g class="y2tick"><text text-anchor="end" x="871.0000000000001" y="4.199999999999999" style="font-family: 'Open Sans', verdana, arial, sans-serif; font-size: 12px; fill: rgb(42, 63, 95); fill-opacity: 1; white-space: pre; opacity: 1;" transform="translate(0,141.76)">2M</text></g></g><g class="overaxes-above"/></g></g><g class="polarlayer"/><g class="smithlayer"/><g class="ternarylayer"/><g class="geolayer"/><g class="funnelarealayer"/><g class="pielayer"/><g class="iciclelayer"/><g class="treemaplayer"/><g class="sunburstlayer"/><g class="glimages"/><defs id="topdefs-598ff7"><g class="clips"/></defs><g class="layer-above"><g class="imagelayer"/><g class="shapelayer"/></g><g class="infolayer"><g class="g-gtitle"><text class="gtitle" x="80" y="50" text-anchor="start" dy="0em" style="font-family: 'Open Sans', verdana, arial, sans-serif; font-size: 17px; fill: rgb(42, 63, 95); opacity: 1; font-weight: normal; white-space: pre;">whole_rank Distributions</text></g><g class="g-xtitle"><text class="xtitle" x="404" y="761.8" text-anchor="middle" style="font-family: 'Open Sans', verdana, arial, sans-serif; font-size: 14px; fill: rgb(42, 63, 95); opacity: 1; font-weight: normal; white-space: pre;">Hardcover over Paperback</text></g><g class="g-x2title"><text class="x2title" x="1196" y="761.8" text-anchor="middle" style="font-family: 'Open Sans', verdana, arial, sans-serif; font-size: 14px; fill: rgb(42, 63, 95); opacity: 1; font-weight: normal; white-space: pre;">Hardcover over Paperback</text></g><g class="g-ytitle"><text class="ytitle" transform="rotate(-90,19.668750000000003,410)" x="19.668750000000003" y="410" text-anchor="middle" style="font-family: 'Open Sans', verdana, arial, sans-serif; font-size: 14px; fill: rgb(42, 63, 95); opacity: 1; font-weight: normal; white-space: pre;">whole_rank</text></g><g class="g-y2title"><text class="y2title" transform="rotate(-90,818.528125,410)" x="818.528125" y="410" text-anchor="middle" style="font-family: 'Open Sans', verdana, arial, sans-serif; font-size: 14px; fill: rgb(42, 63, 95); opacity: 1; font-weight: normal; white-space: pre;">whole_rank</text></g><g class="annotation" data-index="0" style="opacity: 1;"><g class="annotation-text-g" transform="rotate(0,404,87)"><g class="cursor-pointer" transform="translate(363,74)"><rect class="bg" x="0.5" y="0.5" width="82" height="25" style="stroke-width: 1px; stroke: rgb(0, 0, 0); stroke-opacity: 0; fill: rgb(0, 0, 0); fill-opacity: 0;"/><text class="annotation-text" text-anchor="middle" x="41.296875" y="19" style="font-family: 'Open Sans', verdana, arial, sans-serif; font-size: 16px; fill: rgb(42, 63, 95); fill-opacity: 1; white-space: pre;">Paperback</text></g></g></g><g class="annotation" data-index="1" style="opacity: 1;"><g class="annotation-text-g" transform="rotate(0,1196,87)"><g class="cursor-pointer" transform="translate(1155,74)"><rect class="bg" x="0.5" y="0.5" width="81" height="25" style="stroke-width: 1px; stroke: rgb(0, 0, 0); stroke-opacity: 0; fill: rgb(0, 0, 0); fill-opacity: 0;"/><text class="annotation-text" text-anchor="middle" x="40.921875" y="19" style="font-family: 'Open Sans', verdana, arial, sans-serif; font-size: 16px; fill: rgb(42, 63, 95); fill-opacity: 1; white-space: pre;">Hardcover</text></g></g></g></g></svg>