<svg class="main-svg" xmlns="http://www.w3.org/2000/svg" xmlns:xlink="http://www.w3.org/1999/xlink" width="1200" height="600" style="" viewBox="0 0 1200 600"><rect x="0" y="0" width="1200" height="600" style="fill: rgb(255, 255, 255); fill-opacity: 1;"/><defs id="defs-bd3cac"><g class="clips"><clipPath id="clipbd3cacxyplot" class="plotclip"><rect width="468" height="420"/></clipPath><clipPath id="clipbd3cacx2y2plot" class="plotclip"><rect width="467.99999999999994" height="420"/></clipPath><clipPath class="axesclip" id="clipbd3cacx"><rect x="80" y="0" width="468" height="600"/></clipPath><clipPath class="axesclip" id="clipbd3cacy"><rect x="0" y="100" width="1200" height="420"/></clipPath><clipPath class="axesclip" id="clipbd3cacxy"><rect x="80" y="100" width="468" height="420"/></clipPath><clipPath class="axesclip" id="clipbd3cacy2"><rect x="0" y="100" width="1200" height="420"/></clipPath><clipPath class="axesclip" id="clipbd3cacxy2"><rect x="80" y="100" width="468" height="420"/></clipPath><clipPath class="axesclip" id="clipbd3cacx2"><rect x="652" y="0" width="467.99999999999994" height="600"/></clipPath><clipPath class="axesclip" id="clipbd3cacx2y"><rect x="652" y="100" width="467.99999999999994" height="420"/></clipPath><clipPath class="axesclip" id="clipbd3cacx2y2"><rect x="652" y="100" width="467.99999999999994" height="420"/></clipPath></g><g class="gradients"/><g class="patterns"/></defs><g class="bglayer"><rect class="bg" x="80" y="100" width="468" height="420" style="fill: rgb(229, 236, 246); fill-opacity: 1; stroke-width: 0;"/><rect class="bg" x="652" y="100" width="467.99999999999994" height="420" style="fill: rgb(229, 236, 246); fill-opacity: 1; stroke-width: 0;"/></g><g class="layer-below"><g class="imagelayer"/><g class="shapelayer"/></g><g class="cartesianlayer"><g class="subplot xy"><g class="layer-subplot"><g class="shapelayer"/><g class="imagelayer"/></g><g class="minor-gridlayer"><g class="x"/><g class="y"/></g><g class="gridlayer"><g class="x"/><g class="y"><path class="ygrid crisp" transform="translate(0,438.62)" d="M80,0h468" style="stroke: rgb(255, 255, 255); stroke-opacity: 1; stroke-width: 1px;"/><path class="ygrid crisp" transform="translate(0,373.09)" d="M80,0h468" style="stroke: rgb(255, 255, 255); stroke-opacity: 1; stroke-width: 1px;"/><path class="ygrid crisp" transform="translate(0,307.57)" d="M80,0h468" style="stroke: rgb(255, 255, 255); stroke-opacity: 1; stroke-width: 1px;"/><path class="ygrid crisp" transform="translate(0,242.05)" d="M80,0h468" style="stroke: rgb(255, 255, 255); stroke-opacity: 1; stroke-width: 1px;"/><path class="ygrid crisp" transform="translate(0,176.51999999999998)" d="M80,0h468" style="stroke: rgb(255, 255, 255); stroke-opacity: 1; stroke-width: 1px;"/><path class="ygrid crisp" transform="translate(0,111)" d="M80,0h468" style="stroke: rgb(255, 255, 255); stroke-opacity: 1; stroke-width: 1px;"/></g></g><g class="zerolinelayer"><path class="yzl zl crisp" transform="translate(0,504.14)" d="M80,0h468" style="stroke: rgb(255, 255, 255); stroke-opacity: 1; stroke-width: 2px;"/></g><path class="xlines-below"/><path class="ylines-below"/><g class="overlines-below"/><g class="xaxislayer-below"/><g class="yaxislayer-below"/><g class="overaxes-below"/><g class="plot" transform="translate(80,100)" clip-path="url(#clipbd3cacxyplot)"><g class="violinlayer mlayer"><g class="trace violins" style="opacity: 1;"><path class="violin" d="M78.01,353.38Q78.02,352.77 78.02,352.47C78.02,352.17 78.03,351.87 78.03,351.57C78.04,351.27 78.04,350.96 78.05,350.66C78.06,350.36 78.07,350.06 78.07,349.76C78.08,349.46 78.08,349.15 78.08,348.85C78.08,348.55 78.09,348.25 78.09,347.95C78.09,347.65 78.09,347.34 78.09,347.04C78.09,346.74 78.08,346.44 78.08,346.14C78.08,345.84 78.08,345.53 78.07,345.23C78.07,344.93 78.06,344.63 78.05,344.33C78.04,344.03 78.04,343.72 78.03,343.42C78.03,343.12 78.02,342.82 78.02,342.52C78.02,342.22 78.01,341.92 78.01,341.62C78.01,341.32 78.01,341.01 78.01,340.71C78.01,340.41 78.01,340.11 78.01,339.81C78.01,339.51 78.01,339.2 78.01,338.9C78.01,338.6 78.01,338.3 78.01,338C78.01,337.7 78.02,337.39 78.02,337.09C78.02,336.79 78.02,336.49 78.02,336.19C78.02,335.89 78.03,335.58 78.03,335.28C78.03,334.98 78.04,334.68 78.04,334.38C78.04,334.08 78.04,333.77 78.04,333.47C78.04,333.17 78.04,332.87 78.04,332.57C78.04,332.27 78.05,331.96 78.05,331.66C78.05,331.36 78.05,331.06 78.05,330.76C78.05,330.46 78.05,330.15 78.05,329.85C78.05,329.55 78.06,329.25 78.06,328.95C78.06,328.65 78.07,328.34 78.07,328.04C78.07,327.74 78.08,327.44 78.08,327.14C78.08,326.84 78.09,326.53 78.09,326.23C78.09,325.93 78.1,325.63 78.1,325.33C78.1,325.03 78.09,324.72 78.09,324.42C78.09,324.12 78.08,323.82 78.08,323.52C78.08,323.22 78.07,322.92 78.07,322.62C78.07,322.32 78.06,322.01 78.06,321.71C78.06,321.41 78.05,321.11 78.05,320.81C78.05,320.51 78.04,320.2 78.04,319.9C78.04,319.6 78.03,319.3 78.03,319C78.03,318.7 78.03,318.39 78.03,318.09C78.03,317.79 78.02,317.49 78.02,317.19C78.02,316.89 78.02,316.58 78.02,316.28C78.02,315.98 78.02,315.68 78.02,315.38C78.02,315.08 78.03,314.77 78.03,314.47C78.03,314.17 78.04,313.87 78.04,313.57C78.04,313.27 78.04,312.96 78.04,312.66C78.04,312.36 78.05,312.06 78.05,311.76C78.05,311.46 78.06,311.15 78.06,310.85C78.06,310.55 78.06,310.25 78.06,309.95C78.06,309.65 78.06,309.34 78.06,309.04C78.06,308.74 78.06,308.44 78.06,308.14C78.06,307.84 78.06,307.53 78.06,307.23C78.06,306.93 78.06,306.63 78.06,306.33C78.06,306.03 78.06,305.73 78.06,305.43C78.06,305.13 78.05,304.82 78.05,304.52C78.05,304.22 78.04,303.92 78.04,303.62C78.04,303.32 78.04,303.01 78.04,302.71C78.04,302.41 78.03,302.11 78.03,301.81C78.03,301.51 78.03,301.2 78.03,300.9C78.03,300.6 78.03,300.3 78.03,300C78.03,299.7 78.03,299.39 78.03,299.09C78.03,298.79 78.02,298.49 78.02,298.19C78.02,297.89 78.02,297.58 78.02,297.28C78.02,296.98 78.01,296.68 78.01,296.38C78.01,296.08 78.01,295.77 78.01,295.47C78.01,295.17 78,294.87 78,294.57C78,294.27 78,293.96 78,293.66C78,293.36 78,293.06 78,292.76C78,292.46 78,292.15 78,291.85C78,291.55 78,291.25 78,290.95C78,290.65 78,290.34 78,290.04C78,289.74 78.01,289.44 78.01,289.14C78.01,288.84 78.01,288.53 78.01,288.23C78.01,287.93 78.02,287.63 78.02,287.33C78.03,287.03 78.04,286.73 78.04,286.43C78.05,286.13 78.05,285.82 78.05,285.52C78.05,285.22 78.06,284.92 78.06,284.62C78.06,284.32 78.07,284.01 78.07,283.71C78.07,283.41 78.07,283.11 78.07,282.81C78.07,282.51 78.07,282.2 78.07,281.9C78.07,281.6 78.06,281.3 78.06,281C78.06,280.7 78.05,280.39 78.05,280.09C78.05,279.79 78.04,279.49 78.04,279.19C78.04,278.89 78.04,278.58 78.04,278.28C78.04,277.98 78.04,277.68 78.04,277.38C78.04,277.08 78.04,276.77 78.04,276.47C78.04,276.17 78.04,275.87 78.04,275.57C78.04,275.27 78.04,274.96 78.04,274.66C78.04,274.36 78.04,274.06 78.04,273.76C78.04,273.46 78.04,273.15 78.04,272.85C78.04,272.55 78.03,272.25 78.03,271.95C78.03,271.65 78.03,271.34 78.03,271.04C78.03,270.74 78.03,270.44 78.03,270.14C78.03,269.84 78.03,269.54 78.03,269.24C78.03,268.94 78.03,268.63 78.03,268.33C78.03,268.03 78.03,267.73 78.03,267.43C78.03,267.13 78.03,266.82 78.03,266.52C78.03,266.22 78.03,265.92 78.03,265.62C78.03,265.32 78.02,265.01 78.02,264.71C78.02,264.41 78.02,264.11 78.02,263.81C78.02,263.51 78.02,263.2 78.02,262.9C78.02,262.6 78.03,262.3 78.03,262C78.03,261.7 78.03,261.39 78.03,261.09C78.03,260.79 78.02,260.49 78.02,260.19C78.02,259.89 78.02,259.58 78.02,259.28C78.02,258.98 78.02,258.68 78.02,258.38C78.02,258.08 78.02,257.77 78.02,257.47C78.02,257.17 78.01,256.87 78.01,256.57C78.01,256.27 78.01,255.96 78.01,255.66C78.01,255.36 78.02,255.06 78.02,254.76C78.02,254.46 78.02,254.15 78.02,253.85C78.02,253.55 78.02,253.25 78.02,252.95C78.02,252.65 78.02,252.34 78.02,252.04C78.02,251.74 78.02,251.44 78.02,251.14C78.02,250.84 78.02,250.54 78.02,250.24C78.02,249.94 78.01,249.63 78.01,249.33C78.01,249.03 78.01,248.73 78.01,248.43C78.01,248.13 78.01,247.82 78.01,247.52C78.01,247.22 78.01,246.92 78.01,246.62C78.01,246.32 78.01,246.01 78.01,245.71C78.01,245.41 78.01,245.11 78.01,244.81C78.01,244.51 78.01,244.2 78.01,243.9C78.01,243.6 78.02,243.3 78.02,243C78.02,242.7 78.02,242.39 78.02,242.09C78.02,241.79 78.02,241.49 78.02,241.19C78.02,240.89 78.03,240.58 78.03,240.28C78.03,239.98 78.03,239.68 78.03,239.38C78.03,239.08 78.02,238.77 78.02,238.47C78.02,238.17 78.02,237.87 78.02,237.57C78.02,237.27 78.03,236.96 78.03,236.66C78.03,236.36 78.03,236.06 78.03,235.76C78.03,235.46 78.03,235.15 78.04,234.85C78.04,234.55 78.05,234.25 78.06,233.95C78.06,233.65 78.07,233.35 78.07,233.05C78.07,232.75 78.08,232.44 78.08,232.14C78.08,231.84 78.08,231.54 78.08,231.24C78.08,230.94 78.08,230.63 78.08,230.33C78.08,230.03 78.08,229.73 78.08,229.43C78.08,229.13 78.07,228.82 78.07,228.52C78.07,228.22 78.06,227.92 78.06,227.62C78.06,227.32 78.06,227.01 78.06,226.71C78.06,226.41 78.07,226.11 78.07,225.81C78.07,225.51 78.07,225.2 78.08,224.9C78.09,224.6 78.1,224.3 78.11,224C78.12,223.7 78.12,223.39 78.13,223.09C78.14,222.79 78.15,222.49 78.15,222.19C78.15,221.89 78.15,221.58 78.15,221.28C78.15,220.98 78.15,220.68 78.15,220.38C78.15,220.08 78.15,219.77 78.14,219.47C78.14,219.17 78.13,218.87 78.12,218.57C78.11,218.27 78.11,217.96 78.1,217.66C78.09,217.36 78.08,217.06 78.08,216.76C78.07,216.46 78.07,216.15 78.07,215.85C78.07,215.55 78.06,215.25 78.06,214.95C78.06,214.65 78.05,214.35 78.05,214.05C78.05,213.75 78.05,213.44 78.05,213.14C78.05,212.84 78.05,212.54 78.05,212.24C78.05,211.94 78.05,211.63 78.05,211.33C78.05,211.03 78.05,210.73 78.05,210.43C78.05,210.13 78.05,209.82 78.05,209.52C78.05,209.22 78.05,208.92 78.05,208.62C78.05,208.32 78.05,208.01 78.05,207.71C78.05,207.41 78.06,207.11 78.06,206.81C78.06,206.51 78.06,206.2 78.06,205.9C78.06,205.6 78.06,205.3 78.06,205C78.06,204.7 78.07,204.39 78.07,204.09C78.07,203.79 78.08,203.49 78.08,203.19C78.08,202.89 78.08,202.58 78.09,202.28C78.09,201.98 78.1,201.68 78.11,201.38C78.12,201.08 78.12,200.77 78.13,200.47C78.14,200.17 78.15,199.87 78.15,199.57C78.15,199.27 78.15,198.96 78.15,198.66C78.15,198.36 78.15,198.06 78.15,197.76C78.15,197.46 78.14,197.16 78.14,196.86C78.13,196.56 78.13,196.25 78.12,195.95C78.11,195.65 78.11,195.35 78.1,195.05C78.09,194.75 78.09,194.44 78.08,194.14C78.07,193.84 78.06,193.54 78.06,193.24C78.06,192.94 78.06,192.63 78.06,192.33C78.06,192.03 78.06,191.73 78.06,191.43C78.06,191.13 78.06,190.82 78.07,190.52C78.07,190.22 78.08,189.92 78.09,189.62C78.1,189.32 78.11,189.01 78.12,188.71C78.13,188.41 78.14,188.11 78.15,187.81C78.16,187.51 78.16,187.2 78.17,186.9C78.17,186.6 78.18,186.3 78.18,186C78.18,185.7 78.18,185.39 78.18,185.09C78.18,184.79 78.17,184.49 78.16,184.19C78.15,183.89 78.14,183.58 78.13,183.28C78.12,182.98 78.12,182.68 78.11,182.38C78.1,182.08 78.1,181.77 78.09,181.47C78.08,181.17 78.07,180.87 78.07,180.57C78.07,180.27 78.07,179.96 78.07,179.66C78.07,179.36 78.07,179.06 78.07,178.76C78.07,178.46 78.08,178.16 78.08,177.86C78.08,177.56 78.09,177.25 78.09,176.95C78.09,176.65 78.1,176.35 78.1,176.05C78.1,175.75 78.1,175.44 78.1,175.14C78.1,174.84 78.1,174.54 78.1,174.24C78.1,173.94 78.1,173.63 78.1,173.33C78.1,173.03 78.1,172.73 78.1,172.43C78.1,172.13 78.09,171.82 78.09,171.52C78.09,171.22 78.09,170.92 78.09,170.62C78.09,170.32 78.1,170.01 78.1,169.71C78.1,169.41 78.11,169.11 78.11,168.81C78.12,168.51 78.12,168.2 78.13,167.9C78.14,167.6 78.14,167.3 78.15,167C78.16,166.7 78.17,166.39 78.18,166.09C78.19,165.79 78.21,165.49 78.22,165.19C78.24,164.89 78.26,164.58 78.27,164.28C78.28,163.98 78.29,163.68 78.3,163.38C78.31,163.08 78.31,162.77 78.31,162.47C78.31,162.17 78.31,161.87 78.31,161.57C78.31,161.27 78.29,160.96 78.28,160.66C78.27,160.36 78.25,160.06 78.24,159.76C78.23,159.46 78.21,159.16 78.2,158.86C78.19,158.56 78.17,158.25 78.16,157.95C78.15,157.65 78.14,157.35 78.14,157.05C78.13,156.75 78.13,156.44 78.13,156.14C78.13,155.84 78.13,155.54 78.13,155.24C78.13,154.94 78.13,154.63 78.14,154.33C78.14,154.03 78.15,153.73 78.16,153.43C78.17,153.13 78.18,152.82 78.19,152.52C78.2,152.22 78.21,151.92 78.22,151.62C78.23,151.32 78.24,151.01 78.25,150.71C78.26,150.41 78.27,150.11 78.28,149.81C78.29,149.51 78.29,149.2 78.3,148.9C78.3,148.6 78.31,148.3 78.31,148C78.31,147.7 78.32,147.39 78.32,147.09C78.32,146.79 78.32,146.49 78.32,146.19C78.32,145.89 78.32,145.58 78.32,145.28C78.32,144.98 78.32,144.68 78.32,144.38C78.32,144.08 78.33,143.77 78.33,143.47C78.33,143.17 78.33,142.87 78.33,142.57C78.33,142.27 78.32,141.97 78.32,141.67C78.32,141.37 78.32,141.06 78.31,140.76C78.3,140.46 78.29,140.16 78.28,139.86C78.27,139.56 78.27,139.25 78.26,138.95C78.25,138.65 78.24,138.35 78.23,138.05C78.22,137.75 78.22,137.44 78.21,137.14C78.21,136.84 78.2,136.54 78.2,136.24C78.2,135.94 78.2,135.63 78.21,135.33C78.21,135.03 78.22,134.73 78.23,134.43C78.24,134.13 78.25,133.82 78.26,133.52C78.27,133.22 78.29,132.92 78.3,132.62C78.31,132.32 78.33,132.01 78.34,131.71C78.35,131.41 78.37,131.11 78.38,130.81C78.39,130.51 78.39,130.2 78.4,129.9C78.41,129.6 78.42,129.3 78.42,129C78.42,128.7 78.42,128.39 78.42,128.09C78.42,127.79 78.42,127.49 78.42,127.19C78.42,126.89 78.42,126.58 78.42,126.28C78.42,125.98 78.42,125.68 78.42,125.38C78.42,125.08 78.42,124.77 78.43,124.47C78.43,124.17 78.44,123.87 78.45,123.57C78.46,123.27 78.46,122.97 78.47,122.67C78.48,122.37 78.49,122.06 78.49,121.76C78.49,121.46 78.49,121.16 78.49,120.86C78.49,120.56 78.48,120.25 78.47,119.95C78.46,119.65 78.44,119.35 78.42,119.05C78.4,118.75 78.39,118.44 78.37,118.14C78.35,117.84 78.33,117.54 78.31,117.24C78.29,116.94 78.28,116.63 78.27,116.33C78.26,116.03 78.25,115.73 78.25,115.43C78.25,115.13 78.24,114.82 78.25,114.52C78.26,114.22 78.27,113.92 78.29,113.62C78.31,113.32 78.33,113.01 78.35,112.71C78.37,112.41 78.41,112.11 78.43,111.81C78.46,111.51 78.48,111.2 78.5,110.9C78.52,110.6 78.55,110.3 78.56,110C78.58,109.7 78.59,109.39 78.59,109.09C78.59,108.79 78.59,108.49 78.58,108.19C78.57,107.89 78.56,107.58 78.54,107.28C78.52,106.98 78.5,106.68 78.48,106.38C78.46,106.08 78.42,105.78 78.4,105.48C78.37,105.18 78.35,104.87 78.33,104.57C78.31,104.27 78.29,103.97 78.27,103.67C78.25,103.37 78.23,103.06 78.22,102.76C78.21,102.46 78.21,102.16 78.2,101.86C78.19,101.56 78.18,101.25 78.18,100.95C78.18,100.65 78.18,100.35 78.18,100.05C78.18,99.75 78.19,99.44 78.19,99.14C78.19,98.84 78.2,98.54 78.2,98.24C78.2,97.94 78.21,97.63 78.21,97.33C78.21,97.03 78.21,96.73 78.21,96.43C78.21,96.13 78.21,95.82 78.21,95.52C78.21,95.22 78.2,94.92 78.2,94.62C78.2,94.32 78.2,94.01 78.19,93.71C78.18,93.41 78.17,93.11 78.16,92.81C78.15,92.51 78.14,92.2 78.13,91.9C78.12,91.6 78.11,91.3 78.1,91C78.09,90.7 78.08,90.39 78.07,90.09C78.06,89.79 78.05,89.49 78.04,89.19C78.03,88.89 78.03,88.58 78.03,88.28C78.03,87.98 78.02,87.68 78.02,87.38C78.02,87.08 78.02,86.78 78.03,86.48C78.04,86.18 78.05,85.87 78.08,85.57C78.11,85.27 78.14,84.97 78.22,84.67C78.3,84.36 78.4,84.05 78.56,83.76C78.74,83.44 78.98,83.14 79.28,82.86C79.64,82.53 80.12,82.23 80.64,81.95C81.28,81.61 82.05,81.33 82.86,81.05C83.81,80.72 84.91,80.43 86.01,80.14C87.22,79.82 88.55,79.54 89.82,79.24C91.09,78.94 92.44,78.65 93.61,78.33C94.63,78.05 95.75,77.82 96.44,77.43C96.91,77.17 97.49,76.82 97.49,76.52C97.49,76.22 96.91,75.88 96.44,75.62C95.75,75.24 94.63,74.99 93.61,74.71C92.44,74.38 91.08,74.11 89.82,73.81C88.55,73.51 87.22,73.22 86.01,72.9C84.91,72.61 83.81,72.33 82.86,72Q82.05,71.72 80.64,71.09L75.36,71.09Q73.95,71.72 73.14,72C72.19,72.33 71.09,72.61 69.99,72.9C68.78,73.22 67.45,73.51 66.18,73.81C64.92,74.11 63.56,74.38 62.39,74.71C61.37,74.99 60.25,75.24 59.56,75.62C59.09,75.88 58.51,76.22 58.51,76.52C58.51,76.82 59.09,77.17 59.56,77.43C60.25,77.82 61.37,78.05 62.39,78.33C63.56,78.65 64.91,78.94 66.18,79.24C67.45,79.54 68.78,79.82 69.99,80.14C71.09,80.43 72.19,80.72 73.14,81.05C73.95,81.33 74.72,81.61 75.36,81.95C75.88,82.23 76.36,82.53 76.72,82.86C77.02,83.14 77.26,83.44 77.44,83.76C77.6,84.05 77.7,84.36 77.78,84.67C77.86,84.97 77.89,85.27 77.92,85.57C77.95,85.87 77.96,86.18 77.97,86.48C77.98,86.78 77.98,87.08 77.98,87.38C77.98,87.68 77.97,87.98 77.97,88.28C77.97,88.58 77.97,88.89 77.96,89.19C77.95,89.49 77.94,89.79 77.93,90.09C77.92,90.39 77.91,90.7 77.9,91C77.89,91.3 77.88,91.6 77.87,91.9C77.86,92.2 77.85,92.51 77.84,92.81C77.83,93.11 77.82,93.41 77.81,93.71C77.8,94.01 77.8,94.32 77.8,94.62C77.8,94.92 77.79,95.22 77.79,95.52C77.79,95.82 77.79,96.13 77.79,96.43C77.79,96.73 77.79,97.03 77.79,97.33C77.79,97.63 77.8,97.94 77.8,98.24C77.8,98.54 77.81,98.84 77.81,99.14C77.81,99.44 77.82,99.75 77.82,100.05C77.82,100.35 77.82,100.65 77.82,100.95C77.82,101.25 77.81,101.56 77.8,101.86C77.79,102.16 77.79,102.46 77.78,102.76C77.77,103.06 77.75,103.37 77.73,103.67C77.71,103.97 77.69,104.27 77.67,104.57C77.65,104.87 77.63,105.18 77.6,105.48C77.58,105.78 77.54,106.08 77.52,106.38C77.5,106.68 77.48,106.98 77.46,107.28C77.44,107.58 77.43,107.89 77.42,108.19C77.41,108.49 77.41,108.79 77.41,109.09C77.41,109.39 77.42,109.7 77.44,110C77.45,110.3 77.48,110.6 77.5,110.9C77.52,111.2 77.54,111.51 77.57,111.81C77.59,112.11 77.63,112.41 77.65,112.71C77.67,113.01 77.69,113.32 77.71,113.62C77.73,113.92 77.74,114.22 77.75,114.52C77.76,114.82 77.75,115.13 77.75,115.43C77.75,115.73 77.74,116.03 77.73,116.33C77.72,116.63 77.71,116.94 77.69,117.24C77.67,117.54 77.65,117.84 77.63,118.14C77.61,118.44 77.6,118.75 77.58,119.05C77.56,119.35 77.54,119.65 77.53,119.95C77.52,120.25 77.51,120.56 77.51,120.86C77.51,121.16 77.51,121.46 77.51,121.76C77.51,122.06 77.52,122.37 77.53,122.67C77.54,122.97 77.54,123.27 77.55,123.57C77.56,123.87 77.57,124.17 77.57,124.47C77.58,124.77 77.58,125.08 77.58,125.38C77.58,125.68 77.58,125.98 77.58,126.28C77.58,126.58 77.58,126.89 77.58,127.19C77.58,127.49 77.58,127.79 77.58,128.09C77.58,128.39 77.58,128.7 77.58,129C77.58,129.3 77.59,129.6 77.6,129.9C77.61,130.2 77.61,130.51 77.62,130.81C77.63,131.11 77.65,131.41 77.66,131.71C77.67,132.01 77.69,132.32 77.7,132.62C77.71,132.92 77.73,133.22 77.74,133.52C77.75,133.82 77.76,134.13 77.77,134.43C77.78,134.73 77.79,135.03 77.79,135.33C77.8,135.63 77.8,135.94 77.8,136.24C77.8,136.54 77.79,136.84 77.79,137.14C77.78,137.44 77.78,137.75 77.77,138.05C77.76,138.35 77.75,138.65 77.74,138.95C77.73,139.25 77.73,139.56 77.72,139.86C77.71,140.16 77.7,140.46 77.69,140.76C77.68,141.06 77.68,141.37 77.68,141.67C77.68,141.97 77.67,142.27 77.67,142.57C77.67,142.87 77.67,143.17 77.67,143.47C77.67,143.77 77.68,144.08 77.68,144.38C77.68,144.68 77.68,144.98 77.68,145.28C77.68,145.58 77.68,145.89 77.68,146.19C77.68,146.49 77.68,146.79 77.68,147.09C77.68,147.39 77.69,147.7 77.69,148C77.69,148.3 77.7,148.6 77.7,148.9C77.71,149.2 77.71,149.51 77.72,149.81C77.73,150.11 77.74,150.41 77.75,150.71C77.76,151.01 77.77,151.32 77.78,151.62C77.79,151.92 77.8,152.22 77.81,152.52C77.82,152.82 77.83,153.13 77.84,153.43C77.85,153.73 77.86,154.03 77.86,154.33C77.87,154.63 77.87,154.94 77.87,155.24C77.87,155.54 77.87,155.84 77.87,156.14C77.87,156.44 77.87,156.75 77.86,157.05C77.86,157.35 77.85,157.65 77.84,157.95C77.83,158.25 77.81,158.56 77.8,158.86C77.79,159.16 77.77,159.46 77.76,159.76C77.75,160.06 77.73,160.36 77.72,160.66C77.71,160.96 77.69,161.27 77.69,161.57C77.69,161.87 77.69,162.17 77.69,162.47C77.69,162.77 77.69,163.08 77.7,163.38C77.71,163.68 77.72,163.98 77.73,164.28C77.74,164.58 77.76,164.89 77.78,165.19C77.79,165.49 77.81,165.79 77.82,166.09C77.83,166.39 77.84,166.7 77.85,167C77.86,167.3 77.86,167.6 77.87,167.9C77.88,168.2 77.88,168.51 77.89,168.81C77.89,169.11 77.9,169.41 77.9,169.71C77.9,170.01 77.91,170.32 77.91,170.62C77.91,170.92 77.91,171.22 77.91,171.52C77.91,171.82 77.9,172.13 77.9,172.43C77.9,172.73 77.9,173.03 77.9,173.33C77.9,173.63 77.9,173.94 77.9,174.24C77.9,174.54 77.9,174.84 77.9,175.14C77.9,175.44 77.9,175.75 77.9,176.05C77.9,176.35 77.91,176.65 77.91,176.95C77.91,177.25 77.92,177.56 77.92,177.86C77.92,178.16 77.93,178.46 77.93,178.76C77.93,179.06 77.93,179.36 77.93,179.66C77.93,179.96 77.93,180.27 77.93,180.57C77.93,180.87 77.92,181.17 77.91,181.47C77.9,181.77 77.9,182.08 77.89,182.38C77.88,182.68 77.88,182.98 77.87,183.28C77.86,183.58 77.85,183.89 77.84,184.19C77.83,184.49 77.82,184.79 77.82,185.09C77.82,185.39 77.82,185.7 77.82,186C77.82,186.3 77.83,186.6 77.83,186.9C77.84,187.2 77.84,187.51 77.85,187.81C77.86,188.11 77.87,188.41 77.88,188.71C77.89,189.01 77.9,189.32 77.91,189.62C77.92,189.92 77.93,190.22 77.93,190.52C77.94,190.82 77.94,191.13 77.94,191.43C77.94,191.73 77.94,192.03 77.94,192.33C77.94,192.63 77.94,192.94 77.94,193.24C77.94,193.54 77.93,193.84 77.92,194.14C77.91,194.44 77.91,194.75 77.9,195.05C77.89,195.35 77.89,195.65 77.88,195.95C77.87,196.25 77.87,196.56 77.86,196.86C77.86,197.16 77.85,197.46 77.85,197.76C77.85,198.06 77.85,198.36 77.85,198.66C77.85,198.96 77.85,199.27 77.85,199.57C77.85,199.87 77.86,200.17 77.87,200.47C77.88,200.77 77.88,201.08 77.89,201.38C77.9,201.68 77.91,201.98 77.91,202.28C77.92,202.58 77.92,202.89 77.92,203.19C77.92,203.49 77.93,203.79 77.93,204.09C77.93,204.39 77.94,204.7 77.94,205C77.94,205.3 77.94,205.6 77.94,205.9C77.94,206.2 77.94,206.51 77.94,206.81C77.94,207.11 77.95,207.41 77.95,207.71C77.95,208.01 77.95,208.32 77.95,208.62C77.95,208.92 77.95,209.22 77.95,209.52C77.95,209.82 77.95,210.13 77.95,210.43C77.95,210.73 77.95,211.03 77.95,211.33C77.95,211.63 77.95,211.94 77.95,212.24C77.95,212.54 77.95,212.84 77.95,213.14C77.95,213.44 77.95,213.75 77.95,214.05C77.95,214.35 77.94,214.65 77.94,214.95C77.94,215.25 77.93,215.55 77.93,215.85C77.93,216.15 77.93,216.46 77.92,216.76C77.92,217.06 77.91,217.36 77.9,217.66C77.89,217.96 77.89,218.27 77.88,218.57C77.87,218.87 77.86,219.17 77.86,219.47C77.85,219.77 77.85,220.08 77.85,220.38C77.85,220.68 77.85,220.98 77.85,221.28C77.85,221.58 77.85,221.89 77.85,222.19C77.85,222.49 77.86,222.79 77.87,223.09C77.88,223.39 77.88,223.7 77.89,224C77.9,224.3 77.91,224.6 77.92,224.9C77.93,225.2 77.93,225.51 77.93,225.81C77.93,226.11 77.94,226.41 77.94,226.71C77.94,227.01 77.94,227.32 77.94,227.62C77.94,227.92 77.93,228.22 77.93,228.52C77.93,228.82 77.92,229.13 77.92,229.43C77.92,229.73 77.92,230.03 77.92,230.33C77.92,230.63 77.92,230.94 77.92,231.24C77.92,231.54 77.92,231.84 77.92,232.14C77.92,232.44 77.93,232.75 77.93,233.05C77.93,233.35 77.94,233.65 77.94,233.95C77.95,234.25 77.96,234.55 77.96,234.85C77.97,235.15 77.97,235.46 77.97,235.76C77.97,236.06 77.97,236.36 77.97,236.66C77.97,236.96 77.98,237.27 77.98,237.57C77.98,237.87 77.98,238.17 77.98,238.47C77.98,238.77 77.97,239.08 77.97,239.38C77.97,239.68 77.97,239.98 77.97,240.28C77.97,240.58 77.98,240.89 77.98,241.19C77.98,241.49 77.98,241.79 77.98,242.09C77.98,242.39 77.98,242.7 77.98,243C77.98,243.3 77.99,243.6 77.99,243.9C77.99,244.2 77.99,244.51 77.99,244.81C77.99,245.11 77.99,245.41 77.99,245.71C77.99,246.01 77.99,246.32 77.99,246.62C77.99,246.92 77.99,247.22 77.99,247.52C77.99,247.82 77.99,248.13 77.99,248.43C77.99,248.73 77.99,249.03 77.99,249.33C77.99,249.63 77.98,249.94 77.98,250.24C77.98,250.54 77.98,250.84 77.98,251.14C77.98,251.44 77.98,251.74 77.98,252.04C77.98,252.34 77.98,252.65 77.98,252.95C77.98,253.25 77.98,253.55 77.98,253.85C77.98,254.15 77.98,254.46 77.98,254.76C77.98,255.06 77.99,255.36 77.99,255.66C77.99,255.96 77.99,256.27 77.99,256.57C77.99,256.87 77.98,257.17 77.98,257.47C77.98,257.77 77.98,258.08 77.98,258.38C77.98,258.68 77.98,258.98 77.98,259.28C77.98,259.58 77.98,259.89 77.98,260.19C77.98,260.49 77.97,260.79 77.97,261.09C77.97,261.39 77.97,261.7 77.97,262C77.97,262.3 77.98,262.6 77.98,262.9C77.98,263.2 77.98,263.51 77.98,263.81C77.98,264.11 77.98,264.41 77.98,264.71C77.98,265.01 77.97,265.32 77.97,265.62C77.97,265.92 77.97,266.22 77.97,266.52C77.97,266.82 77.97,267.13 77.97,267.43C77.97,267.73 77.97,268.03 77.97,268.33C77.97,268.63 77.97,268.94 77.97,269.24C77.97,269.54 77.97,269.84 77.97,270.14C77.97,270.44 77.97,270.74 77.97,271.04C77.97,271.34 77.97,271.65 77.97,271.95C77.97,272.25 77.96,272.55 77.96,272.85C77.96,273.15 77.96,273.46 77.96,273.76C77.96,274.06 77.96,274.36 77.96,274.66C77.96,274.96 77.96,275.27 77.96,275.57C77.96,275.87 77.96,276.17 77.96,276.47C77.96,276.77 77.96,277.08 77.96,277.38C77.96,277.68 77.96,277.98 77.96,278.28C77.96,278.58 77.96,278.89 77.96,279.19C77.96,279.49 77.95,279.79 77.95,280.09C77.95,280.39 77.94,280.7 77.94,281C77.94,281.3 77.93,281.6 77.93,281.9C77.93,282.2 77.93,282.51 77.93,282.81C77.93,283.11 77.93,283.41 77.93,283.71C77.93,284.01 77.94,284.32 77.94,284.62C77.94,284.92 77.95,285.22 77.95,285.52C77.95,285.82 77.95,286.13 77.96,286.43C77.96,286.73 77.97,287.03 77.98,287.33C77.98,287.63 77.99,287.93 77.99,288.23C77.99,288.53 77.99,288.84 77.99,289.14C77.99,289.44 78,289.74 78,290.04C78,290.34 78,290.65 78,290.95C78,291.25 78,291.55 78,291.85C78,292.15 78,292.46 78,292.76C78,293.06 78,293.36 78,293.66C78,293.96 78,294.27 78,294.57C78,294.87 77.99,295.17 77.99,295.47C77.99,295.77 77.99,296.08 77.99,296.38C77.99,296.68 77.98,296.98 77.98,297.28C77.98,297.58 77.98,297.89 77.98,298.19C77.98,298.49 77.97,298.79 77.97,299.09C77.97,299.39 77.97,299.7 77.97,300C77.97,300.3 77.97,300.6 77.97,300.9C77.97,301.2 77.97,301.51 77.97,301.81C77.97,302.11 77.96,302.41 77.96,302.71C77.96,303.01 77.96,303.32 77.96,303.62C77.96,303.92 77.95,304.22 77.95,304.52C77.95,304.82 77.94,305.13 77.94,305.43C77.94,305.73 77.94,306.03 77.94,306.33C77.94,306.63 77.94,306.93 77.94,307.23C77.94,307.53 77.94,307.84 77.94,308.14C77.94,308.44 77.94,308.74 77.94,309.04C77.94,309.34 77.94,309.65 77.94,309.95C77.94,310.25 77.94,310.55 77.94,310.85C77.94,311.15 77.95,311.46 77.95,311.76C77.95,312.06 77.96,312.36 77.96,312.66C77.96,312.96 77.96,313.27 77.96,313.57C77.96,313.87 77.97,314.17 77.97,314.47C77.97,314.77 77.98,315.08 77.98,315.38C77.98,315.68 77.98,315.98 77.98,316.28C77.98,316.58 77.98,316.89 77.98,317.19C77.98,317.49 77.97,317.79 77.97,318.09C77.97,318.39 77.97,318.7 77.97,319C77.97,319.3 77.96,319.6 77.96,319.9C77.96,320.2 77.95,320.51 77.95,320.81C77.95,321.11 77.94,321.41 77.94,321.71C77.94,322.01 77.93,322.32 77.93,322.62C77.93,322.92 77.92,323.22 77.92,323.52C77.92,323.82 77.91,324.12 77.91,324.42C77.91,324.72 77.9,325.03 77.9,325.33C77.9,325.63 77.91,325.93 77.91,326.23C77.91,326.53 77.92,326.84 77.92,327.14C77.92,327.44 77.93,327.74 77.93,328.04C77.93,328.34 77.94,328.65 77.94,328.95C77.94,329.25 77.95,329.55 77.95,329.85C77.95,330.15 77.95,330.46 77.95,330.76C77.95,331.06 77.95,331.36 77.95,331.66C77.95,331.96 77.96,332.27 77.96,332.57C77.96,332.87 77.96,333.17 77.96,333.47C77.96,333.77 77.96,334.08 77.96,334.38C77.96,334.68 77.97,334.98 77.97,335.28C77.97,335.58 77.98,335.89 77.98,336.19C77.98,336.49 77.98,336.79 77.98,337.09C77.98,337.39 77.99,337.7 77.99,338C77.99,338.3 77.99,338.6 77.99,338.9C77.99,339.2 77.99,339.51 77.99,339.81C77.99,340.11 77.99,340.41 77.99,340.71C77.99,341.01 77.99,341.32 77.99,341.62C77.99,341.92 77.98,342.22 77.98,342.52C77.98,342.82 77.97,343.12 77.97,343.42C77.96,343.72 77.96,344.03 77.95,344.33C77.94,344.63 77.93,344.93 77.93,345.23C77.92,345.53 77.92,345.84 77.92,346.14C77.92,346.44 77.91,346.74 77.91,347.04C77.91,347.34 77.91,347.65 77.91,347.95C77.91,348.25 77.92,348.55 77.92,348.85C77.92,349.15 77.92,349.46 77.93,349.76C77.93,350.06 77.94,350.36 77.95,350.66C77.96,350.96 77.96,351.27 77.97,351.57C77.97,351.87 77.98,352.17 77.98,352.47Q77.98,352.77 77.99,353.38Z" style="vector-effect: non-scaling-stroke; stroke-width: 2px; stroke: rgb(99, 110, 250); stroke-opacity: 1; fill: rgb(99, 110, 250); fill-opacity: 0.5;"/><path class="violin" d="M234,385.35Q234,383.54 234,382.64C234,381.74 234.01,380.83 234.01,379.93C234.01,379.03 234.01,378.12 234.01,377.22C234.01,376.32 234.01,375.41 234.01,374.51C234.01,373.61 234.02,372.7 234.02,371.8C234.02,370.9 234.02,369.99 234.02,369.09C234.02,368.19 234.02,367.28 234.02,366.38C234.02,365.48 234.02,364.57 234.02,363.67C234.02,362.77 234.01,361.86 234.01,360.96C234.01,360.06 234.01,359.15 234.01,358.25C234.01,357.35 234.02,356.44 234.02,355.54C234.02,354.64 234.02,353.73 234.02,352.83C234.02,351.93 234.02,351.02 234.02,350.12C234.02,349.22 234.03,348.31 234.03,347.41C234.03,346.51 234.03,345.6 234.03,344.7C234.03,343.8 234.03,342.89 234.03,341.99C234.03,341.09 234.03,340.18 234.03,339.28C234.03,338.38 234.03,337.47 234.03,336.57C234.03,335.67 234.03,334.76 234.03,333.86C234.03,332.96 234.03,332.05 234.03,331.15C234.03,330.25 234.04,329.34 234.04,328.44C234.04,327.54 234.04,326.63 234.04,325.73C234.04,324.83 234.05,323.93 234.05,323.03C234.05,322.13 234.05,321.22 234.05,320.32C234.05,319.42 234.05,318.51 234.05,317.61C234.05,316.71 234.04,315.8 234.04,314.9C234.04,314 234.04,313.09 234.04,312.19C234.04,311.29 234.03,310.38 234.03,309.48C234.03,308.58 234.02,307.67 234.02,306.77C234.02,305.87 234.01,304.96 234.01,304.06C234.01,303.16 234.01,302.25 234.01,301.35C234.01,300.45 234,299.54 234,298.64C234,297.74 234,296.83 234,295.93C234,295.03 234,294.12 234,293.22C234,292.32 234.01,291.41 234.01,290.51C234.01,289.61 234.01,288.7 234.01,287.8C234.01,286.9 234.01,285.99 234.01,285.09C234.01,284.19 234.02,283.28 234.02,282.38C234.02,281.48 234.02,280.57 234.02,279.67C234.02,278.77 234.02,277.86 234.02,276.96C234.02,276.06 234.02,275.15 234.02,274.25C234.02,273.35 234.02,272.44 234.02,271.54C234.02,270.64 234.03,269.73 234.03,268.83C234.03,267.93 234.03,267.02 234.03,266.12C234.03,265.22 234.04,264.31 234.04,263.41C234.04,262.51 234.04,261.6 234.04,260.7C234.04,259.8 234.05,258.89 234.05,257.99C234.05,257.09 234.06,256.18 234.06,255.28C234.06,254.38 234.07,253.48 234.07,252.58C234.07,251.68 234.08,250.77 234.08,249.87C234.08,248.97 234.08,248.06 234.08,247.16C234.08,246.26 234.09,245.35 234.09,244.45C234.09,243.55 234.09,242.64 234.09,241.74C234.09,240.84 234.09,239.93 234.09,239.03C234.09,238.13 234.08,237.22 234.08,236.32C234.08,235.42 234.08,234.51 234.08,233.61C234.08,232.71 234.08,231.8 234.08,230.9C234.08,230 234.09,229.09 234.09,228.19C234.09,227.29 234.1,226.38 234.1,225.48C234.11,224.58 234.11,223.67 234.12,222.77C234.13,221.87 234.13,220.96 234.14,220.06C234.14,219.16 234.15,218.25 234.15,217.35C234.16,216.45 234.16,215.54 234.17,214.64C234.17,213.74 234.18,212.83 234.18,211.93C234.19,211.03 234.19,210.12 234.2,209.22C234.2,208.32 234.21,207.41 234.21,206.51C234.22,205.61 234.22,204.7 234.23,203.8C234.24,202.9 234.24,201.99 234.25,201.09C234.26,200.19 234.27,199.28 234.28,198.38C234.29,197.48 234.29,196.57 234.3,195.67C234.31,194.77 234.33,193.86 234.34,192.96C234.35,192.06 234.36,191.15 234.37,190.25C234.38,189.35 234.4,188.44 234.41,187.54C234.42,186.64 234.43,185.74 234.44,184.84C234.45,183.94 234.45,183.03 234.46,182.13C234.46,181.23 234.47,180.32 234.47,179.42C234.47,178.52 234.47,177.61 234.47,176.71C234.47,175.81 234.46,174.9 234.45,174C234.44,173.1 234.44,172.19 234.43,171.29C234.43,170.39 234.42,169.48 234.42,168.58C234.42,167.68 234.41,166.77 234.41,165.87C234.41,164.97 234.41,164.06 234.41,163.16C234.41,162.26 234.41,161.35 234.41,160.45C234.41,159.55 234.41,158.64 234.41,157.74C234.41,156.84 234.4,155.93 234.4,155.03C234.4,154.13 234.39,153.22 234.39,152.32C234.39,151.42 234.38,150.51 234.38,149.61C234.38,148.71 234.37,147.8 234.37,146.9C234.36,146 234.36,145.09 234.35,144.19C234.35,143.29 234.34,142.38 234.34,141.48C234.34,140.58 234.33,139.67 234.33,138.77C234.32,137.87 234.32,136.96 234.31,136.06C234.3,135.16 234.3,134.25 234.29,133.35C234.28,132.45 234.28,131.54 234.27,130.64C234.27,129.74 234.26,128.83 234.26,127.93C234.26,127.03 234.25,126.12 234.25,125.22C234.25,124.32 234.26,123.41 234.27,122.51C234.28,121.61 234.28,120.7 234.29,119.8C234.3,118.9 234.32,117.99 234.33,117.09C234.34,116.19 234.35,115.29 234.36,114.39C234.37,113.49 234.37,112.58 234.38,111.68C234.38,110.78 234.39,109.87 234.39,108.97C234.39,108.07 234.38,107.16 234.37,106.26C234.36,105.36 234.36,104.45 234.35,103.55C234.35,102.65 234.33,101.74 234.34,100.84C234.35,99.94 234.35,99.03 234.39,98.13C234.43,97.23 234.48,96.32 234.57,95.42C234.66,94.52 234.77,93.61 234.93,92.71C235.1,91.8 235.31,90.9 235.56,90C235.82,89.09 236.14,88.19 236.47,87.29C236.81,86.38 237.21,85.48 237.58,84.58C237.95,83.68 238.35,82.78 238.67,81.87C238.98,80.97 239.29,80.07 239.47,79.16C239.65,78.26 239.77,77.35 239.76,76.45C239.75,75.55 239.62,74.63 239.43,73.74C239.23,72.83 238.91,71.93 238.59,71.03C238.26,70.12 237.85,69.22 237.48,68.32C237.11,67.42 236.7,66.52 236.36,65.61C236.02,64.71 235.69,63.81 235.43,62.9Q235.17,62 234.78,60.19L233.22,60.19Q232.83,62 232.57,62.9C232.31,63.81 231.98,64.71 231.64,65.61C231.3,66.52 230.89,67.42 230.52,68.32C230.15,69.22 229.74,70.12 229.41,71.03C229.09,71.93 228.77,72.83 228.57,73.74C228.38,74.63 228.25,75.55 228.24,76.45C228.23,77.35 228.35,78.26 228.53,79.16C228.71,80.07 229.02,80.97 229.33,81.87C229.65,82.78 230.05,83.68 230.42,84.58C230.79,85.48 231.19,86.38 231.53,87.29C231.86,88.19 232.18,89.09 232.44,90C232.69,90.9 232.9,91.8 233.07,92.71C233.23,93.61 233.34,94.52 233.43,95.42C233.52,96.32 233.57,97.23 233.61,98.13C233.65,99.03 233.65,99.94 233.66,100.84C233.67,101.74 233.65,102.65 233.65,103.55C233.64,104.45 233.64,105.36 233.63,106.26C233.62,107.16 233.61,108.07 233.61,108.97C233.61,109.87 233.62,110.78 233.62,111.68C233.63,112.58 233.63,113.49 233.64,114.39C233.65,115.29 233.66,116.19 233.67,117.09C233.68,117.99 233.7,118.9 233.71,119.8C233.72,120.7 233.72,121.61 233.73,122.51C233.74,123.41 233.75,124.32 233.75,125.22C233.75,126.12 233.74,127.03 233.74,127.93C233.74,128.83 233.73,129.74 233.73,130.64C233.72,131.54 233.72,132.45 233.71,133.35C233.7,134.25 233.7,135.16 233.69,136.06C233.68,136.96 233.68,137.87 233.67,138.77C233.67,139.67 233.66,140.58 233.66,141.48C233.66,142.38 233.65,143.29 233.65,144.19C233.64,145.09 233.64,146 233.63,146.9C233.63,147.8 233.62,148.71 233.62,149.61C233.62,150.51 233.61,151.42 233.61,152.32C233.61,153.22 233.6,154.13 233.6,155.03C233.6,155.93 233.59,156.84 233.59,157.74C233.59,158.64 233.59,159.55 233.59,160.45C233.59,161.35 233.59,162.26 233.59,163.16C233.59,164.06 233.59,164.97 233.59,165.87C233.59,166.77 233.58,167.68 233.58,168.58C233.58,169.48 233.57,170.39 233.57,171.29C233.56,172.19 233.56,173.1 233.55,174C233.54,174.9 233.53,175.81 233.53,176.71C233.53,177.61 233.53,178.52 233.53,179.42C233.53,180.32 233.54,181.23 233.54,182.13C233.55,183.03 233.55,183.94 233.56,184.84C233.57,185.74 233.58,186.64 233.59,187.54C233.6,188.44 233.62,189.35 233.63,190.25C233.64,191.15 233.65,192.06 233.66,192.96C233.67,193.86 233.69,194.77 233.7,195.67C233.71,196.57 233.71,197.48 233.72,198.38C233.73,199.28 233.74,200.19 233.75,201.09C233.76,201.99 233.76,202.9 233.77,203.8C233.78,204.7 233.78,205.61 233.79,206.51C233.79,207.41 233.8,208.32 233.8,209.22C233.81,210.12 233.81,211.03 233.82,211.93C233.82,212.83 233.83,213.74 233.83,214.64C233.84,215.54 233.84,216.45 233.85,217.35C233.85,218.25 233.86,219.16 233.86,220.06C233.87,220.96 233.87,221.87 233.88,222.77C233.89,223.67 233.89,224.58 233.9,225.48C233.9,226.38 233.91,227.29 233.91,228.19C233.91,229.09 233.92,230 233.92,230.9C233.92,231.8 233.92,232.71 233.92,233.61C233.92,234.51 233.92,235.42 233.92,236.32C233.92,237.22 233.91,238.13 233.91,239.03C233.91,239.93 233.91,240.84 233.91,241.74C233.91,242.64 233.91,243.55 233.91,244.45C233.91,245.35 233.92,246.26 233.92,247.16C233.92,248.06 233.92,248.97 233.92,249.87C233.92,250.77 233.93,251.68 233.93,252.58C233.93,253.48 233.94,254.38 233.94,255.28C233.94,256.18 233.95,257.09 233.95,257.99C233.95,258.89 233.96,259.8 233.96,260.7C233.96,261.6 233.96,262.51 233.96,263.41C233.96,264.31 233.97,265.22 233.97,266.12C233.97,267.02 233.97,267.93 233.97,268.83C233.97,269.73 233.98,270.64 233.98,271.54C233.98,272.44 233.98,273.35 233.98,274.25C233.98,275.15 233.98,276.06 233.98,276.96C233.98,277.86 233.98,278.77 233.98,279.67C233.98,280.57 233.98,281.48 233.98,282.38C233.98,283.28 233.99,284.19 233.99,285.09C233.99,285.99 233.99,286.9 233.99,287.8C233.99,288.7 233.99,289.61 233.99,290.51C233.99,291.41 234,292.32 234,293.22C234,294.12 234,295.03 234,295.93C234,296.83 234,297.74 234,298.64C234,299.54 233.99,300.45 233.99,301.35C233.99,302.25 233.99,303.16 233.99,304.06C233.99,304.96 233.98,305.87 233.98,306.77C233.98,307.67 233.97,308.58 233.97,309.48C233.97,310.38 233.96,311.29 233.96,312.19C233.96,313.09 233.96,314 233.96,314.9C233.96,315.8 233.95,316.71 233.95,317.61C233.95,318.51 233.95,319.42 233.95,320.32C233.95,321.22 233.95,322.13 233.95,323.03C233.95,323.93 233.96,324.83 233.96,325.73C233.96,326.63 233.96,327.54 233.96,328.44C233.96,329.34 233.97,330.25 233.97,331.15C233.97,332.05 233.97,332.96 233.97,333.86C233.97,334.76 233.97,335.67 233.97,336.57C233.97,337.47 233.97,338.38 233.97,339.28C233.97,340.18 233.97,341.09 233.97,341.99C233.97,342.89 233.97,343.8 233.97,344.7C233.97,345.6 233.97,346.51 233.97,347.41C233.97,348.31 233.98,349.22 233.98,350.12C233.98,351.02 233.98,351.93 233.98,352.83C233.98,353.73 233.98,354.64 233.98,355.54C233.98,356.44 233.99,357.35 233.99,358.25C233.99,359.15 233.99,360.06 233.99,360.96C233.99,361.86 233.98,362.77 233.98,363.67C233.98,364.57 233.98,365.48 233.98,366.38C233.98,367.28 233.98,368.19 233.98,369.09C233.98,369.99 233.98,370.9 233.98,371.8C233.98,372.7 233.99,373.61 233.99,374.51C233.99,375.41 233.99,376.32 233.99,377.22C233.99,378.12 233.99,379.03 233.99,379.93C233.99,380.83 234,381.74 234,382.64Q234,383.54 234,385.35Z" style="vector-effect: non-scaling-stroke; stroke-width: 2px; stroke: rgb(99, 110, 250); stroke-opacity: 1; fill: rgb(99, 110, 250); fill-opacity: 0.5;"/><path class="violin" d="M390.1,227.05Q390.16,226.72 390.19,226.56C390.23,226.4 390.27,226.23 390.31,226.07C390.35,225.9 390.4,225.74 390.45,225.57C390.5,225.41 390.56,225.24 390.6,225.08C390.64,224.92 390.68,224.75 390.71,224.59C390.73,224.43 390.75,224.26 390.75,224.1C390.75,223.94 390.73,223.77 390.71,223.61C390.68,223.44 390.64,223.27 390.6,223.11C390.56,222.94 390.5,222.78 390.45,222.62C390.4,222.46 390.35,222.29 390.31,222.13C390.27,221.97 390.23,221.8 390.19,221.64C390.16,221.48 390.12,221.31 390.1,221.15C390.08,220.98 390.06,220.82 390.05,220.65C390.04,220.49 390.03,220.32 390.02,220.16C390.01,220 390.01,219.83 390.01,219.67C390.01,219.51 390,219.34 390,219.18C390,219.02 390,218.85 390,218.69C390,218.53 390,218.36 390,218.2C390,218.03 390,217.87 390,217.7C390,217.54 390,217.37 390,217.21C390,217.05 390,216.88 390,216.72C390,216.56 390,216.39 390,216.23C390,216.07 390,215.9 390,215.74C390,215.57 390,215.41 390,215.24C390,215.08 390,214.91 390,214.75C390,214.59 390,214.42 390,214.26C390,214.1 390,213.93 390,213.77C390,213.61 390,213.44 390,213.28C390,213.11 390,212.95 390,212.78C390,212.62 390,212.45 390,212.29C390,212.13 390,211.96 390,211.8C390,211.64 390,211.47 390,211.31C390,211.15 390,210.98 390,210.82C390,210.65 390,210.49 390,210.32C390,210.16 390,209.99 390,209.83C390,209.67 390,209.5 390,209.34C390,209.18 390,209.01 390,208.85C390,208.69 390,208.52 390,208.36C390,208.19 390,208.03 390,207.86C390,207.7 390,207.53 390,207.37C390,207.21 390.01,207.04 390.01,206.88C390.01,206.72 390.02,206.55 390.02,206.39C390.03,206.23 390.03,206.06 390.04,205.9C390.05,205.74 390.07,205.57 390.09,205.41C390.11,205.24 390.14,205.08 390.17,204.91C390.2,204.75 390.25,204.58 390.29,204.42C390.33,204.26 390.38,204.09 390.43,203.93C390.48,203.77 390.53,203.6 390.58,203.44C390.62,203.28 390.67,203.12 390.7,202.95C390.73,202.79 390.75,202.62 390.75,202.45C390.75,202.29 390.74,202.12 390.72,201.96C390.7,201.8 390.66,201.63 390.62,201.47C390.58,201.31 390.53,201.14 390.48,200.98C390.43,200.82 390.38,200.65 390.33,200.49C390.28,200.32 390.24,200.16 390.2,199.99C390.16,199.83 390.13,199.66 390.11,199.5C390.09,199.34 390.08,199.17 390.06,199.01C390.05,198.85 390.03,198.68 390.02,198.52C390.01,198.36 390.01,198.19 390.01,198.03C390.01,197.86 390,197.7 390,197.53C390,197.37 390,197.2 390,197.04C390,196.88 390,196.71 390,196.55C390,196.39 390,196.22 390,196.06C390,195.9 390,195.73 390,195.57C390,195.41 390,195.24 390,195.08C390,194.91 390,194.75 390,194.58C390,194.42 390,194.25 390,194.09C390,193.93 390,193.76 390,193.6C390,193.44 390,193.27 390,193.11C390,192.95 390,192.78 390,192.62C390,192.45 390,192.29 390,192.12C390,191.96 390,191.79 390,191.63C390,191.47 390,191.3 390,191.14C390,190.98 390,190.81 390,190.65C390,190.49 390,190.32 390,190.16C390,189.99 390,189.83 390,189.66C390,189.5 390,189.33 390,189.17C390,189.01 390,188.84 390,188.68C390,188.52 390,188.35 390,188.19C390,188.03 390,187.86 390,187.7C390,187.53 390,187.37 390,187.2C390,187.04 390,186.87 390,186.71C390,186.55 390,186.38 390,186.22C390,186.06 390,185.89 390,185.73C390,185.57 390,185.4 390,185.24C390,185.07 390,184.91 390,184.74C390,184.58 390,184.41 390,184.25C390,184.09 390,183.92 390,183.76C390,183.6 390,183.43 390,183.27C390,183.11 390,182.94 390,182.78C390,182.62 390,182.45 390,182.29C390,182.12 390,181.96 390,181.79C390,181.63 390,181.46 390,181.3C390,181.14 390,180.97 390,180.81C390,180.65 390,180.48 390,180.32C390,180.16 390,179.99 390,179.83C390,179.66 390,179.5 390,179.33C390,179.17 390,179 390,178.84C390,178.68 390,178.51 390,178.35C390,178.19 390,178.02 390,177.86C390,177.7 390,177.53 390,177.37C390,177.2 390,177.04 390,176.87C390,176.71 390,176.54 390,176.38C390,176.22 390,176.05 390,175.89C390,175.73 390,175.56 390,175.4C390,175.24 390,175.07 390,174.91C390,174.74 390,174.58 390,174.41C390,174.25 390,174.08 390,173.92C390,173.76 390,173.59 390,173.43C390,173.27 390,173.1 390,172.94C390,172.78 390,172.61 390,172.45C390,172.28 390,172.12 390,171.95C390,171.79 390,171.62 390,171.46C390,171.3 390,171.13 390,170.97C390,170.81 390,170.64 390,170.48C390,170.32 390,170.15 390,169.99C390,169.83 390,169.66 390,169.5C390,169.33 390,169.17 390,169C390,168.84 390,168.67 390,168.51C390,168.35 390,168.18 390,168.02C390,167.86 390,167.69 390,167.53C390,167.37 390,167.2 390,167.04C390,166.87 390,166.71 390,166.54C390,166.38 390,166.21 390,166.05C390,165.89 390,165.72 390,165.56C390,165.4 390,165.23 390,165.07C390,164.91 390,164.74 390,164.58C390,164.41 390,164.25 390,164.08C390,163.92 390,163.75 390,163.59C390,163.43 390,163.26 390,163.1C390,162.94 390,162.77 390,162.61C390,162.45 390,162.28 390,162.12C390,161.95 390,161.79 390,161.62C390,161.46 390,161.29 390,161.13C390,160.97 390,160.8 390,160.64C390,160.48 390,160.31 390,160.15C390,159.99 390,159.82 390,159.66C390,159.5 390,159.33 390,159.17C390,159 390.01,158.84 390.01,158.67C390.01,158.51 390.01,158.34 390.02,158.18C390.03,158.02 390.05,157.85 390.06,157.69C390.08,157.53 390.09,157.36 390.11,157.2C390.13,157.04 390.16,156.87 390.2,156.71C390.24,156.54 390.28,156.38 390.33,156.21C390.38,156.05 390.43,155.88 390.48,155.72C390.53,155.56 390.58,155.39 390.62,155.23C390.66,155.07 390.7,154.9 390.72,154.74C390.74,154.58 390.75,154.41 390.75,154.25C390.75,154.08 390.73,153.91 390.7,153.75C390.67,153.58 390.62,153.42 390.58,153.26C390.53,153.1 390.48,152.93 390.43,152.77C390.38,152.61 390.33,152.44 390.29,152.28C390.25,152.12 390.21,151.95 390.18,151.79C390.15,151.62 390.12,151.46 390.11,151.29C390.1,151.13 390.09,150.96 390.1,150.8C390.11,150.64 390.13,150.47 390.16,150.31C390.19,150.15 390.24,149.98 390.3,149.82C390.36,149.65 390.45,149.49 390.54,149.33C390.64,149.16 390.76,148.99 390.89,148.83C391.02,148.66 391.18,148.5 391.33,148.34C391.48,148.18 391.64,148.02 391.77,147.85C391.9,147.69 392.03,147.53 392.11,147.36C392.18,147.2 392.24,147.03 392.25,146.87C392.26,146.71 392.21,146.54 392.15,146.38C392.08,146.21 391.95,146.04 391.83,145.88C391.7,145.71 391.54,145.55 391.4,145.39C391.25,145.23 391.1,145.07 390.96,144.9C390.83,144.74 390.7,144.58 390.59,144.41C390.49,144.25 390.39,144.09 390.32,143.92C390.25,143.76 390.2,143.59 390.16,143.42C390.12,143.26 390.09,143.09 390.07,142.93C390.05,142.77 390.04,142.6 390.03,142.44C390.02,142.28 390.02,142.11 390.01,141.95C390.01,141.79 390,141.62 390,141.46C390,141.29 390,141.13 390,140.96C390,140.8 390,140.63 390,140.47C390,140.31 390,140.14 390,139.98C390,139.82 390,139.65 390,139.49C390,139.33 390,139.16 390,139C390,138.83 390,138.67 390,138.5C390,138.34 390,138.17 390,138.01C390,137.85 390,137.68 390,137.52C390,137.36 390,137.19 390,137.03C390,136.87 390,136.7 390,136.54C390,136.38 390,136.21 390,136.05C390,135.88 390,135.72 390,135.55C390,135.39 390,135.22 390,135.06C390,134.9 390,134.73 390,134.57C390,134.41 390,134.24 390,134.08C390,133.92 390,133.75 390,133.59C390,133.42 390,133.26 390,133.09C390,132.93 390,132.76 390,132.6C390,132.44 390,132.27 390,132.11C390,131.95 390,131.78 390,131.62C390,131.46 390,131.29 390,131.13C390,130.96 390,130.8 390,130.63C390,130.47 390,130.3 390,130.14C390,129.98 390,129.81 390,129.65C390,129.49 390,129.32 390,129.16C390,129 390,128.83 390,128.67C390,128.5 390,128.34 390,128.17C390,128.01 390,127.84 390,127.68C390,127.52 390,127.35 390,127.19C390,127.03 390,126.86 390,126.7C390,126.54 390,126.37 390,126.21C390,126.04 390,125.88 390,125.71C390,125.55 390,125.38 390,125.22C390,125.06 390,124.89 390,124.73C390,124.57 390,124.4 390,124.24C390,124.08 390,123.91 390,123.75C390,123.59 390,123.42 390,123.26C390,123.09 390,122.93 390,122.76C390,122.6 390,122.43 390,122.27C390,122.11 390,121.94 390,121.78C390,121.62 390,121.45 390,121.29C390,121.13 390.01,120.96 390.01,120.8C390.01,120.63 390.01,120.47 390.02,120.3C390.03,120.14 390.04,119.97 390.06,119.81C390.08,119.65 390.1,119.48 390.13,119.32C390.16,119.16 390.2,118.99 390.25,118.83C390.3,118.66 390.37,118.5 390.44,118.34C390.52,118.17 390.62,118 390.71,117.84C390.81,117.67 390.91,117.51 391.01,117.35C391.1,117.19 391.2,117.03 391.28,116.86C391.35,116.7 391.43,116.54 391.46,116.37C391.49,116.21 391.51,116.04 391.49,115.88C391.47,115.71 391.42,115.54 391.36,115.38C391.3,115.21 391.2,115.05 391.11,114.89C391.02,114.72 390.91,114.56 390.81,114.4C390.72,114.24 390.62,114.08 390.54,113.91C390.46,113.75 390.39,113.59 390.33,113.42C390.27,113.26 390.23,113.09 390.2,112.92C390.17,112.76 390.16,112.59 390.16,112.43C390.16,112.27 390.17,112.1 390.19,111.94C390.21,111.78 390.24,111.61 390.28,111.45C390.32,111.29 390.36,111.12 390.41,110.96C390.46,110.8 390.52,110.63 390.56,110.47C390.61,110.3 390.65,110.14 390.68,109.97C390.71,109.81 390.74,109.64 390.75,109.48C390.76,109.32 390.75,109.15 390.73,108.99C390.71,108.83 390.68,108.66 390.64,108.5C390.6,108.34 390.55,108.17 390.5,108.01C390.45,107.84 390.4,107.68 390.35,107.51C390.3,107.35 390.26,107.18 390.22,107.02C390.18,106.86 390.15,106.69 390.12,106.53C390.09,106.37 390.08,106.2 390.06,106.04C390.05,105.88 390.04,105.71 390.03,105.55C390.02,105.38 390.02,105.22 390.01,105.05C390.01,104.89 390,104.72 390,104.56C390,104.4 390,104.23 390,104.07C390,103.91 390,103.74 390,103.58C390,103.42 390,103.25 390,103.09C390,102.92 390,102.76 390,102.59C390,102.43 390,102.26 390,102.1C390,101.94 390,101.77 390,101.61C390,101.45 390,101.28 390,101.12C390,100.96 390,100.79 390,100.63C390,100.47 390,100.3 390,100.14C390,99.97 390,99.81 390,99.64C390,99.48 390,99.31 390,99.15C390,98.99 390,98.82 390,98.66C390,98.5 390,98.33 390,98.17C390,98.01 390,97.84 390,97.68C390,97.51 390,97.35 390,97.18C390,97.02 390,96.85 390,96.69C390,96.53 390,96.36 390,96.2C390,96.04 390,95.87 390,95.71C390,95.55 390,95.38 390,95.22C390,95.05 390,94.89 390,94.72C390,94.56 390,94.39 390,94.23C390,94.07 390,93.9 390,93.74C390,93.58 390,93.41 390,93.25C390,93.09 390,92.92 390,92.76C390,92.59 390,92.43 390,92.26C390,92.1 390,91.93 390,91.77C390,91.61 390,91.44 390,91.28C390,91.12 390,90.95 390,90.79C390,90.63 390,90.46 390,90.3C390,90.13 390,89.97 390,89.8C390,89.64 390,89.47 390,89.31C390,89.15 390,88.98 390,88.82C390,88.66 390,88.49 390,88.33C390,88.17 390,88 390,87.84C390,87.68 390,87.51 390,87.35C390,87.18 390,87.02 390,86.85C390,86.69 390,86.52 390,86.36C390,86.2 390,86.03 390,85.87C390,85.71 390,85.54 390,85.38C390,85.22 390,85.05 390,84.89C390,84.72 390,84.56 390,84.39C390,84.23 390,84.06 390,83.9C390,83.74 390,83.57 390,83.41C390,83.25 390,83.08 390,82.92C390,82.76 390,82.59 390.01,82.43C390.02,82.26 390.03,82.1 390.05,81.93C390.07,81.77 390.09,81.6 390.15,81.44C390.21,81.27 390.29,81.1 390.42,80.95C390.58,80.77 390.81,80.61 391.09,80.46C391.46,80.26 391.96,80.12 392.51,79.97C393.25,79.77 394.17,79.62 395.17,79.47C396.44,79.28 397.95,79.13 399.53,78.98C401.41,78.8 403.55,78.65 405.71,78.49C408.08,78.32 410.69,78.16 413.18,78C415.66,77.84 418.31,77.69 420.6,77.51C422.58,77.36 424.75,77.25 426.15,77.02C427.01,76.88 428.22,76.69 428.22,76.52C428.22,76.36 427.01,76.17 426.15,76.03C424.75,75.8 422.58,75.69 420.6,75.54C418.31,75.36 415.66,75.21 413.18,75.05C410.69,74.89 408.08,74.73 405.71,74.56C403.55,74.4 401.41,74.24 399.53,74.06Q397.95,73.91 395.17,73.57L384.83,73.57Q382.05,73.91 380.47,74.06C378.59,74.24 376.45,74.4 374.29,74.56C371.92,74.73 369.31,74.89 366.82,75.05C364.34,75.21 361.69,75.36 359.4,75.54C357.42,75.69 355.25,75.8 353.85,76.03C352.99,76.17 351.78,76.36 351.78,76.52C351.78,76.69 352.99,76.88 353.85,77.02C355.25,77.25 357.42,77.36 359.4,77.51C361.69,77.69 364.34,77.84 366.82,78C369.31,78.16 371.92,78.32 374.29,78.49C376.45,78.65 378.59,78.8 380.47,78.98C382.05,79.13 383.56,79.28 384.83,79.47C385.83,79.62 386.75,79.77 387.49,79.97C388.04,80.12 388.54,80.26 388.91,80.46C389.19,80.61 389.42,80.77 389.58,80.95C389.71,81.1 389.79,81.27 389.85,81.44C389.91,81.6 389.93,81.77 389.95,81.93C389.97,82.1 389.98,82.26 389.99,82.43C390,82.59 390,82.76 390,82.92C390,83.08 390,83.25 390,83.41C390,83.57 390,83.74 390,83.9C390,84.06 390,84.23 390,84.39C390,84.56 390,84.72 390,84.89C390,85.05 390,85.22 390,85.38C390,85.54 390,85.71 390,85.87C390,86.03 390,86.2 390,86.36C390,86.52 390,86.69 390,86.85C390,87.02 390,87.18 390,87.35C390,87.51 390,87.68 390,87.84C390,88 390,88.17 390,88.33C390,88.49 390,88.66 390,88.82C390,88.98 390,89.15 390,89.31C390,89.47 390,89.64 390,89.8C390,89.97 390,90.13 390,90.3C390,90.46 390,90.63 390,90.79C390,90.95 390,91.12 390,91.28C390,91.44 390,91.61 390,91.77C390,91.93 390,92.1 390,92.26C390,92.43 390,92.59 390,92.76C390,92.92 390,93.09 390,93.25C390,93.41 390,93.58 390,93.74C390,93.9 390,94.07 390,94.23C390,94.39 390,94.56 390,94.72C390,94.89 390,95.05 390,95.22C390,95.38 390,95.55 390,95.71C390,95.87 390,96.04 390,96.2C390,96.36 390,96.53 390,96.69C390,96.85 390,97.02 390,97.18C390,97.35 390,97.51 390,97.68C390,97.84 390,98.01 390,98.17C390,98.33 390,98.5 390,98.66C390,98.82 390,98.99 390,99.15C390,99.31 390,99.48 390,99.64C390,99.81 390,99.97 390,100.14C390,100.3 390,100.47 390,100.63C390,100.79 390,100.96 390,101.12C390,101.28 390,101.45 390,101.61C390,101.77 390,101.94 390,102.1C390,102.26 390,102.43 390,102.59C390,102.76 390,102.92 390,103.09C390,103.25 390,103.42 390,103.58C390,103.74 390,103.91 390,104.07C390,104.23 390,104.4 390,104.56C390,104.72 389.99,104.89 389.99,105.05C389.98,105.22 389.98,105.38 389.97,105.55C389.96,105.71 389.95,105.88 389.94,106.04C389.92,106.2 389.91,106.37 389.88,106.53C389.85,106.69 389.82,106.86 389.78,107.02C389.74,107.18 389.7,107.35 389.65,107.51C389.6,107.68 389.55,107.84 389.5,108.01C389.45,108.17 389.4,108.34 389.36,108.5C389.32,108.66 389.29,108.83 389.27,108.99C389.25,109.15 389.24,109.32 389.25,109.48C389.26,109.64 389.29,109.81 389.32,109.97C389.35,110.14 389.39,110.3 389.44,110.47C389.48,110.63 389.54,110.8 389.59,110.96C389.64,111.12 389.68,111.29 389.72,111.45C389.76,111.61 389.79,111.78 389.81,111.94C389.83,112.1 389.84,112.27 389.84,112.43C389.84,112.59 389.83,112.76 389.8,112.92C389.77,113.09 389.73,113.26 389.67,113.42C389.61,113.59 389.54,113.75 389.46,113.91C389.38,114.08 389.28,114.24 389.19,114.4C389.09,114.56 388.98,114.72 388.89,114.89C388.8,115.05 388.7,115.21 388.64,115.38C388.58,115.54 388.53,115.71 388.51,115.88C388.49,116.04 388.51,116.21 388.54,116.37C388.57,116.54 388.65,116.7 388.72,116.86C388.8,117.03 388.9,117.19 388.99,117.35C389.09,117.51 389.19,117.67 389.29,117.84C389.38,118 389.48,118.17 389.56,118.34C389.63,118.5 389.7,118.66 389.75,118.83C389.8,118.99 389.84,119.16 389.87,119.32C389.9,119.48 389.92,119.65 389.94,119.81C389.96,119.97 389.97,120.14 389.98,120.3C389.99,120.47 389.99,120.63 389.99,120.8C389.99,120.96 390,121.13 390,121.29C390,121.45 390,121.62 390,121.78C390,121.94 390,122.11 390,122.27C390,122.43 390,122.6 390,122.76C390,122.93 390,123.09 390,123.26C390,123.42 390,123.59 390,123.75C390,123.91 390,124.08 390,124.24C390,124.4 390,124.57 390,124.73C390,124.89 390,125.06 390,125.22C390,125.38 390,125.55 390,125.71C390,125.88 390,126.04 390,126.21C390,126.37 390,126.54 390,126.7C390,126.86 390,127.03 390,127.19C390,127.35 390,127.52 390,127.68C390,127.84 390,128.01 390,128.17C390,128.34 390,128.5 390,128.67C390,128.83 390,129 390,129.16C390,129.32 390,129.49 390,129.65C390,129.81 390,129.98 390,130.14C390,130.3 390,130.47 390,130.63C390,130.8 390,130.96 390,131.13C390,131.29 390,131.46 390,131.62C390,131.78 390,131.95 390,132.11C390,132.27 390,132.44 390,132.6C390,132.76 390,132.93 390,133.09C390,133.26 390,133.42 390,133.59C390,133.75 390,133.92 390,134.08C390,134.24 390,134.41 390,134.57C390,134.73 390,134.9 390,135.06C390,135.22 390,135.39 390,135.55C390,135.72 390,135.88 390,136.05C390,136.21 390,136.38 390,136.54C390,136.7 390,136.87 390,137.03C390,137.19 390,137.36 390,137.52C390,137.68 390,137.85 390,138.01C390,138.17 390,138.34 390,138.5C390,138.67 390,138.83 390,139C390,139.16 390,139.33 390,139.49C390,139.65 390,139.82 390,139.98C390,140.14 390,140.31 390,140.47C390,140.63 390,140.8 390,140.96C390,141.13 390,141.29 390,141.46C390,141.62 389.99,141.79 389.99,141.95C389.98,142.11 389.98,142.28 389.97,142.44C389.96,142.6 389.95,142.77 389.93,142.93C389.91,143.09 389.88,143.26 389.84,143.42C389.8,143.59 389.75,143.76 389.68,143.92C389.61,144.09 389.51,144.25 389.41,144.41C389.3,144.58 389.17,144.74 389.04,144.9C388.9,145.07 388.75,145.23 388.6,145.39C388.46,145.55 388.3,145.71 388.17,145.88C388.05,146.04 387.92,146.21 387.85,146.38C387.79,146.54 387.74,146.71 387.75,146.87C387.76,147.03 387.82,147.2 387.89,147.36C387.97,147.53 388.1,147.69 388.23,147.85C388.36,148.02 388.52,148.18 388.67,148.34C388.82,148.5 388.98,148.66 389.11,148.83C389.24,148.99 389.36,149.16 389.46,149.33C389.55,149.49 389.64,149.65 389.7,149.82C389.76,149.98 389.81,150.15 389.84,150.31C389.87,150.47 389.89,150.64 389.9,150.8C389.91,150.96 389.9,151.13 389.89,151.29C389.88,151.46 389.85,151.62 389.82,151.79C389.79,151.95 389.75,152.12 389.71,152.28C389.67,152.44 389.62,152.61 389.57,152.77C389.52,152.93 389.47,153.1 389.42,153.26C389.38,153.42 389.33,153.58 389.3,153.75C389.27,153.91 389.25,154.08 389.25,154.25C389.25,154.41 389.26,154.58 389.28,154.74C389.3,154.9 389.34,155.07 389.38,155.23C389.42,155.39 389.47,155.56 389.52,155.72C389.57,155.88 389.62,156.05 389.67,156.21C389.72,156.38 389.76,156.54 389.8,156.71C389.84,156.87 389.87,157.04 389.89,157.2C389.91,157.36 389.92,157.53 389.94,157.69C389.95,157.85 389.97,158.02 389.98,158.18C389.99,158.34 389.99,158.51 389.99,158.67C389.99,158.84 390,159 390,159.17C390,159.33 390,159.5 390,159.66C390,159.82 390,159.99 390,160.15C390,160.31 390,160.48 390,160.64C390,160.8 390,160.97 390,161.13C390,161.29 390,161.46 390,161.62C390,161.79 390,161.95 390,162.12C390,162.28 390,162.45 390,162.61C390,162.77 390,162.94 390,163.1C390,163.26 390,163.43 390,163.59C390,163.75 390,163.92 390,164.08C390,164.25 390,164.41 390,164.58C390,164.74 390,164.91 390,165.07C390,165.23 390,165.4 390,165.56C390,165.72 390,165.89 390,166.05C390,166.21 390,166.38 390,166.54C390,166.71 390,166.87 390,167.04C390,167.2 390,167.37 390,167.53C390,167.69 390,167.86 390,168.02C390,168.18 390,168.35 390,168.51C390,168.67 390,168.84 390,169C390,169.17 390,169.33 390,169.5C390,169.66 390,169.83 390,169.99C390,170.15 390,170.32 390,170.48C390,170.64 390,170.81 390,170.97C390,171.13 390,171.3 390,171.46C390,171.62 390,171.79 390,171.95C390,172.12 390,172.28 390,172.45C390,172.61 390,172.78 390,172.94C390,173.1 390,173.27 390,173.43C390,173.59 390,173.76 390,173.92C390,174.08 390,174.25 390,174.41C390,174.58 390,174.74 390,174.91C390,175.07 390,175.24 390,175.4C390,175.56 390,175.73 390,175.89C390,176.05 390,176.22 390,176.38C390,176.54 390,176.71 390,176.87C390,177.04 390,177.2 390,177.37C390,177.53 390,177.7 390,177.86C390,178.02 390,178.19 390,178.35C390,178.51 390,178.68 390,178.84C390,179 390,179.17 390,179.33C390,179.5 390,179.66 390,179.83C390,179.99 390,180.16 390,180.32C390,180.48 390,180.65 390,180.81C390,180.97 390,181.14 390,181.3C390,181.46 390,181.63 390,181.79C390,181.96 390,182.12 390,182.29C390,182.45 390,182.62 390,182.78C390,182.94 390,183.11 390,183.27C390,183.43 390,183.6 390,183.76C390,183.92 390,184.09 390,184.25C390,184.41 390,184.58 390,184.74C390,184.91 390,185.07 390,185.24C390,185.4 390,185.57 390,185.73C390,185.89 390,186.06 390,186.22C390,186.38 390,186.55 390,186.71C390,186.87 390,187.04 390,187.2C390,187.37 390,187.53 390,187.7C390,187.86 390,188.03 390,188.19C390,188.35 390,188.52 390,188.68C390,188.84 390,189.01 390,189.17C390,189.33 390,189.5 390,189.66C390,189.83 390,189.99 390,190.16C390,190.32 390,190.49 390,190.65C390,190.81 390,190.98 390,191.14C390,191.3 390,191.47 390,191.63C390,191.79 390,191.96 390,192.12C390,192.29 390,192.45 390,192.62C390,192.78 390,192.95 390,193.11C390,193.27 390,193.44 390,193.6C390,193.76 390,193.93 390,194.09C390,194.25 390,194.42 390,194.58C390,194.75 390,194.91 390,195.08C390,195.24 390,195.41 390,195.57C390,195.73 390,195.9 390,196.06C390,196.22 390,196.39 390,196.55C390,196.71 390,196.88 390,197.04C390,197.2 390,197.37 390,197.53C390,197.7 389.99,197.86 389.99,198.03C389.99,198.19 389.99,198.36 389.98,198.52C389.97,198.68 389.95,198.85 389.94,199.01C389.92,199.17 389.91,199.34 389.89,199.5C389.87,199.66 389.84,199.83 389.8,199.99C389.76,200.16 389.72,200.32 389.67,200.49C389.62,200.65 389.57,200.82 389.52,200.98C389.47,201.14 389.42,201.31 389.38,201.47C389.34,201.63 389.3,201.8 389.28,201.96C389.26,202.12 389.25,202.29 389.25,202.45C389.25,202.62 389.27,202.79 389.3,202.95C389.33,203.12 389.38,203.28 389.42,203.44C389.47,203.6 389.52,203.77 389.57,203.93C389.62,204.09 389.67,204.26 389.71,204.42C389.75,204.58 389.8,204.75 389.83,204.91C389.86,205.08 389.89,205.24 389.91,205.41C389.93,205.57 389.95,205.74 389.96,205.9C389.97,206.06 389.97,206.23 389.98,206.39C389.98,206.55 389.99,206.72 389.99,206.88C389.99,207.04 390,207.21 390,207.37C390,207.53 390,207.7 390,207.86C390,208.03 390,208.19 390,208.36C390,208.52 390,208.69 390,208.85C390,209.01 390,209.18 390,209.34C390,209.5 390,209.67 390,209.83C390,209.99 390,210.16 390,210.32C390,210.49 390,210.65 390,210.82C390,210.98 390,211.15 390,211.31C390,211.47 390,211.64 390,211.8C390,211.96 390,212.13 390,212.29C390,212.45 390,212.62 390,212.78C390,212.95 390,213.11 390,213.28C390,213.44 390,213.61 390,213.77C390,213.93 390,214.1 390,214.26C390,214.42 390,214.59 390,214.75C390,214.91 390,215.08 390,215.24C390,215.41 390,215.57 390,215.74C390,215.9 390,216.07 390,216.23C390,216.39 390,216.56 390,216.72C390,216.88 390,217.05 390,217.21C390,217.37 390,217.54 390,217.7C390,217.87 390,218.03 390,218.2C390,218.36 390,218.53 390,218.69C390,218.85 390,219.02 390,219.18C390,219.34 389.99,219.51 389.99,219.67C389.99,219.83 389.99,220 389.98,220.16C389.97,220.32 389.96,220.49 389.95,220.65C389.94,220.82 389.92,220.98 389.9,221.15C389.88,221.31 389.84,221.48 389.81,221.64C389.77,221.8 389.73,221.97 389.69,222.13C389.65,222.29 389.6,222.46 389.55,222.62C389.5,222.78 389.44,222.94 389.4,223.11C389.36,223.27 389.32,223.44 389.29,223.61C389.27,223.77 389.25,223.94 389.25,224.1C389.25,224.26 389.27,224.43 389.29,224.59C389.32,224.75 389.36,224.92 389.4,225.08C389.44,225.24 389.5,225.41 389.55,225.57C389.6,225.74 389.65,225.9 389.69,226.07C389.73,226.23 389.77,226.4 389.81,226.56Q389.84,226.72 389.9,227.05Z" style="vector-effect: non-scaling-stroke; stroke-width: 2px; stroke: rgb(99, 110, 250); stroke-opacity: 1; fill: rgb(99, 110, 250); fill-opacity: 0.5;"/><path class="box" d="M68.45,76.52H87.56M68.45,76.52H87.56V76.52H68.45ZM78,76.52V76.52M78,76.52V76.52" style="vector-effect: non-scaling-stroke; stroke-width: 2px; stroke: rgb(99, 110, 250); stroke-opacity: 1; fill: rgb(99, 110, 250); fill-opacity: 0.5;"/><path class="box" d="M224.45,77.52H243.56M224.45,111.96H243.56V76.52H224.45ZM234,111.96V163.89M234,76.52V76.52" style="vector-effect: non-scaling-stroke; stroke-width: 2px; stroke: rgb(99, 110, 250); stroke-opacity: 1; fill: rgb(99, 110, 250); fill-opacity: 0.5;"/><path class="box" d="M380.45,76.52H399.55M380.45,76.52H399.55V76.52H380.45ZM390,76.52V76.52M390,76.52V76.52" style="vector-effect: non-scaling-stroke; stroke-width: 2px; stroke: rgb(99, 110, 250); stroke-opacity: 1; fill: rgb(99, 110, 250); fill-opacity: 0.5;"/><path class="mean" d="M68.45,93.98H87.56" style="fill: none; vector-effect: non-scaling-stroke; stroke-width: 2px; stroke-dasharray: 4px, 2px; stroke: rgb(99, 110, 250); stroke-opacity: 1;"/><path class="mean" d="M224.45,103.85H243.56" style="fill: none; vector-effect: non-scaling-stroke; stroke-width: 2px; stroke-dasharray: 4px, 2px; stroke: rgb(99, 110, 250); stroke-opacity: 1;"/><path class="mean" d="M380.45,87.76H399.55" style="fill: none; vector-effect: non-scaling-stroke; stroke-width: 2px; stroke-dasharray: 4px, 2px; stroke: rgb(99, 110, 250); stroke-opacity: 1;"/></g></g></g><g class="overplot"/><path class="xlines-above crisp" d="M0,0" style="fill: none;"/><path class="ylines-above crisp" d="M0,0" style="fill: none;"/><g class="overlines-above"/><g class="xaxislayer-above"><g class="xtick"><text text-anchor="middle" x="0" y="533" transform="translate(158,0)" style="font-family: 'Open Sans', verdana, arial, sans-serif; font-size: 12px; fill: rgb(42, 63, 95); fill-opacity: 1; white-space: pre; opacity: 1;">&#60;=1</text></g><g class="xtick"><text text-anchor="middle" x="0" y="533" transform="translate(314,0)" style="font-family: 'Open Sans', verdana, arial, sans-serif; font-size: 12px; fill: rgb(42, 63, 95); fill-opacity: 1; white-space: pre; opacity: 1;">(1, 2]</text></g><g class="xtick"><text text-anchor="middle" x="0" y="533" transform="translate(470,0)" style="font-family: 'Open Sans', verdana, arial, sans-serif; font-size: 12px; fill: rgb(42, 63, 95); fill-opacity: 1; white-space: pre; opacity: 1;">>2</text></g></g><g class="yaxislayer-above"><g class="ytick"><text text-anchor="end" x="79" y="4.199999999999999" transform="translate(0,504.14)" style="font-family: 'Open Sans', verdana, arial, sans-serif; font-size: 12px; fill: rgb(42, 63, 95); fill-opacity: 1; white-space: pre; opacity: 1;">0</text></g><g class="ytick"><text text-anchor="end" x="79" y="4.199999999999999" style="font-family: 'Open Sans', verdana, arial, sans-serif; font-size: 12px; fill: rgb(42, 63, 95); fill-opacity: 1; white-space: pre; opacity: 1;" transform="translate(0,438.62)">0.2</text></g><g class="ytick"><text text-anchor="end" x="79" y="4.199999999999999" style="font-family: 'Open Sans', verdana, arial, sans-serif; font-size: 12px; fill: rgb(42, 63, 95); fill-opacity: 1; white-space: pre; opacity: 1;" transform="translate(0,373.09)">0.4</text></g><g class="ytick"><text text-anchor="end" x="79" y="4.199999999999999" style="font-family: 'Open Sans', verdana, arial, sans-serif; font-size: 12px; fill: rgb(42, 63, 95); fill-opacity: 1; white-space: pre; opacity: 1;" transform="translate(0,307.57)">0.6</text></g><g class="ytick"><text text-anchor="end" x="79" y="4.199999999999999" style="font-family: 'Open Sans', verdana, arial, sans-serif; font-size: 12px; fill: rgb(42, 63, 95); fill-opacity: 1; white-space: pre; opacity: 1;" transform="translate(0,242.05)">0.8</text></g><g class="ytick"><text text-anchor="end" x="79" y="4.199999999999999" style="font-family: 'Open Sans', verdana, arial, sans-serif; font-size: 12px; fill: rgb(42, 63, 95); fill-opacity: 1; white-space: pre; opacity: 1;" transform="translate(0,176.51999999999998)">1</text></g><g class="ytick"><text text-anchor="end" x="79" y="4.199999999999999" style="font-family: 'Open Sans', verdana, arial, sans-serif; font-size: 12px; fill: rgb(42, 63, 95); fill-opacity: 1; white-space: pre; opacity: 1;" transform="translate(0,111)">1.2</text></g></g><g class="overaxes-above"/></g><g class="subplot x2y2"><g class="layer-subplot"><g class="shapelayer"/><g class="imagelayer"/></g><g class="minor-gridlayer"><g class="x2"/><g class="y2"/></g><g class="gridlayer"><g class="x2"/><g class="y2"><path class="y2grid crisp" transform="translate(0,438.62)" d="M652,0h467.99999999999994" style="stroke: rgb(255, 255, 255); stroke-opacity: 1; stroke-width: 1px;"/><path class="y2grid crisp" transform="translate(0,373.09)" d="M652,0h467.99999999999994" style="stroke: rgb(255, 255, 255); stroke-opacity: 1; stroke-width: 1px;"/><path class="y2grid crisp" transform="translate(0,307.57)" d="M652,0h467.99999999999994" style="stroke: rgb(255, 255, 255); stroke-opacity: 1; stroke-width: 1px;"/><path class="y2grid crisp" transform="translate(0,242.05)" d="M652,0h467.99999999999994" style="stroke: rgb(255, 255, 255); stroke-opacity: 1; stroke-width: 1px;"/><path class="y2grid crisp" transform="translate(0,176.51999999999998)" d="M652,0h467.99999999999994" style="stroke: rgb(255, 255, 255); stroke-opacity: 1; stroke-width: 1px;"/><path class="y2grid crisp" transform="translate(0,111)" d="M652,0h467.99999999999994" style="stroke: rgb(255, 255, 255); stroke-opacity: 1; stroke-width: 1px;"/></g></g><g class="zerolinelayer"><path class="y2zl zl crisp" transform="translate(0,504.14)" d="M652,0h467.99999999999994" style="stroke: rgb(255, 255, 255); stroke-opacity: 1; stroke-width: 2px;"/></g><path class="xlines-below"/><path class="ylines-below"/><g class="overlines-below"/><g class="xaxislayer-below"/><g class="yaxislayer-below"/><g class="overaxes-below"/><g class="plot" transform="translate(652,100)" clip-path="url(#clipbd3cacx2y2plot)"><g class="violinlayer mlayer"><g class="trace violins" style="opacity: 1;"><path class="violin" d="M78.02,399Q78.03,396.31 78.04,394.97C78.05,393.62 78.07,392.28 78.08,390.93C78.09,389.59 78.11,388.24 78.12,386.9C78.13,385.56 78.15,384.21 78.16,382.87C78.17,381.53 78.18,380.18 78.19,378.84C78.2,377.49 78.21,376.15 78.21,374.8C78.21,373.46 78.21,372.11 78.21,370.77C78.21,369.43 78.2,368.08 78.19,366.74C78.18,365.39 78.17,364.05 78.16,362.7C78.15,361.36 78.14,360.01 78.13,358.67C78.12,357.33 78.11,355.98 78.11,354.64C78.11,353.29 78.1,351.95 78.11,350.6C78.12,349.26 78.13,347.91 78.14,346.57C78.15,345.23 78.17,343.88 78.19,342.54C78.21,341.2 78.25,339.85 78.28,338.51C78.32,337.16 78.36,335.82 78.4,334.47C78.44,333.13 78.49,331.78 78.54,330.44C78.59,329.1 78.65,327.75 78.7,326.41C78.76,325.06 78.81,323.72 78.87,322.37C78.92,321.03 78.98,319.68 79.03,318.34C79.08,317 79.12,315.65 79.16,314.31C79.2,312.96 79.23,311.62 79.26,310.27C79.29,308.93 79.31,307.58 79.33,306.24C79.35,304.9 79.37,303.55 79.39,302.21C79.41,300.87 79.44,299.52 79.47,298.18C79.5,296.83 79.54,295.49 79.59,294.14C79.64,292.8 79.71,291.45 79.79,290.11C79.87,288.77 79.96,287.42 80.07,286.08C80.18,284.73 80.3,283.39 80.44,282.04C80.58,280.7 80.73,279.35 80.9,278.01C81.07,276.67 81.24,275.32 81.44,273.98C81.64,272.63 81.85,271.28 82.1,269.94C82.35,268.59 82.6,267.25 82.93,265.91C83.26,264.56 83.62,263.21 84.08,261.88C84.55,260.52 85.08,259.17 85.74,257.85C86.42,256.48 87.22,255.12 88.13,253.81C89.09,252.43 90.19,251.09 91.37,249.78C92.62,248.4 94.02,247.07 95.45,245.75C96.93,244.38 98.54,243.05 100.11,241.71C101.7,240.36 103.38,239.04 104.94,237.68C106.47,236.35 108.03,235.03 109.4,233.65C110.69,232.34 111.96,231.01 112.96,229.61C113.89,228.31 114.73,226.96 115.28,225.58C115.8,224.27 116.12,222.9 116.22,221.55C116.32,220.21 116.15,218.85 115.88,217.52C115.6,216.16 115.08,214.81 114.53,213.48C113.97,212.12 113.24,210.78 112.52,209.45C111.79,208.09 110.96,206.76 110.16,205.42C109.36,204.07 108.52,202.73 107.71,201.38C106.9,200.04 106.09,198.7 105.3,197.35C104.51,196.01 103.74,194.67 102.98,193.32C102.23,191.98 101.5,190.63 100.78,189.28C100.07,187.94 99.37,186.6 98.7,185.25C98.04,183.91 97.38,182.57 96.78,181.22C96.18,179.88 95.61,178.54 95.09,177.19C94.57,175.85 94.09,174.5 93.66,173.15C93.23,171.81 92.86,170.47 92.51,169.12C92.16,167.78 91.87,166.44 91.57,165.09C91.28,163.75 91.02,162.4 90.74,161.05C90.46,159.71 90.19,158.36 89.91,157.02C89.62,155.68 89.34,154.33 89.03,152.99C88.72,151.64 88.4,150.3 88.07,148.95C87.74,147.61 87.4,146.26 87.07,144.92C86.74,143.58 86.41,142.23 86.1,140.89C85.79,139.55 85.49,138.21 85.22,136.86C84.95,135.52 84.7,134.17 84.48,132.82C84.26,131.48 84.07,130.13 83.89,128.79C83.72,127.45 83.57,126.1 83.43,124.76C83.29,123.41 83.18,122.07 83.06,120.72C82.94,119.38 82.83,118.03 82.71,116.69C82.59,115.35 82.46,114 82.35,112.66C82.24,111.31 82.11,109.97 82.03,108.62C81.95,107.28 81.87,105.93 81.89,104.59C81.91,103.25 81.96,101.9 82.13,100.56C82.31,99.21 82.57,97.86 82.95,96.53C83.34,95.17 83.86,93.82 84.43,92.49C85.01,91.13 85.74,89.8 86.41,88.46C87.08,87.11 87.87,85.79 88.47,84.43C89.06,83.1 89.66,81.76 89.99,80.39C90.31,79.07 90.51,77.7 90.46,76.36C90.41,75.01 90.09,73.65 89.67,72.33C89.23,70.96 88.52,69.62 87.82,68.29C87.1,66.93 86.22,65.6 85.42,64.26C84.62,62.92 83.76,61.59 83.03,60.23C82.31,58.9 81.63,57.56 81.06,56.2Q80.51,54.87 79.66,52.16L76.34,52.16Q75.49,54.87 74.94,56.2C74.37,57.56 73.69,58.9 72.97,60.23C72.24,61.59 71.38,62.92 70.58,64.26C69.78,65.6 68.9,66.93 68.18,68.29C67.48,69.62 66.77,70.96 66.33,72.33C65.91,73.65 65.59,75.01 65.54,76.36C65.49,77.7 65.69,79.07 66.01,80.39C66.34,81.76 66.94,83.1 67.53,84.43C68.13,85.79 68.92,87.11 69.59,88.46C70.26,89.8 70.99,91.13 71.57,92.49C72.14,93.82 72.66,95.17 73.05,96.53C73.43,97.86 73.69,99.21 73.87,100.56C74.04,101.9 74.09,103.25 74.11,104.59C74.13,105.93 74.05,107.28 73.97,108.62C73.89,109.97 73.76,111.31 73.65,112.66C73.54,114 73.41,115.35 73.29,116.69C73.17,118.03 73.06,119.38 72.94,120.72C72.82,122.07 72.71,123.41 72.57,124.76C72.43,126.1 72.28,127.45 72.11,128.79C71.93,130.13 71.74,131.48 71.52,132.82C71.3,134.17 71.05,135.52 70.78,136.86C70.51,138.21 70.21,139.55 69.9,140.89C69.59,142.23 69.26,143.58 68.93,144.92C68.6,146.26 68.26,147.61 67.93,148.95C67.6,150.3 67.28,151.64 66.97,152.99C66.66,154.33 66.38,155.68 66.09,157.02C65.81,158.36 65.54,159.71 65.26,161.05C64.98,162.4 64.72,163.75 64.43,165.09C64.13,166.44 63.84,167.78 63.49,169.12C63.14,170.47 62.77,171.81 62.34,173.15C61.91,174.5 61.43,175.85 60.91,177.19C60.39,178.54 59.82,179.88 59.22,181.22C58.62,182.57 57.96,183.91 57.3,185.25C56.63,186.6 55.93,187.94 55.22,189.28C54.5,190.63 53.77,191.98 53.02,193.32C52.26,194.67 51.49,196.01 50.7,197.35C49.91,198.7 49.1,200.04 48.29,201.38C47.48,202.73 46.64,204.07 45.84,205.42C45.04,206.76 44.21,208.09 43.48,209.45C42.76,210.78 42.03,212.12 41.47,213.48C40.92,214.81 40.4,216.16 40.12,217.52C39.85,218.85 39.68,220.21 39.78,221.55C39.88,222.9 40.2,224.27 40.72,225.58C41.27,226.96 42.11,228.31 43.04,229.61C44.04,231.01 45.31,232.34 46.6,233.65C47.97,235.03 49.53,236.35 51.06,237.68C52.62,239.04 54.3,240.36 55.89,241.71C57.46,243.05 59.07,244.38 60.55,245.75C61.98,247.07 63.38,248.4 64.63,249.78C65.81,251.09 66.91,252.43 67.87,253.81C68.78,255.12 69.58,256.48 70.26,257.85C70.92,259.17 71.45,260.52 71.92,261.88C72.38,263.21 72.74,264.56 73.07,265.91C73.4,267.25 73.65,268.59 73.9,269.94C74.15,271.28 74.36,272.63 74.56,273.98C74.76,275.32 74.93,276.67 75.1,278.01C75.27,279.35 75.42,280.7 75.56,282.04C75.7,283.39 75.82,284.73 75.93,286.08C76.04,287.42 76.13,288.77 76.21,290.11C76.29,291.45 76.36,292.8 76.41,294.14C76.46,295.49 76.5,296.83 76.53,298.18C76.56,299.52 76.59,300.87 76.61,302.21C76.63,303.55 76.65,304.9 76.67,306.24C76.69,307.58 76.71,308.93 76.74,310.27C76.77,311.62 76.8,312.96 76.84,314.31C76.88,315.65 76.92,317 76.97,318.34C77.02,319.68 77.08,321.03 77.13,322.37C77.19,323.72 77.24,325.06 77.3,326.41C77.35,327.75 77.41,329.1 77.46,330.44C77.51,331.78 77.56,333.13 77.6,334.47C77.64,335.82 77.68,337.16 77.72,338.51C77.75,339.85 77.79,341.2 77.81,342.54C77.83,343.88 77.85,345.23 77.86,346.57C77.87,347.91 77.88,349.26 77.89,350.6C77.9,351.95 77.89,353.29 77.89,354.64C77.89,355.98 77.88,357.33 77.87,358.67C77.86,360.01 77.85,361.36 77.84,362.7C77.83,364.05 77.82,365.39 77.81,366.74C77.8,368.08 77.79,369.43 77.79,370.77C77.79,372.11 77.79,373.46 77.79,374.8C77.79,376.15 77.8,377.49 77.81,378.84C77.82,380.18 77.83,381.53 77.84,382.87C77.85,384.21 77.87,385.56 77.88,386.9C77.89,388.24 77.91,389.59 77.92,390.93C77.93,392.28 77.95,393.62 77.96,394.97Q77.97,396.31 77.98,399Z" style="vector-effect: non-scaling-stroke; stroke-width: 2px; stroke: rgb(239, 85, 59); stroke-opacity: 1; fill: rgb(239, 85, 59); fill-opacity: 0.5;"/><path class="violin" d="M234.03,352.47Q234.05,348.78 234.06,346.94C234.07,345.1 234.09,343.26 234.11,341.42C234.13,339.58 234.15,337.73 234.17,335.89C234.19,334.05 234.22,332.21 234.24,330.37C234.27,328.53 234.29,326.68 234.32,324.84C234.35,323 234.37,321.15 234.4,319.31C234.43,317.47 234.46,315.63 234.49,313.79C234.52,311.95 234.56,310.1 234.6,308.26C234.64,306.42 234.68,304.58 234.74,302.74C234.8,300.9 234.86,299.05 234.94,297.21C235.02,295.37 235.1,293.52 235.21,291.68C235.31,289.84 235.43,288 235.57,286.16C235.71,284.32 235.84,282.47 236.03,280.63C236.22,278.79 236.42,276.95 236.69,275.11C236.96,273.26 237.26,271.41 237.67,269.58C238.08,267.73 238.56,265.88 239.16,264.05C239.77,262.19 240.49,260.35 241.31,258.53C242.15,256.66 243.14,254.82 244.18,253C245.25,251.14 246.45,249.31 247.65,247.48C248.86,245.63 250.17,243.8 251.41,241.95C252.64,240.11 253.92,238.28 255.05,236.42C256.15,234.6 257.23,232.77 258.12,230.9C258.99,229.08 259.75,227.24 260.34,225.37C260.91,223.55 261.33,221.7 261.62,219.85C261.9,218.02 262.02,216.16 262.06,214.32C262.1,212.48 262,210.63 261.85,208.79C261.7,206.95 261.46,205.11 261.18,203.27C260.9,201.42 260.55,199.58 260.18,197.74C259.8,195.9 259.38,194.06 258.93,192.22C258.48,190.37 257.97,188.53 257.46,186.69C256.95,184.84 256.4,183 255.85,181.16C255.3,179.32 254.72,177.48 254.16,175.64C253.61,173.8 253.05,171.95 252.52,170.11C251.99,168.27 251.47,166.43 250.99,164.59C250.51,162.75 250.05,160.91 249.62,159.06C249.19,157.22 248.8,155.37 248.42,153.53C248.04,151.69 247.69,149.85 247.36,148.01C247.03,146.17 246.72,144.32 246.42,142.48C246.13,140.64 245.85,138.79 245.59,136.95C245.34,135.11 245.11,133.27 244.89,131.43C244.68,129.59 244.48,127.74 244.3,125.9C244.12,124.06 243.95,122.22 243.79,120.38C243.63,118.54 243.48,116.69 243.35,114.85C243.22,113.01 243.1,111.16 243.03,109.32C242.96,107.48 242.91,105.64 242.92,103.8C242.93,101.96 243,100.11 243.12,98.27C243.24,96.43 243.44,94.59 243.63,92.75C243.82,90.91 244.08,89.07 244.24,87.22C244.4,85.38 244.59,83.53 244.61,81.69C244.63,79.85 244.58,78 244.38,76.17C244.18,74.32 243.82,72.47 243.38,70.64C242.94,68.79 242.34,66.95 241.74,65.12C241.14,63.27 240.42,61.44 239.78,59.59C239.14,57.75 238.46,55.91 237.89,54.06C237.32,52.23 236.8,50.39 236.36,48.54Q235.93,46.71 235.28,43.01L232.72,43.01Q232.07,46.71 231.64,48.54C231.2,50.39 230.68,52.23 230.11,54.06C229.54,55.91 228.86,57.75 228.22,59.59C227.58,61.44 226.86,63.27 226.26,65.12C225.66,66.95 225.06,68.79 224.62,70.64C224.18,72.47 223.82,74.32 223.62,76.17C223.42,78 223.37,79.85 223.39,81.69C223.41,83.53 223.6,85.38 223.76,87.22C223.92,89.07 224.18,90.91 224.37,92.75C224.56,94.59 224.76,96.43 224.88,98.27C225,100.11 225.07,101.96 225.08,103.8C225.09,105.64 225.04,107.48 224.97,109.32C224.9,111.16 224.78,113.01 224.65,114.85C224.52,116.69 224.37,118.54 224.21,120.38C224.05,122.22 223.88,124.06 223.7,125.9C223.52,127.74 223.32,129.59 223.11,131.43C222.89,133.27 222.66,135.11 222.41,136.95C222.15,138.79 221.87,140.64 221.58,142.48C221.28,144.32 220.97,146.17 220.64,148.01C220.31,149.85 219.96,151.69 219.58,153.53C219.2,155.37 218.81,157.22 218.38,159.06C217.95,160.91 217.49,162.75 217.01,164.59C216.53,166.43 216.01,168.27 215.48,170.11C214.95,171.95 214.39,173.8 213.84,175.64C213.28,177.48 212.7,179.32 212.15,181.16C211.6,183 211.05,184.84 210.54,186.69C210.03,188.53 209.52,190.37 209.07,192.22C208.62,194.06 208.2,195.9 207.82,197.74C207.45,199.58 207.1,201.42 206.82,203.27C206.54,205.11 206.3,206.95 206.15,208.79C206,210.63 205.9,212.48 205.94,214.32C205.98,216.16 206.1,218.02 206.38,219.85C206.67,221.7 207.09,223.55 207.66,225.37C208.25,227.24 209.01,229.08 209.88,230.9C210.77,232.77 211.85,234.6 212.95,236.42C214.08,238.28 215.36,240.11 216.59,241.95C217.83,243.8 219.14,245.63 220.35,247.48C221.55,249.31 222.75,251.14 223.82,253C224.86,254.82 225.85,256.66 226.69,258.53C227.51,260.35 228.23,262.19 228.84,264.05C229.44,265.88 229.92,267.73 230.33,269.58C230.74,271.41 231.04,273.26 231.31,275.11C231.58,276.95 231.78,278.79 231.97,280.63C232.16,282.47 232.29,284.32 232.43,286.16C232.57,288 232.69,289.84 232.79,291.68C232.9,293.52 232.98,295.37 233.06,297.21C233.14,299.05 233.2,300.9 233.26,302.74C233.32,304.58 233.36,306.42 233.4,308.26C233.44,310.1 233.48,311.95 233.51,313.79C233.54,315.63 233.57,317.47 233.6,319.31C233.63,321.15 233.65,323 233.68,324.84C233.71,326.68 233.73,328.53 233.76,330.37C233.78,332.21 233.81,334.05 233.83,335.89C233.85,337.73 233.87,339.58 233.89,341.42C233.91,343.26 233.93,345.1 233.94,346.94Q233.95,348.78 233.97,352.47Z" style="vector-effect: non-scaling-stroke; stroke-width: 2px; stroke: rgb(239, 85, 59); stroke-opacity: 1; fill: rgb(239, 85, 59); fill-opacity: 0.5;"/><path class="violin" d="M390.13,365.33Q390.2,359.29 390.25,356.27C390.3,353.25 390.37,350.23 390.44,347.21C390.51,344.19 390.6,341.17 390.69,338.15C390.79,335.13 390.9,332.11 391.01,329.09C391.12,326.07 391.24,323.04 391.37,320.02C391.5,317 391.63,313.98 391.77,310.96C391.91,307.94 392.06,304.92 392.23,301.9C392.4,298.88 392.58,295.86 392.8,292.84C393.02,289.82 393.27,286.8 393.56,283.78C393.85,280.76 394.18,277.74 394.55,274.72C394.92,271.7 395.35,268.68 395.8,265.66C396.25,262.64 396.76,259.62 397.27,256.6C397.78,253.58 398.33,250.55 398.86,247.53C399.39,244.51 399.94,241.49 400.46,238.47C400.98,235.45 401.49,232.43 401.97,229.41C402.45,226.39 402.89,223.37 403.32,220.35C403.74,217.33 404.14,214.31 404.52,211.29C404.9,208.27 405.25,205.25 405.58,202.23C405.91,199.21 406.23,196.19 406.52,193.17C406.81,190.15 407.09,187.12 407.32,184.1C407.55,181.08 407.76,178.06 407.91,175.04C408.06,172.02 408.17,169 408.2,165.98C408.23,162.96 408.19,159.94 408.09,156.92C407.99,153.9 407.8,150.88 407.59,147.86C407.37,144.84 407.08,141.82 406.8,138.8C406.52,135.78 406.19,132.76 405.93,129.74C405.67,126.72 405.41,123.69 405.24,120.67C405.07,117.65 404.95,114.63 404.89,111.61C404.83,108.59 404.86,105.57 404.86,102.55C404.86,99.53 404.94,96.51 404.9,93.49C404.86,90.47 404.82,87.45 404.62,84.43C404.42,81.41 404.11,78.38 403.67,75.37C403.22,72.34 402.62,69.32 401.95,66.31C401.27,63.28 400.43,60.27 399.62,57.25C398.81,54.22 397.89,51.21 397.07,48.18C396.25,45.16 395.42,42.15 394.72,39.12C394.02,36.11 393.38,33.09 392.85,30.06Q392.32,27.05 391.55,21L388.45,21Q387.68,27.05 387.15,30.06C386.62,33.09 385.98,36.11 385.28,39.12C384.58,42.15 383.75,45.16 382.93,48.18C382.11,51.21 381.19,54.22 380.38,57.25C379.57,60.27 378.73,63.28 378.05,66.31C377.38,69.32 376.78,72.34 376.33,75.37C375.89,78.38 375.58,81.41 375.38,84.43C375.18,87.45 375.14,90.47 375.1,93.49C375.06,96.51 375.14,99.53 375.14,102.55C375.14,105.57 375.17,108.59 375.11,111.61C375.05,114.63 374.93,117.65 374.76,120.67C374.59,123.69 374.33,126.72 374.07,129.74C373.81,132.76 373.48,135.78 373.2,138.8C372.92,141.82 372.63,144.84 372.41,147.86C372.2,150.88 372.01,153.9 371.91,156.92C371.81,159.94 371.77,162.96 371.8,165.98C371.83,169 371.94,172.02 372.09,175.04C372.24,178.06 372.45,181.08 372.68,184.1C372.91,187.12 373.19,190.15 373.48,193.17C373.77,196.19 374.09,199.21 374.42,202.23C374.75,205.25 375.1,208.27 375.48,211.29C375.86,214.31 376.26,217.33 376.68,220.35C377.11,223.37 377.55,226.39 378.03,229.41C378.51,232.43 379.02,235.45 379.54,238.47C380.06,241.49 380.61,244.51 381.14,247.53C381.67,250.55 382.22,253.58 382.73,256.6C383.24,259.62 383.75,262.64 384.2,265.66C384.65,268.68 385.08,271.7 385.45,274.72C385.82,277.74 386.15,280.76 386.44,283.78C386.73,286.8 386.98,289.82 387.2,292.84C387.42,295.86 387.6,298.88 387.77,301.9C387.94,304.92 388.09,307.94 388.23,310.96C388.37,313.98 388.5,317 388.63,320.02C388.76,323.04 388.88,326.07 388.99,329.09C389.1,332.11 389.21,335.13 389.31,338.15C389.4,341.17 389.49,344.19 389.56,347.21C389.63,350.23 389.7,353.25 389.75,356.27Q389.8,359.29 389.87,365.33Z" style="vector-effect: non-scaling-stroke; stroke-width: 2px; stroke: rgb(239, 85, 59); stroke-opacity: 1; fill: rgb(239, 85, 59); fill-opacity: 0.5;"/><path class="box" d="M68.44,205.68H87.55M68.44,225.68H87.55V163.72H68.44ZM78,225.68V318.05M78,163.72V76.52" style="vector-effect: non-scaling-stroke; stroke-width: 2px; stroke: rgb(239, 85, 59); stroke-opacity: 1; fill: rgb(239, 85, 59); fill-opacity: 0.5;"/><path class="box" d="M224.44,190.56H243.55M224.44,220.6H243.55V142.55H224.44ZM234,220.6V318.96M234,142.55V76.52" style="vector-effect: non-scaling-stroke; stroke-width: 2px; stroke: rgb(239, 85, 59); stroke-opacity: 1; fill: rgb(239, 85, 59); fill-opacity: 0.5;"/><path class="box" d="M380.44,153.43H399.55M380.44,204.32H399.55V109.3H380.44ZM390,204.32V309.81M390,109.3V76.52" style="vector-effect: non-scaling-stroke; stroke-width: 2px; stroke: rgb(239, 85, 59); stroke-opacity: 1; fill: rgb(239, 85, 59); fill-opacity: 0.5;"/><path class="mean" d="M68.44,190.43H87.55" style="fill: none; vector-effect: non-scaling-stroke; stroke-width: 2px; stroke-dasharray: 4px, 2px; stroke: rgb(239, 85, 59); stroke-opacity: 1;"/><path class="mean" d="M224.44,178.06H243.55" style="fill: none; vector-effect: non-scaling-stroke; stroke-width: 2px; stroke-dasharray: 4px, 2px; stroke: rgb(239, 85, 59); stroke-opacity: 1;"/><path class="mean" d="M380.44,157.63H399.55" style="fill: none; vector-effect: non-scaling-stroke; stroke-width: 2px; stroke-dasharray: 4px, 2px; stroke: rgb(239, 85, 59); stroke-opacity: 1;"/></g></g></g><g class="overplot"/><path class="xlines-above crisp" d="M0,0" style="fill: none;"/><path class="ylines-above crisp" d="M0,0" style="fill: none;"/><g class="overlines-above"/><g class="xaxislayer-above"><g class="x2tick"><text text-anchor="middle" x="0" y="533" transform="translate(730,0)" style="font-family: 'Open Sans', verdana, arial, sans-serif; font-size: 12px; fill: rgb(42, 63, 95); fill-opacity: 1; white-space: pre; opacity: 1;">&#60;=1</text></g><g class="x2tick"><text text-anchor="middle" x="0" y="533" transform="translate(886,0)" style="font-family: 'Open Sans', verdana, arial, sans-serif; font-size: 12px; fill: rgb(42, 63, 95); fill-opacity: 1; white-space: pre; opacity: 1;">(1, 2]</text></g><g class="x2tick"><text text-anchor="middle" x="0" y="533" transform="translate(1042,0)" style="font-family: 'Open Sans', verdana, arial, sans-serif; font-size: 12px; fill: rgb(42, 63, 95); fill-opacity: 1; white-space: pre; opacity: 1;">>2</text></g></g><g class="yaxislayer-above"><g class="y2tick"><text text-anchor="end" x="651" y="4.199999999999999" transform="translate(0,504.14)" style="font-family: 'Open Sans', verdana, arial, sans-serif; font-size: 12px; fill: rgb(42, 63, 95); fill-opacity: 1; white-space: pre; opacity: 1;">0</text></g><g class="y2tick"><text text-anchor="end" x="651" y="4.199999999999999" style="font-family: 'Open Sans', verdana, arial, sans-serif; font-size: 12px; fill: rgb(42, 63, 95); fill-opacity: 1; white-space: pre; opacity: 1;" transform="translate(0,438.62)">0.2</text></g><g class="y2tick"><text text-anchor="end" x="651" y="4.199999999999999" style="font-family: 'Open Sans', verdana, arial, sans-serif; font-size: 12px; fill: rgb(42, 63, 95); fill-opacity: 1; white-space: pre; opacity: 1;" transform="translate(0,373.09)">0.4</text></g><g class="y2tick"><text text-anchor="end" x="651" y="4.199999999999999" style="font-family: 'Open Sans', verdana, arial, sans-serif; font-size: 12px; fill: rgb(42, 63, 95); fill-opacity: 1; white-space: pre; opacity: 1;" transform="translate(0,307.57)">0.6</text></g><g class="y2tick"><text text-anchor="end" x="651" y="4.199999999999999" style="font-family: 'Open Sans', verdana, arial, sans-serif; font-size: 12px; fill: rgb(42, 63, 95); fill-opacity: 1; white-space: pre; opacity: 1;" transform="translate(0,242.05)">0.8</text></g><g class="y2tick"><text text-anchor="end" x="651" y="4.199999999999999" style="font-family: 'Open Sans', verdana, arial, sans-serif; font-size: 12px; fill: rgb(42, 63, 95); fill-opacity: 1; white-space: pre; opacity: 1;" transform="translate(0,176.51999999999998)">1</text></g><g class="y2tick"><text text-anchor="end" x="651" y="4.199999999999999" style="font-family: 'Open Sans', verdana, arial, sans-serif; font-size: 12px; fill: rgb(42, 63, 95); fill-opacity: 1; white-space: pre; opacity: 1;" transform="translate(0,111)">1.2</text></g></g><g class="overaxes-above"/></g></g><g class="polarlayer"/><g class="smithlayer"/><g class="ternarylayer"/><g class="geolayer"/><g class="funnelarealayer"/><g class="pielayer"/><g class="iciclelayer"/><g class="treemaplayer"/><g class="sunburstlayer"/><g class="glimages"/><defs id="topdefs-bd3cac"><g class="clips"/></defs><g class="layer-above"><g class="imagelayer"/><g class="shapelayer"/></g><g class="infolayer"><g class="g-gtitle"><text class="gtitle" x="60" y="50" text-anchor="start" dy="0em" style="font-family: 'Open Sans', verdana, arial, sans-serif; font-size: 17px; fill: rgb(42, 63, 95); opacity: 1; font-weight: normal; white-space: pre;">discount_rate Distributions (hardcover better)</text></g><g class="g-xtitle"><text class="xtitle" x="314" y="561.8" text-anchor="middle" style="font-family: 'Open Sans', verdana, arial, sans-serif; font-size: 14px; fill: rgb(42, 63, 95); opacity: 1; font-weight: normal; white-space: pre;">Hardcover over Paperback</text></g><g class="g-x2title"><text class="x2title" x="886" y="561.8" text-anchor="middle" style="font-family: 'Open Sans', verdana, arial, sans-serif; font-size: 14px; fill: rgb(42, 63, 95); opacity: 1; font-weight: normal; white-space: pre;">Hardcover over Paperback</text></g><g class="g-ytitle"><text class="ytitle" transform="rotate(-90,37.325,310)" x="37.325" y="310" text-anchor="middle" style="font-family: 'Open Sans', verdana, arial, sans-serif; font-size: 14px; fill: rgb(42, 63, 95); opacity: 1; font-weight: normal; white-space: pre;">discount_rate</text></g><g class="g-y2title"><text class="y2title" transform="rotate(-90,609.325,310)" x="609.325" y="310" text-anchor="middle" style="font-family: 'Open Sans', verdana, arial, sans-serif; font-size: 14px; fill: rgb(42, 63, 95); opacity: 1; font-weight: normal; white-space: pre;">discount_rate</text></g><g class="annotation" data-index="0" style="opacity: 1;"><g class="annotation-text-g" transform="rotate(0,314,87)"><g class="cursor-pointer" transform="translate(273,74)"><rect class="bg" x="0.5" y="0.5" width="82" height="25" style="stroke-width: 1px; stroke: rgb(0, 0, 0); stroke-opacity: 0; fill: rgb(0, 0, 0); fill-opacity: 0;"/><text class="annotation-text" text-anchor="middle" x="41.296875" y="19" style="font-family: 'Open Sans', verdana, arial, sans-serif; font-size: 16px; fill: rgb(42, 63, 95); fill-opacity: 1; white-space: pre;">Paperback</text></g></g></g><g class="annotation" data-index="1" style="opacity: 1;"><g class="annotation-text-g" transform="rotate(0,886,87)"><g class="cursor-pointer" transform="translate(845,74)"><rect class="bg" x="0.5" y="0.5" width="81" height="25" style="stroke-width: 1px; stroke: rgb(0, 0, 0); stroke-opacity: 0; fill: rgb(0, 0, 0); fill-opacity: 0;"/><text class="annotation-text" text-anchor="middle" x="40.921875" y="19" style="font-family: 'Open Sans', verdana, arial, sans-serif; font-size: 16px; fill: rgb(42, 63, 95); fill-opacity: 1; white-space: pre;">Hardcover</text></g></g></g></g></svg>