<svg class="main-svg" xmlns="http://www.w3.org/2000/svg" xmlns:xlink="http://www.w3.org/1999/xlink" width="1200" height="600" style="" viewBox="0 0 1200 600"><rect x="0" y="0" width="1200" height="600" style="fill: rgb(255, 255, 255); fill-opacity: 1;"/><defs id="defs-699a9f"><g class="clips"><clipPath id="clip699a9fxyplot" class="plotclip"><rect width="468" height="420"/></clipPath><clipPath id="clip699a9fx2y2plot" class="plotclip"><rect width="467.99999999999994" height="420"/></clipPath><clipPath class="axesclip" id="clip699a9fx"><rect x="80" y="0" width="468" height="600"/></clipPath><clipPath class="axesclip" id="clip699a9fy"><rect x="0" y="100" width="1200" height="420"/></clipPath><clipPath class="axesclip" id="clip699a9fxy"><rect x="80" y="100" width="468" height="420"/></clipPath><clipPath class="axesclip" id="clip699a9fy2"><rect x="0" y="100" width="1200" height="420"/></clipPath><clipPath class="axesclip" id="clip699a9fxy2"><rect x="80" y="100" width="468" height="420"/></clipPath><clipPath class="axesclip" id="clip699a9fx2"><rect x="652" y="0" width="467.99999999999994" height="600"/></clipPath><clipPath class="axesclip" id="clip699a9fx2y"><rect x="652" y="100" width="467.99999999999994" height="420"/></clipPath><clipPath class="axesclip" id="clip699a9fx2y2"><rect x="652" y="100" width="467.99999999999994" height="420"/></clipPath></g><g class="gradients"/><g class="patterns"/></defs><g class="bglayer"><rect class="bg" x="80" y="100" width="468" height="420" style="fill: rgb(229, 236, 246); fill-opacity: 1; stroke-width: 0;"/><rect class="bg" x="652" y="100" width="467.99999999999994" height="420" style="fill: rgb(229, 236, 246); fill-opacity: 1; stroke-width: 0;"/></g><g class="layer-below"><g class="imagelayer"/><g class="shapelayer"/></g><g class="cartesianlayer"><g class="subplot xy"><g class="layer-subplot"><g class="shapelayer"/><g class="imagelayer"/></g><g class="minor-gridlayer"><g class="x"/><g class="y"/></g><g class="gridlayer"><g class="x"/><g class="y"><path class="ygrid crisp" transform="translate(0,511.99)" d="M80,0h468" style="stroke: rgb(255, 255, 255); stroke-opacity: 1; stroke-width: 1px;"/><path class="ygrid crisp" transform="translate(0,416.82)" d="M80,0h468" style="stroke: rgb(255, 255, 255); stroke-opacity: 1; stroke-width: 1px;"/><path class="ygrid crisp" transform="translate(0,369.23)" d="M80,0h468" style="stroke: rgb(255, 255, 255); stroke-opacity: 1; stroke-width: 1px;"/><path class="ygrid crisp" transform="translate(0,321.64)" d="M80,0h468" style="stroke: rgb(255, 255, 255); stroke-opacity: 1; stroke-width: 1px;"/><path class="ygrid crisp" transform="translate(0,274.05)" d="M80,0h468" style="stroke: rgb(255, 255, 255); stroke-opacity: 1; stroke-width: 1px;"/><path class="ygrid crisp" transform="translate(0,226.45999999999998)" d="M80,0h468" style="stroke: rgb(255, 255, 255); stroke-opacity: 1; stroke-width: 1px;"/><path class="ygrid crisp" transform="translate(0,178.88)" d="M80,0h468" style="stroke: rgb(255, 255, 255); stroke-opacity: 1; stroke-width: 1px;"/><path class="ygrid crisp" transform="translate(0,131.29)" d="M80,0h468" style="stroke: rgb(255, 255, 255); stroke-opacity: 1; stroke-width: 1px;"/></g></g><g class="zerolinelayer"><path class="yzl zl crisp" transform="translate(0,464.4)" d="M80,0h468" style="stroke: rgb(255, 255, 255); stroke-opacity: 1; stroke-width: 2px;"/></g><path class="xlines-below"/><path class="ylines-below"/><g class="overlines-below"/><g class="xaxislayer-below"/><g class="yaxislayer-below"/><g class="overaxes-below"/><g class="plot" transform="translate(80,100)" clip-path="url(#clip699a9fxyplot)"><g class="violinlayer mlayer"><g class="trace violins" style="opacity: 1;"><path class="violin" d="M78.02,350.04Q78.04,347.04 78.05,345.54C78.06,344.04 78.07,342.54 78.08,341.04C78.1,339.54 78.12,338.03 78.14,336.53C78.16,335.03 78.19,333.53 78.22,332.03C78.25,330.53 78.29,329.02 78.33,327.52C78.37,326.02 78.42,324.52 78.47,323.02C78.52,321.52 78.58,320.02 78.65,318.52C78.72,317.02 78.8,315.51 78.89,314.01C78.98,312.51 79.09,311.01 79.21,309.51C79.33,308.01 79.47,306.51 79.63,305.01C79.79,303.51 79.96,302 80.15,300.5C80.35,299 80.57,297.5 80.8,296C81.04,294.5 81.29,293 81.56,291.5C81.83,290 82.13,288.49 82.43,286.99C82.74,285.49 83.06,283.99 83.39,282.49C83.72,280.99 84.07,279.49 84.42,277.99C84.77,276.49 85.14,274.98 85.5,273.48C85.86,271.98 86.22,270.48 86.59,268.98C86.96,267.48 87.33,265.98 87.7,264.48C88.08,262.98 88.45,261.47 88.84,259.97C89.24,258.47 89.64,256.97 90.07,255.47C90.5,253.97 90.94,252.46 91.41,250.96C91.88,249.46 92.38,247.96 92.87,246.46C93.37,244.96 93.88,243.46 94.38,241.96C94.88,240.46 95.4,238.95 95.89,237.45C96.38,235.95 96.85,234.45 97.3,232.95C97.75,231.45 98.19,229.95 98.59,228.45C98.99,226.95 99.37,225.45 99.72,223.94C100.07,222.44 100.4,220.94 100.7,219.44C101,217.94 101.28,216.44 101.54,214.94C101.8,213.44 102.02,211.93 102.24,210.43C102.46,208.93 102.65,207.43 102.85,205.93C103.05,204.43 103.24,202.93 103.44,201.43C103.64,199.93 103.84,198.42 104.06,196.92C104.28,195.42 104.53,193.92 104.76,192.42C105,190.92 105.27,189.42 105.47,187.92C105.67,186.42 105.89,184.91 105.98,183.41C106.07,181.91 106.12,180.41 106,178.91C105.88,177.4 105.63,175.89 105.25,174.4C104.86,172.88 104.29,171.38 103.65,169.9C102.99,168.38 102.15,166.89 101.32,165.4C100.47,163.88 99.5,162.39 98.59,160.89C97.68,159.39 96.72,157.9 95.85,156.39C94.99,154.9 94.14,153.41 93.4,151.89C92.67,150.4 92.01,148.9 91.43,147.38C90.86,145.89 90.38,144.39 89.96,142.88C89.55,141.39 89.22,139.89 88.93,138.38C88.64,136.88 88.42,135.37 88.22,133.87C88.02,132.37 87.87,130.87 87.71,129.37C87.55,127.87 87.42,126.37 87.28,124.87C87.13,123.37 86.99,121.86 86.84,120.36C86.69,118.86 86.53,117.36 86.36,115.86C86.19,114.36 86.01,112.85 85.84,111.35C85.67,109.85 85.49,108.35 85.32,106.85C85.15,105.35 84.98,103.85 84.82,102.35C84.66,100.85 84.5,99.34 84.37,97.84C84.24,96.34 84.12,94.84 84.02,93.34C83.92,91.84 83.84,90.34 83.77,88.84C83.7,87.34 83.66,85.83 83.62,84.33C83.59,82.83 83.57,81.33 83.56,79.83C83.55,78.33 83.55,76.83 83.54,75.33C83.53,73.83 83.51,72.32 83.47,70.82C83.43,69.32 83.37,67.82 83.29,66.32C83.2,64.82 83.1,63.32 82.96,61.82C82.82,60.32 82.64,58.81 82.44,57.31C82.24,55.81 82.01,54.31 81.77,52.81C81.53,51.31 81.27,49.81 81.01,48.31C80.75,46.81 80.48,45.3 80.23,43.8C79.99,42.3 79.75,40.8 79.54,39.3C79.33,37.8 79.14,36.29 78.98,34.79C78.82,33.29 78.68,31.79 78.57,30.29C78.46,28.79 78.37,27.29 78.3,25.79Q78.23,24.29 78.15,21.28L77.85,21.28Q77.77,24.29 77.7,25.79C77.63,27.29 77.54,28.79 77.43,30.29C77.32,31.79 77.18,33.29 77.02,34.79C76.86,36.29 76.67,37.8 76.46,39.3C76.25,40.8 76.01,42.3 75.77,43.8C75.52,45.3 75.25,46.81 74.99,48.31C74.73,49.81 74.47,51.31 74.23,52.81C73.99,54.31 73.76,55.81 73.56,57.31C73.36,58.81 73.18,60.32 73.04,61.82C72.9,63.32 72.8,64.82 72.71,66.32C72.63,67.82 72.57,69.32 72.53,70.82C72.49,72.32 72.47,73.83 72.46,75.33C72.45,76.83 72.45,78.33 72.44,79.83C72.43,81.33 72.41,82.83 72.38,84.33C72.34,85.83 72.3,87.34 72.23,88.84C72.16,90.34 72.08,91.84 71.98,93.34C71.88,94.84 71.76,96.34 71.63,97.84C71.5,99.34 71.34,100.85 71.18,102.35C71.02,103.85 70.85,105.35 70.68,106.85C70.51,108.35 70.33,109.85 70.16,111.35C69.99,112.85 69.81,114.36 69.64,115.86C69.47,117.36 69.31,118.86 69.16,120.36C69.01,121.86 68.87,123.37 68.72,124.87C68.58,126.37 68.45,127.87 68.29,129.37C68.13,130.87 67.98,132.37 67.78,133.87C67.58,135.37 67.36,136.88 67.07,138.38C66.78,139.89 66.45,141.39 66.04,142.88C65.62,144.39 65.14,145.89 64.57,147.38C63.99,148.9 63.33,150.4 62.6,151.89C61.86,153.41 61.01,154.9 60.15,156.39C59.28,157.9 58.32,159.39 57.41,160.89C56.5,162.39 55.53,163.88 54.68,165.4C53.85,166.89 53.01,168.38 52.35,169.9C51.71,171.38 51.14,172.88 50.75,174.4C50.37,175.89 50.12,177.4 50,178.91C49.88,180.41 49.93,181.91 50.02,183.41C50.11,184.91 50.33,186.42 50.53,187.92C50.73,189.42 51,190.92 51.24,192.42C51.47,193.92 51.72,195.42 51.94,196.92C52.16,198.42 52.36,199.93 52.56,201.43C52.76,202.93 52.95,204.43 53.15,205.93C53.35,207.43 53.54,208.93 53.76,210.43C53.98,211.93 54.2,213.44 54.46,214.94C54.72,216.44 55,217.94 55.3,219.44C55.6,220.94 55.93,222.44 56.28,223.94C56.63,225.45 57.01,226.95 57.41,228.45C57.81,229.95 58.25,231.45 58.7,232.95C59.15,234.45 59.62,235.95 60.11,237.45C60.6,238.95 61.12,240.46 61.62,241.96C62.12,243.46 62.63,244.96 63.13,246.46C63.62,247.96 64.12,249.46 64.59,250.96C65.06,252.46 65.5,253.97 65.93,255.47C66.36,256.97 66.76,258.47 67.16,259.97C67.55,261.47 67.92,262.98 68.3,264.48C68.67,265.98 69.04,267.48 69.41,268.98C69.78,270.48 70.14,271.98 70.5,273.48C70.86,274.98 71.23,276.49 71.58,277.99C71.93,279.49 72.28,280.99 72.61,282.49C72.94,283.99 73.26,285.49 73.57,286.99C73.87,288.49 74.17,290 74.44,291.5C74.71,293 74.96,294.5 75.2,296C75.43,297.5 75.65,299 75.85,300.5C76.04,302 76.21,303.51 76.37,305.01C76.53,306.51 76.67,308.01 76.79,309.51C76.91,311.01 77.02,312.51 77.11,314.01C77.2,315.51 77.28,317.02 77.35,318.52C77.42,320.02 77.48,321.52 77.53,323.02C77.58,324.52 77.63,326.02 77.67,327.52C77.71,329.02 77.75,330.53 77.78,332.03C77.81,333.53 77.84,335.03 77.86,336.53C77.88,338.03 77.9,339.54 77.92,341.04C77.93,342.54 77.94,344.04 77.95,345.54Q77.96,347.04 77.98,350.04Z" style="vector-effect: non-scaling-stroke; stroke-width: 2px; stroke: rgb(99, 110, 250); stroke-opacity: 1; fill: rgb(99, 110, 250); fill-opacity: 0.5;"/><path class="violin" d="M234.12,359.62Q234.2,355.87 234.27,353.99C234.34,352.12 234.42,350.24 234.55,348.37C234.68,346.5 234.83,344.62 235.04,342.75C235.25,340.87 235.51,339 235.83,337.13C236.16,335.25 236.53,333.37 236.99,331.5C237.45,329.62 237.99,327.74 238.58,325.88C239.18,324 239.85,322.12 240.58,320.26C241.32,318.38 242.13,316.51 242.97,314.64C243.82,312.75 244.73,310.88 245.66,309.01C246.59,307.13 247.58,305.26 248.56,303.39C249.55,301.51 250.57,299.64 251.56,297.77C252.55,295.9 253.57,294.03 254.52,292.15C255.46,290.29 256.4,288.42 257.21,286.53C258.01,284.67 258.78,282.8 259.37,280.9C259.95,279.04 260.43,277.17 260.72,275.28C261,273.42 261.13,271.53 261.09,269.66C261.05,267.78 260.81,265.9 260.47,264.04C260.13,262.15 259.6,260.27 259.05,258.41C258.49,256.52 257.79,254.66 257.13,252.79C256.46,250.91 255.73,249.05 255.06,247.17C254.4,245.3 253.73,243.43 253.14,241.55C252.56,239.68 252.01,237.8 251.56,235.92C251.11,234.05 250.72,232.18 250.42,230.3C250.12,228.43 249.9,226.56 249.74,224.68C249.58,222.81 249.5,220.93 249.48,219.06C249.46,217.18 249.51,215.3 249.6,213.43C249.69,211.55 249.86,209.68 250.04,207.81C250.23,205.93 250.48,204.06 250.71,202.19C250.95,200.32 251.23,198.44 251.45,196.57C251.67,194.7 251.91,192.83 252.04,190.95C252.17,189.08 252.27,187.2 252.24,185.32C252.21,183.45 252.09,181.57 251.86,179.7C251.63,177.82 251.28,175.94 250.85,174.08C250.42,172.2 249.85,170.33 249.28,168.46C248.7,166.58 248.03,164.7 247.39,162.83C246.75,160.95 246.05,159.09 245.42,157.21C244.79,155.34 244.16,153.47 243.6,151.59C243.04,149.72 242.52,147.85 242.04,145.97C241.57,144.1 241.14,142.22 240.75,140.34C240.36,138.47 240.01,136.6 239.68,134.72C239.35,132.85 239.04,130.97 238.75,129.1C238.46,127.23 238.19,125.35 237.93,123.48C237.67,121.61 237.42,119.74 237.19,117.86C236.97,115.99 236.76,114.11 236.58,112.23C236.4,110.36 236.24,108.48 236.11,106.61C235.98,104.74 235.88,102.86 235.8,100.99C235.72,99.12 235.66,97.24 235.62,95.37C235.57,93.49 235.55,91.62 235.53,89.74C235.51,87.87 235.5,85.99 235.48,84.12C235.46,82.25 235.44,80.37 235.41,78.5C235.38,76.63 235.35,74.75 235.31,72.88C235.27,71 235.21,69.13 235.16,67.25C235.11,65.38 235.05,63.5 234.99,61.63C234.93,59.76 234.86,57.88 234.79,56.01C234.73,54.14 234.66,52.26 234.6,50.39C234.54,48.52 234.48,46.64 234.43,44.77C234.38,42.89 234.33,41.02 234.29,39.14C234.25,37.27 234.2,35.39 234.17,33.52C234.14,31.65 234.12,29.77 234.1,27.9Q234.08,26.03 234.05,22.28L233.95,22.28Q233.92,26.03 233.9,27.9C233.88,29.77 233.86,31.65 233.83,33.52C233.8,35.39 233.75,37.27 233.71,39.14C233.67,41.02 233.62,42.89 233.57,44.77C233.52,46.64 233.46,48.52 233.4,50.39C233.34,52.26 233.27,54.14 233.21,56.01C233.14,57.88 233.07,59.76 233.01,61.63C232.95,63.5 232.89,65.38 232.84,67.25C232.79,69.13 232.73,71 232.69,72.88C232.65,74.75 232.62,76.63 232.59,78.5C232.56,80.37 232.54,82.25 232.52,84.12C232.5,85.99 232.49,87.87 232.47,89.74C232.45,91.62 232.43,93.49 232.38,95.37C232.34,97.24 232.28,99.12 232.2,100.99C232.12,102.86 232.02,104.74 231.89,106.61C231.76,108.48 231.6,110.36 231.42,112.23C231.24,114.11 231.03,115.99 230.81,117.86C230.58,119.74 230.33,121.61 230.07,123.48C229.81,125.35 229.54,127.23 229.25,129.1C228.96,130.97 228.65,132.85 228.32,134.72C227.99,136.6 227.64,138.47 227.25,140.34C226.86,142.22 226.43,144.1 225.96,145.97C225.48,147.85 224.96,149.72 224.4,151.59C223.84,153.47 223.21,155.34 222.58,157.21C221.95,159.09 221.25,160.95 220.61,162.83C219.97,164.7 219.3,166.58 218.72,168.46C218.15,170.33 217.58,172.2 217.15,174.08C216.72,175.94 216.37,177.82 216.14,179.7C215.91,181.57 215.79,183.45 215.76,185.32C215.73,187.2 215.83,189.08 215.96,190.95C216.09,192.83 216.33,194.7 216.55,196.57C216.77,198.44 217.05,200.32 217.29,202.19C217.52,204.06 217.77,205.93 217.96,207.81C218.14,209.68 218.31,211.55 218.4,213.43C218.49,215.3 218.54,217.18 218.52,219.06C218.5,220.93 218.42,222.81 218.26,224.68C218.1,226.56 217.88,228.43 217.58,230.3C217.28,232.18 216.89,234.05 216.44,235.92C215.99,237.8 215.44,239.68 214.86,241.55C214.27,243.43 213.6,245.3 212.94,247.17C212.27,249.05 211.54,250.91 210.87,252.79C210.21,254.66 209.51,256.52 208.95,258.41C208.4,260.27 207.87,262.15 207.53,264.04C207.19,265.9 206.95,267.78 206.91,269.66C206.87,271.53 207,273.42 207.28,275.28C207.57,277.17 208.05,279.04 208.63,280.9C209.22,282.8 209.99,284.67 210.79,286.53C211.6,288.42 212.54,290.29 213.48,292.15C214.43,294.03 215.45,295.9 216.44,297.77C217.43,299.64 218.45,301.51 219.44,303.39C220.42,305.26 221.41,307.13 222.34,309.01C223.27,310.88 224.18,312.75 225.03,314.64C225.87,316.51 226.68,318.38 227.42,320.26C228.15,322.12 228.82,324 229.42,325.88C230.01,327.74 230.55,329.62 231.01,331.5C231.47,333.37 231.84,335.25 232.17,337.13C232.49,339 232.75,340.87 232.96,342.75C233.17,344.62 233.32,346.5 233.45,348.37C233.58,350.24 233.66,352.12 233.73,353.99Q233.8,355.87 233.88,359.62Z" style="vector-effect: non-scaling-stroke; stroke-width: 2px; stroke: rgb(99, 110, 250); stroke-opacity: 1; fill: rgb(99, 110, 250); fill-opacity: 0.5;"/><path class="violin" d="M390.36,399Q390.56,395.2 390.74,393.31C390.92,391.41 391.13,389.51 391.42,387.62C391.72,385.72 392.06,383.82 392.51,381.94C392.96,380.03 393.49,378.13 394.11,376.25C394.74,374.34 395.48,372.44 396.28,370.56C397.1,368.65 398.01,366.75 398.97,364.87C399.95,362.96 401.02,361.08 402.1,359.19C403.19,357.28 404.34,355.39 405.49,353.5C406.65,351.6 407.84,349.71 409.02,347.81C410.2,345.91 411.39,344.02 412.58,342.12C413.77,340.23 414.96,338.34 416.14,336.44C417.32,334.55 418.52,332.65 419.67,330.75C420.81,328.86 421.98,326.97 423.02,325.06C424.04,323.18 425.07,321.29 425.87,319.37C426.64,317.5 427.37,315.61 427.76,313.69C428.14,311.82 428.34,309.89 428.22,308C428.1,306.09 427.66,304.17 427.04,302.31C426.4,300.37 425.4,298.48 424.37,296.62C423.3,294.69 421.98,292.82 420.72,290.94C419.44,289.03 418.03,287.15 416.73,285.25C415.44,283.36 414.14,281.47 412.94,279.56C411.77,277.68 410.64,275.78 409.61,273.87C408.6,271.99 407.66,270.09 406.79,268.18C405.93,266.3 405.15,264.41 404.42,262.5C403.7,260.61 403.05,258.71 402.44,256.81C401.84,254.92 401.29,253.02 400.8,251.12C400.31,249.23 399.89,247.33 399.51,245.43C399.13,243.54 398.82,241.65 398.54,239.75C398.26,237.86 398.04,235.96 397.82,234.06C397.6,232.16 397.43,230.27 397.24,228.37C397.05,226.47 396.89,224.58 396.7,222.68C396.51,220.79 396.32,218.89 396.12,217C395.91,215.1 395.69,213.21 395.47,211.31C395.25,209.41 395.01,207.52 394.78,205.62C394.55,203.72 394.3,201.83 394.07,199.93C393.84,198.04 393.61,196.14 393.4,194.25C393.18,192.35 392.98,190.46 392.78,188.56C392.59,186.66 392.41,184.77 392.23,182.87C392.05,180.97 391.88,179.08 391.72,177.18C391.56,175.28 391.42,173.39 391.29,171.49C391.16,169.6 391.04,167.7 390.95,165.81C390.86,163.91 390.78,162.02 390.73,160.12C390.68,158.22 390.67,156.33 390.67,154.43C390.67,152.53 390.7,150.64 390.74,148.74C390.78,146.85 390.85,144.95 390.91,143.06C390.97,141.16 391.06,139.27 391.12,137.37C391.18,135.47 391.24,133.58 391.27,131.68C391.3,129.78 391.33,127.89 391.32,125.99C391.31,124.1 391.29,122.2 391.24,120.31C391.19,118.41 391.11,116.52 391.04,114.62C390.96,112.72 390.87,110.83 390.79,108.93C390.7,107.03 390.61,105.14 390.53,103.24C390.45,101.35 390.39,99.45 390.33,97.56Q390.27,95.66 390.18,91.87L389.82,91.87Q389.73,95.66 389.67,97.56C389.61,99.45 389.55,101.35 389.47,103.24C389.39,105.14 389.3,107.03 389.21,108.93C389.13,110.83 389.04,112.72 388.96,114.62C388.89,116.52 388.81,118.41 388.76,120.31C388.71,122.2 388.69,124.1 388.68,125.99C388.67,127.89 388.7,129.78 388.73,131.68C388.76,133.58 388.82,135.47 388.88,137.37C388.94,139.27 389.03,141.16 389.09,143.06C389.15,144.95 389.22,146.85 389.26,148.74C389.3,150.64 389.33,152.53 389.33,154.43C389.33,156.33 389.32,158.22 389.27,160.12C389.22,162.02 389.14,163.91 389.05,165.81C388.96,167.7 388.84,169.6 388.71,171.49C388.58,173.39 388.44,175.28 388.28,177.18C388.12,179.08 387.95,180.97 387.77,182.87C387.59,184.77 387.41,186.66 387.22,188.56C387.02,190.46 386.82,192.35 386.6,194.25C386.39,196.14 386.16,198.04 385.93,199.93C385.7,201.83 385.45,203.72 385.22,205.62C384.99,207.52 384.75,209.41 384.53,211.31C384.31,213.21 384.09,215.1 383.88,217C383.68,218.89 383.49,220.79 383.3,222.68C383.11,224.58 382.95,226.47 382.76,228.37C382.57,230.27 382.4,232.16 382.18,234.06C381.96,235.96 381.74,237.86 381.46,239.75C381.18,241.65 380.87,243.54 380.49,245.43C380.11,247.33 379.69,249.23 379.2,251.12C378.71,253.02 378.16,254.92 377.56,256.81C376.95,258.71 376.3,260.61 375.58,262.5C374.85,264.41 374.07,266.3 373.21,268.18C372.34,270.09 371.4,271.99 370.39,273.87C369.36,275.78 368.23,277.68 367.06,279.56C365.86,281.47 364.56,283.36 363.27,285.25C361.97,287.15 360.56,289.03 359.28,290.94C358.02,292.82 356.7,294.69 355.63,296.62C354.6,298.48 353.6,300.37 352.96,302.31C352.34,304.17 351.9,306.09 351.78,308C351.66,309.89 351.86,311.82 352.24,313.69C352.63,315.61 353.36,317.5 354.13,319.37C354.93,321.29 355.96,323.18 356.98,325.06C358.02,326.97 359.19,328.86 360.33,330.75C361.48,332.65 362.68,334.55 363.86,336.44C365.04,338.34 366.23,340.23 367.42,342.12C368.61,344.02 369.8,345.91 370.98,347.81C372.16,349.71 373.35,351.6 374.51,353.5C375.66,355.39 376.81,357.28 377.9,359.19C378.98,361.08 380.05,362.96 381.03,364.87C381.99,366.75 382.9,368.65 383.72,370.56C384.52,372.44 385.26,374.34 385.89,376.25C386.51,378.13 387.04,380.03 387.49,381.94C387.94,383.82 388.28,385.72 388.58,387.62C388.87,389.51 389.08,391.41 389.26,393.31Q389.44,395.2 389.64,399Z" style="vector-effect: non-scaling-stroke; stroke-width: 2px; stroke: rgb(99, 110, 250); stroke-opacity: 1; fill: rgb(99, 110, 250); fill-opacity: 0.5;"/><path class="box" d="M68.45,188.8H87.56M68.45,222.69H87.56V155.49H68.45ZM78,222.69V322.81M78,155.49V57.27" style="vector-effect: non-scaling-stroke; stroke-width: 2px; stroke: rgb(99, 110, 250); stroke-opacity: 1; fill: rgb(99, 110, 250); fill-opacity: 0.5;"/><path class="box" d="M224.45,241.63H243.56M224.45,272.65H243.56V184.05H224.45ZM234,272.65V325.48M234,184.05V56.41" style="vector-effect: non-scaling-stroke; stroke-width: 2px; stroke: rgb(99, 110, 250); stroke-opacity: 1; fill: rgb(99, 110, 250); fill-opacity: 0.5;"/><path class="box" d="M380.45,307.39H399.55M380.45,326.05H399.55V275.94H380.45ZM390,326.05V364.31M390,275.94V206.13" style="vector-effect: non-scaling-stroke; stroke-width: 2px; stroke: rgb(99, 110, 250); stroke-opacity: 1; fill: rgb(99, 110, 250); fill-opacity: 0.5;"/><path class="mean" d="M68.45,185.72H87.56" style="fill: none; vector-effect: non-scaling-stroke; stroke-width: 2px; stroke-dasharray: 4px, 2px; stroke: rgb(99, 110, 250); stroke-opacity: 1;"/><path class="mean" d="M224.45,230.41H243.56" style="fill: none; vector-effect: non-scaling-stroke; stroke-width: 2px; stroke-dasharray: 4px, 2px; stroke: rgb(99, 110, 250); stroke-opacity: 1;"/><path class="mean" d="M380.45,296.41H399.55" style="fill: none; vector-effect: non-scaling-stroke; stroke-width: 2px; stroke-dasharray: 4px, 2px; stroke: rgb(99, 110, 250); stroke-opacity: 1;"/></g></g></g><g class="overplot"/><path class="xlines-above crisp" d="M0,0" style="fill: none;"/><path class="ylines-above crisp" d="M0,0" style="fill: none;"/><g class="overlines-above"/><g class="xaxislayer-above"><g class="xtick"><text text-anchor="middle" x="0" y="533" transform="translate(158,0)" style="font-family: 'Open Sans', verdana, arial, sans-serif; font-size: 12px; fill: rgb(42, 63, 95); fill-opacity: 1; white-space: pre; opacity: 1;">&#60;=1</text></g><g class="xtick"><text text-anchor="middle" x="0" y="533" transform="translate(314,0)" style="font-family: 'Open Sans', verdana, arial, sans-serif; font-size: 12px; fill: rgb(42, 63, 95); fill-opacity: 1; white-space: pre; opacity: 1;">(1, 2]</text></g><g class="xtick"><text text-anchor="middle" x="0" y="533" transform="translate(470,0)" style="font-family: 'Open Sans', verdana, arial, sans-serif; font-size: 12px; fill: rgb(42, 63, 95); fill-opacity: 1; white-space: pre; opacity: 1;">>2</text></g></g><g class="yaxislayer-above"><g class="ytick"><text text-anchor="end" x="79" y="4.199999999999999" transform="translate(0,511.99)" style="font-family: 'Open Sans', verdana, arial, sans-serif; font-size: 12px; fill: rgb(42, 63, 95); fill-opacity: 1; white-space: pre; opacity: 1;">−5</text></g><g class="ytick"><text text-anchor="end" x="79" y="4.199999999999999" style="font-family: 'Open Sans', verdana, arial, sans-serif; font-size: 12px; fill: rgb(42, 63, 95); fill-opacity: 1; white-space: pre; opacity: 1;" transform="translate(0,464.4)">0</text></g><g class="ytick"><text text-anchor="end" x="79" y="4.199999999999999" style="font-family: 'Open Sans', verdana, arial, sans-serif; font-size: 12px; fill: rgb(42, 63, 95); fill-opacity: 1; white-space: pre; opacity: 1;" transform="translate(0,416.82)">5</text></g><g class="ytick"><text text-anchor="end" x="79" y="4.199999999999999" style="font-family: 'Open Sans', verdana, arial, sans-serif; font-size: 12px; fill: rgb(42, 63, 95); fill-opacity: 1; white-space: pre; opacity: 1;" transform="translate(0,369.23)">10</text></g><g class="ytick"><text text-anchor="end" x="79" y="4.199999999999999" style="font-family: 'Open Sans', verdana, arial, sans-serif; font-size: 12px; fill: rgb(42, 63, 95); fill-opacity: 1; white-space: pre; opacity: 1;" transform="translate(0,321.64)">15</text></g><g class="ytick"><text text-anchor="end" x="79" y="4.199999999999999" style="font-family: 'Open Sans', verdana, arial, sans-serif; font-size: 12px; fill: rgb(42, 63, 95); fill-opacity: 1; white-space: pre; opacity: 1;" transform="translate(0,274.05)">20</text></g><g class="ytick"><text text-anchor="end" x="79" y="4.199999999999999" style="font-family: 'Open Sans', verdana, arial, sans-serif; font-size: 12px; fill: rgb(42, 63, 95); fill-opacity: 1; white-space: pre; opacity: 1;" transform="translate(0,226.45999999999998)">25</text></g><g class="ytick"><text text-anchor="end" x="79" y="4.199999999999999" style="font-family: 'Open Sans', verdana, arial, sans-serif; font-size: 12px; fill: rgb(42, 63, 95); fill-opacity: 1; white-space: pre; opacity: 1;" transform="translate(0,178.88)">30</text></g><g class="ytick"><text text-anchor="end" x="79" y="4.199999999999999" style="font-family: 'Open Sans', verdana, arial, sans-serif; font-size: 12px; fill: rgb(42, 63, 95); fill-opacity: 1; white-space: pre; opacity: 1;" transform="translate(0,131.29)">35</text></g></g><g class="overaxes-above"/></g><g class="subplot x2y2"><g class="layer-subplot"><g class="shapelayer"/><g class="imagelayer"/></g><g class="minor-gridlayer"><g class="x2"/><g class="y2"/></g><g class="gridlayer"><g class="x2"/><g class="y2"><path class="y2grid crisp" transform="translate(0,511.99)" d="M652,0h467.99999999999994" style="stroke: rgb(255, 255, 255); stroke-opacity: 1; stroke-width: 1px;"/><path class="y2grid crisp" transform="translate(0,416.82)" d="M652,0h467.99999999999994" style="stroke: rgb(255, 255, 255); stroke-opacity: 1; stroke-width: 1px;"/><path class="y2grid crisp" transform="translate(0,369.23)" d="M652,0h467.99999999999994" style="stroke: rgb(255, 255, 255); stroke-opacity: 1; stroke-width: 1px;"/><path class="y2grid crisp" transform="translate(0,321.64)" d="M652,0h467.99999999999994" style="stroke: rgb(255, 255, 255); stroke-opacity: 1; stroke-width: 1px;"/><path class="y2grid crisp" transform="translate(0,274.05)" d="M652,0h467.99999999999994" style="stroke: rgb(255, 255, 255); stroke-opacity: 1; stroke-width: 1px;"/><path class="y2grid crisp" transform="translate(0,226.45999999999998)" d="M652,0h467.99999999999994" style="stroke: rgb(255, 255, 255); stroke-opacity: 1; stroke-width: 1px;"/><path class="y2grid crisp" transform="translate(0,178.88)" d="M652,0h467.99999999999994" style="stroke: rgb(255, 255, 255); stroke-opacity: 1; stroke-width: 1px;"/><path class="y2grid crisp" transform="translate(0,131.29)" d="M652,0h467.99999999999994" style="stroke: rgb(255, 255, 255); stroke-opacity: 1; stroke-width: 1px;"/></g></g><g class="zerolinelayer"><path class="y2zl zl crisp" transform="translate(0,464.4)" d="M652,0h467.99999999999994" style="stroke: rgb(255, 255, 255); stroke-opacity: 1; stroke-width: 2px;"/></g><path class="xlines-below"/><path class="ylines-below"/><g class="overlines-below"/><g class="xaxislayer-below"/><g class="yaxislayer-below"/><g class="overaxes-below"/><g class="plot" transform="translate(652,100)" clip-path="url(#clip699a9fx2y2plot)"><g class="violinlayer mlayer"><g class="trace violins" style="opacity: 1;"><path class="violin" d="M78.02,389.58Q78.04,385.51 78.05,383.47C78.06,381.43 78.07,379.39 78.09,377.35C78.11,375.31 78.13,373.28 78.15,371.24C78.18,369.2 78.21,367.17 78.24,365.13C78.28,363.09 78.31,361.06 78.36,359.02C78.41,356.98 78.47,354.95 78.54,352.91C78.61,350.87 78.69,348.83 78.79,346.79C78.89,344.75 79.01,342.72 79.15,340.68C79.29,338.64 79.44,336.61 79.63,334.57C79.82,332.53 80.04,330.5 80.27,328.46C80.51,326.42 80.76,324.39 81.04,322.35C81.32,320.31 81.62,318.27 81.95,316.23C82.28,314.19 82.62,312.15 83,310.12C83.38,308.08 83.79,306.04 84.25,304.01C84.71,301.97 85.21,299.93 85.77,297.9C86.33,295.86 86.96,293.82 87.61,291.79C88.26,289.75 88.99,287.72 89.68,285.68C90.38,283.64 91.12,281.61 91.78,279.56C92.43,277.53 93.08,275.5 93.61,273.45C94.13,271.42 94.58,269.38 94.92,267.34C95.26,265.31 95.47,263.27 95.64,261.23C95.81,259.2 95.86,257.16 95.94,255.12C96.02,253.08 96.02,251.04 96.11,249C96.19,246.96 96.28,244.92 96.45,242.89C96.62,240.85 96.84,238.81 97.15,236.78C97.46,234.74 97.84,232.7 98.29,230.67C98.75,228.63 99.28,226.59 99.89,224.56C100.51,222.51 101.21,220.47 101.98,218.45C102.76,216.4 103.65,214.36 104.56,212.33C105.48,210.28 106.51,208.26 107.48,206.22C108.45,204.18 109.51,202.17 110.38,200.11C111.23,198.09 112.11,196.06 112.65,194C113.17,191.99 113.59,189.93 113.6,187.89C113.61,185.85 113.31,183.77 112.73,181.77C112.12,179.69 111.08,177.65 109.95,175.66C108.76,173.57 107.21,171.56 105.71,169.55C104.17,167.49 102.41,165.49 100.82,163.44C99.24,161.41 97.59,159.41 96.19,157.33C94.84,155.33 93.55,153.3 92.55,151.21C91.6,149.22 90.8,147.17 90.29,145.1C89.79,143.09 89.53,141.03 89.48,138.99C89.43,136.96 89.64,134.9 89.98,132.88C90.33,130.83 90.91,128.79 91.57,126.77C92.25,124.71 93.11,122.68 94.01,120.66C94.93,118.6 95.99,116.57 97.03,114.54C98.08,112.49 99.23,110.48 100.27,108.43C101.3,106.4 102.39,104.38 103.26,102.32C104.11,100.31 104.94,98.27 105.46,96.21C105.96,94.2 106.32,92.14 106.35,90.1C106.38,88.06 106.12,85.99 105.63,83.98C105.12,81.91 104.26,79.87 103.3,77.87C102.3,75.79 101.02,73.77 99.73,71.76C98.41,69.7 96.9,67.68 95.47,65.65C94.04,63.61 92.54,61.59 91.16,59.54C89.8,57.52 88.46,55.49 87.27,53.42C86.12,51.41 85.04,49.37 84.12,47.31C83.22,45.3 82.43,43.26 81.77,41.2C81.12,39.18 80.6,37.14 80.16,35.09C79.73,33.06 79.42,31.02 79.15,28.98Q78.89,26.95 78.57,22.87L77.43,22.87Q77.11,26.95 76.85,28.98C76.58,31.02 76.27,33.06 75.84,35.09C75.4,37.14 74.88,39.18 74.23,41.2C73.57,43.26 72.78,45.3 71.88,47.31C70.96,49.37 69.88,51.41 68.73,53.42C67.54,55.49 66.2,57.52 64.84,59.54C63.46,61.59 61.96,63.61 60.53,65.65C59.1,67.68 57.59,69.7 56.27,71.76C54.98,73.77 53.7,75.79 52.7,77.87C51.74,79.87 50.88,81.91 50.37,83.98C49.88,85.99 49.62,88.06 49.65,90.1C49.68,92.14 50.04,94.2 50.54,96.21C51.06,98.27 51.89,100.31 52.74,102.32C53.61,104.38 54.7,106.4 55.73,108.43C56.77,110.48 57.92,112.49 58.97,114.54C60.01,116.57 61.07,118.6 61.99,120.66C62.89,122.68 63.75,124.71 64.43,126.77C65.09,128.79 65.67,130.83 66.02,132.88C66.36,134.9 66.57,136.96 66.52,138.99C66.47,141.03 66.21,143.09 65.71,145.1C65.2,147.17 64.4,149.22 63.45,151.21C62.45,153.3 61.16,155.33 59.81,157.33C58.41,159.41 56.76,161.41 55.18,163.44C53.59,165.49 51.83,167.49 50.29,169.55C48.79,171.56 47.24,173.57 46.05,175.66C44.92,177.65 43.88,179.69 43.27,181.77C42.69,183.77 42.39,185.85 42.4,187.89C42.41,189.93 42.83,191.99 43.35,194C43.89,196.06 44.77,198.09 45.62,200.11C46.49,202.17 47.55,204.18 48.52,206.22C49.49,208.26 50.52,210.28 51.44,212.33C52.35,214.36 53.24,216.4 54.02,218.45C54.79,220.47 55.49,222.51 56.11,224.56C56.72,226.59 57.25,228.63 57.71,230.67C58.16,232.7 58.54,234.74 58.85,236.78C59.16,238.81 59.38,240.85 59.55,242.89C59.72,244.92 59.81,246.96 59.89,249C59.98,251.04 59.98,253.08 60.06,255.12C60.14,257.16 60.19,259.2 60.36,261.23C60.53,263.27 60.74,265.31 61.08,267.34C61.42,269.38 61.87,271.42 62.39,273.45C62.92,275.5 63.57,277.53 64.22,279.56C64.88,281.61 65.62,283.64 66.32,285.68C67.01,287.72 67.74,289.75 68.39,291.79C69.04,293.82 69.67,295.86 70.23,297.9C70.79,299.93 71.29,301.97 71.75,304.01C72.21,306.04 72.62,308.08 73,310.12C73.38,312.15 73.72,314.19 74.05,316.23C74.38,318.27 74.68,320.31 74.96,322.35C75.24,324.39 75.49,326.42 75.73,328.46C75.96,330.5 76.18,332.53 76.37,334.57C76.56,336.61 76.71,338.64 76.85,340.68C76.99,342.72 77.11,344.75 77.21,346.79C77.31,348.83 77.39,350.87 77.46,352.91C77.53,354.95 77.59,356.98 77.64,359.02C77.69,361.06 77.72,363.09 77.76,365.13C77.79,367.17 77.82,369.2 77.85,371.24C77.87,373.28 77.89,375.31 77.91,377.35C77.93,379.39 77.94,381.43 77.95,383.47Q77.96,385.51 77.98,389.58Z" style="vector-effect: non-scaling-stroke; stroke-width: 2px; stroke: rgb(239, 85, 59); stroke-opacity: 1; fill: rgb(239, 85, 59); fill-opacity: 0.5;"/><path class="violin" d="M234.09,341.57Q234.14,337.3 234.18,335.16C234.22,333.02 234.28,330.89 234.35,328.75C234.42,326.61 234.51,324.48 234.62,322.34C234.73,320.2 234.85,318.06 235,315.92C235.15,313.78 235.33,311.65 235.52,309.51C235.71,307.37 235.93,305.24 236.16,303.1C236.39,300.96 236.64,298.83 236.9,296.69C237.16,294.55 237.44,292.42 237.72,290.28C238,288.14 238.29,286.01 238.58,283.87C238.87,281.73 239.17,279.6 239.47,277.46C239.77,275.32 240.07,273.18 240.37,271.04C240.67,268.9 240.97,266.77 241.28,264.63C241.59,262.49 241.89,260.36 242.21,258.22C242.53,256.08 242.85,253.95 243.2,251.81C243.55,249.67 243.89,247.53 244.31,245.4C244.73,243.26 245.16,241.12 245.7,238.99C246.24,236.84 246.83,234.7 247.56,232.58C248.3,230.42 249.13,228.27 250.1,226.16C251.09,224 252.23,221.86 253.46,219.75C254.73,217.58 256.16,215.46 257.61,213.34C259.09,211.18 260.73,209.07 262.26,206.93C263.79,204.8 265.42,202.69 266.79,200.52C268.12,198.42 269.48,196.3 270.39,194.11C271.26,192.02 271.99,189.86 272.22,187.7C272.44,185.58 272.27,183.39 271.77,181.29C271.25,179.11 270.2,176.95 269.06,174.87C267.86,172.67 266.23,170.57 264.66,168.46C263.05,166.29 261.2,164.2 259.52,162.05C257.86,159.92 256.12,157.82 254.65,155.64C253.23,153.54 251.86,151.42 250.8,149.23C249.79,147.14 248.93,144.99 248.38,142.82C247.85,140.71 247.56,138.55 247.53,136.41C247.5,134.27 247.75,132.11 248.2,129.99C248.66,127.83 249.4,125.68 250.29,123.58C251.21,121.4 252.39,119.27 253.65,117.17C254.95,115 256.49,112.88 258.01,110.76C259.56,108.6 261.29,106.5 262.88,104.35C264.45,102.22 266.13,100.12 267.48,97.94C268.78,95.85 270.1,93.73 270.88,91.53C271.63,89.44 272.18,87.25 272.17,85.11C272.16,82.97 271.63,80.77 270.8,78.7C269.91,76.48 268.41,74.36 266.87,72.29C265.22,70.07 263.12,67.99 261.1,65.88C259.02,63.71 256.7,61.62 254.57,59.47C252.46,57.35 250.29,55.24 248.37,53.06C246.53,50.97 244.75,48.84 243.24,46.65C241.8,44.56 240.53,42.41 239.48,40.23C238.47,38.13 237.66,35.98 236.99,33.82C236.34,31.71 235.89,29.56 235.51,27.41Q235.13,25.28 234.7,21L233.3,21Q232.87,25.28 232.49,27.41C232.11,29.56 231.66,31.71 231.01,33.82C230.34,35.98 229.53,38.13 228.52,40.23C227.47,42.41 226.2,44.56 224.76,46.65C223.25,48.84 221.47,50.97 219.63,53.06C217.71,55.24 215.54,57.35 213.43,59.47C211.3,61.62 208.98,63.71 206.9,65.88C204.88,67.99 202.78,70.07 201.13,72.29C199.59,74.36 198.09,76.48 197.2,78.7C196.37,80.77 195.84,82.97 195.83,85.11C195.82,87.25 196.37,89.44 197.12,91.53C197.9,93.73 199.22,95.85 200.52,97.94C201.87,100.12 203.55,102.22 205.12,104.35C206.71,106.5 208.44,108.6 209.99,110.76C211.51,112.88 213.05,115 214.35,117.17C215.61,119.27 216.79,121.4 217.71,123.58C218.6,125.68 219.34,127.83 219.8,129.99C220.25,132.11 220.5,134.27 220.47,136.41C220.44,138.55 220.15,140.71 219.62,142.82C219.07,144.99 218.21,147.14 217.2,149.23C216.14,151.42 214.77,153.54 213.35,155.64C211.88,157.82 210.14,159.92 208.48,162.05C206.8,164.2 204.95,166.29 203.34,168.46C201.77,170.57 200.14,172.67 198.94,174.87C197.8,176.95 196.75,179.11 196.23,181.29C195.73,183.39 195.56,185.58 195.78,187.7C196.01,189.86 196.74,192.02 197.61,194.11C198.52,196.3 199.88,198.42 201.21,200.52C202.58,202.69 204.21,204.8 205.74,206.93C207.27,209.07 208.91,211.18 210.39,213.34C211.84,215.46 213.27,217.58 214.54,219.75C215.77,221.86 216.91,224 217.9,226.16C218.87,228.27 219.7,230.42 220.44,232.58C221.17,234.7 221.76,236.84 222.3,238.99C222.84,241.12 223.27,243.26 223.69,245.4C224.11,247.53 224.45,249.67 224.8,251.81C225.15,253.95 225.47,256.08 225.79,258.22C226.11,260.36 226.41,262.49 226.72,264.63C227.03,266.77 227.33,268.9 227.63,271.04C227.93,273.18 228.23,275.32 228.53,277.46C228.83,279.6 229.13,281.73 229.42,283.87C229.71,286.01 230,288.14 230.28,290.28C230.56,292.42 230.84,294.55 231.1,296.69C231.36,298.83 231.61,300.96 231.84,303.1C232.07,305.24 232.29,307.37 232.48,309.51C232.67,311.65 232.85,313.78 233,315.92C233.15,318.06 233.27,320.2 233.38,322.34C233.49,324.48 233.58,326.61 233.65,328.75C233.72,330.89 233.78,333.02 233.82,335.16Q233.86,337.3 233.91,341.57Z" style="vector-effect: non-scaling-stroke; stroke-width: 2px; stroke: rgb(239, 85, 59); stroke-opacity: 1; fill: rgb(239, 85, 59); fill-opacity: 0.5;"/><path class="violin" d="M390.24,363.87Q390.38,357.72 390.49,354.64C390.6,351.56 390.73,348.48 390.92,345.41C391.11,342.33 391.34,339.26 391.64,336.19C391.94,333.11 392.29,330.03 392.74,326.96C393.19,323.88 393.71,320.8 394.34,317.73C394.97,314.64 395.71,311.57 396.52,308.5C397.34,305.41 398.27,302.34 399.24,299.27C400.21,296.18 401.29,293.11 402.34,290.04C403.39,286.96 404.51,283.89 405.52,280.81C406.53,277.74 407.54,274.67 408.41,271.58C409.27,268.52 410.05,265.44 410.72,262.35C411.39,259.28 411.92,256.2 412.43,253.12C412.94,250.05 413.31,246.97 413.76,243.89C414.21,240.82 414.61,237.74 415.13,234.67C415.65,231.59 416.22,228.51 416.86,225.44C417.5,222.36 418.26,219.29 418.98,216.21C419.7,213.13 420.53,210.07 421.17,206.98C421.81,203.91 422.47,200.84 422.82,197.75C423.17,194.68 423.38,191.59 423.29,188.52C423.2,185.44 422.84,182.35 422.28,179.29C421.71,176.19 420.82,173.12 419.9,170.06C418.97,166.96 417.79,163.9 416.72,160.83C415.64,157.75 414.46,154.69 413.45,151.6C412.44,148.53 411.47,145.46 410.65,142.37C409.84,139.31 409.15,136.23 408.57,133.15C407.99,130.08 407.55,127 407.15,123.92C406.75,120.85 406.47,117.77 406.16,114.69C405.86,111.61 405.62,108.54 405.32,105.46C405.02,102.38 404.73,99.3 404.36,96.23C403.99,93.15 403.57,90.07 403.08,87C402.58,83.92 402.01,80.84 401.39,77.77C400.76,74.69 400.04,71.61 399.33,68.54C398.62,65.46 397.83,62.39 397.11,59.31C396.39,56.24 395.64,53.16 394.99,50.08C394.34,47.01 393.72,43.93 393.2,40.85C392.68,37.78 392.24,34.71 391.87,31.63Q391.5,28.56 390.99,22.4L389.01,22.4Q388.5,28.56 388.13,31.63C387.76,34.71 387.32,37.78 386.8,40.85C386.28,43.93 385.66,47.01 385.01,50.08C384.36,53.16 383.61,56.24 382.89,59.31C382.17,62.39 381.38,65.46 380.67,68.54C379.96,71.61 379.24,74.69 378.61,77.77C377.99,80.84 377.42,83.92 376.92,87C376.43,90.07 376.01,93.15 375.64,96.23C375.27,99.3 374.98,102.38 374.68,105.46C374.38,108.54 374.14,111.61 373.84,114.69C373.53,117.77 373.25,120.85 372.85,123.92C372.45,127 372.01,130.08 371.43,133.15C370.85,136.23 370.16,139.31 369.35,142.37C368.53,145.46 367.56,148.53 366.55,151.6C365.54,154.69 364.36,157.75 363.28,160.83C362.21,163.9 361.03,166.96 360.1,170.06C359.18,173.12 358.29,176.19 357.72,179.29C357.16,182.35 356.8,185.44 356.71,188.52C356.62,191.59 356.83,194.68 357.18,197.75C357.53,200.84 358.19,203.91 358.83,206.98C359.47,210.07 360.3,213.13 361.02,216.21C361.74,219.29 362.5,222.36 363.14,225.44C363.78,228.51 364.35,231.59 364.87,234.67C365.39,237.74 365.79,240.82 366.24,243.89C366.69,246.97 367.06,250.05 367.57,253.12C368.08,256.2 368.61,259.28 369.28,262.35C369.95,265.44 370.73,268.52 371.59,271.58C372.46,274.67 373.47,277.74 374.48,280.81C375.49,283.89 376.61,286.96 377.66,290.04C378.71,293.11 379.79,296.18 380.76,299.27C381.73,302.34 382.66,305.41 383.48,308.5C384.29,311.57 385.03,314.64 385.66,317.73C386.29,320.8 386.81,323.88 387.26,326.96C387.71,330.03 388.06,333.11 388.36,336.19C388.66,339.26 388.89,342.33 389.08,345.41C389.27,348.48 389.4,351.56 389.51,354.64Q389.62,357.72 389.76,363.87Z" style="vector-effect: non-scaling-stroke; stroke-width: 2px; stroke: rgb(239, 85, 59); stroke-opacity: 1; fill: rgb(239, 85, 59); fill-opacity: 0.5;"/><path class="box" d="M68.44,183.66H87.55M68.44,221.74H87.55V98.39H68.44ZM78,221.74V352.6M78,98.39V59.84" style="vector-effect: non-scaling-stroke; stroke-width: 2px; stroke: rgb(239, 85, 59); stroke-opacity: 1; fill: rgb(239, 85, 59); fill-opacity: 0.5;"/><path class="box" d="M224.44,174.15H243.55M224.44,193.18H243.55V88.39H224.44ZM234,193.18V302.73M234,88.39V59.84" style="vector-effect: non-scaling-stroke; stroke-width: 2px; stroke: rgb(239, 85, 59); stroke-opacity: 1; fill: rgb(239, 85, 59); fill-opacity: 0.5;"/><path class="box" d="M380.44,184.62H399.55M380.44,236.04H399.55V145.52H380.44ZM390,236.04V307.39M390,145.52V78.88" style="vector-effect: non-scaling-stroke; stroke-width: 2px; stroke: rgb(239, 85, 59); stroke-opacity: 1; fill: rgb(239, 85, 59); fill-opacity: 0.5;"/><path class="mean" d="M68.44,173.96H87.55" style="fill: none; vector-effect: non-scaling-stroke; stroke-width: 2px; stroke-dasharray: 4px, 2px; stroke: rgb(239, 85, 59); stroke-opacity: 1;"/><path class="mean" d="M224.44,149.98H243.55" style="fill: none; vector-effect: non-scaling-stroke; stroke-width: 2px; stroke-dasharray: 4px, 2px; stroke: rgb(239, 85, 59); stroke-opacity: 1;"/><path class="mean" d="M380.44,188.36H399.55" style="fill: none; vector-effect: non-scaling-stroke; stroke-width: 2px; stroke-dasharray: 4px, 2px; stroke: rgb(239, 85, 59); stroke-opacity: 1;"/></g></g></g><g class="overplot"/><path class="xlines-above crisp" d="M0,0" style="fill: none;"/><path class="ylines-above crisp" d="M0,0" style="fill: none;"/><g class="overlines-above"/><g class="xaxislayer-above"><g class="x2tick"><text text-anchor="middle" x="0" y="533" transform="translate(730,0)" style="font-family: 'Open Sans', verdana, arial, sans-serif; font-size: 12px; fill: rgb(42, 63, 95); fill-opacity: 1; white-space: pre; opacity: 1;">&#60;=1</text></g><g class="x2tick"><text text-anchor="middle" x="0" y="533" transform="translate(886,0)" style="font-family: 'Open Sans', verdana, arial, sans-serif; font-size: 12px; fill: rgb(42, 63, 95); fill-opacity: 1; white-space: pre; opacity: 1;">(1, 2]</text></g><g class="x2tick"><text text-anchor="middle" x="0" y="533" transform="translate(1042,0)" style="font-family: 'Open Sans', verdana, arial, sans-serif; font-size: 12px; fill: rgb(42, 63, 95); fill-opacity: 1; white-space: pre; opacity: 1;">>2</text></g></g><g class="yaxislayer-above"><g class="y2tick"><text text-anchor="end" x="651" y="4.199999999999999" transform="translate(0,511.99)" style="font-family: 'Open Sans', verdana, arial, sans-serif; font-size: 12px; fill: rgb(42, 63, 95); fill-opacity: 1; white-space: pre; opacity: 1;">−5</text></g><g class="y2tick"><text text-anchor="end" x="651" y="4.199999999999999" style="font-family: 'Open Sans', verdana, arial, sans-serif; font-size: 12px; fill: rgb(42, 63, 95); fill-opacity: 1; white-space: pre; opacity: 1;" transform="translate(0,464.4)">0</text></g><g class="y2tick"><text text-anchor="end" x="651" y="4.199999999999999" style="font-family: 'Open Sans', verdana, arial, sans-serif; font-size: 12px; fill: rgb(42, 63, 95); fill-opacity: 1; white-space: pre; opacity: 1;" transform="translate(0,416.82)">5</text></g><g class="y2tick"><text text-anchor="end" x="651" y="4.199999999999999" style="font-family: 'Open Sans', verdana, arial, sans-serif; font-size: 12px; fill: rgb(42, 63, 95); fill-opacity: 1; white-space: pre; opacity: 1;" transform="translate(0,369.23)">10</text></g><g class="y2tick"><text text-anchor="end" x="651" y="4.199999999999999" style="font-family: 'Open Sans', verdana, arial, sans-serif; font-size: 12px; fill: rgb(42, 63, 95); fill-opacity: 1; white-space: pre; opacity: 1;" transform="translate(0,321.64)">15</text></g><g class="y2tick"><text text-anchor="end" x="651" y="4.199999999999999" style="font-family: 'Open Sans', verdana, arial, sans-serif; font-size: 12px; fill: rgb(42, 63, 95); fill-opacity: 1; white-space: pre; opacity: 1;" transform="translate(0,274.05)">20</text></g><g class="y2tick"><text text-anchor="end" x="651" y="4.199999999999999" style="font-family: 'Open Sans', verdana, arial, sans-serif; font-size: 12px; fill: rgb(42, 63, 95); fill-opacity: 1; white-space: pre; opacity: 1;" transform="translate(0,226.45999999999998)">25</text></g><g class="y2tick"><text text-anchor="end" x="651" y="4.199999999999999" style="font-family: 'Open Sans', verdana, arial, sans-serif; font-size: 12px; fill: rgb(42, 63, 95); fill-opacity: 1; white-space: pre; opacity: 1;" transform="translate(0,178.88)">30</text></g><g class="y2tick"><text text-anchor="end" x="651" y="4.199999999999999" style="font-family: 'Open Sans', verdana, arial, sans-serif; font-size: 12px; fill: rgb(42, 63, 95); fill-opacity: 1; white-space: pre; opacity: 1;" transform="translate(0,131.29)">35</text></g></g><g class="overaxes-above"/></g></g><g class="polarlayer"/><g class="smithlayer"/><g class="ternarylayer"/><g class="geolayer"/><g class="funnelarealayer"/><g class="pielayer"/><g class="iciclelayer"/><g class="treemaplayer"/><g class="sunburstlayer"/><g class="glimages"/><defs id="topdefs-699a9f"><g class="clips"/></defs><g class="layer-above"><g class="imagelayer"/><g class="shapelayer"/></g><g class="infolayer"><g class="g-gtitle"><text class="gtitle" x="60" y="50" text-anchor="start" dy="0em" style="font-family: 'Open Sans', verdana, arial, sans-serif; font-size: 17px; fill: rgb(42, 63, 95); opacity: 1; font-weight: normal; white-space: pre;">original_price Distributions (hardcover better)</text></g><g class="g-xtitle"><text class="xtitle" x="314" y="561.8" text-anchor="middle" style="font-family: 'Open Sans', verdana, arial, sans-serif; font-size: 14px; fill: rgb(42, 63, 95); opacity: 1; font-weight: normal; white-space: pre;">Hardcover over Paperback</text></g><g class="g-x2title"><text class="x2title" x="886" y="561.8" text-anchor="middle" style="font-family: 'Open Sans', verdana, arial, sans-serif; font-size: 14px; fill: rgb(42, 63, 95); opacity: 1; font-weight: normal; white-space: pre;">Hardcover over Paperback</text></g><g class="g-ytitle"><text class="ytitle" transform="rotate(-90,40.465625,310)" x="40.465625" y="310" text-anchor="middle" style="font-family: 'Open Sans', verdana, arial, sans-serif; font-size: 14px; fill: rgb(42, 63, 95); opacity: 1; font-weight: normal; white-space: pre;">original_price</text></g><g class="g-y2title"><text class="y2title" transform="rotate(-90,612.465625,310)" x="612.465625" y="310" text-anchor="middle" style="font-family: 'Open Sans', verdana, arial, sans-serif; font-size: 14px; fill: rgb(42, 63, 95); opacity: 1; font-weight: normal; white-space: pre;">original_price</text></g><g class="annotation" data-index="0" style="opacity: 1;"><g class="annotation-text-g" transform="rotate(0,314,87)"><g class="cursor-pointer" transform="translate(273,74)"><rect class="bg" x="0.5" y="0.5" width="82" height="25" style="stroke-width: 1px; stroke: rgb(0, 0, 0); stroke-opacity: 0; fill: rgb(0, 0, 0); fill-opacity: 0;"/><text class="annotation-text" text-anchor="middle" x="41.296875" y="19" style="font-family: 'Open Sans', verdana, arial, sans-serif; font-size: 16px; fill: rgb(42, 63, 95); fill-opacity: 1; white-space: pre;">Paperback</text></g></g></g><g class="annotation" data-index="1" style="opacity: 1;"><g class="annotation-text-g" transform="rotate(0,886,87)"><g class="cursor-pointer" transform="translate(845,74)"><rect class="bg" x="0.5" y="0.5" width="81" height="25" style="stroke-width: 1px; stroke: rgb(0, 0, 0); stroke-opacity: 0; fill: rgb(0, 0, 0); fill-opacity: 0;"/><text class="annotation-text" text-anchor="middle" x="40.921875" y="19" style="font-family: 'Open Sans', verdana, arial, sans-serif; font-size: 16px; fill: rgb(42, 63, 95); fill-opacity: 1; white-space: pre;">Hardcover</text></g></g></g></g></svg>