<svg class="main-svg" xmlns="http://www.w3.org/2000/svg" xmlns:xlink="http://www.w3.org/1999/xlink" width="1200" height="600" style="" viewBox="0 0 1200 600"><rect x="0" y="0" width="1200" height="600" style="fill: rgb(255, 255, 255); fill-opacity: 1;"/><defs id="defs-bd802e"><g class="clips"><clipPath id="clipbd802exyplot" class="plotclip"><rect width="468" height="420"/></clipPath><clipPath id="clipbd802ex2y2plot" class="plotclip"><rect width="467.99999999999994" height="420"/></clipPath><clipPath class="axesclip" id="clipbd802ex"><rect x="80" y="0" width="468" height="600"/></clipPath><clipPath class="axesclip" id="clipbd802ey"><rect x="0" y="100" width="1200" height="420"/></clipPath><clipPath class="axesclip" id="clipbd802exy"><rect x="80" y="100" width="468" height="420"/></clipPath><clipPath class="axesclip" id="clipbd802ey2"><rect x="0" y="100" width="1200" height="420"/></clipPath><clipPath class="axesclip" id="clipbd802exy2"><rect x="80" y="100" width="468" height="420"/></clipPath><clipPath class="axesclip" id="clipbd802ex2"><rect x="652" y="0" width="467.99999999999994" height="600"/></clipPath><clipPath class="axesclip" id="clipbd802ex2y"><rect x="652" y="100" width="467.99999999999994" height="420"/></clipPath><clipPath class="axesclip" id="clipbd802ex2y2"><rect x="652" y="100" width="467.99999999999994" height="420"/></clipPath></g><g class="gradients"/><g class="patterns"/></defs><g class="bglayer"><rect class="bg" x="80" y="100" width="468" height="420" style="fill: rgb(229, 236, 246); fill-opacity: 1; stroke-width: 0;"/><rect class="bg" x="652" y="100" width="467.99999999999994" height="420" style="fill: rgb(229, 236, 246); fill-opacity: 1; stroke-width: 0;"/></g><g class="layer-below"><g class="imagelayer"/><g class="shapelayer"/></g><g class="cartesianlayer"><g class="subplot xy"><g class="layer-subplot"><g class="shapelayer"/><g class="imagelayer"/></g><g class="minor-gridlayer"><g class="x"/><g class="y"/></g><g class="gridlayer"><g class="x"/><g class="y"><path class="ygrid crisp" transform="translate(0,472.94)" d="M80,0h468" style="stroke: rgb(255, 255, 255); stroke-opacity: 1; stroke-width: 1px;"/><path class="ygrid crisp" transform="translate(0,423.57)" d="M80,0h468" style="stroke: rgb(255, 255, 255); stroke-opacity: 1; stroke-width: 1px;"/><path class="ygrid crisp" transform="translate(0,374.19)" d="M80,0h468" style="stroke: rgb(255, 255, 255); stroke-opacity: 1; stroke-width: 1px;"/><path class="ygrid crisp" transform="translate(0,324.81)" d="M80,0h468" style="stroke: rgb(255, 255, 255); stroke-opacity: 1; stroke-width: 1px;"/><path class="ygrid crisp" transform="translate(0,275.44)" d="M80,0h468" style="stroke: rgb(255, 255, 255); stroke-opacity: 1; stroke-width: 1px;"/><path class="ygrid crisp" transform="translate(0,226.06)" d="M80,0h468" style="stroke: rgb(255, 255, 255); stroke-opacity: 1; stroke-width: 1px;"/><path class="ygrid crisp" transform="translate(0,176.68)" d="M80,0h468" style="stroke: rgb(255, 255, 255); stroke-opacity: 1; stroke-width: 1px;"/><path class="ygrid crisp" transform="translate(0,127.31)" d="M80,0h468" style="stroke: rgb(255, 255, 255); stroke-opacity: 1; stroke-width: 1px;"/></g></g><g class="zerolinelayer"/><path class="xlines-below"/><path class="ylines-below"/><g class="overlines-below"/><g class="xaxislayer-below"/><g class="yaxislayer-below"/><g class="overaxes-below"/><g class="plot" transform="translate(80,100)" clip-path="url(#clipbd802exyplot)"><g class="violinlayer mlayer"><g class="trace violins" style="opacity: 1;"><path class="violin" d="M78.13,368.44Q78.2,364.62 78.25,362.71C78.3,360.8 78.36,358.89 78.43,356.98C78.5,355.07 78.57,353.15 78.66,351.24C78.75,349.33 78.85,347.42 78.95,345.51C79.05,343.6 79.15,341.69 79.25,339.78C79.35,337.87 79.45,335.96 79.54,334.05C79.63,332.14 79.72,330.22 79.81,328.31C79.9,326.4 79.98,324.49 80.06,322.58C80.14,320.67 80.21,318.76 80.29,316.85C80.37,314.94 80.46,313.03 80.54,311.12C80.63,309.21 80.71,307.29 80.8,305.38C80.89,303.47 80.98,301.56 81.06,299.65C81.14,297.74 81.22,295.83 81.29,293.92C81.36,292.01 81.44,290.1 81.5,288.19C81.57,286.28 81.62,284.36 81.68,282.45C81.74,280.54 81.8,278.63 81.87,276.72C81.94,274.81 82,272.9 82.08,270.99C82.16,269.08 82.24,267.17 82.34,265.26C82.44,263.35 82.54,261.43 82.66,259.52C82.77,257.61 82.9,255.7 83.03,253.79C83.16,251.88 83.3,249.97 83.44,248.06C83.58,246.15 83.72,244.23 83.87,242.32C84.02,240.41 84.17,238.5 84.32,236.59C84.47,234.68 84.63,232.77 84.79,230.86C84.95,228.95 85.11,227.04 85.27,225.13C85.43,223.22 85.59,221.3 85.74,219.39C85.89,217.48 86.04,215.57 86.18,213.66C86.31,211.75 86.43,209.84 86.55,207.93C86.66,206.02 86.77,204.11 86.87,202.2C86.97,200.29 87.05,198.37 87.15,196.46C87.25,194.55 87.34,192.64 87.46,190.73C87.58,188.82 87.71,186.91 87.88,185C88.05,183.09 88.24,181.18 88.47,179.27C88.71,177.36 88.98,175.44 89.29,173.53C89.6,171.62 89.96,169.71 90.33,167.8C90.7,165.89 91.11,163.98 91.53,162.07C91.95,160.16 92.39,158.24 92.83,156.33C93.27,154.42 93.72,152.51 94.15,150.6C94.58,148.69 95.01,146.78 95.43,144.87C95.85,142.96 96.25,141.05 96.65,139.14C97.05,137.23 97.43,135.31 97.84,133.4C98.25,131.49 98.66,129.58 99.09,127.67C99.52,125.76 99.97,123.85 100.44,121.94C100.91,120.03 101.42,118.12 101.9,116.21C102.38,114.3 102.9,112.39 103.31,110.47C103.72,108.57 104.14,106.66 104.36,104.74C104.58,102.84 104.73,100.91 104.62,99.01C104.51,97.09 104.2,95.16 103.68,93.28C103.14,91.34 102.32,89.41 101.38,87.54C100.4,85.59 99.14,83.69 97.87,81.81C96.56,79.87 95.06,77.99 93.64,76.08C92.21,74.17 90.7,72.28 89.33,70.35C87.99,68.46 86.66,66.55 85.52,64.61C84.41,62.73 83.39,60.82 82.55,58.88C81.73,57 81.06,55.08 80.51,53.15C79.97,51.25 79.58,49.33 79.26,47.41Q78.94,45.51 78.57,41.68L77.43,41.68Q77.06,45.51 76.74,47.41C76.42,49.33 76.03,51.25 75.49,53.15C74.94,55.08 74.27,57 73.45,58.88C72.61,60.82 71.59,62.73 70.48,64.61C69.34,66.55 68.01,68.46 66.67,70.35C65.3,72.28 63.79,74.17 62.36,76.08C60.94,77.99 59.44,79.87 58.13,81.81C56.86,83.69 55.6,85.59 54.62,87.54C53.68,89.41 52.86,91.34 52.32,93.28C51.8,95.16 51.49,97.09 51.38,99.01C51.27,100.91 51.42,102.84 51.64,104.74C51.86,106.66 52.28,108.57 52.69,110.47C53.1,112.39 53.62,114.3 54.1,116.21C54.58,118.12 55.09,120.03 55.56,121.94C56.03,123.85 56.48,125.76 56.91,127.67C57.34,129.58 57.75,131.49 58.16,133.4C58.57,135.31 58.95,137.23 59.35,139.14C59.75,141.05 60.15,142.96 60.57,144.87C60.99,146.78 61.42,148.69 61.85,150.6C62.28,152.51 62.73,154.42 63.17,156.33C63.61,158.24 64.05,160.16 64.47,162.07C64.89,163.98 65.3,165.89 65.67,167.8C66.04,169.71 66.4,171.62 66.71,173.53C67.02,175.44 67.29,177.36 67.53,179.27C67.76,181.18 67.95,183.09 68.12,185C68.29,186.91 68.42,188.82 68.54,190.73C68.66,192.64 68.75,194.55 68.85,196.46C68.95,198.37 69.03,200.29 69.13,202.2C69.23,204.11 69.34,206.02 69.45,207.93C69.57,209.84 69.69,211.75 69.82,213.66C69.96,215.57 70.11,217.48 70.26,219.39C70.41,221.3 70.57,223.22 70.73,225.13C70.89,227.04 71.05,228.95 71.21,230.86C71.37,232.77 71.53,234.68 71.68,236.59C71.83,238.5 71.98,240.41 72.13,242.32C72.28,244.23 72.42,246.15 72.56,248.06C72.7,249.97 72.84,251.88 72.97,253.79C73.1,255.7 73.23,257.61 73.34,259.52C73.46,261.43 73.56,263.35 73.66,265.26C73.76,267.17 73.84,269.08 73.92,270.99C74,272.9 74.06,274.81 74.13,276.72C74.2,278.63 74.26,280.54 74.32,282.45C74.38,284.36 74.43,286.28 74.5,288.19C74.56,290.1 74.64,292.01 74.71,293.92C74.78,295.83 74.86,297.74 74.94,299.65C75.02,301.56 75.11,303.47 75.2,305.38C75.29,307.29 75.37,309.21 75.46,311.12C75.54,313.03 75.63,314.94 75.71,316.85C75.79,318.76 75.86,320.67 75.94,322.58C76.02,324.49 76.1,326.4 76.19,328.31C76.28,330.22 76.37,332.14 76.46,334.05C76.55,335.96 76.65,337.87 76.75,339.78C76.85,341.69 76.95,343.6 77.05,345.51C77.15,347.42 77.25,349.33 77.34,351.24C77.43,353.15 77.5,355.07 77.57,356.98C77.64,358.89 77.7,360.8 77.75,362.71Q77.8,364.62 77.87,368.44Z" style="vector-effect: non-scaling-stroke; stroke-width: 2px; stroke: rgb(99, 110, 250); stroke-opacity: 1; fill: rgb(99, 110, 250); fill-opacity: 0.5;"/><path class="violin" d="M234.06,361.75Q234.11,358.64 234.14,357.08C234.17,355.52 234.21,353.96 234.26,352.4C234.32,350.84 234.39,349.28 234.47,347.72C234.56,346.16 234.65,344.6 234.77,343.04C234.88,341.48 235.02,339.93 235.16,338.37C235.3,336.81 235.46,335.25 235.62,333.69C235.78,332.13 235.95,330.57 236.1,329.01C236.25,327.45 236.41,325.89 236.54,324.33C236.67,322.77 236.79,321.22 236.88,319.66C236.98,318.1 237.05,316.54 237.11,314.98C237.17,313.42 237.2,311.86 237.22,310.3C237.24,308.74 237.24,307.18 237.23,305.62C237.22,304.06 237.21,302.51 237.19,300.95C237.17,299.39 237.14,297.83 237.12,296.27C237.1,294.71 237.07,293.15 237.06,291.59C237.05,290.03 237.04,288.48 237.04,286.92C237.04,285.36 237.05,283.8 237.07,282.24C237.09,280.68 237.12,279.12 237.16,277.56C237.2,276 237.25,274.44 237.3,272.88C237.35,271.32 237.41,269.77 237.46,268.21C237.51,266.65 237.56,265.09 237.6,263.53C237.64,261.97 237.67,260.41 237.69,258.85C237.71,257.29 237.73,255.73 237.74,254.17C237.75,252.61 237.75,251.06 237.76,249.5C237.77,247.94 237.77,246.38 237.78,244.82C237.79,243.26 237.8,241.7 237.83,240.14C237.86,238.58 237.9,237.02 237.94,235.46C237.98,233.9 238.04,232.35 238.09,230.79C238.14,229.23 238.2,227.67 238.26,226.11C238.31,224.55 238.37,222.99 238.42,221.43C238.47,219.87 238.52,218.32 238.57,216.76C238.63,215.2 238.68,213.64 238.75,212.08C238.82,210.52 238.91,208.96 239.01,207.4C239.11,205.84 239.23,204.28 239.36,202.72C239.49,201.16 239.64,199.61 239.77,198.05C239.91,196.49 240.05,194.93 240.17,193.37C240.29,191.81 240.41,190.25 240.51,188.69C240.61,187.13 240.69,185.57 240.78,184.01C240.87,182.45 240.95,180.9 241.05,179.34C241.16,177.78 241.26,176.22 241.41,174.66C241.56,173.1 241.74,171.54 241.96,169.98C242.19,168.42 242.45,166.86 242.76,165.31C243.07,163.75 243.43,162.19 243.82,160.63C244.21,159.07 244.66,157.51 245.11,155.95C245.56,154.39 246.05,152.83 246.54,151.27C247.03,149.71 247.53,148.16 248.03,146.6C248.53,145.04 249.04,143.48 249.55,141.92C250.06,140.36 250.57,138.8 251.11,137.24C251.65,135.68 252.19,134.11 252.77,132.56C253.36,131 253.96,129.44 254.63,127.89C255.31,126.32 256.02,124.76 256.8,123.21C257.6,121.64 258.46,120.08 259.38,118.53C260.31,116.96 261.33,115.4 262.36,113.85C263.4,112.28 264.54,110.74 265.61,109.18C266.68,107.62 267.82,106.09 268.77,104.5C269.69,102.97 270.64,101.42 271.22,99.82C271.77,98.3 272.23,96.71 272.22,95.15C272.21,93.59 271.82,91.97 271.15,90.47C270.41,88.83 269.13,87.28 267.79,85.79C266.31,84.14 264.39,82.63 262.52,81.11C260.54,79.51 258.3,78 256.19,76.44C254.08,74.88 251.85,73.36 249.84,71.76C247.91,70.23 246,68.7 244.34,67.08C242.79,65.57 241.35,64.02 240.16,62.4C239.05,60.89 238.1,59.33 237.34,57.73C236.61,56.21 236.09,54.63 235.65,53.05Q235.22,51.51 234.74,48.37L233.26,48.37Q232.78,51.51 232.35,53.05C231.91,54.63 231.39,56.21 230.66,57.73C229.9,59.33 228.95,60.89 227.84,62.4C226.65,64.02 225.21,65.57 223.66,67.08C222,68.7 220.09,70.23 218.16,71.76C216.15,73.36 213.92,74.88 211.81,76.44C209.7,78 207.46,79.51 205.48,81.11C203.61,82.63 201.69,84.14 200.21,85.79C198.87,87.28 197.59,88.83 196.85,90.47C196.18,91.97 195.79,93.59 195.78,95.15C195.77,96.71 196.23,98.3 196.78,99.82C197.36,101.42 198.31,102.97 199.23,104.5C200.18,106.09 201.32,107.62 202.39,109.18C203.46,110.74 204.6,112.28 205.64,113.85C206.67,115.4 207.69,116.96 208.62,118.53C209.54,120.08 210.4,121.64 211.2,123.21C211.98,124.76 212.69,126.32 213.37,127.89C214.04,129.44 214.64,131 215.23,132.56C215.81,134.11 216.35,135.68 216.89,137.24C217.43,138.8 217.94,140.36 218.45,141.92C218.96,143.48 219.47,145.04 219.97,146.6C220.47,148.16 220.97,149.71 221.46,151.27C221.95,152.83 222.44,154.39 222.89,155.95C223.34,157.51 223.79,159.07 224.18,160.63C224.57,162.19 224.93,163.75 225.24,165.31C225.55,166.86 225.81,168.42 226.04,169.98C226.26,171.54 226.44,173.1 226.59,174.66C226.74,176.22 226.84,177.78 226.95,179.34C227.05,180.9 227.13,182.45 227.22,184.01C227.31,185.57 227.39,187.13 227.49,188.69C227.59,190.25 227.71,191.81 227.83,193.37C227.95,194.93 228.09,196.49 228.23,198.05C228.36,199.61 228.51,201.16 228.64,202.72C228.77,204.28 228.89,205.84 228.99,207.4C229.09,208.96 229.18,210.52 229.25,212.08C229.32,213.64 229.37,215.2 229.43,216.76C229.48,218.32 229.53,219.87 229.58,221.43C229.63,222.99 229.69,224.55 229.74,226.11C229.8,227.67 229.86,229.23 229.91,230.79C229.96,232.35 230.02,233.9 230.06,235.46C230.1,237.02 230.14,238.58 230.17,240.14C230.2,241.7 230.21,243.26 230.22,244.82C230.23,246.38 230.23,247.94 230.24,249.5C230.25,251.06 230.25,252.61 230.26,254.17C230.27,255.73 230.29,257.29 230.31,258.85C230.33,260.41 230.36,261.97 230.4,263.53C230.44,265.09 230.49,266.65 230.54,268.21C230.59,269.77 230.65,271.32 230.7,272.88C230.75,274.44 230.8,276 230.84,277.56C230.88,279.12 230.91,280.68 230.93,282.24C230.95,283.8 230.96,285.36 230.96,286.92C230.96,288.48 230.95,290.03 230.94,291.59C230.93,293.15 230.9,294.71 230.88,296.27C230.86,297.83 230.83,299.39 230.81,300.95C230.79,302.51 230.78,304.06 230.77,305.62C230.76,307.18 230.76,308.74 230.78,310.3C230.8,311.86 230.83,313.42 230.89,314.98C230.95,316.54 231.02,318.1 231.12,319.66C231.21,321.22 231.33,322.77 231.46,324.33C231.59,325.89 231.75,327.45 231.9,329.01C232.05,330.57 232.22,332.13 232.38,333.69C232.54,335.25 232.7,336.81 232.84,338.37C232.98,339.93 233.12,341.48 233.23,343.04C233.35,344.6 233.44,346.16 233.53,347.72C233.61,349.28 233.68,350.84 233.74,352.4C233.79,353.96 233.83,355.52 233.86,357.08Q233.89,358.64 233.94,361.75Z" style="vector-effect: non-scaling-stroke; stroke-width: 2px; stroke: rgb(99, 110, 250); stroke-opacity: 1; fill: rgb(99, 110, 250); fill-opacity: 0.5;"/><path class="violin" d="M390.19,399Q390.31,391.8 390.4,388.2C390.49,384.6 390.6,381 390.74,377.4C390.88,373.8 391.06,370.2 391.26,366.6C391.46,363 391.7,359.4 391.95,355.8C392.2,352.2 392.49,348.6 392.76,345C393.04,341.4 393.34,337.8 393.6,334.2C393.86,330.6 394.13,327 394.34,323.4C394.55,319.8 394.74,316.2 394.88,312.6C395.02,309 395.12,305.4 395.19,301.8C395.26,298.2 395.29,294.6 395.32,291C395.35,287.4 395.35,283.8 395.38,280.2C395.41,276.6 395.42,273 395.48,269.4C395.54,265.8 395.61,262.2 395.73,258.6C395.85,255 396,251.4 396.18,247.8C396.36,244.2 396.57,240.6 396.8,237C397.03,233.4 397.29,229.8 397.54,226.2C397.79,222.6 398.05,219 398.31,215.4C398.57,211.8 398.82,208.2 399.1,204.6C399.38,201 399.65,197.4 399.97,193.8C400.3,190.2 400.63,186.6 401.05,183C401.47,179.4 401.93,175.79 402.48,172.2C403.03,168.59 403.67,165 404.33,161.4C405,157.8 405.77,154.2 406.47,150.6C407.17,147 407.95,143.41 408.55,139.8C409.14,136.21 409.73,132.61 410.05,129C410.37,125.41 410.55,121.8 410.46,118.2C410.37,114.6 410.02,110.98 409.48,107.4C408.93,103.78 408.09,100.18 407.17,96.6C406.24,92.98 405.07,89.39 403.94,85.8C402.81,82.19 401.53,78.61 400.38,75C399.24,71.41 398.08,67.81 397.08,64.2C396.09,60.61 395.17,57.01 394.41,53.4C393.65,49.81 393.03,46.21 392.51,42.6C391.99,39.01 391.62,35.4 391.3,31.8Q390.98,28.2 390.61,21L389.39,21Q389.02,28.2 388.7,31.8C388.38,35.4 388.01,39.01 387.49,42.6C386.97,46.21 386.35,49.81 385.59,53.4C384.83,57.01 383.91,60.61 382.92,64.2C381.92,67.81 380.76,71.41 379.62,75C378.47,78.61 377.19,82.19 376.06,85.8C374.93,89.39 373.76,92.98 372.83,96.6C371.91,100.18 371.07,103.78 370.52,107.4C369.98,110.98 369.63,114.6 369.54,118.2C369.45,121.8 369.63,125.41 369.95,129C370.27,132.61 370.86,136.21 371.45,139.8C372.05,143.41 372.83,147 373.53,150.6C374.23,154.2 375,157.8 375.67,161.4C376.33,165 376.97,168.59 377.52,172.2C378.07,175.79 378.53,179.4 378.95,183C379.37,186.6 379.7,190.2 380.03,193.8C380.35,197.4 380.62,201 380.9,204.6C381.18,208.2 381.43,211.8 381.69,215.4C381.95,219 382.21,222.6 382.46,226.2C382.71,229.8 382.97,233.4 383.2,237C383.43,240.6 383.64,244.2 383.82,247.8C384,251.4 384.15,255 384.27,258.6C384.39,262.2 384.46,265.8 384.52,269.4C384.58,273 384.59,276.6 384.62,280.2C384.65,283.8 384.65,287.4 384.68,291C384.71,294.6 384.74,298.2 384.81,301.8C384.88,305.4 384.98,309 385.12,312.6C385.26,316.2 385.45,319.8 385.66,323.4C385.87,327 386.14,330.6 386.4,334.2C386.66,337.8 386.96,341.4 387.24,345C387.51,348.6 387.8,352.2 388.05,355.8C388.3,359.4 388.54,363 388.74,366.6C388.94,370.2 389.12,373.8 389.26,377.4C389.4,381 389.51,384.6 389.6,388.2Q389.69,391.8 389.81,399Z" style="vector-effect: non-scaling-stroke; stroke-width: 2px; stroke: rgb(99, 110, 250); stroke-opacity: 1; fill: rgb(99, 110, 250); fill-opacity: 0.5;"/><path class="box" d="M68.45,135.94H87.56M68.45,185.31H87.56V96.43H68.45ZM78,185.31V313.69M78,96.43V76.68" style="vector-effect: non-scaling-stroke; stroke-width: 2px; stroke: rgb(99, 110, 250); stroke-opacity: 1; fill: rgb(99, 110, 250); fill-opacity: 0.5;"/><path class="box" d="M224.45,116.19H243.56M224.45,155.69H243.56V96.43H224.45ZM234,155.69V244.56M234,96.43V76.68" style="vector-effect: non-scaling-stroke; stroke-width: 2px; stroke: rgb(99, 110, 250); stroke-opacity: 1; fill: rgb(99, 110, 250); fill-opacity: 0.5;"/><path class="box" d="M380.45,140.87H399.55M380.45,214.94H399.55V116.19H380.45ZM390,214.94V333.44M390,116.19V86.56" style="vector-effect: non-scaling-stroke; stroke-width: 2px; stroke: rgb(99, 110, 250); stroke-opacity: 1; fill: rgb(99, 110, 250); fill-opacity: 0.5;"/><path class="mean" d="M68.45,150.67H87.56" style="fill: none; vector-effect: non-scaling-stroke; stroke-width: 2px; stroke-dasharray: 4px, 2px; stroke: rgb(99, 110, 250); stroke-opacity: 1;"/><path class="mean" d="M224.45,138.05H243.56" style="fill: none; vector-effect: non-scaling-stroke; stroke-width: 2px; stroke-dasharray: 4px, 2px; stroke: rgb(99, 110, 250); stroke-opacity: 1;"/><path class="mean" d="M380.45,167.72H399.55" style="fill: none; vector-effect: non-scaling-stroke; stroke-width: 2px; stroke-dasharray: 4px, 2px; stroke: rgb(99, 110, 250); stroke-opacity: 1;"/></g></g></g><g class="overplot"/><path class="xlines-above crisp" d="M0,0" style="fill: none;"/><path class="ylines-above crisp" d="M0,0" style="fill: none;"/><g class="overlines-above"/><g class="xaxislayer-above"><g class="xtick"><text text-anchor="middle" x="0" y="533" transform="translate(158,0)" style="font-family: 'Open Sans', verdana, arial, sans-serif; font-size: 12px; fill: rgb(42, 63, 95); fill-opacity: 1; white-space: pre; opacity: 1;">&#60;=1</text></g><g class="xtick"><text text-anchor="middle" x="0" y="533" transform="translate(314,0)" style="font-family: 'Open Sans', verdana, arial, sans-serif; font-size: 12px; fill: rgb(42, 63, 95); fill-opacity: 1; white-space: pre; opacity: 1;">(1, 2]</text></g><g class="xtick"><text text-anchor="middle" x="0" y="533" transform="translate(470,0)" style="font-family: 'Open Sans', verdana, arial, sans-serif; font-size: 12px; fill: rgb(42, 63, 95); fill-opacity: 1; white-space: pre; opacity: 1;">>2</text></g></g><g class="yaxislayer-above"><g class="ytick"><text text-anchor="end" x="79" y="4.199999999999999" transform="translate(0,472.94)" style="font-family: 'Open Sans', verdana, arial, sans-serif; font-size: 12px; fill: rgb(42, 63, 95); fill-opacity: 1; white-space: pre; opacity: 1;">1995</text></g><g class="ytick"><text text-anchor="end" x="79" y="4.199999999999999" style="font-family: 'Open Sans', verdana, arial, sans-serif; font-size: 12px; fill: rgb(42, 63, 95); fill-opacity: 1; white-space: pre; opacity: 1;" transform="translate(0,423.57)">2000</text></g><g class="ytick"><text text-anchor="end" x="79" y="4.199999999999999" style="font-family: 'Open Sans', verdana, arial, sans-serif; font-size: 12px; fill: rgb(42, 63, 95); fill-opacity: 1; white-space: pre; opacity: 1;" transform="translate(0,374.19)">2005</text></g><g class="ytick"><text text-anchor="end" x="79" y="4.199999999999999" style="font-family: 'Open Sans', verdana, arial, sans-serif; font-size: 12px; fill: rgb(42, 63, 95); fill-opacity: 1; white-space: pre; opacity: 1;" transform="translate(0,324.81)">2010</text></g><g class="ytick"><text text-anchor="end" x="79" y="4.199999999999999" style="font-family: 'Open Sans', verdana, arial, sans-serif; font-size: 12px; fill: rgb(42, 63, 95); fill-opacity: 1; white-space: pre; opacity: 1;" transform="translate(0,275.44)">2015</text></g><g class="ytick"><text text-anchor="end" x="79" y="4.199999999999999" style="font-family: 'Open Sans', verdana, arial, sans-serif; font-size: 12px; fill: rgb(42, 63, 95); fill-opacity: 1; white-space: pre; opacity: 1;" transform="translate(0,226.06)">2020</text></g><g class="ytick"><text text-anchor="end" x="79" y="4.199999999999999" style="font-family: 'Open Sans', verdana, arial, sans-serif; font-size: 12px; fill: rgb(42, 63, 95); fill-opacity: 1; white-space: pre; opacity: 1;" transform="translate(0,176.68)">2025</text></g><g class="ytick"><text text-anchor="end" x="79" y="4.199999999999999" style="font-family: 'Open Sans', verdana, arial, sans-serif; font-size: 12px; fill: rgb(42, 63, 95); fill-opacity: 1; white-space: pre; opacity: 1;" transform="translate(0,127.31)">2030</text></g></g><g class="overaxes-above"/></g><g class="subplot x2y2"><g class="layer-subplot"><g class="shapelayer"/><g class="imagelayer"/></g><g class="minor-gridlayer"><g class="x2"/><g class="y2"/></g><g class="gridlayer"><g class="x2"/><g class="y2"><path class="y2grid crisp" transform="translate(0,472.94)" d="M652,0h467.99999999999994" style="stroke: rgb(255, 255, 255); stroke-opacity: 1; stroke-width: 1px;"/><path class="y2grid crisp" transform="translate(0,423.57)" d="M652,0h467.99999999999994" style="stroke: rgb(255, 255, 255); stroke-opacity: 1; stroke-width: 1px;"/><path class="y2grid crisp" transform="translate(0,374.19)" d="M652,0h467.99999999999994" style="stroke: rgb(255, 255, 255); stroke-opacity: 1; stroke-width: 1px;"/><path class="y2grid crisp" transform="translate(0,324.81)" d="M652,0h467.99999999999994" style="stroke: rgb(255, 255, 255); stroke-opacity: 1; stroke-width: 1px;"/><path class="y2grid crisp" transform="translate(0,275.44)" d="M652,0h467.99999999999994" style="stroke: rgb(255, 255, 255); stroke-opacity: 1; stroke-width: 1px;"/><path class="y2grid crisp" transform="translate(0,226.06)" d="M652,0h467.99999999999994" style="stroke: rgb(255, 255, 255); stroke-opacity: 1; stroke-width: 1px;"/><path class="y2grid crisp" transform="translate(0,176.68)" d="M652,0h467.99999999999994" style="stroke: rgb(255, 255, 255); stroke-opacity: 1; stroke-width: 1px;"/><path class="y2grid crisp" transform="translate(0,127.31)" d="M652,0h467.99999999999994" style="stroke: rgb(255, 255, 255); stroke-opacity: 1; stroke-width: 1px;"/></g></g><g class="zerolinelayer"/><path class="xlines-below"/><path class="ylines-below"/><g class="overlines-below"/><g class="xaxislayer-below"/><g class="yaxislayer-below"/><g class="overaxes-below"/><g class="plot" transform="translate(652,100)" clip-path="url(#clipbd802ex2y2plot)"><g class="violinlayer mlayer"><g class="trace violins" style="opacity: 1;"><path class="violin" d="M78.21,345.14Q78.32,341.69 78.4,339.96C78.48,338.23 78.57,336.51 78.69,334.78C78.81,333.05 78.95,331.33 79.1,329.6C79.25,327.87 79.43,326.15 79.61,324.42C79.79,322.69 79.99,320.97 80.18,319.24C80.37,317.51 80.57,315.79 80.76,314.06C80.95,312.34 81.14,310.61 81.3,308.89C81.47,307.16 81.62,305.44 81.75,303.71C81.88,301.98 81.99,300.26 82.08,298.53C82.17,296.8 82.22,295.08 82.27,293.35C82.31,291.62 82.34,289.9 82.35,288.17C82.36,286.44 82.35,284.72 82.35,282.99C82.35,281.26 82.34,279.54 82.37,277.81C82.4,276.08 82.45,274.36 82.53,272.63C82.62,270.9 82.72,269.17 82.88,267.45C83.04,265.72 83.24,263.99 83.47,262.27C83.7,260.54 83.98,258.81 84.25,257.09C84.53,255.36 84.83,253.64 85.12,251.92C85.41,250.19 85.71,248.47 85.99,246.74C86.27,245.01 86.55,243.29 86.81,241.56C87.07,239.83 87.31,238.11 87.55,236.38C87.79,234.65 88.02,232.93 88.25,231.2C88.48,229.47 88.7,227.75 88.92,226.02C89.14,224.29 89.34,222.57 89.55,220.84C89.76,219.11 89.96,217.39 90.16,215.66C90.36,213.93 90.54,212.21 90.73,210.48C90.91,208.75 91.09,207.03 91.27,205.3C91.44,203.57 91.61,201.85 91.78,200.12C91.95,198.4 92.12,196.67 92.3,194.95C92.48,193.22 92.67,191.5 92.86,189.77C93.06,188.04 93.26,186.32 93.47,184.59C93.68,182.86 93.89,181.14 94.12,179.41C94.35,177.68 94.58,175.96 94.83,174.23C95.08,172.5 95.33,170.78 95.6,169.05C95.87,167.32 96.16,165.6 96.45,163.87C96.74,162.14 97.05,160.42 97.36,158.69C97.68,156.96 98.01,155.24 98.34,153.51C98.67,151.78 99,150.06 99.34,148.33C99.68,146.6 100.03,144.87 100.4,143.15C100.77,141.42 101.14,139.7 101.56,137.98C101.98,136.25 102.43,134.52 102.93,132.8C103.44,131.07 104,129.34 104.6,127.62C105.21,125.89 105.89,124.16 106.55,122.44C107.21,120.71 107.95,119 108.57,117.26C109.18,115.54 109.85,113.82 110.26,112.08C110.67,110.37 111.02,108.63 111.05,106.9C111.08,105.18 110.89,103.41 110.42,101.72C109.93,99.96 109.08,98.21 108.09,96.54C107.03,94.75 105.62,93.04 104.18,91.36C102.67,89.59 100.89,87.9 99.19,86.19C97.46,84.45 95.59,82.75 93.86,81.01C92.17,79.3 90.45,77.6 88.93,75.83C87.48,74.14 86.09,72.42 84.92,70.65C83.8,68.96 82.82,67.23 82.01,65.47C81.23,63.77 80.63,62.03 80.13,60.29Q79.64,58.58 79.03,55.11L76.97,55.11Q76.36,58.58 75.87,60.29C75.37,62.03 74.77,63.77 73.99,65.47C73.18,67.23 72.2,68.96 71.08,70.65C69.91,72.42 68.52,74.14 67.07,75.83C65.55,77.6 63.83,79.3 62.14,81.01C60.41,82.75 58.54,84.45 56.81,86.19C55.11,87.9 53.33,89.59 51.82,91.36C50.38,93.04 48.97,94.75 47.91,96.54C46.92,98.21 46.07,99.96 45.58,101.72C45.11,103.41 44.92,105.18 44.95,106.9C44.98,108.63 45.33,110.37 45.74,112.08C46.15,113.82 46.82,115.54 47.43,117.26C48.05,119 48.79,120.71 49.45,122.44C50.11,124.16 50.79,125.89 51.4,127.62C52,129.34 52.56,131.07 53.07,132.8C53.57,134.52 54.02,136.25 54.44,137.98C54.86,139.7 55.23,141.42 55.6,143.15C55.97,144.87 56.32,146.6 56.66,148.33C57,150.06 57.33,151.78 57.66,153.51C57.99,155.24 58.32,156.96 58.64,158.69C58.95,160.42 59.26,162.14 59.55,163.87C59.84,165.6 60.13,167.32 60.4,169.05C60.67,170.78 60.92,172.5 61.17,174.23C61.42,175.96 61.65,177.68 61.88,179.41C62.11,181.14 62.32,182.86 62.53,184.59C62.74,186.32 62.94,188.04 63.14,189.77C63.33,191.5 63.52,193.22 63.7,194.95C63.88,196.67 64.05,198.4 64.22,200.12C64.39,201.85 64.56,203.57 64.73,205.3C64.91,207.03 65.09,208.75 65.27,210.48C65.46,212.21 65.64,213.93 65.84,215.66C66.04,217.39 66.24,219.11 66.45,220.84C66.66,222.57 66.86,224.29 67.08,226.02C67.3,227.75 67.52,229.47 67.75,231.2C67.98,232.93 68.21,234.65 68.45,236.38C68.69,238.11 68.93,239.83 69.19,241.56C69.45,243.29 69.73,245.01 70.01,246.74C70.29,248.47 70.59,250.19 70.88,251.92C71.17,253.64 71.47,255.36 71.75,257.09C72.02,258.81 72.3,260.54 72.53,262.27C72.76,263.99 72.96,265.72 73.12,267.45C73.28,269.17 73.38,270.9 73.47,272.63C73.55,274.36 73.6,276.08 73.63,277.81C73.66,279.54 73.65,281.26 73.65,282.99C73.65,284.72 73.64,286.44 73.65,288.17C73.66,289.9 73.69,291.62 73.73,293.35C73.78,295.08 73.83,296.8 73.92,298.53C74.01,300.26 74.12,301.98 74.25,303.71C74.38,305.44 74.53,307.16 74.7,308.89C74.86,310.61 75.05,312.34 75.24,314.06C75.43,315.79 75.63,317.51 75.82,319.24C76.01,320.97 76.21,322.69 76.39,324.42C76.57,326.15 76.75,327.87 76.9,329.6C77.05,331.33 77.19,333.05 77.31,334.78C77.43,336.51 77.52,338.23 77.6,339.96Q77.68,341.69 77.79,345.14Z" style="vector-effect: non-scaling-stroke; stroke-width: 2px; stroke: rgb(239, 85, 59); stroke-opacity: 1; fill: rgb(239, 85, 59); fill-opacity: 0.5;"/><path class="violin" d="M234.08,346.24Q234.12,342.63 234.16,340.83C234.2,339.03 234.24,337.22 234.3,335.42C234.36,333.62 234.42,331.81 234.5,330.01C234.58,328.2 234.68,326.4 234.78,324.59C234.88,322.79 235,320.98 235.12,319.18C235.24,317.38 235.38,315.57 235.52,313.77C235.66,311.97 235.81,310.16 235.95,308.36C236.09,306.56 236.24,304.75 236.38,302.95C236.53,301.15 236.68,299.34 236.82,297.54C236.96,295.73 237.1,293.93 237.24,292.12C237.38,290.32 237.53,288.51 237.67,286.71C237.81,284.91 237.95,283.1 238.09,281.3C238.23,279.5 238.38,277.69 238.51,275.89C238.64,274.09 238.77,272.28 238.89,270.48C239.01,268.68 239.12,266.87 239.21,265.07C239.3,263.26 239.38,261.46 239.45,259.65C239.51,257.85 239.56,256.04 239.6,254.24C239.64,252.44 239.67,250.63 239.68,248.83C239.69,247.03 239.69,245.22 239.68,243.42C239.67,241.62 239.65,239.81 239.64,238.01C239.63,236.21 239.61,234.4 239.62,232.6C239.63,230.79 239.63,228.99 239.69,227.18C239.75,225.38 239.83,223.57 239.98,221.77C240.13,219.96 240.32,218.16 240.58,216.36C240.84,214.55 241.17,212.75 241.55,210.95C241.93,209.14 242.4,207.34 242.88,205.54C243.37,203.73 243.91,201.92 244.46,200.12C245.01,198.31 245.6,196.51 246.16,194.71C246.72,192.91 247.3,191.11 247.83,189.3C248.36,187.5 248.87,185.7 249.33,183.89C249.79,182.09 250.21,180.29 250.6,178.48C250.98,176.68 251.32,174.88 251.64,173.07C251.96,171.27 252.24,169.46 252.52,167.65C252.8,165.85 253.06,164.04 253.33,162.24C253.6,160.44 253.86,158.63 254.16,156.83C254.46,155.02 254.76,153.22 255.12,151.42C255.48,149.61 255.85,147.81 256.3,146.01C256.75,144.2 257.25,142.39 257.83,140.6C258.42,138.78 259.08,136.97 259.82,135.18C260.57,133.36 261.41,131.56 262.3,129.77C263.2,127.95 264.21,126.16 265.19,124.36C266.17,122.55 267.23,120.77 268.16,118.95C269.08,117.16 270.05,115.37 270.73,113.54C271.39,111.77 272.01,109.95 272.22,108.13C272.43,106.34 272.41,104.48 272.02,102.71C271.62,100.87 270.78,99.04 269.76,97.3C268.65,95.42 267.08,93.64 265.48,91.89C263.77,90.02 261.73,88.26 259.76,86.48C257.73,84.65 255.52,82.89 253.46,81.07C251.44,79.28 249.37,77.5 247.52,75.65C245.76,73.89 244.05,72.1 242.6,70.24C241.23,68.49 240.01,66.68 239,64.83C238.04,63.07 237.27,61.25 236.65,59.42Q236.04,57.64 235.28,54.01L232.72,54.01Q231.96,57.64 231.35,59.42C230.73,61.25 229.96,63.07 229,64.83C227.99,66.68 226.77,68.49 225.4,70.24C223.95,72.1 222.24,73.89 220.48,75.65C218.63,77.5 216.56,79.28 214.54,81.07C212.48,82.89 210.27,84.65 208.24,86.48C206.27,88.26 204.23,90.02 202.52,91.89C200.92,93.64 199.35,95.42 198.24,97.3C197.22,99.04 196.38,100.87 195.98,102.71C195.59,104.48 195.57,106.34 195.78,108.13C195.99,109.95 196.61,111.77 197.27,113.54C197.95,115.37 198.92,117.16 199.84,118.95C200.77,120.77 201.83,122.55 202.81,124.36C203.79,126.16 204.8,127.95 205.7,129.77C206.59,131.56 207.43,133.36 208.18,135.18C208.92,136.97 209.58,138.78 210.17,140.6C210.75,142.39 211.25,144.2 211.7,146.01C212.15,147.81 212.52,149.61 212.88,151.42C213.24,153.22 213.54,155.02 213.84,156.83C214.14,158.63 214.4,160.44 214.67,162.24C214.94,164.04 215.2,165.85 215.48,167.65C215.76,169.46 216.04,171.27 216.36,173.07C216.68,174.88 217.02,176.68 217.4,178.48C217.79,180.29 218.21,182.09 218.67,183.89C219.13,185.7 219.64,187.5 220.17,189.3C220.7,191.11 221.28,192.91 221.84,194.71C222.4,196.51 222.99,198.31 223.54,200.12C224.09,201.92 224.63,203.73 225.12,205.54C225.6,207.34 226.07,209.14 226.45,210.95C226.83,212.75 227.16,214.55 227.42,216.36C227.68,218.16 227.87,219.96 228.02,221.77C228.17,223.57 228.25,225.38 228.31,227.18C228.37,228.99 228.37,230.79 228.38,232.6C228.39,234.4 228.37,236.21 228.36,238.01C228.35,239.81 228.33,241.62 228.32,243.42C228.31,245.22 228.31,247.03 228.32,248.83C228.33,250.63 228.36,252.44 228.4,254.24C228.44,256.04 228.49,257.85 228.55,259.65C228.62,261.46 228.7,263.26 228.79,265.07C228.88,266.87 228.99,268.68 229.11,270.48C229.23,272.28 229.36,274.09 229.49,275.89C229.62,277.69 229.77,279.5 229.91,281.3C230.05,283.1 230.19,284.91 230.33,286.71C230.47,288.51 230.62,290.32 230.76,292.12C230.9,293.93 231.04,295.73 231.18,297.54C231.32,299.34 231.47,301.15 231.62,302.95C231.76,304.75 231.91,306.56 232.05,308.36C232.19,310.16 232.34,311.97 232.48,313.77C232.62,315.57 232.76,317.38 232.88,319.18C233,320.98 233.12,322.79 233.22,324.59C233.32,326.4 233.42,328.2 233.5,330.01C233.58,331.81 233.64,333.62 233.7,335.42C233.76,337.22 233.8,339.03 233.84,340.83Q233.88,342.63 233.92,346.24Z" style="vector-effect: non-scaling-stroke; stroke-width: 2px; stroke: rgb(239, 85, 59); stroke-opacity: 1; fill: rgb(239, 85, 59); fill-opacity: 0.5;"/><path class="violin" d="M390.2,364.2Q390.31,358.61 390.39,355.82C390.47,353.03 390.57,350.24 390.69,347.45C390.81,344.66 390.95,341.86 391.1,339.07C391.25,336.28 391.43,333.49 391.6,330.7C391.77,327.91 391.96,325.11 392.14,322.32C392.31,319.53 392.49,316.73 392.65,313.94C392.81,311.15 392.96,308.36 393.09,305.57C393.22,302.78 393.32,299.98 393.42,297.19C393.52,294.4 393.6,291.61 393.69,288.82C393.78,286.03 393.85,283.23 393.94,280.44C394.03,277.65 394.13,274.86 394.25,272.07C394.38,269.28 394.51,266.48 394.69,263.69C394.87,260.9 395.07,258.11 395.32,255.32C395.57,252.53 395.86,249.73 396.2,246.94C396.54,244.14 396.93,241.35 397.36,238.56C397.79,235.77 398.27,232.98 398.78,230.19C399.29,227.39 399.84,224.6 400.42,221.81C401,219.02 401.62,216.23 402.25,213.44C402.89,210.64 403.55,207.85 404.23,205.06C404.91,202.27 405.62,199.48 406.34,196.69C407.06,193.9 407.81,191.1 408.53,188.31C409.25,185.52 409.99,182.73 410.67,179.94C411.35,177.15 412.02,174.36 412.62,171.56C413.22,168.77 413.77,165.98 414.25,163.18C414.73,160.39 415.15,157.6 415.52,154.81C415.89,152.02 416.21,149.22 416.49,146.43C416.77,143.64 417.02,140.85 417.21,138.06C417.4,135.27 417.58,132.47 417.61,129.68C417.64,126.89 417.65,124.09 417.42,121.31C417.19,118.51 416.83,115.7 416.24,112.93C415.64,110.12 414.83,107.32 413.85,104.56C412.85,101.74 411.59,98.95 410.29,96.18C408.97,93.36 407.44,90.59 405.99,87.8C404.54,85.01 402.98,82.24 401.59,79.43C400.22,76.65 398.85,73.87 397.69,71.05C396.55,68.28 395.51,65.49 394.65,62.68C393.8,59.91 393.11,57.11 392.55,54.3Q391.99,51.52 391.27,45.93L388.73,45.93Q388.01,51.52 387.45,54.3C386.89,57.11 386.2,59.91 385.35,62.68C384.49,65.49 383.45,68.28 382.31,71.05C381.15,73.87 379.78,76.65 378.41,79.43C377.02,82.24 375.46,85.01 374.01,87.8C372.56,90.59 371.03,93.36 369.71,96.18C368.41,98.95 367.15,101.74 366.15,104.56C365.17,107.32 364.36,110.12 363.76,112.93C363.17,115.7 362.81,118.51 362.58,121.31C362.35,124.09 362.36,126.89 362.39,129.68C362.42,132.47 362.6,135.27 362.79,138.06C362.98,140.85 363.23,143.64 363.51,146.43C363.79,149.22 364.11,152.02 364.48,154.81C364.85,157.6 365.27,160.39 365.75,163.18C366.23,165.98 366.78,168.77 367.38,171.56C367.98,174.36 368.65,177.15 369.33,179.94C370.01,182.73 370.75,185.52 371.47,188.31C372.19,191.1 372.94,193.9 373.66,196.69C374.38,199.48 375.09,202.27 375.77,205.06C376.45,207.85 377.11,210.64 377.75,213.44C378.38,216.23 379,219.02 379.58,221.81C380.16,224.6 380.71,227.39 381.22,230.19C381.73,232.98 382.21,235.77 382.64,238.56C383.07,241.35 383.46,244.14 383.8,246.94C384.14,249.73 384.43,252.53 384.68,255.32C384.93,258.11 385.13,260.9 385.31,263.69C385.49,266.48 385.62,269.28 385.75,272.07C385.87,274.86 385.97,277.65 386.06,280.44C386.15,283.23 386.22,286.03 386.31,288.82C386.4,291.61 386.48,294.4 386.58,297.19C386.68,299.98 386.78,302.78 386.91,305.57C387.04,308.36 387.19,311.15 387.35,313.94C387.51,316.73 387.69,319.53 387.86,322.32C388.04,325.11 388.23,327.91 388.4,330.7C388.57,333.49 388.75,336.28 388.9,339.07C389.05,341.86 389.19,344.66 389.31,347.45C389.43,350.24 389.53,353.03 389.61,355.82Q389.69,358.61 389.8,364.2Z" style="vector-effect: non-scaling-stroke; stroke-width: 2px; stroke: rgb(239, 85, 59); stroke-opacity: 1; fill: rgb(239, 85, 59); fill-opacity: 0.5;"/><path class="box" d="M68.44,145.81H87.55M68.44,195.19H87.55V106.31H68.44ZM78,195.19V313.69M78,106.31V86.56" style="vector-effect: non-scaling-stroke; stroke-width: 2px; stroke: rgb(239, 85, 59); stroke-opacity: 1; fill: rgb(239, 85, 59); fill-opacity: 0.5;"/><path class="box" d="M224.44,126.06H243.55M224.44,175.44H243.55V106.31H224.44ZM234,175.44V274.19M234,106.31V86.56" style="vector-effect: non-scaling-stroke; stroke-width: 2px; stroke: rgb(239, 85, 59); stroke-opacity: 1; fill: rgb(239, 85, 59); fill-opacity: 0.5;"/><path class="box" d="M380.44,155.69H399.55M380.44,192.72H399.55V116.19H380.44ZM390,192.72V303.81M390,116.19V96.43" style="vector-effect: non-scaling-stroke; stroke-width: 2px; stroke: rgb(239, 85, 59); stroke-opacity: 1; fill: rgb(239, 85, 59); fill-opacity: 0.5;"/><path class="mean" d="M68.44,156.88H87.55" style="fill: none; vector-effect: non-scaling-stroke; stroke-width: 2px; stroke-dasharray: 4px, 2px; stroke: rgb(239, 85, 59); stroke-opacity: 1;"/><path class="mean" d="M224.44,146H243.55" style="fill: none; vector-effect: non-scaling-stroke; stroke-width: 2px; stroke-dasharray: 4px, 2px; stroke: rgb(239, 85, 59); stroke-opacity: 1;"/><path class="mean" d="M380.44,159.54H399.55" style="fill: none; vector-effect: non-scaling-stroke; stroke-width: 2px; stroke-dasharray: 4px, 2px; stroke: rgb(239, 85, 59); stroke-opacity: 1;"/></g></g></g><g class="overplot"/><path class="xlines-above crisp" d="M0,0" style="fill: none;"/><path class="ylines-above crisp" d="M0,0" style="fill: none;"/><g class="overlines-above"/><g class="xaxislayer-above"><g class="x2tick"><text text-anchor="middle" x="0" y="533" transform="translate(730,0)" style="font-family: 'Open Sans', verdana, arial, sans-serif; font-size: 12px; fill: rgb(42, 63, 95); fill-opacity: 1; white-space: pre; opacity: 1;">&#60;=1</text></g><g class="x2tick"><text text-anchor="middle" x="0" y="533" transform="translate(886,0)" style="font-family: 'Open Sans', verdana, arial, sans-serif; font-size: 12px; fill: rgb(42, 63, 95); fill-opacity: 1; white-space: pre; opacity: 1;">(1, 2]</text></g><g class="x2tick"><text text-anchor="middle" x="0" y="533" transform="translate(1042,0)" style="font-family: 'Open Sans', verdana, arial, sans-serif; font-size: 12px; fill: rgb(42, 63, 95); fill-opacity: 1; white-space: pre; opacity: 1;">>2</text></g></g><g class="yaxislayer-above"><g class="y2tick"><text text-anchor="end" x="651" y="4.199999999999999" transform="translate(0,472.94)" style="font-family: 'Open Sans', verdana, arial, sans-serif; font-size: 12px; fill: rgb(42, 63, 95); fill-opacity: 1; white-space: pre; opacity: 1;">1995</text></g><g class="y2tick"><text text-anchor="end" x="651" y="4.199999999999999" style="font-family: 'Open Sans', verdana, arial, sans-serif; font-size: 12px; fill: rgb(42, 63, 95); fill-opacity: 1; white-space: pre; opacity: 1;" transform="translate(0,423.57)">2000</text></g><g class="y2tick"><text text-anchor="end" x="651" y="4.199999999999999" style="font-family: 'Open Sans', verdana, arial, sans-serif; font-size: 12px; fill: rgb(42, 63, 95); fill-opacity: 1; white-space: pre; opacity: 1;" transform="translate(0,374.19)">2005</text></g><g class="y2tick"><text text-anchor="end" x="651" y="4.199999999999999" style="font-family: 'Open Sans', verdana, arial, sans-serif; font-size: 12px; fill: rgb(42, 63, 95); fill-opacity: 1; white-space: pre; opacity: 1;" transform="translate(0,324.81)">2010</text></g><g class="y2tick"><text text-anchor="end" x="651" y="4.199999999999999" style="font-family: 'Open Sans', verdana, arial, sans-serif; font-size: 12px; fill: rgb(42, 63, 95); fill-opacity: 1; white-space: pre; opacity: 1;" transform="translate(0,275.44)">2015</text></g><g class="y2tick"><text text-anchor="end" x="651" y="4.199999999999999" style="font-family: 'Open Sans', verdana, arial, sans-serif; font-size: 12px; fill: rgb(42, 63, 95); fill-opacity: 1; white-space: pre; opacity: 1;" transform="translate(0,226.06)">2020</text></g><g class="y2tick"><text text-anchor="end" x="651" y="4.199999999999999" style="font-family: 'Open Sans', verdana, arial, sans-serif; font-size: 12px; fill: rgb(42, 63, 95); fill-opacity: 1; white-space: pre; opacity: 1;" transform="translate(0,176.68)">2025</text></g><g class="y2tick"><text text-anchor="end" x="651" y="4.199999999999999" style="font-family: 'Open Sans', verdana, arial, sans-serif; font-size: 12px; fill: rgb(42, 63, 95); fill-opacity: 1; white-space: pre; opacity: 1;" transform="translate(0,127.31)">2030</text></g></g><g class="overaxes-above"/></g></g><g class="polarlayer"/><g class="smithlayer"/><g class="ternarylayer"/><g class="geolayer"/><g class="funnelarealayer"/><g class="pielayer"/><g class="iciclelayer"/><g class="treemaplayer"/><g class="sunburstlayer"/><g class="glimages"/><defs id="topdefs-bd802e"><g class="clips"/></defs><g class="layer-above"><g class="imagelayer"/><g class="shapelayer"/></g><g class="infolayer"><g class="g-gtitle"><text class="gtitle" x="60" y="50" text-anchor="start" dy="0em" style="font-family: 'Open Sans', verdana, arial, sans-serif; font-size: 17px; fill: rgb(42, 63, 95); opacity: 1; font-weight: normal; white-space: pre;">publish_year Distributions (hardcover better)</text></g><g class="g-xtitle"><text class="xtitle" x="314" y="561.8" text-anchor="middle" style="font-family: 'Open Sans', verdana, arial, sans-serif; font-size: 14px; fill: rgb(42, 63, 95); opacity: 1; font-weight: normal; white-space: pre;">Hardcover over Paperback</text></g><g class="g-x2title"><text class="x2title" x="886" y="561.8" text-anchor="middle" style="font-family: 'Open Sans', verdana, arial, sans-serif; font-size: 14px; fill: rgb(42, 63, 95); opacity: 1; font-weight: normal; white-space: pre;">Hardcover over Paperback</text></g><g class="g-ytitle"><text class="ytitle" transform="rotate(-90,26.746875000000003,310)" x="26.746875000000003" y="310" text-anchor="middle" style="font-family: 'Open Sans', verdana, arial, sans-serif; font-size: 14px; fill: rgb(42, 63, 95); opacity: 1; font-weight: normal; white-space: pre;">publish_year</text></g><g class="g-y2title"><text class="y2title" transform="rotate(-90,598.746875,310)" x="598.746875" y="310" text-anchor="middle" style="font-family: 'Open Sans', verdana, arial, sans-serif; font-size: 14px; fill: rgb(42, 63, 95); opacity: 1; font-weight: normal; white-space: pre;">publish_year</text></g><g class="annotation" data-index="0" style="opacity: 1;"><g class="annotation-text-g" transform="rotate(0,314,87)"><g class="cursor-pointer" transform="translate(273,74)"><rect class="bg" x="0.5" y="0.5" width="82" height="25" style="stroke-width: 1px; stroke: rgb(0, 0, 0); stroke-opacity: 0; fill: rgb(0, 0, 0); fill-opacity: 0;"/><text class="annotation-text" text-anchor="middle" x="41.296875" y="19" style="font-family: 'Open Sans', verdana, arial, sans-serif; font-size: 16px; fill: rgb(42, 63, 95); fill-opacity: 1; white-space: pre;">Paperback</text></g></g></g><g class="annotation" data-index="1" style="opacity: 1;"><g class="annotation-text-g" transform="rotate(0,886,87)"><g class="cursor-pointer" transform="translate(845,74)"><rect class="bg" x="0.5" y="0.5" width="81" height="25" style="stroke-width: 1px; stroke: rgb(0, 0, 0); stroke-opacity: 0; fill: rgb(0, 0, 0); fill-opacity: 0;"/><text class="annotation-text" text-anchor="middle" x="40.921875" y="19" style="font-family: 'Open Sans', verdana, arial, sans-serif; font-size: 16px; fill: rgb(42, 63, 95); fill-opacity: 1; white-space: pre;">Hardcover</text></g></g></g></g></svg>