<svg class="main-svg" xmlns="http://www.w3.org/2000/svg" xmlns:xlink="http://www.w3.org/1999/xlink" width="1200" height="600" style="" viewBox="0 0 1200 600"><rect x="0" y="0" width="1200" height="600" style="fill: rgb(255, 255, 255); fill-opacity: 1;"/><defs id="defs-5334b7"><g class="clips"><clipPath id="clip5334b7xyplot" class="plotclip"><rect width="468" height="420"/></clipPath><clipPath id="clip5334b7x2y2plot" class="plotclip"><rect width="467.99999999999994" height="420"/></clipPath><clipPath class="axesclip" id="clip5334b7x"><rect x="80" y="0" width="468" height="600"/></clipPath><clipPath class="axesclip" id="clip5334b7y"><rect x="0" y="100" width="1200" height="420"/></clipPath><clipPath class="axesclip" id="clip5334b7xy"><rect x="80" y="100" width="468" height="420"/></clipPath><clipPath class="axesclip" id="clip5334b7y2"><rect x="0" y="100" width="1200" height="420"/></clipPath><clipPath class="axesclip" id="clip5334b7xy2"><rect x="80" y="100" width="468" height="420"/></clipPath><clipPath class="axesclip" id="clip5334b7x2"><rect x="652" y="0" width="467.99999999999994" height="600"/></clipPath><clipPath class="axesclip" id="clip5334b7x2y"><rect x="652" y="100" width="467.99999999999994" height="420"/></clipPath><clipPath class="axesclip" id="clip5334b7x2y2"><rect x="652" y="100" width="467.99999999999994" height="420"/></clipPath></g><g class="gradients"/><g class="patterns"/></defs><g class="bglayer"><rect class="bg" x="80" y="100" width="468" height="420" style="fill: rgb(229, 236, 246); fill-opacity: 1; stroke-width: 0;"/><rect class="bg" x="652" y="100" width="467.99999999999994" height="420" style="fill: rgb(229, 236, 246); fill-opacity: 1; stroke-width: 0;"/></g><g class="layer-below"><g class="imagelayer"/><g class="shapelayer"/></g><g class="cartesianlayer"><g class="subplot xy"><g class="layer-subplot"><g class="shapelayer"/><g class="imagelayer"/></g><g class="minor-gridlayer"><g class="x"/><g class="y"/></g><g class="gridlayer"><g class="x"/><g class="y"><path class="ygrid crisp" transform="translate(0,517.86)" d="M80,0h468" style="stroke: rgb(255, 255, 255); stroke-opacity: 1; stroke-width: 1px;"/><path class="ygrid crisp" transform="translate(0,410.91)" d="M80,0h468" style="stroke: rgb(255, 255, 255); stroke-opacity: 1; stroke-width: 1px;"/><path class="ygrid crisp" transform="translate(0,357.44)" d="M80,0h468" style="stroke: rgb(255, 255, 255); stroke-opacity: 1; stroke-width: 1px;"/><path class="ygrid crisp" transform="translate(0,303.96000000000004)" d="M80,0h468" style="stroke: rgb(255, 255, 255); stroke-opacity: 1; stroke-width: 1px;"/><path class="ygrid crisp" transform="translate(0,250.49)" d="M80,0h468" style="stroke: rgb(255, 255, 255); stroke-opacity: 1; stroke-width: 1px;"/><path class="ygrid crisp" transform="translate(0,197.01)" d="M80,0h468" style="stroke: rgb(255, 255, 255); stroke-opacity: 1; stroke-width: 1px;"/><path class="ygrid crisp" transform="translate(0,143.54)" d="M80,0h468" style="stroke: rgb(255, 255, 255); stroke-opacity: 1; stroke-width: 1px;"/></g></g><g class="zerolinelayer"><path class="yzl zl crisp" transform="translate(0,464.38)" d="M80,0h468" style="stroke: rgb(255, 255, 255); stroke-opacity: 1; stroke-width: 2px;"/></g><path class="xlines-below"/><path class="ylines-below"/><g class="overlines-below"/><g class="xaxislayer-below"/><g class="yaxislayer-below"/><g class="overaxes-below"/><g class="plot" transform="translate(80,100)" clip-path="url(#clip5334b7xyplot)"><g class="violinlayer mlayer"><g class="trace violins" style="opacity: 1;"><path class="violin" d="M78.02,343.23Q78.03,340.41 78.04,339C78.05,337.59 78.07,336.19 78.08,334.78C78.1,333.37 78.11,331.96 78.13,330.55C78.15,329.14 78.18,327.74 78.21,326.33C78.24,324.92 78.26,323.51 78.3,322.1C78.34,320.69 78.38,319.29 78.43,317.88C78.48,316.47 78.53,315.06 78.59,313.65C78.65,312.24 78.71,310.84 78.79,309.43C78.87,308.02 78.96,306.61 79.06,305.2C79.16,303.79 79.27,302.39 79.4,300.98C79.53,299.57 79.67,298.16 79.82,296.75C79.97,295.34 80.13,293.94 80.3,292.53C80.47,291.12 80.66,289.71 80.86,288.3C81.06,286.89 81.26,285.49 81.48,284.08C81.7,282.67 81.93,281.26 82.17,279.85C82.41,278.44 82.66,277.04 82.91,275.63C83.16,274.22 83.43,272.81 83.69,271.4C83.95,269.99 84.21,268.59 84.47,267.18C84.73,265.77 84.98,264.36 85.23,262.95C85.47,261.54 85.71,260.14 85.94,258.73C86.17,257.32 86.39,255.91 86.63,254.5C86.87,253.09 87.11,251.69 87.38,250.28C87.66,248.87 87.94,247.45 88.28,246.05C88.62,244.64 89,243.23 89.42,241.83C89.85,240.41 90.32,239 90.83,237.6C91.34,236.19 91.92,234.78 92.49,233.38C93.07,231.97 93.69,230.56 94.29,229.15C94.89,227.74 95.52,226.34 96.1,224.93C96.68,223.52 97.25,222.11 97.78,220.7C98.31,219.3 98.81,217.89 99.28,216.48C99.75,215.08 100.18,213.66 100.59,212.25C101,210.85 101.39,209.44 101.76,208.03C102.13,206.62 102.48,205.21 102.8,203.8C103.12,202.4 103.43,200.99 103.69,199.58C103.95,198.17 104.19,196.76 104.36,195.35C104.53,193.95 104.64,192.54 104.69,191.13C104.74,189.72 104.71,188.31 104.64,186.9C104.57,185.49 104.41,184.09 104.25,182.68C104.09,181.27 103.86,179.86 103.66,178.45C103.47,177.04 103.24,175.64 103.08,174.23C102.92,172.82 102.78,171.41 102.69,170C102.6,168.59 102.58,167.19 102.56,165.78C102.54,164.37 102.6,162.96 102.6,161.55C102.6,160.14 102.64,158.74 102.56,157.33C102.48,155.92 102.38,154.5 102.14,153.1C101.9,151.68 101.56,150.27 101.13,148.88C100.69,147.46 100.1,146.05 99.49,144.65C98.87,143.23 98.13,141.83 97.41,140.43C96.69,139.02 95.9,137.61 95.17,136.2C94.44,134.8 93.71,133.4 93.04,131.98C92.38,130.58 91.75,129.17 91.19,127.75C90.64,126.35 90.14,124.95 89.7,123.53C89.26,122.13 88.88,120.71 88.54,119.3C88.2,117.9 87.92,116.49 87.66,115.08C87.4,113.67 87.19,112.26 87,110.85C86.81,109.44 86.66,108.04 86.52,106.63C86.39,105.22 86.28,103.81 86.19,102.4C86.1,100.99 86.03,99.59 85.96,98.18C85.88,96.77 85.82,95.36 85.74,93.95C85.66,92.54 85.58,91.14 85.48,89.73C85.38,88.32 85.26,86.91 85.13,85.5C85,84.09 84.86,82.69 84.71,81.28C84.56,79.87 84.39,78.46 84.23,77.05C84.07,75.64 83.9,74.24 83.73,72.83C83.56,71.42 83.39,70.01 83.21,68.6C83.03,67.19 82.85,65.79 82.66,64.38C82.47,62.97 82.27,61.56 82.06,60.15C81.85,58.74 81.63,57.34 81.41,55.93C81.19,54.52 80.96,53.11 80.73,51.7C80.51,50.29 80.27,48.89 80.06,47.48C79.85,46.07 79.64,44.66 79.46,43.25C79.28,41.84 79.11,40.44 78.96,39.03C78.81,37.62 78.69,36.21 78.58,34.8C78.48,33.39 78.4,31.99 78.33,30.58C78.26,29.17 78.21,27.76 78.17,26.35Q78.13,24.94 78.08,22.13L77.92,22.13Q77.87,24.94 77.83,26.35C77.79,27.76 77.74,29.17 77.67,30.58C77.6,31.99 77.52,33.39 77.42,34.8C77.31,36.21 77.19,37.62 77.04,39.03C76.89,40.44 76.72,41.84 76.54,43.25C76.36,44.66 76.15,46.07 75.94,47.48C75.73,48.89 75.49,50.29 75.27,51.7C75.04,53.11 74.81,54.52 74.59,55.93C74.37,57.34 74.15,58.74 73.94,60.15C73.73,61.56 73.53,62.97 73.34,64.38C73.15,65.79 72.97,67.19 72.79,68.6C72.61,70.01 72.44,71.42 72.27,72.83C72.1,74.24 71.93,75.64 71.77,77.05C71.61,78.46 71.44,79.87 71.29,81.28C71.14,82.69 71,84.09 70.87,85.5C70.74,86.91 70.62,88.32 70.52,89.73C70.42,91.14 70.34,92.54 70.26,93.95C70.18,95.36 70.12,96.77 70.04,98.18C69.97,99.59 69.9,100.99 69.81,102.4C69.72,103.81 69.61,105.22 69.48,106.63C69.34,108.04 69.19,109.44 69,110.85C68.81,112.26 68.6,113.67 68.34,115.08C68.08,116.49 67.8,117.9 67.46,119.3C67.12,120.71 66.74,122.13 66.3,123.53C65.86,124.95 65.36,126.35 64.81,127.75C64.25,129.17 63.62,130.58 62.96,131.98C62.29,133.4 61.56,134.8 60.83,136.2C60.1,137.61 59.31,139.02 58.59,140.43C57.87,141.83 57.13,143.23 56.51,144.65C55.9,146.05 55.31,147.46 54.87,148.88C54.44,150.27 54.1,151.68 53.86,153.1C53.62,154.5 53.52,155.92 53.44,157.33C53.36,158.74 53.4,160.14 53.4,161.55C53.4,162.96 53.46,164.37 53.44,165.78C53.42,167.19 53.4,168.59 53.31,170C53.22,171.41 53.08,172.82 52.92,174.23C52.76,175.64 52.53,177.04 52.34,178.45C52.14,179.86 51.91,181.27 51.75,182.68C51.59,184.09 51.43,185.49 51.36,186.9C51.29,188.31 51.26,189.72 51.31,191.13C51.36,192.54 51.47,193.95 51.64,195.35C51.81,196.76 52.05,198.17 52.31,199.58C52.57,200.99 52.88,202.4 53.2,203.8C53.52,205.21 53.87,206.62 54.24,208.03C54.61,209.44 55,210.85 55.41,212.25C55.82,213.66 56.25,215.08 56.72,216.48C57.19,217.89 57.69,219.3 58.22,220.7C58.75,222.11 59.32,223.52 59.9,224.93C60.48,226.34 61.11,227.74 61.71,229.15C62.31,230.56 62.93,231.97 63.51,233.38C64.08,234.78 64.66,236.19 65.17,237.6C65.68,239 66.15,240.41 66.58,241.83C67,243.23 67.38,244.64 67.72,246.05C68.06,247.45 68.34,248.87 68.62,250.28C68.89,251.69 69.13,253.09 69.37,254.5C69.61,255.91 69.83,257.32 70.06,258.73C70.29,260.14 70.53,261.54 70.77,262.95C71.02,264.36 71.27,265.77 71.53,267.18C71.79,268.59 72.05,269.99 72.31,271.4C72.57,272.81 72.84,274.22 73.09,275.63C73.34,277.04 73.59,278.44 73.83,279.85C74.07,281.26 74.3,282.67 74.52,284.08C74.74,285.49 74.94,286.89 75.14,288.3C75.34,289.71 75.53,291.12 75.7,292.53C75.87,293.94 76.03,295.34 76.18,296.75C76.33,298.16 76.47,299.57 76.6,300.98C76.73,302.39 76.84,303.79 76.94,305.2C77.04,306.61 77.13,308.02 77.21,309.43C77.29,310.84 77.35,312.24 77.41,313.65C77.47,315.06 77.52,316.47 77.57,317.88C77.62,319.29 77.66,320.69 77.7,322.1C77.74,323.51 77.76,324.92 77.79,326.33C77.82,327.74 77.85,329.14 77.87,330.55C77.89,331.96 77.9,333.37 77.92,334.78C77.93,336.19 77.95,337.59 77.96,339Q77.97,340.41 77.98,343.23Z" style="vector-effect: non-scaling-stroke; stroke-width: 2px; stroke: rgb(99, 110, 250); stroke-opacity: 1; fill: rgb(99, 110, 250); fill-opacity: 0.5;"/><path class="violin" d="M234.12,353.98Q234.19,350.28 234.26,348.43C234.33,346.58 234.42,344.73 234.55,342.88C234.68,341.03 234.84,339.18 235.06,337.33C235.28,335.48 235.54,333.62 235.88,331.78C236.22,329.92 236.63,328.07 237.11,326.23C237.6,324.37 238.17,322.52 238.8,320.68C239.44,318.82 240.17,316.97 240.93,315.13C241.7,313.27 242.55,311.42 243.41,309.58C244.27,307.73 245.2,305.89 246.1,304.04C247,302.19 247.94,300.34 248.83,298.49C249.71,296.64 250.59,294.8 251.42,292.94C252.24,291.1 253.04,289.25 253.77,287.39C254.5,285.55 255.18,283.7 255.8,281.84C256.41,280 256.98,278.15 257.46,276.29C257.94,274.45 258.36,272.6 258.7,270.74C259.03,268.9 259.28,267.04 259.47,265.19C259.65,263.34 259.76,261.49 259.81,259.64C259.86,257.79 259.82,255.94 259.76,254.09C259.7,252.24 259.58,250.39 259.44,248.54C259.3,246.69 259.11,244.84 258.91,242.99C258.7,241.14 258.47,239.29 258.21,237.44C257.95,235.59 257.67,233.74 257.36,231.89C257.05,230.04 256.7,228.19 256.34,226.34C255.98,224.49 255.59,222.64 255.2,220.79C254.81,218.94 254.39,217.09 253.99,215.24C253.59,213.39 253.18,211.54 252.78,209.69C252.38,207.84 251.99,205.99 251.6,204.14C251.22,202.29 250.84,200.44 250.47,198.59C250.1,196.74 249.73,194.89 249.37,193.04C249.01,191.19 248.66,189.34 248.32,187.49C247.98,185.64 247.65,183.79 247.33,181.94C247.01,180.09 246.7,178.24 246.41,176.39C246.12,174.54 245.84,172.69 245.58,170.84C245.32,168.99 245.08,167.14 244.84,165.29C244.6,163.44 244.38,161.59 244.16,159.74C243.94,157.89 243.73,156.04 243.51,154.19C243.29,152.34 243.07,150.49 242.84,148.64C242.61,146.79 242.38,144.94 242.14,143.09C241.9,141.24 241.64,139.39 241.39,137.54C241.13,135.69 240.87,133.84 240.61,131.99C240.35,130.14 240.08,128.29 239.82,126.44C239.56,124.59 239.29,122.74 239.04,120.89C238.79,119.04 238.54,117.2 238.31,115.35C238.07,113.5 237.84,111.65 237.63,109.8C237.42,107.95 237.22,106.1 237.03,104.25C236.84,102.4 236.67,100.55 236.51,98.7C236.35,96.85 236.22,95 236.09,93.15C235.96,91.3 235.85,89.45 235.75,87.6C235.65,85.75 235.57,83.9 235.49,82.05C235.41,80.2 235.35,78.35 235.29,76.5C235.23,74.65 235.19,72.8 235.14,70.95C235.09,69.1 235.05,67.25 235,65.4C234.96,63.55 234.92,61.7 234.87,59.85C234.82,58 234.77,56.15 234.72,54.3C234.67,52.45 234.61,50.6 234.56,48.75C234.51,46.9 234.46,45.05 234.41,43.2C234.36,41.35 234.31,39.5 234.27,37.65C234.23,35.8 234.2,33.95 234.17,32.1C234.14,30.25 234.11,28.4 234.09,26.55Q234.07,24.7 234.05,21L233.95,21Q233.93,24.7 233.91,26.55C233.89,28.4 233.86,30.25 233.83,32.1C233.8,33.95 233.77,35.8 233.73,37.65C233.69,39.5 233.64,41.35 233.59,43.2C233.54,45.05 233.49,46.9 233.44,48.75C233.39,50.6 233.33,52.45 233.28,54.3C233.23,56.15 233.18,58 233.13,59.85C233.08,61.7 233.04,63.55 233,65.4C232.95,67.25 232.91,69.1 232.86,70.95C232.81,72.8 232.77,74.65 232.71,76.5C232.65,78.35 232.59,80.2 232.51,82.05C232.43,83.9 232.35,85.75 232.25,87.6C232.15,89.45 232.04,91.3 231.91,93.15C231.78,95 231.65,96.85 231.49,98.7C231.33,100.55 231.16,102.4 230.97,104.25C230.78,106.1 230.58,107.95 230.37,109.8C230.16,111.65 229.93,113.5 229.69,115.35C229.46,117.2 229.21,119.04 228.96,120.89C228.71,122.74 228.44,124.59 228.18,126.44C227.92,128.29 227.65,130.14 227.39,131.99C227.13,133.84 226.87,135.69 226.61,137.54C226.36,139.39 226.1,141.24 225.86,143.09C225.62,144.94 225.39,146.79 225.16,148.64C224.93,150.49 224.71,152.34 224.49,154.19C224.27,156.04 224.06,157.89 223.84,159.74C223.62,161.59 223.4,163.44 223.16,165.29C222.92,167.14 222.68,168.99 222.42,170.84C222.16,172.69 221.88,174.54 221.59,176.39C221.3,178.24 220.99,180.09 220.67,181.94C220.35,183.79 220.02,185.64 219.68,187.49C219.34,189.34 218.99,191.19 218.63,193.04C218.27,194.89 217.9,196.74 217.53,198.59C217.16,200.44 216.78,202.29 216.4,204.14C216.01,205.99 215.62,207.84 215.22,209.69C214.82,211.54 214.41,213.39 214.01,215.24C213.61,217.09 213.19,218.94 212.8,220.79C212.41,222.64 212.02,224.49 211.66,226.34C211.3,228.19 210.95,230.04 210.64,231.89C210.33,233.74 210.05,235.59 209.79,237.44C209.53,239.29 209.3,241.14 209.09,242.99C208.89,244.84 208.7,246.69 208.56,248.54C208.42,250.39 208.3,252.24 208.24,254.09C208.18,255.94 208.14,257.79 208.19,259.64C208.24,261.49 208.35,263.34 208.53,265.19C208.72,267.04 208.97,268.9 209.3,270.74C209.64,272.6 210.06,274.45 210.54,276.29C211.02,278.15 211.59,280 212.2,281.84C212.82,283.7 213.5,285.55 214.23,287.39C214.96,289.25 215.76,291.1 216.58,292.94C217.41,294.8 218.29,296.64 219.17,298.49C220.06,300.34 221,302.19 221.9,304.04C222.8,305.89 223.73,307.73 224.59,309.58C225.45,311.42 226.3,313.27 227.07,315.13C227.83,316.97 228.56,318.82 229.2,320.68C229.83,322.52 230.4,324.37 230.89,326.23C231.37,328.07 231.78,329.92 232.12,331.78C232.46,333.62 232.72,335.48 232.94,337.33C233.16,339.18 233.32,341.03 233.45,342.88C233.58,344.73 233.67,346.58 233.74,348.43Q233.81,350.28 233.88,353.98Z" style="vector-effect: non-scaling-stroke; stroke-width: 2px; stroke: rgb(99, 110, 250); stroke-opacity: 1; fill: rgb(99, 110, 250); fill-opacity: 0.5;"/><path class="violin" d="M390.32,399Q390.5,395.15 390.66,393.23C390.82,391.3 391,389.38 391.26,387.46C391.52,385.53 391.83,383.61 392.22,381.69C392.61,379.76 393.08,377.83 393.62,375.91C394.17,373.98 394.8,372.05 395.5,370.14C396.21,368.2 397.01,366.28 397.84,364.37C398.68,362.44 399.6,360.51 400.54,358.6C401.49,356.67 402.49,354.75 403.5,352.83C404.51,350.9 405.55,348.98 406.6,347.06C407.66,345.13 408.73,343.21 409.83,341.29C410.93,339.36 412.05,337.43 413.21,335.51C414.38,333.58 415.59,331.66 416.8,329.74C418.02,327.81 419.29,325.9 420.5,323.97C421.7,322.05 422.97,320.15 424.03,318.2C425.06,316.3 426.11,314.39 426.81,312.43C427.49,310.54 428.05,308.6 428.22,306.66C428.38,304.75 428.24,302.78 427.82,300.89C427.38,298.93 426.53,296.99 425.59,295.11C424.61,293.14 423.29,291.24 422,289.34C420.68,287.39 419.17,285.49 417.76,283.57C416.35,281.65 414.88,279.74 413.55,277.8C412.24,275.9 410.97,273.98 409.83,272.03C408.71,270.13 407.69,268.2 406.76,266.26C405.85,264.36 405.05,262.43 404.32,260.49C403.6,258.58 402.98,256.65 402.42,254.71C401.86,252.8 401.39,250.87 400.96,248.94C400.53,247.02 400.16,245.1 399.82,243.17C399.48,241.25 399.2,239.33 398.92,237.4C398.65,235.48 398.4,233.55 398.17,231.63C397.94,229.71 397.72,227.79 397.53,225.86C397.34,223.94 397.17,222.01 397.01,220.08C396.85,218.16 396.72,216.23 396.59,214.31C396.46,212.39 396.36,210.46 396.25,208.54C396.14,206.62 396.03,204.69 395.91,202.77C395.79,200.85 395.66,198.92 395.51,197C395.36,195.08 395.19,193.15 395.01,191.23C394.83,189.31 394.61,187.38 394.41,185.46C394.2,183.53 393.99,181.61 393.78,179.68C393.58,177.76 393.37,175.83 393.18,173.91C392.99,171.99 392.81,170.06 392.64,168.14C392.47,166.22 392.31,164.29 392.15,162.37C391.99,160.45 391.84,158.52 391.69,156.6C391.54,154.68 391.4,152.75 391.27,150.83C391.14,148.91 391.01,146.98 390.9,145.06C390.78,143.13 390.67,141.21 390.58,139.28C390.49,137.36 390.41,135.43 390.34,133.51Q390.27,131.59 390.18,127.74L389.82,127.74Q389.73,131.59 389.66,133.51C389.59,135.43 389.51,137.36 389.42,139.28C389.33,141.21 389.22,143.13 389.1,145.06C388.99,146.98 388.86,148.91 388.73,150.83C388.6,152.75 388.46,154.68 388.31,156.6C388.16,158.52 388.01,160.45 387.85,162.37C387.69,164.29 387.53,166.22 387.36,168.14C387.19,170.06 387.01,171.99 386.82,173.91C386.63,175.83 386.42,177.76 386.22,179.68C386.01,181.61 385.8,183.53 385.59,185.46C385.39,187.38 385.17,189.31 384.99,191.23C384.81,193.15 384.64,195.08 384.49,197C384.34,198.92 384.21,200.85 384.09,202.77C383.97,204.69 383.86,206.62 383.75,208.54C383.64,210.46 383.54,212.39 383.41,214.31C383.28,216.23 383.15,218.16 382.99,220.08C382.83,222.01 382.66,223.94 382.47,225.86C382.28,227.79 382.06,229.71 381.83,231.63C381.6,233.55 381.35,235.48 381.08,237.4C380.8,239.33 380.52,241.25 380.18,243.17C379.84,245.1 379.47,247.02 379.04,248.94C378.61,250.87 378.14,252.8 377.58,254.71C377.02,256.65 376.4,258.58 375.68,260.49C374.95,262.43 374.15,264.36 373.24,266.26C372.31,268.2 371.29,270.13 370.17,272.03C369.03,273.98 367.76,275.9 366.45,277.8C365.12,279.74 363.65,281.65 362.24,283.57C360.83,285.49 359.32,287.39 358,289.34C356.71,291.24 355.39,293.14 354.41,295.11C353.47,296.99 352.62,298.93 352.18,300.89C351.76,302.78 351.62,304.75 351.78,306.66C351.95,308.6 352.51,310.54 353.19,312.43C353.89,314.39 354.94,316.3 355.97,318.2C357.03,320.15 358.3,322.05 359.5,323.97C360.71,325.9 361.98,327.81 363.2,329.74C364.41,331.66 365.62,333.58 366.79,335.51C367.95,337.43 369.07,339.36 370.17,341.29C371.27,343.21 372.34,345.13 373.4,347.06C374.45,348.98 375.49,350.9 376.5,352.83C377.51,354.75 378.51,356.67 379.46,358.6C380.4,360.51 381.32,362.44 382.16,364.37C382.99,366.28 383.79,368.2 384.5,370.14C385.2,372.05 385.83,373.98 386.38,375.91C386.92,377.83 387.39,379.76 387.78,381.69C388.17,383.61 388.48,385.53 388.74,387.46C389,389.38 389.18,391.3 389.34,393.23Q389.5,395.15 389.68,399Z" style="vector-effect: non-scaling-stroke; stroke-width: 2px; stroke: rgb(99, 110, 250); stroke-opacity: 1; fill: rgb(99, 110, 250); fill-opacity: 0.5;"/><path class="box" d="M68.45,181.18H87.56M68.45,212.65H87.56V149.58H68.45ZM78,212.65V300.32M78,149.58V56.48" style="vector-effect: non-scaling-stroke; stroke-width: 2px; stroke: rgb(99, 110, 250); stroke-opacity: 1; fill: rgb(99, 110, 250); fill-opacity: 0.5;"/><path class="box" d="M224.45,236.15H243.56M224.45,268.24H243.56V193.37H224.45ZM234,268.24V320.64M234,193.37V89.21" style="vector-effect: non-scaling-stroke; stroke-width: 2px; stroke: rgb(99, 110, 250); stroke-opacity: 1; fill: rgb(99, 110, 250); fill-opacity: 0.5;"/><path class="box" d="M380.45,300.86H399.55M380.45,321.28H399.55V271.12H380.45ZM390,321.28V364.28M390,271.12V197.01" style="vector-effect: non-scaling-stroke; stroke-width: 2px; stroke: rgb(99, 110, 250); stroke-opacity: 1; fill: rgb(99, 110, 250); fill-opacity: 0.5;"/><path class="mean" d="M68.45,176.83H87.56" style="fill: none; vector-effect: non-scaling-stroke; stroke-width: 2px; stroke-dasharray: 4px, 2px; stroke: rgb(99, 110, 250); stroke-opacity: 1;"/><path class="mean" d="M224.45,227.58H243.56" style="fill: none; vector-effect: non-scaling-stroke; stroke-width: 2px; stroke-dasharray: 4px, 2px; stroke: rgb(99, 110, 250); stroke-opacity: 1;"/><path class="mean" d="M380.45,292.46H399.55" style="fill: none; vector-effect: non-scaling-stroke; stroke-width: 2px; stroke-dasharray: 4px, 2px; stroke: rgb(99, 110, 250); stroke-opacity: 1;"/></g></g></g><g class="overplot"/><path class="xlines-above crisp" d="M0,0" style="fill: none;"/><path class="ylines-above crisp" d="M0,0" style="fill: none;"/><g class="overlines-above"/><g class="xaxislayer-above"><g class="xtick"><text text-anchor="middle" x="0" y="533" transform="translate(158,0)" style="font-family: 'Open Sans', verdana, arial, sans-serif; font-size: 12px; fill: rgb(42, 63, 95); fill-opacity: 1; white-space: pre; opacity: 1;">&#60;=1</text></g><g class="xtick"><text text-anchor="middle" x="0" y="533" transform="translate(314,0)" style="font-family: 'Open Sans', verdana, arial, sans-serif; font-size: 12px; fill: rgb(42, 63, 95); fill-opacity: 1; white-space: pre; opacity: 1;">(1, 2]</text></g><g class="xtick"><text text-anchor="middle" x="0" y="533" transform="translate(470,0)" style="font-family: 'Open Sans', verdana, arial, sans-serif; font-size: 12px; fill: rgb(42, 63, 95); fill-opacity: 1; white-space: pre; opacity: 1;">>2</text></g></g><g class="yaxislayer-above"><g class="ytick"><text text-anchor="end" x="79" y="4.199999999999999" transform="translate(0,517.86)" style="font-family: 'Open Sans', verdana, arial, sans-serif; font-size: 12px; fill: rgb(42, 63, 95); fill-opacity: 1; white-space: pre; opacity: 1;">−5</text></g><g class="ytick"><text text-anchor="end" x="79" y="4.199999999999999" style="font-family: 'Open Sans', verdana, arial, sans-serif; font-size: 12px; fill: rgb(42, 63, 95); fill-opacity: 1; white-space: pre; opacity: 1;" transform="translate(0,464.38)">0</text></g><g class="ytick"><text text-anchor="end" x="79" y="4.199999999999999" style="font-family: 'Open Sans', verdana, arial, sans-serif; font-size: 12px; fill: rgb(42, 63, 95); fill-opacity: 1; white-space: pre; opacity: 1;" transform="translate(0,410.91)">5</text></g><g class="ytick"><text text-anchor="end" x="79" y="4.199999999999999" style="font-family: 'Open Sans', verdana, arial, sans-serif; font-size: 12px; fill: rgb(42, 63, 95); fill-opacity: 1; white-space: pre; opacity: 1;" transform="translate(0,357.44)">10</text></g><g class="ytick"><text text-anchor="end" x="79" y="4.199999999999999" style="font-family: 'Open Sans', verdana, arial, sans-serif; font-size: 12px; fill: rgb(42, 63, 95); fill-opacity: 1; white-space: pre; opacity: 1;" transform="translate(0,303.96000000000004)">15</text></g><g class="ytick"><text text-anchor="end" x="79" y="4.199999999999999" style="font-family: 'Open Sans', verdana, arial, sans-serif; font-size: 12px; fill: rgb(42, 63, 95); fill-opacity: 1; white-space: pre; opacity: 1;" transform="translate(0,250.49)">20</text></g><g class="ytick"><text text-anchor="end" x="79" y="4.199999999999999" style="font-family: 'Open Sans', verdana, arial, sans-serif; font-size: 12px; fill: rgb(42, 63, 95); fill-opacity: 1; white-space: pre; opacity: 1;" transform="translate(0,197.01)">25</text></g><g class="ytick"><text text-anchor="end" x="79" y="4.199999999999999" style="font-family: 'Open Sans', verdana, arial, sans-serif; font-size: 12px; fill: rgb(42, 63, 95); fill-opacity: 1; white-space: pre; opacity: 1;" transform="translate(0,143.54)">30</text></g></g><g class="overaxes-above"/></g><g class="subplot x2y2"><g class="layer-subplot"><g class="shapelayer"/><g class="imagelayer"/></g><g class="minor-gridlayer"><g class="x2"/><g class="y2"/></g><g class="gridlayer"><g class="x2"/><g class="y2"><path class="y2grid crisp" transform="translate(0,517.86)" d="M652,0h467.99999999999994" style="stroke: rgb(255, 255, 255); stroke-opacity: 1; stroke-width: 1px;"/><path class="y2grid crisp" transform="translate(0,410.91)" d="M652,0h467.99999999999994" style="stroke: rgb(255, 255, 255); stroke-opacity: 1; stroke-width: 1px;"/><path class="y2grid crisp" transform="translate(0,357.44)" d="M652,0h467.99999999999994" style="stroke: rgb(255, 255, 255); stroke-opacity: 1; stroke-width: 1px;"/><path class="y2grid crisp" transform="translate(0,303.96000000000004)" d="M652,0h467.99999999999994" style="stroke: rgb(255, 255, 255); stroke-opacity: 1; stroke-width: 1px;"/><path class="y2grid crisp" transform="translate(0,250.49)" d="M652,0h467.99999999999994" style="stroke: rgb(255, 255, 255); stroke-opacity: 1; stroke-width: 1px;"/><path class="y2grid crisp" transform="translate(0,197.01)" d="M652,0h467.99999999999994" style="stroke: rgb(255, 255, 255); stroke-opacity: 1; stroke-width: 1px;"/><path class="y2grid crisp" transform="translate(0,143.54)" d="M652,0h467.99999999999994" style="stroke: rgb(255, 255, 255); stroke-opacity: 1; stroke-width: 1px;"/></g></g><g class="zerolinelayer"><path class="y2zl zl crisp" transform="translate(0,464.38)" d="M652,0h467.99999999999994" style="stroke: rgb(255, 255, 255); stroke-opacity: 1; stroke-width: 2px;"/></g><path class="xlines-below"/><path class="ylines-below"/><g class="overlines-below"/><g class="xaxislayer-below"/><g class="yaxislayer-below"/><g class="overaxes-below"/><g class="plot" transform="translate(652,100)" clip-path="url(#clip5334b7x2y2plot)"><g class="violinlayer mlayer"><g class="trace violins" style="opacity: 1;"><path class="violin" d="M78.03,373.77Q78.05,371.26 78.06,370C78.07,368.75 78.09,367.49 78.11,366.24C78.13,364.98 78.15,363.73 78.18,362.47C78.21,361.22 78.24,359.96 78.28,358.71C78.32,357.46 78.36,356.2 78.4,354.95C78.44,353.69 78.48,352.44 78.53,351.18C78.57,349.93 78.62,348.67 78.67,347.42C78.72,346.17 78.78,344.91 78.84,343.66C78.9,342.4 78.97,341.15 79.05,339.89C79.13,338.64 79.22,337.38 79.33,336.13C79.44,334.88 79.56,333.62 79.71,332.37C79.86,331.11 80.04,329.85 80.24,328.6C80.44,327.34 80.66,326.09 80.92,324.84C81.18,323.58 81.47,322.33 81.79,321.08C82.11,319.82 82.47,318.56 82.86,317.31C83.25,316.05 83.67,314.8 84.13,313.55C84.59,312.29 85.09,311.04 85.61,309.79C86.14,308.53 86.71,307.27 87.29,306.02C87.88,304.76 88.5,303.51 89.13,302.26C89.77,301 90.43,299.75 91.1,298.5C91.77,297.24 92.46,295.99 93.15,294.73C93.83,293.48 94.53,292.22 95.21,290.97C95.89,289.72 96.58,288.47 97.24,287.21C97.9,285.96 98.55,284.7 99.19,283.44C99.83,282.19 100.46,280.93 101.09,279.68C101.72,278.43 102.33,277.18 102.95,275.92C103.56,274.67 104.18,273.41 104.78,272.15C105.38,270.9 105.99,269.65 106.57,268.39C107.15,267.14 107.71,265.89 108.25,264.63C108.78,263.38 109.3,262.12 109.78,260.86C110.26,259.61 110.71,258.36 111.12,257.1C111.52,255.85 111.91,254.6 112.22,253.34C112.53,252.09 112.81,250.83 113,249.57C113.18,248.32 113.31,247.06 113.33,245.81C113.35,244.55 113.27,243.29 113.11,242.04C112.95,240.78 112.67,239.53 112.36,238.28C112.05,237.02 111.63,235.77 111.24,234.52C110.85,233.26 110.39,232.01 110.03,230.75C109.67,229.5 109.31,228.25 109.06,226.99C108.82,225.74 108.63,224.49 108.56,223.23C108.49,221.98 108.52,220.71 108.63,219.46C108.74,218.2 108.96,216.95 109.21,215.7C109.46,214.44 109.81,213.19 110.11,211.94C110.42,210.68 110.78,209.43 111.04,208.17C111.3,206.92 111.56,205.67 111.67,204.41C111.78,203.16 111.83,201.9 111.71,200.65C111.59,199.39 111.34,198.12 110.96,196.88C110.57,195.61 110.02,194.35 109.4,193.12C108.76,191.84 107.96,190.6 107.15,189.36C106.32,188.09 105.37,186.84 104.45,185.59C103.52,184.33 102.53,183.09 101.58,181.83C100.64,180.58 99.67,179.33 98.77,178.07C97.88,176.82 97.02,175.57 96.21,174.3C95.42,173.06 94.67,171.81 93.98,170.54C93.3,169.3 92.69,168.04 92.11,166.78C91.54,165.53 91.04,164.27 90.55,163.01C90.07,161.76 89.63,160.51 89.2,159.25C88.77,158 88.38,156.75 87.98,155.49C87.59,154.24 87.21,152.98 86.83,151.72C86.45,150.47 86.08,149.21 85.71,147.96C85.34,146.71 84.98,145.46 84.63,144.2C84.28,142.95 83.95,141.69 83.62,140.43C83.29,139.18 82.97,137.93 82.66,136.67C82.35,135.42 82.05,134.16 81.76,132.9C81.47,131.65 81.18,130.39 80.91,129.14C80.64,127.89 80.37,126.64 80.13,125.38C79.89,124.13 79.66,122.87 79.46,121.61C79.26,120.36 79.07,119.1 78.92,117.85C78.77,116.6 78.65,115.35 78.54,114.09C78.44,112.84 78.36,111.58 78.29,110.32Q78.22,109.07 78.14,106.56L77.86,106.56Q77.78,109.07 77.71,110.32C77.64,111.58 77.56,112.84 77.46,114.09C77.35,115.35 77.23,116.6 77.08,117.85C76.93,119.1 76.74,120.36 76.54,121.61C76.34,122.87 76.11,124.13 75.87,125.38C75.63,126.64 75.36,127.89 75.09,129.14C74.82,130.39 74.53,131.65 74.24,132.9C73.95,134.16 73.65,135.42 73.34,136.67C73.03,137.93 72.71,139.18 72.38,140.43C72.05,141.69 71.72,142.95 71.37,144.2C71.02,145.46 70.66,146.71 70.29,147.96C69.92,149.21 69.55,150.47 69.17,151.72C68.79,152.98 68.41,154.24 68.02,155.49C67.62,156.75 67.23,158 66.8,159.25C66.37,160.51 65.93,161.76 65.45,163.01C64.96,164.27 64.46,165.53 63.89,166.78C63.31,168.04 62.7,169.3 62.02,170.54C61.33,171.81 60.58,173.06 59.79,174.3C58.98,175.57 58.12,176.82 57.23,178.07C56.33,179.33 55.36,180.58 54.42,181.83C53.47,183.09 52.48,184.33 51.55,185.59C50.63,186.84 49.68,188.09 48.85,189.36C48.04,190.6 47.24,191.84 46.6,193.12C45.98,194.35 45.43,195.61 45.04,196.88C44.66,198.12 44.41,199.39 44.29,200.65C44.17,201.9 44.22,203.16 44.33,204.41C44.44,205.67 44.7,206.92 44.96,208.17C45.22,209.43 45.58,210.68 45.89,211.94C46.19,213.19 46.54,214.44 46.79,215.7C47.04,216.95 47.26,218.2 47.37,219.46C47.48,220.71 47.51,221.98 47.44,223.23C47.37,224.49 47.18,225.74 46.94,226.99C46.69,228.25 46.33,229.5 45.97,230.75C45.61,232.01 45.15,233.26 44.76,234.52C44.37,235.77 43.95,237.02 43.64,238.28C43.33,239.53 43.05,240.78 42.89,242.04C42.73,243.29 42.65,244.55 42.67,245.81C42.69,247.06 42.82,248.32 43,249.57C43.19,250.83 43.47,252.09 43.78,253.34C44.09,254.6 44.48,255.85 44.88,257.1C45.29,258.36 45.74,259.61 46.22,260.86C46.7,262.12 47.22,263.38 47.75,264.63C48.29,265.89 48.85,267.14 49.43,268.39C50.01,269.65 50.62,270.9 51.22,272.15C51.82,273.41 52.44,274.67 53.05,275.92C53.67,277.18 54.28,278.43 54.91,279.68C55.54,280.93 56.17,282.19 56.81,283.44C57.45,284.7 58.1,285.96 58.76,287.21C59.42,288.47 60.11,289.72 60.79,290.97C61.47,292.22 62.17,293.48 62.85,294.73C63.54,295.99 64.23,297.24 64.9,298.5C65.57,299.75 66.23,301 66.87,302.26C67.5,303.51 68.12,304.76 68.71,306.02C69.29,307.27 69.86,308.53 70.39,309.79C70.91,311.04 71.41,312.29 71.87,313.55C72.33,314.8 72.75,316.05 73.14,317.31C73.53,318.56 73.89,319.82 74.21,321.08C74.53,322.33 74.82,323.58 75.08,324.84C75.34,326.09 75.56,327.34 75.76,328.6C75.96,329.85 76.14,331.11 76.29,332.37C76.44,333.62 76.56,334.88 76.67,336.13C76.78,337.38 76.87,338.64 76.95,339.89C77.03,341.15 77.1,342.4 77.16,343.66C77.22,344.91 77.28,346.17 77.33,347.42C77.38,348.67 77.43,349.93 77.47,351.18C77.52,352.44 77.56,353.69 77.6,354.95C77.64,356.2 77.68,357.46 77.72,358.71C77.76,359.96 77.79,361.22 77.82,362.47C77.85,363.73 77.87,364.98 77.89,366.24C77.91,367.49 77.93,368.75 77.94,370Q77.95,371.26 77.97,373.77Z" style="vector-effect: non-scaling-stroke; stroke-width: 2px; stroke: rgb(239, 85, 59); stroke-opacity: 1; fill: rgb(239, 85, 59); fill-opacity: 0.5;"/><path class="violin" d="M234.07,336.46Q234.11,333.64 234.14,332.23C234.17,330.82 234.21,329.41 234.26,328C234.31,326.59 234.38,325.18 234.46,323.77C234.54,322.36 234.64,320.95 234.75,319.54C234.86,318.13 234.99,316.72 235.14,315.31C235.29,313.9 235.46,312.48 235.66,311.07C235.86,309.66 236.08,308.25 236.32,306.84C236.57,305.43 236.83,304.02 237.13,302.61C237.43,301.2 237.76,299.79 238.14,298.38C238.52,296.96 238.93,295.55 239.39,294.15C239.85,292.73 240.36,291.32 240.9,289.92C241.45,288.5 242.03,287.09 242.65,285.69C243.27,284.27 243.94,282.86 244.62,281.46C245.31,280.04 246.03,278.64 246.76,277.23C247.49,275.82 248.24,274.41 249,273C249.76,271.59 250.54,270.18 251.31,268.77C252.08,267.36 252.86,265.94 253.64,264.53C254.42,263.12 255.19,261.71 255.98,260.3C256.77,258.89 257.55,257.48 258.36,256.07C259.17,254.66 259.99,253.25 260.83,251.84C261.67,250.43 262.54,249.02 263.4,247.61C264.26,246.2 265.16,244.8 266,243.38C266.83,241.98 267.68,240.58 268.42,239.15C269.14,237.75 269.84,236.35 270.39,234.92C270.92,233.53 271.37,232.11 271.68,230.69C271.98,229.29 272.15,227.87 272.22,226.46C272.29,225.05 272.21,223.64 272.12,222.23C272.03,220.82 271.82,219.4 271.66,217.99C271.5,216.58 271.29,215.17 271.15,213.76C271.02,212.35 270.91,210.94 270.85,209.53C270.79,208.12 270.78,206.71 270.77,205.3C270.76,203.89 270.8,202.48 270.76,201.07C270.72,199.66 270.69,198.25 270.53,196.84C270.37,195.43 270.15,194.01 269.8,192.61C269.44,191.19 268.96,189.77 268.39,188.38C267.8,186.95 267.06,185.54 266.29,184.15C265.5,182.72 264.59,181.32 263.67,179.92C262.74,178.5 261.72,177.1 260.75,175.69C259.78,174.28 258.78,172.88 257.85,171.46C256.94,170.06 256.02,168.65 255.22,167.22C254.44,165.83 253.7,164.42 253.07,162.99C252.46,161.6 251.93,160.18 251.49,158.76C251.06,157.36 250.75,155.95 250.46,154.53C250.17,153.13 249.99,151.71 249.76,150.3C249.53,148.89 249.37,147.48 249.1,146.07C248.83,144.66 248.55,143.24 248.16,141.84C247.77,140.42 247.29,139.01 246.75,137.61C246.19,136.19 245.53,134.78 244.85,133.38C244.16,131.96 243.38,130.56 242.64,129.15C241.9,127.74 241.1,126.34 240.39,124.92C239.68,123.52 238.98,122.1 238.37,120.68C237.77,119.28 237.22,117.87 236.75,116.45C236.29,115.05 235.91,113.64 235.59,112.22C235.28,110.82 235.05,109.4 234.85,107.99Q234.65,106.58 234.41,103.76L233.59,103.76Q233.35,106.58 233.15,107.99C232.95,109.4 232.72,110.82 232.41,112.22C232.09,113.64 231.71,115.05 231.25,116.45C230.78,117.87 230.23,119.28 229.63,120.68C229.02,122.1 228.32,123.52 227.61,124.92C226.9,126.34 226.1,127.74 225.36,129.15C224.62,130.56 223.84,131.96 223.15,133.38C222.47,134.78 221.81,136.19 221.25,137.61C220.71,139.01 220.23,140.42 219.84,141.84C219.45,143.24 219.17,144.66 218.9,146.07C218.63,147.48 218.47,148.89 218.24,150.3C218.01,151.71 217.83,153.13 217.54,154.53C217.25,155.95 216.94,157.36 216.51,158.76C216.07,160.18 215.54,161.6 214.93,162.99C214.3,164.42 213.56,165.83 212.78,167.22C211.98,168.65 211.06,170.06 210.15,171.46C209.22,172.88 208.22,174.28 207.25,175.69C206.28,177.1 205.26,178.5 204.33,179.92C203.41,181.32 202.5,182.72 201.71,184.15C200.94,185.54 200.2,186.95 199.61,188.38C199.04,189.77 198.56,191.19 198.2,192.61C197.85,194.01 197.63,195.43 197.47,196.84C197.31,198.25 197.28,199.66 197.24,201.07C197.2,202.48 197.24,203.89 197.23,205.3C197.22,206.71 197.21,208.12 197.15,209.53C197.09,210.94 196.98,212.35 196.85,213.76C196.71,215.17 196.5,216.58 196.34,217.99C196.18,219.4 195.97,220.82 195.88,222.23C195.79,223.64 195.71,225.05 195.78,226.46C195.85,227.87 196.02,229.29 196.32,230.69C196.63,232.11 197.08,233.53 197.61,234.92C198.16,236.35 198.86,237.75 199.58,239.15C200.32,240.58 201.17,241.98 202,243.38C202.84,244.8 203.74,246.2 204.6,247.61C205.46,249.02 206.33,250.43 207.17,251.84C208.01,253.25 208.83,254.66 209.64,256.07C210.45,257.48 211.23,258.89 212.02,260.3C212.81,261.71 213.58,263.12 214.36,264.53C215.14,265.94 215.92,267.36 216.69,268.77C217.46,270.18 218.24,271.59 219,273C219.76,274.41 220.51,275.82 221.24,277.23C221.97,278.64 222.69,280.04 223.38,281.46C224.06,282.86 224.73,284.27 225.35,285.69C225.97,287.09 226.55,288.5 227.1,289.92C227.64,291.32 228.15,292.73 228.61,294.15C229.07,295.55 229.48,296.96 229.86,298.38C230.24,299.79 230.57,301.2 230.87,302.61C231.17,304.02 231.43,305.43 231.68,306.84C231.92,308.25 232.14,309.66 232.34,311.07C232.54,312.48 232.71,313.9 232.86,315.31C233.01,316.72 233.14,318.13 233.25,319.54C233.36,320.95 233.46,322.36 233.54,323.77C233.62,325.18 233.69,326.59 233.74,328C233.79,329.41 233.83,330.82 233.86,332.23Q233.89,333.64 233.93,336.46Z" style="vector-effect: non-scaling-stroke; stroke-width: 2px; stroke: rgb(239, 85, 59); stroke-opacity: 1; fill: rgb(239, 85, 59); fill-opacity: 0.5;"/><path class="violin" d="M390.31,349.91Q390.48,345.61 390.62,343.47C390.76,341.32 390.93,339.18 391.17,337.04C391.41,334.89 391.69,332.74 392.05,330.6C392.42,328.45 392.84,326.3 393.36,324.16C393.88,322 394.49,319.85 395.19,317.72C395.9,315.56 396.7,313.41 397.59,311.28C398.49,309.12 399.5,306.97 400.55,304.84C401.61,302.68 402.78,300.55 403.92,298.41C405.07,296.26 406.29,294.12 407.43,291.97C408.56,289.83 409.71,287.69 410.72,285.53C411.72,283.4 412.66,281.26 413.46,279.09C414.24,276.96 414.91,274.81 415.47,272.65C416.03,270.52 416.43,268.37 416.83,266.22C417.23,264.08 417.5,261.93 417.85,259.78C418.2,257.63 418.51,255.48 418.92,253.34C419.33,251.19 419.8,249.04 420.32,246.9C420.84,244.75 421.47,242.61 422.05,240.46C422.64,238.31 423.31,236.17 423.83,234.02C424.35,231.88 424.88,229.74 425.19,227.59C425.5,225.45 425.7,223.3 425.69,221.15C425.68,219 425.47,216.84 425.1,214.71C424.73,212.55 424.14,210.4 423.47,208.27C422.79,206.1 421.92,203.96 421.05,201.83C420.17,199.67 419.17,197.53 418.21,195.39C417.25,193.24 416.24,191.11 415.28,188.96C414.33,186.82 413.38,184.67 412.48,182.52C411.59,180.38 410.74,178.23 409.92,176.08C409.1,173.94 408.34,171.79 407.57,169.64C406.8,167.5 406.07,165.35 405.32,163.2C404.57,161.06 403.83,158.91 403.06,156.77C402.29,154.62 401.5,152.48 400.71,150.33C399.92,148.18 399.1,146.04 398.33,143.89C397.56,141.75 396.78,139.6 396.07,137.45C395.37,135.31 394.69,133.17 394.1,131.01C393.51,128.87 392.98,126.72 392.54,124.57C392.1,122.43 391.74,120.29 391.44,118.14Q391.14,116 390.74,111.7L389.26,111.7Q388.86,116 388.56,118.14C388.26,120.29 387.9,122.43 387.46,124.57C387.02,126.72 386.49,128.87 385.9,131.01C385.31,133.17 384.63,135.31 383.93,137.45C383.22,139.6 382.44,141.75 381.67,143.89C380.9,146.04 380.08,148.18 379.29,150.33C378.5,152.48 377.71,154.62 376.94,156.77C376.17,158.91 375.43,161.06 374.68,163.2C373.93,165.35 373.2,167.5 372.43,169.64C371.66,171.79 370.9,173.94 370.08,176.08C369.26,178.23 368.41,180.38 367.52,182.52C366.62,184.67 365.67,186.82 364.72,188.96C363.76,191.11 362.75,193.24 361.79,195.39C360.83,197.53 359.83,199.67 358.95,201.83C358.08,203.96 357.21,206.1 356.53,208.27C355.86,210.4 355.27,212.55 354.9,214.71C354.53,216.84 354.32,219 354.31,221.15C354.3,223.3 354.5,225.45 354.81,227.59C355.12,229.74 355.65,231.88 356.17,234.02C356.69,236.17 357.36,238.31 357.95,240.46C358.53,242.61 359.16,244.75 359.68,246.9C360.2,249.04 360.67,251.19 361.08,253.34C361.49,255.48 361.8,257.63 362.15,259.78C362.5,261.93 362.77,264.08 363.17,266.22C363.57,268.37 363.97,270.52 364.53,272.65C365.09,274.81 365.76,276.96 366.54,279.09C367.34,281.26 368.28,283.4 369.28,285.53C370.29,287.69 371.44,289.83 372.57,291.97C373.71,294.12 374.93,296.26 376.08,298.41C377.22,300.55 378.39,302.68 379.45,304.84C380.5,306.97 381.51,309.12 382.41,311.28C383.3,313.41 384.1,315.56 384.81,317.72C385.51,319.85 386.12,322 386.64,324.16C387.16,326.3 387.58,328.45 387.95,330.6C388.31,332.74 388.59,334.89 388.83,337.04C389.07,339.18 389.24,341.32 389.38,343.47Q389.52,345.61 389.69,349.91Z" style="vector-effect: non-scaling-stroke; stroke-width: 2px; stroke: rgb(239, 85, 59); stroke-opacity: 1; fill: rgb(239, 85, 59); fill-opacity: 0.5;"/><path class="box" d="M68.44,231.87H87.55M68.44,261.82H87.55V198.03H68.44ZM78,261.82V351.12M78,198.03V129.2" style="vector-effect: non-scaling-stroke; stroke-width: 2px; stroke: rgb(239, 85, 59); stroke-opacity: 1; fill: rgb(239, 85, 59); fill-opacity: 0.5;"/><path class="box" d="M224.44,211.34H243.55M224.44,238.4H243.55V183.72H224.44ZM234,238.4V311.02M234,183.72V129.2" style="vector-effect: non-scaling-stroke; stroke-width: 2px; stroke: rgb(239, 85, 59); stroke-opacity: 1; fill: rgb(239, 85, 59); fill-opacity: 0.5;"/><path class="box" d="M380.44,225.19H399.55M380.44,258.61H399.55V196.74H380.44ZM390,258.61V311.02M390,196.74V150.59" style="vector-effect: non-scaling-stroke; stroke-width: 2px; stroke: rgb(239, 85, 59); stroke-opacity: 1; fill: rgb(239, 85, 59); fill-opacity: 0.5;"/><path class="mean" d="M68.44,229.88H87.55" style="fill: none; vector-effect: non-scaling-stroke; stroke-width: 2px; stroke-dasharray: 4px, 2px; stroke: rgb(239, 85, 59); stroke-opacity: 1;"/><path class="mean" d="M224.44,211.05H243.55" style="fill: none; vector-effect: non-scaling-stroke; stroke-width: 2px; stroke-dasharray: 4px, 2px; stroke: rgb(239, 85, 59); stroke-opacity: 1;"/><path class="mean" d="M380.44,227.97H399.55" style="fill: none; vector-effect: non-scaling-stroke; stroke-width: 2px; stroke-dasharray: 4px, 2px; stroke: rgb(239, 85, 59); stroke-opacity: 1;"/></g></g></g><g class="overplot"/><path class="xlines-above crisp" d="M0,0" style="fill: none;"/><path class="ylines-above crisp" d="M0,0" style="fill: none;"/><g class="overlines-above"/><g class="xaxislayer-above"><g class="x2tick"><text text-anchor="middle" x="0" y="533" transform="translate(730,0)" style="font-family: 'Open Sans', verdana, arial, sans-serif; font-size: 12px; fill: rgb(42, 63, 95); fill-opacity: 1; white-space: pre; opacity: 1;">&#60;=1</text></g><g class="x2tick"><text text-anchor="middle" x="0" y="533" transform="translate(886,0)" style="font-family: 'Open Sans', verdana, arial, sans-serif; font-size: 12px; fill: rgb(42, 63, 95); fill-opacity: 1; white-space: pre; opacity: 1;">(1, 2]</text></g><g class="x2tick"><text text-anchor="middle" x="0" y="533" transform="translate(1042,0)" style="font-family: 'Open Sans', verdana, arial, sans-serif; font-size: 12px; fill: rgb(42, 63, 95); fill-opacity: 1; white-space: pre; opacity: 1;">>2</text></g></g><g class="yaxislayer-above"><g class="y2tick"><text text-anchor="end" x="651" y="4.199999999999999" transform="translate(0,517.86)" style="font-family: 'Open Sans', verdana, arial, sans-serif; font-size: 12px; fill: rgb(42, 63, 95); fill-opacity: 1; white-space: pre; opacity: 1;">−5</text></g><g class="y2tick"><text text-anchor="end" x="651" y="4.199999999999999" style="font-family: 'Open Sans', verdana, arial, sans-serif; font-size: 12px; fill: rgb(42, 63, 95); fill-opacity: 1; white-space: pre; opacity: 1;" transform="translate(0,464.38)">0</text></g><g class="y2tick"><text text-anchor="end" x="651" y="4.199999999999999" style="font-family: 'Open Sans', verdana, arial, sans-serif; font-size: 12px; fill: rgb(42, 63, 95); fill-opacity: 1; white-space: pre; opacity: 1;" transform="translate(0,410.91)">5</text></g><g class="y2tick"><text text-anchor="end" x="651" y="4.199999999999999" style="font-family: 'Open Sans', verdana, arial, sans-serif; font-size: 12px; fill: rgb(42, 63, 95); fill-opacity: 1; white-space: pre; opacity: 1;" transform="translate(0,357.44)">10</text></g><g class="y2tick"><text text-anchor="end" x="651" y="4.199999999999999" style="font-family: 'Open Sans', verdana, arial, sans-serif; font-size: 12px; fill: rgb(42, 63, 95); fill-opacity: 1; white-space: pre; opacity: 1;" transform="translate(0,303.96000000000004)">15</text></g><g class="y2tick"><text text-anchor="end" x="651" y="4.199999999999999" style="font-family: 'Open Sans', verdana, arial, sans-serif; font-size: 12px; fill: rgb(42, 63, 95); fill-opacity: 1; white-space: pre; opacity: 1;" transform="translate(0,250.49)">20</text></g><g class="y2tick"><text text-anchor="end" x="651" y="4.199999999999999" style="font-family: 'Open Sans', verdana, arial, sans-serif; font-size: 12px; fill: rgb(42, 63, 95); fill-opacity: 1; white-space: pre; opacity: 1;" transform="translate(0,197.01)">25</text></g><g class="y2tick"><text text-anchor="end" x="651" y="4.199999999999999" style="font-family: 'Open Sans', verdana, arial, sans-serif; font-size: 12px; fill: rgb(42, 63, 95); fill-opacity: 1; white-space: pre; opacity: 1;" transform="translate(0,143.54)">30</text></g></g><g class="overaxes-above"/></g></g><g class="polarlayer"/><g class="smithlayer"/><g class="ternarylayer"/><g class="geolayer"/><g class="funnelarealayer"/><g class="pielayer"/><g class="iciclelayer"/><g class="treemaplayer"/><g class="sunburstlayer"/><g class="glimages"/><defs id="topdefs-5334b7"><g class="clips"/></defs><g class="layer-above"><g class="imagelayer"/><g class="shapelayer"/></g><g class="infolayer"><g class="g-gtitle"><text class="gtitle" x="60" y="50" text-anchor="start" dy="0em" style="font-family: 'Open Sans', verdana, arial, sans-serif; font-size: 17px; fill: rgb(42, 63, 95); opacity: 1; font-weight: normal; white-space: pre;">selling_price Distributions (hardcover better)</text></g><g class="g-xtitle"><text class="xtitle" x="314" y="561.8" text-anchor="middle" style="font-family: 'Open Sans', verdana, arial, sans-serif; font-size: 14px; fill: rgb(42, 63, 95); opacity: 1; font-weight: normal; white-space: pre;">Hardcover over Paperback</text></g><g class="g-x2title"><text class="x2title" x="886" y="561.8" text-anchor="middle" style="font-family: 'Open Sans', verdana, arial, sans-serif; font-size: 14px; fill: rgb(42, 63, 95); opacity: 1; font-weight: normal; white-space: pre;">Hardcover over Paperback</text></g><g class="g-ytitle"><text class="ytitle" transform="rotate(-90,40.465625,310)" x="40.465625" y="310" text-anchor="middle" style="font-family: 'Open Sans', verdana, arial, sans-serif; font-size: 14px; fill: rgb(42, 63, 95); opacity: 1; font-weight: normal; white-space: pre;">selling_price</text></g><g class="g-y2title"><text class="y2title" transform="rotate(-90,612.465625,310)" x="612.465625" y="310" text-anchor="middle" style="font-family: 'Open Sans', verdana, arial, sans-serif; font-size: 14px; fill: rgb(42, 63, 95); opacity: 1; font-weight: normal; white-space: pre;">selling_price</text></g><g class="annotation" data-index="0" style="opacity: 1;"><g class="annotation-text-g" transform="rotate(0,314,87)"><g class="cursor-pointer" transform="translate(273,74)"><rect class="bg" x="0.5" y="0.5" width="82" height="25" style="stroke-width: 1px; stroke: rgb(0, 0, 0); stroke-opacity: 0; fill: rgb(0, 0, 0); fill-opacity: 0;"/><text class="annotation-text" text-anchor="middle" x="41.296875" y="19" style="font-family: 'Open Sans', verdana, arial, sans-serif; font-size: 16px; fill: rgb(42, 63, 95); fill-opacity: 1; white-space: pre;">Paperback</text></g></g></g><g class="annotation" data-index="1" style="opacity: 1;"><g class="annotation-text-g" transform="rotate(0,886,87)"><g class="cursor-pointer" transform="translate(845,74)"><rect class="bg" x="0.5" y="0.5" width="81" height="25" style="stroke-width: 1px; stroke: rgb(0, 0, 0); stroke-opacity: 0; fill: rgb(0, 0, 0); fill-opacity: 0;"/><text class="annotation-text" text-anchor="middle" x="40.921875" y="19" style="font-family: 'Open Sans', verdana, arial, sans-serif; font-size: 16px; fill: rgb(42, 63, 95); fill-opacity: 1; white-space: pre;">Hardcover</text></g></g></g></g></svg>