<svg class="main-svg" xmlns="http://www.w3.org/2000/svg" xmlns:xlink="http://www.w3.org/1999/xlink" width="1200" height="600" style="" viewBox="0 0 1200 600"><rect x="0" y="0" width="1200" height="600" style="fill: rgb(255, 255, 255); fill-opacity: 1;"/><defs id="defs-ad8eae"><g class="clips"><clipPath id="clipad8eaexyplot" class="plotclip"><rect width="468" height="420"/></clipPath><clipPath id="clipad8eaex2y2plot" class="plotclip"><rect width="467.99999999999994" height="420"/></clipPath><clipPath class="axesclip" id="clipad8eaex"><rect x="80" y="0" width="468" height="600"/></clipPath><clipPath class="axesclip" id="clipad8eaey"><rect x="0" y="100" width="1200" height="420"/></clipPath><clipPath class="axesclip" id="clipad8eaexy"><rect x="80" y="100" width="468" height="420"/></clipPath><clipPath class="axesclip" id="clipad8eaey2"><rect x="0" y="100" width="1200" height="420"/></clipPath><clipPath class="axesclip" id="clipad8eaexy2"><rect x="80" y="100" width="468" height="420"/></clipPath><clipPath class="axesclip" id="clipad8eaex2"><rect x="652" y="0" width="467.99999999999994" height="600"/></clipPath><clipPath class="axesclip" id="clipad8eaex2y"><rect x="652" y="100" width="467.99999999999994" height="420"/></clipPath><clipPath class="axesclip" id="clipad8eaex2y2"><rect x="652" y="100" width="467.99999999999994" height="420"/></clipPath></g><g class="gradients"/><g class="patterns"/></defs><g class="bglayer"><rect class="bg" x="80" y="100" width="468" height="420" style="fill: rgb(229, 236, 246); fill-opacity: 1; stroke-width: 0;"/><rect class="bg" x="652" y="100" width="467.99999999999994" height="420" style="fill: rgb(229, 236, 246); fill-opacity: 1; stroke-width: 0;"/></g><g class="layer-below"><g class="imagelayer"/><g class="shapelayer"/></g><g class="cartesianlayer"><g class="subplot xy"><g class="layer-subplot"><g class="shapelayer"/><g class="imagelayer"/></g><g class="minor-gridlayer"><g class="x"/><g class="y"/></g><g class="gridlayer"><g class="x"/><g class="y"><path class="ygrid crisp" transform="translate(0,512.28)" d="M80,0h468" style="stroke: rgb(255, 255, 255); stroke-opacity: 1; stroke-width: 1px;"/><path class="ygrid crisp" transform="translate(0,381.75)" d="M80,0h468" style="stroke: rgb(255, 255, 255); stroke-opacity: 1; stroke-width: 1px;"/><path class="ygrid crisp" transform="translate(0,316.49)" d="M80,0h468" style="stroke: rgb(255, 255, 255); stroke-opacity: 1; stroke-width: 1px;"/><path class="ygrid crisp" transform="translate(0,251.22)" d="M80,0h468" style="stroke: rgb(255, 255, 255); stroke-opacity: 1; stroke-width: 1px;"/><path class="ygrid crisp" transform="translate(0,185.95999999999998)" d="M80,0h468" style="stroke: rgb(255, 255, 255); stroke-opacity: 1; stroke-width: 1px;"/><path class="ygrid crisp" transform="translate(0,120.69)" d="M80,0h468" style="stroke: rgb(255, 255, 255); stroke-opacity: 1; stroke-width: 1px;"/></g></g><g class="zerolinelayer"><path class="yzl zl crisp" transform="translate(0,447.01)" d="M80,0h468" style="stroke: rgb(255, 255, 255); stroke-opacity: 1; stroke-width: 2px;"/></g><path class="xlines-below"/><path class="ylines-below"/><g class="overlines-below"/><g class="xaxislayer-below"/><g class="yaxislayer-below"/><g class="overaxes-below"/><g class="plot" transform="translate(80,100)" clip-path="url(#clipad8eaexyplot)"><g class="violinlayer mlayer"><g class="trace violins" style="opacity: 1;"><path class="violin" d="M78.79,384.55Q79.25,380.37 79.61,378.29C79.98,376.19 80.42,374.1 80.99,372.02C81.56,369.92 82.26,367.82 83.04,365.75C83.83,363.64 84.77,361.56 85.73,359.48C86.7,357.38 87.81,355.3 88.85,353.21C89.89,351.12 91.01,349.05 91.99,346.95C92.96,344.87 93.92,342.79 94.7,340.68C95.46,338.61 96.14,336.52 96.63,334.41C97.11,332.34 97.43,330.24 97.63,328.14C97.83,326.06 97.86,323.96 97.84,321.87C97.82,319.78 97.66,317.69 97.5,315.6C97.34,313.51 97.1,311.43 96.88,309.34C96.66,307.25 96.41,305.16 96.16,303.07C95.91,300.98 95.65,298.89 95.38,296.8C95.11,294.71 94.85,292.62 94.56,290.53C94.27,288.44 93.97,286.35 93.66,284.26C93.35,282.17 93.02,280.09 92.69,278C92.36,275.91 92.02,273.82 91.7,271.73C91.38,269.64 91.06,267.55 90.75,265.46C90.44,263.37 90.14,261.28 89.86,259.19C89.58,257.1 89.31,255.01 89.06,252.92C88.81,250.83 88.57,248.74 88.35,246.65C88.13,244.56 87.92,242.48 87.73,240.39C87.54,238.3 87.37,236.21 87.21,234.12C87.06,232.03 86.92,229.94 86.8,227.85C86.68,225.76 86.57,223.67 86.47,221.58C86.37,219.49 86.28,217.4 86.19,215.31C86.1,213.22 86.01,211.14 85.91,209.05C85.81,206.96 85.7,204.87 85.59,202.78C85.48,200.69 85.36,198.6 85.23,196.51C85.1,194.42 84.96,192.33 84.83,190.24C84.69,188.15 84.55,186.06 84.42,183.97C84.29,181.88 84.16,179.79 84.04,177.7C83.92,175.61 83.8,173.53 83.69,171.44C83.58,169.35 83.48,167.26 83.37,165.17C83.26,163.08 83.15,160.99 83.04,158.9C82.93,156.81 82.82,154.72 82.7,152.63C82.58,150.54 82.46,148.45 82.33,146.36C82.2,144.27 82.07,142.19 81.94,140.1C81.81,138.01 81.68,135.92 81.56,133.83C81.44,131.74 81.31,129.65 81.2,127.56C81.09,125.47 80.99,123.38 80.89,121.29C80.8,119.2 80.71,117.11 80.63,115.02C80.55,112.93 80.48,110.84 80.41,108.75C80.34,106.66 80.28,104.58 80.22,102.49C80.16,100.4 80.11,98.31 80.06,96.22C80.01,94.13 79.96,92.04 79.91,89.95C79.86,87.86 79.81,85.77 79.75,83.68C79.69,81.59 79.63,79.5 79.56,77.41C79.49,75.32 79.42,73.24 79.34,71.15C79.26,69.06 79.17,66.97 79.09,64.88C79.01,62.79 78.92,60.7 78.84,58.61C78.76,56.52 78.67,54.43 78.6,52.34C78.53,50.25 78.46,48.16 78.4,46.07C78.34,43.98 78.28,41.89 78.24,39.8C78.2,37.71 78.17,35.63 78.14,33.54C78.11,31.45 78.09,29.36 78.07,27.27Q78.05,25.18 78.03,21L77.97,21Q77.95,25.18 77.93,27.27C77.91,29.36 77.89,31.45 77.86,33.54C77.83,35.63 77.8,37.71 77.76,39.8C77.72,41.89 77.66,43.98 77.6,46.07C77.54,48.16 77.47,50.25 77.4,52.34C77.33,54.43 77.24,56.52 77.16,58.61C77.08,60.7 76.99,62.79 76.91,64.88C76.83,66.97 76.74,69.06 76.66,71.15C76.58,73.24 76.51,75.32 76.44,77.41C76.37,79.5 76.31,81.59 76.25,83.68C76.19,85.77 76.14,87.86 76.09,89.95C76.04,92.04 75.99,94.13 75.94,96.22C75.89,98.31 75.84,100.4 75.78,102.49C75.72,104.58 75.66,106.66 75.59,108.75C75.52,110.84 75.45,112.93 75.37,115.02C75.29,117.11 75.2,119.2 75.11,121.29C75.01,123.38 74.91,125.47 74.8,127.56C74.69,129.65 74.56,131.74 74.44,133.83C74.32,135.92 74.19,138.01 74.06,140.1C73.93,142.19 73.8,144.27 73.67,146.36C73.54,148.45 73.42,150.54 73.3,152.63C73.18,154.72 73.07,156.81 72.96,158.9C72.85,160.99 72.74,163.08 72.63,165.17C72.52,167.26 72.42,169.35 72.31,171.44C72.2,173.53 72.08,175.61 71.96,177.7C71.84,179.79 71.71,181.88 71.58,183.97C71.45,186.06 71.31,188.15 71.17,190.24C71.04,192.33 70.9,194.42 70.77,196.51C70.64,198.6 70.52,200.69 70.41,202.78C70.3,204.87 70.19,206.96 70.09,209.05C69.99,211.14 69.9,213.22 69.81,215.31C69.72,217.4 69.63,219.49 69.53,221.58C69.43,223.67 69.32,225.76 69.2,227.85C69.08,229.94 68.94,232.03 68.79,234.12C68.63,236.21 68.46,238.3 68.27,240.39C68.08,242.48 67.87,244.56 67.65,246.65C67.43,248.74 67.19,250.83 66.94,252.92C66.69,255.01 66.42,257.1 66.14,259.19C65.86,261.28 65.56,263.37 65.25,265.46C64.94,267.55 64.62,269.64 64.3,271.73C63.98,273.82 63.64,275.91 63.31,278C62.98,280.09 62.65,282.17 62.34,284.26C62.03,286.35 61.73,288.44 61.44,290.53C61.15,292.62 60.89,294.71 60.62,296.8C60.35,298.89 60.09,300.98 59.84,303.07C59.59,305.16 59.34,307.25 59.12,309.34C58.9,311.43 58.66,313.51 58.5,315.6C58.34,317.69 58.18,319.78 58.16,321.87C58.14,323.96 58.17,326.06 58.37,328.14C58.57,330.24 58.89,332.34 59.37,334.41C59.86,336.52 60.54,338.61 61.3,340.68C62.08,342.79 63.04,344.87 64.01,346.95C64.99,349.05 66.11,351.12 67.15,353.21C68.19,355.3 69.3,357.38 70.27,359.48C71.23,361.56 72.17,363.64 72.96,365.75C73.74,367.82 74.44,369.92 75.01,372.02C75.58,374.1 76.02,376.19 76.39,378.29Q76.75,380.37 77.21,384.55Z" style="vector-effect: non-scaling-stroke; stroke-width: 2px; stroke: rgb(99, 110, 250); stroke-opacity: 1; fill: rgb(99, 110, 250); fill-opacity: 0.5;"/><path class="violin" d="M235.76,376.45Q236.82,373.12 237.61,371.51C238.44,369.82 239.48,368.15 240.7,366.56C242.01,364.85 243.59,363.2 245.28,361.61C247.09,359.9 249.18,358.29 251.26,356.67C253.43,354.99 255.82,353.38 258.05,351.72C260.26,350.08 262.6,348.48 264.59,346.77C266.44,345.18 268.34,343.59 269.64,341.83C270.8,340.27 271.85,338.58 272.22,336.88C272.57,335.28 272.41,333.53 271.95,331.93C271.46,330.22 270.33,328.58 269.23,326.99C268.04,325.28 266.46,323.67 264.99,322.04C263.49,320.37 261.82,318.76 260.32,317.09C258.85,315.46 257.38,313.83 256.09,312.15C254.86,310.53 253.71,308.88 252.73,307.2C251.79,305.58 250.99,303.92 250.28,302.25C249.59,300.62 249.03,298.97 248.5,297.31C247.98,295.67 247.56,294.01 247.14,292.36C246.72,290.71 246.36,289.06 246,287.41C245.64,285.76 245.31,284.12 244.98,282.47C244.66,280.82 244.35,279.17 244.05,277.52C243.76,275.87 243.48,274.22 243.21,272.57C242.94,270.92 242.69,269.28 242.44,267.63C242.2,265.98 241.96,264.33 241.74,262.68C241.52,261.03 241.31,259.39 241.12,257.74C240.93,256.09 240.76,254.44 240.6,252.79C240.44,251.14 240.31,249.49 240.18,247.84C240.06,246.19 239.95,244.55 239.85,242.9C239.75,241.25 239.67,239.6 239.58,237.95C239.49,236.3 239.41,234.65 239.33,233C239.25,231.35 239.17,229.71 239.09,228.06C239.01,226.41 238.93,224.76 238.86,223.11C238.79,221.46 238.72,219.81 238.65,218.16C238.59,216.51 238.52,214.87 238.47,213.22C238.41,211.57 238.36,209.92 238.32,208.27C238.28,206.62 238.24,204.97 238.21,203.32C238.18,201.67 238.15,200.03 238.12,198.38C238.09,196.73 238.07,195.08 238.04,193.43C238.01,191.78 237.99,190.13 237.95,188.48C237.92,186.83 237.87,185.19 237.83,183.54C237.79,181.89 237.74,180.24 237.69,178.59C237.63,176.94 237.57,175.29 237.5,173.64C237.43,171.99 237.35,170.35 237.26,168.7C237.17,167.05 237.08,165.4 236.98,163.75C236.88,162.1 236.78,160.45 236.68,158.8C236.58,157.15 236.48,155.51 236.39,153.86C236.3,152.21 236.21,150.56 236.13,148.91C236.05,147.26 235.97,145.61 235.91,143.96C235.85,142.31 235.8,140.67 235.75,139.02C235.7,137.37 235.65,135.72 235.61,134.07C235.57,132.42 235.53,130.77 235.49,129.12C235.45,127.47 235.41,125.83 235.37,124.18C235.33,122.53 235.29,120.88 235.25,119.23C235.21,117.58 235.17,115.93 235.13,114.28C235.09,112.63 235.04,110.99 235,109.34C234.96,107.69 234.92,106.04 234.88,104.39C234.84,102.74 234.81,101.09 234.78,99.44C234.75,97.79 234.73,96.15 234.71,94.5C234.69,92.85 234.67,91.2 234.65,89.55C234.63,87.9 234.62,86.25 234.6,84.6C234.58,82.95 234.56,81.31 234.53,79.66C234.5,78.01 234.46,76.36 234.43,74.71C234.4,73.06 234.36,71.41 234.33,69.76C234.3,68.11 234.26,66.47 234.23,64.82C234.2,63.17 234.18,61.52 234.15,59.87C234.13,58.22 234.1,56.57 234.08,54.92Q234.06,53.27 234.04,49.98L233.96,49.98Q233.94,53.27 233.92,54.92C233.9,56.57 233.87,58.22 233.85,59.87C233.82,61.52 233.8,63.17 233.77,64.82C233.74,66.47 233.7,68.11 233.67,69.76C233.64,71.41 233.6,73.06 233.57,74.71C233.54,76.36 233.5,78.01 233.47,79.66C233.44,81.31 233.42,82.95 233.4,84.6C233.38,86.25 233.37,87.9 233.35,89.55C233.33,91.2 233.31,92.85 233.29,94.5C233.27,96.15 233.25,97.79 233.22,99.44C233.19,101.09 233.16,102.74 233.12,104.39C233.08,106.04 233.04,107.69 233,109.34C232.96,110.99 232.91,112.63 232.87,114.28C232.83,115.93 232.79,117.58 232.75,119.23C232.71,120.88 232.67,122.53 232.63,124.18C232.59,125.83 232.55,127.47 232.51,129.12C232.47,130.77 232.43,132.42 232.39,134.07C232.35,135.72 232.3,137.37 232.25,139.02C232.2,140.67 232.15,142.31 232.09,143.96C232.03,145.61 231.95,147.26 231.87,148.91C231.79,150.56 231.7,152.21 231.61,153.86C231.52,155.51 231.42,157.15 231.32,158.8C231.22,160.45 231.12,162.1 231.02,163.75C230.92,165.4 230.83,167.05 230.74,168.7C230.65,170.35 230.57,171.99 230.5,173.64C230.43,175.29 230.37,176.94 230.31,178.59C230.26,180.24 230.21,181.89 230.17,183.54C230.13,185.19 230.08,186.83 230.05,188.48C230.01,190.13 229.99,191.78 229.96,193.43C229.93,195.08 229.91,196.73 229.88,198.38C229.85,200.03 229.82,201.67 229.79,203.32C229.76,204.97 229.72,206.62 229.68,208.27C229.64,209.92 229.59,211.57 229.53,213.22C229.48,214.87 229.41,216.51 229.35,218.16C229.28,219.81 229.21,221.46 229.14,223.11C229.07,224.76 228.99,226.41 228.91,228.06C228.83,229.71 228.75,231.35 228.67,233C228.59,234.65 228.51,236.3 228.42,237.95C228.33,239.6 228.25,241.25 228.15,242.9C228.05,244.55 227.94,246.19 227.82,247.84C227.69,249.49 227.56,251.14 227.4,252.79C227.24,254.44 227.07,256.09 226.88,257.74C226.69,259.39 226.48,261.03 226.26,262.68C226.04,264.33 225.8,265.98 225.56,267.63C225.31,269.28 225.06,270.92 224.79,272.57C224.52,274.22 224.24,275.87 223.95,277.52C223.65,279.17 223.34,280.82 223.02,282.47C222.69,284.12 222.36,285.76 222,287.41C221.64,289.06 221.28,290.71 220.86,292.36C220.44,294.01 220.02,295.67 219.5,297.31C218.97,298.97 218.41,300.62 217.72,302.25C217.01,303.92 216.21,305.58 215.27,307.2C214.29,308.88 213.14,310.53 211.91,312.15C210.62,313.83 209.15,315.46 207.68,317.09C206.18,318.76 204.51,320.37 203.01,322.04C201.54,323.67 199.96,325.28 198.77,326.99C197.67,328.58 196.54,330.22 196.05,331.93C195.59,333.53 195.43,335.28 195.78,336.88C196.15,338.58 197.2,340.27 198.36,341.83C199.66,343.59 201.56,345.18 203.41,346.77C205.4,348.48 207.74,350.08 209.95,351.72C212.18,353.38 214.57,354.99 216.74,356.67C218.82,358.29 220.91,359.9 222.72,361.61C224.41,363.2 225.99,364.85 227.3,366.56C228.52,368.15 229.56,369.82 230.39,371.51Q231.18,373.12 232.24,376.45Z" style="vector-effect: non-scaling-stroke; stroke-width: 2px; stroke: rgb(99, 110, 250); stroke-opacity: 1; fill: rgb(99, 110, 250); fill-opacity: 0.5;"/><path class="violin" d="M391.2,399Q391.88,393.2 392.4,390.31C392.92,387.4 393.56,384.49 394.34,381.61C395.13,378.69 396.08,375.8 397.12,372.92C398.17,370 399.4,367.12 400.62,364.23C401.84,361.32 403.21,358.44 404.44,355.53C405.67,352.64 406.95,349.76 408,346.84C409.03,343.96 410,341.06 410.69,338.14C411.37,335.27 411.86,332.36 412.11,329.45C412.36,326.56 412.35,323.65 412.22,320.76C412.09,317.86 411.71,314.95 411.3,312.06C410.89,309.16 410.31,306.26 409.77,303.37C409.23,300.47 408.62,297.58 408.06,294.68C407.5,291.78 406.95,288.88 406.43,285.98C405.91,283.08 405.43,280.19 404.96,277.29C404.49,274.39 404.05,271.49 403.59,268.59C403.13,265.69 402.68,262.8 402.21,259.9C401.74,257 401.26,254.11 400.77,251.21C400.28,248.31 399.76,245.41 399.26,242.51C398.76,239.61 398.25,236.72 397.78,233.82C397.31,230.93 396.85,228.03 396.45,225.13C396.05,222.23 395.69,219.33 395.39,216.43C395.09,213.54 394.84,210.64 394.63,207.74C394.42,204.84 394.26,201.94 394.13,199.04C394,196.14 393.91,193.25 393.83,190.35C393.75,187.45 393.69,184.56 393.63,181.66C393.57,178.76 393.52,175.86 393.45,172.96C393.38,170.06 393.31,167.17 393.23,164.27C393.14,161.37 393.05,158.48 392.94,155.58C392.83,152.68 392.7,149.78 392.56,146.88C392.42,143.98 392.27,141.09 392.12,138.19C391.97,135.29 391.81,132.39 391.67,129.49C391.53,126.59 391.39,123.7 391.28,120.8C391.17,117.9 391.06,115.01 390.99,112.11C390.91,109.21 390.87,106.31 390.83,103.41C390.79,100.51 390.78,97.62 390.76,94.72C390.74,91.82 390.74,88.93 390.73,86.03C390.72,83.13 390.73,80.23 390.71,77.33C390.69,74.43 390.67,71.54 390.64,68.64C390.61,65.74 390.57,62.85 390.53,59.95C390.49,57.05 390.44,54.15 390.4,51.25C390.36,48.35 390.31,45.46 390.27,42.56C390.23,39.66 390.19,36.76 390.16,33.86Q390.13,30.96 390.09,25.17L389.91,25.17Q389.87,30.96 389.84,33.86C389.81,36.76 389.77,39.66 389.73,42.56C389.69,45.46 389.64,48.35 389.6,51.25C389.56,54.15 389.51,57.05 389.47,59.95C389.43,62.85 389.39,65.74 389.36,68.64C389.33,71.54 389.31,74.43 389.29,77.33C389.27,80.23 389.28,83.13 389.27,86.03C389.26,88.93 389.26,91.82 389.24,94.72C389.22,97.62 389.21,100.51 389.17,103.41C389.13,106.31 389.09,109.21 389.01,112.11C388.94,115.01 388.83,117.9 388.72,120.8C388.61,123.7 388.47,126.59 388.33,129.49C388.19,132.39 388.03,135.29 387.88,138.19C387.73,141.09 387.58,143.98 387.44,146.88C387.3,149.78 387.17,152.68 387.06,155.58C386.95,158.48 386.86,161.37 386.77,164.27C386.69,167.17 386.62,170.06 386.55,172.96C386.48,175.86 386.43,178.76 386.37,181.66C386.31,184.56 386.25,187.45 386.17,190.35C386.09,193.25 386,196.14 385.87,199.04C385.74,201.94 385.58,204.84 385.37,207.74C385.16,210.64 384.91,213.54 384.61,216.43C384.31,219.33 383.95,222.23 383.55,225.13C383.15,228.03 382.69,230.93 382.22,233.82C381.75,236.72 381.24,239.61 380.74,242.51C380.24,245.41 379.72,248.31 379.23,251.21C378.74,254.11 378.26,257 377.79,259.9C377.32,262.8 376.87,265.69 376.41,268.59C375.95,271.49 375.51,274.39 375.04,277.29C374.57,280.19 374.09,283.08 373.57,285.98C373.05,288.88 372.5,291.78 371.94,294.68C371.38,297.58 370.77,300.47 370.23,303.37C369.69,306.26 369.11,309.16 368.7,312.06C368.29,314.95 367.91,317.86 367.78,320.76C367.65,323.65 367.64,326.56 367.89,329.45C368.14,332.36 368.63,335.27 369.31,338.14C370,341.06 370.97,343.96 372,346.84C373.05,349.76 374.33,352.64 375.56,355.53C376.79,358.44 378.16,361.32 379.38,364.23C380.6,367.12 381.83,370 382.88,372.92C383.92,375.8 384.87,378.69 385.66,381.61C386.44,384.49 387.08,387.4 387.6,390.31Q388.12,393.2 388.8,399Z" style="vector-effect: non-scaling-stroke; stroke-width: 2px; stroke: rgb(99, 110, 250); stroke-opacity: 1; fill: rgb(99, 110, 250); fill-opacity: 0.5;"/><path class="box" d="M68.45,284.75H87.56M68.45,323.15H87.56V221.08H68.45ZM78,323.15V346.91M78,221.08V70.7" style="vector-effect: non-scaling-stroke; stroke-width: 2px; stroke: rgb(99, 110, 250); stroke-opacity: 1; fill: rgb(99, 110, 250); fill-opacity: 0.5;"/><path class="box" d="M224.45,324.48H243.56M224.45,338.26H243.56V273.76H224.45ZM234,338.26V346.55M234,273.76V178.6" style="vector-effect: non-scaling-stroke; stroke-width: 2px; stroke: rgb(99, 110, 250); stroke-opacity: 1; fill: rgb(99, 110, 250); fill-opacity: 0.5;"/><path class="box" d="M380.45,305.85H399.55M380.45,335.31H399.55V258.36H380.45ZM390,335.31V346.41M390,258.36V145.3" style="vector-effect: non-scaling-stroke; stroke-width: 2px; stroke: rgb(99, 110, 250); stroke-opacity: 1; fill: rgb(99, 110, 250); fill-opacity: 0.5;"/><path class="mean" d="M68.45,265.38H87.56" style="fill: none; vector-effect: non-scaling-stroke; stroke-width: 2px; stroke-dasharray: 4px, 2px; stroke: rgb(99, 110, 250); stroke-opacity: 1;"/><path class="mean" d="M224.45,297.3H243.56" style="fill: none; vector-effect: non-scaling-stroke; stroke-width: 2px; stroke-dasharray: 4px, 2px; stroke: rgb(99, 110, 250); stroke-opacity: 1;"/><path class="mean" d="M380.45,288.03H399.55" style="fill: none; vector-effect: non-scaling-stroke; stroke-width: 2px; stroke-dasharray: 4px, 2px; stroke: rgb(99, 110, 250); stroke-opacity: 1;"/></g></g></g><g class="overplot"/><path class="xlines-above crisp" d="M0,0" style="fill: none;"/><path class="ylines-above crisp" d="M0,0" style="fill: none;"/><g class="overlines-above"/><g class="xaxislayer-above"><g class="xtick"><text text-anchor="middle" x="0" y="533" transform="translate(158,0)" style="font-family: 'Open Sans', verdana, arial, sans-serif; font-size: 12px; fill: rgb(42, 63, 95); fill-opacity: 1; white-space: pre; opacity: 1;">&#60;=1</text></g><g class="xtick"><text text-anchor="middle" x="0" y="533" transform="translate(314,0)" style="font-family: 'Open Sans', verdana, arial, sans-serif; font-size: 12px; fill: rgb(42, 63, 95); fill-opacity: 1; white-space: pre; opacity: 1;">(1, 2]</text></g><g class="xtick"><text text-anchor="middle" x="0" y="533" transform="translate(470,0)" style="font-family: 'Open Sans', verdana, arial, sans-serif; font-size: 12px; fill: rgb(42, 63, 95); fill-opacity: 1; white-space: pre; opacity: 1;">>2</text></g></g><g class="yaxislayer-above"><g class="ytick"><text text-anchor="end" x="79" y="4.199999999999999" transform="translate(0,512.28)" style="font-family: 'Open Sans', verdana, arial, sans-serif; font-size: 12px; fill: rgb(42, 63, 95); fill-opacity: 1; white-space: pre; opacity: 1;">−0.5M</text></g><g class="ytick"><text text-anchor="end" x="79" y="4.199999999999999" style="font-family: 'Open Sans', verdana, arial, sans-serif; font-size: 12px; fill: rgb(42, 63, 95); fill-opacity: 1; white-space: pre; opacity: 1;" transform="translate(0,447.01)">0</text></g><g class="ytick"><text text-anchor="end" x="79" y="4.199999999999999" style="font-family: 'Open Sans', verdana, arial, sans-serif; font-size: 12px; fill: rgb(42, 63, 95); fill-opacity: 1; white-space: pre; opacity: 1;" transform="translate(0,381.75)">0.5M</text></g><g class="ytick"><text text-anchor="end" x="79" y="4.199999999999999" style="font-family: 'Open Sans', verdana, arial, sans-serif; font-size: 12px; fill: rgb(42, 63, 95); fill-opacity: 1; white-space: pre; opacity: 1;" transform="translate(0,316.49)">1M</text></g><g class="ytick"><text text-anchor="end" x="79" y="4.199999999999999" style="font-family: 'Open Sans', verdana, arial, sans-serif; font-size: 12px; fill: rgb(42, 63, 95); fill-opacity: 1; white-space: pre; opacity: 1;" transform="translate(0,251.22)">1.5M</text></g><g class="ytick"><text text-anchor="end" x="79" y="4.199999999999999" style="font-family: 'Open Sans', verdana, arial, sans-serif; font-size: 12px; fill: rgb(42, 63, 95); fill-opacity: 1; white-space: pre; opacity: 1;" transform="translate(0,185.95999999999998)">2M</text></g><g class="ytick"><text text-anchor="end" x="79" y="4.199999999999999" style="font-family: 'Open Sans', verdana, arial, sans-serif; font-size: 12px; fill: rgb(42, 63, 95); fill-opacity: 1; white-space: pre; opacity: 1;" transform="translate(0,120.69)">2.5M</text></g></g><g class="overaxes-above"/></g><g class="subplot x2y2"><g class="layer-subplot"><g class="shapelayer"/><g class="imagelayer"/></g><g class="minor-gridlayer"><g class="x2"/><g class="y2"/></g><g class="gridlayer"><g class="x2"/><g class="y2"><path class="y2grid crisp" transform="translate(0,512.28)" d="M652,0h467.99999999999994" style="stroke: rgb(255, 255, 255); stroke-opacity: 1; stroke-width: 1px;"/><path class="y2grid crisp" transform="translate(0,381.75)" d="M652,0h467.99999999999994" style="stroke: rgb(255, 255, 255); stroke-opacity: 1; stroke-width: 1px;"/><path class="y2grid crisp" transform="translate(0,316.49)" d="M652,0h467.99999999999994" style="stroke: rgb(255, 255, 255); stroke-opacity: 1; stroke-width: 1px;"/><path class="y2grid crisp" transform="translate(0,251.22)" d="M652,0h467.99999999999994" style="stroke: rgb(255, 255, 255); stroke-opacity: 1; stroke-width: 1px;"/><path class="y2grid crisp" transform="translate(0,185.95999999999998)" d="M652,0h467.99999999999994" style="stroke: rgb(255, 255, 255); stroke-opacity: 1; stroke-width: 1px;"/><path class="y2grid crisp" transform="translate(0,120.69)" d="M652,0h467.99999999999994" style="stroke: rgb(255, 255, 255); stroke-opacity: 1; stroke-width: 1px;"/></g></g><g class="zerolinelayer"><path class="y2zl zl crisp" transform="translate(0,447.01)" d="M652,0h467.99999999999994" style="stroke: rgb(255, 255, 255); stroke-opacity: 1; stroke-width: 2px;"/></g><path class="xlines-below"/><path class="ylines-below"/><g class="overlines-below"/><g class="xaxislayer-below"/><g class="yaxislayer-below"/><g class="overaxes-below"/><g class="plot" transform="translate(652,100)" clip-path="url(#clipad8eaex2y2plot)"><g class="violinlayer mlayer"><g class="trace violins" style="opacity: 1;"><path class="violin" d="M79.68,348.53Q80.77,348.35 81.43,348.27C82.27,348.17 83.27,348.1 84.33,348.02C85.62,347.93 87.08,347.85 88.6,347.77C90.33,347.68 92.25,347.6 94.16,347.52C96.2,347.43 98.39,347.36 100.49,347.27C102.57,347.19 104.75,347.1 106.72,347.01C108.51,346.93 110.33,346.86 111.84,346.76C113.05,346.68 114.3,346.63 115.1,346.51C115.57,346.44 116.22,346.35 116.22,346.26C116.22,346.18 115.77,346.08 115.44,346.01C114.92,345.89 114.1,345.83 113.36,345.75C112.52,345.66 111.56,345.58 110.65,345.5C109.72,345.42 108.76,345.34 107.84,345.25C106.96,345.17 106.09,345.09 105.26,345C104.48,344.92 103.73,344.84 103.01,344.75C102.34,344.67 101.69,344.58 101.07,344.49C100.49,344.41 99.95,344.33 99.41,344.24C98.9,344.16 98.42,344.08 97.94,343.99C97.49,343.91 97.05,343.83 96.63,343.74C96.23,343.66 95.84,343.58 95.46,343.49C95.1,343.41 94.76,343.32 94.43,343.23C94.11,343.15 93.81,343.07 93.51,342.98C93.23,342.9 92.95,342.82 92.68,342.73C92.42,342.65 92.18,342.56 91.93,342.48C91.69,342.4 91.45,342.32 91.22,342.23C90.99,342.15 90.77,342.05 90.54,341.97C90.31,341.88 90.08,341.8 89.85,341.72C89.62,341.64 89.39,341.55 89.15,341.47C88.91,341.39 88.66,341.3 88.41,341.22C88.16,341.14 87.91,341.06 87.66,340.97C87.41,340.89 87.16,340.8 86.92,340.71C86.7,340.63 86.47,340.55 86.27,340.46C86.08,340.38 85.9,340.3 85.74,340.21C85.6,340.13 85.47,340.05 85.37,339.96C85.28,339.88 85.2,339.8 85.15,339.71C85.1,339.63 85.07,339.54 85.06,339.45C85.05,339.37 85.05,339.28 85.06,339.2C85.07,339.12 85.09,339.03 85.11,338.95C85.13,338.87 85.16,338.78 85.18,338.7C85.2,338.62 85.23,338.53 85.24,338.45C85.25,338.36 85.25,338.27 85.23,338.19C85.21,338.1 85.17,338.02 85.11,337.94C85.04,337.85 84.92,337.77 84.8,337.69C84.65,337.6 84.45,337.52 84.25,337.44C84.02,337.35 83.75,337.27 83.47,337.19C83.16,337.1 82.82,337.01 82.49,336.93C82.15,336.84 81.79,336.76 81.44,336.68C81.1,336.6 80.75,336.52 80.43,336.43C80.13,336.35 79.83,336.27 79.57,336.18C79.34,336.1 79.12,336.02 78.93,335.93C78.77,335.85 78.62,335.76 78.5,335.67Q78.4,335.59 78.24,335.42L77.76,335.42Q77.6,335.59 77.5,335.67C77.38,335.76 77.23,335.85 77.07,335.93C76.88,336.02 76.66,336.1 76.43,336.18C76.17,336.27 75.87,336.35 75.57,336.43C75.25,336.52 74.9,336.6 74.56,336.68C74.21,336.76 73.85,336.84 73.51,336.93C73.18,337.01 72.84,337.1 72.53,337.19C72.25,337.27 71.98,337.35 71.75,337.44C71.55,337.52 71.35,337.6 71.2,337.69C71.08,337.77 70.96,337.85 70.89,337.94C70.83,338.02 70.79,338.1 70.77,338.19C70.75,338.27 70.75,338.36 70.76,338.45C70.77,338.53 70.8,338.62 70.82,338.7C70.84,338.78 70.87,338.87 70.89,338.95C70.91,339.03 70.93,339.12 70.94,339.2C70.95,339.28 70.95,339.37 70.94,339.45C70.93,339.54 70.9,339.63 70.85,339.71C70.8,339.8 70.72,339.88 70.63,339.96C70.53,340.05 70.4,340.13 70.26,340.21C70.1,340.3 69.92,340.38 69.73,340.46C69.53,340.55 69.3,340.63 69.08,340.71C68.84,340.8 68.59,340.89 68.34,340.97C68.09,341.06 67.84,341.14 67.59,341.22C67.34,341.3 67.09,341.39 66.85,341.47C66.61,341.55 66.38,341.64 66.15,341.72C65.92,341.8 65.69,341.88 65.46,341.97C65.23,342.05 65.01,342.15 64.78,342.23C64.55,342.32 64.31,342.4 64.07,342.48C63.82,342.56 63.58,342.65 63.32,342.73C63.05,342.82 62.77,342.9 62.49,342.98C62.19,343.07 61.89,343.15 61.57,343.23C61.24,343.32 60.9,343.41 60.54,343.49C60.16,343.58 59.77,343.66 59.37,343.74C58.95,343.83 58.51,343.91 58.06,343.99C57.58,344.08 57.1,344.16 56.59,344.24C56.05,344.33 55.51,344.41 54.93,344.49C54.31,344.58 53.66,344.67 52.99,344.75C52.27,344.84 51.52,344.92 50.74,345C49.91,345.09 49.04,345.17 48.16,345.25C47.24,345.34 46.28,345.42 45.35,345.5C44.44,345.58 43.48,345.66 42.64,345.75C41.9,345.83 41.08,345.89 40.56,346.01C40.23,346.08 39.78,346.18 39.78,346.26C39.78,346.35 40.43,346.44 40.9,346.51C41.7,346.63 42.95,346.68 44.16,346.76C45.67,346.86 47.49,346.93 49.28,347.01C51.25,347.1 53.43,347.19 55.51,347.27C57.61,347.36 59.8,347.43 61.84,347.52C63.75,347.6 65.67,347.68 67.4,347.77C68.92,347.85 70.38,347.93 71.67,348.02C72.73,348.1 73.73,348.17 74.57,348.27Q75.23,348.35 76.32,348.53Z" style="vector-effect: non-scaling-stroke; stroke-width: 2px; stroke: rgb(239, 85, 59); stroke-opacity: 1; fill: rgb(239, 85, 59); fill-opacity: 0.5;"/><path class="violin" d="M235.03,348.89Q235.69,348.67 236.1,348.57C236.62,348.45 237.24,348.36 237.9,348.26C238.7,348.14 239.61,348.04 240.55,347.94C241.63,347.83 242.82,347.73 244.01,347.63C245.29,347.52 246.66,347.42 247.98,347.31C249.29,347.21 250.66,347.11 251.91,347C253.05,346.9 254.21,346.8 255.19,346.68C255.99,346.58 256.81,346.51 257.38,346.37C257.76,346.28 258.24,346.2 258.3,346.05C258.34,345.96 258.24,345.82 258.14,345.73C257.98,345.58 257.58,345.52 257.27,345.42C256.91,345.31 256.48,345.2 256.08,345.1C255.68,344.99 255.27,344.9 254.88,344.79C254.51,344.69 254.16,344.58 253.82,344.47C253.51,344.37 253.21,344.27 252.94,344.16C252.69,344.06 252.45,343.95 252.24,343.84C252.05,343.74 251.87,343.64 251.71,343.53C251.57,343.43 251.44,343.32 251.34,343.21C251.25,343.11 251.18,343 251.12,342.89C251.06,342.79 251.03,342.68 250.99,342.58C250.95,342.47 250.91,342.36 250.86,342.26C250.81,342.15 250.74,342.05 250.67,341.95C250.59,341.84 250.49,341.73 250.39,341.63C250.28,341.52 250.16,341.42 250.04,341.32C249.91,341.21 249.78,341.11 249.65,341C249.52,340.9 249.38,340.8 249.26,340.69C249.14,340.59 249.02,340.48 248.91,340.37C248.8,340.26 248.7,340.16 248.59,340.05C248.49,339.95 248.38,339.84 248.28,339.74C248.17,339.63 248.08,339.52 247.96,339.42C247.84,339.31 247.71,339.21 247.57,339.11C247.42,339 247.25,338.89 247.07,338.79C246.86,338.68 246.63,338.58 246.38,338.48C246.1,338.37 245.79,338.26 245.46,338.16C245.09,338.05 244.69,337.95 244.28,337.85C243.84,337.74 243.37,337.63 242.89,337.53C242.39,337.42 241.86,337.32 241.34,337.22C240.81,337.11 240.27,337.01 239.75,336.9C239.24,336.79 238.73,336.69 238.24,336.58C237.78,336.48 237.33,336.38 236.92,336.27C236.55,336.17 236.18,336.06 235.86,335.95C235.58,335.85 235.32,335.75 235.1,335.64C234.91,335.54 234.73,335.44 234.59,335.32Q234.47,335.22 234.29,335.01L233.71,335.01Q233.53,335.22 233.41,335.32C233.27,335.44 233.09,335.54 232.9,335.64C232.68,335.75 232.42,335.85 232.14,335.95C231.82,336.06 231.45,336.17 231.08,336.27C230.67,336.38 230.22,336.48 229.76,336.58C229.27,336.69 228.76,336.79 228.25,336.9C227.73,337.01 227.19,337.11 226.66,337.22C226.14,337.32 225.61,337.42 225.11,337.53C224.63,337.63 224.16,337.74 223.72,337.85C223.31,337.95 222.91,338.05 222.54,338.16C222.21,338.26 221.9,338.37 221.62,338.48C221.37,338.58 221.14,338.68 220.93,338.79C220.75,338.89 220.58,339 220.43,339.11C220.29,339.21 220.16,339.31 220.04,339.42C219.92,339.52 219.83,339.63 219.72,339.74C219.62,339.84 219.51,339.95 219.41,340.05C219.3,340.16 219.2,340.26 219.09,340.37C218.98,340.48 218.86,340.59 218.74,340.69C218.62,340.8 218.48,340.9 218.35,341C218.22,341.11 218.09,341.21 217.96,341.32C217.84,341.42 217.72,341.52 217.61,341.63C217.51,341.73 217.41,341.84 217.33,341.95C217.26,342.05 217.19,342.15 217.14,342.26C217.09,342.36 217.05,342.47 217.01,342.58C216.97,342.68 216.94,342.79 216.88,342.89C216.82,343 216.75,343.11 216.66,343.21C216.56,343.32 216.43,343.43 216.29,343.53C216.13,343.64 215.95,343.74 215.76,343.84C215.55,343.95 215.31,344.06 215.06,344.16C214.79,344.27 214.49,344.37 214.18,344.47C213.84,344.58 213.49,344.69 213.12,344.79C212.73,344.9 212.32,344.99 211.92,345.1C211.52,345.2 211.09,345.31 210.73,345.42C210.42,345.52 210.02,345.58 209.86,345.73C209.76,345.82 209.66,345.96 209.7,346.05C209.76,346.2 210.24,346.28 210.62,346.37C211.19,346.51 212.01,346.58 212.81,346.68C213.79,346.8 214.95,346.9 216.09,347C217.34,347.11 218.71,347.21 220.02,347.31C221.34,347.42 222.71,347.52 223.99,347.63C225.18,347.73 226.37,347.83 227.45,347.94C228.39,348.04 229.3,348.14 230.1,348.26C230.76,348.36 231.38,348.45 231.9,348.57Q232.31,348.67 232.97,348.89Z" style="vector-effect: non-scaling-stroke; stroke-width: 2px; stroke: rgb(239, 85, 59); stroke-opacity: 1; fill: rgb(239, 85, 59); fill-opacity: 0.5;"/><path class="violin" d="M390.91,349.74Q391.47,349.43 391.82,349.29C392.25,349.12 392.76,348.98 393.31,348.84C393.97,348.67 394.72,348.53 395.51,348.39C396.41,348.23 397.41,348.08 398.42,347.94C399.53,347.78 400.72,347.64 401.9,347.49C403.11,347.34 404.38,347.19 405.59,347.04C406.76,346.89 407.96,346.75 409.04,346.59C410.01,346.45 410.99,346.32 411.8,346.15C412.45,346.01 413.13,345.9 413.54,345.7C413.81,345.57 414.12,345.41 414.13,345.25C414.14,345.1 413.88,344.93 413.67,344.8C413.37,344.61 412.89,344.49 412.44,344.35C411.93,344.19 411.33,344.05 410.76,343.9C410.17,343.75 409.55,343.6 408.96,343.45C408.38,343.3 407.8,343.16 407.26,343C406.75,342.85 406.26,342.71 405.8,342.55C405.39,342.41 404.99,342.26 404.63,342.1C404.31,341.96 404.01,341.81 403.76,341.65C403.54,341.51 403.34,341.36 403.2,341.2C403.08,341.06 402.98,340.91 402.93,340.75C402.88,340.61 402.88,340.45 402.88,340.3C402.88,340.15 402.92,340 402.92,339.85C402.92,339.7 402.93,339.54 402.88,339.4C402.82,339.24 402.71,339.09 402.56,338.95C402.38,338.78 402.12,338.64 401.84,338.5C401.5,338.33 401.09,338.19 400.66,338.05C400.17,337.89 399.62,337.75 399.07,337.6C398.48,337.44 397.85,337.3 397.24,337.15C396.62,337 395.98,336.85 395.37,336.7C394.79,336.55 394.22,336.41 393.69,336.25C393.21,336.11 392.74,335.96 392.33,335.8C391.97,335.66 391.63,335.52 391.35,335.36C391.11,335.22 390.89,335.07 390.72,334.91Q390.57,334.77 390.35,334.46L389.65,334.46Q389.43,334.77 389.28,334.91C389.11,335.07 388.89,335.22 388.65,335.36C388.37,335.52 388.03,335.66 387.67,335.8C387.26,335.96 386.79,336.11 386.31,336.25C385.78,336.41 385.21,336.55 384.63,336.7C384.02,336.85 383.38,337 382.76,337.15C382.15,337.3 381.52,337.44 380.93,337.6C380.38,337.75 379.83,337.89 379.34,338.05C378.91,338.19 378.5,338.33 378.16,338.5C377.88,338.64 377.62,338.78 377.44,338.95C377.29,339.09 377.18,339.24 377.12,339.4C377.07,339.54 377.08,339.7 377.08,339.85C377.08,340 377.12,340.15 377.12,340.3C377.12,340.45 377.12,340.61 377.07,340.75C377.02,340.91 376.92,341.06 376.8,341.2C376.66,341.36 376.46,341.51 376.24,341.65C375.99,341.81 375.69,341.96 375.37,342.1C375.01,342.26 374.61,342.41 374.2,342.55C373.74,342.71 373.25,342.85 372.74,343C372.2,343.16 371.62,343.3 371.04,343.45C370.45,343.6 369.83,343.75 369.24,343.9C368.67,344.05 368.07,344.19 367.56,344.35C367.11,344.49 366.63,344.61 366.33,344.8C366.12,344.93 365.86,345.1 365.87,345.25C365.88,345.41 366.19,345.57 366.46,345.7C366.87,345.9 367.55,346.01 368.2,346.15C369.01,346.32 369.99,346.45 370.96,346.59C372.04,346.75 373.24,346.89 374.41,347.04C375.62,347.19 376.89,347.34 378.1,347.49C379.28,347.64 380.47,347.78 381.58,347.94C382.59,348.08 383.59,348.23 384.49,348.39C385.28,348.53 386.03,348.67 386.69,348.84C387.24,348.98 387.75,349.12 388.18,349.29Q388.53,349.43 389.09,349.74Z" style="vector-effect: non-scaling-stroke; stroke-width: 2px; stroke: rgb(239, 85, 59); stroke-opacity: 1; fill: rgb(239, 85, 59); fill-opacity: 0.5;"/><path class="box" d="M68.44,344.87H87.55M68.44,346.33H87.55V342.33H68.44ZM78,346.33V347.01M78,342.33V336.93" style="vector-effect: non-scaling-stroke; stroke-width: 2px; stroke: rgb(239, 85, 59); stroke-opacity: 1; fill: rgb(239, 85, 59); fill-opacity: 0.5;"/><path class="box" d="M224.44,343.4H243.55M224.44,345.73H243.55V340.49H224.44ZM234,345.73V346.98M234,340.49V336.92" style="vector-effect: non-scaling-stroke; stroke-width: 2px; stroke: rgb(239, 85, 59); stroke-opacity: 1; fill: rgb(239, 85, 59); fill-opacity: 0.5;"/><path class="box" d="M380.44,343.76H399.55M380.44,345.44H399.55V340.17H380.44ZM390,345.44V346.98M390,340.17V337.22" style="vector-effect: non-scaling-stroke; stroke-width: 2px; stroke: rgb(239, 85, 59); stroke-opacity: 1; fill: rgb(239, 85, 59); fill-opacity: 0.5;"/><path class="mean" d="M68.44,343.98H87.55" style="fill: none; vector-effect: non-scaling-stroke; stroke-width: 2px; stroke-dasharray: 4px, 2px; stroke: rgb(239, 85, 59); stroke-opacity: 1;"/><path class="mean" d="M224.44,342.93H243.55" style="fill: none; vector-effect: non-scaling-stroke; stroke-width: 2px; stroke-dasharray: 4px, 2px; stroke: rgb(239, 85, 59); stroke-opacity: 1;"/><path class="mean" d="M380.44,343.06H399.55" style="fill: none; vector-effect: non-scaling-stroke; stroke-width: 2px; stroke-dasharray: 4px, 2px; stroke: rgb(239, 85, 59); stroke-opacity: 1;"/></g></g></g><g class="overplot"/><path class="xlines-above crisp" d="M0,0" style="fill: none;"/><path class="ylines-above crisp" d="M0,0" style="fill: none;"/><g class="overlines-above"/><g class="xaxislayer-above"><g class="x2tick"><text text-anchor="middle" x="0" y="533" transform="translate(730,0)" style="font-family: 'Open Sans', verdana, arial, sans-serif; font-size: 12px; fill: rgb(42, 63, 95); fill-opacity: 1; white-space: pre; opacity: 1;">&#60;=1</text></g><g class="x2tick"><text text-anchor="middle" x="0" y="533" transform="translate(886,0)" style="font-family: 'Open Sans', verdana, arial, sans-serif; font-size: 12px; fill: rgb(42, 63, 95); fill-opacity: 1; white-space: pre; opacity: 1;">(1, 2]</text></g><g class="x2tick"><text text-anchor="middle" x="0" y="533" transform="translate(1042,0)" style="font-family: 'Open Sans', verdana, arial, sans-serif; font-size: 12px; fill: rgb(42, 63, 95); fill-opacity: 1; white-space: pre; opacity: 1;">>2</text></g></g><g class="yaxislayer-above"><g class="y2tick"><text text-anchor="end" x="651" y="4.199999999999999" transform="translate(0,512.28)" style="font-family: 'Open Sans', verdana, arial, sans-serif; font-size: 12px; fill: rgb(42, 63, 95); fill-opacity: 1; white-space: pre; opacity: 1;">−0.5M</text></g><g class="y2tick"><text text-anchor="end" x="651" y="4.199999999999999" style="font-family: 'Open Sans', verdana, arial, sans-serif; font-size: 12px; fill: rgb(42, 63, 95); fill-opacity: 1; white-space: pre; opacity: 1;" transform="translate(0,447.01)">0</text></g><g class="y2tick"><text text-anchor="end" x="651" y="4.199999999999999" style="font-family: 'Open Sans', verdana, arial, sans-serif; font-size: 12px; fill: rgb(42, 63, 95); fill-opacity: 1; white-space: pre; opacity: 1;" transform="translate(0,381.75)">0.5M</text></g><g class="y2tick"><text text-anchor="end" x="651" y="4.199999999999999" style="font-family: 'Open Sans', verdana, arial, sans-serif; font-size: 12px; fill: rgb(42, 63, 95); fill-opacity: 1; white-space: pre; opacity: 1;" transform="translate(0,316.49)">1M</text></g><g class="y2tick"><text text-anchor="end" x="651" y="4.199999999999999" style="font-family: 'Open Sans', verdana, arial, sans-serif; font-size: 12px; fill: rgb(42, 63, 95); fill-opacity: 1; white-space: pre; opacity: 1;" transform="translate(0,251.22)">1.5M</text></g><g class="y2tick"><text text-anchor="end" x="651" y="4.199999999999999" style="font-family: 'Open Sans', verdana, arial, sans-serif; font-size: 12px; fill: rgb(42, 63, 95); fill-opacity: 1; white-space: pre; opacity: 1;" transform="translate(0,185.95999999999998)">2M</text></g><g class="y2tick"><text text-anchor="end" x="651" y="4.199999999999999" style="font-family: 'Open Sans', verdana, arial, sans-serif; font-size: 12px; fill: rgb(42, 63, 95); fill-opacity: 1; white-space: pre; opacity: 1;" transform="translate(0,120.69)">2.5M</text></g></g><g class="overaxes-above"/></g></g><g class="polarlayer"/><g class="smithlayer"/><g class="ternarylayer"/><g class="geolayer"/><g class="funnelarealayer"/><g class="pielayer"/><g class="iciclelayer"/><g class="treemaplayer"/><g class="sunburstlayer"/><g class="glimages"/><defs id="topdefs-ad8eae"><g class="clips"/></defs><g class="layer-above"><g class="imagelayer"/><g class="shapelayer"/></g><g class="infolayer"><g class="g-gtitle"><text class="gtitle" x="60" y="50" text-anchor="start" dy="0em" style="font-family: 'Open Sans', verdana, arial, sans-serif; font-size: 17px; fill: rgb(42, 63, 95); opacity: 1; font-weight: normal; white-space: pre;">whole_rank Distributions (hardcover better)</text></g><g class="g-xtitle"><text class="xtitle" x="314" y="561.8" text-anchor="middle" style="font-family: 'Open Sans', verdana, arial, sans-serif; font-size: 14px; fill: rgb(42, 63, 95); opacity: 1; font-weight: normal; white-space: pre;">Hardcover over Paperback</text></g><g class="g-x2title"><text class="x2title" x="886" y="561.8" text-anchor="middle" style="font-family: 'Open Sans', verdana, arial, sans-serif; font-size: 14px; fill: rgb(42, 63, 95); opacity: 1; font-weight: normal; white-space: pre;">Hardcover over Paperback</text></g><g class="g-ytitle"><text class="ytitle" transform="rotate(-90,19.668750000000003,310)" x="19.668750000000003" y="310" text-anchor="middle" style="font-family: 'Open Sans', verdana, arial, sans-serif; font-size: 14px; fill: rgb(42, 63, 95); opacity: 1; font-weight: normal; white-space: pre;">whole_rank</text></g><g class="g-y2title"><text class="y2title" transform="rotate(-90,591.66875,310)" x="591.66875" y="310" text-anchor="middle" style="font-family: 'Open Sans', verdana, arial, sans-serif; font-size: 14px; fill: rgb(42, 63, 95); opacity: 1; font-weight: normal; white-space: pre;">whole_rank</text></g><g class="annotation" data-index="0" style="opacity: 1;"><g class="annotation-text-g" transform="rotate(0,314,87)"><g class="cursor-pointer" transform="translate(273,74)"><rect class="bg" x="0.5" y="0.5" width="82" height="25" style="stroke-width: 1px; stroke: rgb(0, 0, 0); stroke-opacity: 0; fill: rgb(0, 0, 0); fill-opacity: 0;"/><text class="annotation-text" text-anchor="middle" x="41.296875" y="19" style="font-family: 'Open Sans', verdana, arial, sans-serif; font-size: 16px; fill: rgb(42, 63, 95); fill-opacity: 1; white-space: pre;">Paperback</text></g></g></g><g class="annotation" data-index="1" style="opacity: 1;"><g class="annotation-text-g" transform="rotate(0,886,87)"><g class="cursor-pointer" transform="translate(845,74)"><rect class="bg" x="0.5" y="0.5" width="81" height="25" style="stroke-width: 1px; stroke: rgb(0, 0, 0); stroke-opacity: 0; fill: rgb(0, 0, 0); fill-opacity: 0;"/><text class="annotation-text" text-anchor="middle" x="40.921875" y="19" style="font-family: 'Open Sans', verdana, arial, sans-serif; font-size: 16px; fill: rgb(42, 63, 95); fill-opacity: 1; white-space: pre;">Hardcover</text></g></g></g></g></svg>