<svg class="main-svg" xmlns="http://www.w3.org/2000/svg" xmlns:xlink="http://www.w3.org/1999/xlink" width="1200" height="600" style="" viewBox="0 0 1200 600"><rect x="0" y="0" width="1200" height="600" style="fill: rgb(255, 255, 255); fill-opacity: 1;"/><defs id="defs-1d21c0"><g class="clips"><clipPath id="clip1d21c0xyplot" class="plotclip"><rect width="468" height="420"/></clipPath><clipPath id="clip1d21c0x2y2plot" class="plotclip"><rect width="467.99999999999994" height="420"/></clipPath><clipPath class="axesclip" id="clip1d21c0x"><rect x="80" y="0" width="468" height="600"/></clipPath><clipPath class="axesclip" id="clip1d21c0y"><rect x="0" y="100" width="1200" height="420"/></clipPath><clipPath class="axesclip" id="clip1d21c0xy"><rect x="80" y="100" width="468" height="420"/></clipPath><clipPath class="axesclip" id="clip1d21c0y2"><rect x="0" y="100" width="1200" height="420"/></clipPath><clipPath class="axesclip" id="clip1d21c0xy2"><rect x="80" y="100" width="468" height="420"/></clipPath><clipPath class="axesclip" id="clip1d21c0x2"><rect x="652" y="0" width="467.99999999999994" height="600"/></clipPath><clipPath class="axesclip" id="clip1d21c0x2y"><rect x="652" y="100" width="467.99999999999994" height="420"/></clipPath><clipPath class="axesclip" id="clip1d21c0x2y2"><rect x="652" y="100" width="467.99999999999994" height="420"/></clipPath></g><g class="gradients"/><g class="patterns"/></defs><g class="bglayer"><rect class="bg" x="80" y="100" width="468" height="420" style="fill: rgb(229, 236, 246); fill-opacity: 1; stroke-width: 0;"/><rect class="bg" x="652" y="100" width="467.99999999999994" height="420" style="fill: rgb(229, 236, 246); fill-opacity: 1; stroke-width: 0;"/></g><g class="layer-below"><g class="imagelayer"/><g class="shapelayer"/></g><g class="cartesianlayer"><g class="subplot xy"><g class="layer-subplot"><g class="shapelayer"/><g class="imagelayer"/></g><g class="minor-gridlayer"><g class="x"/><g class="y"/></g><g class="gridlayer"><g class="x"/><g class="y"><path class="ygrid crisp" transform="translate(0,437.66)" d="M80,0h468" style="stroke: rgb(255, 255, 255); stroke-opacity: 1; stroke-width: 1px;"/><path class="ygrid crisp" transform="translate(0,373.68)" d="M80,0h468" style="stroke: rgb(255, 255, 255); stroke-opacity: 1; stroke-width: 1px;"/><path class="ygrid crisp" transform="translate(0,309.7)" d="M80,0h468" style="stroke: rgb(255, 255, 255); stroke-opacity: 1; stroke-width: 1px;"/><path class="ygrid crisp" transform="translate(0,245.71)" d="M80,0h468" style="stroke: rgb(255, 255, 255); stroke-opacity: 1; stroke-width: 1px;"/><path class="ygrid crisp" transform="translate(0,181.73000000000002)" d="M80,0h468" style="stroke: rgb(255, 255, 255); stroke-opacity: 1; stroke-width: 1px;"/><path class="ygrid crisp" transform="translate(0,117.75)" d="M80,0h468" style="stroke: rgb(255, 255, 255); stroke-opacity: 1; stroke-width: 1px;"/></g></g><g class="zerolinelayer"><path class="yzl zl crisp" transform="translate(0,501.65)" d="M80,0h468" style="stroke: rgb(255, 255, 255); stroke-opacity: 1; stroke-width: 2px;"/></g><path class="xlines-below"/><path class="ylines-below"/><g class="overlines-below"/><g class="xaxislayer-below"/><g class="yaxislayer-below"/><g class="overaxes-below"/><g class="plot" transform="translate(80,100)" clip-path="url(#clip1d21c0xyplot)"><g class="violinlayer mlayer"><g class="trace violins" style="opacity: 1;"><path class="violin" d="M78.16,284.99Q78.24,281.22 78.3,279.33C78.36,277.44 78.43,275.56 78.52,273.67C78.61,271.78 78.72,269.9 78.84,268.01C78.96,266.12 79.1,264.24 79.26,262.35C79.42,260.46 79.59,258.58 79.78,256.69C79.98,254.8 80.19,252.91 80.43,251.03C80.68,249.14 80.94,247.25 81.25,245.37C81.56,243.48 81.9,241.59 82.29,239.71C82.68,237.82 83.12,235.93 83.58,234.05C84.04,232.16 84.56,230.28 85.06,228.39C85.57,226.5 86.11,224.62 86.61,222.73C87.11,220.85 87.61,218.97 88.06,217.08C88.51,215.2 88.92,213.31 89.29,211.42C89.65,209.54 89.96,207.65 90.25,205.76C90.54,203.88 90.78,201.99 91.04,200.1C91.29,198.21 91.52,196.33 91.78,194.44C92.04,192.55 92.31,190.66 92.61,188.78C92.91,186.89 93.24,185.01 93.57,183.12C93.9,181.23 94.27,179.35 94.61,177.46C94.95,175.57 95.31,173.69 95.63,171.8C95.95,169.91 96.26,168.03 96.53,166.14C96.8,164.26 97.04,162.37 97.25,160.48C97.46,158.59 97.64,156.71 97.81,154.82C97.98,152.93 98.12,151.05 98.26,149.16C98.4,147.27 98.54,145.39 98.67,143.5C98.8,141.62 98.93,139.73 99.04,137.85C99.15,135.96 99.25,134.08 99.32,132.19C99.39,130.3 99.43,128.42 99.44,126.53C99.45,124.64 99.4,122.76 99.36,120.87C99.32,118.98 99.23,117.1 99.21,115.21C99.19,113.32 99.16,111.43 99.25,109.55C99.34,107.66 99.51,105.77 99.76,103.89C100.02,102 100.42,100.11 100.78,98.23C101.15,96.34 101.65,94.46 101.95,92.57C102.24,90.69 102.57,88.8 102.55,86.91C102.53,85.02 102.33,83.1 101.83,81.25C101.31,79.33 100.43,77.43 99.44,75.59C98.39,73.65 97,71.79 95.64,69.93C94.24,68.02 92.63,66.16 91.16,64.27C89.7,62.39 88.18,60.54 86.87,58.62C85.6,56.76 84.38,54.88 83.38,52.96Q82.41,51.11 80.93,47.3L75.07,47.3Q73.59,51.11 72.62,52.96C71.62,54.88 70.4,56.76 69.13,58.62C67.82,60.54 66.3,62.39 64.84,64.27C63.37,66.16 61.76,68.02 60.36,69.93C59,71.79 57.61,73.65 56.56,75.59C55.57,77.43 54.69,79.33 54.17,81.25C53.67,83.1 53.47,85.02 53.45,86.91C53.43,88.8 53.76,90.69 54.05,92.57C54.35,94.46 54.85,96.34 55.22,98.23C55.58,100.11 55.98,102 56.24,103.89C56.49,105.77 56.66,107.66 56.75,109.55C56.84,111.43 56.81,113.32 56.79,115.21C56.77,117.1 56.68,118.98 56.64,120.87C56.6,122.76 56.55,124.64 56.56,126.53C56.57,128.42 56.61,130.3 56.68,132.19C56.75,134.08 56.85,135.96 56.96,137.85C57.07,139.73 57.2,141.62 57.33,143.5C57.46,145.39 57.6,147.27 57.74,149.16C57.88,151.05 58.02,152.93 58.19,154.82C58.36,156.71 58.54,158.59 58.75,160.48C58.96,162.37 59.2,164.26 59.47,166.14C59.74,168.03 60.05,169.91 60.37,171.8C60.69,173.69 61.05,175.57 61.39,177.46C61.73,179.35 62.1,181.23 62.43,183.12C62.76,185.01 63.09,186.89 63.39,188.78C63.69,190.66 63.96,192.55 64.22,194.44C64.48,196.33 64.71,198.21 64.96,200.1C65.22,201.99 65.46,203.88 65.75,205.76C66.04,207.65 66.35,209.54 66.71,211.42C67.08,213.31 67.49,215.2 67.94,217.08C68.39,218.97 68.89,220.85 69.39,222.73C69.89,224.62 70.43,226.5 70.94,228.39C71.44,230.28 71.96,232.16 72.42,234.05C72.88,235.93 73.32,237.82 73.71,239.71C74.1,241.59 74.44,243.48 74.75,245.37C75.06,247.25 75.32,249.14 75.57,251.03C75.81,252.91 76.02,254.8 76.22,256.69C76.41,258.58 76.58,260.46 76.74,262.35C76.9,264.24 77.04,266.12 77.16,268.01C77.28,269.9 77.39,271.78 77.48,273.67C77.57,275.56 77.64,277.44 77.7,279.33Q77.76,281.22 77.84,284.99Z" style="vector-effect: non-scaling-stroke; stroke-width: 2px; stroke: rgb(99, 110, 250); stroke-opacity: 1; fill: rgb(99, 110, 250); fill-opacity: 0.5;"/><path class="violin" d="M234.01,367.7Q234.01,365.01 234.01,363.67C234.01,362.33 234.02,360.98 234.02,359.64C234.03,358.3 234.03,356.95 234.04,355.61C234.04,354.27 234.05,352.92 234.05,351.58C234.06,350.24 234.06,348.89 234.07,347.55C234.07,346.21 234.08,344.87 234.08,343.53C234.08,342.19 234.09,340.84 234.09,339.5C234.09,338.16 234.09,336.81 234.09,335.47C234.09,334.13 234.09,332.78 234.09,331.44C234.09,330.1 234.08,328.75 234.08,327.41C234.07,326.07 234.06,324.72 234.06,323.38C234.06,322.04 234.06,320.7 234.06,319.36C234.06,318.02 234.06,316.67 234.06,315.33C234.06,313.99 234.07,312.64 234.08,311.3C234.09,309.96 234.1,308.61 234.12,307.27C234.14,305.93 234.16,304.58 234.19,303.24C234.22,301.9 234.25,300.55 234.28,299.21C234.31,297.87 234.35,296.53 234.38,295.19C234.42,293.85 234.45,292.5 234.49,291.16C234.52,289.82 234.56,288.47 234.59,287.13C234.62,285.79 234.65,284.44 234.68,283.1C234.71,281.76 234.73,280.41 234.76,279.07C234.78,277.73 234.8,276.38 234.83,275.04C234.85,273.7 234.88,272.36 234.91,271.02C234.94,269.68 234.97,268.33 235.02,266.99C235.07,265.65 235.12,264.3 235.19,262.96C235.26,261.62 235.34,260.27 235.45,258.93C235.56,257.59 235.68,256.24 235.83,254.9C235.98,253.56 236.16,252.21 236.37,250.87C236.58,249.53 236.81,248.19 237.08,246.85C237.35,245.5 237.67,244.16 238.01,242.82C238.35,241.47 238.73,240.13 239.14,238.79C239.55,237.44 240,236.1 240.46,234.76C240.92,233.41 241.41,232.07 241.88,230.73C242.35,229.39 242.83,228.05 243.28,226.7C243.72,225.36 244.16,224.03 244.55,222.68C244.94,221.34 245.3,220 245.61,218.65C245.92,217.31 246.19,215.97 246.43,214.62C246.67,213.28 246.86,211.93 247.04,210.59C247.22,209.25 247.36,207.9 247.5,206.56C247.64,205.22 247.76,203.87 247.88,202.53C248,201.19 248.1,199.85 248.21,198.51C248.32,197.17 248.44,195.82 248.55,194.48C248.67,193.14 248.78,191.79 248.9,190.45C249.02,189.11 249.14,187.76 249.25,186.42C249.36,185.08 249.47,183.73 249.56,182.39C249.65,181.05 249.74,179.7 249.8,178.36C249.86,177.02 249.91,175.68 249.94,174.34C249.97,173 249.98,171.65 249.98,170.31C249.98,168.97 249.96,167.62 249.95,166.28C249.94,164.94 249.92,163.59 249.92,162.25C249.92,160.91 249.92,159.56 249.93,158.22C249.94,156.88 249.96,155.53 249.98,154.19C250,152.85 250.03,151.51 250.04,150.17C250.05,148.83 250.06,147.48 250.06,146.14C250.06,144.8 250.04,143.45 250.03,142.11C250.02,140.77 250,139.42 250,138.08C250,136.74 250.01,135.39 250.06,134.05C250.11,132.71 250.18,131.36 250.28,130.02C250.38,128.68 250.54,127.34 250.66,126C250.79,124.66 250.94,123.31 251.03,121.97C251.12,120.63 251.19,119.28 251.2,117.94C251.21,116.6 251.13,115.25 251.09,113.91C251.05,112.57 250.91,111.22 250.95,109.88C250.99,108.54 251.01,107.17 251.35,105.85C251.7,104.48 252.25,103.11 253.05,101.83C253.93,100.41 255.2,99.09 256.53,97.8C258,96.39 259.84,95.1 261.56,93.77C263.32,92.41 265.35,91.14 266.99,89.74C268.5,88.45 270.22,87.18 271.09,85.71C271.83,84.46 272.41,82.98 272.22,81.68C272.02,80.29 270.85,78.9 269.68,77.66C268.26,76.16 266.05,74.92 263.99,73.63C261.73,72.22 259.08,70.94 256.63,69.6C254.19,68.26 251.6,66.96 249.31,65.57C247.17,64.27 245.06,62.96 243.28,61.54Q241.68,60.26 239.04,57.51L228.96,57.51Q226.32,60.26 224.72,61.54C222.94,62.96 220.83,64.27 218.69,65.57C216.4,66.96 213.81,68.26 211.37,69.6C208.92,70.94 206.27,72.22 204.01,73.63C201.95,74.92 199.74,76.16 198.32,77.66C197.15,78.9 195.98,80.29 195.78,81.68C195.59,82.98 196.17,84.46 196.91,85.71C197.78,87.18 199.5,88.45 201.01,89.74C202.65,91.14 204.68,92.41 206.44,93.77C208.16,95.1 210,96.39 211.47,97.8C212.8,99.09 214.07,100.41 214.95,101.83C215.75,103.11 216.3,104.48 216.65,105.85C216.99,107.17 217.01,108.54 217.05,109.88C217.09,111.22 216.95,112.57 216.91,113.91C216.87,115.25 216.79,116.6 216.8,117.94C216.81,119.28 216.88,120.63 216.97,121.97C217.06,123.31 217.21,124.66 217.34,126C217.46,127.34 217.62,128.68 217.72,130.02C217.82,131.36 217.89,132.71 217.94,134.05C217.99,135.39 218,136.74 218,138.08C218,139.42 217.98,140.77 217.97,142.11C217.96,143.45 217.94,144.8 217.94,146.14C217.94,147.48 217.95,148.83 217.96,150.17C217.97,151.51 218,152.85 218.02,154.19C218.04,155.53 218.06,156.88 218.07,158.22C218.08,159.56 218.08,160.91 218.08,162.25C218.08,163.59 218.06,164.94 218.05,166.28C218.04,167.62 218.02,168.97 218.02,170.31C218.02,171.65 218.03,173 218.06,174.34C218.09,175.68 218.14,177.02 218.2,178.36C218.26,179.7 218.35,181.05 218.44,182.39C218.53,183.73 218.64,185.08 218.75,186.42C218.86,187.76 218.98,189.11 219.1,190.45C219.22,191.79 219.33,193.14 219.45,194.48C219.56,195.82 219.68,197.17 219.79,198.51C219.9,199.85 220,201.19 220.12,202.53C220.24,203.87 220.36,205.22 220.5,206.56C220.64,207.9 220.78,209.25 220.96,210.59C221.14,211.93 221.33,213.28 221.57,214.62C221.81,215.97 222.08,217.31 222.39,218.65C222.7,220 223.06,221.34 223.45,222.68C223.84,224.03 224.28,225.36 224.72,226.7C225.17,228.05 225.65,229.39 226.12,230.73C226.59,232.07 227.08,233.41 227.54,234.76C228,236.1 228.45,237.44 228.86,238.79C229.27,240.13 229.65,241.47 229.99,242.82C230.33,244.16 230.65,245.5 230.92,246.85C231.19,248.19 231.42,249.53 231.63,250.87C231.84,252.21 232.02,253.56 232.17,254.9C232.32,256.24 232.44,257.59 232.55,258.93C232.66,260.27 232.74,261.62 232.81,262.96C232.88,264.3 232.93,265.65 232.98,266.99C233.03,268.33 233.06,269.68 233.09,271.02C233.12,272.36 233.15,273.7 233.17,275.04C233.2,276.38 233.22,277.73 233.24,279.07C233.27,280.41 233.29,281.76 233.32,283.1C233.35,284.44 233.38,285.79 233.41,287.13C233.44,288.47 233.48,289.82 233.51,291.16C233.55,292.5 233.58,293.85 233.62,295.19C233.65,296.53 233.69,297.87 233.72,299.21C233.75,300.55 233.78,301.9 233.81,303.24C233.84,304.58 233.86,305.93 233.88,307.27C233.9,308.61 233.91,309.96 233.92,311.3C233.93,312.64 233.94,313.99 233.94,315.33C233.94,316.67 233.94,318.02 233.94,319.36C233.94,320.7 233.94,322.04 233.94,323.38C233.94,324.72 233.93,326.07 233.92,327.41C233.92,328.75 233.91,330.1 233.91,331.44C233.91,332.78 233.91,334.13 233.91,335.47C233.91,336.81 233.91,338.16 233.91,339.5C233.91,340.84 233.92,342.19 233.92,343.53C233.92,344.87 233.93,346.21 233.93,347.55C233.94,348.89 233.94,350.24 233.95,351.58C233.95,352.92 233.96,354.27 233.96,355.61C233.97,356.95 233.97,358.3 233.98,359.64C233.98,360.98 233.99,362.33 233.99,363.67Q233.99,365.01 233.99,367.7Z" style="vector-effect: non-scaling-stroke; stroke-width: 2px; stroke: rgb(99, 110, 250); stroke-opacity: 1; fill: rgb(99, 110, 250); fill-opacity: 0.5;"/><path class="violin" d="M390.01,399Q390.02,395.98 390.02,394.47C390.02,392.96 390.02,391.44 390.03,389.93C390.03,388.42 390.04,386.91 390.05,385.4C390.06,383.89 390.06,382.37 390.07,380.86C390.08,379.35 390.08,377.84 390.09,376.33C390.1,374.82 390.1,373.3 390.11,371.79C390.11,370.28 390.12,368.77 390.12,367.26C390.12,365.75 390.12,364.23 390.12,362.72C390.12,361.21 390.11,359.7 390.11,358.19C390.11,356.68 390.11,355.16 390.1,353.65C390.1,352.14 390.09,350.63 390.08,349.12C390.07,347.61 390.07,346.09 390.06,344.58C390.05,343.07 390.05,341.56 390.04,340.05C390.03,338.54 390.03,337.02 390.02,335.51C390.02,334 390.01,332.49 390.01,330.98C390.01,329.47 390.01,327.96 390.01,326.45C390.01,324.94 390.01,323.42 390.01,321.91C390.01,320.4 390.02,318.89 390.03,317.38C390.04,315.87 390.04,314.35 390.05,312.84C390.06,311.33 390.07,309.82 390.08,308.31C390.09,306.8 390.11,305.28 390.13,303.77C390.15,302.26 390.16,300.75 390.18,299.24C390.2,297.73 390.22,296.21 390.24,294.7C390.26,293.19 390.29,291.68 390.31,290.17C390.33,288.66 390.35,287.14 390.38,285.63C390.41,284.12 390.44,282.61 390.47,281.1C390.51,279.59 390.54,278.07 390.59,276.56C390.64,275.05 390.69,273.54 390.75,272.03C390.82,270.52 390.89,269 390.98,267.49C391.07,265.98 391.17,264.47 391.3,262.96C391.43,261.45 391.57,259.93 391.75,258.42C391.93,256.91 392.13,255.4 392.37,253.89C392.61,252.38 392.89,250.87 393.21,249.36C393.53,247.84 393.9,246.33 394.31,244.82C394.73,243.3 395.2,241.79 395.7,240.29C396.21,238.77 396.77,237.26 397.35,235.75C397.94,234.23 398.58,232.73 399.21,231.22C399.84,229.71 400.49,228.2 401.11,226.68C401.72,225.17 402.35,223.67 402.9,222.15C403.45,220.64 403.98,219.13 404.42,217.61C404.86,216.11 405.24,214.6 405.55,213.08C405.86,211.57 406.09,210.06 406.29,208.54C406.49,207.03 406.61,205.52 406.73,204.01C406.85,202.5 406.91,200.98 406.99,199.47C407.07,197.96 407.13,196.45 407.19,194.94C407.26,193.43 407.32,191.91 407.38,190.4C407.44,188.89 407.5,187.38 407.53,185.87C407.56,184.36 407.58,182.85 407.57,181.34C407.56,179.83 407.51,178.31 407.44,176.8C407.37,175.29 407.25,173.78 407.14,172.27C407.02,170.76 406.88,169.24 406.75,167.73C406.62,166.22 406.48,164.71 406.37,163.2C406.26,161.69 406.16,160.17 406.07,158.66C405.98,157.15 405.92,155.64 405.85,154.13C405.77,152.62 405.71,151.1 405.62,149.59C405.53,148.08 405.45,146.57 405.32,145.06C405.19,143.55 405.04,142.03 404.86,140.52C404.68,139.01 404.46,137.5 404.24,135.99C404.01,134.48 403.76,132.96 403.51,131.45C403.26,129.94 402.98,128.43 402.73,126.92C402.48,125.41 402.2,123.89 401.99,122.38C401.78,120.87 401.55,119.36 401.45,117.85C401.35,116.34 401.26,114.82 401.41,113.32C401.56,111.8 401.82,110.26 402.35,108.78C402.91,107.23 403.75,105.7 404.77,104.25C405.89,102.66 407.38,101.17 408.91,99.71C410.56,98.14 412.53,96.68 414.37,95.18C416.23,93.66 418.32,92.22 420.01,90.64C421.57,89.18 423.28,87.74 424.19,86.11C424.98,84.69 425.59,83.06 425.45,81.57C425.3,80.03 424.28,78.45 423.18,77.04C421.89,75.39 419.84,73.95 417.92,72.5C415.84,70.92 413.36,69.48 411.09,67.97C408.82,66.46 406.41,64.99 404.29,63.43C402.29,61.96 400.33,60.49 398.68,58.9Q397.17,57.45 394.72,54.36L385.28,54.36Q382.83,57.45 381.32,58.9C379.67,60.49 377.71,61.96 375.71,63.43C373.59,64.99 371.18,66.46 368.91,67.97C366.64,69.48 364.16,70.92 362.08,72.5C360.16,73.95 358.11,75.39 356.82,77.04C355.72,78.45 354.7,80.03 354.55,81.57C354.41,83.06 355.02,84.69 355.81,86.11C356.72,87.74 358.43,89.18 359.99,90.64C361.68,92.22 363.77,93.66 365.63,95.18C367.47,96.68 369.44,98.14 371.09,99.71C372.62,101.17 374.11,102.66 375.23,104.25C376.25,105.7 377.09,107.23 377.65,108.78C378.18,110.26 378.44,111.8 378.59,113.32C378.74,114.82 378.65,116.34 378.55,117.85C378.45,119.36 378.22,120.87 378.01,122.38C377.8,123.89 377.52,125.41 377.27,126.92C377.02,128.43 376.74,129.94 376.49,131.45C376.24,132.96 375.99,134.48 375.76,135.99C375.54,137.5 375.32,139.01 375.14,140.52C374.96,142.03 374.81,143.55 374.68,145.06C374.55,146.57 374.47,148.08 374.38,149.59C374.29,151.1 374.23,152.62 374.15,154.13C374.08,155.64 374.02,157.15 373.93,158.66C373.84,160.17 373.74,161.69 373.63,163.2C373.52,164.71 373.38,166.22 373.25,167.73C373.12,169.24 372.98,170.76 372.86,172.27C372.75,173.78 372.63,175.29 372.56,176.8C372.49,178.31 372.44,179.83 372.43,181.34C372.42,182.85 372.44,184.36 372.47,185.87C372.5,187.38 372.56,188.89 372.62,190.4C372.68,191.91 372.74,193.43 372.81,194.94C372.87,196.45 372.93,197.96 373.01,199.47C373.09,200.98 373.15,202.5 373.27,204.01C373.39,205.52 373.51,207.03 373.71,208.54C373.91,210.06 374.14,211.57 374.45,213.08C374.76,214.6 375.14,216.11 375.58,217.61C376.02,219.13 376.55,220.64 377.1,222.15C377.65,223.67 378.28,225.17 378.89,226.68C379.51,228.2 380.16,229.71 380.79,231.22C381.42,232.73 382.06,234.23 382.65,235.75C383.23,237.26 383.79,238.77 384.3,240.29C384.8,241.79 385.27,243.3 385.69,244.82C386.1,246.33 386.47,247.84 386.79,249.36C387.11,250.87 387.39,252.38 387.63,253.89C387.87,255.4 388.07,256.91 388.25,258.42C388.43,259.93 388.57,261.45 388.7,262.96C388.83,264.47 388.93,265.98 389.02,267.49C389.11,269 389.18,270.52 389.25,272.03C389.31,273.54 389.36,275.05 389.41,276.56C389.46,278.07 389.49,279.59 389.53,281.1C389.56,282.61 389.59,284.12 389.62,285.63C389.65,287.14 389.67,288.66 389.69,290.17C389.71,291.68 389.74,293.19 389.76,294.7C389.78,296.21 389.8,297.73 389.82,299.24C389.84,300.75 389.85,302.26 389.87,303.77C389.89,305.28 389.91,306.8 389.92,308.31C389.93,309.82 389.94,311.33 389.95,312.84C389.96,314.35 389.96,315.87 389.97,317.38C389.98,318.89 389.99,320.4 389.99,321.91C389.99,323.42 389.99,324.94 389.99,326.45C389.99,327.96 389.99,329.47 389.99,330.98C389.99,332.49 389.98,334 389.98,335.51C389.97,337.02 389.97,338.54 389.96,340.05C389.95,341.56 389.95,343.07 389.94,344.58C389.93,346.09 389.93,347.61 389.92,349.12C389.91,350.63 389.9,352.14 389.9,353.65C389.89,355.16 389.89,356.68 389.89,358.19C389.89,359.7 389.88,361.21 389.88,362.72C389.88,364.23 389.88,365.75 389.88,367.26C389.88,368.77 389.89,370.28 389.89,371.79C389.9,373.3 389.9,374.82 389.91,376.33C389.92,377.84 389.92,379.35 389.93,380.86C389.94,382.37 389.94,383.89 389.95,385.4C389.96,386.91 389.97,388.42 389.97,389.93C389.98,391.44 389.98,392.96 389.98,394.47Q389.98,395.98 389.99,399Z" style="vector-effect: non-scaling-stroke; stroke-width: 2px; stroke: rgb(99, 110, 250); stroke-opacity: 1; fill: rgb(99, 110, 250); fill-opacity: 0.5;"/><path class="box" d="M68.45,132.61H87.56M68.45,172.78H87.56V81.73H68.45ZM78,172.78V250.55M78,81.73V81.73" style="vector-effect: non-scaling-stroke; stroke-width: 2px; stroke: rgb(99, 110, 250); stroke-opacity: 1; fill: rgb(99, 110, 250); fill-opacity: 0.5;"/><path class="box" d="M224.45,129.74H243.56M224.45,178.27H243.56V81.73H224.45ZM234,178.27V295.88M234,81.73V81.73" style="vector-effect: non-scaling-stroke; stroke-width: 2px; stroke: rgb(99, 110, 250); stroke-opacity: 1; fill: rgb(99, 110, 250); fill-opacity: 0.5;"/><path class="box" d="M380.45,137.79H399.55M380.45,187.72H399.55V81.73H380.45ZM390,187.72V292.18M390,81.73V81.73" style="vector-effect: non-scaling-stroke; stroke-width: 2px; stroke: rgb(99, 110, 250); stroke-opacity: 1; fill: rgb(99, 110, 250); fill-opacity: 0.5;"/><path class="mean" d="M68.45,137.32H87.56" style="fill: none; vector-effect: non-scaling-stroke; stroke-width: 2px; stroke-dasharray: 4px, 2px; stroke: rgb(99, 110, 250); stroke-opacity: 1;"/><path class="mean" d="M224.45,136.94H243.56" style="fill: none; vector-effect: non-scaling-stroke; stroke-width: 2px; stroke-dasharray: 4px, 2px; stroke: rgb(99, 110, 250); stroke-opacity: 1;"/><path class="mean" d="M380.45,140.94H399.55" style="fill: none; vector-effect: non-scaling-stroke; stroke-width: 2px; stroke-dasharray: 4px, 2px; stroke: rgb(99, 110, 250); stroke-opacity: 1;"/></g></g></g><g class="overplot"/><path class="xlines-above crisp" d="M0,0" style="fill: none;"/><path class="ylines-above crisp" d="M0,0" style="fill: none;"/><g class="overlines-above"/><g class="xaxislayer-above"><g class="xtick"><text text-anchor="middle" x="0" y="533" transform="translate(158,0)" style="font-family: 'Open Sans', verdana, arial, sans-serif; font-size: 12px; fill: rgb(42, 63, 95); fill-opacity: 1; white-space: pre; opacity: 1;">&#60;=1</text></g><g class="xtick"><text text-anchor="middle" x="0" y="533" transform="translate(314,0)" style="font-family: 'Open Sans', verdana, arial, sans-serif; font-size: 12px; fill: rgb(42, 63, 95); fill-opacity: 1; white-space: pre; opacity: 1;">(1, 2]</text></g><g class="xtick"><text text-anchor="middle" x="0" y="533" transform="translate(470,0)" style="font-family: 'Open Sans', verdana, arial, sans-serif; font-size: 12px; fill: rgb(42, 63, 95); fill-opacity: 1; white-space: pre; opacity: 1;">>2</text></g></g><g class="yaxislayer-above"><g class="ytick"><text text-anchor="end" x="79" y="4.199999999999999" transform="translate(0,501.65)" style="font-family: 'Open Sans', verdana, arial, sans-serif; font-size: 12px; fill: rgb(42, 63, 95); fill-opacity: 1; white-space: pre; opacity: 1;">0</text></g><g class="ytick"><text text-anchor="end" x="79" y="4.199999999999999" style="font-family: 'Open Sans', verdana, arial, sans-serif; font-size: 12px; fill: rgb(42, 63, 95); fill-opacity: 1; white-space: pre; opacity: 1;" transform="translate(0,437.66)">0.2</text></g><g class="ytick"><text text-anchor="end" x="79" y="4.199999999999999" style="font-family: 'Open Sans', verdana, arial, sans-serif; font-size: 12px; fill: rgb(42, 63, 95); fill-opacity: 1; white-space: pre; opacity: 1;" transform="translate(0,373.68)">0.4</text></g><g class="ytick"><text text-anchor="end" x="79" y="4.199999999999999" style="font-family: 'Open Sans', verdana, arial, sans-serif; font-size: 12px; fill: rgb(42, 63, 95); fill-opacity: 1; white-space: pre; opacity: 1;" transform="translate(0,309.7)">0.6</text></g><g class="ytick"><text text-anchor="end" x="79" y="4.199999999999999" style="font-family: 'Open Sans', verdana, arial, sans-serif; font-size: 12px; fill: rgb(42, 63, 95); fill-opacity: 1; white-space: pre; opacity: 1;" transform="translate(0,245.71)">0.8</text></g><g class="ytick"><text text-anchor="end" x="79" y="4.199999999999999" style="font-family: 'Open Sans', verdana, arial, sans-serif; font-size: 12px; fill: rgb(42, 63, 95); fill-opacity: 1; white-space: pre; opacity: 1;" transform="translate(0,181.73000000000002)">1</text></g><g class="ytick"><text text-anchor="end" x="79" y="4.199999999999999" style="font-family: 'Open Sans', verdana, arial, sans-serif; font-size: 12px; fill: rgb(42, 63, 95); fill-opacity: 1; white-space: pre; opacity: 1;" transform="translate(0,117.75)">1.2</text></g></g><g class="overaxes-above"/></g><g class="subplot x2y2"><g class="layer-subplot"><g class="shapelayer"/><g class="imagelayer"/></g><g class="minor-gridlayer"><g class="x2"/><g class="y2"/></g><g class="gridlayer"><g class="x2"/><g class="y2"><path class="y2grid crisp" transform="translate(0,437.66)" d="M652,0h467.99999999999994" style="stroke: rgb(255, 255, 255); stroke-opacity: 1; stroke-width: 1px;"/><path class="y2grid crisp" transform="translate(0,373.68)" d="M652,0h467.99999999999994" style="stroke: rgb(255, 255, 255); stroke-opacity: 1; stroke-width: 1px;"/><path class="y2grid crisp" transform="translate(0,309.7)" d="M652,0h467.99999999999994" style="stroke: rgb(255, 255, 255); stroke-opacity: 1; stroke-width: 1px;"/><path class="y2grid crisp" transform="translate(0,245.71)" d="M652,0h467.99999999999994" style="stroke: rgb(255, 255, 255); stroke-opacity: 1; stroke-width: 1px;"/><path class="y2grid crisp" transform="translate(0,181.73000000000002)" d="M652,0h467.99999999999994" style="stroke: rgb(255, 255, 255); stroke-opacity: 1; stroke-width: 1px;"/><path class="y2grid crisp" transform="translate(0,117.75)" d="M652,0h467.99999999999994" style="stroke: rgb(255, 255, 255); stroke-opacity: 1; stroke-width: 1px;"/></g></g><g class="zerolinelayer"><path class="y2zl zl crisp" transform="translate(0,501.65)" d="M652,0h467.99999999999994" style="stroke: rgb(255, 255, 255); stroke-opacity: 1; stroke-width: 2px;"/></g><path class="xlines-below"/><path class="ylines-below"/><g class="overlines-below"/><g class="xaxislayer-below"/><g class="yaxislayer-below"/><g class="overaxes-below"/><g class="plot" transform="translate(652,100)" clip-path="url(#clip1d21c0x2y2plot)"><g class="violinlayer mlayer"><g class="trace violins" style="opacity: 1;"><path class="violin" d="M78.03,398.98Q78.05,392.35 78.06,389.03C78.07,385.71 78.09,382.4 78.11,379.08C78.13,375.77 78.15,372.45 78.18,369.14C78.21,365.82 78.25,362.51 78.29,359.19C78.33,355.87 78.37,352.56 78.43,349.24C78.48,345.93 78.55,342.61 78.62,339.3C78.69,335.98 78.77,332.67 78.85,329.35C78.93,326.03 79.02,322.72 79.11,319.4C79.2,316.09 79.3,312.77 79.39,309.46C79.48,306.14 79.57,302.83 79.66,299.51C79.74,296.19 79.83,292.88 79.9,289.56C79.97,286.25 80.04,282.93 80.09,279.62C80.14,276.3 80.18,272.99 80.21,269.67C80.24,266.35 80.26,263.04 80.27,259.72C80.28,256.41 80.28,253.09 80.26,249.78C80.24,246.46 80.21,243.15 80.17,239.83C80.12,236.51 80.06,233.2 79.99,229.88C79.92,226.56 79.83,223.25 79.73,219.93C79.64,216.62 79.53,213.3 79.42,209.99C79.31,206.67 79.2,203.36 79.09,200.04C78.99,196.72 78.88,193.41 78.79,190.09C78.71,186.78 78.63,183.46 78.58,180.15C78.53,176.83 78.49,173.52 78.49,170.2C78.49,166.88 78.5,163.57 78.57,160.25C78.64,156.94 78.73,153.62 78.9,150.31C79.07,146.99 79.28,143.67 79.57,140.36C79.86,137.04 80.22,133.72 80.64,130.41C81.06,127.09 81.58,123.78 82.11,120.47C82.64,117.15 83.25,113.84 83.81,110.52C84.36,107.2 84.98,103.89 85.44,100.57C85.9,97.26 86.34,93.95 86.59,90.63C86.84,87.32 86.96,84 86.92,80.68C86.88,77.36 86.66,74.04 86.34,70.73C86.02,67.41 85.52,64.1 85.01,60.79C84.5,57.47 83.87,54.16 83.3,50.84C82.73,47.52 82.11,44.21 81.59,40.89C81.07,37.58 80.59,34.27 80.19,30.95Q79.79,27.64 79.2,21L76.8,21Q76.21,27.64 75.81,30.95C75.41,34.27 74.93,37.58 74.41,40.89C73.89,44.21 73.27,47.52 72.7,50.84C72.13,54.16 71.5,57.47 70.99,60.79C70.48,64.1 69.98,67.41 69.66,70.73C69.34,74.04 69.12,77.36 69.08,80.68C69.04,84 69.16,87.32 69.41,90.63C69.66,93.95 70.1,97.26 70.56,100.57C71.02,103.89 71.64,107.2 72.19,110.52C72.75,113.84 73.36,117.15 73.89,120.47C74.42,123.78 74.94,127.09 75.36,130.41C75.78,133.72 76.14,137.04 76.43,140.36C76.72,143.67 76.93,146.99 77.1,150.31C77.27,153.62 77.36,156.94 77.43,160.25C77.5,163.57 77.51,166.88 77.51,170.2C77.51,173.52 77.47,176.83 77.42,180.15C77.37,183.46 77.29,186.78 77.21,190.09C77.12,193.41 77.01,196.72 76.91,200.04C76.8,203.36 76.69,206.67 76.58,209.99C76.47,213.3 76.36,216.62 76.27,219.93C76.17,223.25 76.08,226.56 76.01,229.88C75.94,233.2 75.88,236.51 75.83,239.83C75.79,243.15 75.76,246.46 75.74,249.78C75.72,253.09 75.72,256.41 75.73,259.72C75.74,263.04 75.76,266.35 75.79,269.67C75.82,272.99 75.86,276.3 75.91,279.62C75.96,282.93 76.03,286.25 76.1,289.56C76.17,292.88 76.26,296.19 76.34,299.51C76.43,302.83 76.52,306.14 76.61,309.46C76.7,312.77 76.8,316.09 76.89,319.4C76.98,322.72 77.07,326.03 77.15,329.35C77.23,332.67 77.31,335.98 77.38,339.3C77.45,342.61 77.52,345.93 77.57,349.24C77.63,352.56 77.67,355.87 77.71,359.19C77.75,362.51 77.79,365.82 77.82,369.14C77.85,372.45 77.87,375.77 77.89,379.08C77.91,382.4 77.93,385.71 77.94,389.03Q77.95,392.35 77.97,398.98Z" style="vector-effect: non-scaling-stroke; stroke-width: 2px; stroke: rgb(239, 85, 59); stroke-opacity: 1; fill: rgb(239, 85, 59); fill-opacity: 0.5;"/><path class="violin" d="M234.01,375.24Q234.01,372.03 234.01,370.42C234.01,368.82 234.02,367.21 234.02,365.61C234.02,364.01 234.03,362.4 234.03,360.8C234.03,359.19 234.04,357.59 234.04,355.98C234.04,354.38 234.05,352.77 234.05,351.17C234.05,349.56 234.06,347.96 234.06,346.35C234.06,344.75 234.07,343.14 234.07,341.54C234.07,339.94 234.07,338.33 234.07,336.73C234.07,335.12 234.07,333.52 234.07,331.91C234.07,330.31 234.07,328.7 234.07,327.1C234.07,325.49 234.07,323.89 234.08,322.28C234.08,320.68 234.09,319.07 234.1,317.47C234.11,315.87 234.12,314.26 234.13,312.66C234.14,311.05 234.15,309.45 234.17,307.84C234.18,306.24 234.2,304.63 234.22,303.03C234.23,301.43 234.25,299.82 234.26,298.22C234.28,296.61 234.29,295.01 234.31,293.4C234.33,291.8 234.34,290.19 234.36,288.59C234.38,286.98 234.39,285.38 234.41,283.77C234.43,282.17 234.44,280.56 234.46,278.96C234.48,277.36 234.51,275.75 234.54,274.15C234.57,272.54 234.59,270.94 234.64,269.33C234.68,267.73 234.74,266.12 234.81,264.52C234.88,262.91 234.96,261.31 235.06,259.7C235.16,258.1 235.28,256.49 235.42,254.89C235.56,253.29 235.71,251.68 235.89,250.08C236.07,248.47 236.27,246.87 236.48,245.26C236.69,243.66 236.92,242.05 237.14,240.45C237.37,238.84 237.61,237.24 237.83,235.63C238.05,234.03 238.28,232.42 238.47,230.82C238.66,229.22 238.84,227.62 238.99,226.01C239.14,224.41 239.26,222.8 239.35,221.19C239.44,219.59 239.49,217.98 239.52,216.38C239.55,214.78 239.54,213.17 239.52,211.57C239.5,209.96 239.45,208.36 239.39,206.75C239.33,205.15 239.26,203.54 239.18,201.94C239.1,200.33 239.01,198.73 238.93,197.12C238.85,195.52 238.77,193.91 238.69,192.31C238.61,190.71 238.54,189.1 238.47,187.5C238.4,185.89 238.33,184.29 238.26,182.68C238.2,181.08 238.14,179.47 238.08,177.87C238.02,176.26 237.96,174.66 237.9,173.05C237.84,171.45 237.79,169.84 237.73,168.24C237.67,166.64 237.61,165.03 237.55,163.43C237.49,161.82 237.43,160.22 237.37,158.61C237.31,157.01 237.25,155.4 237.19,153.8C237.13,152.2 237.05,150.59 236.99,148.99C236.92,147.38 236.86,145.78 236.8,144.17C236.74,142.57 236.68,140.96 236.62,139.36C236.56,137.75 236.51,136.15 236.46,134.54C236.41,132.94 236.37,131.33 236.33,129.73C236.3,128.13 236.26,126.52 236.25,124.92C236.24,123.31 236.24,121.71 236.28,120.1C236.32,118.5 236.37,116.89 236.5,115.29C236.63,113.68 236.79,112.07 237.04,110.47C237.29,108.86 237.61,107.25 238.01,105.66C238.42,104.05 238.93,102.45 239.47,100.85C240.02,99.24 240.67,97.64 241.27,96.03C241.87,94.43 242.55,92.84 243.07,91.22C243.59,89.63 244.11,88.02 244.39,86.4C244.67,84.81 244.83,83.19 244.78,81.59C244.73,79.98 244.46,78.37 244.09,76.78C243.71,75.16 243.1,73.55 242.49,71.96C241.87,70.34 241.1,68.75 240.41,67.15C239.72,65.55 238.97,63.95 238.34,62.34C237.72,60.74 237.13,59.14 236.64,57.52Q236.16,55.93 235.43,52.71L232.57,52.71Q231.84,55.93 231.36,57.52C230.87,59.14 230.28,60.74 229.66,62.34C229.03,63.95 228.28,65.55 227.59,67.15C226.9,68.75 226.13,70.34 225.51,71.96C224.9,73.55 224.29,75.16 223.91,76.78C223.54,78.37 223.27,79.98 223.22,81.59C223.17,83.19 223.33,84.81 223.61,86.4C223.89,88.02 224.41,89.63 224.93,91.22C225.45,92.84 226.13,94.43 226.73,96.03C227.33,97.64 227.98,99.24 228.53,100.85C229.07,102.45 229.58,104.05 229.99,105.66C230.39,107.25 230.71,108.86 230.96,110.47C231.21,112.07 231.37,113.68 231.5,115.29C231.63,116.89 231.68,118.5 231.72,120.1C231.76,121.71 231.76,123.31 231.75,124.92C231.74,126.52 231.7,128.13 231.67,129.73C231.63,131.33 231.59,132.94 231.54,134.54C231.49,136.15 231.44,137.75 231.38,139.36C231.32,140.96 231.26,142.57 231.2,144.17C231.14,145.78 231.08,147.38 231.01,148.99C230.95,150.59 230.87,152.2 230.81,153.8C230.75,155.4 230.69,157.01 230.63,158.61C230.57,160.22 230.51,161.82 230.45,163.43C230.39,165.03 230.33,166.64 230.27,168.24C230.21,169.84 230.16,171.45 230.1,173.05C230.04,174.66 229.98,176.26 229.92,177.87C229.86,179.47 229.8,181.08 229.74,182.68C229.67,184.29 229.6,185.89 229.53,187.5C229.46,189.1 229.39,190.71 229.31,192.31C229.23,193.91 229.15,195.52 229.07,197.12C228.99,198.73 228.9,200.33 228.82,201.94C228.74,203.54 228.67,205.15 228.61,206.75C228.55,208.36 228.5,209.96 228.48,211.57C228.46,213.17 228.45,214.78 228.48,216.38C228.51,217.98 228.56,219.59 228.65,221.19C228.74,222.8 228.86,224.41 229.01,226.01C229.16,227.62 229.34,229.22 229.53,230.82C229.72,232.42 229.95,234.03 230.17,235.63C230.39,237.24 230.63,238.84 230.86,240.45C231.08,242.05 231.31,243.66 231.52,245.26C231.73,246.87 231.93,248.47 232.11,250.08C232.29,251.68 232.44,253.29 232.58,254.89C232.72,256.49 232.84,258.1 232.94,259.7C233.04,261.31 233.12,262.91 233.19,264.52C233.26,266.12 233.32,267.73 233.36,269.33C233.41,270.94 233.43,272.54 233.46,274.15C233.49,275.75 233.52,277.36 233.54,278.96C233.56,280.56 233.57,282.17 233.59,283.77C233.61,285.38 233.62,286.98 233.64,288.59C233.66,290.19 233.67,291.8 233.69,293.4C233.71,295.01 233.72,296.61 233.74,298.22C233.75,299.82 233.77,301.43 233.78,303.03C233.8,304.63 233.82,306.24 233.83,307.84C233.85,309.45 233.86,311.05 233.87,312.66C233.88,314.26 233.89,315.87 233.9,317.47C233.91,319.07 233.92,320.68 233.92,322.28C233.93,323.89 233.93,325.49 233.93,327.1C233.93,328.7 233.93,330.31 233.93,331.91C233.93,333.52 233.93,335.12 233.93,336.73C233.93,338.33 233.93,339.94 233.93,341.54C233.93,343.14 233.94,344.75 233.94,346.35C233.94,347.96 233.95,349.56 233.95,351.17C233.95,352.77 233.96,354.38 233.96,355.98C233.96,357.59 233.97,359.19 233.97,360.8C233.97,362.4 233.98,364.01 233.98,365.61C233.98,367.21 233.99,368.82 233.99,370.42Q233.99,372.03 233.99,375.24Z" style="vector-effect: non-scaling-stroke; stroke-width: 2px; stroke: rgb(239, 85, 59); stroke-opacity: 1; fill: rgb(239, 85, 59); fill-opacity: 0.5;"/><path class="violin" d="M390.01,309.03Q390.02,307.48 390.02,306.71C390.02,305.94 390.03,305.16 390.03,304.39C390.04,303.62 390.04,302.84 390.05,302.07C390.06,301.3 390.06,300.52 390.07,299.75C390.07,298.98 390.08,298.2 390.08,297.43C390.08,296.66 390.08,295.88 390.08,295.11C390.08,294.34 390.08,293.56 390.08,292.79C390.08,292.02 390.07,291.24 390.07,290.47C390.07,289.7 390.06,288.92 390.06,288.15C390.05,287.38 390.04,286.6 390.04,285.83C390.04,285.06 390.04,284.28 390.04,283.51C390.04,282.74 390.04,281.96 390.04,281.19C390.04,280.42 390.04,279.64 390.04,278.87C390.04,278.1 390.04,277.32 390.04,276.55C390.04,275.78 390.05,275.01 390.05,274.24C390.05,273.47 390.05,272.69 390.05,271.92C390.05,271.15 390.05,270.37 390.05,269.6C390.05,268.83 390.05,268.05 390.05,267.28C390.05,266.51 390.05,265.73 390.05,264.96C390.05,264.19 390.05,263.41 390.05,262.64C390.05,261.87 390.05,261.09 390.05,260.32C390.05,259.55 390.05,258.77 390.05,258C390.05,257.23 390.05,256.45 390.05,255.68C390.05,254.91 390.06,254.13 390.06,253.36C390.07,252.59 390.07,251.81 390.08,251.04C390.09,250.27 390.09,249.49 390.1,248.72C390.11,247.95 390.13,247.17 390.14,246.4C390.16,245.63 390.17,244.85 390.19,244.08C390.21,243.31 390.22,242.53 390.24,241.76C390.26,240.99 390.27,240.21 390.29,239.44C390.3,238.67 390.32,237.89 390.33,237.12C390.34,236.35 390.35,235.57 390.36,234.8C390.37,234.03 390.37,233.25 390.37,232.48C390.37,231.71 390.37,230.93 390.37,230.16C390.37,229.39 390.37,228.61 390.37,227.84C390.37,227.07 390.37,226.29 390.38,225.52C390.39,224.75 390.4,223.97 390.41,223.2C390.42,222.43 390.44,221.65 390.46,220.88C390.48,220.11 390.51,219.33 390.54,218.56C390.57,217.79 390.6,217.01 390.63,216.24C390.66,215.47 390.69,214.69 390.72,213.92C390.75,213.15 390.78,212.37 390.8,211.6C390.82,210.83 390.84,210.05 390.85,209.28C390.86,208.51 390.88,207.73 390.88,206.96C390.88,206.19 390.88,205.41 390.88,204.64C390.88,203.87 390.87,203.09 390.87,202.32C390.86,201.55 390.86,200.77 390.85,200C390.84,199.23 390.84,198.45 390.83,197.68C390.83,196.91 390.82,196.13 390.82,195.36C390.82,194.59 390.82,193.81 390.82,193.04C390.82,192.27 390.84,191.49 390.85,190.72C390.86,189.95 390.88,189.18 390.9,188.41C390.92,187.64 390.96,186.86 390.99,186.09C391.03,185.32 391.07,184.54 391.11,183.77C391.15,183 391.2,182.22 391.25,181.45C391.3,180.68 391.35,179.9 391.4,179.13C391.45,178.36 391.51,177.58 391.56,176.81C391.61,176.04 391.66,175.26 391.72,174.49C391.78,173.72 391.84,172.94 391.9,172.17C391.97,171.4 392.04,170.62 392.11,169.85C392.19,169.08 392.27,168.3 392.35,167.53C392.43,166.76 392.52,165.98 392.61,165.21C392.7,164.44 392.79,163.66 392.87,162.89C392.95,162.12 393.04,161.34 393.11,160.57C393.18,159.8 393.24,159.02 393.3,158.25C393.36,157.48 393.41,156.7 393.45,155.93C393.49,155.16 393.53,154.38 393.56,153.61C393.59,152.84 393.62,152.06 393.65,151.29C393.68,150.52 393.72,149.74 393.76,148.97C393.79,148.2 393.83,147.42 393.86,146.65C393.89,145.88 393.93,145.1 393.95,144.33C393.97,143.56 393.99,142.78 393.99,142.01C393.99,141.24 393.98,140.46 393.97,139.69C393.96,138.92 393.93,138.14 393.9,137.37C393.87,136.6 393.83,135.82 393.79,135.05C393.75,134.28 393.71,133.5 393.67,132.73C393.63,131.96 393.59,131.18 393.56,130.41C393.53,129.64 393.5,128.86 393.48,128.09C393.46,127.32 393.45,126.54 393.44,125.77C393.43,125 393.42,124.22 393.41,123.45C393.4,122.68 393.39,121.9 393.37,121.13C393.35,120.36 393.33,119.58 393.3,118.81C393.26,118.04 393.21,117.26 393.16,116.49C393.1,115.72 393.04,114.94 392.97,114.17C392.9,113.4 392.81,112.62 392.73,111.85C392.65,111.08 392.55,110.3 392.47,109.53C392.39,108.76 392.3,107.98 392.24,107.21C392.18,106.44 392.11,105.66 392.1,104.89C392.09,104.12 392.07,103.35 392.16,102.58C392.25,101.8 392.35,101.01 392.62,100.26C392.9,99.47 393.28,98.67 393.83,97.94C394.46,97.11 395.3,96.34 396.28,95.62C397.44,94.77 398.89,94.02 400.42,93.3C402.2,92.46 404.29,91.72 406.39,90.98C408.68,90.17 411.24,89.43 413.66,88.66C416.08,87.89 418.68,87.17 420.9,86.34C422.85,85.61 425.01,84.97 426.28,84.02C427.19,83.34 428.24,82.47 428.22,81.7C428.2,80.92 427.06,80.06 426.08,79.38C424.73,78.43 422.52,77.79 420.51,77.06C418.23,76.23 415.57,75.51 413.1,74.74C410.62,73.97 408.01,73.23 405.66,72.42C403.5,71.68 401.35,70.94 399.5,70.1Q397.9,69.38 395.17,67.78L384.83,67.78Q382.1,69.38 380.5,70.1C378.65,70.94 376.5,71.68 374.34,72.42C371.99,73.23 369.38,73.97 366.9,74.74C364.43,75.51 361.77,76.23 359.49,77.06C357.48,77.79 355.27,78.43 353.92,79.38C352.94,80.06 351.8,80.92 351.78,81.7C351.76,82.47 352.81,83.34 353.72,84.02C354.99,84.97 357.15,85.61 359.1,86.34C361.32,87.17 363.92,87.89 366.34,88.66C368.76,89.43 371.32,90.17 373.61,90.98C375.71,91.72 377.8,92.46 379.58,93.3C381.11,94.02 382.56,94.77 383.72,95.62C384.7,96.34 385.54,97.11 386.17,97.94C386.72,98.67 387.1,99.47 387.38,100.26C387.65,101.01 387.75,101.8 387.84,102.58C387.93,103.35 387.91,104.12 387.9,104.89C387.89,105.66 387.82,106.44 387.76,107.21C387.7,107.98 387.61,108.76 387.53,109.53C387.45,110.3 387.35,111.08 387.27,111.85C387.19,112.62 387.1,113.4 387.03,114.17C386.96,114.94 386.9,115.72 386.84,116.49C386.79,117.26 386.74,118.04 386.7,118.81C386.67,119.58 386.65,120.36 386.63,121.13C386.61,121.9 386.6,122.68 386.59,123.45C386.58,124.22 386.57,125 386.56,125.77C386.55,126.54 386.54,127.32 386.52,128.09C386.5,128.86 386.47,129.64 386.44,130.41C386.41,131.18 386.37,131.96 386.33,132.73C386.29,133.5 386.25,134.28 386.21,135.05C386.17,135.82 386.13,136.6 386.1,137.37C386.07,138.14 386.04,138.92 386.03,139.69C386.02,140.46 386.01,141.24 386.01,142.01C386.01,142.78 386.03,143.56 386.05,144.33C386.07,145.1 386.11,145.88 386.14,146.65C386.17,147.42 386.21,148.2 386.24,148.97C386.28,149.74 386.32,150.52 386.35,151.29C386.38,152.06 386.41,152.84 386.44,153.61C386.47,154.38 386.51,155.16 386.55,155.93C386.59,156.7 386.64,157.48 386.7,158.25C386.76,159.02 386.82,159.8 386.89,160.57C386.96,161.34 387.05,162.12 387.13,162.89C387.21,163.66 387.3,164.44 387.39,165.21C387.48,165.98 387.57,166.76 387.65,167.53C387.73,168.3 387.81,169.08 387.89,169.85C387.96,170.62 388.03,171.4 388.1,172.17C388.16,172.94 388.22,173.72 388.28,174.49C388.34,175.26 388.39,176.04 388.44,176.81C388.49,177.58 388.55,178.36 388.6,179.13C388.65,179.9 388.7,180.68 388.75,181.45C388.8,182.22 388.85,183 388.89,183.77C388.93,184.54 388.97,185.32 389.01,186.09C389.04,186.86 389.08,187.64 389.1,188.41C389.12,189.18 389.14,189.95 389.15,190.72C389.16,191.49 389.18,192.27 389.18,193.04C389.18,193.81 389.18,194.59 389.18,195.36C389.18,196.13 389.17,196.91 389.17,197.68C389.16,198.45 389.16,199.23 389.15,200C389.14,200.77 389.14,201.55 389.13,202.32C389.13,203.09 389.12,203.87 389.12,204.64C389.12,205.41 389.12,206.19 389.12,206.96C389.12,207.73 389.14,208.51 389.15,209.28C389.16,210.05 389.18,210.83 389.2,211.6C389.22,212.37 389.25,213.15 389.28,213.92C389.31,214.69 389.34,215.47 389.37,216.24C389.4,217.01 389.43,217.79 389.46,218.56C389.49,219.33 389.52,220.11 389.54,220.88C389.56,221.65 389.58,222.43 389.59,223.2C389.6,223.97 389.61,224.75 389.62,225.52C389.63,226.29 389.63,227.07 389.63,227.84C389.63,228.61 389.63,229.39 389.63,230.16C389.63,230.93 389.63,231.71 389.63,232.48C389.63,233.25 389.63,234.03 389.64,234.8C389.65,235.57 389.66,236.35 389.67,237.12C389.68,237.89 389.7,238.67 389.71,239.44C389.73,240.21 389.74,240.99 389.76,241.76C389.78,242.53 389.79,243.31 389.81,244.08C389.83,244.85 389.84,245.63 389.86,246.4C389.87,247.17 389.89,247.95 389.9,248.72C389.91,249.49 389.91,250.27 389.92,251.04C389.93,251.81 389.93,252.59 389.94,253.36C389.94,254.13 389.95,254.91 389.95,255.68C389.95,256.45 389.95,257.23 389.95,258C389.95,258.77 389.95,259.55 389.95,260.32C389.95,261.09 389.95,261.87 389.95,262.64C389.95,263.41 389.95,264.19 389.95,264.96C389.95,265.73 389.95,266.51 389.95,267.28C389.95,268.05 389.95,268.83 389.95,269.6C389.95,270.37 389.95,271.15 389.95,271.92C389.95,272.69 389.95,273.47 389.95,274.24C389.95,275.01 389.96,275.78 389.96,276.55C389.96,277.32 389.96,278.1 389.96,278.87C389.96,279.64 389.96,280.42 389.96,281.19C389.96,281.96 389.96,282.74 389.96,283.51C389.96,284.28 389.96,285.06 389.96,285.83C389.96,286.6 389.95,287.38 389.94,288.15C389.94,288.92 389.93,289.7 389.93,290.47C389.93,291.24 389.92,292.02 389.92,292.79C389.92,293.56 389.92,294.34 389.92,295.11C389.92,295.88 389.92,296.66 389.92,297.43C389.92,298.2 389.93,298.98 389.93,299.75C389.94,300.52 389.94,301.3 389.95,302.07C389.96,302.84 389.96,303.62 389.97,304.39C389.97,305.16 389.98,305.94 389.98,306.71Q389.98,307.48 389.99,309.03Z" style="vector-effect: non-scaling-stroke; stroke-width: 2px; stroke: rgb(239, 85, 59); stroke-opacity: 1; fill: rgb(239, 85, 59); fill-opacity: 0.5;"/><path class="box" d="M68.44,82.73H87.55M68.44,220.77H87.55V81.73H68.44ZM78,220.77V338.24M78,81.73V81.73" style="vector-effect: non-scaling-stroke; stroke-width: 2px; stroke: rgb(239, 85, 59); stroke-opacity: 1; fill: rgb(239, 85, 59); fill-opacity: 0.5;"/><path class="box" d="M224.44,145.72H243.55M224.44,206.21H243.55V81.73H224.44ZM234,206.21V346.21M234,81.73V81.73" style="vector-effect: non-scaling-stroke; stroke-width: 2px; stroke: rgb(239, 85, 59); stroke-opacity: 1; fill: rgb(239, 85, 59); fill-opacity: 0.5;"/><path class="box" d="M380.44,82.73H399.55M380.44,119.18H399.55V81.73H380.44ZM390,119.18V175.29M390,81.73V81.73" style="vector-effect: non-scaling-stroke; stroke-width: 2px; stroke: rgb(239, 85, 59); stroke-opacity: 1; fill: rgb(239, 85, 59); fill-opacity: 0.5;"/><path class="mean" d="M68.44,133.92H87.55" style="fill: none; vector-effect: non-scaling-stroke; stroke-width: 2px; stroke-dasharray: 4px, 2px; stroke: rgb(239, 85, 59); stroke-opacity: 1;"/><path class="mean" d="M224.44,147.22H243.55" style="fill: none; vector-effect: non-scaling-stroke; stroke-width: 2px; stroke-dasharray: 4px, 2px; stroke: rgb(239, 85, 59); stroke-opacity: 1;"/><path class="mean" d="M380.44,102.34H399.55" style="fill: none; vector-effect: non-scaling-stroke; stroke-width: 2px; stroke-dasharray: 4px, 2px; stroke: rgb(239, 85, 59); stroke-opacity: 1;"/></g></g></g><g class="overplot"/><path class="xlines-above crisp" d="M0,0" style="fill: none;"/><path class="ylines-above crisp" d="M0,0" style="fill: none;"/><g class="overlines-above"/><g class="xaxislayer-above"><g class="x2tick"><text text-anchor="middle" x="0" y="533" transform="translate(730,0)" style="font-family: 'Open Sans', verdana, arial, sans-serif; font-size: 12px; fill: rgb(42, 63, 95); fill-opacity: 1; white-space: pre; opacity: 1;">&#60;=1</text></g><g class="x2tick"><text text-anchor="middle" x="0" y="533" transform="translate(886,0)" style="font-family: 'Open Sans', verdana, arial, sans-serif; font-size: 12px; fill: rgb(42, 63, 95); fill-opacity: 1; white-space: pre; opacity: 1;">(1, 2]</text></g><g class="x2tick"><text text-anchor="middle" x="0" y="533" transform="translate(1042,0)" style="font-family: 'Open Sans', verdana, arial, sans-serif; font-size: 12px; fill: rgb(42, 63, 95); fill-opacity: 1; white-space: pre; opacity: 1;">>2</text></g></g><g class="yaxislayer-above"><g class="y2tick"><text text-anchor="end" x="651" y="4.199999999999999" transform="translate(0,501.65)" style="font-family: 'Open Sans', verdana, arial, sans-serif; font-size: 12px; fill: rgb(42, 63, 95); fill-opacity: 1; white-space: pre; opacity: 1;">0</text></g><g class="y2tick"><text text-anchor="end" x="651" y="4.199999999999999" style="font-family: 'Open Sans', verdana, arial, sans-serif; font-size: 12px; fill: rgb(42, 63, 95); fill-opacity: 1; white-space: pre; opacity: 1;" transform="translate(0,437.66)">0.2</text></g><g class="y2tick"><text text-anchor="end" x="651" y="4.199999999999999" style="font-family: 'Open Sans', verdana, arial, sans-serif; font-size: 12px; fill: rgb(42, 63, 95); fill-opacity: 1; white-space: pre; opacity: 1;" transform="translate(0,373.68)">0.4</text></g><g class="y2tick"><text text-anchor="end" x="651" y="4.199999999999999" style="font-family: 'Open Sans', verdana, arial, sans-serif; font-size: 12px; fill: rgb(42, 63, 95); fill-opacity: 1; white-space: pre; opacity: 1;" transform="translate(0,309.7)">0.6</text></g><g class="y2tick"><text text-anchor="end" x="651" y="4.199999999999999" style="font-family: 'Open Sans', verdana, arial, sans-serif; font-size: 12px; fill: rgb(42, 63, 95); fill-opacity: 1; white-space: pre; opacity: 1;" transform="translate(0,245.71)">0.8</text></g><g class="y2tick"><text text-anchor="end" x="651" y="4.199999999999999" style="font-family: 'Open Sans', verdana, arial, sans-serif; font-size: 12px; fill: rgb(42, 63, 95); fill-opacity: 1; white-space: pre; opacity: 1;" transform="translate(0,181.73000000000002)">1</text></g><g class="y2tick"><text text-anchor="end" x="651" y="4.199999999999999" style="font-family: 'Open Sans', verdana, arial, sans-serif; font-size: 12px; fill: rgb(42, 63, 95); fill-opacity: 1; white-space: pre; opacity: 1;" transform="translate(0,117.75)">1.2</text></g></g><g class="overaxes-above"/></g></g><g class="polarlayer"/><g class="smithlayer"/><g class="ternarylayer"/><g class="geolayer"/><g class="funnelarealayer"/><g class="pielayer"/><g class="iciclelayer"/><g class="treemaplayer"/><g class="sunburstlayer"/><g class="glimages"/><defs id="topdefs-1d21c0"><g class="clips"/></defs><g class="layer-above"><g class="imagelayer"/><g class="shapelayer"/></g><g class="infolayer"><g class="g-gtitle"><text class="gtitle" x="60" y="50" text-anchor="start" dy="0em" style="font-family: 'Open Sans', verdana, arial, sans-serif; font-size: 17px; fill: rgb(42, 63, 95); opacity: 1; font-weight: normal; white-space: pre;">discount_rate Distributions (paperback better)</text></g><g class="g-xtitle"><text class="xtitle" x="314" y="561.8" text-anchor="middle" style="font-family: 'Open Sans', verdana, arial, sans-serif; font-size: 14px; fill: rgb(42, 63, 95); opacity: 1; font-weight: normal; white-space: pre;">Hardcover over Paperback</text></g><g class="g-x2title"><text class="x2title" x="886" y="561.8" text-anchor="middle" style="font-family: 'Open Sans', verdana, arial, sans-serif; font-size: 14px; fill: rgb(42, 63, 95); opacity: 1; font-weight: normal; white-space: pre;">Hardcover over Paperback</text></g><g class="g-ytitle"><text class="ytitle" transform="rotate(-90,37.325,310)" x="37.325" y="310" text-anchor="middle" style="font-family: 'Open Sans', verdana, arial, sans-serif; font-size: 14px; fill: rgb(42, 63, 95); opacity: 1; font-weight: normal; white-space: pre;">discount_rate</text></g><g class="g-y2title"><text class="y2title" transform="rotate(-90,609.325,310)" x="609.325" y="310" text-anchor="middle" style="font-family: 'Open Sans', verdana, arial, sans-serif; font-size: 14px; fill: rgb(42, 63, 95); opacity: 1; font-weight: normal; white-space: pre;">discount_rate</text></g><g class="annotation" data-index="0" style="opacity: 1;"><g class="annotation-text-g" transform="rotate(0,314,87)"><g class="cursor-pointer" transform="translate(273,74)"><rect class="bg" x="0.5" y="0.5" width="82" height="25" style="stroke-width: 1px; stroke: rgb(0, 0, 0); stroke-opacity: 0; fill: rgb(0, 0, 0); fill-opacity: 0;"/><text class="annotation-text" text-anchor="middle" x="41.296875" y="19" style="font-family: 'Open Sans', verdana, arial, sans-serif; font-size: 16px; fill: rgb(42, 63, 95); fill-opacity: 1; white-space: pre;">Paperback</text></g></g></g><g class="annotation" data-index="1" style="opacity: 1;"><g class="annotation-text-g" transform="rotate(0,886,87)"><g class="cursor-pointer" transform="translate(845,74)"><rect class="bg" x="0.5" y="0.5" width="81" height="25" style="stroke-width: 1px; stroke: rgb(0, 0, 0); stroke-opacity: 0; fill: rgb(0, 0, 0); fill-opacity: 0;"/><text class="annotation-text" text-anchor="middle" x="40.921875" y="19" style="font-family: 'Open Sans', verdana, arial, sans-serif; font-size: 16px; fill: rgb(42, 63, 95); fill-opacity: 1; white-space: pre;">Hardcover</text></g></g></g></g></svg>