<svg class="main-svg" xmlns="http://www.w3.org/2000/svg" xmlns:xlink="http://www.w3.org/1999/xlink" width="1200" height="600" style="" viewBox="0 0 1200 600"><rect x="0" y="0" width="1200" height="600" style="fill: rgb(255, 255, 255); fill-opacity: 1;"/><defs id="defs-389855"><g class="clips"><clipPath id="clip389855xyplot" class="plotclip"><rect width="468" height="420"/></clipPath><clipPath id="clip389855x2y2plot" class="plotclip"><rect width="467.99999999999994" height="420"/></clipPath><clipPath class="axesclip" id="clip389855x"><rect x="80" y="0" width="468" height="600"/></clipPath><clipPath class="axesclip" id="clip389855y"><rect x="0" y="100" width="1200" height="420"/></clipPath><clipPath class="axesclip" id="clip389855xy"><rect x="80" y="100" width="468" height="420"/></clipPath><clipPath class="axesclip" id="clip389855y2"><rect x="0" y="100" width="1200" height="420"/></clipPath><clipPath class="axesclip" id="clip389855xy2"><rect x="80" y="100" width="468" height="420"/></clipPath><clipPath class="axesclip" id="clip389855x2"><rect x="652" y="0" width="467.99999999999994" height="600"/></clipPath><clipPath class="axesclip" id="clip389855x2y"><rect x="652" y="100" width="467.99999999999994" height="420"/></clipPath><clipPath class="axesclip" id="clip389855x2y2"><rect x="652" y="100" width="467.99999999999994" height="420"/></clipPath></g><g class="gradients"/><g class="patterns"/></defs><g class="bglayer"><rect class="bg" x="80" y="100" width="468" height="420" style="fill: rgb(229, 236, 246); fill-opacity: 1; stroke-width: 0;"/><rect class="bg" x="652" y="100" width="467.99999999999994" height="420" style="fill: rgb(229, 236, 246); fill-opacity: 1; stroke-width: 0;"/></g><g class="layer-below"><g class="imagelayer"/><g class="shapelayer"/></g><g class="cartesianlayer"><g class="subplot xy"><g class="layer-subplot"><g class="shapelayer"/><g class="imagelayer"/></g><g class="minor-gridlayer"><g class="x"/><g class="y"/></g><g class="gridlayer"><g class="x"/><g class="y"><path class="ygrid crisp" transform="translate(0,380.92)" d="M80,0h468" style="stroke: rgb(255, 255, 255); stroke-opacity: 1; stroke-width: 1px;"/><path class="ygrid crisp" transform="translate(0,304.5)" d="M80,0h468" style="stroke: rgb(255, 255, 255); stroke-opacity: 1; stroke-width: 1px;"/><path class="ygrid crisp" transform="translate(0,228.07)" d="M80,0h468" style="stroke: rgb(255, 255, 255); stroke-opacity: 1; stroke-width: 1px;"/><path class="ygrid crisp" transform="translate(0,151.64)" d="M80,0h468" style="stroke: rgb(255, 255, 255); stroke-opacity: 1; stroke-width: 1px;"/></g></g><g class="zerolinelayer"><path class="yzl zl crisp" transform="translate(0,457.35)" d="M80,0h468" style="stroke: rgb(255, 255, 255); stroke-opacity: 1; stroke-width: 2px;"/></g><path class="xlines-below"/><path class="ylines-below"/><g class="overlines-below"/><g class="xaxislayer-below"/><g class="yaxislayer-below"/><g class="overaxes-below"/><g class="plot" transform="translate(80,100)" clip-path="url(#clip389855xyplot)"><g class="violinlayer mlayer"><g class="trace violins" style="opacity: 1;"><path class="violin" d="M78.25,347.09Q78.41,344 78.54,342.45C78.68,340.9 78.83,339.35 79.06,337.81C79.3,336.26 79.57,334.7 79.95,333.16C80.34,331.6 80.79,330.05 81.37,328.52C81.96,326.95 82.65,325.4 83.46,323.88C84.3,322.31 85.27,320.76 86.34,319.24C87.45,317.66 88.71,316.12 90.02,314.6C91.38,313.02 92.87,311.49 94.35,309.95C95.85,308.39 97.46,306.87 98.96,305.31C100.44,303.77 101.99,302.25 103.32,300.67C104.59,299.16 105.86,297.63 106.8,296.03C107.68,294.53 108.45,292.97 108.84,291.39C109.21,289.87 109.31,288.28 109.15,286.74C108.98,285.18 108.44,283.61 107.82,282.1C107.17,280.52 106.21,278.99 105.29,277.46C104.35,275.89 103.23,274.37 102.23,272.82C101.23,271.28 100.19,269.75 99.3,268.18C98.43,266.65 97.6,265.1 96.93,263.53C96.28,262 95.73,260.45 95.33,258.89C94.94,257.36 94.67,255.8 94.54,254.25C94.41,252.71 94.42,251.15 94.56,249.61C94.71,248.06 94.99,246.5 95.42,244.97C95.86,243.4 96.48,241.84 97.21,240.32C97.97,238.74 98.92,237.2 99.92,235.68C100.95,234.11 102.17,232.58 103.33,231.04C104.5,229.49 105.79,227.97 106.89,226.4C107.96,224.88 109.09,223.35 109.87,221.76C110.61,220.25 111.29,218.69 111.53,217.12C111.76,215.59 111.7,213.98 111.32,212.47C110.93,210.88 110.08,209.32 109.13,207.83C108.1,206.22 106.69,204.7 105.28,203.19C103.79,201.6 102.06,200.09 100.4,198.55C98.71,196.99 96.91,195.47 95.24,193.91C93.6,192.38 91.95,190.84 90.46,189.26C89.03,187.74 87.66,186.21 86.46,184.62C85.32,183.11 84.28,181.56 83.4,179.98C82.55,178.46 81.84,176.91 81.24,175.34C80.65,173.81 80.2,172.26 79.82,170.7C79.44,169.16 79.18,167.6 78.95,166.05Q78.72,164.51 78.46,161.41L77.54,161.41Q77.28,164.51 77.05,166.05C76.82,167.6 76.56,169.16 76.18,170.7C75.8,172.26 75.35,173.81 74.76,175.34C74.16,176.91 73.45,178.46 72.6,179.98C71.72,181.56 70.68,183.11 69.54,184.62C68.34,186.21 66.97,187.74 65.54,189.26C64.05,190.84 62.4,192.38 60.76,193.91C59.09,195.47 57.29,196.99 55.6,198.55C53.94,200.09 52.21,201.6 50.72,203.19C49.31,204.7 47.9,206.22 46.87,207.83C45.92,209.32 45.07,210.88 44.68,212.47C44.3,213.98 44.24,215.59 44.47,217.12C44.71,218.69 45.39,220.25 46.13,221.76C46.91,223.35 48.04,224.88 49.11,226.4C50.21,227.97 51.5,229.49 52.67,231.04C53.83,232.58 55.05,234.11 56.08,235.68C57.08,237.2 58.03,238.74 58.79,240.32C59.52,241.84 60.14,243.4 60.58,244.97C61.01,246.5 61.29,248.06 61.44,249.61C61.58,251.15 61.59,252.71 61.46,254.25C61.33,255.8 61.06,257.36 60.67,258.89C60.27,260.45 59.72,262 59.07,263.53C58.4,265.1 57.57,266.65 56.7,268.18C55.81,269.75 54.77,271.28 53.77,272.82C52.77,274.37 51.65,275.89 50.71,277.46C49.79,278.99 48.83,280.52 48.18,282.1C47.56,283.61 47.02,285.18 46.85,286.74C46.69,288.28 46.79,289.87 47.16,291.39C47.55,292.97 48.32,294.53 49.2,296.03C50.14,297.63 51.41,299.16 52.68,300.67C54.01,302.25 55.56,303.77 57.04,305.31C58.54,306.87 60.15,308.39 61.65,309.95C63.13,311.49 64.62,313.02 65.98,314.6C67.29,316.12 68.55,317.66 69.66,319.24C70.73,320.76 71.7,322.31 72.54,323.88C73.35,325.4 74.04,326.95 74.63,328.52C75.21,330.05 75.66,331.6 76.05,333.16C76.43,334.7 76.7,336.26 76.94,337.81C77.17,339.35 77.32,340.9 77.46,342.45Q77.59,344 77.75,347.09Z" style="vector-effect: non-scaling-stroke; stroke-width: 2px; stroke: rgb(99, 110, 250); stroke-opacity: 1; fill: rgb(99, 110, 250); fill-opacity: 0.5;"/><path class="violin" d="M234.07,343.04Q234.11,341.3 234.14,340.43C234.17,339.56 234.2,338.69 234.25,337.82C234.3,336.95 234.36,336.08 234.43,335.21C234.5,334.34 234.59,333.47 234.69,332.6C234.79,331.73 234.9,330.86 235.04,329.99C235.18,329.12 235.33,328.25 235.51,327.38C235.69,326.51 235.9,325.64 236.13,324.77C236.36,323.9 236.62,323.03 236.91,322.16C237.2,321.29 237.52,320.41 237.87,319.55C238.22,318.67 238.61,317.8 239.02,316.94C239.44,316.06 239.89,315.19 240.36,314.33C240.84,313.45 241.35,312.58 241.88,311.72C242.42,310.84 242.98,309.97 243.59,309.11C244.21,308.23 244.86,307.35 245.57,306.5C246.31,305.61 247.09,304.74 247.95,303.89C248.86,303 249.84,302.12 250.89,301.28C252.01,300.38 253.24,299.52 254.5,298.67C255.83,297.78 257.27,296.92 258.7,296.06C260.16,295.18 261.71,294.33 263.17,293.45C264.59,292.59 266.07,291.75 267.35,290.84C268.52,290.01 269.72,289.18 270.56,288.24C271.29,287.43 271.99,286.54 272.22,285.63C272.43,284.79 272.34,283.85 272.03,283.02C271.69,282.1 270.88,281.23 270.1,280.41C269.22,279.48 268.04,278.65 266.94,277.8C265.79,276.91 264.49,276.08 263.34,275.19C262.23,274.34 261.07,273.5 260.15,272.58C259.32,271.75 258.51,270.89 258.03,269.97C257.6,269.14 257.33,268.24 257.28,267.36C257.23,266.5 257.48,265.61 257.74,264.75C258,263.86 258.5,263.01 258.86,262.14C259.22,261.27 259.68,260.41 259.92,259.53C260.16,258.67 260.34,257.79 260.32,256.92C260.3,256.05 260.1,255.16 259.81,254.31C259.51,253.42 258.99,252.56 258.5,251.7C258,250.82 257.37,249.97 256.85,249.09C256.33,248.23 255.77,247.37 255.38,246.48C255,245.63 254.66,244.75 254.51,243.87C254.37,243.01 254.36,242.12 254.49,241.26C254.62,240.38 254.94,239.5 255.33,238.65C255.74,237.76 256.31,236.89 256.91,236.04C257.54,235.15 258.28,234.29 259.02,233.43C259.78,232.55 260.61,231.69 261.43,230.82C262.25,229.95 263.11,229.08 263.94,228.21C264.76,227.35 265.6,226.49 266.38,225.61C267.14,224.75 267.9,223.89 268.58,223C269.23,222.15 269.87,221.28 270.38,220.39C270.86,219.54 271.3,218.67 271.57,217.78C271.82,216.93 272,216.04 271.97,215.17C271.94,214.3 271.74,213.4 271.39,212.56C271.01,211.65 270.39,210.78 269.68,209.95C268.89,209.03 267.87,208.17 266.81,207.34C265.64,206.42 264.29,205.58 262.92,204.73C261.47,203.83 259.88,202.98 258.33,202.12C256.75,201.24 255.11,200.39 253.54,199.51C252,198.65 250.45,197.79 249.01,196.9C247.65,196.05 246.31,195.19 245.11,194.29C243.99,193.45 242.95,192.58 242.01,191.68C241.14,190.84 240.35,189.97 239.65,189.07C238.99,188.22 238.42,187.35 237.91,186.46C237.42,185.61 237,184.73 236.63,183.85C236.27,182.99 235.96,182.12 235.69,181.24C235.42,180.38 235.21,179.5 235.02,178.63C234.84,177.76 234.7,176.89 234.58,176.02Q234.46,175.15 234.3,173.41L233.7,173.41Q233.54,175.15 233.42,176.02C233.3,176.89 233.16,177.76 232.98,178.63C232.79,179.5 232.58,180.38 232.31,181.24C232.04,182.12 231.73,182.99 231.37,183.85C231,184.73 230.58,185.61 230.09,186.46C229.58,187.35 229.01,188.22 228.35,189.07C227.65,189.97 226.86,190.84 225.99,191.68C225.05,192.58 224.01,193.45 222.89,194.29C221.69,195.19 220.35,196.05 218.99,196.9C217.55,197.79 216,198.65 214.46,199.51C212.89,200.39 211.25,201.24 209.67,202.12C208.12,202.98 206.53,203.83 205.08,204.73C203.71,205.58 202.36,206.42 201.19,207.34C200.13,208.17 199.11,209.03 198.32,209.95C197.61,210.78 196.99,211.65 196.61,212.56C196.26,213.4 196.06,214.3 196.03,215.17C196,216.04 196.18,216.93 196.43,217.78C196.7,218.67 197.14,219.54 197.62,220.39C198.13,221.28 198.77,222.15 199.42,223C200.1,223.89 200.86,224.75 201.62,225.61C202.4,226.49 203.24,227.35 204.06,228.21C204.89,229.08 205.75,229.95 206.57,230.82C207.39,231.69 208.22,232.55 208.98,233.43C209.72,234.29 210.46,235.15 211.09,236.04C211.69,236.89 212.26,237.76 212.67,238.65C213.06,239.5 213.38,240.38 213.51,241.26C213.64,242.12 213.63,243.01 213.49,243.87C213.34,244.75 213,245.63 212.62,246.48C212.23,247.37 211.67,248.23 211.15,249.09C210.63,249.97 210,250.82 209.5,251.7C209.01,252.56 208.49,253.42 208.19,254.31C207.9,255.16 207.7,256.05 207.68,256.92C207.66,257.79 207.84,258.67 208.08,259.53C208.32,260.41 208.78,261.27 209.14,262.14C209.5,263.01 210,263.86 210.26,264.75C210.52,265.61 210.77,266.5 210.72,267.36C210.67,268.24 210.4,269.14 209.97,269.97C209.49,270.89 208.68,271.75 207.85,272.58C206.93,273.5 205.77,274.34 204.66,275.19C203.51,276.08 202.21,276.91 201.06,277.8C199.96,278.65 198.78,279.48 197.9,280.41C197.12,281.23 196.31,282.1 195.97,283.02C195.66,283.85 195.57,284.79 195.78,285.63C196.01,286.54 196.71,287.43 197.44,288.24C198.28,289.18 199.48,290.01 200.65,290.84C201.93,291.75 203.41,292.59 204.83,293.45C206.29,294.33 207.84,295.18 209.3,296.06C210.73,296.92 212.17,297.78 213.5,298.67C214.76,299.52 215.99,300.38 217.11,301.28C218.16,302.12 219.14,303 220.05,303.89C220.91,304.74 221.69,305.61 222.43,306.5C223.14,307.35 223.79,308.23 224.41,309.11C225.02,309.97 225.58,310.84 226.12,311.72C226.65,312.58 227.16,313.45 227.64,314.33C228.11,315.19 228.56,316.06 228.98,316.94C229.39,317.8 229.78,318.67 230.13,319.55C230.48,320.41 230.8,321.29 231.09,322.16C231.38,323.03 231.64,323.9 231.87,324.77C232.1,325.64 232.31,326.51 232.49,327.38C232.67,328.25 232.82,329.12 232.96,329.99C233.1,330.86 233.21,331.73 233.31,332.6C233.41,333.47 233.5,334.34 233.57,335.21C233.64,336.08 233.7,336.95 233.75,337.82C233.8,338.69 233.83,339.56 233.86,340.43Q233.89,341.3 233.93,343.04Z" style="vector-effect: non-scaling-stroke; stroke-width: 2px; stroke: rgb(99, 110, 250); stroke-opacity: 1; fill: rgb(99, 110, 250); fill-opacity: 0.5;"/><path class="violin" d="M390.04,369.94Q390.07,367.75 390.08,366.65C390.1,365.55 390.11,364.46 390.13,363.36C390.15,362.26 390.18,361.17 390.21,360.07C390.24,358.98 390.27,357.88 390.31,356.79C390.35,355.69 390.4,354.6 390.45,353.5C390.51,352.4 390.56,351.31 390.64,350.21C390.72,349.11 390.8,348.02 390.92,346.92C391.04,345.82 391.17,344.72 391.36,343.63C391.55,342.53 391.77,341.44 392.07,340.35C392.37,339.25 392.73,338.14 393.18,337.06C393.64,335.95 394.18,334.84 394.83,333.77C395.51,332.65 396.3,331.55 397.18,330.48C398.11,329.35 399.18,328.26 400.31,327.19C401.51,326.06 402.84,324.97 404.19,323.9C405.6,322.78 407.12,321.71 408.61,320.62C410.12,319.52 411.7,318.44 413.19,317.33C414.65,316.25 416.13,315.17 417.47,314.04C418.74,312.97 419.97,311.89 421.03,310.75C422.02,309.69 422.92,308.59 423.66,307.46C424.36,306.4 424.93,305.3 425.4,304.18C425.86,303.1 426.19,302 426.47,300.89C426.75,299.8 426.94,298.7 427.08,297.6C427.22,296.51 427.32,295.41 427.32,294.31C427.32,293.21 427.27,292.11 427.07,291.02C426.87,289.92 426.56,288.81 426.12,287.74C425.65,286.62 425.02,285.52 424.3,284.45C423.54,283.32 422.59,282.24 421.64,281.16C420.65,280.04 419.51,278.96 418.44,277.87C417.36,276.77 416.21,275.69 415.18,274.58C414.18,273.5 413.17,272.41 412.32,271.29C411.51,270.22 410.76,269.13 410.15,268.01C409.56,266.94 409.09,265.83 408.69,264.72C408.3,263.64 408.03,262.53 407.76,261.43C407.49,260.34 407.3,259.24 407.09,258.14C406.88,257.04 406.69,255.95 406.49,254.85C406.29,253.76 406.08,252.66 405.87,251.57C405.66,250.47 405.44,249.38 405.25,248.28C405.06,247.18 404.87,246.09 404.75,244.99C404.63,243.9 404.53,242.8 404.53,241.7C404.53,240.6 404.58,239.5 404.75,238.41C404.92,237.31 405.19,236.21 405.56,235.13C405.94,234.02 406.45,232.92 407.01,231.84C407.59,230.73 408.29,229.64 408.98,228.55C409.68,227.44 410.47,226.36 411.18,225.26C411.88,224.17 412.62,223.09 413.2,221.97C413.76,220.89 414.3,219.8 414.62,218.68C414.93,217.61 415.13,216.49 415.12,215.4C415.11,214.3 414.9,213.18 414.56,212.11C414.2,210.99 413.61,209.89 412.97,208.82C412.29,207.69 411.42,206.6 410.54,205.53C409.62,204.41 408.57,203.33 407.54,202.24C406.5,201.14 405.39,200.06 404.33,198.96C403.28,197.87 402.22,196.78 401.23,195.67C400.27,194.59 399.34,193.5 398.49,192.38C397.67,191.3 396.9,190.2 396.21,189.09C395.54,188.01 394.94,186.91 394.4,185.8C393.87,184.72 393.41,183.62 393,182.52C392.6,181.43 392.25,180.33 391.95,179.23C391.65,178.14 391.4,177.04 391.19,175.94C390.98,174.85 390.81,173.75 390.67,172.65Q390.53,171.56 390.35,169.36L389.65,169.36Q389.47,171.56 389.33,172.65C389.19,173.75 389.02,174.85 388.81,175.94C388.6,177.04 388.35,178.14 388.05,179.23C387.75,180.33 387.4,181.43 387,182.52C386.59,183.62 386.13,184.72 385.6,185.8C385.06,186.91 384.46,188.01 383.79,189.09C383.1,190.2 382.33,191.3 381.51,192.38C380.66,193.5 379.73,194.59 378.77,195.67C377.78,196.78 376.72,197.87 375.67,198.96C374.61,200.06 373.5,201.14 372.46,202.24C371.43,203.33 370.38,204.41 369.46,205.53C368.58,206.6 367.71,207.69 367.03,208.82C366.39,209.89 365.8,210.99 365.44,212.11C365.1,213.18 364.89,214.3 364.88,215.4C364.87,216.49 365.07,217.61 365.38,218.68C365.7,219.8 366.24,220.89 366.8,221.97C367.38,223.09 368.12,224.17 368.82,225.26C369.53,226.36 370.32,227.44 371.02,228.55C371.71,229.64 372.41,230.73 372.99,231.84C373.55,232.92 374.06,234.02 374.44,235.13C374.81,236.21 375.08,237.31 375.25,238.41C375.42,239.5 375.47,240.6 375.47,241.7C375.47,242.8 375.37,243.9 375.25,244.99C375.13,246.09 374.94,247.18 374.75,248.28C374.56,249.38 374.34,250.47 374.13,251.57C373.92,252.66 373.71,253.76 373.51,254.85C373.31,255.95 373.12,257.04 372.91,258.14C372.7,259.24 372.51,260.34 372.24,261.43C371.97,262.53 371.7,263.64 371.31,264.72C370.91,265.83 370.44,266.94 369.85,268.01C369.24,269.13 368.49,270.22 367.68,271.29C366.83,272.41 365.82,273.5 364.82,274.58C363.79,275.69 362.64,276.77 361.56,277.87C360.49,278.96 359.35,280.04 358.36,281.16C357.41,282.24 356.46,283.32 355.7,284.45C354.98,285.52 354.35,286.62 353.88,287.74C353.44,288.81 353.13,289.92 352.93,291.02C352.73,292.11 352.68,293.21 352.68,294.31C352.68,295.41 352.78,296.51 352.92,297.6C353.06,298.7 353.25,299.8 353.53,300.89C353.81,302 354.14,303.1 354.6,304.18C355.07,305.3 355.64,306.4 356.34,307.46C357.08,308.59 357.98,309.69 358.97,310.75C360.03,311.89 361.26,312.97 362.53,314.04C363.87,315.17 365.35,316.25 366.81,317.33C368.3,318.44 369.88,319.52 371.39,320.62C372.88,321.71 374.4,322.78 375.81,323.9C377.16,324.97 378.49,326.06 379.69,327.19C380.82,328.26 381.89,329.35 382.82,330.48C383.7,331.55 384.49,332.65 385.17,333.77C385.82,334.84 386.36,335.95 386.82,337.06C387.27,338.14 387.63,339.25 387.93,340.35C388.23,341.44 388.45,342.53 388.64,343.63C388.83,344.72 388.96,345.82 389.08,346.92C389.2,348.02 389.28,349.11 389.36,350.21C389.44,351.31 389.49,352.4 389.55,353.5C389.6,354.6 389.65,355.69 389.69,356.79C389.73,357.88 389.76,358.98 389.79,360.07C389.82,361.17 389.85,362.26 389.87,363.36C389.89,364.46 389.9,365.55 389.92,366.65Q389.93,367.75 389.96,369.94Z" style="vector-effect: non-scaling-stroke; stroke-width: 2px; stroke: rgb(99, 110, 250); stroke-opacity: 1; fill: rgb(99, 110, 250); fill-opacity: 0.5;"/><path class="box" d="M68.45,250.43H87.56M68.45,288.64H87.56V219.4H68.45ZM78,288.64V319.21M78,219.4V189.29" style="vector-effect: non-scaling-stroke; stroke-width: 2px; stroke: rgb(99, 110, 250); stroke-opacity: 1; fill: rgb(99, 110, 250); fill-opacity: 0.5;"/><path class="box" d="M224.45,251.96H243.56M224.45,281H243.56V219.78H224.45ZM234,281V327.16M234,219.78V189.29" style="vector-effect: non-scaling-stroke; stroke-width: 2px; stroke: rgb(99, 110, 250); stroke-opacity: 1; fill: rgb(99, 110, 250); fill-opacity: 0.5;"/><path class="box" d="M380.45,281H399.55M380.45,298.58H399.55V227.42H380.45ZM390,298.58V350.01M390,227.42V189.29" style="vector-effect: non-scaling-stroke; stroke-width: 2px; stroke: rgb(99, 110, 250); stroke-opacity: 1; fill: rgb(99, 110, 250); fill-opacity: 0.5;"/><path class="mean" d="M68.45,251.03H87.56" style="fill: none; vector-effect: non-scaling-stroke; stroke-width: 2px; stroke-dasharray: 4px, 2px; stroke: rgb(99, 110, 250); stroke-opacity: 1;"/><path class="mean" d="M224.45,250.63H243.56" style="fill: none; vector-effect: non-scaling-stroke; stroke-width: 2px; stroke-dasharray: 4px, 2px; stroke: rgb(99, 110, 250); stroke-opacity: 1;"/><path class="mean" d="M380.45,266.74H399.55" style="fill: none; vector-effect: non-scaling-stroke; stroke-width: 2px; stroke-dasharray: 4px, 2px; stroke: rgb(99, 110, 250); stroke-opacity: 1;"/></g></g></g><g class="overplot"/><path class="xlines-above crisp" d="M0,0" style="fill: none;"/><path class="ylines-above crisp" d="M0,0" style="fill: none;"/><g class="overlines-above"/><g class="xaxislayer-above"><g class="xtick"><text text-anchor="middle" x="0" y="533" transform="translate(158,0)" style="font-family: 'Open Sans', verdana, arial, sans-serif; font-size: 12px; fill: rgb(42, 63, 95); fill-opacity: 1; white-space: pre; opacity: 1;">&#60;=1</text></g><g class="xtick"><text text-anchor="middle" x="0" y="533" transform="translate(314,0)" style="font-family: 'Open Sans', verdana, arial, sans-serif; font-size: 12px; fill: rgb(42, 63, 95); fill-opacity: 1; white-space: pre; opacity: 1;">(1, 2]</text></g><g class="xtick"><text text-anchor="middle" x="0" y="533" transform="translate(470,0)" style="font-family: 'Open Sans', verdana, arial, sans-serif; font-size: 12px; fill: rgb(42, 63, 95); fill-opacity: 1; white-space: pre; opacity: 1;">>2</text></g></g><g class="yaxislayer-above"><g class="ytick"><text text-anchor="end" x="79" y="4.199999999999999" transform="translate(0,457.35)" style="font-family: 'Open Sans', verdana, arial, sans-serif; font-size: 12px; fill: rgb(42, 63, 95); fill-opacity: 1; white-space: pre; opacity: 1;">0</text></g><g class="ytick"><text text-anchor="end" x="79" y="4.199999999999999" style="font-family: 'Open Sans', verdana, arial, sans-serif; font-size: 12px; fill: rgb(42, 63, 95); fill-opacity: 1; white-space: pre; opacity: 1;" transform="translate(0,380.92)">10</text></g><g class="ytick"><text text-anchor="end" x="79" y="4.199999999999999" style="font-family: 'Open Sans', verdana, arial, sans-serif; font-size: 12px; fill: rgb(42, 63, 95); fill-opacity: 1; white-space: pre; opacity: 1;" transform="translate(0,304.5)">20</text></g><g class="ytick"><text text-anchor="end" x="79" y="4.199999999999999" style="font-family: 'Open Sans', verdana, arial, sans-serif; font-size: 12px; fill: rgb(42, 63, 95); fill-opacity: 1; white-space: pre; opacity: 1;" transform="translate(0,228.07)">30</text></g><g class="ytick"><text text-anchor="end" x="79" y="4.199999999999999" style="font-family: 'Open Sans', verdana, arial, sans-serif; font-size: 12px; fill: rgb(42, 63, 95); fill-opacity: 1; white-space: pre; opacity: 1;" transform="translate(0,151.64)">40</text></g></g><g class="overaxes-above"/></g><g class="subplot x2y2"><g class="layer-subplot"><g class="shapelayer"/><g class="imagelayer"/></g><g class="minor-gridlayer"><g class="x2"/><g class="y2"/></g><g class="gridlayer"><g class="x2"/><g class="y2"><path class="y2grid crisp" transform="translate(0,380.92)" d="M652,0h467.99999999999994" style="stroke: rgb(255, 255, 255); stroke-opacity: 1; stroke-width: 1px;"/><path class="y2grid crisp" transform="translate(0,304.5)" d="M652,0h467.99999999999994" style="stroke: rgb(255, 255, 255); stroke-opacity: 1; stroke-width: 1px;"/><path class="y2grid crisp" transform="translate(0,228.07)" d="M652,0h467.99999999999994" style="stroke: rgb(255, 255, 255); stroke-opacity: 1; stroke-width: 1px;"/><path class="y2grid crisp" transform="translate(0,151.64)" d="M652,0h467.99999999999994" style="stroke: rgb(255, 255, 255); stroke-opacity: 1; stroke-width: 1px;"/></g></g><g class="zerolinelayer"><path class="y2zl zl crisp" transform="translate(0,457.35)" d="M652,0h467.99999999999994" style="stroke: rgb(255, 255, 255); stroke-opacity: 1; stroke-width: 2px;"/></g><path class="xlines-below"/><path class="ylines-below"/><g class="overlines-below"/><g class="xaxislayer-below"/><g class="yaxislayer-below"/><g class="overaxes-below"/><g class="plot" transform="translate(652,100)" clip-path="url(#clip389855x2y2plot)"><g class="violinlayer mlayer"><g class="trace violins" style="opacity: 1;"><path class="violin" d="M78.41,399Q78.65,393.57 78.85,390.86C79.05,388.14 79.29,385.42 79.62,382.71C79.96,379.99 80.35,377.28 80.86,374.57C81.37,371.85 81.97,369.12 82.7,366.42C83.43,363.69 84.29,360.98 85.25,358.28C86.23,355.54 87.34,352.83 88.53,350.13C89.74,347.39 91.1,344.69 92.48,341.99C93.88,339.26 95.39,336.55 96.86,333.84C98.33,331.12 99.89,328.43 101.28,325.7C102.66,323 104.04,320.3 105.18,317.55C106.29,314.87 107.32,312.15 108.04,309.41C108.75,306.72 109.26,303.99 109.49,301.27C109.72,298.56 109.67,295.83 109.44,293.12C109.21,290.4 108.7,287.68 108.11,284.98C107.52,282.25 106.71,279.53 105.89,276.83C105.07,274.1 104.11,271.4 103.18,268.69C102.25,265.97 101.27,263.26 100.33,260.54C99.39,257.83 98.44,255.12 97.55,252.4C96.67,249.69 95.81,246.97 95.02,244.25C94.23,241.54 93.49,238.83 92.82,236.11C92.15,233.4 91.55,230.68 91.01,227.96C90.47,225.25 90,222.54 89.58,219.82C89.16,217.11 88.8,214.4 88.49,211.68C88.18,208.97 87.93,206.25 87.74,203.53C87.55,200.82 87.42,198.1 87.35,195.39C87.28,192.67 87.27,189.96 87.34,187.24C87.41,184.53 87.56,181.81 87.74,179.1C87.92,176.38 88.19,173.67 88.44,170.95C88.69,168.24 89.01,165.53 89.24,162.81C89.47,160.1 89.72,157.38 89.83,154.66C89.94,151.95 89.99,149.23 89.91,146.52C89.83,143.8 89.62,141.08 89.32,138.37C89.02,135.65 88.58,132.94 88.11,130.23C87.64,127.51 87.04,124.8 86.48,122.09C85.92,119.37 85.29,116.66 84.74,113.94C84.19,111.23 83.64,108.52 83.16,105.8C82.68,103.09 82.25,100.37 81.86,97.65C81.48,94.94 81.15,92.23 80.85,89.51C80.55,86.8 80.31,84.08 80.08,81.36C79.85,78.65 79.65,75.93 79.47,73.22C79.29,70.5 79.14,67.79 79,65.07C78.86,62.36 78.73,59.64 78.63,56.93C78.52,54.21 78.44,51.5 78.37,48.78Q78.3,46.07 78.19,40.64L77.81,40.64Q77.7,46.07 77.63,48.78C77.56,51.5 77.48,54.21 77.37,56.93C77.27,59.64 77.14,62.36 77,65.07C76.86,67.79 76.71,70.5 76.53,73.22C76.35,75.93 76.15,78.65 75.92,81.36C75.69,84.08 75.45,86.8 75.15,89.51C74.85,92.23 74.52,94.94 74.14,97.65C73.75,100.37 73.32,103.09 72.84,105.8C72.36,108.52 71.81,111.23 71.26,113.94C70.71,116.66 70.08,119.37 69.52,122.09C68.96,124.8 68.36,127.51 67.89,130.23C67.42,132.94 66.98,135.65 66.68,138.37C66.38,141.08 66.17,143.8 66.09,146.52C66.01,149.23 66.06,151.95 66.17,154.66C66.28,157.38 66.53,160.1 66.76,162.81C66.99,165.53 67.31,168.24 67.56,170.95C67.81,173.67 68.08,176.38 68.26,179.1C68.44,181.81 68.59,184.53 68.66,187.24C68.73,189.96 68.72,192.67 68.65,195.39C68.58,198.1 68.45,200.82 68.26,203.53C68.07,206.25 67.82,208.97 67.51,211.68C67.2,214.4 66.84,217.11 66.42,219.82C66,222.54 65.53,225.25 64.99,227.96C64.45,230.68 63.85,233.4 63.18,236.11C62.51,238.83 61.77,241.54 60.98,244.25C60.19,246.97 59.33,249.69 58.45,252.4C57.56,255.12 56.61,257.83 55.67,260.54C54.73,263.26 53.75,265.97 52.82,268.69C51.89,271.4 50.93,274.1 50.11,276.83C49.29,279.53 48.48,282.25 47.89,284.98C47.3,287.68 46.79,290.4 46.56,293.12C46.33,295.83 46.28,298.56 46.51,301.27C46.74,303.99 47.25,306.72 47.96,309.41C48.68,312.15 49.71,314.87 50.82,317.55C51.96,320.3 53.34,323 54.72,325.7C56.11,328.43 57.67,331.12 59.14,333.84C60.61,336.55 62.12,339.26 63.52,341.99C64.9,344.69 66.26,347.39 67.47,350.13C68.66,352.83 69.77,355.54 70.75,358.28C71.71,360.98 72.57,363.69 73.3,366.42C74.03,369.12 74.63,371.85 75.14,374.57C75.65,377.28 76.04,379.99 76.38,382.71C76.71,385.42 76.95,388.14 77.15,390.86Q77.35,393.57 77.59,399Z" style="vector-effect: non-scaling-stroke; stroke-width: 2px; stroke: rgb(239, 85, 59); stroke-opacity: 1; fill: rgb(239, 85, 59); fill-opacity: 0.5;"/><path class="violin" d="M234.1,338.47Q234.15,335.78 234.2,334.43C234.25,333.08 234.31,331.74 234.38,330.39C234.46,329.04 234.54,327.7 234.65,326.35C234.76,325 234.89,323.66 235.03,322.31C235.17,320.96 235.34,319.62 235.51,318.27C235.69,316.92 235.88,315.58 236.08,314.23C236.28,312.88 236.49,311.54 236.7,310.19C236.91,308.84 237.13,307.5 237.35,306.15C237.57,304.8 237.79,303.46 238.02,302.11C238.25,300.76 238.48,299.41 238.71,298.06C238.94,296.71 239.17,295.37 239.39,294.02C239.61,292.67 239.83,291.33 240.03,289.98C240.23,288.63 240.42,287.29 240.58,285.94C240.74,284.59 240.87,283.25 240.98,281.9C241.09,280.55 241.16,279.21 241.22,277.86C241.28,276.51 241.3,275.17 241.33,273.82C241.36,272.47 241.36,271.13 241.38,269.78C241.4,268.43 241.41,267.09 241.45,265.74C241.49,264.39 241.54,263.05 241.64,261.7C241.74,260.35 241.86,259 242.07,257.66C242.28,256.31 242.53,254.96 242.89,253.62C243.25,252.26 243.69,250.91 244.25,249.58C244.83,248.21 245.52,246.86 246.32,245.54C247.15,244.16 248.13,242.82 249.18,241.5C250.28,240.12 251.52,238.78 252.79,237.45C254.11,236.08 255.55,234.75 256.98,233.41C258.43,232.05 259.97,230.73 261.42,229.37C262.86,228.03 264.34,226.71 265.65,225.33C266.91,224.01 268.17,222.69 269.16,221.29C270.08,219.99 270.96,218.64 271.47,217.25C271.95,215.94 272.24,214.55 272.22,213.21C272.2,211.86 271.84,210.48 271.33,209.17C270.79,207.78 269.91,206.44 269.02,205.13C268.09,203.75 266.92,202.43 265.83,201.09C264.73,199.74 263.52,198.42 262.46,197.05C261.43,195.72 260.38,194.39 259.55,193.01C258.76,191.7 258.04,190.35 257.55,188.97C257.08,187.65 256.75,186.29 256.61,184.93C256.47,183.59 256.53,182.23 256.68,180.89C256.83,179.53 257.17,178.18 257.51,176.84C257.86,175.48 258.33,174.15 258.75,172.8C259.17,171.45 259.64,170.11 260.03,168.76C260.41,167.42 260.78,166.07 261.07,164.72C261.36,163.38 261.59,162.03 261.77,160.68C261.95,159.34 262.06,157.99 262.16,156.64C262.26,155.29 262.32,153.95 262.38,152.6C262.44,151.25 262.49,149.91 262.51,148.56C262.53,147.21 262.56,145.87 262.52,144.52C262.48,143.17 262.42,141.82 262.25,140.48C262.08,139.13 261.85,137.77 261.48,136.44C261.11,135.08 260.61,133.72 260.01,132.4C259.38,131.03 258.6,129.68 257.77,128.36C256.91,126.99 255.91,125.65 254.92,124.32C253.91,122.96 252.81,121.63 251.77,120.28C250.74,118.94 249.67,117.6 248.72,116.23C247.8,114.9 246.9,113.56 246.14,112.19C245.4,110.87 244.75,109.52 244.21,108.15C243.69,106.82 243.29,105.47 242.95,104.11C242.62,102.77 242.4,101.42 242.2,100.07C242,98.73 241.9,97.38 241.75,96.03C241.61,94.68 241.49,93.34 241.33,91.99C241.17,90.64 241.01,89.29 240.8,87.95C240.59,86.6 240.33,85.25 240.07,83.91C239.81,82.56 239.5,81.22 239.22,79.87C238.94,78.52 238.63,77.18 238.37,75.83C238.11,74.49 237.86,73.14 237.66,71.79C237.46,70.45 237.29,69.1 237.16,67.75C237.03,66.41 236.95,65.06 236.88,63.71C236.81,62.36 236.77,61.02 236.73,59.67C236.68,58.32 236.67,56.97 236.61,55.62C236.56,54.27 236.49,52.93 236.4,51.58C236.31,50.23 236.2,48.89 236.08,47.54C235.96,46.19 235.81,44.85 235.66,43.5C235.51,42.15 235.35,40.81 235.2,39.46C235.06,38.11 234.91,36.77 234.79,35.42C234.67,34.07 234.56,32.73 234.47,31.38Q234.38,30.03 234.25,27.34L233.75,27.34Q233.62,30.03 233.53,31.38C233.44,32.73 233.33,34.07 233.21,35.42C233.09,36.77 232.94,38.11 232.8,39.46C232.65,40.81 232.49,42.15 232.34,43.5C232.19,44.85 232.04,46.19 231.92,47.54C231.8,48.89 231.69,50.23 231.6,51.58C231.51,52.93 231.44,54.27 231.39,55.62C231.33,56.97 231.32,58.32 231.27,59.67C231.23,61.02 231.19,62.36 231.12,63.71C231.05,65.06 230.97,66.41 230.84,67.75C230.71,69.1 230.54,70.45 230.34,71.79C230.14,73.14 229.89,74.49 229.63,75.83C229.37,77.18 229.06,78.52 228.78,79.87C228.5,81.22 228.19,82.56 227.93,83.91C227.67,85.25 227.41,86.6 227.2,87.95C226.99,89.29 226.83,90.64 226.67,91.99C226.51,93.34 226.39,94.68 226.25,96.03C226.1,97.38 226,98.73 225.8,100.07C225.6,101.42 225.38,102.77 225.05,104.11C224.71,105.47 224.31,106.82 223.79,108.15C223.25,109.52 222.6,110.87 221.86,112.19C221.1,113.56 220.2,114.9 219.28,116.23C218.33,117.6 217.26,118.94 216.23,120.28C215.19,121.63 214.09,122.96 213.08,124.32C212.09,125.65 211.09,126.99 210.23,128.36C209.4,129.68 208.62,131.03 207.99,132.4C207.39,133.72 206.89,135.08 206.52,136.44C206.15,137.77 205.92,139.13 205.75,140.48C205.58,141.82 205.52,143.17 205.48,144.52C205.44,145.87 205.47,147.21 205.49,148.56C205.51,149.91 205.56,151.25 205.62,152.6C205.68,153.95 205.74,155.29 205.84,156.64C205.94,157.99 206.05,159.34 206.23,160.68C206.41,162.03 206.64,163.38 206.93,164.72C207.22,166.07 207.59,167.42 207.97,168.76C208.36,170.11 208.83,171.45 209.25,172.8C209.67,174.15 210.14,175.48 210.49,176.84C210.83,178.18 211.17,179.53 211.32,180.89C211.47,182.23 211.53,183.59 211.39,184.93C211.25,186.29 210.92,187.65 210.45,188.97C209.96,190.35 209.24,191.7 208.45,193.01C207.62,194.39 206.57,195.72 205.54,197.05C204.48,198.42 203.27,199.74 202.17,201.09C201.08,202.43 199.91,203.75 198.98,205.13C198.09,206.44 197.21,207.78 196.67,209.17C196.16,210.48 195.8,211.86 195.78,213.21C195.76,214.55 196.05,215.94 196.53,217.25C197.04,218.64 197.92,219.99 198.84,221.29C199.83,222.69 201.09,224.01 202.35,225.33C203.66,226.71 205.14,228.03 206.58,229.37C208.03,230.73 209.57,232.05 211.02,233.41C212.45,234.75 213.89,236.08 215.21,237.45C216.48,238.78 217.72,240.12 218.82,241.5C219.87,242.82 220.85,244.16 221.68,245.54C222.48,246.86 223.17,248.21 223.75,249.58C224.31,250.91 224.75,252.26 225.11,253.62C225.47,254.96 225.72,256.31 225.93,257.66C226.14,259 226.26,260.35 226.36,261.7C226.46,263.05 226.51,264.39 226.55,265.74C226.59,267.09 226.6,268.43 226.62,269.78C226.64,271.13 226.64,272.47 226.67,273.82C226.7,275.17 226.72,276.51 226.78,277.86C226.84,279.21 226.91,280.55 227.02,281.9C227.13,283.25 227.26,284.59 227.42,285.94C227.58,287.29 227.77,288.63 227.97,289.98C228.17,291.33 228.39,292.67 228.61,294.02C228.83,295.37 229.06,296.71 229.29,298.06C229.52,299.41 229.75,300.76 229.98,302.11C230.21,303.46 230.43,304.8 230.65,306.15C230.87,307.5 231.09,308.84 231.3,310.19C231.51,311.54 231.72,312.88 231.92,314.23C232.12,315.58 232.31,316.92 232.49,318.27C232.66,319.62 232.83,320.96 232.97,322.31C233.11,323.66 233.24,325 233.35,326.35C233.46,327.7 233.54,329.04 233.62,330.39C233.69,331.74 233.75,333.08 233.8,334.43Q233.85,335.78 233.9,338.47Z" style="vector-effect: non-scaling-stroke; stroke-width: 2px; stroke: rgb(239, 85, 59); stroke-opacity: 1; fill: rgb(239, 85, 59); fill-opacity: 0.5;"/><path class="violin" d="M390.02,330.21Q390.04,326.83 390.05,325.14C390.06,323.45 390.07,321.77 390.09,320.08C390.11,318.39 390.13,316.7 390.16,315.01C390.19,313.32 390.23,311.63 390.27,309.94C390.32,308.25 390.37,306.56 390.43,304.87C390.5,303.18 390.57,301.49 390.66,299.8C390.75,298.11 390.85,296.42 390.98,294.73C391.11,293.04 391.25,291.35 391.43,289.66C391.61,287.97 391.8,286.28 392.05,284.59C392.3,282.9 392.57,281.21 392.91,279.52C393.25,277.83 393.63,276.13 394.08,274.45C394.53,272.75 395.04,271.06 395.61,269.38C396.19,267.68 396.84,265.99 397.55,264.32C398.27,262.62 399.07,260.93 399.92,259.25C400.78,257.55 401.72,255.86 402.7,254.18C403.69,252.48 404.76,250.79 405.84,249.11C406.93,247.41 408.09,245.73 409.2,244.04C410.31,242.35 411.47,240.67 412.52,238.97C413.55,237.29 414.59,235.62 415.45,233.9C416.29,232.23 417.08,230.55 417.64,228.83C418.18,227.17 418.59,225.46 418.77,223.76C418.95,222.08 418.91,220.37 418.72,218.69C418.52,216.99 418.08,215.29 417.58,213.62C417.07,211.91 416.34,210.24 415.65,208.56C414.95,206.86 414.12,205.19 413.41,203.49C412.7,201.81 411.96,200.13 411.39,198.42C410.84,196.75 410.33,195.05 410.04,193.35C409.75,191.67 409.61,189.97 409.62,188.28C409.63,186.59 409.84,184.89 410.09,183.21C410.35,181.51 410.78,179.83 411.16,178.14C411.54,176.45 412.02,174.76 412.38,173.07C412.74,171.38 413.09,169.7 413.34,168C413.58,166.32 413.75,164.62 413.85,162.93C413.95,161.24 413.95,159.56 413.96,157.87C413.97,156.18 413.9,154.49 413.88,152.8C413.86,151.11 413.83,149.42 413.83,147.73C413.83,146.04 413.86,144.35 413.85,142.66C413.84,140.97 413.86,139.28 413.79,137.59C413.72,135.9 413.62,134.21 413.42,132.52C413.22,130.83 412.92,129.13 412.57,127.45C412.22,125.75 411.77,124.07 411.31,122.38C410.85,120.69 410.31,119 409.83,117.31C409.35,115.62 408.85,113.93 408.41,112.24C407.97,110.55 407.57,108.86 407.2,107.17C406.84,105.49 406.53,103.8 406.22,102.11C405.91,100.42 405.64,98.73 405.35,97.04C405.06,95.35 404.78,93.66 404.49,91.97C404.2,90.28 403.89,88.59 403.59,86.9C403.29,85.21 402.98,83.52 402.7,81.83C402.42,80.14 402.14,78.45 401.89,76.76C401.64,75.07 401.43,73.38 401.22,71.69C401.01,70 400.84,68.31 400.63,66.62C400.42,64.93 400.23,63.24 399.98,61.55C399.73,59.86 399.46,58.16 399.12,56.48C398.78,54.78 398.38,53.09 397.94,51.41C397.5,49.72 397,48.03 396.49,46.35C395.98,44.66 395.42,42.97 394.9,41.28C394.39,39.59 393.86,37.91 393.4,36.21C392.94,34.53 392.51,32.84 392.15,31.14C391.79,29.46 391.49,27.76 391.24,26.07Q390.99,24.38 390.64,21L389.36,21Q389.01,24.38 388.76,26.07C388.51,27.76 388.21,29.46 387.85,31.14C387.49,32.84 387.06,34.53 386.6,36.21C386.14,37.91 385.61,39.59 385.1,41.28C384.58,42.97 384.02,44.66 383.51,46.35C383,48.03 382.5,49.72 382.06,51.41C381.62,53.09 381.22,54.78 380.88,56.48C380.54,58.16 380.27,59.86 380.02,61.55C379.77,63.24 379.58,64.93 379.37,66.62C379.16,68.31 378.99,70 378.78,71.69C378.57,73.38 378.36,75.07 378.11,76.76C377.86,78.45 377.58,80.14 377.3,81.83C377.02,83.52 376.71,85.21 376.41,86.9C376.11,88.59 375.8,90.28 375.51,91.97C375.22,93.66 374.94,95.35 374.65,97.04C374.36,98.73 374.09,100.42 373.78,102.11C373.47,103.8 373.16,105.49 372.8,107.17C372.43,108.86 372.03,110.55 371.59,112.24C371.15,113.93 370.65,115.62 370.17,117.31C369.69,119 369.15,120.69 368.69,122.38C368.23,124.07 367.78,125.75 367.43,127.45C367.08,129.13 366.78,130.83 366.58,132.52C366.38,134.21 366.28,135.9 366.21,137.59C366.14,139.28 366.16,140.97 366.15,142.66C366.14,144.35 366.17,146.04 366.17,147.73C366.17,149.42 366.14,151.11 366.12,152.8C366.1,154.49 366.03,156.18 366.04,157.87C366.05,159.56 366.05,161.24 366.15,162.93C366.25,164.62 366.42,166.32 366.66,168C366.91,169.7 367.26,171.38 367.62,173.07C367.98,174.76 368.46,176.45 368.84,178.14C369.22,179.83 369.65,181.51 369.91,183.21C370.16,184.89 370.37,186.59 370.38,188.28C370.39,189.97 370.25,191.67 369.96,193.35C369.67,195.05 369.16,196.75 368.61,198.42C368.04,200.13 367.3,201.81 366.59,203.49C365.88,205.19 365.05,206.86 364.35,208.56C363.66,210.24 362.93,211.91 362.42,213.62C361.92,215.29 361.48,216.99 361.28,218.69C361.09,220.37 361.05,222.08 361.23,223.76C361.41,225.46 361.82,227.17 362.36,228.83C362.92,230.55 363.71,232.23 364.55,233.9C365.41,235.62 366.45,237.29 367.48,238.97C368.53,240.67 369.69,242.35 370.8,244.04C371.91,245.73 373.07,247.41 374.16,249.11C375.24,250.79 376.31,252.48 377.3,254.18C378.28,255.86 379.22,257.55 380.08,259.25C380.93,260.93 381.73,262.62 382.45,264.32C383.16,265.99 383.81,267.68 384.39,269.38C384.96,271.06 385.47,272.75 385.92,274.45C386.37,276.13 386.75,277.83 387.09,279.52C387.43,281.21 387.7,282.9 387.95,284.59C388.2,286.28 388.39,287.97 388.57,289.66C388.75,291.35 388.89,293.04 389.02,294.73C389.15,296.42 389.25,298.11 389.34,299.8C389.43,301.49 389.5,303.18 389.57,304.87C389.63,306.56 389.68,308.25 389.73,309.94C389.77,311.63 389.81,313.32 389.84,315.01C389.87,316.7 389.89,318.39 389.91,320.08C389.93,321.77 389.94,323.45 389.95,325.14Q389.96,326.83 389.98,330.21Z" style="vector-effect: non-scaling-stroke; stroke-width: 2px; stroke: rgb(239, 85, 59); stroke-opacity: 1; fill: rgb(239, 85, 59); fill-opacity: 0.5;"/><path class="box" d="M68.44,276.03H87.55M68.44,305.29H87.55V212.22H68.44ZM78,305.29V349.79M78,212.22V89.86" style="vector-effect: non-scaling-stroke; stroke-width: 2px; stroke: rgb(239, 85, 59); stroke-opacity: 1; fill: rgb(239, 85, 59); fill-opacity: 0.5;"/><path class="box" d="M224.44,185.16H243.55M224.44,219.86H243.55V143.37H224.44ZM234,219.86V314.17M234,143.37V51.64" style="vector-effect: non-scaling-stroke; stroke-width: 2px; stroke: rgb(239, 85, 59); stroke-opacity: 1; fill: rgb(239, 85, 59); fill-opacity: 0.5;"/><path class="box" d="M380.44,166.36H399.55M380.44,219.86H399.55V128.07H380.44ZM390,219.86V299.57M390,128.07V51.64" style="vector-effect: non-scaling-stroke; stroke-width: 2px; stroke: rgb(239, 85, 59); stroke-opacity: 1; fill: rgb(239, 85, 59); fill-opacity: 0.5;"/><path class="mean" d="M68.44,253.6H87.55" style="fill: none; vector-effect: non-scaling-stroke; stroke-width: 2px; stroke-dasharray: 4px, 2px; stroke: rgb(239, 85, 59); stroke-opacity: 1;"/><path class="mean" d="M224.44,183.05H243.55" style="fill: none; vector-effect: non-scaling-stroke; stroke-width: 2px; stroke-dasharray: 4px, 2px; stroke: rgb(239, 85, 59); stroke-opacity: 1;"/><path class="mean" d="M380.44,166.1H399.55" style="fill: none; vector-effect: non-scaling-stroke; stroke-width: 2px; stroke-dasharray: 4px, 2px; stroke: rgb(239, 85, 59); stroke-opacity: 1;"/></g></g></g><g class="overplot"/><path class="xlines-above crisp" d="M0,0" style="fill: none;"/><path class="ylines-above crisp" d="M0,0" style="fill: none;"/><g class="overlines-above"/><g class="xaxislayer-above"><g class="x2tick"><text text-anchor="middle" x="0" y="533" transform="translate(730,0)" style="font-family: 'Open Sans', verdana, arial, sans-serif; font-size: 12px; fill: rgb(42, 63, 95); fill-opacity: 1; white-space: pre; opacity: 1;">&#60;=1</text></g><g class="x2tick"><text text-anchor="middle" x="0" y="533" transform="translate(886,0)" style="font-family: 'Open Sans', verdana, arial, sans-serif; font-size: 12px; fill: rgb(42, 63, 95); fill-opacity: 1; white-space: pre; opacity: 1;">(1, 2]</text></g><g class="x2tick"><text text-anchor="middle" x="0" y="533" transform="translate(1042,0)" style="font-family: 'Open Sans', verdana, arial, sans-serif; font-size: 12px; fill: rgb(42, 63, 95); fill-opacity: 1; white-space: pre; opacity: 1;">>2</text></g></g><g class="yaxislayer-above"><g class="y2tick"><text text-anchor="end" x="651" y="4.199999999999999" transform="translate(0,457.35)" style="font-family: 'Open Sans', verdana, arial, sans-serif; font-size: 12px; fill: rgb(42, 63, 95); fill-opacity: 1; white-space: pre; opacity: 1;">0</text></g><g class="y2tick"><text text-anchor="end" x="651" y="4.199999999999999" style="font-family: 'Open Sans', verdana, arial, sans-serif; font-size: 12px; fill: rgb(42, 63, 95); fill-opacity: 1; white-space: pre; opacity: 1;" transform="translate(0,380.92)">10</text></g><g class="y2tick"><text text-anchor="end" x="651" y="4.199999999999999" style="font-family: 'Open Sans', verdana, arial, sans-serif; font-size: 12px; fill: rgb(42, 63, 95); fill-opacity: 1; white-space: pre; opacity: 1;" transform="translate(0,304.5)">20</text></g><g class="y2tick"><text text-anchor="end" x="651" y="4.199999999999999" style="font-family: 'Open Sans', verdana, arial, sans-serif; font-size: 12px; fill: rgb(42, 63, 95); fill-opacity: 1; white-space: pre; opacity: 1;" transform="translate(0,228.07)">30</text></g><g class="y2tick"><text text-anchor="end" x="651" y="4.199999999999999" style="font-family: 'Open Sans', verdana, arial, sans-serif; font-size: 12px; fill: rgb(42, 63, 95); fill-opacity: 1; white-space: pre; opacity: 1;" transform="translate(0,151.64)">40</text></g></g><g class="overaxes-above"/></g></g><g class="polarlayer"/><g class="smithlayer"/><g class="ternarylayer"/><g class="geolayer"/><g class="funnelarealayer"/><g class="pielayer"/><g class="iciclelayer"/><g class="treemaplayer"/><g class="sunburstlayer"/><g class="glimages"/><defs id="topdefs-389855"><g class="clips"/></defs><g class="layer-above"><g class="imagelayer"/><g class="shapelayer"/></g><g class="infolayer"><g class="g-gtitle"><text class="gtitle" x="60" y="50" text-anchor="start" dy="0em" style="font-family: 'Open Sans', verdana, arial, sans-serif; font-size: 17px; fill: rgb(42, 63, 95); opacity: 1; font-weight: normal; white-space: pre;">original_price Distributions (paperback better)</text></g><g class="g-xtitle"><text class="xtitle" x="314" y="561.8" text-anchor="middle" style="font-family: 'Open Sans', verdana, arial, sans-serif; font-size: 14px; fill: rgb(42, 63, 95); opacity: 1; font-weight: normal; white-space: pre;">Hardcover over Paperback</text></g><g class="g-x2title"><text class="x2title" x="886" y="561.8" text-anchor="middle" style="font-family: 'Open Sans', verdana, arial, sans-serif; font-size: 14px; fill: rgb(42, 63, 95); opacity: 1; font-weight: normal; white-space: pre;">Hardcover over Paperback</text></g><g class="g-ytitle"><text class="ytitle" transform="rotate(-90,40.465625,310)" x="40.465625" y="310" text-anchor="middle" style="font-family: 'Open Sans', verdana, arial, sans-serif; font-size: 14px; fill: rgb(42, 63, 95); opacity: 1; font-weight: normal; white-space: pre;">original_price</text></g><g class="g-y2title"><text class="y2title" transform="rotate(-90,612.465625,310)" x="612.465625" y="310" text-anchor="middle" style="font-family: 'Open Sans', verdana, arial, sans-serif; font-size: 14px; fill: rgb(42, 63, 95); opacity: 1; font-weight: normal; white-space: pre;">original_price</text></g><g class="annotation" data-index="0" style="opacity: 1;"><g class="annotation-text-g" transform="rotate(0,314,87)"><g class="cursor-pointer" transform="translate(273,74)"><rect class="bg" x="0.5" y="0.5" width="82" height="25" style="stroke-width: 1px; stroke: rgb(0, 0, 0); stroke-opacity: 0; fill: rgb(0, 0, 0); fill-opacity: 0;"/><text class="annotation-text" text-anchor="middle" x="41.296875" y="19" style="font-family: 'Open Sans', verdana, arial, sans-serif; font-size: 16px; fill: rgb(42, 63, 95); fill-opacity: 1; white-space: pre;">Paperback</text></g></g></g><g class="annotation" data-index="1" style="opacity: 1;"><g class="annotation-text-g" transform="rotate(0,886,87)"><g class="cursor-pointer" transform="translate(845,74)"><rect class="bg" x="0.5" y="0.5" width="81" height="25" style="stroke-width: 1px; stroke: rgb(0, 0, 0); stroke-opacity: 0; fill: rgb(0, 0, 0); fill-opacity: 0;"/><text class="annotation-text" text-anchor="middle" x="40.921875" y="19" style="font-family: 'Open Sans', verdana, arial, sans-serif; font-size: 16px; fill: rgb(42, 63, 95); fill-opacity: 1; white-space: pre;">Hardcover</text></g></g></g></g></svg>