<svg class="main-svg" xmlns="http://www.w3.org/2000/svg" xmlns:xlink="http://www.w3.org/1999/xlink" width="1200" height="600" style="" viewBox="0 0 1200 600"><rect x="0" y="0" width="1200" height="600" style="fill: rgb(255, 255, 255); fill-opacity: 1;"/><defs id="defs-912f79"><g class="clips"><clipPath id="clip912f79xyplot" class="plotclip"><rect width="468" height="420"/></clipPath><clipPath id="clip912f79x2y2plot" class="plotclip"><rect width="467.99999999999994" height="420"/></clipPath><clipPath class="axesclip" id="clip912f79x"><rect x="80" y="0" width="468" height="600"/></clipPath><clipPath class="axesclip" id="clip912f79y"><rect x="0" y="100" width="1200" height="420"/></clipPath><clipPath class="axesclip" id="clip912f79xy"><rect x="80" y="100" width="468" height="420"/></clipPath><clipPath class="axesclip" id="clip912f79y2"><rect x="0" y="100" width="1200" height="420"/></clipPath><clipPath class="axesclip" id="clip912f79xy2"><rect x="80" y="100" width="468" height="420"/></clipPath><clipPath class="axesclip" id="clip912f79x2"><rect x="652" y="0" width="467.99999999999994" height="600"/></clipPath><clipPath class="axesclip" id="clip912f79x2y"><rect x="652" y="100" width="467.99999999999994" height="420"/></clipPath><clipPath class="axesclip" id="clip912f79x2y2"><rect x="652" y="100" width="467.99999999999994" height="420"/></clipPath></g><g class="gradients"/><g class="patterns"/></defs><g class="bglayer"><rect class="bg" x="80" y="100" width="468" height="420" style="fill: rgb(229, 236, 246); fill-opacity: 1; stroke-width: 0;"/><rect class="bg" x="652" y="100" width="467.99999999999994" height="420" style="fill: rgb(229, 236, 246); fill-opacity: 1; stroke-width: 0;"/></g><g class="layer-below"><g class="imagelayer"/><g class="shapelayer"/></g><g class="cartesianlayer"><g class="subplot xy"><g class="layer-subplot"><g class="shapelayer"/><g class="imagelayer"/></g><g class="minor-gridlayer"><g class="x"/><g class="y"/></g><g class="gridlayer"><g class="x"/><g class="y"><path class="ygrid crisp" transform="translate(0,508.87)" d="M80,0h468" style="stroke: rgb(255, 255, 255); stroke-opacity: 1; stroke-width: 1px;"/><path class="ygrid crisp" transform="translate(0,459.15)" d="M80,0h468" style="stroke: rgb(255, 255, 255); stroke-opacity: 1; stroke-width: 1px;"/><path class="ygrid crisp" transform="translate(0,409.44)" d="M80,0h468" style="stroke: rgb(255, 255, 255); stroke-opacity: 1; stroke-width: 1px;"/><path class="ygrid crisp" transform="translate(0,359.72)" d="M80,0h468" style="stroke: rgb(255, 255, 255); stroke-opacity: 1; stroke-width: 1px;"/><path class="ygrid crisp" transform="translate(0,310)" d="M80,0h468" style="stroke: rgb(255, 255, 255); stroke-opacity: 1; stroke-width: 1px;"/><path class="ygrid crisp" transform="translate(0,260.28)" d="M80,0h468" style="stroke: rgb(255, 255, 255); stroke-opacity: 1; stroke-width: 1px;"/><path class="ygrid crisp" transform="translate(0,210.56)" d="M80,0h468" style="stroke: rgb(255, 255, 255); stroke-opacity: 1; stroke-width: 1px;"/><path class="ygrid crisp" transform="translate(0,160.85)" d="M80,0h468" style="stroke: rgb(255, 255, 255); stroke-opacity: 1; stroke-width: 1px;"/><path class="ygrid crisp" transform="translate(0,111.13)" d="M80,0h468" style="stroke: rgb(255, 255, 255); stroke-opacity: 1; stroke-width: 1px;"/></g></g><g class="zerolinelayer"/><path class="xlines-below"/><path class="ylines-below"/><g class="overlines-below"/><g class="xaxislayer-below"/><g class="yaxislayer-below"/><g class="overaxes-below"/><g class="plot" transform="translate(80,100)" clip-path="url(#clip912f79xyplot)"><g class="violinlayer mlayer"><g class="trace violins" style="opacity: 1;"><path class="violin" d="M78.09,327.86Q78.15,323.67 78.19,321.57C78.23,319.48 78.28,317.38 78.34,315.29C78.4,313.19 78.48,311.1 78.57,309C78.66,306.91 78.77,304.81 78.88,302.72C78.99,300.62 79.11,298.53 79.24,296.43C79.36,294.34 79.5,292.24 79.63,290.15C79.76,288.05 79.89,285.96 80.01,283.86C80.13,281.77 80.25,279.67 80.36,277.58C80.47,275.48 80.57,273.39 80.68,271.29C80.78,269.2 80.89,267.1 80.99,265.01C81.1,262.92 81.2,260.82 81.31,258.73C81.43,256.63 81.55,254.54 81.68,252.44C81.81,250.35 81.95,248.25 82.1,246.16C82.25,244.06 82.42,241.97 82.6,239.87C82.78,237.78 82.99,235.68 83.2,233.59C83.41,231.49 83.65,229.4 83.88,227.3C84.11,225.21 84.36,223.11 84.58,221.02C84.8,218.92 85.02,216.83 85.21,214.73C85.4,212.64 85.57,210.55 85.7,208.45C85.83,206.36 85.92,204.26 86.01,202.16C86.1,200.07 86.15,197.97 86.23,195.88C86.31,193.79 86.37,191.69 86.51,189.6C86.65,187.5 86.8,185.4 87.07,183.31C87.34,181.21 87.68,179.12 88.11,177.03C88.54,174.93 89.08,172.83 89.67,170.74C90.27,168.64 90.98,166.55 91.7,164.46C92.42,162.36 93.22,160.27 93.99,158.17C94.76,156.08 95.57,153.99 96.3,151.89C97.03,149.8 97.76,147.71 98.38,145.6C99,143.52 99.57,141.42 100.03,139.32C100.49,137.24 100.86,135.14 101.15,133.04C101.44,130.95 101.63,128.85 101.79,126.75C101.94,124.66 102.01,122.56 102.08,120.47C102.15,118.37 102.17,116.28 102.21,114.18C102.24,112.09 102.28,109.99 102.29,107.9C102.3,105.8 102.33,103.71 102.27,101.61C102.21,99.52 102.16,97.42 101.94,95.33C101.72,93.23 101.43,91.12 100.96,89.04C100.48,86.93 99.83,84.83 99.06,82.76C98.27,80.64 97.28,78.54 96.24,76.47C95.18,74.35 93.94,72.28 92.74,70.19C91.53,68.09 90.22,66.01 89.03,63.91C87.85,61.82 86.66,59.74 85.61,57.62C84.59,55.55 83.62,53.46 82.81,51.34C82.02,49.27 81.34,47.16 80.78,45.05C80.23,42.97 79.82,40.87 79.47,38.77Q79.12,36.68 78.7,32.48L77.3,32.48Q76.88,36.68 76.53,38.77C76.18,40.87 75.77,42.97 75.22,45.05C74.66,47.16 73.98,49.27 73.19,51.34C72.38,53.46 71.41,55.55 70.39,57.62C69.34,59.74 68.15,61.82 66.97,63.91C65.78,66.01 64.47,68.09 63.26,70.19C62.06,72.28 60.82,74.35 59.76,76.47C58.72,78.54 57.73,80.64 56.94,82.76C56.17,84.83 55.52,86.93 55.04,89.04C54.57,91.12 54.28,93.23 54.06,95.33C53.84,97.42 53.79,99.52 53.73,101.61C53.67,103.71 53.7,105.8 53.71,107.9C53.72,109.99 53.76,112.09 53.79,114.18C53.83,116.28 53.85,118.37 53.92,120.47C53.99,122.56 54.06,124.66 54.21,126.75C54.37,128.85 54.56,130.95 54.85,133.04C55.14,135.14 55.51,137.24 55.97,139.32C56.43,141.42 57,143.52 57.62,145.6C58.24,147.71 58.97,149.8 59.7,151.89C60.43,153.99 61.24,156.08 62.01,158.17C62.78,160.27 63.58,162.36 64.3,164.46C65.02,166.55 65.73,168.64 66.33,170.74C66.92,172.83 67.46,174.93 67.89,177.03C68.32,179.12 68.66,181.21 68.93,183.31C69.2,185.4 69.35,187.5 69.49,189.6C69.63,191.69 69.69,193.79 69.77,195.88C69.85,197.97 69.9,200.07 69.99,202.16C70.08,204.26 70.17,206.36 70.3,208.45C70.43,210.55 70.6,212.64 70.79,214.73C70.98,216.83 71.2,218.92 71.42,221.02C71.64,223.11 71.89,225.21 72.12,227.3C72.35,229.4 72.59,231.49 72.8,233.59C73.01,235.68 73.22,237.78 73.4,239.87C73.58,241.97 73.75,244.06 73.9,246.16C74.05,248.25 74.19,250.35 74.32,252.44C74.45,254.54 74.57,256.63 74.69,258.73C74.8,260.82 74.9,262.92 75.01,265.01C75.11,267.1 75.22,269.2 75.32,271.29C75.43,273.39 75.53,275.48 75.64,277.58C75.75,279.67 75.87,281.77 75.99,283.86C76.11,285.96 76.24,288.05 76.37,290.15C76.5,292.24 76.64,294.34 76.76,296.43C76.89,298.53 77.01,300.62 77.12,302.72C77.23,304.81 77.34,306.91 77.43,309C77.52,311.1 77.6,313.19 77.66,315.29C77.72,317.38 77.77,319.48 77.81,321.57Q77.85,323.67 77.91,327.86Z" style="vector-effect: non-scaling-stroke; stroke-width: 2px; stroke: rgb(99, 110, 250); stroke-opacity: 1; fill: rgb(99, 110, 250); fill-opacity: 0.5;"/><path class="violin" d="M234.16,310.28Q234.25,308 234.31,306.86C234.37,305.72 234.44,304.58 234.52,303.44C234.6,302.3 234.71,301.15 234.81,300.01C234.91,298.87 235.03,297.73 235.14,296.59C235.25,295.45 235.38,294.3 235.49,293.16C235.6,292.02 235.71,290.88 235.8,289.74C235.89,288.6 235.96,287.45 236.03,286.31C236.09,285.17 236.15,284.03 236.19,282.89C236.23,281.75 236.25,280.61 236.28,279.47C236.31,278.33 236.32,277.18 236.35,276.04C236.37,274.9 236.4,273.76 236.43,272.62C236.47,271.48 236.5,270.33 236.56,269.19C236.62,268.05 236.69,266.91 236.78,265.77C236.87,264.63 236.97,263.49 237.08,262.35C237.19,261.21 237.32,260.06 237.44,258.92C237.56,257.78 237.7,256.64 237.82,255.5C237.94,254.36 238.06,253.21 238.17,252.07C238.27,250.93 238.37,249.79 238.45,248.65C238.53,247.51 238.6,246.37 238.65,245.23C238.71,244.09 238.75,242.94 238.78,241.8C238.81,240.66 238.83,239.52 238.84,238.38C238.86,237.24 238.87,236.09 238.87,234.95C238.87,233.81 238.87,232.67 238.87,231.53C238.87,230.39 238.86,229.25 238.86,228.11C238.86,226.97 238.86,225.82 238.87,224.68C238.88,223.54 238.9,222.4 238.94,221.26C238.98,220.12 239.02,218.97 239.09,217.83C239.15,216.69 239.24,215.55 239.33,214.41C239.42,213.27 239.53,212.13 239.63,210.99C239.73,209.85 239.84,208.7 239.94,207.56C240.04,206.42 240.14,205.28 240.23,204.14C240.32,203 240.4,201.85 240.48,200.71C240.56,199.57 240.63,198.43 240.71,197.29C240.78,196.15 240.85,195.01 240.93,193.87C241.01,192.73 241.09,191.58 241.17,190.44C241.25,189.3 241.33,188.16 241.41,187.02C241.49,185.88 241.57,184.73 241.64,183.59C241.71,182.45 241.78,181.31 241.83,180.17C241.88,179.03 241.92,177.88 241.95,176.74C241.98,175.6 242,174.46 242.01,173.32C242.02,172.18 242.02,171.04 242.03,169.9C242.04,168.76 242.04,167.61 242.07,166.47C242.09,165.33 242.12,164.19 242.18,163.05C242.24,161.91 242.31,160.76 242.43,159.62C242.55,158.48 242.7,157.34 242.89,156.2C243.08,155.06 243.31,153.92 243.58,152.78C243.85,151.63 244.16,150.49 244.5,149.35C244.84,148.2 245.23,147.07 245.62,145.93C246.02,144.78 246.45,143.64 246.88,142.5C247.32,141.36 247.77,140.22 248.23,139.08C248.69,137.94 249.16,136.8 249.64,135.66C250.12,134.52 250.61,133.37 251.13,132.23C251.65,131.09 252.18,129.95 252.74,128.81C253.31,127.66 253.89,126.52 254.51,125.38C255.14,124.23 255.8,123.09 256.49,121.96C257.18,120.81 257.92,119.68 258.65,118.54C259.39,117.39 260.16,116.25 260.9,115.11C261.64,113.97 262.39,112.84 263.11,111.69C263.82,110.55 264.52,109.41 265.19,108.26C265.85,107.13 266.49,105.99 267.09,104.84C267.69,103.71 268.26,102.57 268.8,101.42C269.33,100.28 269.85,99.14 270.31,97.99C270.76,96.86 271.2,95.72 271.52,94.57C271.83,93.44 272.13,92.29 272.22,91.14C272.31,90 272.31,88.84 272.09,87.72C271.86,86.56 271.43,85.4 270.82,84.3C270.16,83.11 269.22,81.96 268.2,80.87C267.08,79.67 265.7,78.55 264.29,77.45C262.78,76.27 261.09,75.14 259.41,74.02C257.68,72.86 255.83,71.75 254.07,70.6C252.32,69.46 250.53,68.34 248.87,67.17C247.28,66.05 245.7,64.93 244.29,63.75C242.97,62.64 241.71,61.52 240.62,60.33C239.61,59.23 238.7,58.08 237.94,56.9C237.23,55.79 236.64,54.64 236.16,53.48Q235.7,52.36 235.09,50.05L232.91,50.05Q232.3,52.36 231.84,53.48C231.36,54.64 230.77,55.79 230.06,56.9C229.3,58.08 228.39,59.23 227.38,60.33C226.29,61.52 225.03,62.64 223.71,63.75C222.3,64.93 220.72,66.05 219.13,67.17C217.47,68.34 215.68,69.46 213.93,70.6C212.17,71.75 210.32,72.86 208.59,74.02C206.91,75.14 205.22,76.27 203.71,77.45C202.3,78.55 200.92,79.67 199.8,80.87C198.78,81.96 197.84,83.11 197.18,84.3C196.57,85.4 196.14,86.56 195.91,87.72C195.69,88.84 195.69,90 195.78,91.14C195.87,92.29 196.17,93.44 196.48,94.57C196.8,95.72 197.24,96.86 197.69,97.99C198.15,99.14 198.67,100.28 199.2,101.42C199.74,102.57 200.31,103.71 200.91,104.84C201.51,105.99 202.15,107.13 202.81,108.26C203.48,109.41 204.18,110.55 204.89,111.69C205.61,112.84 206.36,113.97 207.1,115.11C207.84,116.25 208.61,117.39 209.35,118.54C210.08,119.68 210.82,120.81 211.51,121.96C212.2,123.09 212.86,124.23 213.49,125.38C214.11,126.52 214.69,127.66 215.26,128.81C215.82,129.95 216.35,131.09 216.87,132.23C217.39,133.37 217.88,134.52 218.36,135.66C218.84,136.8 219.31,137.94 219.77,139.08C220.23,140.22 220.68,141.36 221.12,142.5C221.55,143.64 221.98,144.78 222.38,145.93C222.77,147.07 223.16,148.2 223.5,149.35C223.84,150.49 224.15,151.63 224.42,152.78C224.69,153.92 224.92,155.06 225.11,156.2C225.3,157.34 225.45,158.48 225.57,159.62C225.69,160.76 225.76,161.91 225.82,163.05C225.88,164.19 225.91,165.33 225.93,166.47C225.96,167.61 225.96,168.76 225.97,169.9C225.98,171.04 225.98,172.18 225.99,173.32C226,174.46 226.02,175.6 226.05,176.74C226.08,177.88 226.12,179.03 226.17,180.17C226.22,181.31 226.29,182.45 226.36,183.59C226.43,184.73 226.51,185.88 226.59,187.02C226.67,188.16 226.75,189.3 226.83,190.44C226.91,191.58 226.99,192.73 227.07,193.87C227.15,195.01 227.22,196.15 227.29,197.29C227.37,198.43 227.44,199.57 227.52,200.71C227.6,201.85 227.68,203 227.77,204.14C227.86,205.28 227.96,206.42 228.06,207.56C228.16,208.7 228.27,209.85 228.37,210.99C228.47,212.13 228.58,213.27 228.67,214.41C228.76,215.55 228.85,216.69 228.91,217.83C228.98,218.97 229.02,220.12 229.06,221.26C229.1,222.4 229.12,223.54 229.13,224.68C229.14,225.82 229.14,226.97 229.14,228.11C229.14,229.25 229.13,230.39 229.13,231.53C229.13,232.67 229.13,233.81 229.13,234.95C229.13,236.09 229.14,237.24 229.16,238.38C229.17,239.52 229.19,240.66 229.22,241.8C229.25,242.94 229.29,244.09 229.35,245.23C229.4,246.37 229.47,247.51 229.55,248.65C229.63,249.79 229.73,250.93 229.83,252.07C229.94,253.21 230.06,254.36 230.18,255.5C230.3,256.64 230.44,257.78 230.56,258.92C230.68,260.06 230.81,261.21 230.92,262.35C231.03,263.49 231.13,264.63 231.22,265.77C231.31,266.91 231.38,268.05 231.44,269.19C231.5,270.33 231.53,271.48 231.57,272.62C231.6,273.76 231.63,274.9 231.65,276.04C231.68,277.18 231.69,278.33 231.72,279.47C231.75,280.61 231.77,281.75 231.81,282.89C231.85,284.03 231.91,285.17 231.97,286.31C232.04,287.45 232.11,288.6 232.2,289.74C232.29,290.88 232.4,292.02 232.51,293.16C232.62,294.3 232.75,295.45 232.86,296.59C232.97,297.73 233.09,298.87 233.19,300.01C233.29,301.15 233.4,302.3 233.48,303.44C233.56,304.58 233.63,305.72 233.69,306.86Q233.75,308 233.84,310.28Z" style="vector-effect: non-scaling-stroke; stroke-width: 2px; stroke: rgb(99, 110, 250); stroke-opacity: 1; fill: rgb(99, 110, 250); fill-opacity: 0.5;"/><path class="violin" d="M390.17,319.26Q390.26,316.01 390.33,314.38C390.4,312.75 390.48,311.13 390.58,309.5C390.68,307.87 390.8,306.25 390.94,304.62C391.08,302.99 391.24,301.37 391.41,299.74C391.58,298.11 391.77,296.49 391.96,294.86C392.15,293.23 392.35,291.61 392.55,289.98C392.75,288.35 392.95,286.73 393.14,285.1C393.33,283.47 393.52,281.85 393.71,280.22C393.9,278.59 394.08,276.97 394.26,275.34C394.44,273.71 394.62,272.09 394.8,270.46C394.98,268.83 395.16,267.21 395.34,265.58C395.52,263.95 395.7,262.32 395.87,260.69C396.04,259.06 396.2,257.44 396.35,255.81C396.5,254.18 396.64,252.56 396.75,250.93C396.86,249.3 396.95,247.68 397.02,246.05C397.09,244.42 397.13,242.8 397.16,241.17C397.19,239.54 397.19,237.92 397.21,236.29C397.23,234.66 397.23,233.04 397.26,231.41C397.29,229.78 397.32,228.16 397.39,226.53C397.46,224.9 397.56,223.28 397.7,221.65C397.84,220.02 398.02,218.39 398.22,216.77C398.42,215.14 398.68,213.52 398.92,211.89C399.16,210.26 399.43,208.64 399.68,207.01C399.92,205.38 400.18,203.76 400.39,202.13C400.6,200.51 400.78,198.88 400.92,197.25C401.06,195.62 401.16,194 401.23,192.37C401.3,190.74 401.32,189.12 401.34,187.49C401.36,185.86 401.33,184.24 401.33,182.61C401.33,180.98 401.32,179.36 401.34,177.73C401.36,176.1 401.39,174.48 401.47,172.85C401.55,171.22 401.66,169.6 401.8,167.97C401.95,166.34 402.12,164.71 402.34,163.09C402.56,161.46 402.83,159.83 403.12,158.21C403.41,156.58 403.74,154.95 404.1,153.33C404.46,151.7 404.85,150.07 405.27,148.45C405.69,146.82 406.14,145.19 406.6,143.57C407.06,141.94 407.55,140.32 408.04,138.69C408.53,137.06 409.04,135.44 409.52,133.81C410,132.19 410.48,130.56 410.92,128.93C411.36,127.3 411.78,125.67 412.15,124.04C412.52,122.42 412.86,120.79 413.15,119.16C413.43,117.54 413.67,115.91 413.86,114.28C414.05,112.66 414.18,111.03 414.27,109.4C414.36,107.77 414.4,106.15 414.38,104.52C414.36,102.89 414.3,101.26 414.16,99.64C414.02,98.01 413.84,96.38 413.56,94.76C413.28,93.13 412.93,91.5 412.49,89.88C412.04,88.24 411.5,86.61 410.87,85C410.23,83.36 409.48,81.73 408.67,80.12C407.84,78.48 406.9,76.85 405.95,75.24C404.98,73.6 403.92,71.98 402.9,70.36C401.87,68.73 400.8,67.12 399.8,65.48C398.81,63.86 397.82,62.24 396.94,60.6C396.08,58.99 395.25,57.36 394.55,55.72C393.86,54.11 393.26,52.48 392.75,50.84C392.25,49.23 391.85,47.59 391.52,45.96Q391.19,44.34 390.77,41.08L389.23,41.08Q388.81,44.34 388.48,45.96C388.15,47.59 387.75,49.23 387.25,50.84C386.74,52.48 386.14,54.11 385.45,55.72C384.75,57.36 383.92,58.99 383.06,60.6C382.18,62.24 381.19,63.86 380.2,65.48C379.2,67.12 378.13,68.73 377.1,70.36C376.08,71.98 375.02,73.6 374.05,75.24C373.1,76.85 372.16,78.48 371.33,80.12C370.52,81.73 369.77,83.36 369.13,85C368.5,86.61 367.96,88.24 367.51,89.88C367.07,91.5 366.72,93.13 366.44,94.76C366.16,96.38 365.98,98.01 365.84,99.64C365.7,101.26 365.64,102.89 365.62,104.52C365.6,106.15 365.64,107.77 365.73,109.4C365.82,111.03 365.95,112.66 366.14,114.28C366.33,115.91 366.57,117.54 366.85,119.16C367.14,120.79 367.48,122.42 367.85,124.04C368.22,125.67 368.64,127.3 369.08,128.93C369.52,130.56 370,132.19 370.48,133.81C370.96,135.44 371.47,137.06 371.96,138.69C372.45,140.32 372.94,141.94 373.4,143.57C373.86,145.19 374.31,146.82 374.73,148.45C375.15,150.07 375.54,151.7 375.9,153.33C376.26,154.95 376.59,156.58 376.88,158.21C377.17,159.83 377.44,161.46 377.66,163.09C377.88,164.71 378.05,166.34 378.2,167.97C378.34,169.6 378.45,171.22 378.53,172.85C378.61,174.48 378.64,176.1 378.66,177.73C378.68,179.36 378.67,180.98 378.67,182.61C378.67,184.24 378.64,185.86 378.66,187.49C378.68,189.12 378.7,190.74 378.77,192.37C378.84,194 378.94,195.62 379.08,197.25C379.22,198.88 379.4,200.51 379.61,202.13C379.82,203.76 380.08,205.38 380.32,207.01C380.57,208.64 380.84,210.26 381.08,211.89C381.32,213.52 381.58,215.14 381.78,216.77C381.98,218.39 382.16,220.02 382.3,221.65C382.44,223.28 382.54,224.9 382.61,226.53C382.68,228.16 382.71,229.78 382.74,231.41C382.77,233.04 382.77,234.66 382.79,236.29C382.81,237.92 382.81,239.54 382.84,241.17C382.87,242.8 382.91,244.42 382.98,246.05C383.05,247.68 383.14,249.3 383.25,250.93C383.36,252.56 383.5,254.18 383.65,255.81C383.8,257.44 383.96,259.06 384.13,260.69C384.3,262.32 384.48,263.95 384.66,265.58C384.84,267.21 385.02,268.83 385.2,270.46C385.38,272.09 385.56,273.71 385.74,275.34C385.92,276.97 386.1,278.59 386.29,280.22C386.48,281.85 386.67,283.47 386.86,285.1C387.05,286.73 387.25,288.35 387.45,289.98C387.65,291.61 387.85,293.23 388.04,294.86C388.23,296.49 388.42,298.11 388.59,299.74C388.76,301.37 388.92,302.99 389.06,304.62C389.2,306.25 389.32,307.87 389.42,309.5C389.52,311.13 389.6,312.75 389.67,314.38Q389.74,316.01 389.83,319.26Z" style="vector-effect: non-scaling-stroke; stroke-width: 2px; stroke: rgb(99, 110, 250); stroke-opacity: 1; fill: rgb(99, 110, 250); fill-opacity: 0.5;"/><path class="box" d="M68.45,130.45H87.56M68.45,160.28H87.56V90.68H68.45ZM78,160.28V259.72M78,90.68V70.79" style="vector-effect: non-scaling-stroke; stroke-width: 2px; stroke: rgb(99, 110, 250); stroke-opacity: 1; fill: rgb(99, 110, 250); fill-opacity: 0.5;"/><path class="box" d="M224.45,110.56H243.56M224.45,150.34H243.56V90.68H224.45ZM234,150.34V239.83M234,90.68V70.79" style="vector-effect: non-scaling-stroke; stroke-width: 2px; stroke: rgb(99, 110, 250); stroke-opacity: 1; fill: rgb(99, 110, 250); fill-opacity: 0.5;"/><path class="box" d="M380.45,130.45H399.55M380.45,190.11H399.55V100.62H380.45ZM390,190.11V289.55M390,100.62V70.79" style="vector-effect: non-scaling-stroke; stroke-width: 2px; stroke: rgb(99, 110, 250); stroke-opacity: 1; fill: rgb(99, 110, 250); fill-opacity: 0.5;"/><path class="mean" d="M68.45,136.97H87.56" style="fill: none; vector-effect: non-scaling-stroke; stroke-width: 2px; stroke-dasharray: 4px, 2px; stroke: rgb(99, 110, 250); stroke-opacity: 1;"/><path class="mean" d="M224.45,128.15H243.56" style="fill: none; vector-effect: non-scaling-stroke; stroke-width: 2px; stroke-dasharray: 4px, 2px; stroke: rgb(99, 110, 250); stroke-opacity: 1;"/><path class="mean" d="M380.45,146.85H399.55" style="fill: none; vector-effect: non-scaling-stroke; stroke-width: 2px; stroke-dasharray: 4px, 2px; stroke: rgb(99, 110, 250); stroke-opacity: 1;"/></g></g></g><g class="overplot"/><path class="xlines-above crisp" d="M0,0" style="fill: none;"/><path class="ylines-above crisp" d="M0,0" style="fill: none;"/><g class="overlines-above"/><g class="xaxislayer-above"><g class="xtick"><text text-anchor="middle" x="0" y="533" transform="translate(158,0)" style="font-family: 'Open Sans', verdana, arial, sans-serif; font-size: 12px; fill: rgb(42, 63, 95); fill-opacity: 1; white-space: pre; opacity: 1;">&#60;=1</text></g><g class="xtick"><text text-anchor="middle" x="0" y="533" transform="translate(314,0)" style="font-family: 'Open Sans', verdana, arial, sans-serif; font-size: 12px; fill: rgb(42, 63, 95); fill-opacity: 1; white-space: pre; opacity: 1;">(1, 2]</text></g><g class="xtick"><text text-anchor="middle" x="0" y="533" transform="translate(470,0)" style="font-family: 'Open Sans', verdana, arial, sans-serif; font-size: 12px; fill: rgb(42, 63, 95); fill-opacity: 1; white-space: pre; opacity: 1;">>2</text></g></g><g class="yaxislayer-above"><g class="ytick"><text text-anchor="end" x="79" y="4.199999999999999" transform="translate(0,508.87)" style="font-family: 'Open Sans', verdana, arial, sans-serif; font-size: 12px; fill: rgb(42, 63, 95); fill-opacity: 1; white-space: pre; opacity: 1;">1990</text></g><g class="ytick"><text text-anchor="end" x="79" y="4.199999999999999" style="font-family: 'Open Sans', verdana, arial, sans-serif; font-size: 12px; fill: rgb(42, 63, 95); fill-opacity: 1; white-space: pre; opacity: 1;" transform="translate(0,459.15)">1995</text></g><g class="ytick"><text text-anchor="end" x="79" y="4.199999999999999" style="font-family: 'Open Sans', verdana, arial, sans-serif; font-size: 12px; fill: rgb(42, 63, 95); fill-opacity: 1; white-space: pre; opacity: 1;" transform="translate(0,409.44)">2000</text></g><g class="ytick"><text text-anchor="end" x="79" y="4.199999999999999" style="font-family: 'Open Sans', verdana, arial, sans-serif; font-size: 12px; fill: rgb(42, 63, 95); fill-opacity: 1; white-space: pre; opacity: 1;" transform="translate(0,359.72)">2005</text></g><g class="ytick"><text text-anchor="end" x="79" y="4.199999999999999" style="font-family: 'Open Sans', verdana, arial, sans-serif; font-size: 12px; fill: rgb(42, 63, 95); fill-opacity: 1; white-space: pre; opacity: 1;" transform="translate(0,310)">2010</text></g><g class="ytick"><text text-anchor="end" x="79" y="4.199999999999999" style="font-family: 'Open Sans', verdana, arial, sans-serif; font-size: 12px; fill: rgb(42, 63, 95); fill-opacity: 1; white-space: pre; opacity: 1;" transform="translate(0,260.28)">2015</text></g><g class="ytick"><text text-anchor="end" x="79" y="4.199999999999999" style="font-family: 'Open Sans', verdana, arial, sans-serif; font-size: 12px; fill: rgb(42, 63, 95); fill-opacity: 1; white-space: pre; opacity: 1;" transform="translate(0,210.56)">2020</text></g><g class="ytick"><text text-anchor="end" x="79" y="4.199999999999999" style="font-family: 'Open Sans', verdana, arial, sans-serif; font-size: 12px; fill: rgb(42, 63, 95); fill-opacity: 1; white-space: pre; opacity: 1;" transform="translate(0,160.85)">2025</text></g><g class="ytick"><text text-anchor="end" x="79" y="4.199999999999999" style="font-family: 'Open Sans', verdana, arial, sans-serif; font-size: 12px; fill: rgb(42, 63, 95); fill-opacity: 1; white-space: pre; opacity: 1;" transform="translate(0,111.13)">2030</text></g></g><g class="overaxes-above"/></g><g class="subplot x2y2"><g class="layer-subplot"><g class="shapelayer"/><g class="imagelayer"/></g><g class="minor-gridlayer"><g class="x2"/><g class="y2"/></g><g class="gridlayer"><g class="x2"/><g class="y2"><path class="y2grid crisp" transform="translate(0,508.87)" d="M652,0h467.99999999999994" style="stroke: rgb(255, 255, 255); stroke-opacity: 1; stroke-width: 1px;"/><path class="y2grid crisp" transform="translate(0,459.15)" d="M652,0h467.99999999999994" style="stroke: rgb(255, 255, 255); stroke-opacity: 1; stroke-width: 1px;"/><path class="y2grid crisp" transform="translate(0,409.44)" d="M652,0h467.99999999999994" style="stroke: rgb(255, 255, 255); stroke-opacity: 1; stroke-width: 1px;"/><path class="y2grid crisp" transform="translate(0,359.72)" d="M652,0h467.99999999999994" style="stroke: rgb(255, 255, 255); stroke-opacity: 1; stroke-width: 1px;"/><path class="y2grid crisp" transform="translate(0,310)" d="M652,0h467.99999999999994" style="stroke: rgb(255, 255, 255); stroke-opacity: 1; stroke-width: 1px;"/><path class="y2grid crisp" transform="translate(0,260.28)" d="M652,0h467.99999999999994" style="stroke: rgb(255, 255, 255); stroke-opacity: 1; stroke-width: 1px;"/><path class="y2grid crisp" transform="translate(0,210.56)" d="M652,0h467.99999999999994" style="stroke: rgb(255, 255, 255); stroke-opacity: 1; stroke-width: 1px;"/><path class="y2grid crisp" transform="translate(0,160.85)" d="M652,0h467.99999999999994" style="stroke: rgb(255, 255, 255); stroke-opacity: 1; stroke-width: 1px;"/><path class="y2grid crisp" transform="translate(0,111.13)" d="M652,0h467.99999999999994" style="stroke: rgb(255, 255, 255); stroke-opacity: 1; stroke-width: 1px;"/></g></g><g class="zerolinelayer"/><path class="xlines-below"/><path class="ylines-below"/><g class="overlines-below"/><g class="xaxislayer-below"/><g class="yaxislayer-below"/><g class="overaxes-below"/><g class="plot" transform="translate(652,100)" clip-path="url(#clip912f79x2y2plot)"><g class="violinlayer mlayer"><g class="trace violins" style="opacity: 1;"><path class="violin" d="M78.25,399Q78.38,393.52 78.48,390.78C78.58,388.04 78.7,385.31 78.83,382.57C78.96,379.83 79.12,377.09 79.28,374.35C79.44,371.61 79.63,368.87 79.81,366.13C79.99,363.39 80.18,360.65 80.34,357.91C80.5,355.17 80.65,352.44 80.76,349.7C80.87,346.96 80.96,344.22 81.01,341.48C81.06,338.74 81.07,336 81.06,333.26C81.05,330.52 81.01,327.78 80.96,325.04C80.92,322.3 80.84,319.57 80.79,316.83C80.74,314.09 80.68,311.35 80.66,308.61C80.64,305.87 80.63,303.13 80.66,300.39C80.69,297.65 80.76,294.91 80.85,292.17C80.94,289.43 81.07,286.7 81.21,283.96C81.35,281.22 81.53,278.48 81.71,275.74C81.89,273 82.1,270.26 82.3,267.52C82.5,264.78 82.72,262.04 82.93,259.3C83.14,256.56 83.36,253.83 83.58,251.09C83.8,248.35 84.03,245.61 84.25,242.87C84.47,240.13 84.69,237.39 84.91,234.65C85.12,231.91 85.34,229.17 85.54,226.43C85.74,223.69 85.93,220.96 86.12,218.22C86.31,215.48 86.49,212.74 86.69,210C86.89,207.26 87.08,204.52 87.32,201.78C87.56,199.04 87.81,196.3 88.13,193.57C88.45,190.83 88.81,188.09 89.24,185.35C89.67,182.61 90.16,179.86 90.7,177.13C91.24,174.38 91.85,171.64 92.49,168.91C93.13,166.17 93.82,163.44 94.52,160.7C95.22,157.96 95.95,155.22 96.67,152.48C97.39,149.74 98.14,147 98.85,144.26C99.56,141.52 100.28,138.78 100.95,136.04C101.61,133.31 102.28,130.57 102.84,127.83C103.4,125.1 103.94,122.36 104.3,119.61C104.66,116.88 104.96,114.13 105.02,111.39C105.08,108.65 104.99,105.9 104.66,103.17C104.32,100.42 103.75,97.67 102.99,94.96C102.22,92.19 101.17,89.45 100.04,86.74C98.89,83.97 97.5,81.25 96.14,78.52C94.77,75.77 93.24,73.05 91.84,70.3C90.45,67.57 89.01,64.85 87.75,62.09C86.51,59.37 85.32,56.63 84.31,53.87C83.32,51.15 82.46,48.41 81.74,45.65C81.03,42.93 80.49,40.18 80.03,37.43C79.58,34.7 79.26,31.96 79,29.22Q78.74,26.48 78.45,21L77.55,21Q77.26,26.48 77,29.22C76.74,31.96 76.42,34.7 75.97,37.43C75.51,40.18 74.97,42.93 74.26,45.65C73.54,48.41 72.68,51.15 71.69,53.87C70.68,56.63 69.49,59.37 68.25,62.09C66.99,64.85 65.55,67.57 64.16,70.3C62.76,73.05 61.23,75.77 59.86,78.52C58.5,81.25 57.11,83.97 55.96,86.74C54.83,89.45 53.78,92.19 53.01,94.96C52.25,97.67 51.68,100.42 51.34,103.17C51.01,105.9 50.92,108.65 50.98,111.39C51.04,114.13 51.34,116.88 51.7,119.61C52.06,122.36 52.6,125.1 53.16,127.83C53.72,130.57 54.39,133.31 55.05,136.04C55.72,138.78 56.44,141.52 57.15,144.26C57.86,147 58.61,149.74 59.33,152.48C60.05,155.22 60.78,157.96 61.48,160.7C62.18,163.44 62.87,166.17 63.51,168.91C64.15,171.64 64.76,174.38 65.3,177.13C65.84,179.86 66.33,182.61 66.76,185.35C67.19,188.09 67.55,190.83 67.87,193.57C68.19,196.3 68.44,199.04 68.68,201.78C68.92,204.52 69.11,207.26 69.31,210C69.51,212.74 69.69,215.48 69.88,218.22C70.07,220.96 70.26,223.69 70.46,226.43C70.66,229.17 70.88,231.91 71.09,234.65C71.31,237.39 71.53,240.13 71.75,242.87C71.97,245.61 72.2,248.35 72.42,251.09C72.64,253.83 72.86,256.56 73.07,259.3C73.28,262.04 73.5,264.78 73.7,267.52C73.9,270.26 74.11,273 74.29,275.74C74.47,278.48 74.65,281.22 74.79,283.96C74.93,286.7 75.06,289.43 75.15,292.17C75.24,294.91 75.31,297.65 75.34,300.39C75.37,303.13 75.36,305.87 75.34,308.61C75.32,311.35 75.26,314.09 75.21,316.83C75.16,319.57 75.08,322.3 75.04,325.04C74.99,327.78 74.95,330.52 74.94,333.26C74.93,336 74.94,338.74 74.99,341.48C75.04,344.22 75.13,346.96 75.24,349.7C75.35,352.44 75.5,355.17 75.66,357.91C75.82,360.65 76.01,363.39 76.19,366.13C76.37,368.87 76.56,371.61 76.72,374.35C76.88,377.09 77.04,379.83 77.17,382.57C77.3,385.31 77.42,388.04 77.52,390.78Q77.62,393.52 77.75,399Z" style="vector-effect: non-scaling-stroke; stroke-width: 2px; stroke: rgb(239, 85, 59); stroke-opacity: 1; fill: rgb(239, 85, 59); fill-opacity: 0.5;"/><path class="violin" d="M234.12,376.8Q234.18,373.75 234.23,372.23C234.28,370.71 234.33,369.18 234.4,367.66C234.47,366.14 234.56,364.61 234.65,363.09C234.74,361.57 234.85,360.04 234.96,358.52C235.07,357 235.19,355.47 235.31,353.95C235.43,352.43 235.55,350.9 235.66,349.38C235.77,347.86 235.88,346.33 235.97,344.81C236.06,343.29 236.15,341.76 236.22,340.24C236.29,338.72 236.35,337.19 236.4,335.67C236.45,334.15 236.48,332.62 236.51,331.1C236.54,329.58 236.57,328.05 236.59,326.53C236.61,325.01 236.63,323.48 236.65,321.96C236.67,320.44 236.69,318.91 236.71,317.39C236.73,315.87 236.75,314.34 236.77,312.82C236.79,311.3 236.81,309.77 236.83,308.25C236.85,306.73 236.86,305.2 236.88,303.68C236.9,302.16 236.91,300.63 236.93,299.11C236.95,297.59 236.98,296.06 237,294.54C237.03,293.02 237.05,291.49 237.08,289.97C237.11,288.45 237.15,286.92 237.2,285.4C237.25,283.88 237.29,282.35 237.36,280.83C237.43,279.31 237.51,277.78 237.6,276.26C237.69,274.74 237.79,273.21 237.9,271.69C238.01,270.17 238.14,268.64 238.27,267.12C238.4,265.6 238.54,264.07 238.67,262.55C238.8,261.03 238.94,259.5 239.06,257.98C239.18,256.46 239.28,254.93 239.37,253.41C239.45,251.89 239.52,250.36 239.57,248.84C239.62,247.32 239.65,245.79 239.68,244.27C239.7,242.75 239.71,241.22 239.72,239.7C239.73,238.18 239.73,236.65 239.75,235.13C239.77,233.61 239.79,232.08 239.84,230.56C239.89,229.04 239.95,227.51 240.03,225.99C240.11,224.47 240.22,222.94 240.34,221.42C240.46,219.9 240.61,218.37 240.76,216.85C240.91,215.33 241.08,213.8 241.24,212.28C241.4,210.76 241.58,209.24 241.73,207.72C241.88,206.2 242.03,204.67 242.16,203.15C242.29,201.63 242.41,200.1 242.51,198.58C242.61,197.06 242.68,195.53 242.74,194.01C242.8,192.49 242.84,190.96 242.88,189.44C242.92,187.92 242.94,186.39 242.97,184.87C243.01,183.35 243.04,181.82 243.09,180.3C243.15,178.78 243.21,177.25 243.3,175.73C243.4,174.21 243.51,172.68 243.66,171.16C243.81,169.64 243.99,168.11 244.2,166.59C244.41,165.06 244.66,163.54 244.93,162.02C245.2,160.49 245.51,158.97 245.83,157.45C246.15,155.92 246.5,154.4 246.87,152.88C247.24,151.35 247.63,149.83 248.04,148.31C248.45,146.78 248.87,145.26 249.33,143.74C249.79,142.21 250.27,140.69 250.78,139.17C251.3,137.64 251.84,136.12 252.43,134.6C253.03,133.07 253.67,131.54 254.36,130.03C255.06,128.5 255.81,126.97 256.61,125.46C257.42,123.92 258.3,122.4 259.21,120.89C260.13,119.36 261.11,117.84 262.09,116.32C263.08,114.79 264.13,113.28 265.12,111.75C266.1,110.23 267.11,108.72 268,107.18C268.87,105.67 269.74,104.16 270.4,102.61C271.04,101.11 271.62,99.58 271.92,98.04C272.21,96.54 272.35,94.98 272.22,93.47C272.08,91.94 271.68,90.38 271.09,88.9C270.46,87.33 269.52,85.8 268.48,84.33C267.36,82.75 265.97,81.24 264.54,79.76C263.03,78.19 261.31,76.7 259.62,75.19C257.89,73.65 256.03,72.15 254.25,70.62C252.48,69.1 250.67,67.6 248.99,66.05C247.37,64.55 245.76,63.04 244.33,61.48C242.97,59.99 241.69,58.48 240.6,56.91C239.56,55.42 238.65,53.89 237.89,52.34C237.16,50.85 236.58,49.31 236.1,47.77Q235.63,46.26 235.04,43.2L232.96,43.2Q232.37,46.26 231.9,47.77C231.42,49.31 230.84,50.85 230.11,52.34C229.35,53.89 228.44,55.42 227.4,56.91C226.31,58.48 225.03,59.99 223.67,61.48C222.24,63.04 220.63,64.55 219.01,66.05C217.33,67.6 215.52,69.1 213.75,70.62C211.97,72.15 210.11,73.65 208.38,75.19C206.69,76.7 204.97,78.19 203.46,79.76C202.03,81.24 200.64,82.75 199.52,84.33C198.48,85.8 197.54,87.33 196.91,88.9C196.32,90.38 195.92,91.94 195.78,93.47C195.65,94.98 195.79,96.54 196.08,98.04C196.38,99.58 196.96,101.11 197.6,102.61C198.26,104.16 199.13,105.67 200,107.18C200.89,108.72 201.9,110.23 202.88,111.75C203.87,113.28 204.92,114.79 205.91,116.32C206.89,117.84 207.87,119.36 208.79,120.89C209.7,122.4 210.58,123.92 211.39,125.46C212.19,126.97 212.94,128.5 213.64,130.03C214.33,131.54 214.97,133.07 215.57,134.6C216.16,136.12 216.7,137.64 217.22,139.17C217.73,140.69 218.21,142.21 218.67,143.74C219.13,145.26 219.55,146.78 219.96,148.31C220.37,149.83 220.76,151.35 221.13,152.88C221.5,154.4 221.85,155.92 222.17,157.45C222.49,158.97 222.8,160.49 223.07,162.02C223.34,163.54 223.59,165.06 223.8,166.59C224.01,168.11 224.19,169.64 224.34,171.16C224.49,172.68 224.6,174.21 224.7,175.73C224.79,177.25 224.85,178.78 224.91,180.3C224.96,181.82 224.99,183.35 225.03,184.87C225.06,186.39 225.08,187.92 225.12,189.44C225.16,190.96 225.2,192.49 225.26,194.01C225.32,195.53 225.39,197.06 225.49,198.58C225.59,200.1 225.71,201.63 225.84,203.15C225.97,204.67 226.12,206.2 226.27,207.72C226.42,209.24 226.6,210.76 226.76,212.28C226.92,213.8 227.09,215.33 227.24,216.85C227.39,218.37 227.54,219.9 227.66,221.42C227.78,222.94 227.89,224.47 227.97,225.99C228.05,227.51 228.11,229.04 228.16,230.56C228.21,232.08 228.23,233.61 228.25,235.13C228.27,236.65 228.27,238.18 228.28,239.7C228.29,241.22 228.3,242.75 228.32,244.27C228.35,245.79 228.38,247.32 228.43,248.84C228.48,250.36 228.55,251.89 228.63,253.41C228.72,254.93 228.82,256.46 228.94,257.98C229.06,259.5 229.2,261.03 229.33,262.55C229.46,264.07 229.6,265.6 229.73,267.12C229.86,268.64 229.99,270.17 230.1,271.69C230.21,273.21 230.31,274.74 230.4,276.26C230.49,277.78 230.57,279.31 230.64,280.83C230.71,282.35 230.75,283.88 230.8,285.4C230.85,286.92 230.89,288.45 230.92,289.97C230.95,291.49 230.97,293.02 231,294.54C231.02,296.06 231.05,297.59 231.07,299.11C231.09,300.63 231.1,302.16 231.12,303.68C231.14,305.2 231.15,306.73 231.17,308.25C231.19,309.77 231.21,311.3 231.23,312.82C231.25,314.34 231.27,315.87 231.29,317.39C231.31,318.91 231.33,320.44 231.35,321.96C231.37,323.48 231.39,325.01 231.41,326.53C231.43,328.05 231.46,329.58 231.49,331.1C231.52,332.62 231.55,334.15 231.6,335.67C231.65,337.19 231.71,338.72 231.78,340.24C231.85,341.76 231.94,343.29 232.03,344.81C232.12,346.33 232.23,347.86 232.34,349.38C232.45,350.9 232.57,352.43 232.69,353.95C232.81,355.47 232.93,357 233.04,358.52C233.15,360.04 233.26,361.57 233.35,363.09C233.44,364.61 233.53,366.14 233.6,367.66C233.67,369.18 233.72,370.71 233.77,372.23Q233.82,373.75 233.88,376.8Z" style="vector-effect: non-scaling-stroke; stroke-width: 2px; stroke: rgb(239, 85, 59); stroke-opacity: 1; fill: rgb(239, 85, 59); fill-opacity: 0.5;"/><path class="violin" d="M390.15,387.09Q390.24,382.95 390.3,380.88C390.37,378.81 390.44,376.74 390.54,374.67C390.64,372.6 390.76,370.52 390.9,368.45C391.04,366.38 391.19,364.31 391.36,362.24C391.53,360.17 391.72,358.09 391.91,356.02C392.09,353.95 392.29,351.88 392.47,349.81C392.65,347.74 392.83,345.67 392.98,343.6C393.13,341.53 393.27,339.45 393.39,337.38C393.51,335.31 393.6,333.24 393.68,331.17C393.76,329.1 393.82,327.03 393.88,324.96C393.94,322.89 393.97,320.81 394.02,318.74C394.06,316.67 394.11,314.6 394.15,312.53C394.2,310.46 394.24,308.38 394.29,306.31C394.34,304.24 394.4,302.17 394.47,300.1C394.54,298.03 394.62,295.96 394.7,293.89C394.78,291.82 394.87,289.74 394.96,287.67C395.05,285.6 395.15,283.53 395.25,281.46C395.35,279.39 395.45,277.32 395.55,275.25C395.65,273.18 395.75,271.1 395.84,269.03C395.93,266.96 396.02,264.89 396.1,262.82C396.18,260.75 396.26,258.67 396.34,256.6C396.41,254.53 396.48,252.46 396.55,250.39C396.62,248.32 396.7,246.25 396.78,244.18C396.86,242.11 396.94,240.03 397.03,237.96C397.12,235.89 397.22,233.82 397.33,231.75C397.44,229.68 397.56,227.6 397.68,225.53C397.8,223.46 397.93,221.39 398.06,219.32C398.19,217.25 398.32,215.18 398.44,213.11C398.57,211.04 398.69,208.96 398.81,206.89C398.93,204.82 399.05,202.75 399.17,200.68C399.3,198.61 399.42,196.54 399.56,194.47C399.7,192.4 399.84,190.32 400.02,188.25C400.2,186.18 400.39,184.11 400.62,182.04C400.85,179.97 401.12,177.89 401.42,175.82C401.72,173.75 402.06,171.68 402.44,169.61C402.82,167.54 403.25,165.47 403.7,163.4C404.15,161.32 404.65,159.25 405.15,157.18C405.66,155.11 406.2,153.04 406.73,150.97C407.26,148.9 407.82,146.82 408.35,144.75C408.88,142.68 409.4,140.61 409.89,138.54C410.38,136.47 410.85,134.4 411.29,132.33C411.73,130.26 412.13,128.18 412.52,126.11C412.91,124.04 413.27,121.97 413.62,119.9C413.97,117.83 414.3,115.76 414.61,113.69C414.91,111.62 415.22,109.55 415.45,107.47C415.68,105.4 415.91,103.33 415.99,101.26C416.07,99.19 416.11,97.11 415.95,95.04C415.79,92.96 415.52,90.88 415.05,88.83C414.57,86.74 413.89,84.66 413.09,82.62C412.26,80.52 411.22,78.45 410.13,76.4C409.01,74.3 407.71,72.25 406.45,70.19C405.18,68.11 403.8,66.06 402.52,63.98C401.25,61.92 399.96,59.85 398.82,57.76C397.7,55.71 396.64,53.64 395.73,51.55C394.84,49.5 394.06,47.42 393.41,45.33C392.77,43.28 392.27,41.2 391.86,39.12Q391.45,37.06 390.93,32.91L389.07,32.91Q388.55,37.06 388.14,39.12C387.73,41.2 387.23,43.28 386.59,45.33C385.94,47.42 385.16,49.5 384.27,51.55C383.36,53.64 382.3,55.71 381.18,57.76C380.04,59.85 378.75,61.92 377.48,63.98C376.2,66.06 374.82,68.11 373.55,70.19C372.29,72.25 370.99,74.3 369.87,76.4C368.78,78.45 367.74,80.52 366.91,82.62C366.11,84.66 365.43,86.74 364.95,88.83C364.48,90.88 364.21,92.96 364.05,95.04C363.89,97.11 363.93,99.19 364.01,101.26C364.09,103.33 364.32,105.4 364.55,107.47C364.78,109.55 365.09,111.62 365.39,113.69C365.7,115.76 366.03,117.83 366.38,119.9C366.73,121.97 367.09,124.04 367.48,126.11C367.87,128.18 368.27,130.26 368.71,132.33C369.15,134.4 369.62,136.47 370.11,138.54C370.6,140.61 371.12,142.68 371.65,144.75C372.18,146.82 372.74,148.9 373.27,150.97C373.8,153.04 374.34,155.11 374.85,157.18C375.35,159.25 375.85,161.32 376.3,163.4C376.75,165.47 377.18,167.54 377.56,169.61C377.94,171.68 378.28,173.75 378.58,175.82C378.88,177.89 379.15,179.97 379.38,182.04C379.61,184.11 379.8,186.18 379.98,188.25C380.16,190.32 380.3,192.4 380.44,194.47C380.58,196.54 380.7,198.61 380.83,200.68C380.95,202.75 381.07,204.82 381.19,206.89C381.31,208.96 381.43,211.04 381.56,213.11C381.68,215.18 381.81,217.25 381.94,219.32C382.07,221.39 382.2,223.46 382.32,225.53C382.44,227.6 382.56,229.68 382.67,231.75C382.78,233.82 382.88,235.89 382.97,237.96C383.06,240.03 383.14,242.11 383.22,244.18C383.3,246.25 383.38,248.32 383.45,250.39C383.52,252.46 383.59,254.53 383.66,256.6C383.74,258.67 383.82,260.75 383.9,262.82C383.98,264.89 384.07,266.96 384.16,269.03C384.25,271.1 384.35,273.18 384.45,275.25C384.55,277.32 384.65,279.39 384.75,281.46C384.85,283.53 384.95,285.6 385.04,287.67C385.13,289.74 385.22,291.82 385.3,293.89C385.38,295.96 385.46,298.03 385.53,300.1C385.6,302.17 385.66,304.24 385.71,306.31C385.76,308.38 385.8,310.46 385.85,312.53C385.89,314.6 385.94,316.67 385.98,318.74C386.03,320.81 386.06,322.89 386.12,324.96C386.18,327.03 386.24,329.1 386.32,331.17C386.4,333.24 386.49,335.31 386.61,337.38C386.73,339.45 386.87,341.53 387.02,343.6C387.17,345.67 387.35,347.74 387.53,349.81C387.71,351.88 387.91,353.95 388.09,356.02C388.28,358.09 388.47,360.17 388.64,362.24C388.81,364.31 388.96,366.38 389.1,368.45C389.24,370.52 389.36,372.6 389.46,374.67C389.56,376.74 389.63,378.81 389.7,380.88Q389.76,382.95 389.85,387.09Z" style="vector-effect: non-scaling-stroke; stroke-width: 2px; stroke: rgb(239, 85, 59); stroke-opacity: 1; fill: rgb(239, 85, 59); fill-opacity: 0.5;"/><path class="box" d="M68.44,130.45H87.55M68.44,190.11H87.55V100.62H68.44ZM78,190.11V309.44M78,100.62V70.79" style="vector-effect: non-scaling-stroke; stroke-width: 2px; stroke: rgb(239, 85, 59); stroke-opacity: 1; fill: rgb(239, 85, 59); fill-opacity: 0.5;"/><path class="box" d="M224.44,115.54H243.55M224.44,170.23H243.55V90.68H224.44ZM234,170.23V289.55M234,90.68V70.79" style="vector-effect: non-scaling-stroke; stroke-width: 2px; stroke: rgb(239, 85, 59); stroke-opacity: 1; fill: rgb(239, 85, 59); fill-opacity: 0.5;"/><path class="box" d="M380.44,130.45H399.55M380.44,200.06H399.55V100.62H380.44ZM390,200.06V349.21M390,100.62V70.79" style="vector-effect: non-scaling-stroke; stroke-width: 2px; stroke: rgb(239, 85, 59); stroke-opacity: 1; fill: rgb(239, 85, 59); fill-opacity: 0.5;"/><path class="mean" d="M68.44,153.28H87.55" style="fill: none; vector-effect: non-scaling-stroke; stroke-width: 2px; stroke-dasharray: 4px, 2px; stroke: rgb(239, 85, 59); stroke-opacity: 1;"/><path class="mean" d="M224.44,141.17H243.55" style="fill: none; vector-effect: non-scaling-stroke; stroke-width: 2px; stroke-dasharray: 4px, 2px; stroke: rgb(239, 85, 59); stroke-opacity: 1;"/><path class="mean" d="M380.44,155.43H399.55" style="fill: none; vector-effect: non-scaling-stroke; stroke-width: 2px; stroke-dasharray: 4px, 2px; stroke: rgb(239, 85, 59); stroke-opacity: 1;"/></g></g></g><g class="overplot"/><path class="xlines-above crisp" d="M0,0" style="fill: none;"/><path class="ylines-above crisp" d="M0,0" style="fill: none;"/><g class="overlines-above"/><g class="xaxislayer-above"><g class="x2tick"><text text-anchor="middle" x="0" y="533" transform="translate(730,0)" style="font-family: 'Open Sans', verdana, arial, sans-serif; font-size: 12px; fill: rgb(42, 63, 95); fill-opacity: 1; white-space: pre; opacity: 1;">&#60;=1</text></g><g class="x2tick"><text text-anchor="middle" x="0" y="533" transform="translate(886,0)" style="font-family: 'Open Sans', verdana, arial, sans-serif; font-size: 12px; fill: rgb(42, 63, 95); fill-opacity: 1; white-space: pre; opacity: 1;">(1, 2]</text></g><g class="x2tick"><text text-anchor="middle" x="0" y="533" transform="translate(1042,0)" style="font-family: 'Open Sans', verdana, arial, sans-serif; font-size: 12px; fill: rgb(42, 63, 95); fill-opacity: 1; white-space: pre; opacity: 1;">>2</text></g></g><g class="yaxislayer-above"><g class="y2tick"><text text-anchor="end" x="651" y="4.199999999999999" transform="translate(0,508.87)" style="font-family: 'Open Sans', verdana, arial, sans-serif; font-size: 12px; fill: rgb(42, 63, 95); fill-opacity: 1; white-space: pre; opacity: 1;">1990</text></g><g class="y2tick"><text text-anchor="end" x="651" y="4.199999999999999" style="font-family: 'Open Sans', verdana, arial, sans-serif; font-size: 12px; fill: rgb(42, 63, 95); fill-opacity: 1; white-space: pre; opacity: 1;" transform="translate(0,459.15)">1995</text></g><g class="y2tick"><text text-anchor="end" x="651" y="4.199999999999999" style="font-family: 'Open Sans', verdana, arial, sans-serif; font-size: 12px; fill: rgb(42, 63, 95); fill-opacity: 1; white-space: pre; opacity: 1;" transform="translate(0,409.44)">2000</text></g><g class="y2tick"><text text-anchor="end" x="651" y="4.199999999999999" style="font-family: 'Open Sans', verdana, arial, sans-serif; font-size: 12px; fill: rgb(42, 63, 95); fill-opacity: 1; white-space: pre; opacity: 1;" transform="translate(0,359.72)">2005</text></g><g class="y2tick"><text text-anchor="end" x="651" y="4.199999999999999" style="font-family: 'Open Sans', verdana, arial, sans-serif; font-size: 12px; fill: rgb(42, 63, 95); fill-opacity: 1; white-space: pre; opacity: 1;" transform="translate(0,310)">2010</text></g><g class="y2tick"><text text-anchor="end" x="651" y="4.199999999999999" style="font-family: 'Open Sans', verdana, arial, sans-serif; font-size: 12px; fill: rgb(42, 63, 95); fill-opacity: 1; white-space: pre; opacity: 1;" transform="translate(0,260.28)">2015</text></g><g class="y2tick"><text text-anchor="end" x="651" y="4.199999999999999" style="font-family: 'Open Sans', verdana, arial, sans-serif; font-size: 12px; fill: rgb(42, 63, 95); fill-opacity: 1; white-space: pre; opacity: 1;" transform="translate(0,210.56)">2020</text></g><g class="y2tick"><text text-anchor="end" x="651" y="4.199999999999999" style="font-family: 'Open Sans', verdana, arial, sans-serif; font-size: 12px; fill: rgb(42, 63, 95); fill-opacity: 1; white-space: pre; opacity: 1;" transform="translate(0,160.85)">2025</text></g><g class="y2tick"><text text-anchor="end" x="651" y="4.199999999999999" style="font-family: 'Open Sans', verdana, arial, sans-serif; font-size: 12px; fill: rgb(42, 63, 95); fill-opacity: 1; white-space: pre; opacity: 1;" transform="translate(0,111.13)">2030</text></g></g><g class="overaxes-above"/></g></g><g class="polarlayer"/><g class="smithlayer"/><g class="ternarylayer"/><g class="geolayer"/><g class="funnelarealayer"/><g class="pielayer"/><g class="iciclelayer"/><g class="treemaplayer"/><g class="sunburstlayer"/><g class="glimages"/><defs id="topdefs-912f79"><g class="clips"/></defs><g class="layer-above"><g class="imagelayer"/><g class="shapelayer"/></g><g class="infolayer"><g class="g-gtitle"><text class="gtitle" x="60" y="50" text-anchor="start" dy="0em" style="font-family: 'Open Sans', verdana, arial, sans-serif; font-size: 17px; fill: rgb(42, 63, 95); opacity: 1; font-weight: normal; white-space: pre;">publish_year Distributions (paperback better)</text></g><g class="g-xtitle"><text class="xtitle" x="314" y="561.8" text-anchor="middle" style="font-family: 'Open Sans', verdana, arial, sans-serif; font-size: 14px; fill: rgb(42, 63, 95); opacity: 1; font-weight: normal; white-space: pre;">Hardcover over Paperback</text></g><g class="g-x2title"><text class="x2title" x="886" y="561.8" text-anchor="middle" style="font-family: 'Open Sans', verdana, arial, sans-serif; font-size: 14px; fill: rgb(42, 63, 95); opacity: 1; font-weight: normal; white-space: pre;">Hardcover over Paperback</text></g><g class="g-ytitle"><text class="ytitle" transform="rotate(-90,26.746875000000003,310)" x="26.746875000000003" y="310" text-anchor="middle" style="font-family: 'Open Sans', verdana, arial, sans-serif; font-size: 14px; fill: rgb(42, 63, 95); opacity: 1; font-weight: normal; white-space: pre;">publish_year</text></g><g class="g-y2title"><text class="y2title" transform="rotate(-90,598.746875,310)" x="598.746875" y="310" text-anchor="middle" style="font-family: 'Open Sans', verdana, arial, sans-serif; font-size: 14px; fill: rgb(42, 63, 95); opacity: 1; font-weight: normal; white-space: pre;">publish_year</text></g><g class="annotation" data-index="0" style="opacity: 1;"><g class="annotation-text-g" transform="rotate(0,314,87)"><g class="cursor-pointer" transform="translate(273,74)"><rect class="bg" x="0.5" y="0.5" width="82" height="25" style="stroke-width: 1px; stroke: rgb(0, 0, 0); stroke-opacity: 0; fill: rgb(0, 0, 0); fill-opacity: 0;"/><text class="annotation-text" text-anchor="middle" x="41.296875" y="19" style="font-family: 'Open Sans', verdana, arial, sans-serif; font-size: 16px; fill: rgb(42, 63, 95); fill-opacity: 1; white-space: pre;">Paperback</text></g></g></g><g class="annotation" data-index="1" style="opacity: 1;"><g class="annotation-text-g" transform="rotate(0,886,87)"><g class="cursor-pointer" transform="translate(845,74)"><rect class="bg" x="0.5" y="0.5" width="81" height="25" style="stroke-width: 1px; stroke: rgb(0, 0, 0); stroke-opacity: 0; fill: rgb(0, 0, 0); fill-opacity: 0;"/><text class="annotation-text" text-anchor="middle" x="40.921875" y="19" style="font-family: 'Open Sans', verdana, arial, sans-serif; font-size: 16px; fill: rgb(42, 63, 95); fill-opacity: 1; white-space: pre;">Hardcover</text></g></g></g></g></svg>