<svg class="main-svg" xmlns="http://www.w3.org/2000/svg" xmlns:xlink="http://www.w3.org/1999/xlink" width="1200" height="600" style="" viewBox="0 0 1200 600"><rect x="0" y="0" width="1200" height="600" style="fill: rgb(255, 255, 255); fill-opacity: 1;"/><defs id="defs-a7f78a"><g class="clips"><clipPath id="clipa7f78axyplot" class="plotclip"><rect width="468" height="420"/></clipPath><clipPath id="clipa7f78ax2y2plot" class="plotclip"><rect width="467.99999999999994" height="420"/></clipPath><clipPath class="axesclip" id="clipa7f78ax"><rect x="80" y="0" width="468" height="600"/></clipPath><clipPath class="axesclip" id="clipa7f78ay"><rect x="0" y="100" width="1200" height="420"/></clipPath><clipPath class="axesclip" id="clipa7f78axy"><rect x="80" y="100" width="468" height="420"/></clipPath><clipPath class="axesclip" id="clipa7f78ay2"><rect x="0" y="100" width="1200" height="420"/></clipPath><clipPath class="axesclip" id="clipa7f78axy2"><rect x="80" y="100" width="468" height="420"/></clipPath><clipPath class="axesclip" id="clipa7f78ax2"><rect x="652" y="0" width="467.99999999999994" height="600"/></clipPath><clipPath class="axesclip" id="clipa7f78ax2y"><rect x="652" y="100" width="467.99999999999994" height="420"/></clipPath><clipPath class="axesclip" id="clipa7f78ax2y2"><rect x="652" y="100" width="467.99999999999994" height="420"/></clipPath></g><g class="gradients"/><g class="patterns"/></defs><g class="bglayer"><rect class="bg" x="80" y="100" width="468" height="420" style="fill: rgb(229, 236, 246); fill-opacity: 1; stroke-width: 0;"/><rect class="bg" x="652" y="100" width="467.99999999999994" height="420" style="fill: rgb(229, 236, 246); fill-opacity: 1; stroke-width: 0;"/></g><g class="layer-below"><g class="imagelayer"/><g class="shapelayer"/></g><g class="cartesianlayer"><g class="subplot xy"><g class="layer-subplot"><g class="shapelayer"/><g class="imagelayer"/></g><g class="minor-gridlayer"><g class="x"/><g class="y"/></g><g class="gridlayer"><g class="x"/><g class="y"><path class="ygrid crisp" transform="translate(0,396.83)" d="M80,0h468" style="stroke: rgb(255, 255, 255); stroke-opacity: 1; stroke-width: 1px;"/><path class="ygrid crisp" transform="translate(0,313.15)" d="M80,0h468" style="stroke: rgb(255, 255, 255); stroke-opacity: 1; stroke-width: 1px;"/><path class="ygrid crisp" transform="translate(0,229.48)" d="M80,0h468" style="stroke: rgb(255, 255, 255); stroke-opacity: 1; stroke-width: 1px;"/><path class="ygrid crisp" transform="translate(0,145.8)" d="M80,0h468" style="stroke: rgb(255, 255, 255); stroke-opacity: 1; stroke-width: 1px;"/></g></g><g class="zerolinelayer"><path class="yzl zl crisp" transform="translate(0,480.5)" d="M80,0h468" style="stroke: rgb(255, 255, 255); stroke-opacity: 1; stroke-width: 2px;"/></g><path class="xlines-below"/><path class="ylines-below"/><g class="overlines-below"/><g class="xaxislayer-below"/><g class="yaxislayer-below"/><g class="overaxes-below"/><g class="plot" transform="translate(80,100)" clip-path="url(#clipa7f78axyplot)"><g class="violinlayer mlayer"><g class="trace violins" style="opacity: 1;"><path class="violin" d="M78.08,371.69Q78.13,369.45 78.16,368.33C78.19,367.21 78.22,366.09 78.27,364.97C78.32,363.85 78.38,362.73 78.45,361.61C78.52,360.49 78.61,359.37 78.71,358.25C78.82,357.13 78.93,356.01 79.08,354.89C79.23,353.77 79.4,352.65 79.63,351.53C79.86,350.4 80.13,349.28 80.48,348.17C80.84,347.04 81.24,345.91 81.76,344.81C82.3,343.67 82.93,342.53 83.67,341.44C84.45,340.29 85.35,339.17 86.35,338.08C87.41,336.92 88.62,335.81 89.88,334.72C91.22,333.57 92.7,332.46 94.19,331.36C95.73,330.22 97.38,329.12 98.97,328C100.56,326.88 102.22,325.79 103.72,324.64C105.16,323.55 106.61,322.45 107.81,321.28C108.91,320.21 109.98,319.1 110.71,317.92C111.37,316.85 111.89,315.7 112.09,314.56C112.29,313.46 112.19,312.3 111.97,311.2C111.74,310.06 111.22,308.94 110.7,307.84C110.16,306.7 109.43,305.6 108.78,304.48C108.13,303.36 107.41,302.25 106.79,301.12C106.19,300.01 105.59,298.9 105.12,297.76C104.67,296.66 104.29,295.53 104.01,294.4C103.73,293.29 103.56,292.16 103.44,291.04C103.32,289.92 103.3,288.8 103.28,287.68C103.26,286.56 103.29,285.44 103.32,284.32C103.35,283.2 103.4,282.08 103.44,280.96C103.48,279.84 103.53,278.72 103.57,277.6C103.62,276.48 103.66,275.36 103.71,274.24C103.75,273.12 103.8,272 103.84,270.88C103.87,269.76 103.92,268.64 103.92,267.52C103.92,266.4 103.92,265.28 103.85,264.16C103.78,263.04 103.68,261.92 103.5,260.8C103.31,259.67 103.08,258.54 102.74,257.43C102.4,256.3 101.97,255.17 101.45,254.07C100.91,252.93 100.27,251.81 99.56,250.71C98.82,249.57 97.97,248.45 97.09,247.35C96.18,246.21 95.16,245.1 94.15,243.99C93.12,242.86 92.02,241.75 90.96,240.63C89.9,239.51 88.8,238.4 87.78,237.27C86.78,236.16 85.79,235.05 84.9,233.91C84.04,232.81 83.23,231.69 82.53,230.55C81.86,229.45 81.25,228.33 80.75,227.19C80.26,226.09 79.87,224.96 79.54,223.83C79.22,222.72 78.99,221.59 78.79,220.47Q78.6,219.35 78.37,217.11L77.63,217.11Q77.4,219.35 77.21,220.47C77.01,221.59 76.78,222.72 76.46,223.83C76.13,224.96 75.74,226.09 75.25,227.19C74.75,228.33 74.14,229.45 73.47,230.55C72.77,231.69 71.96,232.81 71.1,233.91C70.21,235.05 69.22,236.16 68.22,237.27C67.2,238.4 66.1,239.51 65.04,240.63C63.98,241.75 62.88,242.86 61.85,243.99C60.84,245.1 59.82,246.21 58.91,247.35C58.03,248.45 57.18,249.57 56.44,250.71C55.73,251.81 55.09,252.93 54.55,254.07C54.03,255.17 53.6,256.3 53.26,257.43C52.92,258.54 52.69,259.67 52.5,260.8C52.32,261.92 52.22,263.04 52.15,264.16C52.08,265.28 52.08,266.4 52.08,267.52C52.08,268.64 52.13,269.76 52.16,270.88C52.2,272 52.25,273.12 52.29,274.24C52.34,275.36 52.38,276.48 52.43,277.6C52.47,278.72 52.52,279.84 52.56,280.96C52.6,282.08 52.65,283.2 52.68,284.32C52.71,285.44 52.74,286.56 52.72,287.68C52.7,288.8 52.68,289.92 52.56,291.04C52.44,292.16 52.27,293.29 51.99,294.4C51.71,295.53 51.33,296.66 50.88,297.76C50.41,298.9 49.81,300.01 49.21,301.12C48.59,302.25 47.87,303.36 47.22,304.48C46.57,305.6 45.84,306.7 45.3,307.84C44.78,308.94 44.26,310.06 44.03,311.2C43.81,312.3 43.71,313.46 43.91,314.56C44.11,315.7 44.63,316.85 45.29,317.92C46.02,319.1 47.09,320.21 48.19,321.28C49.39,322.45 50.84,323.55 52.28,324.64C53.78,325.79 55.44,326.88 57.03,328C58.62,329.12 60.27,330.22 61.81,331.36C63.3,332.46 64.78,333.57 66.12,334.72C67.38,335.81 68.59,336.92 69.65,338.08C70.65,339.17 71.55,340.29 72.33,341.44C73.07,342.53 73.7,343.67 74.24,344.81C74.76,345.91 75.16,347.04 75.52,348.17C75.87,349.28 76.14,350.4 76.37,351.53C76.6,352.65 76.77,353.77 76.92,354.89C77.07,356.01 77.18,357.13 77.29,358.25C77.39,359.37 77.48,360.49 77.55,361.61C77.62,362.73 77.68,363.85 77.73,364.97C77.78,366.09 77.81,367.21 77.84,368.33Q77.87,369.45 77.92,371.69Z" style="vector-effect: non-scaling-stroke; stroke-width: 2px; stroke: rgb(99, 110, 250); stroke-opacity: 1; fill: rgb(99, 110, 250); fill-opacity: 0.5;"/><path class="violin" d="M234.09,359.66Q234.14,358.31 234.18,357.63C234.22,356.96 234.26,356.28 234.32,355.61C234.38,354.93 234.46,354.25 234.55,353.58C234.64,352.9 234.75,352.23 234.87,351.56C235,350.88 235.14,350.2 235.3,349.53C235.47,348.85 235.65,348.18 235.86,347.51C236.07,346.83 236.31,346.15 236.56,345.48C236.81,344.8 237.09,344.12 237.38,343.45C237.67,342.77 237.98,342.1 238.31,341.43C238.64,340.75 238.99,340.07 239.35,339.4C239.72,338.72 240.1,338.05 240.51,337.38C240.93,336.7 241.37,336.01 241.86,335.35C242.37,334.66 242.9,333.99 243.5,333.33C244.13,332.64 244.82,331.96 245.56,331.3C246.35,330.6 247.21,329.94 248.11,329.28C249.06,328.58 250.1,327.91 251.14,327.25C252.22,326.56 253.37,325.9 254.49,325.23C255.61,324.55 256.78,323.89 257.87,323.2C258.93,322.53 259.99,321.87 260.94,321.17C261.83,320.52 262.69,319.86 263.41,319.15C264.07,318.5 264.66,317.83 265.12,317.12C265.54,316.47 265.86,315.79 266.09,315.1C266.31,314.44 266.41,313.75 266.48,313.07C266.55,312.4 266.53,311.72 266.52,311.05C266.51,310.37 266.45,309.7 266.41,309.02C266.37,308.35 266.32,307.67 266.29,307C266.26,306.32 266.23,305.65 266.23,304.97C266.23,304.3 266.24,303.62 266.28,302.95C266.32,302.27 266.4,301.6 266.47,300.92C266.54,300.24 266.64,299.57 266.72,298.89C266.8,298.22 266.9,297.55 266.95,296.87C267,296.2 267.04,295.52 267.04,294.84C267.04,294.17 266.99,293.49 266.93,292.82C266.87,292.14 266.77,291.47 266.68,290.79C266.59,290.12 266.47,289.44 266.37,288.77C266.27,288.09 266.17,287.42 266.08,286.74C265.99,286.07 265.91,285.39 265.84,284.72C265.76,284.04 265.7,283.37 265.63,282.69C265.56,282.02 265.48,281.34 265.41,280.67C265.33,279.99 265.26,279.32 265.18,278.64C265.1,277.96 265.01,277.29 264.92,276.61C264.83,275.94 264.74,275.26 264.62,274.59C264.5,273.91 264.38,273.23 264.21,272.56C264.04,271.88 263.84,271.21 263.59,270.54C263.34,269.86 263.04,269.18 262.7,268.51C262.35,267.83 261.95,267.15 261.52,266.49C261.08,265.8 260.58,265.13 260.08,264.46C259.57,263.78 259.03,263.11 258.49,262.44C257.95,261.76 257.38,261.09 256.85,260.41C256.32,259.74 255.79,259.07 255.3,258.39C254.82,257.72 254.36,257.05 253.94,256.36C253.53,255.69 253.16,255.01 252.82,254.33C252.49,253.66 252.2,252.99 251.94,252.31C251.68,251.64 251.46,250.96 251.24,250.28C251.02,249.61 250.83,248.93 250.61,248.26C250.39,247.58 250.19,246.9 249.94,246.23C249.69,245.55 249.42,244.87 249.09,244.21C248.75,243.52 248.37,242.84 247.93,242.18C247.47,241.49 246.94,240.82 246.38,240.16C245.79,239.47 245.14,238.8 244.47,238.13C243.78,237.45 243.04,236.78 242.32,236.11C241.6,235.43 240.85,234.77 240.16,234.08C239.48,233.41 238.8,232.74 238.2,232.05C237.63,231.39 237.09,230.72 236.63,230.03C236.19,229.37 235.81,228.69 235.5,228C235.2,227.34 234.97,226.66 234.78,225.98Q234.59,225.31 234.37,223.95L233.63,223.95Q233.41,225.31 233.22,225.98C233.03,226.66 232.8,227.34 232.5,228C232.19,228.69 231.81,229.37 231.37,230.03C230.91,230.72 230.37,231.39 229.8,232.05C229.2,232.74 228.52,233.41 227.84,234.08C227.15,234.77 226.4,235.43 225.68,236.11C224.96,236.78 224.22,237.45 223.53,238.13C222.86,238.8 222.21,239.47 221.62,240.16C221.06,240.82 220.53,241.49 220.07,242.18C219.63,242.84 219.25,243.52 218.91,244.21C218.58,244.87 218.31,245.55 218.06,246.23C217.81,246.9 217.61,247.58 217.39,248.26C217.17,248.93 216.98,249.61 216.76,250.28C216.54,250.96 216.32,251.64 216.06,252.31C215.8,252.99 215.51,253.66 215.18,254.33C214.84,255.01 214.47,255.69 214.06,256.36C213.64,257.05 213.18,257.72 212.7,258.39C212.21,259.07 211.68,259.74 211.15,260.41C210.62,261.09 210.05,261.76 209.51,262.44C208.97,263.11 208.43,263.78 207.92,264.46C207.42,265.13 206.92,265.8 206.48,266.49C206.05,267.15 205.65,267.83 205.3,268.51C204.96,269.18 204.66,269.86 204.41,270.54C204.16,271.21 203.96,271.88 203.79,272.56C203.62,273.23 203.5,273.91 203.38,274.59C203.26,275.26 203.17,275.94 203.08,276.61C202.99,277.29 202.9,277.96 202.82,278.64C202.74,279.32 202.67,279.99 202.59,280.67C202.52,281.34 202.44,282.02 202.37,282.69C202.3,283.37 202.24,284.04 202.16,284.72C202.09,285.39 202.01,286.07 201.92,286.74C201.83,287.42 201.73,288.09 201.63,288.77C201.53,289.44 201.41,290.12 201.32,290.79C201.23,291.47 201.13,292.14 201.07,292.82C201.01,293.49 200.96,294.17 200.96,294.84C200.96,295.52 201,296.2 201.05,296.87C201.1,297.55 201.2,298.22 201.28,298.89C201.36,299.57 201.46,300.24 201.53,300.92C201.6,301.6 201.68,302.27 201.72,302.95C201.76,303.62 201.77,304.3 201.77,304.97C201.77,305.65 201.74,306.32 201.71,307C201.68,307.67 201.63,308.35 201.59,309.02C201.55,309.7 201.49,310.37 201.48,311.05C201.47,311.72 201.45,312.4 201.52,313.07C201.59,313.75 201.69,314.44 201.91,315.1C202.14,315.79 202.46,316.47 202.88,317.12C203.34,317.83 203.93,318.5 204.59,319.15C205.31,319.86 206.17,320.52 207.06,321.17C208.01,321.87 209.07,322.53 210.13,323.2C211.22,323.89 212.39,324.55 213.51,325.23C214.63,325.9 215.78,326.56 216.86,327.25C217.9,327.91 218.94,328.58 219.89,329.28C220.79,329.94 221.65,330.6 222.44,331.3C223.18,331.96 223.87,332.64 224.5,333.33C225.1,333.99 225.63,334.66 226.14,335.35C226.63,336.01 227.07,336.7 227.49,337.38C227.9,338.05 228.28,338.72 228.65,339.4C229.01,340.07 229.36,340.75 229.69,341.43C230.02,342.1 230.33,342.77 230.62,343.45C230.91,344.12 231.19,344.8 231.44,345.48C231.69,346.15 231.93,346.83 232.14,347.51C232.35,348.18 232.53,348.85 232.7,349.53C232.86,350.2 233,350.88 233.13,351.56C233.25,352.23 233.36,352.9 233.45,353.58C233.54,354.25 233.62,354.93 233.68,355.61C233.74,356.28 233.78,356.96 233.82,357.63Q233.86,358.31 233.91,359.66Z" style="vector-effect: non-scaling-stroke; stroke-width: 2px; stroke: rgb(99, 110, 250); stroke-opacity: 1; fill: rgb(99, 110, 250); fill-opacity: 0.5;"/><path class="violin" d="M390.05,386.75Q390.08,385.18 390.1,384.39C390.12,383.61 390.14,382.82 390.17,382.04C390.2,381.25 390.24,380.47 390.28,379.68C390.32,378.9 390.35,378.11 390.39,377.33C390.43,376.54 390.47,375.76 390.51,374.97C390.55,374.19 390.59,373.4 390.62,372.62C390.65,371.83 390.67,371.05 390.7,370.26C390.73,369.48 390.75,368.69 390.79,367.91C390.83,367.12 390.87,366.34 390.93,365.55C390.99,364.77 391.06,363.98 391.16,363.2C391.27,362.41 391.39,361.62 391.56,360.84C391.73,360.05 391.94,359.27 392.19,358.49C392.45,357.7 392.75,356.91 393.11,356.13C393.48,355.33 393.9,354.54 394.39,353.77C394.9,352.97 395.47,352.19 396.1,351.42C396.76,350.61 397.51,349.83 398.29,349.06C399.11,348.26 400.02,347.48 400.94,346.71C401.9,345.91 402.92,345.13 403.93,344.35C404.96,343.56 406.02,342.79 407.06,342C408.09,341.22 409.14,340.43 410.15,339.64C411.14,338.86 412.11,338.08 413.05,337.29C413.97,336.51 414.87,335.72 415.75,334.93C416.62,334.15 417.47,333.37 418.32,332.58C419.16,331.8 420.01,331.01 420.83,330.22C421.65,329.44 422.47,328.66 423.24,327.87C424,327.09 424.76,326.32 425.42,325.51C426.04,324.74 426.66,323.97 427.11,323.16C427.54,322.4 427.92,321.6 428.1,320.8C428.28,320.03 428.32,319.22 428.22,318.45C428.12,317.65 427.82,316.85 427.46,316.09C427.08,315.28 426.52,314.51 425.96,313.74C425.37,312.93 424.67,312.16 423.99,311.38C423.3,310.59 422.55,309.82 421.87,309.03C421.2,308.25 420.51,307.47 419.91,306.67C419.33,305.9 418.78,305.11 418.32,304.31C417.88,303.54 417.49,302.76 417.17,301.96C416.86,301.19 416.63,300.39 416.42,299.6C416.22,298.82 416.08,298.04 415.93,297.25C415.78,296.47 415.67,295.68 415.53,294.89C415.4,294.11 415.27,293.32 415.12,292.54C414.97,291.75 414.8,290.96 414.63,290.18C414.45,289.39 414.26,288.61 414.07,287.83C413.88,287.04 413.68,286.26 413.5,285.47C413.32,284.69 413.14,283.91 412.98,283.12C412.82,282.34 412.69,281.55 412.56,280.76C412.44,279.98 412.33,279.19 412.23,278.41C412.13,277.62 412.05,276.84 411.94,276.05C411.84,275.27 411.73,274.48 411.6,273.7C411.47,272.91 411.32,272.12 411.14,271.34C410.95,270.55 410.74,269.77 410.49,268.99C410.24,268.2 409.95,267.41 409.63,266.63C409.31,265.84 408.95,265.06 408.58,264.28C408.2,263.49 407.79,262.7 407.37,261.92C406.95,261.13 406.51,260.35 406.07,259.57C405.63,258.78 405.18,258 404.74,257.21C404.3,256.43 403.85,255.65 403.41,254.86C402.97,254.08 402.54,253.29 402.12,252.5C401.7,251.71 401.28,250.93 400.87,250.14C400.46,249.36 400.06,248.58 399.66,247.79C399.26,247.01 398.88,246.22 398.49,245.43C398.1,244.65 397.72,243.86 397.34,243.08C396.96,242.29 396.58,241.51 396.2,240.72C395.82,239.94 395.44,239.15 395.06,238.37C394.68,237.58 394.3,236.8 393.94,236.01C393.58,235.23 393.23,234.45 392.91,233.66C392.59,232.88 392.27,232.09 392,231.3C391.73,230.52 391.49,229.74 391.28,228.95C391.07,228.17 390.9,227.38 390.75,226.59C390.6,225.81 390.49,225.03 390.4,224.24Q390.31,223.46 390.2,221.88L389.8,221.88Q389.69,223.46 389.6,224.24C389.51,225.03 389.4,225.81 389.25,226.59C389.1,227.38 388.93,228.17 388.72,228.95C388.51,229.74 388.27,230.52 388,231.3C387.73,232.09 387.41,232.88 387.09,233.66C386.77,234.45 386.42,235.23 386.06,236.01C385.7,236.8 385.32,237.58 384.94,238.37C384.56,239.15 384.18,239.94 383.8,240.72C383.42,241.51 383.04,242.29 382.66,243.08C382.28,243.86 381.9,244.65 381.51,245.43C381.12,246.22 380.74,247.01 380.34,247.79C379.94,248.58 379.54,249.36 379.13,250.14C378.72,250.93 378.3,251.71 377.88,252.5C377.46,253.29 377.03,254.08 376.59,254.86C376.15,255.65 375.7,256.43 375.26,257.21C374.82,258 374.37,258.78 373.93,259.57C373.49,260.35 373.05,261.13 372.63,261.92C372.21,262.7 371.8,263.49 371.42,264.28C371.05,265.06 370.69,265.84 370.37,266.63C370.05,267.41 369.76,268.2 369.51,268.99C369.26,269.77 369.05,270.55 368.86,271.34C368.68,272.12 368.53,272.91 368.4,273.7C368.27,274.48 368.16,275.27 368.06,276.05C367.95,276.84 367.87,277.62 367.77,278.41C367.67,279.19 367.56,279.98 367.44,280.76C367.31,281.55 367.18,282.34 367.02,283.12C366.86,283.91 366.68,284.69 366.5,285.47C366.32,286.26 366.12,287.04 365.93,287.83C365.74,288.61 365.55,289.39 365.37,290.18C365.2,290.96 365.03,291.75 364.88,292.54C364.73,293.32 364.6,294.11 364.47,294.89C364.33,295.68 364.22,296.47 364.07,297.25C363.92,298.04 363.78,298.82 363.58,299.6C363.37,300.39 363.14,301.19 362.83,301.96C362.51,302.76 362.12,303.54 361.68,304.31C361.22,305.11 360.67,305.9 360.09,306.67C359.49,307.47 358.8,308.25 358.13,309.03C357.45,309.82 356.7,310.59 356.01,311.38C355.33,312.16 354.63,312.93 354.04,313.74C353.48,314.51 352.92,315.28 352.54,316.09C352.18,316.85 351.88,317.65 351.78,318.45C351.68,319.22 351.72,320.03 351.9,320.8C352.08,321.6 352.46,322.4 352.89,323.16C353.34,323.97 353.96,324.74 354.58,325.51C355.24,326.32 356,327.09 356.76,327.87C357.53,328.66 358.35,329.44 359.17,330.22C359.99,331.01 360.84,331.8 361.68,332.58C362.53,333.37 363.38,334.15 364.25,334.93C365.13,335.72 366.03,336.51 366.95,337.29C367.89,338.08 368.86,338.86 369.85,339.64C370.86,340.43 371.91,341.22 372.94,342C373.98,342.79 375.04,343.56 376.07,344.35C377.08,345.13 378.1,345.91 379.06,346.71C379.98,347.48 380.89,348.26 381.71,349.06C382.49,349.83 383.24,350.61 383.9,351.42C384.53,352.19 385.1,352.97 385.61,353.77C386.1,354.54 386.52,355.33 386.89,356.13C387.25,356.91 387.55,357.7 387.81,358.49C388.06,359.27 388.27,360.05 388.44,360.84C388.61,361.62 388.73,362.41 388.84,363.2C388.94,363.98 389.01,364.77 389.07,365.55C389.13,366.34 389.17,367.12 389.21,367.91C389.25,368.69 389.27,369.48 389.3,370.26C389.33,371.05 389.35,371.83 389.38,372.62C389.41,373.4 389.45,374.19 389.49,374.97C389.53,375.76 389.57,376.54 389.61,377.33C389.65,378.11 389.68,378.9 389.72,379.68C389.76,380.47 389.8,381.25 389.83,382.04C389.86,382.82 389.88,383.61 389.9,384.39Q389.92,385.18 389.95,386.75Z" style="vector-effect: non-scaling-stroke; stroke-width: 2px; stroke: rgb(99, 110, 250); stroke-opacity: 1; fill: rgb(99, 110, 250); fill-opacity: 0.5;"/><path class="box" d="M68.45,289.88H87.56M68.45,313.64H87.56V265.11H68.45ZM78,313.64V351.3M78,265.11V237.5" style="vector-effect: non-scaling-stroke; stroke-width: 2px; stroke: rgb(99, 110, 250); stroke-opacity: 1; fill: rgb(99, 110, 250); fill-opacity: 0.5;"/><path class="box" d="M224.45,289.3H243.56M224.45,309.46H243.56V269.3H224.45ZM234,309.46V347.45M234,269.3V236.16" style="vector-effect: non-scaling-stroke; stroke-width: 2px; stroke: rgb(99, 110, 250); stroke-opacity: 1; fill: rgb(99, 110, 250); fill-opacity: 0.5;"/><path class="box" d="M380.45,305.28H399.55M380.45,322.01H399.55V280.09H380.45ZM390,322.01V372.47M390,280.09V236.16" style="vector-effect: non-scaling-stroke; stroke-width: 2px; stroke: rgb(99, 110, 250); stroke-opacity: 1; fill: rgb(99, 110, 250); fill-opacity: 0.5;"/><path class="mean" d="M68.45,289.29H87.56" style="fill: none; vector-effect: non-scaling-stroke; stroke-width: 2px; stroke-dasharray: 4px, 2px; stroke: rgb(99, 110, 250); stroke-opacity: 1;"/><path class="mean" d="M224.45,288.65H243.56" style="fill: none; vector-effect: non-scaling-stroke; stroke-width: 2px; stroke-dasharray: 4px, 2px; stroke: rgb(99, 110, 250); stroke-opacity: 1;"/><path class="mean" d="M380.45,301.44H399.55" style="fill: none; vector-effect: non-scaling-stroke; stroke-width: 2px; stroke-dasharray: 4px, 2px; stroke: rgb(99, 110, 250); stroke-opacity: 1;"/></g></g></g><g class="overplot"/><path class="xlines-above crisp" d="M0,0" style="fill: none;"/><path class="ylines-above crisp" d="M0,0" style="fill: none;"/><g class="overlines-above"/><g class="xaxislayer-above"><g class="xtick"><text text-anchor="middle" x="0" y="533" transform="translate(158,0)" style="font-family: 'Open Sans', verdana, arial, sans-serif; font-size: 12px; fill: rgb(42, 63, 95); fill-opacity: 1; white-space: pre; opacity: 1;">&#60;=1</text></g><g class="xtick"><text text-anchor="middle" x="0" y="533" transform="translate(314,0)" style="font-family: 'Open Sans', verdana, arial, sans-serif; font-size: 12px; fill: rgb(42, 63, 95); fill-opacity: 1; white-space: pre; opacity: 1;">(1, 2]</text></g><g class="xtick"><text text-anchor="middle" x="0" y="533" transform="translate(470,0)" style="font-family: 'Open Sans', verdana, arial, sans-serif; font-size: 12px; fill: rgb(42, 63, 95); fill-opacity: 1; white-space: pre; opacity: 1;">>2</text></g></g><g class="yaxislayer-above"><g class="ytick"><text text-anchor="end" x="79" y="4.199999999999999" transform="translate(0,480.5)" style="font-family: 'Open Sans', verdana, arial, sans-serif; font-size: 12px; fill: rgb(42, 63, 95); fill-opacity: 1; white-space: pre; opacity: 1;">0</text></g><g class="ytick"><text text-anchor="end" x="79" y="4.199999999999999" style="font-family: 'Open Sans', verdana, arial, sans-serif; font-size: 12px; fill: rgb(42, 63, 95); fill-opacity: 1; white-space: pre; opacity: 1;" transform="translate(0,396.83)">10</text></g><g class="ytick"><text text-anchor="end" x="79" y="4.199999999999999" style="font-family: 'Open Sans', verdana, arial, sans-serif; font-size: 12px; fill: rgb(42, 63, 95); fill-opacity: 1; white-space: pre; opacity: 1;" transform="translate(0,313.15)">20</text></g><g class="ytick"><text text-anchor="end" x="79" y="4.199999999999999" style="font-family: 'Open Sans', verdana, arial, sans-serif; font-size: 12px; fill: rgb(42, 63, 95); fill-opacity: 1; white-space: pre; opacity: 1;" transform="translate(0,229.48)">30</text></g><g class="ytick"><text text-anchor="end" x="79" y="4.199999999999999" style="font-family: 'Open Sans', verdana, arial, sans-serif; font-size: 12px; fill: rgb(42, 63, 95); fill-opacity: 1; white-space: pre; opacity: 1;" transform="translate(0,145.8)">40</text></g></g><g class="overaxes-above"/></g><g class="subplot x2y2"><g class="layer-subplot"><g class="shapelayer"/><g class="imagelayer"/></g><g class="minor-gridlayer"><g class="x2"/><g class="y2"/></g><g class="gridlayer"><g class="x2"/><g class="y2"><path class="y2grid crisp" transform="translate(0,396.83)" d="M652,0h467.99999999999994" style="stroke: rgb(255, 255, 255); stroke-opacity: 1; stroke-width: 1px;"/><path class="y2grid crisp" transform="translate(0,313.15)" d="M652,0h467.99999999999994" style="stroke: rgb(255, 255, 255); stroke-opacity: 1; stroke-width: 1px;"/><path class="y2grid crisp" transform="translate(0,229.48)" d="M652,0h467.99999999999994" style="stroke: rgb(255, 255, 255); stroke-opacity: 1; stroke-width: 1px;"/><path class="y2grid crisp" transform="translate(0,145.8)" d="M652,0h467.99999999999994" style="stroke: rgb(255, 255, 255); stroke-opacity: 1; stroke-width: 1px;"/></g></g><g class="zerolinelayer"><path class="y2zl zl crisp" transform="translate(0,480.5)" d="M652,0h467.99999999999994" style="stroke: rgb(255, 255, 255); stroke-opacity: 1; stroke-width: 2px;"/></g><path class="xlines-below"/><path class="ylines-below"/><g class="overlines-below"/><g class="xaxislayer-below"/><g class="yaxislayer-below"/><g class="overaxes-below"/><g class="plot" transform="translate(652,100)" clip-path="url(#clipa7f78ax2y2plot)"><g class="violinlayer mlayer"><g class="trace violins" style="opacity: 1;"><path class="violin" d="M78.36,399Q78.55,396.03 78.7,394.54C78.85,393.05 79.02,391.56 79.24,390.08C79.46,388.59 79.71,387.1 80.01,385.62C80.31,384.13 80.66,382.64 81.03,381.15C81.4,379.66 81.81,378.17 82.24,376.69C82.67,375.2 83.12,373.71 83.59,372.23C84.06,370.74 84.55,369.25 85.05,367.77C85.55,366.28 86.06,364.79 86.6,363.31C87.14,361.82 87.69,360.33 88.3,358.85C88.92,357.35 89.57,355.85 90.31,354.38C91.07,352.87 91.89,351.38 92.83,349.92C93.8,348.41 94.88,346.92 96.05,345.46C97.27,343.94 98.63,342.46 100.02,341C101.45,339.49 103.03,338.03 104.54,336.54C106.05,335.05 107.65,333.6 109.06,332.08C110.42,330.62 111.81,329.15 112.88,327.61C113.88,326.17 114.8,324.68 115.36,323.15C115.89,321.7 116.18,320.18 116.22,318.69C116.26,317.21 115.97,315.7 115.62,314.23C115.26,312.72 114.63,311.25 114.05,309.77C113.46,308.27 112.75,306.8 112.11,305.31C111.47,303.82 110.82,302.34 110.22,300.84C109.63,299.36 109.08,297.87 108.55,296.38C108.03,294.9 107.55,293.41 107.07,291.92C106.59,290.44 106.14,288.95 105.68,287.46C105.22,285.97 104.76,284.49 104.3,283C103.84,281.51 103.37,280.03 102.9,278.54C102.43,277.05 101.96,275.56 101.48,274.07C101,272.58 100.53,271.09 100.03,269.61C99.53,268.12 99.03,266.63 98.5,265.15C97.97,263.66 97.42,262.17 96.83,260.69C96.24,259.2 95.61,257.71 94.97,256.23C94.32,254.74 93.63,253.26 92.95,251.77C92.27,250.28 91.55,248.8 90.88,247.31C90.21,245.82 89.52,244.34 88.91,242.84C88.3,241.36 87.73,239.88 87.22,238.38C86.72,236.9 86.26,235.41 85.86,233.92C85.46,232.44 85.14,230.95 84.83,229.46C84.53,227.98 84.28,226.49 84.03,225C83.78,223.51 83.56,222.03 83.34,220.54C83.12,219.05 82.91,217.56 82.69,216.07C82.47,214.58 82.26,213.1 82.04,211.61C81.82,210.12 81.6,208.64 81.39,207.15C81.18,205.66 80.97,204.18 80.77,202.69C80.57,201.2 80.38,199.72 80.2,198.23C80.02,196.74 79.85,195.26 79.69,193.77C79.53,192.28 79.39,190.79 79.25,189.3C79.12,187.81 78.99,186.33 78.88,184.84C78.77,183.35 78.67,181.87 78.58,180.38C78.49,178.89 78.42,177.41 78.36,175.92C78.3,174.43 78.25,172.95 78.21,171.46C78.17,169.97 78.14,168.49 78.12,167C78.1,165.51 78.08,164.02 78.08,162.53C78.08,161.04 78.08,159.56 78.09,158.07C78.1,156.58 78.11,155.1 78.13,153.61C78.15,152.12 78.17,150.64 78.2,149.15C78.23,147.66 78.26,146.18 78.29,144.69C78.32,143.2 78.36,141.72 78.39,140.23C78.42,138.74 78.43,137.25 78.45,135.76C78.46,134.27 78.48,132.79 78.48,131.3C78.48,129.81 78.47,128.33 78.45,126.84C78.43,125.35 78.41,123.87 78.38,122.38C78.35,120.89 78.32,119.41 78.29,117.92C78.26,116.43 78.23,114.95 78.2,113.46C78.17,111.97 78.14,110.49 78.12,109Q78.1,107.51 78.06,104.53L77.94,104.53Q77.9,107.51 77.88,109C77.86,110.49 77.83,111.97 77.8,113.46C77.77,114.95 77.74,116.43 77.71,117.92C77.68,119.41 77.65,120.89 77.62,122.38C77.59,123.87 77.57,125.35 77.55,126.84C77.53,128.33 77.52,129.81 77.52,131.3C77.52,132.79 77.54,134.27 77.55,135.76C77.57,137.25 77.58,138.74 77.61,140.23C77.64,141.72 77.68,143.2 77.71,144.69C77.74,146.18 77.77,147.66 77.8,149.15C77.83,150.64 77.85,152.12 77.87,153.61C77.89,155.1 77.9,156.58 77.91,158.07C77.92,159.56 77.92,161.04 77.92,162.53C77.92,164.02 77.9,165.51 77.88,167C77.86,168.49 77.83,169.97 77.79,171.46C77.75,172.95 77.7,174.43 77.64,175.92C77.58,177.41 77.51,178.89 77.42,180.38C77.33,181.87 77.23,183.35 77.12,184.84C77.01,186.33 76.88,187.81 76.75,189.3C76.61,190.79 76.47,192.28 76.31,193.77C76.15,195.26 75.98,196.74 75.8,198.23C75.62,199.72 75.43,201.2 75.23,202.69C75.03,204.18 74.82,205.66 74.61,207.15C74.4,208.64 74.18,210.12 73.96,211.61C73.74,213.1 73.53,214.58 73.31,216.07C73.09,217.56 72.88,219.05 72.66,220.54C72.44,222.03 72.22,223.51 71.97,225C71.72,226.49 71.47,227.98 71.17,229.46C70.86,230.95 70.54,232.44 70.14,233.92C69.74,235.41 69.28,236.9 68.78,238.38C68.27,239.88 67.7,241.36 67.09,242.84C66.48,244.34 65.79,245.82 65.12,247.31C64.45,248.8 63.73,250.28 63.05,251.77C62.37,253.26 61.68,254.74 61.03,256.23C60.39,257.71 59.76,259.2 59.17,260.69C58.58,262.17 58.03,263.66 57.5,265.15C56.97,266.63 56.47,268.12 55.97,269.61C55.47,271.09 55,272.58 54.52,274.07C54.04,275.56 53.57,277.05 53.1,278.54C52.63,280.03 52.16,281.51 51.7,283C51.24,284.49 50.78,285.97 50.32,287.46C49.86,288.95 49.41,290.44 48.93,291.92C48.45,293.41 47.97,294.9 47.45,296.38C46.92,297.87 46.37,299.36 45.78,300.84C45.18,302.34 44.53,303.82 43.89,305.31C43.25,306.8 42.54,308.27 41.95,309.77C41.37,311.25 40.74,312.72 40.38,314.23C40.03,315.7 39.74,317.21 39.78,318.69C39.82,320.18 40.11,321.7 40.64,323.15C41.2,324.68 42.12,326.17 43.12,327.61C44.19,329.15 45.58,330.62 46.94,332.08C48.35,333.6 49.95,335.05 51.46,336.54C52.97,338.03 54.55,339.49 55.98,341C57.37,342.46 58.73,343.94 59.95,345.46C61.12,346.92 62.2,348.41 63.17,349.92C64.11,351.38 64.93,352.87 65.69,354.38C66.43,355.85 67.08,357.35 67.7,358.85C68.31,360.33 68.86,361.82 69.4,363.31C69.94,364.79 70.45,366.28 70.95,367.77C71.45,369.25 71.94,370.74 72.41,372.23C72.88,373.71 73.33,375.2 73.76,376.69C74.19,378.17 74.6,379.66 74.97,381.15C75.34,382.64 75.69,384.13 75.99,385.62C76.29,387.1 76.54,388.59 76.76,390.08C76.98,391.56 77.15,393.05 77.3,394.54Q77.45,396.03 77.64,399Z" style="vector-effect: non-scaling-stroke; stroke-width: 2px; stroke: rgb(239, 85, 59); stroke-opacity: 1; fill: rgb(239, 85, 59); fill-opacity: 0.5;"/><path class="violin" d="M234.07,357.02Q234.11,354.39 234.15,353.08C234.19,351.77 234.24,350.46 234.3,349.15C234.36,347.84 234.43,346.52 234.53,345.21C234.62,343.9 234.74,342.59 234.87,341.28C235.01,339.97 235.16,338.65 235.34,337.34C235.52,336.03 235.73,334.72 235.96,333.41C236.19,332.1 236.44,330.78 236.73,329.47C237.02,328.15 237.34,326.84 237.69,325.53C238.04,324.22 238.42,322.91 238.84,321.6C239.27,320.28 239.73,318.97 240.23,317.66C240.74,316.34 241.29,315.03 241.88,313.73C242.48,312.41 243.12,311.1 243.78,309.79C244.45,308.47 245.16,307.17 245.88,305.86C246.6,304.54 247.36,303.23 248.09,301.92C248.82,300.61 249.56,299.31 250.26,297.99C250.95,296.68 251.63,295.37 252.25,294.05C252.86,292.75 253.44,291.44 253.94,290.12C254.43,288.82 254.87,287.5 255.24,286.18C255.61,284.87 255.9,283.56 256.15,282.24C256.4,280.93 256.57,279.62 256.72,278.31C256.87,277 256.95,275.68 257.04,274.37C257.13,273.06 257.18,271.75 257.25,270.44C257.32,269.13 257.36,267.81 257.45,266.5C257.53,265.19 257.64,263.88 257.76,262.57C257.88,261.26 258.03,259.94 258.19,258.63C258.35,257.32 258.55,256.01 258.74,254.7C258.93,253.39 259.13,252.07 259.31,250.76C259.49,249.45 259.69,248.14 259.84,246.83C259.99,245.52 260.12,244.2 260.21,242.89C260.3,241.58 260.36,240.26 260.37,238.95C260.38,237.64 260.33,236.33 260.25,235.02C260.17,233.71 260.03,232.39 259.86,231.08C259.69,229.77 259.46,228.46 259.21,227.15C258.96,225.83 258.66,224.52 258.34,223.21C258.02,221.9 257.66,220.59 257.28,219.28C256.9,217.96 256.5,216.65 256.08,215.34C255.66,214.03 255.22,212.72 254.78,211.41C254.34,210.1 253.89,208.78 253.45,207.47C253.01,206.16 252.56,204.84 252.14,203.53C251.72,202.22 251.31,200.91 250.92,199.6C250.53,198.29 250.16,196.97 249.8,195.66C249.45,194.35 249.11,193.04 248.79,191.73C248.48,190.42 248.19,189.1 247.91,187.79C247.64,186.48 247.38,185.17 247.14,183.86C246.9,182.55 246.68,181.23 246.47,179.92C246.26,178.61 246.07,177.3 245.86,175.99C245.65,174.68 245.45,173.36 245.23,172.05C245.01,170.74 244.78,169.43 244.54,168.12C244.3,166.81 244.04,165.49 243.78,164.18C243.52,162.87 243.25,161.55 242.99,160.24C242.73,158.93 242.46,157.62 242.21,156.31C241.96,155 241.73,153.68 241.51,152.37C241.3,151.06 241.1,149.75 240.92,148.44C240.74,147.13 240.58,145.81 240.42,144.5C240.26,143.19 240.13,141.88 239.98,140.57C239.83,139.26 239.7,137.94 239.54,136.63C239.39,135.32 239.23,134.01 239.05,132.7C238.87,131.39 238.68,130.07 238.48,128.76C238.28,127.45 238.07,126.14 237.86,124.83C237.65,123.52 237.44,122.2 237.24,120.89C237.05,119.58 236.85,118.26 236.69,116.95C236.53,115.64 236.39,114.33 236.27,113.02C236.15,111.71 236.06,110.39 235.99,109.08C235.92,107.77 235.87,106.46 235.84,105.15C235.81,103.84 235.8,102.52 235.79,101.21C235.78,99.9 235.78,98.59 235.78,97.28C235.78,95.97 235.78,94.65 235.77,93.34C235.76,92.03 235.74,90.72 235.72,89.41C235.69,88.1 235.66,86.78 235.62,85.47C235.58,84.16 235.53,82.84 235.47,81.53C235.42,80.22 235.35,78.91 235.29,77.6C235.23,76.29 235.16,74.97 235.09,73.66C235.03,72.35 234.96,71.04 234.9,69.73C234.84,68.42 234.78,67.1 234.73,65.79C234.68,64.48 234.62,63.17 234.58,61.86C234.53,60.55 234.5,59.23 234.46,57.92C234.42,56.61 234.39,55.3 234.36,53.99C234.33,52.68 234.3,51.36 234.27,50.05C234.24,48.74 234.22,47.43 234.2,46.12C234.18,44.81 234.15,43.49 234.13,42.18C234.11,40.87 234.09,39.55 234.08,38.24C234.07,36.93 234.06,35.62 234.05,34.31Q234.04,33 234.03,30.37L233.97,30.37Q233.96,33 233.95,34.31C233.94,35.62 233.93,36.93 233.92,38.24C233.91,39.55 233.89,40.87 233.87,42.18C233.85,43.49 233.82,44.81 233.8,46.12C233.78,47.43 233.76,48.74 233.73,50.05C233.7,51.36 233.67,52.68 233.64,53.99C233.61,55.3 233.58,56.61 233.54,57.92C233.5,59.23 233.47,60.55 233.42,61.86C233.38,63.17 233.32,64.48 233.27,65.79C233.22,67.1 233.16,68.42 233.1,69.73C233.04,71.04 232.97,72.35 232.91,73.66C232.84,74.97 232.77,76.29 232.71,77.6C232.65,78.91 232.58,80.22 232.53,81.53C232.47,82.84 232.42,84.16 232.38,85.47C232.34,86.78 232.31,88.1 232.28,89.41C232.26,90.72 232.24,92.03 232.23,93.34C232.22,94.65 232.22,95.97 232.22,97.28C232.22,98.59 232.22,99.9 232.21,101.21C232.2,102.52 232.19,103.84 232.16,105.15C232.13,106.46 232.08,107.77 232.01,109.08C231.94,110.39 231.85,111.71 231.73,113.02C231.61,114.33 231.47,115.64 231.31,116.95C231.15,118.26 230.95,119.58 230.76,120.89C230.56,122.2 230.35,123.52 230.14,124.83C229.93,126.14 229.72,127.45 229.52,128.76C229.32,130.07 229.13,131.39 228.95,132.7C228.77,134.01 228.61,135.32 228.46,136.63C228.3,137.94 228.17,139.26 228.02,140.57C227.87,141.88 227.74,143.19 227.58,144.5C227.42,145.81 227.26,147.13 227.08,148.44C226.9,149.75 226.7,151.06 226.49,152.37C226.27,153.68 226.04,155 225.79,156.31C225.54,157.62 225.27,158.93 225.01,160.24C224.75,161.55 224.48,162.87 224.22,164.18C223.96,165.49 223.7,166.81 223.46,168.12C223.22,169.43 222.99,170.74 222.77,172.05C222.55,173.36 222.35,174.68 222.14,175.99C221.93,177.3 221.74,178.61 221.53,179.92C221.32,181.23 221.1,182.55 220.86,183.86C220.62,185.17 220.36,186.48 220.09,187.79C219.81,189.1 219.52,190.42 219.21,191.73C218.89,193.04 218.55,194.35 218.2,195.66C217.84,196.97 217.47,198.29 217.08,199.6C216.69,200.91 216.28,202.22 215.86,203.53C215.44,204.84 214.99,206.16 214.55,207.47C214.11,208.78 213.66,210.1 213.22,211.41C212.78,212.72 212.34,214.03 211.92,215.34C211.5,216.65 211.1,217.96 210.72,219.28C210.34,220.59 209.98,221.9 209.66,223.21C209.34,224.52 209.04,225.83 208.79,227.15C208.54,228.46 208.31,229.77 208.14,231.08C207.97,232.39 207.83,233.71 207.75,235.02C207.67,236.33 207.62,237.64 207.63,238.95C207.64,240.26 207.7,241.58 207.79,242.89C207.88,244.2 208.01,245.52 208.16,246.83C208.31,248.14 208.51,249.45 208.69,250.76C208.87,252.07 209.07,253.39 209.26,254.7C209.45,256.01 209.65,257.32 209.81,258.63C209.97,259.94 210.12,261.26 210.24,262.57C210.36,263.88 210.47,265.19 210.55,266.5C210.64,267.81 210.68,269.13 210.75,270.44C210.82,271.75 210.87,273.06 210.96,274.37C211.05,275.68 211.13,277 211.28,278.31C211.43,279.62 211.6,280.93 211.85,282.24C212.1,283.56 212.39,284.87 212.76,286.18C213.13,287.5 213.57,288.82 214.06,290.12C214.56,291.44 215.14,292.75 215.75,294.05C216.37,295.37 217.05,296.68 217.74,297.99C218.44,299.31 219.18,300.61 219.91,301.92C220.64,303.23 221.4,304.54 222.12,305.86C222.84,307.17 223.55,308.47 224.22,309.79C224.88,311.1 225.52,312.41 226.12,313.73C226.71,315.03 227.26,316.34 227.77,317.66C228.27,318.97 228.73,320.28 229.16,321.6C229.58,322.91 229.96,324.22 230.31,325.53C230.66,326.84 230.98,328.15 231.27,329.47C231.56,330.78 231.81,332.1 232.04,333.41C232.27,334.72 232.48,336.03 232.66,337.34C232.84,338.65 232.99,339.97 233.13,341.28C233.26,342.59 233.38,343.9 233.47,345.21C233.57,346.52 233.64,347.84 233.7,349.15C233.76,350.46 233.81,351.77 233.85,353.08Q233.89,354.39 233.93,357.02Z" style="vector-effect: non-scaling-stroke; stroke-width: 2px; stroke: rgb(239, 85, 59); stroke-opacity: 1; fill: rgb(239, 85, 59); fill-opacity: 0.5;"/><path class="violin" d="M390.03,350.41Q390.05,346.75 390.06,344.92C390.08,343.09 390.09,341.26 390.12,339.43C390.15,337.6 390.19,335.77 390.24,333.94C390.29,332.11 390.34,330.28 390.42,328.45C390.5,326.62 390.6,324.79 390.72,322.96C390.84,321.13 390.98,319.3 391.16,317.47C391.34,315.64 391.54,313.81 391.78,311.98C392.02,310.15 392.3,308.32 392.61,306.49C392.93,304.66 393.27,302.83 393.67,301C394.07,299.17 394.52,297.33 395.01,295.51C395.51,293.67 396.05,291.84 396.64,290.02C397.24,288.18 397.89,286.35 398.58,284.53C399.28,282.69 400.04,280.86 400.82,279.04C401.6,277.2 402.44,275.38 403.27,273.55C404.1,271.72 404.97,269.89 405.79,268.06C406.6,266.23 407.43,264.41 408.15,262.57C408.86,260.75 409.55,258.92 410.11,257.08C410.66,255.26 411.14,253.43 411.47,251.59C411.79,249.77 412,247.93 412.07,246.1C412.14,244.27 412.08,242.44 411.92,240.61C411.76,238.78 411.46,236.94 411.13,235.12C410.8,233.28 410.36,231.46 409.94,229.63C409.52,227.8 409.04,225.97 408.6,224.14C408.17,222.31 407.71,220.48 407.33,218.65C406.95,216.82 406.6,214.99 406.32,213.16C406.04,211.33 405.81,209.5 405.63,207.67C405.45,205.84 405.35,204.01 405.26,202.18C405.18,200.35 405.15,198.52 405.12,196.69C405.09,194.86 405.11,193.03 405.1,191.2C405.09,189.37 405.1,187.54 405.08,185.71C405.06,183.88 405.03,182.04 404.98,180.21C404.93,178.38 404.87,176.55 404.8,174.72C404.73,172.89 404.63,171.06 404.56,169.23C404.49,167.4 404.41,165.57 404.37,163.74C404.33,161.91 404.3,160.08 404.31,158.25C404.32,156.42 404.36,154.59 404.42,152.76C404.48,150.93 404.58,149.1 404.66,147.27C404.74,145.44 404.85,143.61 404.9,141.78C404.95,139.95 404.99,138.12 404.96,136.29C404.93,134.46 404.84,132.63 404.69,130.8C404.53,128.97 404.3,127.14 404.03,125.31C403.76,123.48 403.41,121.65 403.07,119.82C402.73,117.99 402.33,116.16 401.97,114.33C401.61,112.5 401.25,110.67 400.93,108.84C400.61,107.01 400.3,105.18 400.03,103.35C399.76,101.52 399.53,99.69 399.3,97.86C399.07,96.03 398.88,94.2 398.67,92.37C398.46,90.54 398.27,88.71 398.06,86.88C397.85,85.05 397.64,83.22 397.42,81.39C397.19,79.56 396.96,77.73 396.71,75.9C396.46,74.07 396.21,72.24 395.94,70.41C395.67,68.58 395.39,66.75 395.11,64.92C394.83,63.09 394.54,61.26 394.25,59.43C393.96,57.6 393.67,55.77 393.38,53.94C393.1,52.11 392.81,50.28 392.54,48.45C392.28,46.62 392.02,44.79 391.79,42.96C391.56,41.13 391.35,39.3 391.17,37.47C390.99,35.64 390.84,33.81 390.71,31.98C390.58,30.15 390.48,28.32 390.39,26.49Q390.31,24.66 390.2,21L389.8,21Q389.69,24.66 389.61,26.49C389.52,28.32 389.42,30.15 389.29,31.98C389.16,33.81 389.01,35.64 388.83,37.47C388.65,39.3 388.44,41.13 388.21,42.96C387.98,44.79 387.72,46.62 387.46,48.45C387.19,50.28 386.9,52.11 386.62,53.94C386.33,55.77 386.04,57.6 385.75,59.43C385.46,61.26 385.17,63.09 384.89,64.92C384.61,66.75 384.33,68.58 384.06,70.41C383.79,72.24 383.54,74.07 383.29,75.9C383.04,77.73 382.81,79.56 382.58,81.39C382.36,83.22 382.15,85.05 381.94,86.88C381.73,88.71 381.54,90.54 381.33,92.37C381.12,94.2 380.93,96.03 380.7,97.86C380.47,99.69 380.24,101.52 379.97,103.35C379.7,105.18 379.39,107.01 379.07,108.84C378.75,110.67 378.39,112.5 378.03,114.33C377.67,116.16 377.27,117.99 376.93,119.82C376.59,121.65 376.24,123.48 375.97,125.31C375.7,127.14 375.47,128.97 375.31,130.8C375.16,132.63 375.07,134.46 375.04,136.29C375.01,138.12 375.05,139.95 375.1,141.78C375.15,143.61 375.26,145.44 375.34,147.27C375.42,149.1 375.52,150.93 375.58,152.76C375.64,154.59 375.68,156.42 375.69,158.25C375.7,160.08 375.67,161.91 375.63,163.74C375.59,165.57 375.51,167.4 375.44,169.23C375.37,171.06 375.27,172.89 375.2,174.72C375.13,176.55 375.07,178.38 375.02,180.21C374.97,182.04 374.94,183.88 374.92,185.71C374.9,187.54 374.91,189.37 374.9,191.2C374.89,193.03 374.91,194.86 374.88,196.69C374.85,198.52 374.82,200.35 374.74,202.18C374.65,204.01 374.55,205.84 374.37,207.67C374.19,209.5 373.96,211.33 373.68,213.16C373.4,214.99 373.05,216.82 372.67,218.65C372.29,220.48 371.83,222.31 371.4,224.14C370.96,225.97 370.48,227.8 370.06,229.63C369.64,231.46 369.2,233.28 368.87,235.12C368.54,236.94 368.24,238.78 368.08,240.61C367.92,242.44 367.86,244.27 367.93,246.1C368,247.93 368.21,249.77 368.53,251.59C368.86,253.43 369.34,255.26 369.89,257.08C370.45,258.92 371.14,260.75 371.85,262.57C372.57,264.41 373.4,266.23 374.21,268.06C375.03,269.89 375.9,271.72 376.73,273.55C377.56,275.38 378.4,277.2 379.18,279.04C379.96,280.86 380.72,282.69 381.42,284.53C382.11,286.35 382.76,288.18 383.36,290.02C383.95,291.84 384.49,293.67 384.99,295.51C385.48,297.33 385.93,299.17 386.33,301C386.73,302.83 387.07,304.66 387.39,306.49C387.7,308.32 387.98,310.15 388.22,311.98C388.46,313.81 388.66,315.64 388.84,317.47C389.02,319.3 389.16,321.13 389.28,322.96C389.4,324.79 389.5,326.62 389.58,328.45C389.66,330.28 389.71,332.11 389.76,333.94C389.81,335.77 389.85,337.6 389.88,339.43C389.91,341.26 389.92,343.09 389.94,344.92Q389.95,346.75 389.97,350.41Z" style="vector-effect: non-scaling-stroke; stroke-width: 2px; stroke: rgb(239, 85, 59); stroke-opacity: 1; fill: rgb(239, 85, 59); fill-opacity: 0.5;"/><path class="box" d="M68.44,305.24H87.55M68.44,324.86H87.55V275.15H68.44ZM78,324.86V372.22M78,275.15V204.36" style="vector-effect: non-scaling-stroke; stroke-width: 2px; stroke: rgb(239, 85, 59); stroke-opacity: 1; fill: rgb(239, 85, 59); fill-opacity: 0.5;"/><path class="box" d="M224.44,238.09H243.55M224.44,272.02H243.55V200.89H224.44ZM234,272.02V333.22M234,200.89V94.42" style="vector-effect: non-scaling-stroke; stroke-width: 2px; stroke: rgb(239, 85, 59); stroke-opacity: 1; fill: rgb(239, 85, 59); fill-opacity: 0.5;"/><path class="box" d="M380.44,193.57H399.55M380.44,245.28H399.55V136.65H380.44ZM390,245.28V317.24M390,136.65V54.17" style="vector-effect: non-scaling-stroke; stroke-width: 2px; stroke: rgb(239, 85, 59); stroke-opacity: 1; fill: rgb(239, 85, 59); fill-opacity: 0.5;"/><path class="mean" d="M68.44,299.19H87.55" style="fill: none; vector-effect: non-scaling-stroke; stroke-width: 2px; stroke-dasharray: 4px, 2px; stroke: rgb(239, 85, 59); stroke-opacity: 1;"/><path class="mean" d="M224.44,232.06H243.55" style="fill: none; vector-effect: non-scaling-stroke; stroke-width: 2px; stroke-dasharray: 4px, 2px; stroke: rgb(239, 85, 59); stroke-opacity: 1;"/><path class="mean" d="M380.44,189.45H399.55" style="fill: none; vector-effect: non-scaling-stroke; stroke-width: 2px; stroke-dasharray: 4px, 2px; stroke: rgb(239, 85, 59); stroke-opacity: 1;"/></g></g></g><g class="overplot"/><path class="xlines-above crisp" d="M0,0" style="fill: none;"/><path class="ylines-above crisp" d="M0,0" style="fill: none;"/><g class="overlines-above"/><g class="xaxislayer-above"><g class="x2tick"><text text-anchor="middle" x="0" y="533" transform="translate(730,0)" style="font-family: 'Open Sans', verdana, arial, sans-serif; font-size: 12px; fill: rgb(42, 63, 95); fill-opacity: 1; white-space: pre; opacity: 1;">&#60;=1</text></g><g class="x2tick"><text text-anchor="middle" x="0" y="533" transform="translate(886,0)" style="font-family: 'Open Sans', verdana, arial, sans-serif; font-size: 12px; fill: rgb(42, 63, 95); fill-opacity: 1; white-space: pre; opacity: 1;">(1, 2]</text></g><g class="x2tick"><text text-anchor="middle" x="0" y="533" transform="translate(1042,0)" style="font-family: 'Open Sans', verdana, arial, sans-serif; font-size: 12px; fill: rgb(42, 63, 95); fill-opacity: 1; white-space: pre; opacity: 1;">>2</text></g></g><g class="yaxislayer-above"><g class="y2tick"><text text-anchor="end" x="651" y="4.199999999999999" transform="translate(0,480.5)" style="font-family: 'Open Sans', verdana, arial, sans-serif; font-size: 12px; fill: rgb(42, 63, 95); fill-opacity: 1; white-space: pre; opacity: 1;">0</text></g><g class="y2tick"><text text-anchor="end" x="651" y="4.199999999999999" style="font-family: 'Open Sans', verdana, arial, sans-serif; font-size: 12px; fill: rgb(42, 63, 95); fill-opacity: 1; white-space: pre; opacity: 1;" transform="translate(0,396.83)">10</text></g><g class="y2tick"><text text-anchor="end" x="651" y="4.199999999999999" style="font-family: 'Open Sans', verdana, arial, sans-serif; font-size: 12px; fill: rgb(42, 63, 95); fill-opacity: 1; white-space: pre; opacity: 1;" transform="translate(0,313.15)">20</text></g><g class="y2tick"><text text-anchor="end" x="651" y="4.199999999999999" style="font-family: 'Open Sans', verdana, arial, sans-serif; font-size: 12px; fill: rgb(42, 63, 95); fill-opacity: 1; white-space: pre; opacity: 1;" transform="translate(0,229.48)">30</text></g><g class="y2tick"><text text-anchor="end" x="651" y="4.199999999999999" style="font-family: 'Open Sans', verdana, arial, sans-serif; font-size: 12px; fill: rgb(42, 63, 95); fill-opacity: 1; white-space: pre; opacity: 1;" transform="translate(0,145.8)">40</text></g></g><g class="overaxes-above"/></g></g><g class="polarlayer"/><g class="smithlayer"/><g class="ternarylayer"/><g class="geolayer"/><g class="funnelarealayer"/><g class="pielayer"/><g class="iciclelayer"/><g class="treemaplayer"/><g class="sunburstlayer"/><g class="glimages"/><defs id="topdefs-a7f78a"><g class="clips"/></defs><g class="layer-above"><g class="imagelayer"/><g class="shapelayer"/></g><g class="infolayer"><g class="g-gtitle"><text class="gtitle" x="60" y="50" text-anchor="start" dy="0em" style="font-family: 'Open Sans', verdana, arial, sans-serif; font-size: 17px; fill: rgb(42, 63, 95); opacity: 1; font-weight: normal; white-space: pre;">selling_price Distributions (paperback better)</text></g><g class="g-xtitle"><text class="xtitle" x="314" y="561.8" text-anchor="middle" style="font-family: 'Open Sans', verdana, arial, sans-serif; font-size: 14px; fill: rgb(42, 63, 95); opacity: 1; font-weight: normal; white-space: pre;">Hardcover over Paperback</text></g><g class="g-x2title"><text class="x2title" x="886" y="561.8" text-anchor="middle" style="font-family: 'Open Sans', verdana, arial, sans-serif; font-size: 14px; fill: rgb(42, 63, 95); opacity: 1; font-weight: normal; white-space: pre;">Hardcover over Paperback</text></g><g class="g-ytitle"><text class="ytitle" transform="rotate(-90,40.465625,310)" x="40.465625" y="310" text-anchor="middle" style="font-family: 'Open Sans', verdana, arial, sans-serif; font-size: 14px; fill: rgb(42, 63, 95); opacity: 1; font-weight: normal; white-space: pre;">selling_price</text></g><g class="g-y2title"><text class="y2title" transform="rotate(-90,612.465625,310)" x="612.465625" y="310" text-anchor="middle" style="font-family: 'Open Sans', verdana, arial, sans-serif; font-size: 14px; fill: rgb(42, 63, 95); opacity: 1; font-weight: normal; white-space: pre;">selling_price</text></g><g class="annotation" data-index="0" style="opacity: 1;"><g class="annotation-text-g" transform="rotate(0,314,87)"><g class="cursor-pointer" transform="translate(273,74)"><rect class="bg" x="0.5" y="0.5" width="82" height="25" style="stroke-width: 1px; stroke: rgb(0, 0, 0); stroke-opacity: 0; fill: rgb(0, 0, 0); fill-opacity: 0;"/><text class="annotation-text" text-anchor="middle" x="41.296875" y="19" style="font-family: 'Open Sans', verdana, arial, sans-serif; font-size: 16px; fill: rgb(42, 63, 95); fill-opacity: 1; white-space: pre;">Paperback</text></g></g></g><g class="annotation" data-index="1" style="opacity: 1;"><g class="annotation-text-g" transform="rotate(0,886,87)"><g class="cursor-pointer" transform="translate(845,74)"><rect class="bg" x="0.5" y="0.5" width="81" height="25" style="stroke-width: 1px; stroke: rgb(0, 0, 0); stroke-opacity: 0; fill: rgb(0, 0, 0); fill-opacity: 0;"/><text class="annotation-text" text-anchor="middle" x="40.921875" y="19" style="font-family: 'Open Sans', verdana, arial, sans-serif; font-size: 16px; fill: rgb(42, 63, 95); fill-opacity: 1; white-space: pre;">Hardcover</text></g></g></g></g></svg>