<svg class="main-svg" xmlns="http://www.w3.org/2000/svg" xmlns:xlink="http://www.w3.org/1999/xlink" width="1200" height="600" style="" viewBox="0 0 1200 600"><rect x="0" y="0" width="1200" height="600" style="fill: rgb(255, 255, 255); fill-opacity: 1;"/><defs id="defs-6a032a"><g class="clips"><clipPath id="clip6a032axyplot" class="plotclip"><rect width="468" height="420"/></clipPath><clipPath id="clip6a032ax2y2plot" class="plotclip"><rect width="467.99999999999994" height="420"/></clipPath><clipPath class="axesclip" id="clip6a032ax"><rect x="80" y="0" width="468" height="600"/></clipPath><clipPath class="axesclip" id="clip6a032ay"><rect x="0" y="100" width="1200" height="420"/></clipPath><clipPath class="axesclip" id="clip6a032axy"><rect x="80" y="100" width="468" height="420"/></clipPath><clipPath class="axesclip" id="clip6a032ay2"><rect x="0" y="100" width="1200" height="420"/></clipPath><clipPath class="axesclip" id="clip6a032axy2"><rect x="80" y="100" width="468" height="420"/></clipPath><clipPath class="axesclip" id="clip6a032ax2"><rect x="652" y="0" width="467.99999999999994" height="600"/></clipPath><clipPath class="axesclip" id="clip6a032ax2y"><rect x="652" y="100" width="467.99999999999994" height="420"/></clipPath><clipPath class="axesclip" id="clip6a032ax2y2"><rect x="652" y="100" width="467.99999999999994" height="420"/></clipPath></g><g class="gradients"/><g class="patterns"/></defs><g class="bglayer"><rect class="bg" x="80" y="100" width="468" height="420" style="fill: rgb(229, 236, 246); fill-opacity: 1; stroke-width: 0;"/><rect class="bg" x="652" y="100" width="467.99999999999994" height="420" style="fill: rgb(229, 236, 246); fill-opacity: 1; stroke-width: 0;"/></g><g class="layer-below"><g class="imagelayer"/><g class="shapelayer"/></g><g class="cartesianlayer"><g class="subplot xy"><g class="layer-subplot"><g class="shapelayer"/><g class="imagelayer"/></g><g class="minor-gridlayer"><g class="x"/><g class="y"/></g><g class="gridlayer"><g class="x"/><g class="y"><path class="ygrid crisp" transform="translate(0,366.33)" d="M80,0h468" style="stroke: rgb(255, 255, 255); stroke-opacity: 1; stroke-width: 1px;"/><path class="ygrid crisp" transform="translate(0,275.97)" d="M80,0h468" style="stroke: rgb(255, 255, 255); stroke-opacity: 1; stroke-width: 1px;"/><path class="ygrid crisp" transform="translate(0,185.62)" d="M80,0h468" style="stroke: rgb(255, 255, 255); stroke-opacity: 1; stroke-width: 1px;"/></g></g><g class="zerolinelayer"><path class="yzl zl crisp" transform="translate(0,456.69)" d="M80,0h468" style="stroke: rgb(255, 255, 255); stroke-opacity: 1; stroke-width: 2px;"/></g><path class="xlines-below"/><path class="ylines-below"/><g class="overlines-below"/><g class="xaxislayer-below"/><g class="yaxislayer-below"/><g class="overaxes-below"/><g class="plot" transform="translate(80,100)" clip-path="url(#clip6a032axyplot)"><g class="violinlayer mlayer"><g class="trace violins" style="opacity: 1;"><path class="violin" d="M79.03,359.65Q79.7,359.29 80.11,359.13C80.63,358.93 81.26,358.77 81.93,358.61C82.74,358.42 83.66,358.25 84.63,358.09C85.74,357.9 86.97,357.74 88.21,357.57C89.55,357.39 90.98,357.22 92.38,357.05C93.79,356.88 95.27,356.71 96.65,356.53C97.94,356.36 99.25,356.2 100.41,356.01C101.42,355.85 102.41,355.69 103.22,355.49C103.85,355.33 104.48,355.19 104.88,354.97C105.16,354.82 105.43,354.65 105.5,354.45C105.55,354.29 105.47,354.09 105.38,353.93C105.28,353.74 105.06,353.58 104.88,353.41C104.7,353.23 104.48,353.07 104.3,352.89C104.13,352.72 103.96,352.55 103.83,352.37C103.71,352.2 103.62,352.03 103.55,351.85C103.49,351.68 103.46,351.5 103.43,351.33C103.4,351.16 103.4,350.98 103.37,350.81C103.34,350.64 103.32,350.46 103.27,350.29C103.21,350.11 103.14,349.94 103.03,349.77C102.91,349.59 102.75,349.41 102.57,349.25C102.37,349.06 102.11,348.89 101.85,348.73C101.56,348.55 101.22,348.38 100.88,348.21C100.51,348.03 100.11,347.86 99.71,347.69C99.3,347.51 98.87,347.34 98.45,347.17C98.03,347 97.61,346.83 97.21,346.65C96.83,346.48 96.45,346.31 96.09,346.13C95.75,345.96 95.43,345.79 95.12,345.61C94.83,345.44 94.57,345.27 94.3,345.09C94.04,344.92 93.79,344.74 93.53,344.57C93.26,344.39 92.99,344.22 92.69,344.05C92.36,343.87 92.01,343.69 91.62,343.52C91.18,343.33 90.7,343.17 90.2,343C89.64,342.82 89.04,342.65 88.42,342.48C87.76,342.3 87.07,342.13 86.38,341.96C85.68,341.79 84.96,341.62 84.27,341.44C83.61,341.27 82.95,341.1 82.34,340.92C81.78,340.75 81.24,340.59 80.76,340.4C80.34,340.24 79.94,340.07 79.6,339.88C79.31,339.72 79.06,339.55 78.85,339.36Q78.67,339.2 78.41,338.84L77.59,338.84Q77.33,339.2 77.15,339.36C76.94,339.55 76.69,339.72 76.4,339.88C76.06,340.07 75.66,340.24 75.24,340.4C74.76,340.59 74.22,340.75 73.66,340.92C73.05,341.1 72.39,341.27 71.73,341.44C71.04,341.62 70.32,341.79 69.62,341.96C68.93,342.13 68.24,342.3 67.58,342.48C66.96,342.65 66.36,342.82 65.8,343C65.3,343.17 64.82,343.33 64.38,343.52C63.99,343.69 63.64,343.87 63.31,344.05C63.01,344.22 62.74,344.39 62.47,344.57C62.21,344.74 61.96,344.92 61.7,345.09C61.43,345.27 61.17,345.44 60.88,345.61C60.57,345.79 60.25,345.96 59.91,346.13C59.55,346.31 59.17,346.48 58.79,346.65C58.39,346.83 57.97,347 57.55,347.17C57.13,347.34 56.7,347.51 56.29,347.69C55.89,347.86 55.49,348.03 55.12,348.21C54.78,348.38 54.44,348.55 54.15,348.73C53.89,348.89 53.63,349.06 53.43,349.25C53.25,349.41 53.09,349.59 52.97,349.77C52.86,349.94 52.79,350.11 52.73,350.29C52.68,350.46 52.66,350.64 52.63,350.81C52.6,350.98 52.6,351.16 52.57,351.33C52.54,351.5 52.51,351.68 52.45,351.85C52.38,352.03 52.29,352.2 52.17,352.37C52.04,352.55 51.87,352.72 51.7,352.89C51.52,353.07 51.3,353.23 51.12,353.41C50.94,353.58 50.72,353.74 50.62,353.93C50.53,354.09 50.45,354.29 50.5,354.45C50.57,354.65 50.84,354.82 51.12,354.97C51.52,355.19 52.15,355.33 52.78,355.49C53.59,355.69 54.58,355.85 55.59,356.01C56.75,356.2 58.06,356.36 59.35,356.53C60.73,356.71 62.21,356.88 63.62,357.05C65.02,357.22 66.45,357.39 67.79,357.57C69.03,357.74 70.26,357.9 71.37,358.09C72.34,358.25 73.26,358.42 74.07,358.61C74.74,358.77 75.37,358.93 75.89,359.13Q76.3,359.29 76.97,359.65Z" style="vector-effect: non-scaling-stroke; stroke-width: 2px; stroke: rgb(99, 110, 250); stroke-opacity: 1; fill: rgb(99, 110, 250); fill-opacity: 0.5;"/><path class="violin" d="M235.16,358.66Q235.93,358.43 236.41,358.33C237.03,358.2 237.77,358.11 238.57,358.01C239.55,357.89 240.68,357.78 241.87,357.68C243.25,357.56 244.8,357.46 246.37,357.35C248.1,357.23 249.98,357.13 251.83,357.02C253.75,356.91 255.77,356.81 257.7,356.7C259.57,356.59 261.48,356.49 263.22,356.37C264.79,356.27 266.36,356.16 267.7,356.04C268.8,355.94 269.89,355.86 270.7,355.72C271.27,355.62 271.93,355.58 272.13,355.39C272.23,355.3 272.27,355.15 272.22,355.06C272.14,354.91 271.69,354.83 271.37,354.73C270.97,354.61 270.48,354.52 270.01,354.41C269.51,354.3 268.98,354.19 268.46,354.08C267.95,353.97 267.43,353.86 266.92,353.75C266.42,353.64 265.92,353.53 265.43,353.42C264.95,353.31 264.48,353.21 264,353.1C263.52,352.99 263.04,352.88 262.57,352.77C262.1,352.66 261.63,352.55 261.17,352.44C260.72,352.33 260.26,352.23 259.82,352.12C259.4,352.01 258.99,351.9 258.61,351.79C258.25,351.68 257.91,351.58 257.59,351.46C257.3,351.36 257.03,351.25 256.79,351.13C256.57,351.03 256.37,350.92 256.19,350.81C256.02,350.71 255.87,350.59 255.73,350.48C255.6,350.37 255.49,350.26 255.38,350.15C255.27,350.04 255.18,349.94 255.08,349.83C254.98,349.72 254.89,349.61 254.79,349.5C254.69,349.39 254.59,349.28 254.48,349.17C254.36,349.06 254.23,348.94 254.08,348.84C253.92,348.73 253.74,348.62 253.56,348.52C253.36,348.41 253.14,348.3 252.92,348.19C252.69,348.08 252.45,347.97 252.21,347.86C251.97,347.75 251.71,347.65 251.48,347.54C251.26,347.43 251.03,347.33 250.83,347.21C250.65,347.1 250.47,347 250.32,346.88C250.18,346.78 250.06,346.66 249.96,346.55C249.87,346.45 249.8,346.34 249.73,346.23C249.66,346.12 249.62,346.01 249.56,345.9C249.51,345.79 249.46,345.68 249.4,345.57C249.34,345.46 249.27,345.36 249.2,345.25C249.12,345.14 249.04,345.03 248.95,344.92C248.85,344.81 248.75,344.7 248.64,344.59C248.52,344.48 248.39,344.36 248.25,344.26C248.1,344.15 247.93,344.04 247.75,343.94C247.54,343.82 247.32,343.71 247.07,343.61C246.79,343.49 246.47,343.38 246.14,343.28C245.76,343.16 245.35,343.06 244.92,342.96C244.45,342.85 243.95,342.74 243.44,342.63C242.9,342.52 242.33,342.41 241.77,342.3C241.2,342.19 240.61,342.08 240.04,341.97C239.49,341.86 238.93,341.76 238.4,341.65C237.91,341.55 237.42,341.44 236.98,341.32C236.59,341.22 236.21,341.11 235.87,340.99C235.58,340.89 235.3,340.79 235.07,340.67C234.88,340.57 234.7,340.46 234.56,340.34Q234.44,340.24 234.27,340.01L233.73,340.01Q233.56,340.24 233.44,340.34C233.3,340.46 233.12,340.57 232.93,340.67C232.7,340.79 232.42,340.89 232.13,340.99C231.79,341.11 231.41,341.22 231.02,341.32C230.58,341.44 230.09,341.55 229.6,341.65C229.07,341.76 228.51,341.86 227.96,341.97C227.39,342.08 226.8,342.19 226.23,342.3C225.67,342.41 225.1,342.52 224.56,342.63C224.05,342.74 223.55,342.85 223.08,342.96C222.65,343.06 222.24,343.16 221.86,343.28C221.53,343.38 221.21,343.49 220.93,343.61C220.68,343.71 220.46,343.82 220.25,343.94C220.07,344.04 219.9,344.15 219.75,344.26C219.61,344.36 219.48,344.48 219.36,344.59C219.25,344.7 219.15,344.81 219.05,344.92C218.96,345.03 218.88,345.14 218.8,345.25C218.73,345.36 218.66,345.46 218.6,345.57C218.54,345.68 218.49,345.79 218.44,345.9C218.38,346.01 218.34,346.12 218.27,346.23C218.2,346.34 218.13,346.45 218.04,346.55C217.94,346.66 217.82,346.78 217.68,346.88C217.53,347 217.35,347.1 217.17,347.21C216.97,347.33 216.74,347.43 216.52,347.54C216.29,347.65 216.03,347.75 215.79,347.86C215.55,347.97 215.31,348.08 215.08,348.19C214.86,348.3 214.64,348.41 214.44,348.52C214.26,348.62 214.08,348.73 213.92,348.84C213.77,348.94 213.64,349.06 213.52,349.17C213.41,349.28 213.31,349.39 213.21,349.5C213.11,349.61 213.02,349.72 212.92,349.83C212.82,349.94 212.73,350.04 212.62,350.15C212.51,350.26 212.4,350.37 212.27,350.48C212.13,350.59 211.98,350.71 211.81,350.81C211.63,350.92 211.43,351.03 211.21,351.13C210.97,351.25 210.7,351.36 210.41,351.46C210.09,351.58 209.75,351.68 209.39,351.79C209.01,351.9 208.6,352.01 208.18,352.12C207.74,352.23 207.28,352.33 206.83,352.44C206.37,352.55 205.9,352.66 205.43,352.77C204.96,352.88 204.48,352.99 204,353.1C203.52,353.21 203.05,353.31 202.57,353.42C202.08,353.53 201.58,353.64 201.08,353.75C200.57,353.86 200.05,353.97 199.54,354.08C199.02,354.19 198.49,354.3 197.99,354.41C197.52,354.52 197.03,354.61 196.63,354.73C196.31,354.83 195.86,354.91 195.78,355.06C195.73,355.15 195.77,355.3 195.87,355.39C196.07,355.58 196.73,355.62 197.3,355.72C198.11,355.86 199.2,355.94 200.3,356.04C201.64,356.16 203.21,356.27 204.78,356.37C206.52,356.49 208.43,356.59 210.3,356.7C212.23,356.81 214.25,356.91 216.17,357.02C218.02,357.13 219.9,357.23 221.63,357.35C223.2,357.46 224.75,357.56 226.13,357.68C227.32,357.78 228.45,357.89 229.43,358.01C230.23,358.11 230.97,358.2 231.59,358.33Q232.07,358.43 232.84,358.66Z" style="vector-effect: non-scaling-stroke; stroke-width: 2px; stroke: rgb(99, 110, 250); stroke-opacity: 1; fill: rgb(99, 110, 250); fill-opacity: 0.5;"/><path class="violin" d="M390.99,358.77Q391.64,358.53 392.04,358.42C392.55,358.28 393.16,358.18 393.82,358.07C394.63,357.94 395.57,357.83 396.56,357.72C397.71,357.59 399,357.48 400.32,357.37C401.78,357.25 403.37,357.13 404.95,357.02C406.62,356.9 408.38,356.79 410.09,356.67C411.79,356.55 413.54,356.44 415.18,356.32C416.72,356.21 418.26,356.1 419.66,355.97C420.89,355.86 422.09,355.75 423.11,355.62C423.92,355.51 424.73,355.42 425.29,355.27C425.67,355.17 426.14,355.08 426.2,354.92C426.24,354.82 426.13,354.67 426.02,354.57C425.84,354.41 425.4,354.33 425.04,354.22C424.61,354.09 424.11,353.98 423.62,353.87C423.11,353.75 422.56,353.64 422.04,353.52C421.53,353.4 421.01,353.29 420.52,353.17C420.05,353.06 419.58,352.94 419.14,352.82C418.72,352.71 418.32,352.59 417.93,352.47C417.56,352.36 417.2,352.24 416.86,352.12C416.54,352.01 416.22,351.89 415.92,351.77C415.64,351.66 415.37,351.54 415.1,351.42C414.85,351.31 414.6,351.2 414.36,351.08C414.12,350.97 413.9,350.85 413.66,350.73C413.42,350.61 413.18,350.5 412.93,350.38C412.68,350.26 412.41,350.15 412.15,350.03C411.88,349.91 411.59,349.8 411.32,349.68C411.05,349.56 410.78,349.45 410.53,349.33C410.29,349.22 410.05,349.1 409.84,348.98C409.66,348.87 409.48,348.76 409.34,348.63C409.22,348.52 409.11,348.4 409.03,348.28C408.96,348.17 408.91,348.05 408.86,347.93C408.81,347.81 408.79,347.7 408.75,347.58C408.71,347.46 408.68,347.34 408.63,347.23C408.58,347.11 408.51,346.99 408.44,346.88C408.37,346.76 408.28,346.65 408.2,346.53C408.11,346.41 408.02,346.3 407.93,346.18C407.83,346.06 407.74,345.94 407.63,345.83C407.52,345.71 407.41,345.59 407.28,345.48C407.15,345.36 407.01,345.24 406.85,345.13C406.68,345.01 406.49,344.89 406.29,344.78C406.06,344.66 405.81,344.54 405.55,344.43C405.26,344.31 404.96,344.19 404.64,344.08C404.29,343.96 403.92,343.84 403.54,343.73C403.14,343.61 402.71,343.49 402.28,343.38C401.82,343.26 401.35,343.14 400.87,343.03C400.37,342.91 399.85,342.8 399.32,342.69C398.78,342.57 398.21,342.46 397.66,342.34C397.1,342.22 396.54,342.11 395.99,341.99C395.45,341.87 394.91,341.76 394.4,341.64C393.92,341.53 393.45,341.41 393.02,341.29C392.63,341.18 392.25,341.07 391.91,340.94C391.62,340.83 391.34,340.72 391.11,340.59C390.91,340.48 390.73,340.37 390.59,340.24Q390.47,340.13 390.29,339.89L389.71,339.89Q389.53,340.13 389.41,340.24C389.27,340.37 389.09,340.48 388.89,340.59C388.66,340.72 388.38,340.83 388.09,340.94C387.75,341.07 387.37,341.18 386.98,341.29C386.55,341.41 386.08,341.53 385.6,341.64C385.09,341.76 384.55,341.87 384.01,341.99C383.46,342.11 382.9,342.22 382.34,342.34C381.79,342.46 381.22,342.57 380.68,342.69C380.15,342.8 379.63,342.91 379.13,343.03C378.65,343.14 378.18,343.26 377.72,343.38C377.29,343.49 376.86,343.61 376.46,343.73C376.08,343.84 375.71,343.96 375.36,344.08C375.04,344.19 374.74,344.31 374.45,344.43C374.19,344.54 373.94,344.66 373.71,344.78C373.51,344.89 373.32,345.01 373.15,345.13C372.99,345.24 372.85,345.36 372.72,345.48C372.59,345.59 372.48,345.71 372.37,345.83C372.26,345.94 372.17,346.06 372.07,346.18C371.98,346.3 371.89,346.41 371.8,346.53C371.72,346.65 371.63,346.76 371.56,346.88C371.49,346.99 371.42,347.11 371.37,347.23C371.32,347.34 371.29,347.46 371.25,347.58C371.21,347.7 371.19,347.81 371.14,347.93C371.09,348.05 371.04,348.17 370.97,348.28C370.89,348.4 370.78,348.52 370.66,348.63C370.52,348.76 370.34,348.87 370.16,348.98C369.95,349.1 369.71,349.22 369.47,349.33C369.22,349.45 368.95,349.56 368.68,349.68C368.41,349.8 368.12,349.91 367.85,350.03C367.59,350.15 367.32,350.26 367.07,350.38C366.82,350.5 366.58,350.61 366.34,350.73C366.1,350.85 365.88,350.97 365.64,351.08C365.4,351.2 365.15,351.31 364.9,351.42C364.63,351.54 364.36,351.66 364.08,351.77C363.78,351.89 363.46,352.01 363.14,352.12C362.8,352.24 362.44,352.36 362.07,352.47C361.68,352.59 361.28,352.71 360.86,352.82C360.42,352.94 359.95,353.06 359.48,353.17C358.99,353.29 358.47,353.4 357.96,353.52C357.44,353.64 356.89,353.75 356.38,353.87C355.89,353.98 355.39,354.09 354.96,354.22C354.6,354.33 354.16,354.41 353.98,354.57C353.87,354.67 353.76,354.82 353.8,354.92C353.86,355.08 354.33,355.17 354.71,355.27C355.27,355.42 356.08,355.51 356.89,355.62C357.91,355.75 359.11,355.86 360.34,355.97C361.74,356.1 363.28,356.21 364.82,356.32C366.46,356.44 368.21,356.55 369.91,356.67C371.62,356.79 373.38,356.9 375.05,357.02C376.63,357.13 378.22,357.25 379.68,357.37C381,357.48 382.29,357.59 383.44,357.72C384.43,357.83 385.37,357.94 386.18,358.07C386.84,358.18 387.45,358.28 387.96,358.42Q388.36,358.53 389.01,358.77Z" style="vector-effect: non-scaling-stroke; stroke-width: 2px; stroke: rgb(99, 110, 250); stroke-opacity: 1; fill: rgb(99, 110, 250); fill-opacity: 0.5;"/><path class="box" d="M68.45,350.65H87.56M68.45,354.01H87.56V347.44H68.45ZM78,354.01V356.51M78,347.44V341.98" style="vector-effect: non-scaling-stroke; stroke-width: 2px; stroke: rgb(99, 110, 250); stroke-opacity: 1; fill: rgb(99, 110, 250); fill-opacity: 0.5;"/><path class="box" d="M224.45,352.07H243.56M224.45,354.85H243.56V347.91H224.45ZM234,354.85V356.69M234,347.91V341.98" style="vector-effect: non-scaling-stroke; stroke-width: 2px; stroke: rgb(99, 110, 250); stroke-opacity: 1; fill: rgb(99, 110, 250); fill-opacity: 0.5;"/><path class="box" d="M380.45,351.64H399.55M380.45,354.51H399.55V347.49H380.45ZM390,354.51V356.65M390,347.49V342" style="vector-effect: non-scaling-stroke; stroke-width: 2px; stroke: rgb(99, 110, 250); stroke-opacity: 1; fill: rgb(99, 110, 250); fill-opacity: 0.5;"/><path class="mean" d="M68.45,350.39H87.56" style="fill: none; vector-effect: non-scaling-stroke; stroke-width: 2px; stroke-dasharray: 4px, 2px; stroke: rgb(99, 110, 250); stroke-opacity: 1;"/><path class="mean" d="M224.45,351.12H243.56" style="fill: none; vector-effect: non-scaling-stroke; stroke-width: 2px; stroke-dasharray: 4px, 2px; stroke: rgb(99, 110, 250); stroke-opacity: 1;"/><path class="mean" d="M380.45,350.88H399.55" style="fill: none; vector-effect: non-scaling-stroke; stroke-width: 2px; stroke-dasharray: 4px, 2px; stroke: rgb(99, 110, 250); stroke-opacity: 1;"/></g></g></g><g class="overplot"/><path class="xlines-above crisp" d="M0,0" style="fill: none;"/><path class="ylines-above crisp" d="M0,0" style="fill: none;"/><g class="overlines-above"/><g class="xaxislayer-above"><g class="xtick"><text text-anchor="middle" x="0" y="533" transform="translate(158,0)" style="font-family: 'Open Sans', verdana, arial, sans-serif; font-size: 12px; fill: rgb(42, 63, 95); fill-opacity: 1; white-space: pre; opacity: 1;">&#60;=1</text></g><g class="xtick"><text text-anchor="middle" x="0" y="533" transform="translate(314,0)" style="font-family: 'Open Sans', verdana, arial, sans-serif; font-size: 12px; fill: rgb(42, 63, 95); fill-opacity: 1; white-space: pre; opacity: 1;">(1, 2]</text></g><g class="xtick"><text text-anchor="middle" x="0" y="533" transform="translate(470,0)" style="font-family: 'Open Sans', verdana, arial, sans-serif; font-size: 12px; fill: rgb(42, 63, 95); fill-opacity: 1; white-space: pre; opacity: 1;">>2</text></g></g><g class="yaxislayer-above"><g class="ytick"><text text-anchor="end" x="79" y="4.199999999999999" transform="translate(0,456.69)" style="font-family: 'Open Sans', verdana, arial, sans-serif; font-size: 12px; fill: rgb(42, 63, 95); fill-opacity: 1; white-space: pre; opacity: 1;">0</text></g><g class="ytick"><text text-anchor="end" x="79" y="4.199999999999999" style="font-family: 'Open Sans', verdana, arial, sans-serif; font-size: 12px; fill: rgb(42, 63, 95); fill-opacity: 1; white-space: pre; opacity: 1;" transform="translate(0,366.33)">0.5M</text></g><g class="ytick"><text text-anchor="end" x="79" y="4.199999999999999" style="font-family: 'Open Sans', verdana, arial, sans-serif; font-size: 12px; fill: rgb(42, 63, 95); fill-opacity: 1; white-space: pre; opacity: 1;" transform="translate(0,275.97)">1M</text></g><g class="ytick"><text text-anchor="end" x="79" y="4.199999999999999" style="font-family: 'Open Sans', verdana, arial, sans-serif; font-size: 12px; fill: rgb(42, 63, 95); fill-opacity: 1; white-space: pre; opacity: 1;" transform="translate(0,185.62)">1.5M</text></g></g><g class="overaxes-above"/></g><g class="subplot x2y2"><g class="layer-subplot"><g class="shapelayer"/><g class="imagelayer"/></g><g class="minor-gridlayer"><g class="x2"/><g class="y2"/></g><g class="gridlayer"><g class="x2"/><g class="y2"><path class="y2grid crisp" transform="translate(0,366.33)" d="M652,0h467.99999999999994" style="stroke: rgb(255, 255, 255); stroke-opacity: 1; stroke-width: 1px;"/><path class="y2grid crisp" transform="translate(0,275.97)" d="M652,0h467.99999999999994" style="stroke: rgb(255, 255, 255); stroke-opacity: 1; stroke-width: 1px;"/><path class="y2grid crisp" transform="translate(0,185.62)" d="M652,0h467.99999999999994" style="stroke: rgb(255, 255, 255); stroke-opacity: 1; stroke-width: 1px;"/></g></g><g class="zerolinelayer"><path class="y2zl zl crisp" transform="translate(0,456.69)" d="M652,0h467.99999999999994" style="stroke: rgb(255, 255, 255); stroke-opacity: 1; stroke-width: 2px;"/></g><path class="xlines-below"/><path class="ylines-below"/><g class="overlines-below"/><g class="xaxislayer-below"/><g class="yaxislayer-below"/><g class="overaxes-below"/><g class="plot" transform="translate(652,100)" clip-path="url(#clip6a032ax2y2plot)"><g class="violinlayer mlayer"><g class="trace violins" style="opacity: 1;"><path class="violin" d="M79.29,399Q80.04,394.23 80.64,391.87C81.25,389.47 81.99,387.08 82.91,384.73C83.85,382.32 84.99,379.94 86.26,377.6C87.56,375.19 89.1,372.82 90.65,370.47C92.23,368.07 94,365.71 95.65,363.33C97.29,360.96 99.06,358.61 100.54,356.2C101.98,353.86 103.4,351.5 104.44,349.07C105.43,346.74 106.26,344.34 106.69,341.93C107.11,339.58 107.18,337.17 107.01,334.8C106.84,332.41 106.29,330.02 105.67,327.66C105.04,325.26 104.11,322.9 103.24,320.53C102.36,318.14 101.34,315.78 100.42,313.4C99.51,311.03 98.57,308.65 97.75,306.26C96.94,303.89 96.18,301.52 95.51,299.13C94.85,296.76 94.27,294.38 93.74,292C93.21,289.63 92.76,287.24 92.33,284.86C91.9,282.49 91.53,280.11 91.16,277.73C90.79,275.35 90.45,272.98 90.12,270.6C89.79,268.22 89.48,265.84 89.17,263.46C88.87,261.08 88.57,258.71 88.29,256.33C88.02,253.95 87.76,251.58 87.52,249.2C87.28,246.82 87.05,244.44 86.83,242.06C86.61,239.68 86.41,237.31 86.21,234.93C86.01,232.55 85.81,230.18 85.61,227.8C85.41,225.42 85.21,223.04 85.01,220.66C84.81,218.28 84.59,215.91 84.39,213.53C84.18,211.15 83.98,208.77 83.78,206.39C83.58,204.01 83.39,201.64 83.2,199.26C83.02,196.88 82.83,194.51 82.67,192.13C82.51,189.75 82.36,187.37 82.23,184.99C82.1,182.61 81.99,180.24 81.89,177.86C81.79,175.48 81.71,173.11 81.64,170.73C81.57,168.35 81.52,165.97 81.46,163.59C81.41,161.21 81.36,158.84 81.31,156.46C81.26,154.08 81.21,151.71 81.15,149.33C81.09,146.95 81.03,144.57 80.95,142.19C80.88,139.81 80.79,137.44 80.7,135.06C80.61,132.68 80.5,130.31 80.39,127.93C80.28,125.55 80.16,123.17 80.04,120.79C79.92,118.41 79.79,116.04 79.67,113.66C79.55,111.28 79.44,108.91 79.33,106.53C79.22,104.15 79.12,101.77 79.02,99.39C78.93,97.01 78.84,94.64 78.76,92.26C78.68,89.88 78.61,87.5 78.55,85.12C78.49,82.74 78.43,80.37 78.38,77.99C78.33,75.61 78.29,73.24 78.25,70.86C78.21,68.48 78.18,66.1 78.15,63.72C78.12,61.34 78.1,58.97 78.08,56.59Q78.06,54.21 78.04,49.46L77.96,49.46Q77.94,54.21 77.92,56.59C77.9,58.97 77.88,61.34 77.85,63.72C77.82,66.1 77.79,68.48 77.75,70.86C77.71,73.24 77.67,75.61 77.62,77.99C77.57,80.37 77.51,82.74 77.45,85.12C77.39,87.5 77.32,89.88 77.24,92.26C77.16,94.64 77.07,97.01 76.98,99.39C76.88,101.77 76.78,104.15 76.67,106.53C76.56,108.91 76.45,111.28 76.33,113.66C76.21,116.04 76.08,118.41 75.96,120.79C75.84,123.17 75.72,125.55 75.61,127.93C75.5,130.31 75.39,132.68 75.3,135.06C75.21,137.44 75.12,139.81 75.05,142.19C74.97,144.57 74.91,146.95 74.85,149.33C74.79,151.71 74.74,154.08 74.69,156.46C74.64,158.84 74.59,161.21 74.54,163.59C74.48,165.97 74.43,168.35 74.36,170.73C74.29,173.11 74.21,175.48 74.11,177.86C74.01,180.24 73.9,182.61 73.77,184.99C73.64,187.37 73.49,189.75 73.33,192.13C73.17,194.51 72.98,196.88 72.8,199.26C72.61,201.64 72.42,204.01 72.22,206.39C72.02,208.77 71.82,211.15 71.61,213.53C71.41,215.91 71.19,218.28 70.99,220.66C70.79,223.04 70.59,225.42 70.39,227.8C70.19,230.18 69.99,232.55 69.79,234.93C69.59,237.31 69.39,239.68 69.17,242.06C68.95,244.44 68.72,246.82 68.48,249.2C68.24,251.58 67.98,253.95 67.71,256.33C67.43,258.71 67.13,261.08 66.83,263.46C66.52,265.84 66.21,268.22 65.88,270.6C65.55,272.98 65.21,275.35 64.84,277.73C64.47,280.11 64.1,282.49 63.67,284.86C63.24,287.24 62.79,289.63 62.26,292C61.73,294.38 61.15,296.76 60.49,299.13C59.82,301.52 59.06,303.89 58.25,306.26C57.43,308.65 56.49,311.03 55.58,313.4C54.66,315.78 53.64,318.14 52.76,320.53C51.89,322.9 50.96,325.26 50.33,327.66C49.71,330.02 49.16,332.41 48.99,334.8C48.82,337.17 48.89,339.58 49.31,341.93C49.74,344.34 50.57,346.74 51.56,349.07C52.6,351.5 54.02,353.86 55.46,356.2C56.94,358.61 58.71,360.96 60.35,363.33C62,365.71 63.77,368.07 65.35,370.47C66.9,372.82 68.44,375.19 69.74,377.6C71.01,379.94 72.15,382.32 73.09,384.73C74.01,387.08 74.75,389.47 75.36,391.87Q75.96,394.23 76.71,399Z" style="vector-effect: non-scaling-stroke; stroke-width: 2px; stroke: rgb(239, 85, 59); stroke-opacity: 1; fill: rgb(239, 85, 59); fill-opacity: 0.5;"/><path class="violin" d="M235.4,383.58Q236.25,380.57 236.9,379.11C237.58,377.59 238.44,376.08 239.46,374.64C240.56,373.1 241.88,371.61 243.33,370.17C244.89,368.62 246.71,367.15 248.55,365.7C250.49,364.17 252.64,362.71 254.72,361.23C256.82,359.73 259.07,358.29 261.1,356.77C263.05,355.31 265.05,353.87 266.68,352.3C268.16,350.87 269.62,349.41 270.56,347.83C271.4,346.41 272.04,344.87 272.22,343.36C272.39,341.89 272.12,340.34 271.67,338.89C271.2,337.36 270.27,335.87 269.36,334.42C268.41,332.89 267.19,331.43 266.04,329.95C264.87,328.45 263.58,326.98 262.41,325.48C261.25,324 260.09,322.52 259.05,321.01C258.04,319.54 257.09,318.05 256.25,316.54C255.44,315.07 254.72,313.58 254.08,312.07C253.46,310.6 252.94,309.1 252.46,307.6C251.99,306.12 251.59,304.62 251.21,303.13C250.83,301.64 250.5,300.15 250.16,298.66C249.83,297.17 249.52,295.68 249.2,294.19C248.89,292.7 248.57,291.22 248.27,289.73C247.97,288.24 247.67,286.75 247.38,285.26C247.09,283.77 246.8,282.28 246.52,280.79C246.24,279.3 245.97,277.81 245.7,276.32C245.43,274.83 245.18,273.34 244.92,271.85C244.66,270.36 244.4,268.87 244.15,267.38C243.9,265.89 243.65,264.4 243.4,262.91C243.15,261.42 242.91,259.93 242.67,258.44C242.44,256.95 242.2,255.46 241.99,253.97C241.78,252.48 241.59,250.99 241.42,249.5C241.25,248.01 241.1,246.52 240.97,245.03C240.84,243.54 240.74,242.05 240.65,240.56C240.56,239.07 240.51,237.58 240.45,236.09C240.39,234.6 240.36,233.11 240.31,231.62C240.27,230.13 240.23,228.65 240.18,227.16C240.13,225.67 240.08,224.18 240.02,222.69C239.96,221.2 239.88,219.71 239.81,218.22C239.73,216.73 239.65,215.24 239.57,213.75C239.49,212.26 239.4,210.77 239.32,209.28C239.24,207.79 239.17,206.3 239.1,204.81C239.03,203.32 238.97,201.83 238.92,200.34C238.87,198.85 238.82,197.36 238.78,195.87C238.74,194.38 238.7,192.89 238.66,191.4C238.62,189.91 238.59,188.42 238.56,186.93C238.53,185.44 238.49,183.95 238.46,182.46C238.43,180.97 238.4,179.48 238.36,177.99C238.32,176.5 238.27,175.01 238.22,173.52C238.17,172.03 238.11,170.54 238.04,169.05C237.97,167.56 237.89,166.08 237.81,164.59C237.73,163.1 237.65,161.61 237.56,160.12C237.47,158.63 237.38,157.14 237.29,155.65C237.2,154.16 237.11,152.67 237.03,151.18C236.95,149.69 236.87,148.2 236.8,146.71C236.73,145.22 236.67,143.73 236.61,142.24C236.55,140.75 236.51,139.26 236.46,137.77C236.42,136.28 236.38,134.79 236.34,133.3C236.3,131.81 236.26,130.32 236.22,128.83C236.18,127.34 236.14,125.85 236.1,124.36C236.06,122.87 236.01,121.38 235.97,119.89C235.93,118.4 235.89,116.91 235.85,115.42C235.81,113.93 235.77,112.44 235.74,110.95C235.71,109.46 235.68,107.97 235.66,106.48C235.64,104.99 235.62,103.51 235.61,102.02C235.6,100.53 235.59,99.04 235.58,97.55C235.57,96.06 235.57,94.57 235.56,93.08C235.55,91.59 235.55,90.1 235.54,88.61C235.53,87.12 235.52,85.63 235.5,84.14C235.48,82.65 235.46,81.16 235.43,79.67C235.4,78.18 235.38,76.69 235.34,75.2C235.3,73.71 235.25,72.22 235.2,70.73C235.15,69.24 235.1,67.75 235.04,66.26C234.98,64.77 234.91,63.28 234.84,61.79C234.77,60.3 234.7,58.81 234.63,57.32C234.56,55.83 234.5,54.34 234.44,52.85C234.38,51.36 234.33,49.87 234.28,48.38C234.23,46.89 234.19,45.4 234.16,43.91C234.13,42.42 234.11,40.93 234.09,39.44Q234.07,37.95 234.04,34.98L233.96,34.98Q233.93,37.95 233.91,39.44C233.89,40.93 233.87,42.42 233.84,43.91C233.81,45.4 233.77,46.89 233.72,48.38C233.67,49.87 233.62,51.36 233.56,52.85C233.5,54.34 233.44,55.83 233.37,57.32C233.3,58.81 233.23,60.3 233.16,61.79C233.09,63.28 233.02,64.77 232.96,66.26C232.9,67.75 232.85,69.24 232.8,70.73C232.75,72.22 232.7,73.71 232.66,75.2C232.62,76.69 232.6,78.18 232.57,79.67C232.54,81.16 232.52,82.65 232.5,84.14C232.48,85.63 232.47,87.12 232.46,88.61C232.45,90.1 232.45,91.59 232.44,93.08C232.43,94.57 232.43,96.06 232.42,97.55C232.41,99.04 232.4,100.53 232.39,102.02C232.38,103.51 232.36,104.99 232.34,106.48C232.32,107.97 232.29,109.46 232.26,110.95C232.23,112.44 232.19,113.93 232.15,115.42C232.11,116.91 232.07,118.4 232.03,119.89C231.99,121.38 231.94,122.87 231.9,124.36C231.86,125.85 231.82,127.34 231.78,128.83C231.74,130.32 231.7,131.81 231.66,133.3C231.62,134.79 231.58,136.28 231.54,137.77C231.49,139.26 231.45,140.75 231.39,142.24C231.33,143.73 231.27,145.22 231.2,146.71C231.13,148.2 231.05,149.69 230.97,151.18C230.89,152.67 230.8,154.16 230.71,155.65C230.62,157.14 230.53,158.63 230.44,160.12C230.35,161.61 230.27,163.1 230.19,164.59C230.11,166.08 230.03,167.56 229.96,169.05C229.89,170.54 229.83,172.03 229.78,173.52C229.73,175.01 229.68,176.5 229.64,177.99C229.6,179.48 229.57,180.97 229.54,182.46C229.51,183.95 229.47,185.44 229.44,186.93C229.41,188.42 229.38,189.91 229.34,191.4C229.3,192.89 229.26,194.38 229.22,195.87C229.18,197.36 229.13,198.85 229.08,200.34C229.03,201.83 228.97,203.32 228.9,204.81C228.83,206.3 228.76,207.79 228.68,209.28C228.6,210.77 228.51,212.26 228.43,213.75C228.35,215.24 228.27,216.73 228.19,218.22C228.12,219.71 228.04,221.2 227.98,222.69C227.92,224.18 227.87,225.67 227.82,227.16C227.77,228.65 227.73,230.13 227.69,231.62C227.64,233.11 227.61,234.6 227.55,236.09C227.49,237.58 227.44,239.07 227.35,240.56C227.26,242.05 227.16,243.54 227.03,245.03C226.9,246.52 226.75,248.01 226.58,249.5C226.41,250.99 226.22,252.48 226.01,253.97C225.8,255.46 225.56,256.95 225.33,258.44C225.09,259.93 224.85,261.42 224.6,262.91C224.35,264.4 224.1,265.89 223.85,267.38C223.6,268.87 223.34,270.36 223.08,271.85C222.82,273.34 222.57,274.83 222.3,276.32C222.03,277.81 221.76,279.3 221.48,280.79C221.2,282.28 220.91,283.77 220.62,285.26C220.33,286.75 220.03,288.24 219.73,289.73C219.43,291.22 219.11,292.7 218.8,294.19C218.48,295.68 218.17,297.17 217.84,298.66C217.5,300.15 217.17,301.64 216.79,303.13C216.41,304.62 216.01,306.12 215.54,307.6C215.06,309.1 214.54,310.6 213.92,312.07C213.28,313.58 212.56,315.07 211.75,316.54C210.91,318.05 209.96,319.54 208.95,321.01C207.91,322.52 206.75,324 205.59,325.48C204.42,326.98 203.13,328.45 201.96,329.95C200.81,331.43 199.59,332.89 198.64,334.42C197.73,335.87 196.8,337.36 196.33,338.89C195.88,340.34 195.61,341.89 195.78,343.36C195.96,344.87 196.6,346.41 197.44,347.83C198.38,349.41 199.84,350.87 201.32,352.3C202.95,353.87 204.95,355.31 206.9,356.77C208.93,358.29 211.18,359.73 213.28,361.23C215.36,362.71 217.51,364.17 219.45,365.7C221.29,367.15 223.11,368.62 224.67,370.17C226.12,371.61 227.44,373.1 228.54,374.64C229.56,376.08 230.42,377.59 231.1,379.11Q231.75,380.57 232.6,383.58Z" style="vector-effect: non-scaling-stroke; stroke-width: 2px; stroke: rgb(239, 85, 59); stroke-opacity: 1; fill: rgb(239, 85, 59); fill-opacity: 0.5;"/><path class="violin" d="M390.54,396.78Q390.87,392.22 391.15,389.95C391.43,387.67 391.75,385.38 392.2,383.11C392.65,380.82 393.2,378.54 393.85,376.28C394.51,373.99 395.29,371.71 396.13,369.45C396.98,367.16 397.97,364.89 398.95,362.62C399.93,360.34 401.02,358.07 402.01,355.79C403,353.52 404.03,351.25 404.9,348.95C405.76,346.69 406.58,344.41 407.22,342.12C407.85,339.86 408.36,337.58 408.7,335.29C409.04,333.02 409.22,330.74 409.28,328.46C409.34,326.18 409.22,323.9 409.06,321.62C408.9,319.34 408.6,317.06 408.29,314.79C407.98,312.51 407.58,310.24 407.21,307.96C406.83,305.68 406.41,303.41 406.04,301.13C405.67,298.85 405.29,296.57 404.97,294.29C404.65,292.01 404.36,289.74 404.11,287.46C403.86,285.19 403.66,282.91 403.49,280.63C403.32,278.35 403.2,276.08 403.08,273.8C402.96,271.52 402.86,269.24 402.76,266.96C402.66,264.68 402.57,262.41 402.46,260.13C402.35,257.85 402.23,255.58 402.1,253.3C401.97,251.02 401.81,248.75 401.66,246.47C401.5,244.19 401.33,241.92 401.17,239.64C401,237.36 400.83,235.08 400.67,232.8C400.51,230.52 400.34,228.25 400.19,225.97C400.04,223.69 399.9,221.42 399.78,219.14C399.66,216.86 399.55,214.59 399.46,212.31C399.37,210.03 399.29,207.75 399.22,205.47C399.15,203.19 399.08,200.92 399.02,198.64C398.96,196.36 398.91,194.09 398.84,191.81C398.77,189.53 398.71,187.26 398.62,184.98C398.53,182.7 398.43,180.42 398.31,178.14C398.2,175.86 398.07,173.59 397.93,171.31C397.79,169.03 397.63,166.76 397.48,164.48C397.33,162.2 397.17,159.93 397.02,157.65C396.87,155.37 396.72,153.09 396.58,150.81C396.45,148.53 396.32,146.26 396.21,143.98C396.1,141.7 395.99,139.43 395.9,137.15C395.81,134.87 395.73,132.6 395.65,130.32C395.57,128.04 395.5,125.77 395.43,123.49C395.36,121.21 395.3,118.93 395.22,116.65C395.15,114.37 395.07,112.1 394.98,109.82C394.89,107.54 394.8,105.27 394.7,102.99C394.6,100.71 394.49,98.44 394.36,96.16C394.23,93.88 394.09,91.6 393.94,89.32C393.79,87.04 393.64,84.77 393.47,82.49C393.3,80.21 393.12,77.94 392.94,75.66C392.76,73.38 392.57,71.11 392.39,68.83C392.21,66.55 392.02,64.27 391.84,61.99C391.67,59.71 391.5,57.44 391.34,55.16C391.18,52.88 391.03,50.61 390.9,48.33C390.77,46.05 390.66,43.78 390.57,41.5C390.47,39.22 390.4,36.94 390.33,34.66C390.26,32.38 390.21,30.11 390.17,27.83Q390.13,25.55 390.08,21L389.92,21Q389.87,25.55 389.83,27.83C389.79,30.11 389.74,32.38 389.67,34.66C389.6,36.94 389.53,39.22 389.43,41.5C389.34,43.78 389.23,46.05 389.1,48.33C388.97,50.61 388.82,52.88 388.66,55.16C388.5,57.44 388.33,59.71 388.16,61.99C387.98,64.27 387.79,66.55 387.61,68.83C387.43,71.11 387.24,73.38 387.06,75.66C386.88,77.94 386.7,80.21 386.53,82.49C386.36,84.77 386.21,87.04 386.06,89.32C385.91,91.6 385.77,93.88 385.64,96.16C385.51,98.44 385.4,100.71 385.3,102.99C385.2,105.27 385.11,107.54 385.02,109.82C384.93,112.1 384.85,114.37 384.78,116.65C384.7,118.93 384.64,121.21 384.57,123.49C384.5,125.77 384.43,128.04 384.35,130.32C384.27,132.6 384.19,134.87 384.1,137.15C384.01,139.43 383.9,141.7 383.79,143.98C383.68,146.26 383.55,148.53 383.42,150.81C383.28,153.09 383.13,155.37 382.98,157.65C382.83,159.93 382.67,162.2 382.52,164.48C382.37,166.76 382.21,169.03 382.07,171.31C381.93,173.59 381.8,175.86 381.69,178.14C381.57,180.42 381.47,182.7 381.38,184.98C381.29,187.26 381.23,189.53 381.16,191.81C381.09,194.09 381.04,196.36 380.98,198.64C380.92,200.92 380.85,203.19 380.78,205.47C380.71,207.75 380.63,210.03 380.54,212.31C380.45,214.59 380.34,216.86 380.22,219.14C380.1,221.42 379.96,223.69 379.81,225.97C379.66,228.25 379.49,230.52 379.33,232.8C379.17,235.08 379,237.36 378.83,239.64C378.67,241.92 378.5,244.19 378.34,246.47C378.19,248.75 378.03,251.02 377.9,253.3C377.77,255.58 377.65,257.85 377.54,260.13C377.43,262.41 377.34,264.68 377.24,266.96C377.14,269.24 377.04,271.52 376.92,273.8C376.8,276.08 376.68,278.35 376.51,280.63C376.34,282.91 376.14,285.19 375.89,287.46C375.64,289.74 375.35,292.01 375.03,294.29C374.71,296.57 374.33,298.85 373.96,301.13C373.59,303.41 373.17,305.68 372.79,307.96C372.42,310.24 372.02,312.51 371.71,314.79C371.4,317.06 371.1,319.34 370.94,321.62C370.78,323.9 370.66,326.18 370.72,328.46C370.78,330.74 370.96,333.02 371.3,335.29C371.64,337.58 372.15,339.86 372.78,342.12C373.42,344.41 374.24,346.69 375.1,348.95C375.97,351.25 377,353.52 377.99,355.79C378.98,358.07 380.07,360.34 381.05,362.62C382.03,364.89 383.02,367.16 383.87,369.45C384.71,371.71 385.49,373.99 386.15,376.28C386.8,378.54 387.35,380.82 387.8,383.11C388.25,385.38 388.57,387.67 388.85,389.95Q389.13,392.22 389.46,396.78Z" style="vector-effect: non-scaling-stroke; stroke-width: 2px; stroke: rgb(239, 85, 59); stroke-opacity: 1; fill: rgb(239, 85, 59); fill-opacity: 0.5;"/><path class="box" d="M68.44,315.47H87.55M68.44,341.57H87.55V262.59H68.44ZM78,341.57V356.11M78,262.59V149.64" style="vector-effect: non-scaling-stroke; stroke-width: 2px; stroke: rgb(239, 85, 59); stroke-opacity: 1; fill: rgb(239, 85, 59); fill-opacity: 0.5;"/><path class="box" d="M224.44,320.01H243.55M224.44,343.6H243.55V265.48H224.44ZM234,343.6V356.62M234,265.48V148.7" style="vector-effect: non-scaling-stroke; stroke-width: 2px; stroke: rgb(239, 85, 59); stroke-opacity: 1; fill: rgb(239, 85, 59); fill-opacity: 0.5;"/><path class="box" d="M380.44,269.27H399.55M380.44,323.88H399.55V195.93H380.44ZM390,323.88V355.67M390,195.93V62.11" style="vector-effect: non-scaling-stroke; stroke-width: 2px; stroke: rgb(239, 85, 59); stroke-opacity: 1; fill: rgb(239, 85, 59); fill-opacity: 0.5;"/><path class="mean" d="M68.44,294.6H87.55" style="fill: none; vector-effect: non-scaling-stroke; stroke-width: 2px; stroke-dasharray: 4px, 2px; stroke: rgb(239, 85, 59); stroke-opacity: 1;"/><path class="mean" d="M224.44,293.53H243.55" style="fill: none; vector-effect: non-scaling-stroke; stroke-width: 2px; stroke-dasharray: 4px, 2px; stroke: rgb(239, 85, 59); stroke-opacity: 1;"/><path class="mean" d="M380.44,254.12H399.55" style="fill: none; vector-effect: non-scaling-stroke; stroke-width: 2px; stroke-dasharray: 4px, 2px; stroke: rgb(239, 85, 59); stroke-opacity: 1;"/></g></g></g><g class="overplot"/><path class="xlines-above crisp" d="M0,0" style="fill: none;"/><path class="ylines-above crisp" d="M0,0" style="fill: none;"/><g class="overlines-above"/><g class="xaxislayer-above"><g class="x2tick"><text text-anchor="middle" x="0" y="533" transform="translate(730,0)" style="font-family: 'Open Sans', verdana, arial, sans-serif; font-size: 12px; fill: rgb(42, 63, 95); fill-opacity: 1; white-space: pre; opacity: 1;">&#60;=1</text></g><g class="x2tick"><text text-anchor="middle" x="0" y="533" transform="translate(886,0)" style="font-family: 'Open Sans', verdana, arial, sans-serif; font-size: 12px; fill: rgb(42, 63, 95); fill-opacity: 1; white-space: pre; opacity: 1;">(1, 2]</text></g><g class="x2tick"><text text-anchor="middle" x="0" y="533" transform="translate(1042,0)" style="font-family: 'Open Sans', verdana, arial, sans-serif; font-size: 12px; fill: rgb(42, 63, 95); fill-opacity: 1; white-space: pre; opacity: 1;">>2</text></g></g><g class="yaxislayer-above"><g class="y2tick"><text text-anchor="end" x="651" y="4.199999999999999" transform="translate(0,456.69)" style="font-family: 'Open Sans', verdana, arial, sans-serif; font-size: 12px; fill: rgb(42, 63, 95); fill-opacity: 1; white-space: pre; opacity: 1;">0</text></g><g class="y2tick"><text text-anchor="end" x="651" y="4.199999999999999" style="font-family: 'Open Sans', verdana, arial, sans-serif; font-size: 12px; fill: rgb(42, 63, 95); fill-opacity: 1; white-space: pre; opacity: 1;" transform="translate(0,366.33)">0.5M</text></g><g class="y2tick"><text text-anchor="end" x="651" y="4.199999999999999" style="font-family: 'Open Sans', verdana, arial, sans-serif; font-size: 12px; fill: rgb(42, 63, 95); fill-opacity: 1; white-space: pre; opacity: 1;" transform="translate(0,275.97)">1M</text></g><g class="y2tick"><text text-anchor="end" x="651" y="4.199999999999999" style="font-family: 'Open Sans', verdana, arial, sans-serif; font-size: 12px; fill: rgb(42, 63, 95); fill-opacity: 1; white-space: pre; opacity: 1;" transform="translate(0,185.62)">1.5M</text></g></g><g class="overaxes-above"/></g></g><g class="polarlayer"/><g class="smithlayer"/><g class="ternarylayer"/><g class="geolayer"/><g class="funnelarealayer"/><g class="pielayer"/><g class="iciclelayer"/><g class="treemaplayer"/><g class="sunburstlayer"/><g class="glimages"/><defs id="topdefs-6a032a"><g class="clips"/></defs><g class="layer-above"><g class="imagelayer"/><g class="shapelayer"/></g><g class="infolayer"><g class="g-gtitle"><text class="gtitle" x="60" y="50" text-anchor="start" dy="0em" style="font-family: 'Open Sans', verdana, arial, sans-serif; font-size: 17px; fill: rgb(42, 63, 95); opacity: 1; font-weight: normal; white-space: pre;">whole_rank Distributions (paperback better)</text></g><g class="g-xtitle"><text class="xtitle" x="314" y="561.8" text-anchor="middle" style="font-family: 'Open Sans', verdana, arial, sans-serif; font-size: 14px; fill: rgb(42, 63, 95); opacity: 1; font-weight: normal; white-space: pre;">Hardcover over Paperback</text></g><g class="g-x2title"><text class="x2title" x="886" y="561.8" text-anchor="middle" style="font-family: 'Open Sans', verdana, arial, sans-serif; font-size: 14px; fill: rgb(42, 63, 95); opacity: 1; font-weight: normal; white-space: pre;">Hardcover over Paperback</text></g><g class="g-ytitle"><text class="ytitle" transform="rotate(-90,26.528125000000003,310)" x="26.528125000000003" y="310" text-anchor="middle" style="font-family: 'Open Sans', verdana, arial, sans-serif; font-size: 14px; fill: rgb(42, 63, 95); opacity: 1; font-weight: normal; white-space: pre;">whole_rank</text></g><g class="g-y2title"><text class="y2title" transform="rotate(-90,598.528125,310)" x="598.528125" y="310" text-anchor="middle" style="font-family: 'Open Sans', verdana, arial, sans-serif; font-size: 14px; fill: rgb(42, 63, 95); opacity: 1; font-weight: normal; white-space: pre;">whole_rank</text></g><g class="annotation" data-index="0" style="opacity: 1;"><g class="annotation-text-g" transform="rotate(0,314,87)"><g class="cursor-pointer" transform="translate(273,74)"><rect class="bg" x="0.5" y="0.5" width="82" height="25" style="stroke-width: 1px; stroke: rgb(0, 0, 0); stroke-opacity: 0; fill: rgb(0, 0, 0); fill-opacity: 0;"/><text class="annotation-text" text-anchor="middle" x="41.296875" y="19" style="font-family: 'Open Sans', verdana, arial, sans-serif; font-size: 16px; fill: rgb(42, 63, 95); fill-opacity: 1; white-space: pre;">Paperback</text></g></g></g><g class="annotation" data-index="1" style="opacity: 1;"><g class="annotation-text-g" transform="rotate(0,886,87)"><g class="cursor-pointer" transform="translate(845,74)"><rect class="bg" x="0.5" y="0.5" width="81" height="25" style="stroke-width: 1px; stroke: rgb(0, 0, 0); stroke-opacity: 0; fill: rgb(0, 0, 0); fill-opacity: 0;"/><text class="annotation-text" text-anchor="middle" x="40.921875" y="19" style="font-family: 'Open Sans', verdana, arial, sans-serif; font-size: 16px; fill: rgb(42, 63, 95); fill-opacity: 1; white-space: pre;">Hardcover</text></g></g></g></g></svg>